<svg xmlns="http://www.w3.org/2000/svg" viewBox="0 0 4320 2160"><defs><style>.cls-1{fill:#0304fe;}</style></defs><g id="Layer_19" data-name="Layer 19"><g id="Af"><path class="cls-1" d="M4322,1286h-14.94c-2-1.52-.9-3.47-.77-5.3,1.36-1.39,3.1-.35,4-.57l7.13-4.13H4322Z" transform="translate(-89.7 -832)"/><path class="cls-1" d="M3586,1031.85h-4.69l-3.07,2.84v5.64l-1.88,2.47c-.24,4.1-.24,4.1,3.57,10.17v7.91c4.21,1.37,6.68,4.89,9.88,7.91v4.41c-.37.34-.6.77-.84.77-4,0-8,0-12,0-.85,1.64-1.68,3.28-2.91,5.67v7.19c.67.88,1.42,1.87,2,2.7-.73,3.31-3.33,3.75-5.49,5s-3.7,3.74-4.87,5l-3.66,1v12.15L3560,1115V1121l2.28,2.44c-1.52,2.88-2.45,6.25-5.51,8.76-.41-1.24-.8-2.38-1.18-3.54-1.45-1.2-3.14-.36-4.61-.53-.8.67-1.73,2-2.26,1.81-3.7-1-6.31,3.66-10.13,1.76-1.33-1.34-.27-3.1-.63-4.65l-2.91-2.91h-7.44l-6.82-3.92-3.62,3.62h-6.7c-2.61.61-3.57,3.35-6,1.78-1.11-2.09-.21-4.44-.63-6.67-1.27-1.62-3.07-.59-4.71-.92l-2.22,2H3491l-2.09-2h-4c-.33-.53-.93-1-.95-1.59-.09-3,0-6,0-9.16l-1.84-2.18q-.18-3.18-.38-6.71l-5-.57-4.58-9.64v-6.94l-2-2v-12c1.85-3.16,3.32-7.15,7.65-9.51l3.57,2.1h7.16l2.42,2.05h3.92l3-5.81v-7.2c1.77-1.54,3.49-.71,5.07-.87a36.19,36.19,0,0,1,3.89,0l2.18-2h4.71c2-.84,3.89-1.3,5.38-2.33s3.65-2.54,4.12-4.21c1.07-3.83,4.28-5.61,6.51-8.34.12-1.54.25-3.12.39-4.92l6.9-.34,3.71-3.71,6.87-.37c.17-1.81.31-3.38.45-4.93,1.64-3.38,6.88-2.42,7.83-6.6.79-3.46,4.35-4.71,6.08-7.63v-4l3.05-.85,1.77-3.74H3571c1,.93,1,.93,1,7.32l3.95,2.84v4.7c1.7,2.33,5.41-.18,6.77,2.86,3,0,4.32,2.58,6.25,4.25h3.94c1.95,1.59,1,3.53.71,5.41a22.27,22.27,0,0,0-5,2.5c-1.18.8-3.24-.54-4.6,1l1.94,2.13Z" transform="translate(-89.7 -832)"/><path class="cls-1" d="M3830,1104c.23.56.3,1.43.71,1.64,2.73,1.36,5.53,2.57,9.27,4.27h10.68l2.47,2.09c.95,0,2.57-.51,3.47.08,5.9,3.88,12.84,5.8,18.65,9.92H3888c0,1.17,0,2.34,0,4l4,0a1.54,1.54,0,0,0,1.37,2,39.69,39.69,0,0,0,4.63,0,1.7,1.7,0,0,0,2,2h3.25c.35,1.06.73,2.21,1.16,3.53,3.28-.14,4.5,3.06,7.33,4.72l3.57-1.94.69,1.69v2c-.33,0-.86-.13-.95,0a7.16,7.16,0,0,0,0,8c.09.15.62,0,.95,0-.45.78-.92,1.55-1.33,2.35-.27.52-.45,1.1-.67,1.65h-6.95l-2.16-2h-7.24l-15.7-8.11c-1.48.14-3.41.31-5.34.54-.19,0-.35.44-.49.63l1.84,2.13c-1.53.81-1.93,2.92-4,2.82.74-3.2-2.26-5.06-2.76-8l-2.66.24c-.48,1.38-.89,2.53-1.34,3.83L3865,1142H3860c-5.17-2-9.5-6-15.34-6.34l-3.6-3.6h-3.81c-2.83-2.24-5.19-4.74-6.22-8h-16l-2.72,2.27-4.26-2.58h-5.26c-1.37-1.39-2.47-2.79-4.39-1.19-.31,1.75-.63,3.58-1,5.66l-2.12-1.93c-3-1.32-3.83,2.71-6.48,2a7.5,7.5,0,0,0-.58,1.37l2.53,4.35c2.79,0,4.88.35,6.18-2,2.53,0,5.17,0,7.81,0,.26,0,.52.32.79.5L3807,1134h15.89c1.5,2.37,4.77,1.82,6.41,4,.21.28,1.23,0,1.5-.07l3.1-2.08,12.35,6.44h7.06L3855,1144h5c.29,2.06,2,2.93,3.41,4h5.08l3.51,2v3c1.89,1,3.78,2.8,5.68,2.82,2.5,0,4.06,1.76,6.14,2.12,2.61.46,3.38,2.91,5.28,4.08,1.53-.35,3.29.7,4.76-.85a20.53,20.53,0,0,1,.17-2.76,18.85,18.85,0,0,1,.89-2.67c1.61,2.92,4.17,2.07,6.28,2.48l5.6,5.6,2,.45,3.76,5.75H3916c.22.55.35,1.51.68,1.59,1.19.27,1.39-.62,1.32-1.59h2l2,3.49v2.84l2.8,5.47,2.84.59c.19,1.7.37,3.27.54,4.82L3934,1190h2c.06,1.2.15,2.4.28,4l4.08-.45c-.43-1.57-.73-2.64-1-3.58H3936c.09-1.38-.58-2-2-2v-4.92l-2-2.1v-2.27l-4-3.48V1170h3l7.35,7.52L3942,1179c-1.18,2.65,3.22,3.4,2,6,2,.94,1.59,3.32,3,5.06h8.41c1.2,2.76.27,5.39.59,7.92-1.84.2-3.77-.48-6,.78.1.91.21,2,.41,3.93,2.05-1.5,4.19.43,5.55-1.83V1198h8l-1.82,3.18,2.87,2.87h6.22c.58,2.34,2.2,3.89,2.73,6h-4.8l-2.74,2.11c-2.68-.52-3.53-2.52-5.21-3.82l-4.47-.51-1.61-1.61H3940l-6-3.3V1201l-8.61-8.61-2.53-.54c-.7-1.37-1.34-2.77-2.12-4.09s-2.75-1.83-2.73-3.85-1.73-3.19-2.92-3.58c-1.59-.52-3-.94-4-2.29h-8l-2.13-2h-5.27l-5.5,2.84c.47,3.73-2,6.4-3.47,9.46-.26.55-.47,1.12-.7,1.69h-7.14c-.35-.39-.7-1.06-1.25-1.33a30.52,30.52,0,0,0-3.33-1.27c-.28-1.06-.51-2-.8-3.08a9.46,9.46,0,0,1-2.6-.52,11.46,11.46,0,0,1-2.21-1.91h-5.92c-2.11-3.08-5.52-4.18-8.52-5.73-1.86-.79-3.91.53-5.71-.64L3847,1174h-13.95c-.62.57-1.34,1.23-2.12,1.93h-3.85l-2.17,2H3818v-3c2.54-3,6.21-4.14,9.69-5.67-.56-1.66-2.36-2.84-1.73-5s-2.71-2.86-2-5.16a2.54,2.54,0,0,0,0-2c-1.8-2.21-2.56-5-3.94-7.38-.14-.25,0-.66-.15-.93s-.49-.71-.68-.68c-3.81.59-4.4-4.78-8.25-4.4-.9.09-1.56-2-3.19-1.82s-3-.88-4.4-1.38c-2.61-.9-4.67-3.56-8-2.71-.58.15-1.51-1.07-2.49-1.81h-7.59c-1.63-2.29-4.94-1.71-6.39-4.09-2.38.33-4.54,0-6.17-2-2.3.45-4.23-.43-6-1.71L3766,1130a1.7,1.7,0,0,0-2,2h-5l-2.79-2.93c.83-2.93-1.46-5.18-2.3-7.79s-3.46-3.46-5.87-4.31v-3h4.51l4.51,2.57,3.82-4.57c5.34,0,5.34,0,7.11-2H3750a4.52,4.52,0,0,1-3.89-3.76c-.29-2-1.87-2.58-2.82-4.06h-8.17l-5.12-5.56c.2-4.07-3.5-4-6-5.55l4-1.94c-2.08-2.48-5-.25-7.27-1.43-.23-.56-.47-1.13-.7-1.7h3.2l1.13-3.35c2.07-1.33,4.38-.39,6.12-.6l3.55-2h4c-.39,1.72,1.71,1.88,2.06,3.17v6.22a11.24,11.24,0,0,0,2.69.57c1.72-.07,5.68-2.08,8.3-3.93h5.34l7.34,3.91h7.13c1.77,1.38.88,2.83,1.14,4.06-2.51.29-5.11-.56-7.52.41-.19.74-.33,1.32-.48,1.91,4.12,5,4.16,5,7.2,5.73a21.49,21.49,0,0,1,1.19-3.35c.21-.4,1.05-.48,1.61-.7v14h6l2,3.49V1119l2.9,2.9h3.7l9-9L3800,1108h6l4,0c0-1.64,0-2.81,0-4-.15-3.35,4.13-1,4.6-3.6l4.26-.47,2.28,2.07H3826c.43.67.72,1.65,1.33,1.92A7,7,0,0,0,3830,1104Zm111.71,93.29L3941,1196c-.22.22-.66.49-.63.66a6.53,6.53,0,0,0,.63,1.34Zm18,5.42-.71-.71a6.53,6.53,0,0,0-.63,1.34c0,.17.41.44.63.66Zm-224-114-.71-.71a6.53,6.53,0,0,0-.63,1.34c0,.17.41.44.63.66Z" transform="translate(-89.7 -832)"/><path class="cls-1" d="M3328,1040c-1.66.3-2-1.52-3.35-2H3321c-3.8-3.8-7.65-7.46-11.26-11.35a20.24,20.24,0,0,1-3.48-5.51c-.5-1.11-.2-2.58-.26-4l-2-2.12,2.79-2.61L3314,1016a1.7,1.7,0,0,0,2,2c1.67-.3,2,1.53,3.09,1.94H3323l2.6-2.28,4,2.16h5c2.11,2.07,4.67,3.46,5.55,6.58.78,2.72,4.59,3.72,4.26,7.08l2.83.73c2.38,1.84,3.68,5.12,6.71,5.68s3.7,4.32,7.25,4.45c2.14.08,2.78,3.2,3.5,5.3l3,.79c.17.79.35,1.7.58,2.79,1.82,1.79,4.27.4,7.09.9.83,1.2,1.95,2.85,2.66,3.88h6c.56.23,1.58.41,1.6.68.22,2.46,1.79,3.93,3.52,5.31,1.53.35,3.27-.68,4.61.72.35,1.14.69,2.27,1,3.29H3400v5c1.51,1.45,2.82.77,4,1,0,1.17,0,2.34,0,4l4,0c-.3,1.66,1.51,2,1.95,3.11v4.72l-3.82,2.76c-.51,3.38,1.87,4,3.09,5.46h5.83L3418,1097V1102l3.33,4.25c3.77-1.06,5.09-4.51,8.07-6.27H3435l2.91,2.91v3.85c2.19,1.85,3.36,4.83,6.7,5.3.91.13,2.62,4.59,3.23,7.66-2.91.53-5.84.15-8.95.29l-4.67,5.19v26.56l4.92.38,1.74,1.74h12l1.92,1.92h6.93l6.1,6.16h3l2.18,2H3484c.67,3.26,3.71,3.77,6,5.14-.34,1.51.69,3.25-1,4.89h-6.18c-.34.85-.57,1.41-.79,2h-24.5l-7-4h-9.4c-2.15-1.32-.37-3.68-1.39-5.31a5.3,5.3,0,0,0-1.69-.66c-3-.07-5.94,0-9.06,0l-4.7-5c2-3,3.37.35,5.1.64,1.27-1,.41-2.46.66-3.68,2.16-1.22,2.16-1.22,1.11-3.78L3428,1156v-3c-.52-.34-1.05-1-1.57-1-1.56,0-3.31-.61-4.53,1s-3.09.47-4.58,1.06c-1.94-2.22-4.5-3.56-5.49-6.69a8.45,8.45,0,0,0-4.54-4.9c-2.68-.92-4.06-3.63-6.22-4.18-2.56-.66-3.81-2.32-5.43-3.78-2-1.78-3.8-3.71-5.65-5.54V1127c-.94-.94-1.84-2.63-2.83-2.68-3.15-.17-4.4-2.64-6.17-4.41-1.53-1.53-1.54-4.06-3.51-5.53a52.42,52.42,0,0,1-5.32-5.21v-8l-4-4V1094l-7.6-7.58c-.36-1.73-.55-2.64-.78-3.71l-7.52-3.41c-.19-2.18.38-5-.78-6.49-1.47-1.86-1.36-3.54-1.49-5.81a15.73,15.73,0,0,0-2.57-2.5,15.27,15.27,0,0,0-3.39-1.24V1059l-9.81-4.9v8.6c1.73,2.54,2.59,6.14,5.73,8.09v4.4a17.39,17.39,0,0,1-2.35.8,3.27,3.27,0,0,1-2,0c-1.92-.93-3.77-2-5.67-3.08V1069c-.71-.8-1.36-1.53-2.29-2.55l1.67-3.21c2.33-3.13-1.79-5.56-1.27-8.84l3.14-.64c.76-.76.76-.76.79-7l-4-2.83V1040h3l2.08,2h2.06c.88-1.81,1.75-3.61,2.64-5.42l-3.61-1.24c-.5-1.78.52-3.52-.85-5-2.77,0-5.66,0-8.54,0-.24,0-.47.44-.8.77l4.06,1.86Zm60.23,76.56c-.44-1.55-.3-3.1-2.05-1.74.55.46,1.09.92,1.59.62.44,1.55.3,3.1,2.05,1.74C3389.27,1116.72,3388.73,1116.26,3388.23,1116.56ZM3381,1106c1.42-1.34,1.44-2.67-.18-4.14-1.34.67-3.07-.61-4.48.75.27,1.65,1.81,2.27,2.71,3.39Zm24,30c1-.19,2.5.61,2.71-1.29L3405,1132c-1,.19-2.5-.61-2.71,1.29Zm-32-42.16c-1.29,1.81-1.88,3.08.29,3.91C3374.38,1096.59,3374.31,1095.49,3373,1093.85Zm12,16.15c-.22.22-.66.49-.63.66a6.53,6.53,0,0,0,.63,1.34c.22-.22.66-.49.63-.66A6.53,6.53,0,0,0,3385,1110Z" transform="translate(-89.7 -832)"/><path class="cls-1" d="M1428,1014h-4v-3c-1.24-1.83-3.87-2.59-4-5.14.06-1.65,1.36-2.33,2.3-3.08a13.81,13.81,0,0,1,3.43-1.48c-.64-4.52,4.93-8.47,1.28-13.34h-3c1-2.79-2.46-4.28-2-7.12l2.17-1.88V968.68c2-1.18,3.94-.47,5.79-.68h3c1.63,3,3.32,5.93,3.48,9.7,6.51-.07,11,5.18,16.93,6.68l8.51,8.51v3.58c1.93,3.92,6.43,4.16,9,7.17,2.17,2.56,5.51,4.12,8.66,6.36H1486c-.15,1.9,1.16,2.07,2.51,2s3.48.69,3.49-2h19c1.42,2.43,4.73,1.85,6.33,4,3.45-1.16,5.76,2.88,9.35,2,3.44,3.67,8.73,5.19,11.9,9.48.43.58,2,.23,2.58.81,1.06,1.14,3,1.74,2.88,3.76v5.25l-3.84,1.31c-.09,1.4-.18,3-.28,4.56-4.51,2.14-4.51,2.14-7.08,7.06-.47-1.34-.88-2.5-1.28-3.66-2.41-2-3.3,1-5,1.51-1.65-.66-3.32-1.74-5.09-1.92s-3.18-.49-4.23-2h-7.93L1507,1040h-4.55c-1-1.22-2.18-2.77-3.23-4.11-4.17.8-6.86-2.8-10.78-2.16-.19-.93-.38-1.85-.6-2.94-2.42-1.82-4.66-1.27-7,1.43-.41-1.34-.75-2.43-1.09-3.53-1.38-1.42-3.15-.35-4.94-.77l-1.27,3.73c-2.75.92-5.72-.14-8.32.43l-2.36-2.08c-3.09-.4-3.76,2.51-5.6,3.74-1.8-.33-1-1.94-1.4-2.9l-5.5-2.86H1448c-.43-.67-.72-1.65-1.33-1.92a7.17,7.17,0,0,0-2.67-.08c-.43-.67-.72-1.65-1.33-1.92a7,7,0,0,0-2.67-.08v-2c-.66-3.25-3.65-3.74-5.85-5l1.89-2.45c-.12-2.54-2-3.06-2.84-4.38h-4.39C1427.45,1011.42,1428.23,1012.8,1428,1014Z" transform="translate(-89.7 -832)"/><path class="cls-1" d="M3634,910h5.24c.36,1.07.75,2.22,1.3,3.87,2.67.35,5.6,0,8.44.17l2,1.81a13.3,13.3,0,0,1,2.37-1.79c.49-.23,1.23.1,1.91.19,1.48,2.06.39,4.43.72,6.66l-2,2.13v5a1.7,1.7,0,0,0,2,2h9.11l4.74,5.33V942c1.18,2.25,1.9,4.35,3.22,6,1.51,1.82.82,3.54.63,5.37l-1.7.68c-.56-.23-1.41-.3-1.63-.71a23.87,23.87,0,0,1-1.27-3.47l-2.81.61c-.1,2.1-1.23,4.08.79,5.57H3672v3.38l6,3.93c.73,2.05-1.63,2.62-2,4.16.79,3.95,4.64,6.82,4,11.37l2,2.19v7.84l2,2.17v4c-2.44,1-2,3.86-3.34,5.67-1.16,1.52-.65,4.31-.89,6.55-.23.23-.46.66-.7.66-2,.06-4,0-5.85,0-2.3,1.37-.49,3.75-1.52,5.38s-1.91,3.12-2.86,4.68l-2.21-.14-.83-2.76c-4.94-3.28-11.54-4.42-15.63-10.22v-5.69c.91-1.63,3.25-3.13.87-6.55l-4.58-2.5-.69,3.28c-1.51.28-3.52.25-5.08,1.07-1.41.74-2.36,2.26-4.41.87-.08-.76-.13-1.7-.28-2.63s-.4-1.79-.61-2.68c-1.45.45-1.76,2.28-3.38,2,.25-1.21-.67-2.71.67-3.63,1.67-1.15,1.33-2.78,1.33-4.37h3c1.09-1.87,2.17-3.74,3-5.18,2-1.33,3.66-.66,5.24-.8,1.29-.11,2.6,0,4.08,0l1.29,3.72,2.73.25,1.32-3.67,4.91-.56c.19-.84.4-1.73.58-2.53l-2.07-2.26c2.06-2.2,3.4-.55,4.81.91a10.32,10.32,0,0,0,4.54-.14c1.9-4.07-1.41-6.58-2.23-9.22l-6-2.81-3.48,6.08h-6.91l-1.39-1.39c-1.31-.2-1.43.63-1.38,1.62-1.23-.25-2.67.62-4.2-1.31,2.29-5.08-2.81-8.67-4-13.41.81-.85,1.47-1.57,2.14-2.29-1.26-.93-1.92-2.64-3.67-3l-5.9,1.4c-.89-1.07.31-3.62-2.4-3.4v-2.53l-2-3.47h5l2.12,2H3646v4.32c-1.07,2.53-3.76.53-3.62,3.15,1.12,1,2.43.36,3.62.53.31,2.52-.6,5.15.5,7.72A17.46,17.46,0,0,0,3650,950a1.7,1.7,0,0,1,2-2c0,3.31,0,6.63,0,9.94a6.2,6.2,0,0,0,.65,1.79c2.48.23,5,.9,7.33-.68-.29-2.32.73-4.68-.94-7.11-.69,1.43-1.28,2.66-1.86,3.88-1.2.18-2.48.66-3-1l1.62-2v-6.16L3654,946c-.21-1.19.51-2.52-1-4h-7c-.24-1.22.6-2.63-1-4-1.14,1.05-2.32,3-5,1.15,0-3.11,0-6.65,0-9.8-1.35-2.3-3.27-3.15-5.44-3.94s-2.12-3.69-3.66-5.59a22.92,22.92,0,0,1-1.26,3.44c-.22.42-1.07.49-1.63.72a5,5,0,0,0-3.37-3.72c-1.1,1.17-.45,2.51-.63,3.72h-2V909.08l-2-2.14V903l-2-2.11V891l2-2.18V885l4.78-4.78,3.16-.63v-6.73l2-.82c2-.1,2.43,2,3.9,2.8v6.12l-1.84,2.1v4.09l-3.39,2.72-4,.42a6.37,6.37,0,0,0-.65,1.82c-.06,3.31,0,6.62,0,9.93l-1.74.79L3624,906c.22,1.19-.53,2.54,1,4Zm42.6,90.88c-4.7-1-4.7-.93-6.29.43C3672.07,1002.4,3673.84,1002.31,3676.6,1000.88Z" transform="translate(-89.7 -832)"/><path class="cls-1" d="M3608,1150h-5l-2.08,1.93c-1.64.41-2.48-.59-3.54-1.4a12.09,12.09,0,0,0-3.39-1.26v-4.22l2-2.18V1139l2-2.19v-5.09l-3-5.76h-6c-.34-.54-.94-1.06-.95-1.6-.08-3.94,0-7.89,0-11.93l3.25-.68c1.47-1.22.43-3,.78-4.67L3594,1105v-7.2a49.47,49.47,0,0,1,2.86-5.53,32.21,32.21,0,0,1,3.64-3.73l-2.73-4.56,2.18-3.26V1077l7.5-7h3.78c.36-1.08.75-2.23,1.13-3.38.25-.21.49-.62.73-.62,2.66,0,5.32,0,7.93,0l1.47,1.47c.26.17.51.5.77.51,3.31,0,6.62,0,9.76,0l1.79,1.79h18.42L3663,1060l2.21.21c1.62,2,.43,4.45.77,6.66-2.42,1.77-2,5.34-4.78,7.09-2.2,1.4-3.84,3.68-6,5.81h-12.5l-1.56-1.56h-21.94l-3.22,2.11-3.34-2.23h-3.9c-.62.76-1.44,1.8-2.59,3.22v10.31c4.42,0,5.41,3.67,6.82,6.44,4.55-.27,5.22-5.34,9-6h8a4.85,4.85,0,0,1,4,4.29l-2,3.71c-.7,2.88-2.94,3.87-5.72,4.55a20.08,20.08,0,0,1-.3,2.7c-.48,2,1.76,2.68,1.95,4.14.51,3.76,4.36,4.69,6,8.21v7.23l3,3.17a29.46,29.46,0,0,1,3.49,0,1.56,1.56,0,0,1,1.56,2h-3.08l-1.76,2h-4c-2.53,2.3-5.14,4.55-6.17,8H3624c-2,.1-2.42-2-3.89-2.78V1134c-1.07-2.13-1.9-3.76-2.84-5.64l-2.63-.53c-1.63-3.57.27-7.6-1-11.21-3.09-1.89-3.87,1.29-5.56,2.38l1.31,1.41a5.3,5.3,0,0,1,.61,1.69c.05,6.25,0,12.5,0,18.75-.75,1.33-2.71,2.07-2,4.13l2,2.11v3Zm-3.77-25.44c-.44-1.55-.3-3.1-2.05-1.74.55.46,1.09.92,1.59.62.44,1.55.3,3.1,2.05,1.74C3605.27,1124.72,3604.73,1124.26,3604.23,1124.56Zm-8.07-3.27,4.5-5,3.53-.86-1-4.16c-1.57.94-2.54,1.62-3.61,2.12s-2.23.83-3.43,1.26Z" transform="translate(-89.7 -832)"/><path class="cls-1" d="M1226,1050h3c.68-1.35,1.36-2.72,2.06-4.09s1.33-2.78,2.12-4.1,2.79-1.86,2.84-4.4l-4.35-5.06,2.11-3.9v-12.9l2.27-2.87c1.11-1.75-2-2.6-2-4.39,0-2,.09-4-1.94-5.19.66-2.26-2.15-3.09-2.1-5.1l1.7-.7c1.22-2.29-1.13-5.26.51-6.59,2.39-1.28,4.21.12,5.47-1.34,1-1.7-.89-4,1.5-5.26l2,4.17,1.43-3.91c3.89-1.65,6.25,1.83,9.19,2.72.27,1,.5,1.89.71,2.68h10.7L1267,986h4l3.78,7c.54.57-2.31,3.28.37,4.92H1279l5-4.93v-3c.57.23,1.62.45,1.63.71.12,2.89.07,5.78.07,8.65l-3.52,1.25c.3,1.87-1.47,3.95.94,5.18l2.07-1.68c1.42,2,.55,4,.81,5.89h-2.91l-2,1.91c-1.42-.8-2.32-3.43-5.06-.95v7c-2.77,1-4.24,3.38-6,5.25V1032c-3.79-2-3.79-2-8-2v-22.9c-.66-.72-1.33-1.43-2-2.15-.28-2.22.75-4.58-.89-7-2-.16-4.32.53-6-1.73-.51-.66-2.49-.3-3.78-.21-.39,0-.73.73-.94,1l1.92,3-2.06,3.15v9.23c1.28,2.43,2.12,4,3,5.76l2.68-.87c0-.89.07-1.54.11-2.23l-2-2.14c0-3.29,0-6.61,0-9.93,0-.24.42-.47,1.56-1.66a20.35,20.35,0,0,0,4.28,11.86v7.9L1256,1023v6a53.16,53.16,0,0,1-4.61,4.51,6.6,6.6,0,0,1-2.51.93l-2.89,5.07V1049c-1.22.78-1.72,2.57-3.55,2.49-.36-1.92-.69-3.75-1.4-7.59-.71,3.82-1,5.62-1.39,7.43-1.29,2-3.72,2.26-5.57,3.55v5.81a11.86,11.86,0,0,0-1.31,1.55c-1.36,2.34-1.31,6-5.43,5.78a1.77,1.77,0,0,0-1.26,1.2c-.24,3.45-3.44,4.53-5.16,6.73-1.58.35-3.35-.7-4.79.9L1218,1079v3.86c-.43,1.12-2.25,1.45-2,3.11-1.2-.23-2.58.56-4-1v-15c1-1,3.82-5.17,4-6.47.5-4.36,3.39-7.65,5.09-11.46.42-.93,1.32-2.31,2.94-2.07Z" transform="translate(-89.7 -832)"/><path class="cls-1" d="M3368,1010h3c1.09-1.13,2.22-2.31,3.25-3.4a7.27,7.27,0,0,1,1.88-.57c3.28-.06,6.55,0,9.83,0h3l14.59,14.67,2.4,5.56v22.88l6,2.89v4.94l2,2.14V1066h-2.53l-3.47,2c-.43-.67-.72-1.65-1.33-1.92a7.17,7.17,0,0,0-2.67-.08c0-.33.14-.77,0-1-1.23-1.51-3.61-.94-4.81-2.77a6.09,6.09,0,0,0-3.92-2.46c-1.66-.4-2.91-2.46-4.35-3.8H3384v-3.82l-6.07-5.2c.67-3.82-2-6.1-3-9h-2c-2-1.82.33-5.41-2.85-6.78V1026c-1.7-3.26-3.1-6-4.44-8.54l2.34-2.5Z" transform="translate(-89.7 -832)"/><path class="cls-1" d="M2758,1290v13.43l-4.06,3.3v4.37c-2.56,1.42-1.76,4-2.13,6.09-2.59,1.38-1.24,4.13-2.13,6.06a63.74,63.74,0,0,1-3.48,5.88c-.19,1.86-.41,4.08-.64,6.31-2.8,1.3-.39,4.72-2.15,6-2.46,1.74-.32,4.6-2,6.15s-1.15,4.39-3.38,5.57V1361l-1.43,1.43c-1,1.83-.34,3.82-.55,5.77-1,1.87-1.55,4.2-3,5.57s.12,4.41-3,4.21v-30a1.7,1.7,0,0,0,2-2,1.54,1.54,0,0,0,1.95-1.37,37.61,37.61,0,0,0,.05-4.63c.56-.23,1.54-.37,1.62-.71a41.16,41.16,0,0,0,.64-4.61c3.71-2.45,4-7.47,7.75-9.61v-4l2-2.18V1311l2-2.17a9.44,9.44,0,0,0,0-2.07c-.48-2,1.66-2.69,1.95-4.14.37-1.85-.16-3.68,1.59-5.36,1.32-1.27.77-2-1.52-3.28v-4.17l4-2.65c0-1.85.11-3.19,0-4.51-.17-1.54,1-2.27,1.58-3.37s.1-2.6.52-3.78a16,16,0,0,1,2.16-3.31v-7.15l2.2-3.07-2.43-3.22V1256c.56-.22,1.61-.47,1.6-.67-.13-3.23,1.86-5.77,2.79-8.64.12-.36,1.05-.47,1.61-.69l1.95.78V1259l3.89,3.89v5.77L2767,1274H2764c-.28-2-1.74-2.87-4.17-4.35.52,2.3-.41,4,.6,5.71.23.39,1,.44,1.57.64v4.68c.5,1.41,2.71,1.91,1.62,4.43-.69.92-1.56,2.6-3.62,2.89-.22-.56-.37-1.54-.69-1.6-1.2-.22-1.36.68-1.32,1.65C2758,1288.7,2758,1289.35,2758,1290Z" transform="translate(-89.7 -832)"/><path class="cls-1" d="M1686,1306l-1.85-.76v-10.11a.92.92,0,0,1,.26-.52c1-.9,1.92-1.81,1.55-3.39l-4.19-4.81c1-3.32,4.8-2.41,6-5.54v-22.09l-3.67-3.67v-8.4c1.15-.9,2.7-2.13,3.89-3.08V1238a1.7,1.7,0,0,0,2-2c2.44-.41,3.27-2.9,5.18-4l1.92-.09c1.55-1.21.51-3.88,2.72-4.75a23.84,23.84,0,0,0,6.89-4.69c1.51-1.31,3.8-1.73,6.08-2.69L1714,1222c1,2.85-2.49,4.4-2.09,7.09-4,2.88-4.59,8.58-9.48,11h-3.58c-.31.64-.8,1.19-.81,1.75-.07,3.64,0,7.28,0,11l-2,2.17v9.91l2,2.1v8l-1.69,1.58c-1,2.58.21,5.58-.54,8.62l-1.55,1.55v10.47l-3.58,1.12c-.83,2-1.83,4.47-3,6.91C1687.45,1305.69,1686.57,1305.77,1686,1306Z" transform="translate(-89.7 -832)"/><path class="cls-1" d="M3702,1062h5l2.73,2.79v6.77l-7.14,1.18a37.53,37.53,0,0,0,3.82,1.23,22.54,22.54,0,0,0,2.75.2c1.52,1.52.46,3.27.82,4.82-1.21,1.72-3,.75-4.54,1-1.67-.5-2.57-3.47-5.21-1.3v6.51L3703,1088h4.29c.22.81,1,2,.63,2.52a22.89,22.89,0,0,0-2.49,5c-.12.33-1.13.35-2.67.77l-2.66-4.46-6.45,3.6,3.77.85a24,24,0,0,0,3.11,3.17,12.28,12.28,0,0,0,3.35,1.25c.05.86.09,1.51.13,2.2-2,2.45-5,.3-7.28,1.41L3695,1106l-4.79-6.36v-2.85l2.07-2.07L3688,1092v-8.88l2-2.15V1071l1.46-1.46c1.33-1.76-.21-3.85.71-5.69,1.37-2.34,1.65-5.48,4.18-7.16,1.55-1,3.6-1,4.86-2.8a32,32,0,0,1,3.88-4l2.45.52c1.07,2.45.18,5.11.41,7.69,0,.53-.47,1.11-.8,1.81l-2.08-1.77c-1.15.35-1.46,2.18-3.08,1.85-.3-.64-.6-1.28-1.06-2.28C3699.88,1060.88,3699.88,1060.88,3702,1062Z" transform="translate(-89.7 -832)"/><path class="cls-1" d="M3992,1140l-2,3.48V1147l-2.9,2.9h-4.3l-5.17,6.09h-4l-6.19,3.3c-1.4,1.18-3.06.54-4.64.67-1.29.1-2.6,0-3.78,0l-3.74-3.74c-1.41-.16-3.53.23-4.4-.64-1.65-1.65-3.38-1.56-5.31-1.66a1.54,1.54,0,0,1-1.55-2v-4h12.27a52.61,52.61,0,0,0,5.49-2.83A25,25,0,0,0,3965,1142c1.68,1.72.63,3.47,1,5,3.77,3.26,6.27-1.41,9.66-1.53.18-1.58.36-3.16.53-4.73,1.35-1.49,3.13-.44,4.7-.79,2.55-2,.15-5,1.4-7.3a5.92,5.92,0,0,1,1.71-.66c2-.08,4,0,6,0,0,1.59-.34,3.22,1.33,4.37C3992.67,1137.29,3991.75,1138.79,3992,1140Z" transform="translate(-89.7 -832)"/><path class="cls-1" d="M3703,1128l-2.15,2-2-.11c-1.45-2-1.49-5-4.37-5.89-.62.11-1.43,0-1.82.37-1.95,1.8-3.79,3.72-5.69,5.62h-3.07c-1.85-.9-4-1.52-5.65-2.86s-3.81-2.65-4.3-5c0-2.14,2-2.64,2.89-4.07h7.71l7.52,4.21c2.83-1.4,4.19-4.28,7.14-6.14h14.38c2.43-.45,3-2.88,5.27-2.07l2.12,1.84h5.66c1.46.83,2.21,2.8,4.24,2.08,2.79,3.11,2.41,7.66,4.86,11.1-.94,1.63-3,1.26-4.14.77-3.68-1.58-7.15-3.66-11.23-5.84h-9.6l-1.13,3.3C3707.58,1128.7,3705.23,1127.73,3703,1128Zm-2-6c-1.44,1.33-1.44,2.67,0,4C3702.44,1124.67,3702.44,1123.33,3701,1122Z" transform="translate(-89.7 -832)"/><path class="cls-1" d="M1144,956c0-.33-.13-.86,0-1,4.54-2.85,4.54-2.84,7.82-8.06v-7.72L1157,934h3v16.93c.67.72,2,1.63,1.89,2.13-.73,2.69,3.26,3.47,2.28,6.11l6.17,6.17,7.67,3.48V971c.24.23.45.65.71.68,2.23.22,4.47.36,6.88.55.21,1,.4,1.93.6,2.92a4.84,4.84,0,0,0,1.53.8c1,.14,2.45.46,2.9,0,1.79-2,5-1.48,6.39-3.93h5c-1.34,3.48-4.77,5.13-6.81,8h-4.07c-1.24-.68-2-2.65-4.07-1.93l-2,1.93-2.09-2h-5.87l-2.11-2H1172c-.2-1.18.49-2.49-.51-3.52-.28-.17-.56-.49-.78-.45-2.6.48-3.83-3.51-6.71-2-.21-1.19.51-2.52-.66-3.68l-4.93-.68c-.7-1.63.11-3.78-2.41-3.64-.23-.56-.4-1.58-.68-1.61-2.85-.29-5.71-.42-8.61-.6C1146,958.4,1143.9,958,1144,956Z" transform="translate(-89.7 -832)"/><path class="cls-1" d="M1068,890c.23-.57.46-1.13.83-2h14.39l1.43-3.74c1.94.3,1.1,1.9,1.51,2.93,1.27,1.54,3.06.51,4.78.87l1.94-4H1095l2.08,2h5v3.09l3.29,2.91H1124a1.7,1.7,0,0,1-2,2l-2.5,1.17.11.23a5.91,5.91,0,0,1-1.74.57c-7.6,0-15.2,0-22.8,0l-1.44,1.36a5.52,5.52,0,0,1-1.7.61c-2.64.07-5.29,0-7.93,0l-.8-2H1074l-6-3Z" transform="translate(-89.7 -832)"/><path class="cls-1" d="M2044,1012h3l1.26-1.38c2.19-1.22,4.5-.38,6.71-.61l1.91,1.91c2.32.29,5.23,0,8.11.11.46.47.93.93,1.73,1.73h3.77L2078,1021v7a10.6,10.6,0,0,0-1.69.72,12.3,12.3,0,0,0-1.41,1.23h-6c-1.48-3.4-5.44-.91-7.66-3.43-1.46-1.66-4.39-2-6.65-2.95-3.53-3.53-7.06-7-10.56-10.59C2043.86,1012.81,2044,1012.33,2044,1012Z" transform="translate(-89.7 -832)"/><path class="cls-1" d="M1034,878h-3c-1.11-1.51-3.37-2.28-3-4.78a29.47,29.47,0,0,1,4.64-2.77,22.63,22.63,0,0,1,4.84-.75c1.19-2.47.16-5.15.51-7.7h4v5.26c.8.23,1.67.53,2.55.73,2.84.67,4.33-2.46,6.94-2.48,1.29-2.23,3.48-1.3,6.1-1.64l4.46,5.53,3.91,1.3v4.22c-.79,1-.92,1-7.26,1.38-.23.56-.47,1.13-.7,1.7-3.79-2-3.79-2-8-2h-4l-3.44,2Z" transform="translate(-89.7 -832)"/><path class="cls-1" d="M1154,894v3l-2,2.09v8c1.31,1.68,3.11.65,5.09,1.05l3.24,2.88c-.54,1.39-.87,2.25-1.18,3h-2.58l-4,6.07c-3.45-.19-4.18-3.83-6.62-4.84v-5.62c-3.18-4.86-4.38-11.23-10-14.13V892h4.79l3.13-2.44,3.55,2.54h5.79C1153.57,892.9,1153.79,893.45,1154,894Z" transform="translate(-89.7 -832)"/><path class="cls-1" d="M4030,1168c-.91-3.36-5.05-4.39-5.87-7.49-1-3.59-4.47-4.66-6.13-8.24,0-2.51,0-5.82,0-9.13,0-.25.37-.49.57-.74.24,0,.56-.18.69-.08,1,.81,2,1.67,2.67,2.21.07,1.28.11,1.93.15,2.79l3.5,1.22.62,2.79c4.18,3.35,6.87,8.63,12.51,10.54H4044l5.62,2.83.6,2.53,7.71,3.59-5.16,3c-1.18-2.2-3.29-1.71-6.17-1.8l-2.63-3.7c0-.09,0-.74-.08-1.39l-5.16-2.64-1.05,3.08a6.07,6.07,0,0,1-1.71.65c-1.31.1-2.64,0-4,0Z" transform="translate(-89.7 -832)"/><path class="cls-1" d="M1336,854h2.06l6,4.94c0,2-.19,3.21-2,3.06h-4c-.25-1.22.61-2.65-1.06-4-2.87,0-6.14,0-9.4,0-.52,0-1,.63-1.54,1v3h-4c-.55-.22-1.13-.4-1.65-.67-.8-.41-1.57-.88-2.35-1.33-.24-1.88.57-3.87-.58-5.6-1.17-.85-3.62.27-3.42-2.4v-8h4.89l2.38,2.21h4.34c.22,1.14.39,2,.67,3.43l7,.59.7,1.77A1.7,1.7,0,0,0,1336,854Z" transform="translate(-89.7 -832)"/><path class="cls-1" d="M3122,994c-.1-2,2-2.4,2.76-3.88h7.81l5.43,3v6.28l-4,3.44V1010c-.23.56-.39,1.56-.69,1.61-1.9.29-3.83.37-5.36.49-4.15-1-3.38-5.45-5.95-7.3Z" transform="translate(-89.7 -832)"/><path class="cls-1" d="M4296,1290h7.23l3.34,4H4310a1.55,1.55,0,0,0,1.52,2c1.34.15,2.62-.08,2.48-2h3c1.81,1.61,1,3.53.54,5.83-2.76.46-5.71,0-8.6.24l-1.76,1.76-3.93.27c-.37.28-1.12.84-2.92,2.16-2.46,1.53-4.86-1.87-7.64-2.81s-2.83-4.51-4.38-6.75l1.7-.7c2-.31,3.23-2.42,5.41-2.48C4295.62,1291.51,4295.8,1290.53,4296,1290Z" transform="translate(-89.7 -832)"/><path class="cls-1" d="M3934,1158l3.21-1.84c1.42,2.14.67,4.65.57,7.36-3,1-6.21.1-9.05.6-1.23,2.08-.52,4-.73,5.88-.56-.22-1.4-.3-1.62-.7a27.38,27.38,0,0,1-1.31-3.71l-2,4.41H3920c-.22-.55-.35-1.51-.68-1.59-1.19-.27-1.39.62-1.32,1.59h-2v-2.85l2.18-2.69a16.26,16.26,0,0,0-.85-2.11A26.62,26.62,0,0,1,3914,1154h2c3.79,2,3.79,2,8,2-.1,2,2,2.4,2.85,4,2.1-.13,4.3-.19,6.47-.45C3933.61,1159.57,3933.78,1158.56,3934,1158Z" transform="translate(-89.7 -832)"/><path class="cls-1" d="M3654,1102l4.28-2.26,2.94,2.26c6.58,0,13.16,0,19.73,0,.24,0,.48.41.88.79v2.37c-1.57,1.47-3.29.47-5.23.9l-1,5.27c-.46.82-.94.79-1.39-.11-1.42-2.86-4.79-2.89-7-4.74-.92-.78-3.63-.87-4.44-.11-2.59,2.43-5.37,1.4-8.12,1.37L3654,1106Z" transform="translate(-89.7 -832)"/><path class="cls-1" d="M3776,1166h-2.95c-.24-.22-.68-.44-.68-.66,0-3.52,0-7,0-10.68l1.4-1.4c.15-1.43.32-3,.45-4.28l2.71-3c2.57-.47,3.48,1.59,4.93,2.8v14.33c-1.2,1.43-2.61.6-3.83.84A1.7,1.7,0,0,0,3776,1166Z" transform="translate(-89.7 -832)"/><path class="cls-1" d="M4063.06,1174h-2.55l-.51-3c2.85-2.76,3.69.46,5.57,1.11h3.51c2,1.82,3.37,4.2,6.32,4.31,1,2,3.55,1.13,4.84,2.77a44,44,0,0,0,3.87,3.94c-.24,1.08-.38,1.69-.52,2.34-1.44,1.24-3.14.11-4.51.61-2.07-1.81-3.39-4.31-6.38-4.36-.9-1.6-2.89-1.26-4-2.17A65,65,0,0,1,4063.06,1174Z" transform="translate(-89.7 -832)"/><path class="cls-1" d="M1264,844v-3.09l-3.11-2.71-4.08-.39-2.63-2.63L1256,832h6.83c1.81,1.47,2,1.55,4.48,2.09l3.4,3.92h2.3c2.5,2.61-.06,3.86-1.44,5.42a6.59,6.59,0,0,1-1.72.54C1267.9,844,1266,844,1264,844Z" transform="translate(-89.7 -832)"/><path class="cls-1" d="M3630,1000c.77,1.61,1.53,3.23,2.43,5.13l-4.14,1.45c-.16,1.48-.33,3-.49,4.63-2,1.79-4.49,0-7.53,1.56L3619,1014h-3l-2-3.47V1008c3.59,0,7.18,0,10.77,0,.26,0,.51-.33.85-.57-.32-2-2.29-2.67-3.44-4.29v-2.28c1.21-1.42,2.61-.6,3.82-.84Z" transform="translate(-89.7 -832)"/><path class="cls-1" d="M4092,1194v-2.94l-2-2.11v-6.1l2.17-.94c4.16,1.27,3.34,6.27,6.65,7.91a18.54,18.54,0,0,0,5.43,7.49c-.41,1.07-.73,1.91-1,2.69h-2.16l-2.11-2H4096c0-1.17,0-2.34,0-4Z" transform="translate(-89.7 -832)"/><path class="cls-1" d="M2282,1046c2.53.31,5.15-.61,7.8.54v7l-2.75.69c-.94,2.07-1.9,4.38-4.1,5.82H2280c0-4.17-.06-8.35,0-12.52A1.52,1.52,0,0,1,2282,1046Z" transform="translate(-89.7 -832)"/><path class="cls-1" d="M3452.15,1122v-7.46l3.62-2.53H3461l2.78,2.78v6.47c-.46.36-.71.71-1,.72C3459.55,1122,3456.28,1122,3452.15,1122Z" transform="translate(-89.7 -832)"/><path class="cls-1" d="M4172,1270h-9c-2.1-1.89-.62-4.34-1-6.57-.46-1.59-3.27-2.52-1.26-5.25l3.35-.24,5.89,3v4c.69.72,1.36,1.44,2,2.16Z" transform="translate(-89.7 -832)"/><path class="cls-1" d="M4088,1196h4c.43.67.72,1.65,1.33,1.92a7.17,7.17,0,0,0,2.67.08v3c-.22.24-.45.68-.67.68-4.86,0-9.72,0-14.53,0l-2.8-2.61V1194h2C4083.79,1196,4083.79,1196,4088,1196Z" transform="translate(-89.7 -832)"/><path class="cls-1" d="M4098,1206.68c.07-.63.14-1.26.27-2.36,2.75-.63,5.69-.18,8.88-.35.27.77.61,1.6.84,2.46.8,3,3.76,3.08,6,4.47-.07.82-.16,1.73-.26,2.85h-6.4C4104.17,1212,4100.19,1210.52,4098,1206.68Z" transform="translate(-89.7 -832)"/><path class="cls-1" d="M1170,976v5c-1.51,1.45-2.82.77-4,1h-8v-8h8a7.17,7.17,0,0,1,2.67.08C1169.28,974.35,1169.57,975.33,1170,976Z" transform="translate(-89.7 -832)"/><path class="cls-1" d="M1282,860v4c-.22.56-.37,1.55-.68,1.59-1.87.3-3.77.39-5.34.52l-5.92-3.05c.15-1.53-.57-3.16.8-5.06H1282Z" transform="translate(-89.7 -832)"/><path class="cls-1" d="M3912,1288v-4h3c1.94,2.1.5,4.8,1.14,7.06l1.88,2.09V1300h-4a1.51,1.51,0,0,1-1.95-1.46C3911.93,1295,3912,1291.51,3912,1288Z" transform="translate(-89.7 -832)"/><path class="cls-1" d="M2232,1028h19.2c.36.89.58,1.44.8,2l-.75,1.84h-16.5C2234,1030.42,2231.9,1030,2232,1028Z" transform="translate(-89.7 -832)"/><path class="cls-1" d="M3345.93,1098.2c.09-1.22.18-2.49.28-4h5.3l.7,2.89,3.8,4-.19,2.06c-1.31,1.6-3.14.29-4.73,1Z" transform="translate(-89.7 -832)"/><path class="cls-1" d="M1004,842v2h-6.67c-1.33-.55-2.09-1.89-3.86-2.17A4.34,4.34,0,0,1,990,838h10A4.91,4.91,0,0,1,1004,842Z" transform="translate(-89.7 -832)"/><path class="cls-1" d="M3322,1056h-5c-1.62-2.3-5-3.31-5-6.81,0-.25.36-.5.54-.75,3.2-.4,3.9-.06,9.44,2.6Z" transform="translate(-89.7 -832)"/><path class="cls-1" d="M3468,1036l-6.28,4h-2.83c-1.46-2.32-.81-4.82-.62-7.24,1.42-1.43,3.14-.39,4-.59Z" transform="translate(-89.7 -832)"/><path class="cls-1" d="M3434,870c0-4.21,0-4.21,2-8,2.06.38,3.41,2.32,6,2.57V870Z" transform="translate(-89.7 -832)"/><path class="cls-1" d="M3344.9,1090.08l-2.26-.42c-1.31-2.06-.39-4.35-.68-6.83,2.1-.92,4.25-1.93,6.47-2.77.35-.13,1,.57,1.54.9l-2,2.07v3C3346.66,1087.78,3345.7,1089,3344.9,1090.08Z" transform="translate(-89.7 -832)"/><path class="cls-1" d="M3930,1110h-7.81v-5.24c2.16-1.5,4.5-.48,6.43-.73l3.38,2c-.22.55-.4,1.13-.67,1.65C3930.92,1108.45,3930.45,1109.22,3930,1110Z" transform="translate(-89.7 -832)"/><path class="cls-1" d="M4198,1314v2h-4v-3.6l-4.05-3.24.26-2.38c1.34-1.49,3.11-.44,4.62-.78,1.5.78,1.14,2.17,1.17,3.43s0,2.72,2,2.57Z" transform="translate(-89.7 -832)"/><path class="cls-1" d="M3418,1074c.2-2.08-2.18-2.27-2.55-3.84-1.79.55-2.77,3.3-5.12,1.18A4.78,4.78,0,0,1,3414,1068h6v6Z" transform="translate(-89.7 -832)"/><path class="cls-1" d="M89.7,1244.16h7.88l.56,2.85c-2.45,1.6-5,.94-7.75.71C90.22,1246.83,90.05,1245.93,89.7,1244.16Z" transform="translate(-89.7 -832)"/><path class="cls-1" d="M4162,1350c.22-.55.4-1.13.67-1.65.41-.8.88-1.57,1.33-2.35H4167c2.15,1.48.29,3.55,1.21,4.94-2,1.79-3.26,1.07-4.51-.24C4163.27,1350.31,4162.56,1350.23,4162,1350Z" transform="translate(-89.7 -832)"/><path class="cls-1" d="M3614,1008a1.7,1.7,0,0,0-2,2h-3.07c-.34-.67-.73-1.42-1-1.94.25-2.13,2.17-2.54,2.79-4l2.52.22C3614.5,1005.49,3613.8,1006.82,3614,1008Z" transform="translate(-89.7 -832)"/><path class="cls-1" d="M3618,860v4.9c-.94,1.14-2.05,2.08-3.25,3.4-1.35-3.15-.44-5.78-.75-8.3Z" transform="translate(-89.7 -832)"/><path class="cls-1" d="M4001.92,1218c1.92.21,3.85-.47,5.82.66.07.75.15,1.62.23,2.4-1.77,1.58-3.58,1-5.76.45C4002.12,1220.42,4002,1219.22,4001.92,1218Z" transform="translate(-89.7 -832)"/><path class="cls-1" d="M4182,1292h4v3.43l-2.93.59C4181.4,1294.63,4182.24,1293.22,4182,1292Z" transform="translate(-89.7 -832)"/><path class="cls-1" d="M125.71,1311.29l-.71.71a6.53,6.53,0,0,1-.63-1.34c0-.17.41-.44.63-.66Z" transform="translate(-89.7 -832)"/><path class="cls-1" d="M2506,1106h-3l-2.2,2h-4.05q-1.71,3.79-3.44,7.6c-3.74,2.07-6.36-2.86-10.14-1.58l-3.06-2.85c-.06-1-.13-2.31-.27-4.65l-6.68-4.57h-7.47a42,42,0,0,0-5.69,3.07c-1.54,1.14-3.86.78-4.87,2.76s-3.19,1.91-4.81,2.83c-2.21,1.25-2.18,1.32-5.42,1.4l-3.52,3.52c-.28.14-.62.46-.82.39-4.43-1.53-7.83,3.06-12.16,2-.31-.07-.66,0-.44,0-4.31-2.15-8.15-4.14-12.07-6-.82-.37-2,0-2.93,0l-5.84-5.84h-6a31.39,31.39,0,0,0-3.4-3.31c-1.22-.91-2.86-1.26-4-2.21s-3-.48-4.29-1.94c-.81-.93-3-.66-4.7-1l-10.32-10.32c-1-2.42-1.56-5-3.06-6.85s-3-4.06-6-4.72c-2.31-.51-4.33-2.37-6.85-3.85h-5.47l-2.19-2H2347l-3.82-3.82-4.45-.22c-1.09-1.47-2.59-3.49-4-5.46,1.71-1.22,4.08-.16,6.31-.45l2.12-2h10.72l3.39,4.6,4.66-2.71c-.84.27-.55.09-.25.09h16.61l8.33-4.34L2389,1058H2399l2.12-1.91,3.75,3.75h14.1l2.09-1.71h4a15.85,15.85,0,0,1,1-2.34c.88-1.34,1.89-2.58,2.78-3.77H2435l2.18,2H2447l4.84,4.74c.26,1.19.45,2.1.67,3.11,3.7-.79,6,2.07,9.07,2.65l.71,2.72c1.36,1.45,3.13.39,4.68.74l4.19-4h5.13c3.44-2.17,7.61-2.48,11.23-4.46,1.08-2.08.18-4.43.62-6.64L2491,1050h6l4.08,3.89c2.24.82,2.87-1.43,4.34-1.93,3.69-.7,6.37,2.82,10,2.37,2.37,2.13,5.41,3,8.58,4.38v6.41l2.05.84v2.9c-1.17,1.83-3.61,2.66-4,5.1-.45.78-.92,1.55-1.33,2.35-.27.52-.45,1.1-.67,1.65a1.7,1.7,0,0,0-2,2h-5l-5,9.77c-.23,2,.36,5-.11,7.42L2506,1099Z" transform="translate(-89.7 -832)"/><path class="cls-1" d="M2582,1098h-5.37c-.32-1.74-.66-3.55-1-5.36l-1.74-1.74v-8.2c-2.49-1.23-4.77-.58-7-.6-.84,1.65-1.69,3.29-2.85,5.57v5.16l-2,2.2v3.9a11.46,11.46,0,0,0-2,2.19,9.54,9.54,0,0,0-.52,2.76h-10.24c-2.06-2.08-6-2-7.36-5.5,1-2.43,2.54-4.86,2.46-7.77,3-1.64.17-6,3.55-7.49v-7.68c.66-1.77,2.19-1.27,3.28-1.66l3.66-3.66h3.92l2.92,2.1,4.49-2.54,3,2.32H2576c1.88.25,3.89-.58,5.65.62,1.06,3.06-.64,6.48,1.22,9.37h2.31l.93,2.31c-1.62,3.08-4.86,4.53-5.78,7.35C2577.41,1095,2582.29,1095.66,2582,1098Z" transform="translate(-89.7 -832)"/><path class="cls-1" d="M1424,1014v2c0,.33-.14.8,0,1,2,2.12,4.15,4.19,6,6,.18,3.38-2.61,4.09-3.92,6v3.87L1424,1035V1047l1.9,2c.67,2.15-1.13,3-2.22,4.62l2.23,4.07c0,.24.08,1.52.16,3.38l6.64,6.64c3-.21,4.61,4.21,8.51,2.75l5.7-6.55H1455l2.23-1.88c2.75-.41,3.36,2,4.85,3.21v6.12l2.81.84c.72-1.47,1.37-2.83,2-4.18H1469c.69.65,1.42,1.31,2.17,2H1479l2.19,2h5.1a39.89,39.89,0,0,1,5.7,3.07,49.39,49.39,0,0,1,5,4.91h1.94c1.58,1.85,1.52,4.87,4.2,5.8l2.55-2.14,3.29,1.94,2.56-1.56c2.3-.21,2.83,1.79,4.29,2.74v4.83l-3.1.64c-1.45,1.12-.41,2.92-.85,5.09l-5.45,4.54h-7c-.79.69-1.53,1.31-2.49,2.14-5.71,0-11.68,0-17.66,0-.26,0-.51.34-.77.52-.23.9-.47,1.81-.71,2.72-1.36,1.45-3.14.39-3.54.48l-6.13,3.17.19,2.46c2.4,1.25,4.69.18,6.75.76,1.36-2.51,3.46-2.09,5.41-2.13a7.16,7.16,0,0,1,1.56,1c1.68,1.89,4.24,3.16,4.33,6.22,0,.26,1.06.72,1.61.71,2,0,2.86,2.85,5.14,2.11l7.12,6.68c-1.27,2.94,3.31,3.81,1.33,6.84l-2.75.62-6.8,7a11.41,11.41,0,0,1,0,1.83c0,.27-.44.48-.81.85h-10.06l-2.09-1.79h-5.66l-2.57-2c-2.36-.41-2.74,1.33-4,1.92H1463c-.51.51-.9,1.18-1.47,1.42-2.27,1-5,.17-7,2.44-.59.66-2.55.1-3.89.1h-13.39c-2.46,1.63-2.86,4-4.05,5.92H1425l-4.09-3.88h-8l-3.59,3.59c-1.89,1-4.77-.69-6.14,2.23h-12.38l-5,6.1h-6.33l-7-4h-4.76l-11.37-6h-5.28l-2.15-2h-2c-1.71,1.29-.56,3.13-1.26,5a15.45,15.45,0,0,0-6.67,5h-8.6c-.25,1.22-.44,2.13-.65,3.1l-5.45,2.81h-3.27c-1.11,2.89-3.64,5.24-3,9.2l-6,4.61h-3.89c-.12-1.77-.23-3.34-.33-4.92-.55-.29-1.09-.83-1.64-.83-6.33-.06-12.66,0-19,0-1.57,2.21-4.68,1.8-6.46,3.9-.55.65-2.53.1-3.73.1l-2.32,2.09h-6.28c-.85,2.88-.29,5.85-.48,8.75a17.93,17.93,0,0,1,6.2,4.23c1.56,1.67,4.8,1.34,5.46,4.3-1.4,1.3-3.17.24-4.7.69-.24.24-.68.47-.68.71,0,3.3,0,6.6,0,9.77l-2.17,2.48v3.77c-.53.43-1,1.09-1.48,1.16-1.34.18-2.74.07-2.58,2-2,.07-2.45-2-3.82-2.8s-2.73-1.4-4.11-2.1c.84-1.29,2.67-2.11,1.8-4.4-3.14-1.25-3.46-4.92-5.42-7.41-.67-.84-.24-2.5-.49-3.76-.11-.55-.66-1-1-1.54h-4c-1-1-2.49-1.77-2.7-2.85-.5-2.53-2.06-4.49-3-6.73a40.62,40.62,0,0,0-3.29-6.6,11.21,11.21,0,0,1-2.21-7c-2.61-3.16-2.4-6.2-.13-9.56.76-1.12.32-3,.42-4.45l-3.86-1.39c-.07-.83-.13-1.46-.19-2.09-2.27-3.77-6.15-5.35-9.78-7.27-1.92-.2-3.91.48-6.22-.79a12.62,12.62,0,0,0-.07-3.51,15.62,15.62,0,0,0-2.08-3.41V1133l-2.08-2.62c2-3.92,4-7.76,6.23-12.2V1112c1.2-.23,2.58.56,3.84-.84v-12c.88-.94,1.53-1.64,2.16-2.3V1092l5.89-2.84V1085c-.64-1-2.45-1.83-1.78-4l3.92-4.09V1075c2.65-1.5,6-2.06,6.33-6.18.15-1.65,1.74-3.17,2.65-4.73l2.27,2.11c1.41-.68,3.22.64,4.09-.41,1.45-2.58-.19-3.5-1.21-4.58.62-1.08,1.23-2.12,1.84-3.17,1.11-.22,1.67.47,2,1.34a33.69,33.69,0,0,1,.72,3.44l1.3-2.78c1.18-.2,2.49.48,4-1v-5h1.85l6.07-4.88c.09-2,.15-3.24.19-3.85l2.77-3.27H1276c.57.24,1.57.39,1.63.72a37,37,0,0,1,.4,4.25l-2,2c0,5.12,0,10.42,0,15.73,0,.26.32.52.59.94l2.38,2.16h6.18l3.7-3.7,2.7-.18a4.86,4.86,0,0,1,2.87-5.21c4.32-1.49,6.5-5.18,9.25-7.5.42-1.4.68-2.29,1-3.17h6.19l4.32-4.12h3.9c8.43-9.53,8.51-9.58,13.83-10l2.15-2h4.55l3.29-4.16c4.07,1.37,6.7-3.44,9.11-2.2l3.92,3.11c.43,2-.62,3.78,1,5.16h12.4c-.09-3,3-1.19,4.33-2.56.4-1.16.8-2.3,1.15-3.33H1381l2.35,2.12c1.46-.6,3.29.62,4.46-.88.22-1.09.41-2,.57-2.78l3.65-1.25V1023l5-5h5.92l2.19-2c2.07-.75,2.79,1.31,4,1.9H1413l2.23-1.83c.32.78.56,1.35.79,1.92,1.12,2.12,1.12,2.12,4.28,1.06L1418,1018C1418.78,1014.84,1420.9,1013.68,1424,1014Z" transform="translate(-89.7 -832)"/><path class="cls-1" d="M1310,1242c-.23-.57-.36-1.53-.72-1.63a26.62,26.62,0,0,0-3.91-.48c-3.14-5-3.14-5-3.56-9.14-1.37-.73-1.78-2.85-3.81-2.75-.23-.57-.36-1.53-.72-1.63a37.41,37.41,0,0,0-4.9-.58l-2.53-2.61c1.7-1.89,3.47-.84,5.08-1.2l2.11-2h17.9l2.19,2h3.42a55.38,55.38,0,0,1,6,3.59,24.61,24.61,0,0,1,4.91,4.92c2.9,4.13,8.07,5.35,11.2,9.11,4-.24,3,4.22,5.35,5.57a18,18,0,0,0,7.07,10.54l2.33.47c.37,1,.52,2.42,1.25,3.3.9,1.07,1.68,2,1.29,3.51-3.71,3.39-6.2-1.43-9.43-1.53-.65-2.54-1.62-4.81-4.51-5.51a1.47,1.47,0,0,0-1.53-1.92,15.87,15.87,0,0,0-3.7,1.47l-6.7-7.55H1326c-1.62.26-2-1.94-3.06-1.88-2,.11-2.88-1.07-4-2.12h-5.47Z" transform="translate(-89.7 -832)"/><path class="cls-1" d="M1390,1292h-7c-1.11-1.1-2.11-2.19-4.06-2.14-1,0-1.47-2-3.11-1.9-1.91.08-2.44-2-3.75-2.83,0-4.13-3.52-4.65-6.11-6.18-.15-.08,0-.62,0-1a1.7,1.7,0,0,0-2-2c.27-1.23-.45-2.51.64-3.75a20.51,20.51,0,0,0,2.24-4.16h19.65c3.06,3.09,6.09,6.13,9.45,9.5v3.32c.69.75,1.35,1.47,2,2.15v4C1395.86,1289.63,1392.78,1290.58,1390,1292Z" transform="translate(-89.7 -832)"/><path class="cls-1" d="M1540.7,1079.85h-8.15l-2.51-3.65-7.34-.39c-.37-.57-.67-.83-.68-1.09,0-2.62,0-5.24,0-7.81,2.66-1.45,1.77-4,2.2-6.11l3.58-3.58c.16-1.49.33-3,.49-4.55,1.83-1.44,2.84-.18,4.27.69,1.23.76,3.14.31,4.57.86,1.1.43,1.75,1.57,3.19,1.92s2.54,1.8,3.7,2.7v18.28Z" transform="translate(-89.7 -832)"/><path class="cls-1" d="M1571.34,1097.66,1565,1104h-5.88c-2.25,1.44-3.26,3.73-4.27,6l-2.18-.1c-.27-.8-.55-1.67-1.3-3.92l-7.32-6.25v-6.84l14-6.93a40.35,40.35,0,0,1,8,4.85C1568.43,1092.86,1567.33,1096.46,1571.34,1097.66Z" transform="translate(-89.7 -832)"/><path class="cls-1" d="M1578,1101c1.76-2.22,5.1-3.31,4.14-7H1587c2,3.47,6.56,3.68,9,6.92v6.29l-3.28,1-1.41,3.54h-12.5c-1.35-1.93-.59-3.95-.73-5.85C1577.9,1104.33,1578,1102.67,1578,1101Z" transform="translate(-89.7 -832)"/><path class="cls-1" d="M1427.77,1013.44l2,1.74C1428.07,1016.54,1428.21,1015,1427.77,1013.44Z" transform="translate(-89.7 -832)"/><path class="cls-1" d="M1484,1380v-5.17c1.17-.9,2.31-2.29,3.74-2.71s2-.83,2.35-2.37A4.68,4.68,0,0,1,1494,1366h3c.78,3.14,4.32,5.45,2.76,9.29-1.53,1-3.73.8-4.73,2.71h-5.9l-2.24-2.13a24.64,24.64,0,0,1-1.22,3.43C1485.4,1379.7,1484.56,1379.78,1484,1380Z" transform="translate(-89.7 -832)"/><path class="cls-1" d="M1308,974c.22-.55.4-1.13.67-1.65.41-.8.88-1.57,1.33-2.35a1.7,1.7,0,0,1,2,2c-.43.67-.72,1.65-1.33,1.92A7.17,7.17,0,0,1,1308,974Z" transform="translate(-89.7 -832)"/><path class="cls-1" d="M1012,874l-3.2,1.81c-1.87-1.15-.1-3.34-.62-4.14-1-2.57-4.51-.52-4.18-3.67.19-1.21-.48-2.58.57-3.66,2.68,1.36,5.75,2,7.43,4.8Z" transform="translate(-89.7 -832)"/><path class="cls-1" d="M1300,1002c-2-.23-2.84-2-4.28-3.59L1298,994c.32,0,.86-.12.94,0a35.29,35.29,0,0,1,3,5.54A1.71,1.71,0,0,1,1300,1002Z" transform="translate(-89.7 -832)"/><path class="cls-1" d="M1286,980v-5.09c2.34-1.49,4.87-.92,7.62-.58.18.91.37,1.82.57,2.82a5,5,0,0,0,1.51.81,19.73,19.73,0,0,0,3,0c2.08-.92,2.8-3.66,5.32-4h4v2.49c-2.51,4.92-8.09,5.6-11,9.51h-7c-.53-.2-1.51-.38-1.52-.59C1288.42,983.23,1286.31,982,1286,980Z" transform="translate(-89.7 -832)"/><path class="cls-1" d="M1262,1030a1.7,1.7,0,0,1-2,2A1.7,1.7,0,0,1,1262,1030Z" transform="translate(-89.7 -832)"/></g></g></svg>