<svg xmlns="http://www.w3.org/2000/svg" viewBox="0 0 4320 2160"><defs><style>.cls-1{fill:#0378fe;}</style></defs><g id="Layer_24" data-name="Layer 24"><g id="Am"><path class="cls-1" d="M1474,1198h-7c-1.1-2.25-1.83-4.76-4.33-6-2.94-.38-3.61,2.53-5.65,3.9-.63-1.28-1.25-2.54-1.9-3.88l-2.18,2h-12.19l-1.32,3.88-4.53.21L1432,1201v5.48c-1,1.69-1.71,3-2.82,5l-4.89,2.51h-5.48c-.24-.65-1-1.59-.78-2.28.82-3-2.81-4.3-2.43-7l-5-2.36c-.12.12-.56.35-.56.59-.05,3.32,0,6.63,0,10.23-.85.29-1.72.52-2.52.88-1.69.77-3,2.8-5.16,2a37.76,37.76,0,0,1-6.63-3.26c-1.83-1.18-2.69-3.9-5.47-2.68-.17-1.42-.24-2.06-.32-2.69-.42-.45-.76-1-1.28-1.29s-1.46.08-1.86-.26c-1.94-1.65-3.51-3.5-6.21-4.39a4.1,4.1,0,0,1-2.81-5.29c-1.11-.06-1.43-.1-1.76-.1h-7c-1.82,2.34-5.59,1.91-7,5v6l-4,1.92V1211l-3,2.9h-3.47l-2.76,3.89c.93.88,2.69-.18,4.23.24l5,5v7.77l6,6.71c-.54,2,1.85,2.55,2,4.17.09,1,0,2,0,3a3.52,3.52,0,0,0,.45.81L1375,1254h11.48l5.83,3.31L1396,1261v5.49l4,7v5.13l1.8,2.41v12.4c-2.56,1.25-5.25.2-7.8.56a7.17,7.17,0,0,1-2.67-.08c-.61-.27-.9-1.25-1.33-1.92,2.78-1.42,5.86-2.37,8-5v-4c-.64-.68-1.3-1.4-2-2.15v-3.32c-3.36-3.37-6.39-6.41-9.45-9.5h-19.65a20.51,20.51,0,0,1-2.24,4.16c-1.09,1.24-.37,2.52-.64,3.75h-4.92c-2.19-1.86-2.19-1.86-5.08-2v-3c-1.85-1.83-3.83-3.6-5.56-5.6-.76-.88-1-2.23-1.48-3.33-.07-.13-.63,0-1,0v-6c2.89.7,3.86,3,4.51,5.51,3.23.1,5.72,4.92,9.43,1.53.39-1.53-.39-2.44-1.29-3.51-.73-.88-.88-2.26-1.25-3.3l-2.33-.47a18,18,0,0,1-7.07-10.54c-2.31-1.35-1.38-5.81-5.35-5.57-3.13-3.76-8.3-5-11.2-9.11a24.61,24.61,0,0,0-4.91-4.92,55.38,55.38,0,0,0-6-3.59h-3.42l-2.19-2H1297l-2.11,2c-1.61.36-3.38-.69-5.08,1.2l2.53,2.61a37.41,37.41,0,0,1,4.9.58c.36.1.49,1.06.72,1.63,0,.33.12.87,0,1-1.32.75-2.74,1.33-4,2.13s-1.93,2.62-3.51,2.92h-3l-2.92-2.34c-.75-5.84-3.8-9.5-5.49-13.64h-2l-2.8,2.8c-1.2,1.47,1.2,3.9-1.34,5-2.58-2-3.29-5.19-4.84-7.84-.16-2,1.24-1.87,2.58-2,.51-.07,1-.73,1.48-1.16V1211l2.17-2.48c0-3.17,0-6.47,0-9.77,0-.24.44-.47.68-.71,1.53-.45,3.3.61,4.7-.69-.66-3-3.9-2.63-5.46-4.3a17.93,17.93,0,0,0-6.2-4.23c.19-2.9-.37-5.87.48-8.75h6.28l2.32-2.09c1.2,0,3.18.55,3.73-.1,1.78-2.1,4.89-1.69,6.46-3.9,6.32,0,12.65,0,19,0,.55,0,1.09.54,1.64.83.1,1.58.21,3.15.33,4.92h3.89l6-4.61c-.65-4,1.88-6.31,3-9.2h3.27l5.45-2.81c.21-1,.4-1.88.65-3.1h8.6a15.45,15.45,0,0,1,6.67-5c.7-1.89-.45-3.73,1.26-5h2l2.15,2h5.28l11.37,6h4.76l7,4h6.33l5-6.1h12.38c1.37-2.92,4.25-1.21,6.14-2.23L1413,1150h8l4.09,3.88h8.08c1.19-2,1.59-4.29,4.05-5.92h13.39c1.34,0,3.3.56,3.89-.1,2-2.27,4.78-1.49,7-2.44.57-.24,1-.91,1.47-1.42h3.78c1.27-.59,1.65-2.33,4-1.92l2.57,2H1479l2.09,1.79h10.06c.37-.37.77-.58.81-.85a11.41,11.41,0,0,0,0-1.83l6.8-7,2.75-.62c2-3-2.6-3.9-1.33-6.84l-7.12-6.68c-2.28.74-3.09-2.13-5.14-2.11-.55,0-1.6-.45-1.61-.71-.09-3.06-2.65-4.33-4.33-6.22a7.16,7.16,0,0,0-1.56-1c-2,0-4-.38-5.41,2.13-2.06-.58-4.35.49-6.75-.76l-.19-2.46,6.13-3.17c.4-.09,2.18,1,3.54-.48.24-.91.48-1.82.71-2.72.26-.18.51-.52.77-.52,6,0,12,0,17.66,0,1-.83,1.7-1.45,2.49-2.14h7l5.45-4.54c.44-2.17-.6-4,.85-5.09l3.1-.64v-4.83c-1.46-1-2-3-4.29-2.74l-2.56,1.56-3.29-1.94-2.55,2.14c-2.68-.93-2.62-4-4.2-5.8H1497a49.39,49.39,0,0,0-5-4.91,39.89,39.89,0,0,0-5.7-3.07h-5.1l-2.19-2h-7.84c-.75-.7-1.48-1.36-2.17-2h-2.07c-.65,1.35-1.3,2.71-2,4.18l-2.81-.84v-6.12c-1.49-1.24-2.1-3.62-4.85-3.21l-2.23,1.88h-8.06l-5.7,6.55c-3.9,1.46-5.55-3-8.51-2.75l-6.64-6.64c-.08-1.86-.14-3.14-.16-3.38l-2.23-4.07c1.09-1.62,2.89-2.47,2.22-4.62l-1.9-2V1035l2.06-2.2V1029c1.31-1.9,4.1-2.61,3.92-6-1.81-1.81-3.91-3.88-6-6-.16-.18,0-.65,0-1v-2a17.7,17.7,0,0,0,3.89-.28c.32,1.27.18,2.82,1.93,1.46a17.45,17.45,0,0,0-1.93-1.46c.34-.92-.44-2.3.92-3.53h4.39c.85,1.32,2.72,1.84,2.84,4.38l-1.89,2.45c2.2,1.24,5.19,1.73,5.85,5l-2,.84v6.44c-2.1.77-4.24,1-5.1,2.93-1,2.23-3.72,1-4.86,2.78v2c2.32,1,4.7,1.9,6,4.31,0,3,0,6,0,9,0,.55.54,1.09.83,1.63l6.55.3c.53,1.54.93,2.69,1.31,3.82,1.78-.27,3.48.63,4.91-.62.23-.91.46-1.81.7-2.71,2-.87,4.35-1.27,5.58-3.66v-3.94c-.53-.59-1.18-1.31-1.87-2.06-.26-3.5.31-7.1-.33-10.5l-3.72-1.25V1028h2.33l5.5,2.86c.43,1-.4,2.57,1.4,2.9,1.84-1.23,2.51-4.14,5.6-3.74l2.36,2.08c2.6-.57,5.57.49,8.32-.43l1.27-3.73c1.79.42,3.56-.65,4.94.77.34,1.1.68,2.19,1.09,3.53,2.34-2.7,4.58-3.25,7-1.43.22,1.09.41,2,.6,2.94,3.92-.64,6.61,3,10.78,2.16,1,1.34,2.28,2.89,3.23,4.11H1507l2.25,2.06h7.93c1,1.54,2.46,1.85,4.23,2s3.44,1.26,5.09,1.92c1.75-.51,2.64-3.55,5-1.51.4,1.16.81,2.32,1.28,3.66,2.57-4.92,2.57-4.92,7.08-7.06.1-1.58.19-3.16.28-4.56l3.84-1.31V1030h3l2.78,2.92c1.07,3.07-1.43,7,1.93,9.83-.71,3.63,3,6.25,2.25,9.9,1.14,2.56,3.75,3.09,5.91,4.25,0,.65.06,1.29.1,2.11,1.26.62,2.65,1.19,3.92,2a13.48,13.48,0,0,1,2.07,1.88V1069l-2,2.13V1076a1.7,1.7,0,0,0,2,2h3l3.21,5.55c3.06,1,6,0,9,.65l3.62,3.62,6.33.33,1.7,1.7h10L1607,1094a26.18,26.18,0,0,0,4.4,0c2-.32,2.58,1.74,4.11,2s3.3-.61,4.47,1c.15.22,0,.64,0,1,0,2.6,0,5.2,0,7.79a7.6,7.6,0,0,0,.5,1.74l1.65,1.64v8.44a15.42,15.42,0,0,0,7.55,0,49,49,0,0,1,.68-4.91c.08-.34,1-.47,1.6-.69h4v9l2,2.15c0,.71-.08,1.36-.12,2-1.3,1.59-3.09.55-4.83.91l-1.94-4H1629c-2.43,3-5.78,4.69-9.41,6l-3.34-2.15-4.41,2.41-3-2.24h-4.34l-3.08-3.92H1597l-3,2.87v4c-2.55,3.07-6.31,4-9.83,5.75v7.55a17.09,17.09,0,0,1-8.18,6.77v1.53l-7.27,7.76-5.72-2.85c-.68,1.36-1.44,2.85-2.19,4.35l-.83-.78V1169c-2.17,2.34-3.46.45-4.91-1h-8l-2.1,2h-5.31l-8,4.22-2.62-2h-6.23c-.37.44-.75.69-.75.94,0,4,0,8,0,11.12,1.21,2.35,2.06,4,3,5.84l1.93-4.14c1.78,1.33.78,3.15,1.07,4.67l-6,4V1201l1.92,2.07c.41,1.62-.56,2.47-1.39,3.54a11.81,11.81,0,0,0-1.26,3.4h-10.51c-.35-1-.73-2.17-1.12-3.32-.24-.21-.48-.62-.73-.62-4,0-8,0-11.92,0l-1.47-1.47c-.26-.17-.52-.51-.78-.51-6,0-12,0-17.75,0l-3-3c0-1,0-2,0-3h1.59l4.69-2.87c-2.14-1.66-3.91-1.24-6-.58C1474.11,1195.6,1474,1196.8,1474,1198Zm82.48-48,3.1-.28c.26-.76.53-1.13.44-1.34-1.52-3.37-3.07-6.72-4.71-10.25h-12.45L1541,1140c-2.26-2.26-4.54-4.53-6.79-6.82-.19-.19-.15-.6-.21-.91-.43-1.34,1-3.26-1.37-4.12l-1.32,3.66H1527l-2.14-1.63-3.8,3.8c-2.22.3-4.58-.65-6.83.75v8.46l3.72,3.72c.07,1.58.14,3.15.21,4.66a18.5,18.5,0,0,0,5.75-1.78h9.34l1.71-1.71h5.88c1,.61,2,1.28,3.12,1.92s2.15,1.2,3,1.67l7.6-4A7.71,7.71,0,0,1,1556,1150l-1.74.68c-.23,2.4-.77,4.84.77,7.88C1556.66,1155.44,1555.69,1152.63,1556.44,1150.05Zm-15.74-70.2,3.3-2.73v-18.28c-1.16-.9-2.29-2.36-3.7-2.7s-2.09-1.49-3.19-1.92c-1.43-.55-3.34-.1-4.57-.86-1.43-.87-2.44-2.13-4.27-.69-.16,1.5-.33,3.06-.49,4.55l-3.58,3.58c-.43,2.09.46,4.66-2.2,6.11,0,2.57,0,5.19,0,7.81,0,.26.31.52.68,1.09l7.34.39,2.51,3.65Zm30.64,17.81c-4-1.2-2.91-4.8-5.34-6.84a40.35,40.35,0,0,0-8-4.85l-14,6.93v6.84l7.32,6.25c.75,2.25,1,3.12,1.3,3.92l2.18.1c1-2.29,2-4.58,4.27-6H1565ZM1344,1211.52c-1.69-2.26-3.3-3.65-3.88-5.39a7.2,7.2,0,0,0-3.34-3.93h-10.73l-5.88,4.36v6.5a9.31,9.31,0,0,0,4.95,3.3c1.62.42,2.8,2.56,3.68,3.44h11.64l5.54-2.92C1343.53,1215.57,1344.08,1213.43,1344,1211.52ZM1578,1101c0,1.66-.1,3.32,0,5,.14,1.9-.62,3.92.73,5.85h12.5l1.41-3.54,3.28-1V1101c-2.4-3.24-7-3.45-9-6.92h-4.85C1583.1,1097.7,1579.76,1098.79,1578,1101Zm-54.17,1h-6.77c-1.19,1.65-4.18,2.41-2.53,5.68.75.09,1.65.27,2.57.31,1.3,0,2.62.06,3.92,0a27.64,27.64,0,0,0,2.81-.38Z" transform="translate(-999.89 -753.96)"/><path class="cls-1" d="M2220,1008h11l1.39,1.45c2.12,1.11,4.48.21,6.69.65l.7.7c.24.24.43.59.72.69,2.31.84,5.22,0,6.94,2.51h11c1.77-1.33,3.37-3.31,5.36-3.84,2.59-.68,3.17-3.28,6.24-4.19h9.22l1.29-3.73c3.24-.94,4.52,1.12,5.43,3.76v2c-.55.22-1.51.35-1.59.68-.27,1.19.62,1.39,1.59,1.32v5.1l-4,1.87,3.65,3.65,4.23,4.23c1.14,1.14,2.65,2.08,2.15,4.09,1.92,1,1.76,3.26,2.75,4.84.81,1.3,1.11,3.08,2.19,4,3.2,2.81,3.67,7.7,7.84,9.69,2.63,1.56,4.63-.29,6.84-1.48s4.51-2,6.58-3.32c1.37-.86,3.18-2.16,3.38-3.49.35-2.23,1.7-3.39,3.25-5.06l3.39-.2c.46.14.84.14,1,.33,1.39,1.34,2.74,2.71,4.27,4.24,1.07-.78,2.42-1.36,2.37-1.78-.28-2.56,2.16-3.14,3-4.74H2342v11.47l3.74.66c.14-1.76.24-3,.36-4.53l3-5.83,3.58,7.9,2.72.58c.36,1,.77,2.16,1.2,3.33,1.82,1.1,3,.08,4-1.25a17.31,17.31,0,0,1,2-.32c3.8-.2,7.84.91,11.15-2,7-1.94,7-1.94,11.58-6.07H2389c1.73-.91.13-4.43,3.87-3.85l4.88,4.41,3.52-2.44h11.57l4.2-4c2.19-.8,2.84,1.4,4.29,2h5.31l2.61-2h7.56c3.34-2.21,3.06-6.36,6.19-8h3.38l5,2.65c1.26,2.53,2.07,6.33,6.64,5.71V1035l2.91,2.91h10L2473,1036H2479l2.17,2H2495c.51.5,1,1,1.45,1.45a7.27,7.27,0,0,0,1.78.49c3.33,0,6.66,0,9.94,0l8.1,4.2,3.21-2.27c.83.25,1.57.26,2,.63,1.49,1.34,2.86,2.8,4.27,4.21,0,4.17,3.59,4.71,6.21,6.26.15.09,0,.64,0,1s.12.87,0,1c-1.31.73-2.68,1.37-4,2v5a7.17,7.17,0,0,1-.08,2.67c-.27.61-1.25.9-1.92,1.33l-2.05-.84v-6.41c-3.17-1.41-6.21-2.25-8.58-4.38-3.63.45-6.31-3.07-10-2.37-1.47.5-2.1,2.75-4.34,1.93L2497,1050h-6l-2.86,2.86c-.44,2.21.46,4.56-.62,6.64-3.62,2-7.79,2.29-11.23,4.46h-5.13l-4.19,4c-1.55-.35-3.32.71-4.68-.74l-.71-2.72c-3.05-.58-5.37-3.44-9.07-2.65-.22-1-.41-1.92-.67-3.11L2447,1054h-9.82l-2.18-2h-6.16c-.89,1.19-1.9,2.43-2.78,3.77a15.85,15.85,0,0,0-1,2.34h-4l-2.09,1.71h-14.1l-3.75-3.75L2399,1058H2389l-2.51-2.33-8.33,4.34h-16.61c-.3,0-.59.18.25-.09l-4.66,2.71-3.39-4.6h-10.72l-2.12,2c-2.23.29-4.6-.77-6.31.45,1.45,2,3,4,4,5.46l4.45.22L2347,1070h3.91l2.19,2h5.47c2.52,1.48,4.54,3.34,6.85,3.85,3,.66,4.43,2.84,6,4.72s2,4.43,3.06,6.85l10.32,10.32c1.71.3,3.89,0,4.7,1,1.27,1.46,3,.91,4.29,1.94s2.82,1.3,4,2.21a31.39,31.39,0,0,1,3.4,3.31h6L2413,1112c1,0,2.11-.32,2.93,0,3.92,1.81,7.76,3.8,12.07,6-.22,0,.13-.06.44,0,4.33,1,7.73-3.57,12.16-2,.2.07.54-.25.82-.39l3.52-3.52c3.24-.08,3.21-.15,5.42-1.4,1.62-.92,3.8-.89,4.81-2.83s3.33-1.62,4.87-2.76a42,42,0,0,1,5.69-3.07h7.47l6.68,4.57c.14,2.34.21,3.61.27,4.65l3.06,2.85c3.78-1.28,6.4,3.65,10.14,1.58q1.72-3.81,3.44-7.6h4.05l2.2-2h3c-.45.78-.92,1.55-1.33,2.35-.27.52-.45,1.1-.67,1.65-.57.23-1.51.34-1.64.72a71.55,71.55,0,0,1-3.59,7.49c-.14.29-.46.48-.73.75v4.11l-3.19,2.8H2487c-1.06-.33-1.67-2.61-4-1.77l-4.84-5.55v-3.3l-2.85-3h-8c-7.49,4.38-7.49,4.38-10.29,9.8h-1.74c-2.34,2.08-4.42,4.21-6.79,5.93-1.45,1-3.35,1.48-5.08,2.2l-2.38-2.08H2423.2l-2.23-2h-5.45l-7.16-4.09h-11.43l-1.76-1.76-6.3-.3-3.76-3.76h-6l-2.09,1.83h-4.17l-2.66-3.24v-9.41A23.31,23.31,0,0,1,2364,1097v-8c-.47-.46-1.11-.85-1.38-1.41-1.06-2.22-2-4.49-3.17-7.16l-2.58-.64-1.93-1.79h-8l-3.76-3.76h-5.11a56.5,56.5,0,0,1-6.14-3.34c-1.59-1.15-2.74-2.92-4.3-4.13s-3.69-1-4.79-2.73H2303l-1.79,1.79h-7L2288,1069v6.25l-3.41,1.15c-.66,1.75-.88,4-2.82,4.72-2.62.91-4.57,3.64-7.78,2.9v-8a4.94,4.94,0,0,0,3.92-3.58A1.7,1.7,0,0,0,2276,1070c0-1-.37-2.55.06-2.81,2.15-1.31,1.4-4.16,3.25-5.56.4-.31.47-1.07.69-1.63H2283c2.2-1.44,3.16-3.75,4.1-5.82l2.75-.69v-7c-2.65-1.15-5.27-.23-7.8-.54l-5.08-10H2274c-.43-.67-.72-1.65-1.33-1.92a7,7,0,0,0-2.67-.08v-2.89c-1.79-1-3.47-2.57-5.4-3-2.44-.52-5.09-.13-7.57-.13l-2.1,2H2252c-.22-.56-.44-1.11-.8-2H2232c-.56-.23-1.6-.43-1.61-.69-.13-2.84-3.65-4.65-2.39-7.88-.81-2.4-3.95-3-4.17-6.19C2223.69,1011.21,2220.38,1010.47,2220,1008Z" transform="translate(-999.89 -753.96)"/><path class="cls-1" d="M3294,840v4.56l4,6.77c-1.24,2.92,1.35,4.78,2.1,7.13s2.34,4.37,3.84,7v5.33L3306,873v10c1.22,1,2,2.54,3.59,3.1l6.22-2.83V870.32l5.06-10.1h4.67c.2.89.4,1.79.67,3l2.82,2.65h4a10.56,10.56,0,0,0,1,2.36c1.15,1.55,3,2.81,3.55,4.52a9,9,0,0,0,3,4.76c1.85,1.46,1.4,4.15,3.33,5.71.64.52.1,2.51.1,3.68l1.9,2.13v8.07c-2,1.37-2.48,3.15-1.07,6.56l3.09,1.57v5.51L3350,913v5.88l2.05,2.22V925l2.06,2.29v9.07L3357,942h3v3l-2.05,2.19v5.24c-1.32,2.5-2.34,4.42-3.76,7.09v7.24l2.71,3.34h4.17c2,1.92-.42,5.58,2.87,6.88-.41,2.85,2.19,3.78,3.58,5.6,1.15,2.43,0,5.11.76,8.21L3371,996l3.87,3.87h8.2c1.09,2.28,2,4.22,3,6.16-3.28,0-6.55,0-9.83,0a7.27,7.27,0,0,0-1.88.57c-1,1.09-2.16,2.27-3.25,3.4h-3a1.7,1.7,0,0,1-2-2v-3.12c-2.8-2-4.49-5.5-8-6.88a1.7,1.7,0,0,0-2-2c-.2-1.85.48-3.78-.52-5.53l-3.08-1c-.48-1.42-.84-2.5-1.05-3.15l-3-.8-.91-3.5H3344a1.52,1.52,0,0,1-1.95-1.44c-.13-2.85-.05-5.71-.05-8.56l2.06-.85v-7.24c1.17-2.28,1.74-3.37,2.21-4.3l-2.65-3.51a9.41,9.41,0,0,0,1.68-2.47c.72-2.69,3.41-4.73,2.68-7.87A8.36,8.36,0,0,0,3347,944l-2.37.33c-1.18,1.33.06,3.92-2.67,3.69-.45-.78-.92-1.55-1.33-2.35-.27-.52-.45-1.1-.67-1.65,1.26.23,1.85-.53,2-1.57a24.77,24.77,0,0,0,0-3.19l2.06-2.75-6.48-1.06a63,63,0,0,1,5.29-5.18c.86-.68,2.61.08,3.23-2a5.93,5.93,0,0,0-1.06-2.16c-1.15-1-1-2.29-1.07-3.57a14,14,0,0,0-.71-2.56H3340v-7.15c-1.52-1.26-2.82-.69-4-.85l2.22-4.26-2-2.8V894.32c-1.82-3.55-3.35-6.56-5-9.86l-5.41-2.47c-2.8.34-3.13,4.46-6.37,4a7.28,7.28,0,0,1-6.13,2l-3.92,6H3301l-2.17-2H3295c-.27-.27-.66-.47-.72-.74-.61-2.9,0-5.79-.27-8.21l1.95-1.95v-3.85l2-2.25v-3.91c-.64-.69-1.3-1.41-2-2.14V865l-2-2.22V858.9c-.61-.32-1.14-.83-1.7-.86-1.93-.1-3.86,0-6.09,0V847.15L3283,844h-4.24c-.36-1.08-.75-2.23-1.14-3.38l-6.82-6.82-4.76-9.89v-7.08l-2-.83a1.7,1.7,0,0,0-2-2h-3l-2.91,5c-.82.61-1.08,1-1.33,1-4.93,0-9.87,0-14.8,0,.29-2.62,2.62-7.31,4.94-10h3.82c.32-.24.7-.39.79-.64a4,4,0,0,0,.42-1.8c-.34-3.66,3.8-5.86,1.71-10,4.07,1.22,4.07,1.22,7.69,4.42l1.88-.25c.25-.56.54-1.11.73-1.68a3.27,3.27,0,0,0,0-1c2.1-1.21,4.68-1.75,5.85-4.24-1.3-1.55-3.09-.52-4.74-.87L3261,792h-3.85l-2.17-2H3248c-.22-.55-.4-1.13-.67-1.65-.41-.8-.88-1.57-1.33-2.35-.38-2.45-3.62-3.19-3.82-5.1-.31-3.07-3-3.92-4.18-6V769c.94-.92,1.88-1.86,2.93-2.9h3.8L3247,764h11.18l3.62,2.47c.51,3.15-1.45,3.74-2.58,5.36h-6.72a39,39,0,0,1-5,2.08c-1.21.27-2.63-.3-3.5,1.08,1.4,2.9,5.08,2.61,6.94,5h17.91l2.17,2h10c1.69,1.23.73,3,1.07,5-3.1,2.36-5,6.48-9.67,7.48-1.1,2.81.14,5.77-.65,8.78l3.93,1.19c1.52.74-.74,3.67.63,4.67,2.38,1.76.69,4.71,2.13,6.1,1.79,1.72,1.44,3.51,1.58,6l3.95,2.5v7.39c2.81,2,4.5,5.51,8,6.9A1.7,1.7,0,0,0,3294,840Z" transform="translate(-999.89 -753.96)"/><path class="cls-1" d="M1978,946h9l1.2,1.25c.43.35.67.72.92.72,4.65,0,9.29,0,13.88,0,1.9,2.39,5.59,2.09,7,5v4.36c6.86,5.11,15.46,7.47,23,12.45h11.3c1.3.82,2.34,1.51,3.42,2.13.25.14.65,0,1.28,0l6.93,7.88v6.74c1.48,2.44,4.06,3.11,6,4.57,1.81,1.34,3.4,2.82,5.69,3.36,0,2.23-1.73,1-2.6,1.49-1.1.57-1.64,1.75-3.16,2.07-2.28.49-4.14,1.93-3.86,5,4.35,1.17,7.58,5.43,13.42,4.76,1.5,1.66,3,4,5.13,5.44,1.81,1.2,4.3,1.37,5.43,5V1026c-.78.45-1.55.92-2.35,1.33-.52.27-1.1.45-1.65.67v-7l-7.47-7.21h-3.77c-.8-.8-1.27-1.26-1.73-1.73-2.88-.15-5.79.18-8.11-.11L2055,1010c-2.21.23-4.52-.61-6.71.61L2047,1012h-6.22c-1.77-3.69-6.5-3.83-8.85-7-4-1-6.13-4.53-7.51-5.68L2008,991v-6.26l-3.74-1.29c-.56-3.42,0-7-.37-10.57-1.45-1.2-2.37-3.29-4.88-2.85-1.35-2.68-2.7-5.4-4-8l-2.13-.18-7.75-7.75L1983,954c-.61-1.29-1.25-2.66-1.87-4H1978Z" transform="translate(-999.89 -753.96)"/><path class="cls-1" d="M3036,842h3.25c.36-1.08.76-2.24,1.24-3.67L3043,838l2.93,5.7v19.19l2,2.18V873l2,2.13v5c1.74,4.93,5.72,8.81,6.18,14.46.19,2.2,2.45,4.24,3.77,6.36-1.1,2.65,3.2,3.45,2.1,6.1,1.36,1,1.59,2.64,2.29,4s1.17,3,2.06,4.1c1.66,2,1.76,4.87,4.1,6.33,2,1.27,1.2,4.41,3.51,5.53v6.75c1.91,5.59,6,8.52,7.87,14.65v4.86l6.58,5.38-.85.66c1.24,2.47,2.49,4.94,4.2,8.35v11.56c-1.88,1.36-3.91.49-5.81.75-1.68.24-2.11-1.36-3.08-2.14-.45-.36-.6-1.07-.92-1.59-1.5-2.35-2-5.17-3.9-7.39-.65-.77-.1-2.57-.1-3.84l-2.05-2.2v-6c-3.32-1.28-1.24-4.68-2.75-6.86s-2.44-5-3.76-7.35c-1.23-2.21-3.66-3.76-4.41-4.49a62.27,62.27,0,0,1-3-6.4c-.57-1.77-2.36-2.83-2.2-5.14.11-1.66-1.47-3.37-1.77-5.15a32.07,32.07,0,0,1-.08-5.69c-1.82-3.49-3.61-6.73-5.23-10-1.49-3-3.23-6-4.63-9-1.6-3.47-2.9-7-6.26-9.76V876.88l-1.81-1.81v-7.86L3038,865v-9.85l-2-2.17Z" transform="translate(-999.89 -753.96)"/><path class="cls-1" d="M1284,990v3l-5,4.93h-3.88c-2.68-1.64.17-4.35-.37-4.92l-3.78-7h-4l-3.75,3.75h-10.7c-.21-.79-.44-1.68-.71-2.68-2.94-.89-5.3-4.37-9.19-2.72l-1.43,3.91-2-4.17c-2.39,1.22-.48,3.56-1.5,5.26-1.26,1.46-3.08.06-5.47,1.34-1.64,1.33.71,4.3-.51,6.59l-1.7.7c0-.33.14-.83,0-1-1.65-1.45-4.57-1.25-5.4-3.57a19.54,19.54,0,0,0-2.73-5.09v-5.61L1220,982c0-1.17,0-2.34,0-4l-4,0c0-2.48-2.71-2.44-3-4.2-1.33.36-2.31.35-2.46.7-1.11,2.6-1.69,5.35-5.49,5.66-1.26.11-2.25,2.29-3.57,3.22-1,.67-2.26.85-4.15,1.51l7.11,5.72c-.6,1.49-.8,2.95-1.31,3.07-1.61.37-3.09.73-4,2.26h-5.49L1186,992c-.78-3.16-2.9-4.32-6-4l-3.91-2c-1-.55-2.1-1.12-4-2.14h-5.36L1166,982c1.18-.2,2.49.48,4-1v-5h4.94l2.11,2h5.87l2.09,2,2-1.93c2.11-.72,2.83,1.25,4.07,1.93h4.07c2-2.83,5.47-4.48,6.81-8,.55-2.89,3.5-3.78,4.93-6h8l2.12,2h4l1.83,1.83,4.11.28c4,3.09,6.53,7.58,11,9.88.22.55.35,1.51.68,1.59,1.19.27,1.39-.62,1.32-1.59.43-.67.72-1.65,1.33-1.92A7.17,7.17,0,0,1,1244,978c2.5.36,3.25,3,5.13,3.92h8.75c6.09-2.23,9.48-6.85,14.71-7.9l3.91,3c.52,2.56-1.8,5.15.52,7h7Z" transform="translate(-999.89 -753.96)"/><path class="cls-1" d="M3482,1176c.22-.56.45-1.12.79-2H3489c1.72-1.64.69-3.38,1-4.89-2.29-1.37-5.33-1.88-6-5.14h4.13a4.83,4.83,0,0,1,1.67-2.85A43.34,43.34,0,0,0,3493,1158c3.37-.19,4.08,2.61,6,3.92h5.86c.74.7,1.46,1.37,2.21,2.06h25.26l5.64,2.93c-.07.78-.15,1.68-.27,3.07-3.41,0-6.68,0-10,0a107.56,107.56,0,0,0-10.95.27l4.85,3.58h13.45l4.68,5.65c3.4,1.23,4.12-.83,5.5-1.51,1.25,0,5.48,2.51,6.75,4v2a4.91,4.91,0,0,0-4,4c-1.62-.34-1.93,1.51-3.13,1.86-1.43-1.95-1.45-5-4.65-5.95l-2.25.95V1187c-2,2-4.43.57-6.51.94l-7-4h-27.4l-2.21-2H3489a34.94,34.94,0,0,0-3.6-3.51,20,20,0,0,0-3.35-1.5C3481.89,1176.9,3482,1176.33,3482,1176Z" transform="translate(-999.89 -753.96)"/><path class="cls-1" d="M1144,956h-3c-2.94-1.37-2.62-5-5.22-7.1a16.61,16.61,0,0,1,2.53-.87,20.06,20.06,0,0,1,2.68-.16l3-2.84v-8.51l-4.07-3.34v-4.7l-5.68-.91v-6.78c2-1.14,1.78-3.16,1.75-5.37l-2.26-3.25,2.11-3.6v-5.74c-.75-.69-1.75-2.34-3.1-2.72-3.59-1-6.46-3.52-10-4.48-.36-.1-.48-1.07-.71-1.63a1.7,1.7,0,0,0,2-2,39.69,39.69,0,0,0,4.63,0,1.54,1.54,0,0,0,1.37-2h4a1.7,1.7,0,0,1,2,2v3.48c5.62,2.9,6.82,9.27,10,14.13v5.62c2.44,1,3.17,4.65,6.62,4.84l4-6.07h2.58c.31-.78.64-1.64,1.18-3l-3.24-2.88c-2-.4-3.78.63-5.09-1.05v-8l2-2.09v-3c2.45.38,3.17,3.53,5.15,3.82,2.26.33,3.22,1.81,4.91,3.19v6.22l1.94.77v4c-2.09-.2-2.27,2.19-4,2.61v18.6l-2,.79h-3l-5.13,5.26V947c-3.28,5.22-3.28,5.21-7.82,8.06C1143.87,955.14,1144,955.67,1144,956Z" transform="translate(-999.89 -753.96)"/><path class="cls-1" d="M3446,894h-3.12c-.51-3-3.86-5.06-2.69-8.57l-7.78-7.06c-2.22.57-4.67-1.39-7-2.54S3421,872,3418.81,870H3413l-1.79-1.79-4.32-.32-3.51-3.51-3.35-1.11V858a7,7,0,0,0,2.67-.08c.61-.27.9-1.25,1.33-1.92h11c1.29,2.62,2.6,5.3,3.92,8h2.39l5.59,6h5.1c.22.55.35,1.51.68,1.59,1.19.27,1.39-.62,1.32-1.59h8c.55,2.89,3.51,3.78,4.94,6h2c1.56,2.64,2.13,6.24,6.28,6.21,1.86,1.74,3.37,3.76,6.2,4.4,1.16.27,2.36,1.84,2.76,3.74s1.92,3.8,3,5.71H3469L3472,899v13.89L3474,915v5h-2.91c-1.79-1.12-.77-2.92-1.32-4.84A5.49,5.49,0,0,0,3466,912v-4.86c-2.07-2.92-5.86-4.4-6.38-8.45,0-.29-1.09-.43-1.64-.7-1.94-.92-3.87-1.86-5.82-2.8-.12-2.25-.25-4.48-.41-7.5-2.72,1-5.29-.85-7.72,1.21l2,2.15Z" transform="translate(-999.89 -753.96)"/><path class="cls-1" d="M1058,858c.23.57.31,1.42.73,1.65,1.34.72,2.8,1.21,5.32,2.25h5a16.15,16.15,0,0,0,1,2.35c1.47,2.37,1.7,6.08,4.42,7,4,1.3,5.8,5,9,6.82l2.18-.49c.26-1.75.53-3.58.83-5.59,1.34.9,2.31,1.57,3.15,2.14.85-.3,1.58-.34,2-.73,2.39-2.29,4.71-4.66,7.24-7.19h4.61c1.24,2.6.22,5.27.57,7.82v4c0,4.42,0,4.42-2,8h-5l-2.08-2h-2.08l-1.94,4c-1.72-.36-3.51.67-4.78-.87-.41-1,.43-2.63-1.51-2.93l-1.43,3.74h-14.39c-.37.89-.6,1.45-.83,2h-4v-4.94c-2.07-1.93-4.16-4.08-5.09-7,0-.09-.6,0-.91,0,.23-.57.47-1.14.7-1.7,6.34-.4,6.47-.43,7.26-1.38V870.7l-3.91-1.3-4.46-5.53c-2.62.34-4.81-.59-6.1,1.64-2.61,0-4.1,3.15-6.94,2.48-.88-.2-1.75-.5-2.55-.73V862c.22-.55.43-1.1.75-1.91h6.16L1051,858Z" transform="translate(-999.89 -753.96)"/><path class="cls-1" d="M3818,1178H3825l2.17-2H3831c.78-.7,1.5-1.36,2.12-1.93H3847l1.48,1.48c1.8,1.17,3.85-.15,5.71.64,3,1.55,6.41,2.65,8.52,5.73h5.92a11.46,11.46,0,0,0,2.21,1.91,9.46,9.46,0,0,0,2.6.52c.29,1.12.52,2,.8,3.08a30.52,30.52,0,0,1,3.33,1.27c.55.27.9.94,1.25,1.33H3886a1.57,1.57,0,0,1-1.42,2,28.3,28.3,0,0,1-3.94,0l-3.52,4H3874c-.43-.67-.72-1.65-1.33-1.92a7,7,0,0,0-2.67-.08h-12.94c-.75-.68-1.54-2-2.19-1.89a4.34,4.34,0,0,1-4.59-3.08c-.7-3-2.25-4.13-4.86-5.15-1.72-.67-3-2.48-4.56-3.86-1.81-.59-2.82.85-3.87,2h-4l-2.1,1.87h-14.07c-1.54-1.65-1-2.94.41-4.23A4.76,4.76,0,0,0,3818,1178Z" transform="translate(-999.89 -753.96)"/><path class="cls-1" d="M3630,872l-2,.82v6.73l-3.16.63L3620,885v3.89l-2,2.18v9.89l2,2.11v3.91l2,2.14V916h-5c-.85-1.16-2.52-1.72-2.62-3.46l3.62-1.26c-.14-1.07-.25-2-.35-2.76l-3.67-1.25v-4.2l2-2.12v-8.08c-2.81-2-4.49-5.49-8-6.87V865.66l3.06-5.66H3614c.31,2.52-.6,5.15.75,8.3,1.2-1.32,2.31-2.26,3.25-3.4V860h4c.43.67.72,1.65,1.33,1.92a7,7,0,0,0,2.67.08,1.7,1.7,0,0,0,2-2h2.89c2.55,2,.17,4.79,1.3,6.77l-2.19,2.31Zm-19.73,8.84c.86,1.66,1.72,3.3,2.67,5.11l2.48-.23c1-2.49-.14-5.52,2.58-7.15-.3-2.85.71-5.85-.82-8.65C3613.15,872.7,3613.12,877.84,3610.27,880.84Z" transform="translate(-999.89 -753.96)"/><path class="cls-1" d="M2110,1020c.53-2.88,3.48-3.75,4.91-6h4.61l5.4-6h8.14l5.81,5.81h7.64l5-2.51c.56-3.28,3.29-5.12,5.56-7.3,2.55,3-.42,5.15-1,7.73-.74,3.56-4,3.63-6.1,5.24v3c-.23.56-.47,1.62-.69,1.62-4.31,0-7.5,2.67-11.35,4.5l-7.51-4.12H2123l-2.12-2Z" transform="translate(-999.89 -753.96)"/><path class="cls-1" d="M3386,932v-3a3.81,3.81,0,0,1,5.23-.56c2.75,2.15,6.36,2.51,8.91,4.76,1.5,1.33,3.11.45,5.12.94l5.2,5.93c.17.31-1.35,2.5.59,4,1.48,1.17.79,3.78,2.81,4.74a4.54,4.54,0,0,0,2.07,4.07c-.74,2.28,2.16,3.07,2.07,5.07h-5.09c-.61,1.3-1.23,2.64-2.06,4.43-.43-1.32-.72-2.19-1.13-3.42-2.85-2.16-7.3-2.58-9.76-6.21V949l-1.59-1.59-.91-5.66-2.66,2.43c-.41-1.23-.8-2.38-1.28-3.79l-2.68-.55c-.64-1.25-1.28-2.65-2-4S3385.93,934,3386,932Z" transform="translate(-999.89 -753.96)"/><path class="cls-1" d="M1034,878c-.23.57-.31,1.43-.73,1.65-1.63.84-3.36,1.48-5.45,2.36l-7.39-4H1012v-8.86c-1.68-2.8-4.75-3.44-7.43-4.8-1.05,1.08-.38,2.45-.57,3.66-1.21-.23-2.59.57-3.67-.66.63-1.24,1.25-2.5,1.82-3.63l-2.26-3.33a24.09,24.09,0,0,1,.51-3.69c.1-.35,1-.47,1.6-.69,2.9.7,3.86,3,4.51,5.49,2,.84,4.19,1.38,5.91,2.58a77.51,77.51,0,0,1,6.76,5.87c1.35-.25,3.07.71,4.64-.73v-4.5c-1.48-1-2.1-2.53-4.06-2.82A4.52,4.52,0,0,1,1016,858h7.3c1.06,1.55,2.24,3.31,4.58,6.76-1.3-1.2-1.06-.79-.82-.79,2.61,0,5.23,0,7.49,0l3.45-2c-.35,2.55.68,5.23-.51,7.7a22.63,22.63,0,0,0-4.84.75,29.47,29.47,0,0,0-4.64,2.77c-.37,2.5,1.89,3.27,3,4.78Z" transform="translate(-999.89 -753.96)"/><path class="cls-1" d="M3628,946c2.71-.22,1.51,2.33,2.4,3.4l5.9-1.4c1.75.35,2.41,2.06,3.67,3-.67.72-1.33,1.44-2.14,2.29,1.16,4.74,6.26,8.33,4,13.41,1.53,1.93,3,1.06,4.2,1.31.67,1.38,1.36,2.75,2,4.14.11.26,0,.63-.07,1-1.28,1.52-3.11.44-4.56,1a11.46,11.46,0,0,0-2.78,1.93c-.72,0-1.2.14-1.36,0-2.25-2.4-4.46-4.84-7.15-7.79V963l4.06-1.93-5.07-4.76-3.6,2.06c-.62-.57-1.07-.78-1.07-1-.05-3.54,0-7.09,0-10.66Z" transform="translate(-999.89 -753.96)"/><path class="cls-1" d="M1430,968c-1.85.21-3.8-.5-5.79.68V979l-2.17,1.88c-.5,2.84,3,4.33,2,7.12h-3.37c-.33-1.75-.67-3.57-1-5.39l-1.51-1.51V970.84L1414,968v-6h4.56l5.44-3.22V952h7.41c1.28,3,.16,6.2.63,8.89-1.39,1.72-2.82.86-4,1.11-.55.22-1.51.35-1.59.68-.27,1.19.62,1.39,1.59,1.32.22.55.4,1.13.67,1.65C1429.08,966.45,1429.55,967.22,1430,968Z" transform="translate(-999.89 -753.96)"/><path class="cls-1" d="M3624,1142h2.94c1-3.45,3.64-5.7,6.17-8h4l1.76-2H3642l2,3.47v5.6l-3.84,1.73,1.84,3.2v2c-2.45.41-3.27,3-5.12,3.94h-4.2c-.39-1.15-.79-2.29-1.18-3.44-2.17-1.84-3.18.82-4.79,1.24C3626.12,1147.05,3623.3,1145.15,3624,1142Z" transform="translate(-999.89 -753.96)"/><path class="cls-1" d="M1736,1182h4.86c1.8-1.07.78-2.88,1.19-4.31a13.8,13.8,0,0,1,1.64-2.9l-1.69-2.06c0-.53-.11-.92,0-1.17q1.45-2.8,3-5.54c.08-.14.62,0,.94,0v16.85l-2,2.17v4c-4.18,3.34-7,8.29-12,10.94-.3-2.52.58-5.13-.53-7.79l-3.06,1.61c-.19-1-.37-1.9-.54-2.82l8.13-4Z" transform="translate(-999.89 -753.96)"/><path class="cls-1" d="M1231,870c-2.81-2.57-5-5.9-9.07-7l3.06-2.88h15.67a7.46,7.46,0,0,0,6.11,1.87c1,1.74,2,3.51,2.93,5.29-.23.23-.46.66-.7.67-2.64,0-5.28,0-7.91,0l-2.16,2Z" transform="translate(-999.89 -753.96)"/><path class="cls-1" d="M3610,918c.21.55.29,1.44.66,1.58,2.18.84,5.06-.25,6.59,2.42H3622v13c-1.28,1-1.94,2.68-3.71,3a7.81,7.81,0,0,1-1.78-.52c-2.4-1.38-2.34-4.41-4.15-6.3-.7-.74-.33-2.49-.53-4.58l-5.64-4.64a15.88,15.88,0,0,0-2.22-5.4,8.32,8.32,0,0,1,2.85-.49C3608,916.31,3608.34,918.29,3610,918Z" transform="translate(-999.89 -753.96)"/><path class="cls-1" d="M3604,1190h-4v-6c1.35-.67,2.71-1.3,4-2,1.08-.57,2.11-1.23,3.39-2h3.75l1.74,2h4.35c.23.78.48,1.64.74,2.49s.78,1.74,2,1.51h4.83l2-1.77.64.24c1,1,.32,2.35.52,3.53h-3l-2,1.91c-2,.65-2.94-.9-4.11-1.87-1.89,3-4.78,1.66-7.52,2l-2.67-2a32.85,32.85,0,0,0-4,.39C3604.38,1188.44,3604.23,1189.44,3604,1190Z" transform="translate(-999.89 -753.96)"/><path class="cls-1" d="M1375.06,866l-2.13,2c-5.26,0-10.51,0-15.77,0-.25,0-.49-.37-1-.73v-6.46c.24-.24.43-.55.71-.68a2.26,2.26,0,0,1,.94-.11h17.41l3.81,5.26C1378.53,866,1378.53,866,1375.06,866Z" transform="translate(-999.89 -753.96)"/><path class="cls-1" d="M1178,810h-10c-1.2.2-3,0-3.49.7-1.13,1.56-2.94.89-4.14,1.89-1.41,1.19-2.23,3.16-4.58,3.46l-3.79-2c.93-1.94,1.87-3.88,2.84-5.91h5.89L1163,806h3.85l2.18-2h11l-2,3.47Z" transform="translate(-999.89 -753.96)"/><path class="cls-1" d="M3654,1102v4l-3.38,2h-3.9l-1.17-3.42c-2.22-2.06-3.2.76-5,1.29l-.75-3.07a20.2,20.2,0,0,1-3-1.13c-.41-.23-.49-1.08-.72-1.64.66-3.26,3.66-3.73,6.11-5.1l-2.11-1.81V1090h4.87a2.13,2.13,0,0,1,.8,3.22c-.94,1.28-2.34,2.23-1.35,4.1.54.22,1.09.49,1.66.66a3.55,3.55,0,0,0,1,0c2.05,1.35.37,3.65,1.39,5.4,1.53,1.33,2.76.61,4-.7C3652.73,1102.3,3653.44,1102.23,3654,1102Z" transform="translate(-999.89 -753.96)"/><path class="cls-1" d="M1306,852h-6.92l-2.14-2H1292a1.7,1.7,0,0,0-2-2h-6.93c-1.22-2.57-1.22-2.57,1.3-5.37.24-.21.48-.6.72-.6,2.61,0,5.21,0,7.82,0,2.58,1.89,6.79,3.74,9.09,4,.23.56.3,1.41.71,1.62a21,21,0,0,0,3.29,1.2Z" transform="translate(-999.89 -753.96)"/><path class="cls-1" d="M1592,1374a1.55,1.55,0,0,0,1.52,2c1.34.16,2.62.16,2.48,2,0,.33.1.91,0,1a14.76,14.76,0,0,0-9,9c-.31.85-1.29,1.45-1.9,2.09H1582v-5.13l4.28-3.8-2.28-2V1376C1587.79,1374,1587.79,1374,1592,1374Z" transform="translate(-999.89 -753.96)"/><path class="cls-1" d="M2746,1242c-.2,2.65,2.23,1.57,3.47,2.44s.29,2.35.53,3.56c0,1.17,0,2.34,0,4l-4,0h-10c0-1-.35-2.1.06-2.81,1.48-2.55,3.21-5,4.69-7.19Z" transform="translate(-999.89 -753.96)"/><path class="cls-1" d="M1202,774c-1.66-.4-1.84,1.63-3.18,1.76-.76-1.5-1.6-3.13-2.78-5.43V767l2-2.08v-5l2-3.47V754c1.19-.23,1.65.53,2,1.47.42,1.11.85,2.2,1.82,4.7v7l-1.33,1.33C1201.52,770.22,1202.2,772.15,1202,774Z" transform="translate(-999.89 -753.96)"/><path class="cls-1" d="M3422,964c.55.21,1.39.27,1.59.66,2.43,4.82,2.41,4.83,2.41,11.34v2.91c-1.44,2.06-3.44.83-5.66.88-.9-4.29.1-8.78-.46-12.74l-1.72-2.21C3419.42,963.44,3420.8,964.23,3422,964Z" transform="translate(-999.89 -753.96)"/><path class="cls-1" d="M3426,858c1.21-.25,2.71.67,3.63-.67,1.15-1.67,2.78-1.33,4.37-1.33v2.53l2,3.47c-2,3.79-2,3.79-2,8h-2v-3.26l-6-5.48Z" transform="translate(-999.89 -753.96)"/><path class="cls-1" d="M3630,1000h-4v-4.87l1.88-2c-.75-3.65,2.21-6,3.24-9.08H3634c0,1.59.34,3.22-1.33,4.37-1.34.92-.42,2.42-.67,3.63,0,2.2.11,4.4-.05,6.59A1.53,1.53,0,0,1,3630,1000Z" transform="translate(-999.89 -753.96)"/><path class="cls-1" d="M2632,1150h2.53l3.47,2v8h-4c-2-3.61-2-3.61-2-8Z" transform="translate(-999.89 -753.96)"/><path class="cls-1" d="M3490,856h-3c-.94-1.28-2.66-1.94-3-3.68-.25-2.08,1.74-2.63,2.74-4.13h4.52L3492,850v2.53Z" transform="translate(-999.89 -753.96)"/><path class="cls-1" d="M1054,900h-6a1.7,1.7,0,0,1-2-2c0-1.17,0-2.34,0-4l4,0c.43.67.72,1.65,1.33,1.92a7.17,7.17,0,0,0,2.67.08Z" transform="translate(-999.89 -753.96)"/><path class="cls-1" d="M2335,1114l-2.9-2.92v-6.26l-4-3.15c-.47-2.79.25-3.91,3-3.61l2.51-4h7.27c1.62,2.1,1.8,5.12,5.25,6.16,2.34.71,4.48,2.14,7.11,2.09,1.55,1.36.1,3.18.87,4.56-1.66,1.26-2.51,3-4.83,3.37-1.64.28-3,2.43-4.48,3.8Z" transform="translate(-999.89 -753.96)"/><path class="cls-1" d="M2584,990c3.53,1.39,5.22,4.85,7.94,6.86.41,1.77-.65,3.55.83,4.92,2.81-1-.06-3.59,1.66-4.95,1.48-1.5,1.56,1,3,1.17H2604v2.53l2,3.47c-1.2.22-2.57-.55-3.7.69l1.39,2.64-1.69.67h-3.09c-.59-1.31-1.21-2.66-1.85-4.06l-2.87,2.87-.56,2.65c-2.27,1-4.52.45-6.74.43-1.37-1.37-1.24-2,1-4.76-1.26-2.37-3.65-3.14-6.32-4.36l2.45-4.23Z" transform="translate(-999.89 -753.96)"/><path class="cls-1" d="M2540,1066v5l2,2.14c0,.7-.07,1.35-.11,2.16-2.4,1.18-4.89.86-7.32.4-1.9-4,1.46-6.53,2.42-9.66Z" transform="translate(-999.89 -753.96)"/><path class="cls-1" d="M2341.84,1032.28c1.34-2.33,1.34-2.33,4-1.45C2345.07,1032.91,2343.25,1031.51,2341.84,1032.28Z" transform="translate(-999.89 -753.96)"/><path class="cls-1" d="M2539.44,1066.23l1.74-2C2542.54,1065.93,2541,1065.79,2539.44,1066.23Z" transform="translate(-999.89 -753.96)"/><path class="cls-1" d="M1484,1380c-.19,1.84.46,3.75-.63,5.76h-5.44L1474,1388v-2.79l-2.52-3.29,4.49-5.15c.61-2.92-4.35-4.09-1.55-7.5,1.68-2.16,3.26-5.07,6.87-5.65.79-.13,1.61-1.21,2.07-2,.9-1.63,1-3.72,2.85-4.78s1.62-3.34,2.53-4.79H1496v8.92l-2,2.12v3a4.68,4.68,0,0,0-3.91,3.75c-.34,1.54-.89,1.94-2.35,2.37s-2.57,1.81-3.74,2.71Z" transform="translate(-999.89 -753.96)"/><path class="cls-1" d="M1522,1362c-2.52.31-3.17,3.07-5.25,4-1.91.8-2.55-1.33-4-1.75l-3.48,3.48c-2.24-1.47-5.67-1.66-6.69-4.28a18.2,18.2,0,0,0-4.38-6.17,43.75,43.75,0,0,0-.63-4.54c-.08-.34-1-.47-1.61-.7a4.91,4.91,0,0,0-4-4v-5c.23-.23.45-.65.71-.67,2.62-.18,5.24-.29,8.15-.44a16.24,16.24,0,0,1,2.62,2.68,52.15,52.15,0,0,1,2.52,5.35v5.36l4,2.73h4.27c2,.92,3.66,2.45,6.16,2.07C1521.39,1359.92,1522.23,1360.73,1522,1362Z" transform="translate(-999.89 -753.96)"/><path class="cls-1" d="M1442.24,1288.23c1.17-2,2-3.42,2.38-4.13,3.38-.35,4,1.91,5.38,3.06.38,2.35-1.66,3.23-2.8,4.64h-4.44C1441.41,1290.19,1442.3,1288.52,1442.24,1288.23Z" transform="translate(-999.89 -753.96)"/><path class="cls-1" d="M3398,858c-.21.55-.43,1.1-.71,1.82h-6.47l-2.61-2.61v-4.42c1.25-1.32,2.6-.58,3.79-.79.23.56.36,1.53.7,1.61a39.24,39.24,0,0,0,4.54.63C3398.6,855.37,3397.76,856.78,3398,858Z" transform="translate(-999.89 -753.96)"/><path class="cls-1" d="M3458,908c-2-.16-2,1.21-2,2.53,1.34,1.78,2.69,3.53,4,5.32.16.22,0,.65,0,1-1.39,2.39-3.56.3-5.36,1.7-.37-1.64-.58-2.53-.91-4l-3.25-.66c-.27,1.33-.45,2.24-.69,3.46l-2.41.87c-2.47-2.58-6-4.15-5.75-8.19H3435c-2.14-2-.8-3.39.84-4.79l.32-6.5,1-.57c.47,1.13.93,2.26,1.55,3.78l2.23-1.69,4.3-.46c1.39-1.12.53-2.55.78-3.77.56.23,1.41.3,1.63.72a22.62,22.62,0,0,1,1.22,3.3h2.62C3452.94,903.06,3456.75,904.41,3458,908Z" transform="translate(-999.89 -753.96)"/><path class="cls-1" d="M3457.47,934c1,2.73-.31,5.43,2.53,6.87,0,1.22,0,2.52,0,3.82,0,.93-.17,1.86-.29,3.1l-6.85.36c-1.58.86,0,4.34-2.54,4l-8.09-8.23v-6.93l2.71-2.94Z" transform="translate(-999.89 -753.96)"/><path class="cls-1" d="M1424,1014c-3.1-.32-5.22.84-6,4h-2c-.23-.57-.47-1.14-.79-1.92l-2.23,1.83h-3.91c-1.2-.59-1.92-2.65-4-1.9l-2.19,2H1397l-5,5v2.24l-3.65,1.25c-.16.78-.35,1.69-.57,2.78-1.17,1.5-3,.28-4.46.88L1381,1028h-6.16c-.35,1-.75,2.17-1.15,3.33-1.35,1.37-4.42-.39-4.33,2.56h-12.4c-1.65-1.38-.6-3.17-1-5.16l-3.92-3.11c-2.41-1.24-5,3.57-9.11,2.2l-3.29,4.16H1335l-2.15,2c-5.32.38-5.4.43-13.83,10h-3.9l-4.32,4.12h-6.19c-.27.88-.53,1.77-1,3.17-2.75,2.32-4.93,6-9.25,7.5a4.86,4.86,0,0,0-2.87,5.21l-2.7.18-3.7,3.7H1279l-2.38-2.16c-.27-.42-.59-.68-.59-.94,0-5.31,0-10.61,0-15.73l2-2a37,37,0,0,0-.4-4.25c-.06-.33-1.06-.48-1.63-.72.39-2.44,2.85-3.27,4-5.13V1033a22.36,22.36,0,0,0,4-9l5.77-2.77.73-2.85,5.5-5.35v-5c1.18-.2,2.49.48,4-1v-5a1.71,1.71,0,0,0,1.92-2.44,35.29,35.29,0,0,0-3-5.54c-.08-.14-.62,0-.94,0l-1.84-3.2c1.1-1.41,2.84-.53,4.34-.82,1-.2,1.73-.77,1.5-2h5c.35.52,1,1,1,1.55.1,3,0,6,0,9,1.89,2.12,2.4,5,4.47,7.16,1.87,1.93,4.69,2,6.39,4.23h6.06l2.1-1.82h3.77L1333,1006h23.83l2.17-2h6l1.45-1.65c2.68-1,5.68.19,8.93-.65a8.33,8.33,0,0,0,3.11-5.25c1.9-1.36,3,0,4.29,1.36h12.36l2.1,4.09h9.65l2.09-1.86h3.83l2.18-2h6l4.89-5L1424,991v-3h3c3.65,4.87-1.92,8.82-1.28,13.34a13.81,13.81,0,0,0-3.43,1.48c-.94.75-2.24,1.43-2.3,3.08.14,2.55,2.77,3.31,4,5.14Z" transform="translate(-999.89 -753.96)"/><path class="cls-1" d="M1444,1026a7.17,7.17,0,0,1-2.67-.08c-.61-.27-.9-1.25-1.33-1.92a7,7,0,0,1,2.67.08C1443.28,1024.35,1443.57,1025.33,1444,1026Z" transform="translate(-999.89 -753.96)"/><path class="cls-1" d="M1049.44,894.23l1.74-2.05C1052.54,893.93,1051,893.79,1049.44,894.23Z" transform="translate(-999.89 -753.96)"/><path class="cls-1" d="M1056,902h3.23l3.61,4H1067a23.11,23.11,0,0,0,9,4l-.73,1.83h-8.45C1064,907.75,1057.69,907.4,1056,902Z" transform="translate(-999.89 -753.96)"/><path class="cls-1" d="M1054,900a1.7,1.7,0,0,1,2,2A1.7,1.7,0,0,1,1054,900Z" transform="translate(-999.89 -753.96)"/><path class="cls-1" d="M1270,1032c-.67,1.34-1.31,2.69-2,4-.57,1.07-1.21,2.11-2,3.46v3.06c-.92,1.58-1.66,2.87-3.53,6.07l-2.47,2.22V1054c-3.16.78-4.32,2.9-4,6l-1.3,2.78a33.69,33.69,0,0,0-.72-3.44c-.31-.87-.87-1.56-2-1.34v-5.43c1.17-1.08,2.61-2.4,4-3.65V1045l-2-2.19c.07-.73-.12-1.66.22-1.95,1.33-1.1,1.38-2.83,2.17-4a15.21,15.21,0,0,0,2-4.14c.11-.37,1.06-.48,1.62-.71a1.7,1.7,0,0,0,2-2C1266.21,1030,1266.21,1030,1270,1032Z" transform="translate(-999.89 -753.96)"/><path class="cls-1" d="M1300,968c3.16.78,4.32,2.9,4,6-2.52.34-3.24,3.08-5.32,4a19.73,19.73,0,0,1-3,0,5,5,0,0,1-1.51-.81c-.2-1-.39-1.91-.57-2.82-2.75-.34-5.28-.91-7.62.58V980h-2l-1.83-.72v-8.65l3.3-1.08c1-1.76.32-3.7.53-5.55l3.18,0,2.82-6c.56.23,1.59.41,1.62.7.3,2.87.43,5.76.61,8.59C1296.1,968.59,1298.12,967.75,1300,968Z" transform="translate(-999.89 -753.96)"/><path class="cls-1" d="M1058,878a1.71,1.71,0,0,1-2.44,1.92,35.29,35.29,0,0,1-5.54-3c-.14-.08,0-.62,0-.94C1054.21,876,1054.21,876,1058,878Z" transform="translate(-999.89 -753.96)"/><path class="cls-1" d="M2600,992a1.7,1.7,0,0,1,2,2c-1.88-.24-3.87.57-5.73-.67C2596.84,990.94,2598.78,992.43,2600,992Z" transform="translate(-999.89 -753.96)"/><path class="cls-1" d="M1364,1276a1.7,1.7,0,0,1,2,2A1.7,1.7,0,0,1,1364,1276Z" transform="translate(-999.89 -753.96)"/><path class="cls-1" d="M1276.89,1230c-1.5-2.35-.79-4.84-.67-7.24l.73-.73c.81,1.57,1.63,3.14,2.62,5.07C1279.36,1228.24,1277.88,1228.88,1276.89,1230Z" transform="translate(-999.89 -753.96)"/><path class="cls-1" d="M1290,986h4v3.43l-2.93.59C1289.4,988.63,1290.24,987.22,1290,986Z" transform="translate(-999.89 -753.96)"/></g></g></svg>