<svg xmlns="http://www.w3.org/2000/svg" viewBox="0 0 4320 2160"><defs><style>.cls-1{fill:#48aaf7;}</style></defs><g id="Layer_12" data-name="Layer 12"><g id="Aw_As" data-name="Aw/As"><path class="cls-1" d="M2582,1048c-.67,3.32,2.36,5.21,3.11,8,0,.08.58,0,.89,0v2.8c1.77,2.65,4.93,4,6,7.2.22.55.35,1.51.68,1.59,1.19.27,1.39-.62,1.32-1.59,1.88-.14,1.88,1.14,2,2.48a1.55,1.55,0,0,0,2,1.52c-.25,1.22.61,2.64-.67,3.68l-5.13.87c-.49,1.45.56,3.15-1.85,3.08-1.11-3.72.46-7.73-.95-11.63-4.05,0-8,0-11.89,0-.51,0-1,.65-1.51,1V1072h-6.81l-3-2.32-4.49,2.54-2.92-2.1h-3.92l-3.66,3.66c-1.09.39-2.62-.11-3.28,1.66v7.68c-3.38,1.48-.53,5.85-3.55,7.49.08,2.91-1.45,5.34-2.46,7.77,1.4,3.54,5.3,3.42,7.36,5.5h10.24a9.54,9.54,0,0,1,.52-2.76,11.46,11.46,0,0,1,2-2.19V1095l2-2.2v-5.16c1.16-2.28,2-3.92,2.85-5.57,2.23,0,4.51-.63,7,.6v8.2l1.74,1.74c.33,1.81.67,3.62,1,5.36H2582c1.2.22,2.55-.53,3.56.54,1.6,2.34-.89,3.28-1.56,4.82V1112h-2.4l-3.6,2.69V1126h-4.9l-3.07,5.56V1147l2,2.12V1156l-2,.79V1172c-2-.15-2.71,2.87-5,2.06a8,8,0,0,0-.64,1.24c.78,1.57,3.67-.47,3.65,2.68l-5,10h-5c-.56.22-1.41.29-1.61.69-.77,1.51-1.33,3.13-2,4.74,1,1.13,2.38.34,3.59.57v2c.06,1-.07,1.81-1.23,1.65l-2.11-1.59-1.31,3.79c-.85.06-1.5.06-2.13.17a1.39,1.39,0,0,0-.59.4l-3.52,7.74-3-.58,1.7-3.14-5.67-.87c-.08-1-.14-1.68-.2-2.41l2.24-2.67c2.72-.84,4.53.21,5.76-1.49v-3.92c2.29-1,4.57-1.91,5.9-4.22-2.15-1.39-3-4.33-5.89-4.86.26-1.63-1.94-2-1.89-3.07.11-2-1.1-2.87-2.19-4a2.44,2.44,0,0,0-3.33-.5c-.21.28-.56.52-.57.77,0,3.25,0,6.5,0,10.12l-4,3.48V1196c-.23.57-.47,1.14-.53,1.29l-3.25-3.26h-5.14a11.11,11.11,0,0,1-4.43,6h-3.73L2516,1203c-.35,2.92-.44,3-2.57,3-1.66-.48-2.56-3.43-5.39-1.15-.81,2,1.1,4.88-1,7.1l-2.13-2H2500c0-6.28,0-12.57,0-18.85,0-.25-.37-.5-.57-.75-3-1.51-3.78,1.45-5.4,2.73V1210c-1.21-.21-2.6-.1-3.59-.68-3.37-2-7-3.47-10.41-5.32v-3l2-2.15c-.35-1.59.7-3.37-1-4.88-.87.87-2.25,1.61-2.54,2.65-.85,3-2.13,5.06-5.59,5.68a4.37,4.37,0,0,0-2.94,4.23c1.18,1.37,2.63,3,4.4,5.12a21.3,21.3,0,0,0-2.26,3.8c-.51,1.43.58,3.29-1.16,4.52l-1.87-3.92c-2.31-.84-2.94,1.41-4,1.78h-5.6l-3.52-2.12A15.9,15.9,0,0,0,2449,1224h-9a73.28,73.28,0,0,0-.28-7.89c1.27-.32,2.82-.18,1.46-1.93a17.45,17.45,0,0,0-1.46,1.93c-1.37-.11-3-.11-4.66-.11l-2.13,2H2425l-1.89,1.78-2.79.68c-.58,1.33.08,2.86-1.11,3.25l-5.5-2.8V1216c-2.58,0-4.84-.14-7.07,0s-4.58-1-6.73,1c.26,2.74-.22,5.65.28,8.91,3.38.51,5.79-3.47,9.06-1.51l2.71,2.53V1232l-1.67.67c.35,1.76,3.45,3.22.59,5.33H2406c-.43-.67-.72-1.65-1.33-1.92a7,7,0,0,0-2.67-.08c-.34-2.14-1.92-3.16-3.67-4-2.15-1-4.32-2-5.86-2.72-1.31-2.7,1.16-3.18,1.65-5.2v-6.86l3.79-1.9c.33-3.35-1.16-3.51-3.7-3.15l-3.05,3.95c-2-.42-3.82.61-5.07-1-.07-1.58-.14-3.14-.2-4.43-3.46-1.86-4.22,1.2-5.89,2.36v3c-.56.22-1.4.29-1.61.7a28,28,0,0,0-1.33,3.79L2372,1218c.16-2-1.24-2-2.56-2l-3,2.12-6.06-2.78c-.2-2.44-1.66-4-3.61-5.33-1.54.32-3.33-.72-4.52.75-.22,1.06-.41,2-.58,2.81l-5.64,1.07V1219l2.14,2.3c-.23.85-.48,1.74-.7,2.54l-1.5.14-4.07-2.76c.79-4.12-2.11-6.18-3-9.73a12.88,12.88,0,0,0-.56,7.88L2340,1221v9c-1.88.25-3.89-.58-6.05.9.19,1,.42,2.08.6,3,2,.47,3.79-.58,5.27.93v6.37l-5.8,5.8v5.55l-2,3.47c-1.59,0-3.22-.34-4.37,1.33-.92,1.34-2.42.42-3.63.67v-8.94l2-2.16v-7.85c.69-.77,2-1.64,1.88-2.21-.55-2.57,3.11-3.44,2.16-6.16-.82-2.36,2.67-3.38,2.12-6.14-.3-1.51,1.49-3.34,1.75-5.1a48.65,48.65,0,0,0,.08-6.94c0-3-.05-6,.05-8.94,0-.53.62-1,.85-1.4l2.91-.58v-5.17l-3-.61-2.74-2.74v-11.84l-2-2.23c-.43-1.45.6-3.19-.65-4.6l-3.4-1.14V1171l-7-7h-3a1.7,1.7,0,0,0-2-2,1.7,1.7,0,0,0-2-2v-4.49l-4.07-7.14v-5.48c-3.59-2.51-4.45-7-7.73-9.8a101.72,101.72,0,0,1-9.12-9.1c-1-1.08-1.4-2.68-2.07-4h-2.15l-8.86-9.22c.6-3.48-4.46-3.86-4-7.27a127.81,127.81,0,0,1-6.64-12.79l6-1a6.37,6.37,0,0,0,.65-1.72c.1-1.32,0-2.65,0-4,3.21.74,5.16-2,7.78-2.9,1.94-.67,2.16-3,2.82-4.72l3.41-1.15V1069l6.17-3.16h7L2303,1064h19.92c1.1,1.74,3.34,1.6,4.79,2.73s2.71,3,4.3,4.13a56.5,56.5,0,0,0,6.14,3.34h5.11L2347,1078h8l1.93,1.79,2.58.64c1.17,2.67,2.11,4.94,3.17,7.16.27.56.91,1,1.38,1.41v8a23.31,23.31,0,0,0,6.15,8.31v9.41l2.66,3.24H2377l2.09-1.83h6l3.76,3.76,6.3.3,1.76,1.76h11.43l7.16,4.09H2421l2.23,2H2441l2.38,2.08c1.73-.72,3.63-1.15,5.08-2.2,2.37-1.72,4.45-3.85,6.79-5.93H2457c2.8-5.42,2.8-5.42,10.29-9.8h8l2.85,3v3.3l4.84,5.55c2.34-.84,2.95,1.44,4,1.77h7.88l3.19-2.8V1119c.27-.27.59-.46.73-.75a71.55,71.55,0,0,0,3.59-7.49c.13-.38,1.07-.49,1.64-.72.26,1.23-.62,2.67.66,3.68l3.1,1-3.44,6.59c1.15,1.14,2.55,2.21,1.26,4.1l-3.57,1.28c.11,1,.2,1.94.3,2.87l6,1c-1.52,1.76-3.76,2.91-1.47,5.29l3-.13c.1-1.72.19-3.3.28-4.79l1.79-2v-10c-1.59-1.49-3.08-2.89-.89-4.89h2c1.59,2,4.06,3.31,5.33,6.15-.77,1-1.52,2-2.34,3V1127l2,2.22v3.87l3.28,3.28,1.19-6.07,3.26-.74v-7.1l-5.95-.9v-8.69l-1.8-1.8v-3.93c1.73-1.1,1.75-3.21,2.67-4.82l5.29,1.31c0-2.71.05-5.3,0-7.89,0-.55-.56-1.08-1-1.88-2.06.7-4.4-.55-6.54.76-.39,1.16-.79,2.32-1.4,4.12-.61-1.8-.71-3.23-1.46-4-2.51-2.75-2.29-5.16.35-7.56-.37-2.69,3-4.25,2.1-7.1a1.7,1.7,0,0,1,2-2c.21,1.19-.52,2.53.76,3.77l2.35.18a57.26,57.26,0,0,0,2.81-5.67c.23-.61-.5-1.57-.76-2.28H2522c.39-2.44,2.83-3.27,4-5.1V1066c.67-.43,1.65-.72,1.92-1.33a7.17,7.17,0,0,0,.08-2.67h1l7.43-5.06c-.63-1.42-1-2.22-1.32-2.94H2532c0-.33.13-.88,0-1-2.62-1.55-6.23-2.09-6.21-6.26-1.41-1.41-2.78-2.87-4.27-4.21-.41-.37-1.15-.38-2-.63l-3.21,2.27-8.1-4.2c-3.28,0-6.61,0-9.94,0a7.27,7.27,0,0,1-1.78-.49c-.47-.47-.94-1-1.45-1.45h-13.9l-2.17-2H2473l-2.08,1.92h-10L2458,1035v-4.66c-4.57.62-5.38-3.18-6.64-5.71l-5-2.65H2443c-3.13,1.64-2.85,5.79-6.19,8h-7.56l-2.61,2h-5.31c-1.45-.55-2.1-2.75-4.29-2l-4.2,4h-11.57l-3.52,2.44-4.88-4.41c-3.74-.58-2.14,2.94-3.87,3.85h-3.73c-4.54,4.13-4.54,4.13-11.58,6.07-3.31,2.92-7.35,1.81-11.15,2a17.31,17.31,0,0,0-2,.32c-1,1.33-2.19,2.35-4,1.25-.43-1.17-.84-2.33-1.2-3.33l-2.72-.58-3.58-7.9-3,5.83c-.12,1.52-.22,2.77-.36,4.53l-3.74-.66c0-4.15,0-7.81-.08-11.33,1.33-.63,3.15.77,3.92-1.31-2.66-.88-2.66-.88-3.92,1.31a20.84,20.84,0,0,0-3.07-.14c-.8,1.6-3.24,2.18-3,4.74.05.42-1.3,1-2.37,1.78-1.53-1.53-2.88-2.9-4.27-4.24-.19-.19-.57-.19-1-.33l-3.39.2c-1.55,1.67-2.9,2.83-3.25,5.06-.2,1.33-2,2.63-3.38,3.49-2.07,1.31-4.42,2.15-6.58,3.32s-4.21,3-6.84,1.48c-4.17-2-4.64-6.88-7.84-9.69-1.08-1-1.38-2.73-2.19-4-1-1.58-.83-3.81-2.75-4.84.5-2-1-3-2.15-4.09l-4.23-4.23L2282,1017l4-1.87V1010c2.54-.34,5.2.65,8.1-.69-.24-1.17-.47-2.29-.67-3.31H2286c-.91-2.64-2.19-4.7-5.43-3.76l-1.29,3.73h-9.22c-3.07.91-3.65,3.51-6.24,4.19-2,.53-3.59,2.51-5.36,3.84h-11c-1.72-2.48-4.63-1.67-6.94-2.51-.29-.1-.48-.45-.72-.69l-.7-.7c-2.21-.44-4.57.46-6.69-.65L2231,1008h-11l-4.48-2.11c1.49.5.91.14.32.14-8.3,0-16.6,0-24.84,0l-1.82,1.82h-7L2176,1011v2.5c-3.39,1.2-7.05,0-10.94.85l-10.68,5.67H2150v-3c2.13-1.61,5.36-1.68,6.1-5.24.54-2.58,3.51-4.76,1-7.73-2.27,2.18-5,4-5.56,7.3l-5,2.51h-7.64l-5.81-5.81h-8.14l-5.4,6h-4.61c-1.43,2.2-4.38,3.07-4.91,6l-3.45,2h-13.06l-6.95,4H2082v-7.59c-1.13-3.68-3.62-3.85-5.43-5-2.13-1.41-3.63-3.78-5.13-5.44-5.84.67-9.07-3.59-13.42-4.76-.28-3.12,1.58-4.56,3.86-5,1.52-.32,2.06-1.5,3.16-2.07.87-.46,2.64.74,2.6-1.49-2.29-.54-3.88-2-5.69-3.36-2-1.46-4.55-2.13-6-4.57v-6.74L2049,972c-.63,0-1,.12-1.28,0-1.08-.62-2.12-1.31-3.42-2.13H2033c-7.53-5-16.13-7.34-23-12.45V953c-1.39-2.95-5.08-2.65-7-5-4.59,0-9.23,0-13.88,0-.25,0-.49-.37-.92-.72L1987,946h-9a4.91,4.91,0,0,0-4,4h-4.68c-1.35-1.12-3.06-2-3.32-4l3-1.71c2.26-.88,4.61.5,6.89-1.07-1.08-2.51-3.33-.53-4.68-1.39L1968,940v-3l-5-2.92c-.59-.82-.94-1.07-.94-1.33,0-5.6,0-11.19,0-16.79h5.2c1.64,3.41,5.62,3.79,8.09,5.83h15.88l1.93-1.93h30l1.83-1.83h4L2031,920H2047l2.1-2h6c1.42,2.56,4.42,1.16,6,2.32,2,1.49,4.59,2,6.45,4,1.62,1.71,2,3.93,3.43,5.64h4l2.13,2h12.77c.86-1.2,2-2.8,2.74-3.8h4.4l2.63,2.05h10.7c3.2,1.59,5.43,3.58,7.64,3.56,2.61,0,4,2,6.17,2.23,2.57.27,3.09,3.29,5.81,4.15h19.3c1.29,2.45,3.46,1.75,6,1.88l4.92-6H2167l2.23,2c3.72-1.29,6.34,3.54,10,1.45l3.18-1.83,2.58,2.19,4.27.37L2191,942h20l4.1-3.89h6c2.5,1.79,3.21,1.79,4.35,2,2,.32,2.6-1.8,4.18-2s3.33.69,4.12-.66c.39-1.45.63-2.34.91-3.35h16.12a19,19,0,0,1,2,0c.27,0,.52.32.78.49l.42-.41,7.65,7.87c3.52-.66,6.2,2.76,9.83,2.5.43,0,.93.87,1.59,1.53,3.12,0,6.42,0,9.73,0,.26,0,.52-.32.78-.49.47-.48.95-1,1.45-1.45h1.91l2.77,2.16,5.3-2.46a26.77,26.77,0,0,0,2.39,4.5c1,1.27,0,4.4,4.12,3.57l2.78-3.81c3.69,0,6.68,0,9.66,0a6,6,0,0,1,1.73.59l1.46,1.4h11.26l5.52,2.84c.11,1.59.23,3.16.39,5.42,3-1,5.22.2,7,1.53h13.9L2359,956h20.86a3.27,3.27,0,0,0,1,0,2.79,2.79,0,0,0,.76-.59l2.12-2.12c1-1.62-.91-4,1.59-5.34H2391l2.09-1.81h12.87c2.3,1,3.75,1.12,4.52,1.93,4.22,4.46,11.05,5.13,14.77,10.22,1.07,1.47,3,1.25,4.07,2.18,2.93,2.48,7.1,2.66,9.73,5.56h14.61l3.11,4c.94,0,1.34.12,1.59,0,1.08-.62,2.12-1.31,2.9-1.8h19.94l1.94,1.94h12c.82.82,1.21,1.45,1.78,1.71s1.28.13.74.1c4.23-.78,3.55-4.31,5.58-6h7.92c.94-1.55,2.66-1.59,4-2.29,1.63-.85,2.8-2.62,3.79-3.61,3.69-.22,3.69-.22,6-2h4L2531,960H2535c1.72,2,1.53,5.8,6.35,6l2.92-5c.06-.38-1-2.76.46-4.85l4.59-.54,1.63-1.63h5.86c1.53-2.35,4.8-1.81,6.41-4,.25-.33,1.25-.11,3.3-.23l6-6h4.87c1.67-4.41,3.16-9.1,7.25-11.09a25.27,25.27,0,0,0,7.46-6v-5.77L2595,918h4c1.4-2.46,4.52-2.1,6.43-3.9.69-.64,2.5-.1,3.57-.1l4.21-4.21c3.17,3,4.55-2.42,7.7-1.77l2.13,2h3c.33,1.62-1.49,1.93-1.93,3.31l3.44,1.2,1,2.94c1.29,1,3-.2,3.21,2.55h-9.19a20.27,20.27,0,0,1-2.8,3.15A18,18,0,0,1,2616,925v3c-2.15.85-3.88,2.86-6.65,2.09-.71-.2-1.57.77-1.07,1.8-1.27.32-2.82.18-1.46,1.93a17.45,17.45,0,0,0,1.46-1.93c3.93.11,3.93.11,7.72,2.11v6a1.7,1.7,0,0,0-2,2c-.43.67-.72,1.65-1.33,1.92a7.17,7.17,0,0,1-2.67.08l1.78-3.11c-2.55-1-2.55-1-3.78,1.11-1.21.24-2.61-.58-3.65.63-.49,2.39-.18,4.94-2.25,7-.63.62-.1,2.43-.1,3.24l2.94,3.17H2608v2c-.24,1.21.59,2.62-.93,3.9-2.76.61-6.1-.7-9.17.89.17,1.07.31,2,.48,3h5c1.25-1.8,2.72-2.76,4.64-.81l-2,2.07c-.37,1.58.68,3.32-.7,4.64-1.68,1-4-.75-5.32,1.38V978a39.69,39.69,0,0,0-4.63,0,1.54,1.54,0,0,0-1.37,2c-2.79-1-4.27,2.46-5.46,2.25l-6.58,4.48c.06,2.17.2,3.42,2,3.27v6.54l-2.45,4.23c2.67,1.22,5.06,2,6.32,4.36-2.22,2.72-2.35,3.39-1,4.76,2.22,0,4.47.58,6.74-.43l.56-2.65,2.87-2.87c.64,1.4,1.26,2.75,1.85,4.06H2602c.2,1.18-.5,2.51.94,4l2.85-.3c.18-2,.32-3.5.43-4.73l1.7-2.18L2606,1004l-2-3.47V998l3.51,2h3.17l2.69,2c1.62,0,2.76-.28,2.63-2h3.1l1.91-4.09,2.95,5.75v3.28L2622,1007c0,2.68,0,5.34,0,8,0,.24.44.47.63.66l4.76-2.25,3.32-7.29c2.32-.93,3,1.13,4.47,1.7.74-1.4,2.87-1.8,2.77-3.84h2.93c1.83-1.2,2.63-3.74,5.56-4.08l2.82,2.08c.41-1.21.52-2.56,1.24-3.43,1.06-1.31,2.17-2.36.61-4.57H2638v-2c2.52-.31,5.14.59,7.5-.41.23-.45.48-.72.48-1,0-.62.08-1.48-.27-1.82-2.63-2.5-2.53-4.79-.12-7.5,1.2-1.36.71-2-1.59-3.28,1.39-3.53,4.85-5.22,6.92-8h4l2.29-2.06H2671l2.22-1.87c3.71-.67,5.93,2.13,8.8,3.14,0,.65-.08,1.3-.13,2l-5.07,2.61c-.47-.44-1.19-1.09-1.91-1.74-1.54.34-3.32-.71-4.67.77l-.51,2.12-5.72,3.74v3.53l-4.09,2.68c.55,2.95-1.45,4.76-1.67,6.72a18.8,18.8,0,0,1-2.22,6.15c-.92,1.95-1.76,3.94-2.63,5.91-2.29,1.37-5.3-1-7.37,1.4V1013c.67.74,1.29,1.43,2.06,2.3l-3.67,1.32c-.33,1.8-.67,3.63-1,5.41H2639l-2.09-1.94H2627c-.82.72-1.55,1.36-2.09,1.85h-5.12l-2.43-3.9h-6c-1.64-.49-2.49-3.71-5-1.4-.34,1.79-.67,3.62-1.08,5.79-1.82-1-3.62.44-5-1-.25-1-.49-1.86-.72-2.76-3-.55-5.28-3.85-8.7-2.41l-2,1.63H2581l-2.65-2-6.52,3.39v5.8l-2.13,2.66,2.27,4.07v3.41c3.69,2.41,4.57,7.27,7.9,10.4C2580.59,1046.17,2580,1048.16,2582,1048Zm0-72,4,0c0-1.64,0-2.81,0-3.62,1.8-1.06,3.83.41,6.09-1.32-.82-1.35.87-3.25-.86-4.82H2586V972l-4,0c0,1.64,0,2.81,0,3.91l-4,.31c.16,1.46.28,2.56.45,4.08l3.58-1Zm-42,90h-3c-1,3.13-4.32,5.63-2.42,9.66,2.43.46,4.92.78,7.32-.4,0-.81.07-1.46.11-2.16l-2-2.14a13.12,13.12,0,0,0-.56-4.73c1.55-.44,3.1-.3,1.74-2A6,6,0,0,0,2540,1066Zm-205,48h9.87c1.52-1.37,2.84-3.52,4.48-3.8,2.32-.41,3.17-2.11,4.83-3.37-.77-1.38.68-3.2-.87-4.56-2.63,0-4.77-1.38-7.11-2.09-3.45-1-3.63-4.06-5.25-6.16h-7.27l-2.51,4c-2.79-.3-3.51.82-3,3.61l4,3.15v6.26Zm183,59c.26,2.24-.69,4.59.66,6.69l2.38.41,4.82-4.91v-3.86l-2.76-3.39Zm95.06-161c.86-1.77,1.72-3.56,2.71-5.61l-1.39-.26-4.86,2.83,1.33,3ZM2486,1191.12c1.36,1.14,2.7,1.41,4-.18-.36-1.54.68-3.27-1.05-5l-3,.64ZM2590,957c1.35,1.42,2.69,1.46,4.11-.18l-.6-3-3.51.74Zm-65,159c-1.42,1.35-1.46,2.69.18,4.11l3-.6c-.29-1.39-.52-2.5-.74-3.51Zm65.72-141.71-.71.71a6.53,6.53,0,0,0,1.34.63c.17,0,.44-.41.66-.63Z" transform="translate(-263.71 -462)"/><path class="cls-1" d="M1636,1112c1.67.3,2-1.53,3.1-2h6c1.49,3.39,5.89.53,7.51,3.58l8.62.62,1.62,1.62h22.3l3.09,4.11h4.5c2.29,2.07,4.18,4.81,6.74,5.82,3,1.19,4.55,3.61,6.71,5.48s4.17,4.31,6.43,6.26c.86.74,2.27.85,3.36,1.23V1142c.1,2-2,2.44-2.81,3.91h-4.13l-1.66-1.49-3.63,2.34c.6,2.28-.7,4.15,1.17,5l3-2,4.18,2.5,3.18-2c1.45,2.08,0,3-.79,4.45s-.57,3.07-.79,4.62l-3.54,3.54c1,2.73,4,2.72,5.8,4.23v4l-5,5h-1.94l-2.15,2H1697l-2.17-2c-3,0-3.52-.2-6.63-2.25-2.91,0-6.19,0-9.48,0-.24,0-.47-.44-.73-.7v-2c3.92-2,3.92-2,8.12-8.68v-7l2-3.41c-.65-2.21-3.59-3.11-1.3-6l3,.34c.06,1.15.09,1.8.13,2.45,5.72,3.18,6.16,3.63,8.93,9.1,1.75-1.15.61-3,1.12-4.4a20.12,20.12,0,0,1,2.16-3.63c-1.13-2.93-4.72-3.59-4.28-6.88,0-.18-.83-.48-1-.55l-3.45,1.85-4.16-6.34H1686c.06-1.26.18-2.5.26-3.43,2.74-1.5,5.69.86,8-2l-5.68-1a8.65,8.65,0,0,0-3.68-5.68l-2.87.51c0,3.47,0,6.74,0,10,0,.53.63,1,1,1.56H1686c-.22,1.23.67,2.67-.66,3.71a8.56,8.56,0,0,0-6.32-1.66l-3.11,2.69c.57,3.12-.65,5-2.07,7.15v6.52l-2.16,4.11a31.94,31.94,0,0,1-6.49,7.3c-.2.18-.61.13-.92.18h-3.36c-2.55,4-8.32,4.46-10.86,9.56v3.4l2,2.11v5.9l-1.55,1.72c-.89,2.06.36,3.89-1.16,5.09l-3,.63v6.34c.87,1.43,1.5,2.49,2,3.31-2,3.94-5.35,6.94-3.92,11.33,3.42,2.27,5.53-1,8.39-1.42a10,10,0,0,1,2,1.83c.85,1.27,1.12,3.13,2.22,4,2.2,1.74-.22,4.69,2,6.17,2.77,1.35,3.46-3.31,6.15-2a9,9,0,0,1,1-2.58,14.18,14.18,0,0,1,3.41-3.29c4.6-2.78,4.64-2.72,6.77-7.27,3-1.4.7-5,2.92-6.9l2.66.57v10l-2.13,4.06,2.27,2.55c0,2.81.2,5.72.11,6.63-1.26,2.68-1.66,3.52-2,4.36h-4c-.06-1.2-.15-2.4-.28-4l-4.08.45c.43,1.57.73,2.64,1,3.58H1676c.39.67.68,1.65,1.29,1.92a7,7,0,0,0,2.67.08,1.53,1.53,0,0,0,1.41,2c2.19.16,4.39,0,6.59,0v5.63c-1.19.95-2.74,2.18-3.89,3.08v8.4l3.67,3.67v22.09c-1.21,3.13-5,2.22-6,5.54l4.19,4.81c.37,1.58-.55,2.49-1.55,3.39a.92.92,0,0,0-.26.52v10.11l1.85.76v3l2,2.12v3c-1.46,4.52-5.53,7.54-7,12-1.64,4.88-6.14,7.34-9,11.25v9.76l-5.61,2.87h-3c-1.32.54-1.65,2.33-3.31,2-.26-1.9.62-3.93-.92-6h-8.34c-.56-1.5-1-2.65-1.37-3.74l-5.12-.52v-5c1.44-1.1,3.39-1.18,4.92-2.61,1.29-1.2,2.71.89,3.65,1.55,1.85-1,3.92-1.43,5-2.73,1.79-2,4.75.42,5.84-1.54.37-1.46.59-2.36.89-3.54l2.38,2,2-1.85,2.26,2.09,2.56-.72c.13-2.51.65-4.78-.52-7.35-.73.56-1.36,1-2.3,1.75h-10.29l-1.37-3.61c-3.07.8-2.65,4.08-3,4.46l-5.7,3.28c-1.31-.29-3.09.76-4.57-.91.07-.77.16-1.67.24-2.47l3.59-1.26c.45-2.45-.46-4.8.63-6.81L1652,1315c-1.1-1.16-2.7-2.09-1.82-4.12,2-1.39,5-1.42,5.93-4.69-.27-.6-.63-1.43-.94-2.1-1.8-.4-3.58.65-5.12-1,.13-.73.27-1.62.48-2.5s2-.82.94-2.09c-4-2.41-6.94,3.62-10.85,1.17-.43-1.17-.84-2.32-1.3-3.59l-3.06.33v10.38c1.4,2.58,2.59,4.76,3.54,6.52v6.44l-5.6,3.22c-.21,1-.39,1.94-.71,3.51-1.67-1.46-2.85-3.6-5-1.89-.4,1.16-.81,2.31-1.2,3.45h-2.17c-3.24-.66-2.06-4.56-4.33-6l-2.13.16-1.29,3.6-2.53.14c-1.11-1.72-1-3.92-2.84-5-.33-2.22.8-4.6-.73-6.66-2.33-.35-4.63-.76-6.19,1.72h-4l-2.08-2h-3c-.56-.23-1.41-.3-1.63-.71a29.55,29.55,0,0,1-1.42-3.93c-.6,1.77-.76,3.08-1.43,4s-1.85,1.82-1.33,4c1.75,1.49,4,3.4,5.81,5V1328c-.55.22-1.51.35-1.59.68-.27,1.19.62,1.39,1.59,1.32,0,2.64,0,5.29,0,7.93a5.61,5.61,0,0,0,.61,1.7l1.38,1.48-4.15,1.94,4.35,2.14c-.35,1-.64,1.92-1.08,3.27L1592,1346h-6.33l-5.47,2.85-.65,2.91h-6.78c-2.84-1.85-2.68-5.91-5.85-7.77-3.12,0-6.44,0-9.75,0-.26,0-.51.36-.88.65,0,3.47,0,7,0,10.61,0,.24.44.47.5.53l3.65.74c-2.34,1.38-4,2.65-5.84,3.35a5.51,5.51,0,0,1-3.83-.22,60.44,60.44,0,0,1-6-3.46h-16c-2.16,2.42.64,3.44,1,5.24-2.5,1.23-5.18.17-7.74.53.23-1.27-.61-2.08-1.57-1.93-2.5.38-4.21-1.15-6.16-2.07H1510l-4-2.73v-5.36a52.15,52.15,0,0,0-2.52-5.35,16.24,16.24,0,0,0-2.62-2.68c-2.91.15-5.53.26-8.15.44-.26,0-.48.44-.71.67v9h-3.26c-.91,1.45-.67,3.74-2.53,4.79s-2,3.15-2.85,4.78c-.46.84-1.28,1.92-2.07,2-3.61.58-5.19,3.49-6.87,5.65-2.8,3.41,2.16,4.58,1.55,7.5l-4.49,5.15,2.52,3.29V1388l-.77,1.92c-.7-.59-1.56-1-1.94-1.69-1.47-2.64-2.79-5.36-4.21-8.15h-4.2c-1.55-3.14-5.24-3.83-7.84-6-4.45.74-7.28-2.91-11-4v-5.61l4.12-3.24v-4.27l5.82-5.82v-6.3c-2.67-.83-1.51-4.51-4-6v-5.13c-1.18-2.3-1.8-4.14-3-5.55-1-1.18-.62-2.46-1-3.59-1.53-4-2.52-8.68-7.94-9.3V1313l-7.67-3.87-1-3c-1.8-.51-3.56.55-5-.77l-1.09-3.26c-3.65-.64-4.26,3.07-6.69,3.9a41.51,41.51,0,0,0-5,0c-1.87.22-4-1-5.58,1v9h-2.94l-2.1,2h-2.07c-.6-1.32-1.21-2.69-1.8-4H1394c.45-.78.92-1.55,1.33-2.35.27-.52.45-1.1.67-1.65.32,0,.85.12.93,0,.72-1.29,1.29-2.66,2-3.93s2.45-1.74,2.59-2.54c-.72-1.84-1.16-2.94-1.57-4-.35-.94-.81-1.7-2-1.47a1.55,1.55,0,0,0-1.52-2c-1.34-.16-2.62-.16-2.48-2,2.55-.36,5.24.69,7.8-.56V1281l-1.8-2.41v-5.13l-4-7V1261l-3.71-3.71-5.83-3.31H1375l-8.51-8.52a3.52,3.52,0,0,1-.45-.81c0-1,.07-2,0-3-.13-1.62-2.52-2.2-2-4.17l-6-6.71V1223l-5-5c-1.54-.42-3.3.64-4.23-.24l2.76-3.89H1355l3-2.9v-2.11l4-1.92v-6c1.44-3.11,5.21-2.68,7-5h7c.33,0,.65,0,1.76.1a4.1,4.1,0,0,0,2.81,5.29c2.7.89,4.27,2.74,6.21,4.39.4.34,1.31,0,1.86.26s.86.84,1.28,1.29c.08.63.15,1.27.32,2.69,2.78-1.22,3.64,1.5,5.47,2.68a37.76,37.76,0,0,0,6.63,3.26c2.17.85,3.47-1.18,5.16-2,.8-.36,1.67-.59,2.52-.88,0-3.6,0-6.91,0-10.23,0-.24.44-.47.56-.59l5,2.36c-.38,2.68,3.25,4,2.43,7-.19.69.54,1.63.78,2.28h5.48l4.89-2.51c1.11-2,1.86-3.29,2.82-5V1201l2.87-2.87,4.53-.21,1.32-3.88H1453l2.18-2c.65,1.34,1.27,2.6,1.9,3.88,2-1.37,2.71-4.28,5.65-3.9,2.5,1.24,3.23,3.75,4.33,6h7v3l3,3c5.8,0,11.78,0,17.75,0,.26,0,.52.34.78.51L1497,1206c3.94,0,7.93,0,11.92,0,.25,0,.49.41.73.62.39,1.15.77,2.3,1.12,3.32h10.51a11.81,11.81,0,0,1,1.26-3.4c.83-1.07,1.8-1.92,1.39-3.54L1522,1201v-6.33l6-4c-.29-1.52.71-3.34-1.07-4.67l-1.93,4.14c-1-1.83-1.8-3.49-3-5.84,0-3.15,0-7.14,0-11.12,0-.25.38-.5.75-.94H1529l2.62,2,8-4.22h5.31l2.1-2h8c1.45,1.43,2.74,3.32,4.91,1v-9.93l.83.78c.75-1.5,1.51-3,2.19-4.35l5.72,2.85,7.27-7.76v-1.53a17.09,17.09,0,0,0,8.18-6.77v-7.55c3.52-1.72,7.28-2.68,9.83-5.75v-4l3-2.87h4.33l3.08,3.92h4.34l3,2.24,4.41-2.41,3.34,2.15c3.63-1.28,7-3,9.41-6h2.14l1.94,4c1.74-.36,3.53.68,4.83-.91,0-.66.08-1.31.12-2l-2-2.15Zm30,134.09-3.46-.31c-1.51-2.73.87-5.69-1.62-7.74-2.27,2.13,0,5.1-1.37,7.38l-1.35,1.35v10.62l3.53,1.23c.24,1.16.42,2.06.6,2.88a9.77,9.77,0,0,0,2,.48c2.28,0,4.57,0,6.51,0l2.55-2.14h5.45l3.1-2.73c0-2.88,0-5.53,0-8.16,0-.24-.43-.47-.66-.71l-4-1.18,2.51-4.3c-1.34-.84-1.83-2.82-4.79-2.77l-4.79,4.79c-.21,1-.39,2-.62,3.06a10.42,10.42,0,0,1-2.86-.24c-.39-.14-.49-1-.85-1,1-.93,2-1.48,2-2.06,0-1.46.71-3.15-.79-4.46C1665,1241.75,1666.39,1244.06,1666,1246.09Zm-223.79,42.14c.06.29-.83,2,.52,3.57h4.44c1.14-1.41,3.18-2.29,2.8-4.64-1.4-1.15-2-3.41-5.38-3.06C1444.21,1284.81,1443.41,1286.21,1442.24,1288.23Zm213-50.41c1.37-1.58.68-3.28.68-4.82s.69-3.24-.94-5.13c-1.4.87-3.42-.91-5,1.12v2l2,2.11c.35,1.52-.68,3.25.81,4.76Zm-62,95.89.71-.71a6.53,6.53,0,0,0-1.34-.63c-.17,0-.44.41-.66.63Z" transform="translate(-263.71 -462)"/><path class="cls-1" d="M3080,786h3l2.21,2.06h3.89l2.74,2.74.57,2.78,3.26.85c.17.78.35,1.7.57,2.78,2.44,1.77,4.69,1.25,6.73-1.15H3111c.59,1.24,1.24,2.61,1.88,4l2.33-2.18,2.66.73c-.55,1.66-3,2.23-.69,5.87.82,1,3.85-1.45,6.43.07l.56,2.69c1.82,1.79,4.26.4,7.08.89l2.82,2.62c-.21,1.31-.31,1.94-.41,2.59-1,1.31-2.47.42-3.59,1-.32-1.27-.18-2.82-1.93-1.46a17.45,17.45,0,0,0,1.93,1.46c.33,1.81,1.82,2.92,3.57,3.72,2.87,0,3.27-3.14,6.5-4h.85l1.78-1.78h8c.59-.59,1.07-1,1-1-.72-1.33-2.51-2.16-1.68-4.36,1-1.51,2.87-.53,5.08-.92l2.95,4.09H3181l2.38-2.23,5.44,2.5c.59-.59,1-.82,1-1.06,0-3.3,0-6.61,0-9.84l7.78-7.27h3.21c.75-.69,1.47-1.36,2.21-2.06h10.21c.36-1.08.76-2.23,1.15-3.39,2.46-2.44,3.29.84,4.6,1.29h4.46l.73-2.87c2.57-1.41,2.56-1.39,4,1.39L3224,791.3c-.38,2.55,1.93,3.24,3.07,4.67h10l3.92-3.92h6.21l.84-2H3255l2.17,2H3261l2.14,1.94c1.65.35,3.44-.68,4.74.87-1.17,2.49-3.75,3-5.85,4.24a3.27,3.27,0,0,1,0,1c-.19.57-.48,1.12-.73,1.68l-1.88.25c-3.62-3.2-3.62-3.2-7.69-4.42,2.09,4.17-2,6.37-1.71,10a4,4,0,0,1-.42,1.8c-.09.25-.47.4-.79.64h-3.82c-2.32,2.64-4.65,7.33-4.94,10-.24.57-.31,1.42-.73,1.65-1.35.73-2.82,1.23-5.31,2.26h-12.9L3219,822h-1.91l-2.16,2H3209l-2.92,2.92v4L3208,833v2.2l-3.46,1.18c-.59,3.44-3.35,5.32-5.64,7.61H3195c-.5.49-.89,1.14-1.46,1.4-2.23,1-4.51,2-6.94,3-3.35,3.67-7.49,6.83-9.87,11.7-1.58,3.22-5.32,4.53-8.52,5.73-1.72.65-2.56,1.89-3.84,2.8.51,3.73-3.19,3.35-4.92,4.7-2.13,1.65-5,2.35-7.43,3.43V883l-2.91,2.91h-7.53c-3.64,1.49-3.22,5.77-6.57,7.91l-6.22.35c-.74,1.39-2.87,1.79-2.77,3.83a1.7,1.7,0,0,0-2,2v3l2,2.18V919l1.45,1.44c1,1.85.32,3.85.52,5.86-2.79,3.7-2.19,9.06-6.14,12.77v20.07c-1.46,1.3-2.83.68-4.09.8-1,.09-2,0-2.85,0-.93,1.8-1.77,3.45-2.91,5.67v5.25c-3,1.69-5.95,3.36-9.82,3.55-.12,2.21-.23,4.44-.35,6.66-1.35,3-5,2.64-7.07,4.77-.63.66-2.53.1-3.83.1-1.45-2.22-4.4-3.11-4.95-6,1.9-.26,3.93.61,5.81-.75V967.69c-1.71-3.41-3-5.88-4.2-8.35l.85-.66-6.58-5.38v-4.86c-1.89-6.13-6-9.06-7.87-14.65V927c-2.31-1.12-1.47-4.26-3.51-5.53-2.34-1.46-2.44-4.36-4.1-6.33-.89-1.06-1.37-2.73-2.06-4.1s-.93-3-2.29-4c1.1-2.65-3.2-3.45-2.1-6.1-1.32-2.12-3.58-4.16-3.77-6.36-.46-5.65-4.44-9.53-6.18-14.46v-5l-2-2.13V865l-2-2.18V843.67L3043,838l-2.54.36c-.48,1.43-.88,2.59-1.24,3.67H3036v-3.11l2-1.73v-4.45c-1.23-1.14-2.66-2.44-4-3.67v-7l2.05-.84V808.44l4.76-1,5.41-5.46H3051c1-1,2.17-2.07,3.25-3.28,1.29-1.44,3.1-2.45,3.66-4.12.11-1.58.19-2.85.29-4.37l6.85-.39,2.38-2h11.81C3079.53,787.14,3079.77,786.57,3080,786Zm-.59,40.41c-2.77-1.38-4.79.35-7,1.5-.54.28-1.63-.5-2.23-.71-.89-2.43,1.29-3.09,1.75-4.24v-6.07l-5.56-2.87H3059l-2.78,2.78c.75,1.31,1.49,2.61,2.38,4.19l-6.68,4.37V837l-1.9,2.27a33.85,33.85,0,0,0,.08,5.17c.13.83,1.37,1.46,1.57,2.31A26.55,26.55,0,0,1,3052,851l-1.94,1.94v8c.51.57,1.16,1.3,1.91,2.12,0,1.2-.55,3.17.1,3.72,2.1,1.78,1.67,4.91,4,6.5V879l2.05,2.4v3.75l3.59,3.59c.27,1.65.1,3.48.87,4.72,1.64,2.68,2.5,6,5.48,7.56v4l1.89,2.19c.43,2.38-1,4.83.82,6.63l3.23.66V921l3.93,3.93v5.79c1.36,2.24,4.52,3.16,4.17,6.38,1.47,1.18,2.35,3.34,4.8,2.89l2.14-2c1.66,1.67,1,3.54.49,5.41l-1.47,1.48v8.62c.81.69,2,1.85,3.34,2.81s3.07,1.93,4.79,3c0,3.91,0,7.88,0,11.85,0,.23.44.47.72.75h6.27c.58-1.55,3.21-2,2.78-4.55-1.07-2.7-3.87-3-6-4.36V956.9l3-2.7,4.39-.52,2.83-3c-.36-1-.69-1.83-1-2.63h-3.47c-4.06-1.94-7.46-3.8-9.77-7.3v-2.32c-1.56-4.22-3.11-7-5.65-9.08a1.47,1.47,0,0,1-.32-.85,6.68,6.68,0,0,1,0-1c1.15-1.5,1.95-3.44,4.3-3.45.3.07.79,0,.88.22,1.22,2.49,2.38,5,3.58,7.56h6.46l3.86-3.86,3.16-6.17V916.6l3.71-1.3v-4.14L3118,909v-3.44l4.11-7.2V889c1.33-2,4.25-2.65,3.83-6.13a70.09,70.09,0,0,1-7.18-3.14c-2.92-1.65-2.65-5.89-6-7.79-1.87.66-4.23-.64-6.48.79-.17,1.5-.34,3.07-.5,4.55l-3.63,3.63c-.22,1.16.18,2.65-1.93,3.23-3.61-2.26-8.51-2.36-12-5.13-.36-1.15-.63-2-.92-3-1.52,0-3.45.55-4-.1-2-2.22-5.81-1.61-7.12-4.9-.12-2.06-.25-4.3-.33-5.8-1-1.42-1.52-2.18-1.74-2.51-.45-2.72,3.15-3.27,2-5.74a26.48,26.48,0,0,0,3.47-3.56,33.34,33.34,0,0,0,2.29-4.9v-5.68l-1.92-1.92,2.84-3c4.45.93,7-3,8.85-2.45l6.58-4.17c-.28-1.38-.41-2-.54-2.61-.24-.2-.49-.59-.74-.59-4.65,0-9.3,0-13.8,0l-2.21,1.93c-.33-.67-.63-1.21-.86-1.78S3079.61,827,3079.41,826.41ZM3115,816c4.95-5,4.95-5,4.2-5.82h-6.42c-1.81,2.38-5.58,1.91-6.48,5.1.24.24.47.68.71.69C3109.67,816,3112.34,816,3115,816Zm83.63,7.65,3.8-2.6c-.6-1.47-.93-2.3-1.31-3.21l-2.73.53C3198.06,820.47,3197.25,822.35,3198.63,823.65Z" transform="translate(-263.71 -462)"/><path class="cls-1" d="M3398,858h2v5.24l3.35,1.11,3.51,3.51,4.32.32L3413,870h5.84c2.18,2,4,4.63,6.55,5.86s4.83,3.11,7,2.54l7.78,7.06c-1.17,3.51,2.18,5.57,2.69,8.57H3446v2c-.25,1.22.61,2.65-.78,3.77l-4.3.46-2.23,1.69c-.62-1.52-1.08-2.65-1.55-3.78l-1,.57-.32,6.5c-1.64,1.4-3,2.82-.84,4.79h6.61c-.23,4,3.28,5.61,5.75,8.19l2.41-.87c.24-1.22.42-2.13.69-3.46l3.25.66c.33,1.49.54,2.38.91,4,1.8-1.4,4,.69,5.36-1.7,0-.34.14-.77,0-1-1.3-1.79-2.65-3.54-4-5.32.05-1.32.05-2.69,2-2.53h3.09l1.82,4H3466a5.49,5.49,0,0,1,3.77,3.16c.55,1.92-.47,3.72,1.32,4.84H3474l2,.82c0,4.14,0,8.4,0,12.67,0,1.28.24,3.36-.38,3.7-3,1.66-.37,5.16-2.66,7-.84.67-1,2.19-1.59,3.63l-4.47.29c-.88.88-2.05,3-3.64,3.41-2.48.59-3.79,2.25-5.47,3.68-1.43,1.21-3.82.79-4.79,2.79h-6c-1,1.9-2.16,3.74-3,5.72-1.29,3.12-3.45,4.89-6.52,6.44-3.84,1.92-7.73,3.78-11.51,5.84,0-6.51,0-6.52-2.41-11.34-.2-.39-1-.45-1.59-.66.24-1.6-1.33-2-2-3s-2.24-1.4-2-3c.09-2-2.81-2.79-2.07-5.07a4.54,4.54,0,0,1-2.07-4.07c-2-1-1.33-3.57-2.81-4.74-1.94-1.53-.42-3.72-.59-4l-5.2-5.93c-2-.49-3.62.39-5.12-.94-2.55-2.25-6.16-2.61-8.91-4.76a3.81,3.81,0,0,0-5.23.56v3h-9c-.94-.94-1.88-1.88-2.91-2.93v-5.7l-3-3.71-6.74,2.93c-.9,2.42-.19,5.07-.34,7.66-.14,2.3,0,4.62,0,5.5-1.12,2.7-1.62,4.17-2.35,5.52-.23.42-1.08.49-1.65.73h-3l-2.9-5.67v-9.07L3352,925v-3.84l-2.05-2.22V913l-2.06-2.26v-5.51l-3.09-1.57c-1.41-3.41-.91-5.19,1.07-6.56v-8.07l-1.9-2.13c0-1.17.54-3.16-.1-3.68-1.93-1.56-1.48-4.25-3.33-5.71a9,9,0,0,1-3-4.76c-.52-1.71-2.4-3-3.55-4.52a10.56,10.56,0,0,1-1-2.36h-4l-2.82-2.65c-.27-1.24-.47-2.14-.67-3h-4.67l-5.06,10.1v12.95l-6.22,2.83c-1.55-.56-2.37-2.09-3.59-3.1V873l-2.06-2.22v-5.33c-1.5-2.66-3.09-4.71-3.84-7s-3.34-4.21-2.1-7.13l-4-6.77V840a1.7,1.7,0,0,0-2-2V821l-1.38-1.32a6.63,6.63,0,0,1-.59-1.8c-.06-3,0-6,0-8.86l1.81-1.81c.1-1.92.23-4.16.36-6.57,1.13-.41,2.51-.56,3.39-1.3,1.08-.91,2-1.65,3.88-1.14.29,1.61.63,3.44,1,5.39a7.78,7.78,0,0,0,1.41-.43c2.77-1.5,1.79-5.69,5.26-7h3.67l3-2.79c.16-1.49.34-3.07.54-4.92l2.93-.56c.43,1.27.83,2.43,1.24,3.61,1.29.95,1.35-.78,3.27-1.22h3.82c.2.86.41,1.77.67,2.93l-3.56,1.2c-2.45,2.44.75,3.31,1.27,4.67v6.54l-5.36.81c-1.4,2.12,0,3.18,1.3,4.47v7.73l2.06,2.44v3.84l-2.37,3.15,2.54,3.28c.66,1.84-1.37,2.58-2.32,4.39l4.09,8v5.48l3.7,2.83,1.95-.22.62-2.51c-.77-.85-1.43-1.56-2-2.24.64-.74,1.63-1.4,1.84-2.24.31-1.25-.06-2.74,1.88-2.75,3.21,0,3.71-4.79,7.3-4.11,1.28-1.4.8-3.82,2.82-4.83s1.81-3.24,2.88-4.94h4.13c.72,1.37,1.57,3,2.41,4.55,1.49,2.9-.41,6.38,1.91,9.85.44-2.3.78-4.1,1.13-5.94,1.39-1.37,3.19,0,5.06-1.08l1.17-3.35h8.27c1.42-1.54,2.48-2.91,4.46-1.83,2.18,2.22-.28,3.32-1.33,4.72,1.45.94,2,2.87,3.84,3,2.08.07,2.58-1.93,3.92-2.77,1-1.54-1.09-3.93,1.41-5.05,1.85,2,0,4.5.07,4.56,1.22,3.27,3.05,3.59,3,5.15-1.27.32-2.82.18-1.46,1.93a16.29,16.29,0,0,0,1.46-1.93,24.85,24.85,0,0,0,3.31.11l5.29-6,2.58.23c.17.81.81,2,.46,2.53a41.31,41.31,0,0,0-4.25,8.2l4.57,2.08-4.24,1.91V852c-1.19.21-2.54-.53-3.79.79v4.42l2.61,2.61h6.47C3397.57,859.1,3397.79,858.55,3398,858Zm-85-24,3-3c0-3.8,0-7.77,0-11.75,0-.26-.33-.52-.62-.94l-2.34-2.14h-5.94c-2.25,1.4-4.42,2.26-5.87,3.8s-2.15,3.72-3,5.3v12c2.4,1.8,1.85,5.62,4.54,6.25l4.67-2c1.15-2.55,2.3-5.07,3.41-7.53Zm144.47,100h-12.54l-2.71,2.94v6.93l8.09,8.23c2.54.39,1-3.09,2.54-4l6.85-.36c.12-1.24.26-2.17.29-3.1,0-1.3,0-2.6,0-3.82C3457.16,939.43,3458.42,936.73,3457.47,934Zm-72.87-86.94c-2.32-1.55-4-.83-5.58-1.09-.26.26-.49.5-.73.73l-2.11,2.12c0,4,0,4,3.76,9.71.12-3.07,0-5.34.17-8.59Zm83.69,92.77c-.33-1.75-.51-2.64-.76-4l-3.74.7c.25,1.34.43,2.23.62,3.25Z" transform="translate(-263.71 -462)"/><path class="cls-1" d="M2560,1394v4.89l-2,2.15c0,1.8,0,3.72,0,5.63,0,.91.05,2.39-.43,2.64-3,1.51-.27,5.07-2.6,6.67-.22.15-.63,0-.95,0a7.17,7.17,0,0,0-.08-2.67c-.27-.61-1.25-.9-1.92-1.33v-22.9l2-2.18c0-2.63,0-5.28,0-7.94,0-.24.44-.47,1-1h5.72l2.93-2.19h5.61L2573,1372h4l3-3c0-2.45,0-5.09,0-7.72,0-.26-.32-.52-.48-.78l-1.41-1.41c-.42-2.21.47-4.55-.62-6.64L2576,1351v-4l-1.76-1.88c-.32-1.24-.56-2.14-.77-2.94l-2.74-.28-3.16-3.94H2560c.25-1.22-.6-2.64.64-3.66l3.24-1.06c.82-2.37-1.07-3.15-1.86-4.41V1321c.95-1,2.2-1.72,2.74-2.84a19.49,19.49,0,0,1,4.93-6.83c-.27-3.4,3.64-4.27,4.27-7.1.11-.52-.31-1.16-.49-1.74l-3.42-1.17v-4.14l-4.05-3.74V1288c4.28,0,8.56,0,12.84,0,.25,0,.5-.36.75-.56.14-.6.27-1.2.54-2.35l-5.89-5.1-1.38-.1c-1.44-2.67-2.06-6.16-6.16-6.16-2.12-2.41-6.08-2.31-7.31-5.62l-3.94,2.27-2.51-2.35H2548v-3l2-2.12c.34-2.27-.81-4.65.74-6.69h8.5l6.57,6.58c.2.9.4,1.81.61,2.78l5.31.87.69,3.34h4.36c3.49-1.93,3.35-5.61,5.68-8.22-4.45-3.62-5.77-9-8.45-13.2v-3.28l-2-2.15v-23l1.83-.73v-8.12c-2.43-3.45-3.41-7.82-7.83-9.15v-6c.23-.57.36-1.54.72-1.63a24.6,24.6,0,0,1,3.75-.46c4.9,4.54,4.89,4.54,7.55,10.7a5.55,5.55,0,0,0,1.12,1.32h4.23c1.41-4,6.73-3.31,8.49-7.12l-3.73-1.79,1.44-1.85-2.14-4.11c2.6-2.42,5.61-4.31,7.27-7,1.87-3,3.76-5.86,6.55-8,1-.19,2.53.33,2.38-1.6l-5.63-1.06V1170l5.79-2.78c.21-1,.41-1.87.55-2.48,1.31-1.82,3.48-2.56,3.68-5l-2.11-3.75,3.1-5.94h2.27a12.56,12.56,0,0,1,.75-2.57,26,26,0,0,1,1.92-2.77c.29-2.45-.6-4.72,1.06-6.65l3.75,3.75h6.47c2.71-3-2-3.89-.82-7.43l3.46-2.39h5.21a72.75,72.75,0,0,0,4.17-8.33c1.2-2.81,3.66-5.31,2.89-8.75L2643,1112h2c2.16-2.7,2.2-6.57,4.94-8.94,0-3.17,2-4.37,4.71-5.12,1.15-.32,2.06-1.45,3.21-1.89s2.62.48,2.87.23L2663,1094h3v5.64l-5.53,4.76-1.13,3.49-2.85.15-5.09,6h-4.48c-1.89,2-.55,4.41-1.05,7.31l-3.74,2.85c-.3,4.38-.2,4.44-3.54,10.08-.78,1.33-.34,2.49-.59,3.71-2.06.29-2.93,2-4,3.38-.11,1.82.46,3.66-1.37,5.18-.69.56-.45,2.26-.63,3.44-.56.23-1.56.37-1.62.7a16.19,16.19,0,0,0,.65,9.3h3c.43.67.72,1.65,1.33,1.92a7,7,0,0,0,2.67.08v18l-2,.82c0,1.51,0,3.13,0,4.75a13.47,13.47,0,0,0,.43,2.07l3.22.67c.83,3.24,0,6.88.51,10.8l7.37,6.8,1.37.1c.82,1.57,1.66,3.19,2.89,5.53v5.65l-1.56,1.56v8.5l1.7,1.7v6L2650,1237v13a1.7,1.7,0,0,0-1.92,2.42A4.94,4.94,0,0,0,2652,1256l1.67.69c1.89,3.77-2.92,6.39-1.43,10.7l-6.16,4.9c-.13,1.58-.18,2.22-.24,2.87-2.35,2.35-4.78,4.63-7,7.07s-6.07,2.44-7.45,5.7h-5.18l-14,6.87c-2,2-4.6,4.52-7.13,7.16-2.21,2.29-5.07,4.12-5.63,7.88l-4.05.23a2.27,2.27,0,0,0-.67.23,5.14,5.14,0,0,0-.71.69c-2.35,2.35-5,4.48-7,7.12s-6,1.4-7,4.87v4l6,5.87v8.28c.92.37,1.48.63,2.06.8a3.57,3.57,0,0,0,1,0c.34.55.94,1.08.95,1.61.06,9.64,0,19.29,0,28.81l-7.89,7.49a10.2,10.2,0,0,1-1.73.08c-2.31-.09-3.49,2.46-6.17,2.21-1.86-.17-4.26,1.18-5.77,2.56-1.79,1.62-3.66,1-5.53,1.31-1.4,2.15-4.36,3-4.91,5.93-2.16,1.22-2.16,1.22-1.11,3.78Zm53.13-124c1.42-1.85,3.28-2.52,2.87-4.58-1.14-1.49-1.95-3.39-4.3-3.44l-3.86,2.15-3.41-2.09c-.23,1.16-.41,2.07-.61,3.06l-9.71,4.88h-3c-1-2.29-2-4.53-4.48-6.06.29,3.81-3.68,5-4.79,7.8,1,2.16,2,4.08,2.93,6.06h8.54c.47-1.35.88-2.5,1.25-3.57l4.7-.51,3.7-3.7ZM2582,1235v6.57l4,3.2V1251l2,2.17c.09,3,.09,3,1.84,4.57V1243.6l6.25-4.74c-.51-2.58,1-5-1.19-6.88H2591c-1.16-1.1-2.08-2.68-4.1-1.86Zm7-27c-2.64,0-5.28,0-7.92,0-.24,0-.47.42-.88.8v5.51l4.9,9.6c1.65-1.46.61-3.23,1.22-6l7.85-6.68c-.41-2.14.59-3.93-1.09-5.2h-2Zm-5.25,80.71-.71-.71a6.53,6.53,0,0,0-.63,1.34c0,.17.41.44.63.66Z" transform="translate(-263.71 -462)"/><path class="cls-1" d="M3848,1294c-.23.57-.31,1.4-.73,1.65a29.84,29.84,0,0,1-3.37,1.47c-.28.13-.48.46-.81.79h-7.76l-6.85-3.91H3824c-.26-2-2-2.88-3.32-4H3816c-1.66.29-2-1.84-3.17-1.91a6.49,6.49,0,0,1-3.41-1.52c-1-.64-2.45-.52-4.77-.92-.91-.91-3-2.26-4-4.17s-1.7-4.11-3.68-5.47h-3.92A15.6,15.6,0,0,0,3784,1267v-6c-1.65-1.66-3.29-3.3-5-5h-4.12l-2.78,3v3.34c-1.32,2.8-3.89,3.44-6.11,4.58v2c-2.1,2.42-5.11,0-7.4,1.41l-1.51,1.51h-14.38l-3.1-3.9h-7l-3.66,5.64-4.29,2c-1.33-1.4-.27-3.16-.71-4.75-1.57-1.68-1.88.61-3.14,1h-6.52l-4.56-5.72c-2.54-.52-4.34.51-5.66-1.15.64-.69,1.27-1.39,1.91-2.09l-5-2.57c-1.7,1.9-5.26,1.56-6.84,4.59v3.76l-2.77,3-4.6.52c-.93,2-1.93,3.93-2.71,5.93a6.74,6.74,0,0,1-3.9,3.89c-3.13,1.41-6.32,2.72-8.78,5.43-1.2,1.32-1.2,2.89-1.83,4.68-1-.85-1.58-1.7-2.33-1.88-1.24-.32-2.64,0-3.87-.35-.85-.25-1.52-1.16-2.39-1.88h-5.78l-2.19-2h-5a10.78,10.78,0,0,0-6-6v-2c.21-1.19-.51-2.52.82-3.84l2.42,1.84H3652l3.34,1.87c1.2-1.69.47-3.86.66-5.87v-5.19l3.63-1.23c.14-.74.32-1.64.57-2.9l3.16-1a6.68,6.68,0,0,0,.61-1.7c.09-1.31,0-2.63,0-3.94a7,7,0,0,0,2.67-.08c.61-.27.9-1.25,1.33-1.92l11.74-5.78h8.87c2,1.35,4.89,1.83,6.81,4.14a55.43,55.43,0,0,0,4.29,4.35l5.77,3.29H3716a1.55,1.55,0,0,0,2-1.52c.15-1.34-.08-2.62-2-2.48v-5.25l3.51-1.18c1.11-.94.19-2.65.51-4.11.22-1,.8-1.69,2-1.46a1.7,1.7,0,0,0,2-2v-3c1.76-2.22,5.07-3.34,4.14-7h4.05l3.82-3.13c0-1.93-.34-2.8-2.12-3-1.11-.13-2.11-1.22-3.32-2h-5.67c-1.47-1.81-1.08-3.63-.22-5.81h8.21l1.92-1.92h6.45l.74,1.81v3.75l-3.94,2.83,4.77,5.36h5.5l5.61-2.87c-.12-2.24.64-4.55-.5-6.65-2.35-1.39-5.35,1-7.44-1.43v-3h10c.43.67.72,1.65,1.33,1.92a7,7,0,0,0,2.67.08l5.5,2.68c.15.45.53,1.59.94,2.79,2.1,1.07,4.41.25,6.56.57l2.14,2H3783l2.13,2h3.6c2.46-1.28,3.92-4.49,6.8-6,1.31,0,2.64.09,2.49,2-1.38,0-2.05.62-1.72,1.89-1.27.32-2.82.18-1.46,1.93a17.45,17.45,0,0,0,1.46-1.93,4.3,4.3,0,0,0,2.39,0c.61-.27.9-1.25,1.33-1.92,2.72-.22,1.5,2.34,2.65,3.68l2.51.52a6.64,6.64,0,0,1,.81,1.52,3.3,3.3,0,0,1,0,2,29.12,29.12,0,0,1-3.33,6.56c-1,1.29-.36,2.52-.63,3.75-1.21.24-2.61-.58-4,1,.15.79.35,1.91.55,3h4l3.46,2v3l2.18,2.39a21.72,21.72,0,0,1-2.93.63,35.59,35.59,0,0,1-4,0c-.93,0-1.87-.19-2.85-.29-.07-2.06,3.63-3.56.54-5.64a20.19,20.19,0,0,0-2.77,2.86,6.85,6.85,0,0,0-.5,2.58l-3.67,1.25V1258c-.55.22-1.51.35-1.59.68-.27,1.19.62,1.39,1.59,1.32a7.17,7.17,0,0,0,.08,2.67c.27.61,1.25.9,1.92,1.33-.23,1.23.55,1.66,1.53,2s2.23.92,4.88,2h6.79c1,1.61,2.69,2.12,2.91,4.08.12,1.08,1.21,2.14,2.07,3,1.3,1.32,3.57.9,4.78,2.73a33.66,33.66,0,0,0,3.91,4.26c2.18-.67,3.11.87,4.15,1.88h9v2c0,1.17,0,2.34,0,3.18l6,2.82C3843.79,1294,3843.79,1294,3848,1294Z" transform="translate(-263.71 -462)"/><path class="cls-1" d="M1388,958a7.17,7.17,0,0,0,2.67-.08c.61-.27.9-1.25,1.33-1.92h2.53l3.47-2h10.9l2.12-2h3.91c.7.65,1.4,1.32,2.11,2h3c.23,1.22-.52,1.78-1.52,2-2.13.44-4.55-1-6.78,1.31.73,1.48,1.51,3.1,2.3,4.71v6l4.1,2.86V981.1l1.51,1.51c.35,1.82.69,3.64,1,5.39H1424v3l1.91,2.07-4.89,5h-6l-2.18,2H1409l-2.09,1.86h-9.65l-2.1-4.09h-12.36c-1.32-1.33-2.39-2.72-4.29-1.36a8.33,8.33,0,0,1-3.11,5.25c-3.25.84-6.25-.39-8.93.65L1365,1004h-6l-2.17,2H1333l-2.24,2.05H1327l-2.1,1.82h-6.06c-1.7-2.2-4.52-2.3-6.39-4.23-2.07-2.14-2.58-5-4.47-7.16,0-3,0-6,0-9,0-.53-.63-1-1-1.55h-5c.23-.57.47-1.14.85-2.06h6.21l8.17-8.17L1320,972c2,0,2.47-2,3.81-2.81-.32-1.67,1.51-3.77-1-5q-1.45,1.42-2.85,2.76v5h-8a1.7,1.7,0,0,0-2-2v-5.37c-2.68-.45-2-2.7-2-4.63v-5.07l3-2.75h8.25c1,1.48,2.94,2,2.73,4.41l-1.73,2.58c1.24,3.12,5.15,2.36,6.92,4.79.22.31,1.24,0,1.84,0l2.84-2.84c.32-2.27.63-4.54-1.73-6,1.12-2.64-3.19-3.39-2.11-6,.66-.71,1.33-1.41,2-2.12v-3h6.9c1.55,2.67,5.87,1.37,7,4.79l.32,6.45c.5.38.75.73,1,.74,4.27,0,8.55,0,12.82,0a1.7,1.7,0,0,0,2-2h9.23l5.28,6H1378c.36,2.07,2,3.06,3.72,4.11L1388,961Z" transform="translate(-263.71 -462)"/><path class="cls-1" d="M3896,1308c-3.17-.72-5.31,1.7-7.68,2.94a10,10,0,0,1-4.53,1.06l-5.24-2.69c0-.09-.29-.65-.55-1.2l-2.85-5.93L3869,1296h-15.58l-3.43-2c-.23-2.74,2.36-1.47,3.88-2.88.06-1.07.14-2.64.23-4.23l3.55-3.55c.94-1.92-.67-4.76,2.43-6.22v-8.21l1.84-1.84v-14L3860,1251v-1.92l2-2.16V1239l2.06-2.26v-9.85l3.76-3.76v-7.08l2.89-5.77c1.26-.86,2.89,0,4.31-.3,1,1.85,1.83,3.49,3,5.67v7.57l3.87,1.31.23,4.54.71.71c.23.23.58.43.69.71.83,2.32,0,5.22,2.5,7v9.14c1.2,2.41,4.6,3.57,4.33,7,2.33,0,3.51-3.71,6.18-1.57,1.78,1.33,3.5,2.76,5.35,4a22.4,22.4,0,0,0,4.16,2,5.68,5.68,0,0,0,2,0v10.92l2,2.11v9.53l2,3.44v4h-4.48c-4.95,2.44-5.54,8.1-9.51,11v3.92l-2,2.13Z" transform="translate(-263.71 -462)"/><path class="cls-1" d="M1046,898c-1.68.24-2.2-1.29-3.09-2.14-4.24-4-4.22-4-11.55-5.89-.57-.15-1-.74-1.52-1.14a9.26,9.26,0,0,1-.78-.77h-5.95c-1.38,2.3-4.58,1.76-6.36,3.84-.56.65-2.52.1-3.68.1l-2.14,1.91h-12l-1.71-1.71h-4.82c-2.42-1.09-4.54-1.46-5.69-2.7-1.68-1.82-3.52-1.41-5.57-1.5l-4.21-4H973l-2.17-2h-5.08c-1.92-1-4.11-1.67-5.69-3-2.06-1.8-5.47.27-6.88-2.74-2.57.75-3.51-3-6.8-2l-5.28-6.54c-3.91,1.36-6.68-1.46-9.64-1.44-3.15,0-4.72-4.49-7.8-2-.86-.67-1.41-1-1.86-1.46-2.13-2.1-3.94-4.75-6.44-6.19s-4.94-2.49-7.42-3.72c-5.82-2.9-6.88-4.11-10.5-10.41A8.18,8.18,0,0,0,896,841v-4.11l4-1.88-1.84-1.84v-10l-2-2V816c-2.6-3.94-3.62-8.72-8.65-10-1-.26-1.81-.74-1.58-2v-5c-2.34-1.79-2.51-4.92-4.66-7.08-1.86-1.87-2.92-4.75-5.05-6.71s-4.24-4.15-6.29-6.18V776c1.21.25,2.71-.67,3.63.67,1.15,1.67,2.78,1.33,4.37,1.33v3c1.28.62,3,1,3.88,2a16.72,16.72,0,0,0,6.11,4.05c.11,0,0,.61,0,.93-.55.22-1.51.35-1.59.68-.27,1.19.62,1.39,1.59,1.32.55.22,1.13.4,1.65.67.8.41,1.57.88,2.35,1.33v9c1.51,1.45,2.82.77,4,1a1.7,1.7,0,0,0,2,2c.43.67.72,1.65,1.33,1.92A7.17,7.17,0,0,0,902,806a39.69,39.69,0,0,0,0,4.63,1.54,1.54,0,0,0,2,1.37v2.93c1.12.91,1.73,2.46,3.4,2.71.72-4.07.72-4.07,2.6-5.76v11c1.78,1.09,1.81,3.15,2.65,4.73,1.14.78,3.54-.28,3.35,2.36h-5c-1.45,1.51-.77,2.82-1,4l-5.14-2.43c-.57,1.64-.73,3-1.45,3.91-.86,1.07-1.75,1.95-1.33,3.58,2.95.5,4.76,2.82,6.86,4.88h4l2.46-2.3c.24,1.42.43,2.56.47,2.78-.77,2.5-3.73.4-3.45,3.24l4.8.57c1.11,1.21,2.19,2.55,4.11,1.42.43-1.15.87-2.3,1.3-3.47l3.55,2c1.81-.68,2.13-2.51,3.8-2.21h4v6a18.86,18.86,0,0,1-2.35-1.39c-1.21-1-2.28-.93-3.73.38.21.92.47,2,.7,3H934c.06,1.25.17,2.48.27,3.56l3.8,1c-.91,3,1.33,4.31,4.15,5.71l3.46-2.45h6.42c-.2-1.52-.36-2.64-.51-3.78-1.78,0-3.73.54-4.28-.1-1.75-2.06-4.95-1.52-6.36-3.9H934c0-.67,0-1.33,0-2l3.37-2H941l2.15,2c4.11.53,6.89-2.28,9.66-3.43a25.45,25.45,0,0,0,3.82,1.39c1.22.23,2.63-.27,3.39,1.23,0,.62.06,1.27,0,1.21l7.13,7.89c.51-1.46.91-2.61,1.44-4.17,3,.4,5.06-3.58,8.61-1.79l2.23,1.83h5.79L986,858c0,2.85-.08,5.71,0,8.56a1.52,1.52,0,0,0,2,1.44v3c-1.08,1.81-3.62.7-4.9,2.71-.87,1.38-3.78-.9-5.24,2,4,.69,7.89,0,11.51.46.51,1.48.91,2.63,1.29,3.7l2.14.15c2.19-1.93,2.19-1.93,2.86-1.34.32,1.8.64,3.61,1,5.34H1002v1.85l2.71,4.23,4.08-.18,3.21-2.79V878h8.43l7.39,4c2.09-.88,3.82-1.52,5.45-2.36.42-.22.5-1.08.73-1.65h8.56l3.44-2c0,.33-.14.79,0,1,4.31,4.4,8.66,8.77,12.89,13H1064v2.67l-2.77,3.33H1054a7.17,7.17,0,0,1-2.67-.08c-.61-.27-.9-1.25-1.61-1.81,1.27-.32,2.82-.18,1.46-1.93a17.45,17.45,0,0,0-1.46,1.93,34.82,34.82,0,0,0-3.7-.09C1046,895.66,1046,896.83,1046,898ZM905.85,828a12.7,12.7,0,0,0,2.18,0,16.69,16.69,0,0,0,1.65-.66A6.64,6.64,0,0,0,909,826c-.62-.69-1.33-1.3-2.42-2.34Z" transform="translate(-263.71 -462)"/><path class="cls-1" d="M2694,1328v-3l1.38-1.32a6.36,6.36,0,0,0,.59-1.79c.07-2.3,0-4.62,0-6.87l-1.83-1.83c-.09-1.84-.2-4.07-.3-6.3l-1.74-1.74V1297c-2.52-1.38-2.08-3.47-2.14-5.88,2.22-2.18,4.81-4.57,6.25-8v-6.47c2.62-1.63,5.66.76,7.69-1.6,1.83-2.12,5.41.26,6.81-2.77,2.61.08,4.74-1.26,7.08-2.08s3.32-3.87,5.24-4c2.27-.1,3-2.47,5.13-2.25,1.16.12,1.72-.6,1.81-1.73.31-3.68,3.88-3.66,6-5.28v-5h10c0,2.66,0,5.33,0,8a5.68,5.68,0,0,0,.67,1.71c2.68-.11,3.92,1.86,5.19,3.48v10c-1.19,1.34-3.3.41-4.32,2.12-.35.59-1.67.6-2.37.82l-2.51-2.27-2.58.79c.87,2.32,3.8,2.88,3.92,6.35a2.38,2.38,0,0,1-3.54.52l-1.28-3.65c-1.34,1.62-3.57,2.35-3.19,5l2.11,2.41c-.82,1.85.75,4.21-.74,6.36l-3.39,1.15V1298h-2.95l-2.11-2c-2.49,3.08-5.88,4.64-9.43,6-.71.27-1.19,1.14-2,2l4.67,5.4c-.7,1.63-2.24,3.47-2,5,.51,2.74-2.66,3.73-2.2,6,.38,1.61,2.74,2.16,2,4.2l-6,3.95a18.47,18.47,0,0,0,0,2.3c0,.26.39.48.7.84a39.57,39.57,0,0,1,4.56.63c.34.08.48,1.06.71,1.62-.41,2.44-2.93,3.27-4,5.21-.33,1.51.7,3.26-.79,4.58l-4.84.53c-.19,1-.37,1.85-.57,2.87-1.87,1.47-3.14,3.91-5.15,4.81h-3.5c-1.08-2.2-2-4.56-4.25-6l-1.83,4H2690v-3c.67-.71,1.34-1.41,2-2.12V1337l2-2.11Z" transform="translate(-263.71 -462)"/><path class="cls-1" d="M1110,924h-12.92l-2.16-2H1091l-2.16-2c-3.87.54-6.46-2.12-11.2-3.8h-9.76c-2.43-1.44-4.59-2.65-6.67-4s-3-4.52-6.35-4.2c-2.05-2.81-5.51-4.5-6.89-8h6a1.7,1.7,0,0,0,2,2c1.69,5.4,8,5.75,10.82,9.83h8.45L1076,910v-4.93l1.93-2.09-2-2.29,2.8-.84,2.29,2.07c6.45.17,6.45.14,6.86-1.52l-5.43-.78c-.2-1.54.62-1.68,1.6-1.62,2.64,0,5.29,0,7.93,0a5.52,5.52,0,0,0,1.7-.61l1.44-1.36c7.6,0,15.2,0,22.8,0a5.91,5.91,0,0,0,1.74-.57l-.11-.23L1122,894c.23.56.35,1.53.71,1.63,3.58,1,6.45,3.47,10,4.48,1.35.38,2.35,2,3.1,2.72v5.74l-2.11,3.6,2.26,3.25c0,2.21.25,4.23-1.75,5.37v6.78l5.68.91v4.7l4.07,3.34V945l-3,2.84a20.06,20.06,0,0,0-2.68.16,16.61,16.61,0,0,0-2.53.87c2.6,2.06,2.28,5.73,5.22,7.1h3c-.1,2,2,2.4,2.71,3.79,2.9.18,5.76.31,8.61.6.28,0,.45,1.05.68,1.61.24,1.59-1.51,1.91-1.91,3-.26.74.13,1.73.26,2.85l4.71.25,2,1.9h2.9c.22.55.4,1.13.67,1.65.41.8.88,1.57,1.33,2.35h-8c-.23-.57-.31-1.42-.73-1.65-1.34-.72-2.8-1.21-5.32-2.25h-4.66l-2.31-2.05h-4c-.64-1.34-1.28-2.7-1.91-4h-4c-.35-.52-1-1-1-1.54-.09-4.31,0-8.62,0-13.18-2-2.16-3.69-4.84-7.2-5.7-1.12-.27-2.39-1.8-2.92-3.63-.83-2.82-3.12-4.73-5.85-5.94a3.24,3.24,0,0,0-1.15,0c-2-2.79-5.5-4.48-6.88-8,1,0,2,0,2.94,0,.25,0,.71-.47.67-.61-.12-.48-.37-1.24-.68-1.3A16.81,16.81,0,0,0,1110,924Z" transform="translate(-263.71 -462)"/><path class="cls-1" d="M1094,826h3l2.13-2H1103l2.45-2.29,4.43,2.08H1121c1.78,2.62.79,5.29,1,7.8s0,5.17,0,7.37c-1.36,1.65-2.78.8-4,1-.22-.55-.35-1.51-.68-1.59-1.19-.27-1.39.62-1.32,1.59l-1.79.73q-.27,6.27-.55,12.61c-3.51,1.4.44,6.28-3.58,7.17v6.1l-2.32,3.11L1110,874v2h-4a1.7,1.7,0,0,0-2-2c-.35-2.55.67-5.22-.57-7.82h-4.61c-2.53,2.53-4.85,4.9-7.24,7.19-.41.39-1.14.43-2,.73-.84-.57-1.81-1.24-3.15-2.14-.3,2-.57,3.84-.83,5.59l-2.18.49c-3.19-1.86-5-5.52-9-6.82-2.72-.89-3-4.6-4.42-7a16.15,16.15,0,0,1-1-2.35h-5c-2.52-1-4-1.53-5.32-2.25-.42-.23-.5-1.08-.73-1.65h5c1.13-2.25,4.19-1.5,5.47-3.45s3.76-2.16,5.54-3.49v-4.33l4-3.32V834c2,0,2.91-2.08,5.08-2.3,1.94-.2,3.71-2.11,5.53-3.32,1.64-1.1,4,.64,5.37-1.4C1094.13,826.75,1094,826.33,1094,826Z" transform="translate(-263.71 -462)"/><path class="cls-1" d="M1262,844h-31.85c.9-3.25,3.22-3.85,5.64-4.66v-4.55c-.27-.27-.5-.7-.74-.71-3.28,0-6.56,0-10,0L1223,836h-3.58l-3.4-2c-.23-1.26.54-1.79,1.58-2,1.5-.28,3.32.66,4.56-1.39-.23-3.22-3.49-4.35-5.15-6.63h-7l-3.46-2h-3l-7-4h-14.92l-3.63-2.69c.09-2.13.12-3.38,2-3.36.62,0,1.25-.57,2-.93-1.37-1.6-2.77-.78-4-1v-2.53l2-3.47h20.16l11.55,5.87h6.86c1.34,1,2,1.89,2.89,2.08,5.91,1.33,5.89,1.33,10.78,7.24.35.43,1.1.53,1.64.81,3,1.62,6.51,2.53,8.62,5.51,1.87,1.27,4.82-.69,6.13,2.12l6.66.65c1.33,1.06.46,2.49.71,3.72l-1.82,3.18,2.63,2.63,4.08.39,3.11,2.71V844Z" transform="translate(-263.71 -462)"/><path class="cls-1" d="M1284,984h-7c-2.32-1.84,0-4.43-.52-7l-3.91-3c-5.23,1.05-8.62,5.67-14.71,7.9h-8.75c-1.88-.88-2.63-3.56-5.13-3.92,2-4.15,6.1-6.51,8.72-9.8l3.14-.61V956.93c3-2.18,4.67-5.6,8.14-6.93h7.24c.35-1,.72-2.2,1.1-3.34a5.5,5.5,0,0,1,1.7-.63c3.62-.06,7.24,0,10.88,0l2.12-2h3a1.53,1.53,0,0,0,1.42,2c1.86.17,3.75,0,5,0l3.55,2c0,6.39,0,6.39,2,10-2,3.61-2,3.61-2,8v2c-1.88-.25-3.9.59-5.77-.71-.18-2.83-.31-5.72-.61-8.59,0-.29-1.06-.47-1.62-.7.15-1.89-1.14-2-2.93-2L1286,959.8V964c-.21,1.85.49,3.79-.53,5.55l-3.3,1.08v8.65l1.83.72Zm-.15-32.45a8.48,8.48,0,0,0-.23-1.25c-2.72-.29-5.19-.83-7.52.46,0,.77-.07,1.41-.13,2.48,1.7.34,1.91,3.13,5.44,2.61C1281.79,955.2,1282.58,953.79,1283.85,951.55Z" transform="translate(-263.71 -462)"/><path class="cls-1" d="M1714,1222l-1.21-2.22c-2.28,1-4.57,1.38-6.08,2.69a23.84,23.84,0,0,1-6.89,4.69c-2.21.87-1.17,3.54-2.72,4.75l-1.92.09c-1.91,1.1-2.74,3.59-5.18,4v-5l2-2.15v-3.15c1.14-2.27,2-3.92,2.8-5.56s1.69-3.27,3.09-6v-9.1c1.64-1.82,3.4-.78,4.92-1.12,1.94,1.11,2.72,3.73,5.55,4.07,4.18-2,5.82-7.68,11.46-8.58.09-1.48.18-3,.28-4.63,2.49-1.39,1.71-3.91,2.06-6L1725,1186h6.19c.37-1.06.76-2.2,1.15-3.37,1-1.25,2.45-.39,3.67-.64v5l-8.13,4c.17.92.35,1.81.54,2.82l3.06-1.61c1.11,2.66.23,5.27.53,7.79v3.13c-3.19,2.3-5,6.35-9.46,7.51-1.17.3-2.22,1.87-2.71,3.66s-2.33,2.89-3.49,4.39C1715.52,1219.76,1716.63,1222.19,1714,1222Z" transform="translate(-263.71 -462)"/><path class="cls-1" d="M1204,1138v-3.14l-4.41-4L1202,1126c2,.1,2.42-2,3.81-2.73v-8.87l-3-.58c-2.19-3.54-3.06-8.09-6.85-10.69v-4.52l4-3.34V1084l2-3.5v-7.27l5.43-3.23H1212v15c1.42,1.59,2.8.8,4,1l-2,3.44V1098c0,2.62,0,5.23,0,7.85a6.23,6.23,0,0,0,.54,1.72L1216,1109l-2,2.1V1114c-1.19.22-2.54-.53-4,1v9l-1.92.77,1.79,2.23v9.32c-1.21,2.42-2,4-3,6a26.33,26.33,0,0,0-1.27-3.58C1205.4,1138.3,1204.56,1138.22,1204,1138Z" transform="translate(-263.71 -462)"/><path class="cls-1" d="M3620,1186c-.1-2,2-2.43,2.9-4.11h12.4c.53-1.46.94-2.6,1.29-3.59,2.21-1,3.18.46,4.57,1.87h24.18c.51,1.42.91,2.57,1.36,3.82l3.21-.33-1.61-3c1-1.29,2.48-.43,3.7-.68v3.1c2.35,1.47,4.88.92,7.29.61l1.47-1.47h8.59c1,1.49.89,2.62-.24,3.66-.73.67-1.6,2.11-2.09,2-2.39-.64-3.11,2.46-5.18,2.1s-3.56.86-5.2,2a12.32,12.32,0,0,1-5.12,2,13.19,13.19,0,0,0-4.33,1.67c-1.78.85-3.72.9-3.32,3.56-1.71,1.38-2.6,4-5.34,2.81-.42,1.61-.65,2.51-.89,3.44-2.1,1.38-4.49.06-5.56.44l-5.88,3-4.95,5h-4.63c-.43-1-.43-1,2.41-3.76h2.21a13.2,13.2,0,0,1,1.23-3.37,32,32,0,0,1,3.5-3.59v-3.74c2.33-3.43,5.61-5.42,9.94-7.28H3659c.5-3.07,2.86-4.86,5.12-7.17-2.84-1.55-5.8-.51-8.56-.86l-3.57,2.28-3.11-2-2,1.7h-5.83l-2.18,2H3628c-.2-1.18.49-2.49-.52-3.53l-.64-.24-2,1.77Z" transform="translate(-263.71 -462)"/><path class="cls-1" d="M976,804h2c.21.54.33,1.49.65,1.57a32.64,32.64,0,0,0,3.71.53l4.78,2.37a28.88,28.88,0,0,1,1.28-3.81c.2-.39,1-.45,1.58-.66v8.88l2,2.13v4.14l4,3.47v8.28c1,1.15,2.24,2.06,2.11,4-.06,1,2.15,1.45,1.89,3.08H990c-4.11-1.58-5.8-6.08-9.33-7.92-1.72-.45-3.57.84-4.51-1.16l1.74-2.08c-1.48-.94-2-2.93-4-2.85-1.62-.87-1.86,3-3.83,1.09v-6L972,817v-3.79l-2.13-2.75c.57-2.65,2.5-3.56,3.76-5C974.22,804.73,974.74,803.68,976,804Z" transform="translate(-263.71 -462)"/><path class="cls-1" d="M3120,966c1.66.3,2-1.51,3.11-2h4.08l8.81,9.28c-.46,3.24,3.34,3.73,4.05,6.29a30.56,30.56,0,0,0,1.93,4.16,2.52,2.52,0,0,1,0,1v2.49l4,3.22V1003c-1.39,1.37-2.87,2.7-4.19,4.19-1.13,1.28-3.2.31-4.16,2-.81,1.46-2.43.46-3.65.72v-7.21l4-3.44v-6.28l-5.43-3h-7.81c-.79,1.48-2.86,1.88-2.76,3.88l-1.83-.72V980.86l1.83-2V974c.54-.21,1.45-.3,1.56-.64.56-1.73,1-3.53-.34-5.16l-2.46,1.58C3119.51,968.49,3120.2,967.18,3120,966Z" transform="translate(-263.71 -462)"/><path class="cls-1" d="M3583,974l-5.63,5.64-3.39,1.13V983c-1.86,2.18-4.89,3.5-4.22,7h-2.71a10.44,10.44,0,0,1-1-1.49c-1.36-2.93,1.54-4.69,2.16-7.09.43-1.68,3.2-2.76,3.61-4.42a7,7,0,0,1,2.32-4.05c1.44-1.19,2.25-3.45,4.75-2.93l9.17-9.62v-1.64c3.26-1.33,3.57-5,5.57-7.48.68-.85.38-2.49.59-4.35.73-2.3,3.73-2.36,6-4v-8.65h7.06c1.4,1.4.52,3.14.69,4.7a41.84,41.84,0,0,1,0,4.22c-1.14.89-2.31,2.56-3.66,2.71-2.42.27-1.93,1.92-2.6,3.24s-2.42,2.23-1.29,4.49l3,.69c.15.76.38,1.88.55,2.74-1.79,1.66-3.54.61-5.08,1l-5.63,5.63-2.73.71c-.63,1.76-.92,3.9-2.81,4.75-2.23,1-1,3.74-2.78,4.86Z" transform="translate(-263.71 -462)"/><path class="cls-1" d="M3554,1182h3l2.09-2h4l1.44,1.44a8.23,8.23,0,0,0,1.77.5c1.63.07,3.27,0,4.75,0l3.83-3.83h6.75c.21,1,.39,1.93.61,3,.07.07.3.51.54.51,2.89,0,5.78,0,8.54,0l1.94-1.94,3.08,4.21H3600v4h-6.93l-2.14,2h-13.85l-2.14,2h-10l-1.2-1.33a6.87,6.87,0,0,0-1.84-.64c-2.64-.07-5.28,0-7.92,0Z" transform="translate(-263.71 -462)"/><path class="cls-1" d="M3750,564l3.49-2H3757l2.76-2.76c.21-1,.39-1.9.63-3l4.47-.27,4.23-3.84c2.54-.4,3.13,1.55,4.5,2.51.29,1.74.58,3.55,1,6.33l4.77-7c.74-.48,2.74.21,4.64.1s4,0,5.94,0v3c-1.42,2.36-4.16,2.81-6.17,4.28a45.32,45.32,0,0,0-4.9,4.8h-4l-3.76,3.76h-20.41C3749.39,567.92,3750.26,565.89,3750,564Z" transform="translate(-263.71 -462)"/><path class="cls-1" d="M3608,886c3.51,1.38,5.19,4.83,8,6.87V901l-2,2.12v4.2l3.67,1.25c.1.79.21,1.69.35,2.76l-3.62,1.26c.1,1.74,1.77,2.3,2.62,3.46h5v6h-4.75c-1.53-2.67-4.41-1.58-6.59-2.42-.37-.14-.45-1-.66-1.58v-7.24l-3.64-1.2c-.15-.76-.33-1.66-.54-2.74l-3.68-3.68v-8l-1.93-1.93V884.5l2.57-.63L3605,886Z" transform="translate(-263.71 -462)"/><path class="cls-1" d="M3484,840h2a1.55,1.55,0,0,0,1.52,2c1.34.15,2.62-.08,2.48-2h3.08l2.82,3.12c0,.8.09,2,.14,3.28-1,1.65-2,3.24-4,3.6l-.74-1.81h-4.52c-1,1.5-3,2-2.74,4.13.35,1.74,2.07,2.4,3,3.68h3c-1.31,4.53-5.86,5.41-9.26,8h-7.65L3471,862h-1.93l-2.9-5.67v-5.18c2-4.39,7.71-4.93,10.75-9.17h6.29C3483.54,841.13,3483.77,840.56,3484,840Zm-11,12c-1.42,1.35-1.45,2.68-.16,3.82l2.75.55,1.27,4,1.86-2.16,3-.66c.13-.9.23-1.51.43-2.82l-3.57-2.75Z" transform="translate(-263.71 -462)"/><path class="cls-1" d="M1736,1182c-.27-2.19-2.36-3-3.57-4.6-.88-1.73-.3-3.71-.41-5.62-.09-1.63,0-3.26,0-4.78.58-.58,1.43-1,1.45-1.52.2-4.09,3.41-7.53,2.51-11.89-1.16-2.1-2.92-4.13-1.65-6.9l1.69-.69h3l2.89,2.94v5.78c.69.76,1.33,1.49,2,2.3v5.63c.53,1.36,2.35,1.69,2,3.35-.32,0-.86-.12-.94,0q-1.59,2.73-3,5.54c-.13.25,0,.64,0,1.17l1.69,2.06a13.8,13.8,0,0,0-1.64,2.9c-.41,1.43.61,3.24-1.19,4.31Z" transform="translate(-263.71 -462)"/><path class="cls-1" d="M1176,762h6.91l2.08,2c3.48,1.11,6-1.43,8.58-2.79A9.07,9.07,0,0,1,1198,760v5l-2,2.08v3.29c1.18,2.3,2,3.93,2.78,5.43,1.34-.13,1.52-2.16,3.18-1.76v5l-2.92,2.91H1191c-1.28-2.53-2.64-5.24-4-7.94h-4.19c-1.13-2.5-2.28-5-3.43-7.57l-3.38-1.15Z" transform="translate(-263.71 -462)"/><path class="cls-1" d="M2764,1246c-.56.22-1.49.33-1.61.69-.93,2.87-2.92,5.41-2.79,8.64,0,.2-1,.45-1.6.67-.56-.22-1.52-.35-1.6-.69a41.78,41.78,0,0,1-.61-4.3l-2.72-3H2750c-.24-1.21.59-2.62-.53-3.56s-3.67.21-3.47-2.44a1.7,1.7,0,0,0,2-2v-2c.55-.22,1.51-.35,1.59-.68.27-1.19-.62-1.39-1.59-1.32v-5.23l3.59-1.15c.16-.73.35-1.62.67-3.08l3.23-.71c.27,1.3.46,2.19.72,3.45l3.12,1c1.35,1.37.32,3.09.79,5.12l3.88,3.32Z" transform="translate(-263.71 -462)"/><path class="cls-1" d="M1314,862c-1.09,3.15-4.24,4.58-6,7.23v2.3l-3,.46c-1.56-1.42-.79-2.79-1-4,.55-2.89,3.51-3.79,4.94-6a15.24,15.24,0,0,0,.76-1.38,13.16,13.16,0,0,1-3.42-1.5c-1.09-.92-2.06-1.5-3.67-.89l-1.25,3.44a42.06,42.06,0,0,0-4.64.65c-.35.08-.48,1.06-.72,1.63l-3.46,2H1289l-2.09-2H1282v-4c3.53,0,7.07,0,10.6,0,.45,0,.88-.67,1.3-1l-1.9-2.05V850h4.94l2.14,2H1306c.23.57.31,1.45.72,1.65,2.38,1.13,4.84,2.11,7.32,3.16l-2.06,2.46C1312,860.78,1312,862.16,1314,862Z" transform="translate(-263.71 -462)"/><path class="cls-1" d="M3934,1328h-3.12c-2.05-2.8-5.5-4.49-6.88-8a7.17,7.17,0,0,0-.08-2.67c-.27-.61-1.25-.9-1.92-1.33v-4h4c1.35.67,2.65,1.69,4.07,1.9s2.15,1.38,3,2.24a9.07,9.07,0,0,0,4,2.13c2,.63,3.6,2.28,5.49,3.27s3.86,1.67,6,2.56l2.24-1.76c.09,0,.48-.08.53,0,.85,1.61.94,3.64,2.68,4.74v4.9h-2c-.22-.55-.35-1.51-.68-1.59-1.19-.27-1.39.62-1.32,1.59h-3c-1.84-1.25-2.59-3.75-5.3-4.09-1.44-.17-2.73-1.4-4.18-1.85a8.24,8.24,0,0,0-2.79.11Z" transform="translate(-263.71 -462)"/><path class="cls-1" d="M1016,858a4.52,4.52,0,0,0,3.76,3.89c2,.29,2.58,1.87,4.06,2.82v4.5c-1.57,1.44-3.29.48-4.64.73a77.51,77.51,0,0,0-6.76-5.87c-1.72-1.2-3.91-1.74-5.91-2.58-.65-2.51-1.61-4.79-4.51-5.49v-6.92a5,5,0,0,0,2-5.08v-2c.33,0,.86-.13,1,0,2.33,3.64,3.26,8.14,6.93,11,.53.41.33,1.75.43,2.38C1013.72,856.46,1016.21,855.32,1016,858Z" transform="translate(-263.71 -462)"/><path class="cls-1" d="M3604,1190v3l4.95,4.86,2.23.15c.89,2,1.87,4.23,2.79,6.45.09.2-.18.56-.21.62-.36.41-.57.86-.79.87-2.64,0-5.27,0-8.44,0-1-1.23-2.25-2.74-3.33-4h-5.53l-5.56-2.84c0-.64-.07-1.29-.13-2.24l3.5-2.87h5.46c1.67-1.35.81-2.78,1.06-4Z" transform="translate(-263.71 -462)"/><path class="cls-1" d="M1402,484h5l2.19,2.05H1413l2.31,2.05h5.81c1.61,1.44.56,3.21.9,4.75-.48.39-.94,1.08-1.43,1.1-3,.1-6,.05-9.25.05l-2.59-2h-8.29c-.25-1.2-.43-2.11-.64-3.11-2.84-1.68-5.89-3.19-9.36-3.12-.56-2-1-3.56,1.56-3.73a5,5,0,0,1,5.07,2Z" transform="translate(-263.71 -462)"/><path class="cls-1" d="M3426,858l-5.81-2.8c-.06-.64-.13-1.28-.22-2.18,3.37-1.06,5.84-3.46,8.09-6.25V843c1.34-1.66,3.13-.64,5.18-1.06.3-.85.68-2,1.15-3.31,1.16-1.29,2.93-.24,4.54-.6l2.11-2h3v2.91c-4.15,1.29-6.52,4.8-9.6,7.68-.9,1.35-.27,3-.37,4.54s0,3.25,0,4.87c-1.59,0-3.22-.34-4.37,1.33C3428.71,858.67,3427.21,857.75,3426,858Z" transform="translate(-263.71 -462)"/><path class="cls-1" d="M3272,942v-3l2-2.12V927c2-1,1.73-3.24,2.74-4.79.82-1.28,1.41-2.7,2.17-4.2l2.85.31v6.91l-1.55,1.55v8.42l1.59,1.59v4.73l-3,.67-1.75,3.8H3274c-.22-.55-.4-1.13-.67-1.65C3272.92,943.55,3272.45,942.78,3272,942Z" transform="translate(-263.71 -462)"/><path class="cls-1" d="M1632,1112c-.56.22-1.52.35-1.6.69a49,49,0,0,0-.68,4.91,15.42,15.42,0,0,1-7.55,0v-8.44l-1.65-1.64a7.6,7.6,0,0,1-.5-1.74c0-2.59,0-5.19,0-7.79h5c2.73,2.35,3.72,5.65,5.19,8.78C1631,1108.51,1632.35,1109.89,1632,1112Z" transform="translate(-263.71 -462)"/><path class="cls-1" d="M2678,1082h-4.88a2.14,2.14,0,0,1-.79-3.23c1.51-2,3.83-3.27,4.15-6.15.08-.76,1.18-1.74,2-2a11.44,11.44,0,0,0,5.43-3.47c1.47-1.74,3.19-3.25,4.9-5h4.35c1.41,1.21.59,2.61.83,3.82a1.7,1.7,0,0,0-2,2,1.7,1.7,0,0,0-2,2,7,7,0,0,0-2.67.08c-.61.27-.9,1.25-1.33,1.92-.55.22-1.51.35-1.59.68-.27,1.19.62,1.39,1.59,1.32-.16,2.29-2.24,3.12-3.56,4.44S2680.29,1081.84,2678,1082Z" transform="translate(-263.71 -462)"/><path class="cls-1" d="M1638,1360a7.17,7.17,0,0,0-.08-2.67c-.27-.61-1.25-.9-1.92-1.33.33-1.62-1.5-1.93-2-3.63,2.23-.59,4.51-.3,6.74-.37,1.4.64,2.1,2.74,4.21,2l2.11-2h13v4.87c-.47.38-.93,1.07-1.4,1.08-4.54.08-9.09,0-13.57,0l-2.11,2Z" transform="translate(-263.71 -462)"/><path class="cls-1" d="M3956,1352a1.7,1.7,0,0,1,2-2h2c3.61-2,3.61-2,8-2h2c.32,2.51,3,3.16,4,5.49V1360h-6.92l-2.1-2h-1.91a11.64,11.64,0,0,0-4.14-6Z" transform="translate(-263.71 -462)"/><path class="cls-1" d="M3868,520c.23,1.2-.56,2.58.64,3.65,2.21.09.88-1.74,2-3l4.51-2.26a6.52,6.52,0,0,0,1.55,1.23c1.77.82,2,.67,3.29-1.66l5.42,2.63,3,6.18-3.59,2.85c-1.56-.09-.4-1.85-.94-2.67a22.67,22.67,0,0,0-2.83-2.91h-7.83c-1.28,2-2.62,4-3.84,5.91H3867c-.22-.21-.67-.43-.67-.65-.06-2.88-.09-5.77,0-8.64C3866.39,520.44,3867.44,520.23,3868,520Z" transform="translate(-263.71 -462)"/><path class="cls-1" d="M1152,814l3.79,2c2.35-.3,3.17-2.27,4.58-3.46,1.2-1,3-.33,4.14-1.89.51-.71,2.29-.5,3.49-.7v3.25l-3.38,1.11c-1.2,1.76-.38,3.76-.62,5.64h-3l-2.5-2.33-8.22,4.15h-5.92c-.17-1-.33-1.94-.48-2.83,1.5-.77,2.91-1.41,4.25-2.18S1150,813.93,1152,814Z" transform="translate(-263.71 -462)"/><path class="cls-1" d="M1232,786v4.93l2,2.13V797c-1.59,1.8-3.51.93-5.36.65-1.29-1.4-.3-3.13-1-6.13l-5.09-5.08,1.22-1.22c.14-1.45.3-3,.45-4.45,1.14-1.37,2.55-.53,3.77-.77.31,2,2.42,3.23,2.48,5.41C1230.49,785.62,1231.47,785.8,1232,786Z" transform="translate(-263.71 -462)"/><path class="cls-1" d="M3736,1180v-2.79l-2.18-2.84c.83-2.87,3-4,4.51-5.65.36-.41,1.1-.49,1.67-.72a39.69,39.69,0,0,0,4.63,0,1.54,1.54,0,0,0,1.37-2c.56.22,1.45.31,1.6.69a11.62,11.62,0,0,1,.33,2.87l-3.2.64c-1.43.92-.49,2.7-.87,5l-6,4.83Z" transform="translate(-263.71 -462)"/><path class="cls-1" d="M3624,924c.18-1.21-.47-2.55.63-3.72A5,5,0,0,1,3628,924c1.46,2.74,2.33,5.85,5.74,8.57.44.94,3.11-2.32,4.05.89-1.51.52-1.86,2.75-4.38,2.51l-2.61-1.77c-.93,1.94-1.87,3.87-2.8,5.8h-2V924.79Z" transform="translate(-263.71 -462)"/><path class="cls-1" d="M1306,852v-3.18a21,21,0,0,1-3.29-1.2c-.41-.21-.48-1.06-.71-1.62.23-.56.38-1.56.69-1.61,1.88-.29,3.8-.37,5.8-.53a19.3,19.3,0,0,1,4-1.77c.88-.19,1.73.69,1.5,1.91v8Z" transform="translate(-263.71 -462)"/><path class="cls-1" d="M282,834h-3.17a29.48,29.48,0,0,0-1.17-3.29,11.26,11.26,0,0,0-1.53-1.93c2.34-1.54,4.68-.21,6.66-.95l2.27,2.17H289c1.24,1.62,3.88,2.58,2.73,5.5-2.59,1.09-5.2.2-7.72.5A1.7,1.7,0,0,0,282,834Z" transform="translate(-263.71 -462)"/><path class="cls-1" d="M3344,982h3.39l.91,3.5,3,.8c.21.65.57,1.73,1.05,3.15l3.08,1c1,1.75.32,3.68.52,5.53h-2a4.91,4.91,0,0,0-4-4c-.57-.23-1.42-.31-1.64-.73a27.09,27.09,0,0,1-1.41-3.92c-.65,1.84-1,3-1.53,4.37l-2.85.25c-.26-1-.49-1.9-.7-2.74L3344,987Z" transform="translate(-263.71 -462)"/><path class="cls-1" d="M3612,808a39.69,39.69,0,0,0,.05,4.63A1.54,1.54,0,0,0,3614,814v5.73c-2.27-.35-2.88-1.89-4-2.81v-2.19l-3.4-1.11c-1.37-1.35,0-3.11-1.18-5.29l-1.41-1.22V804h2.9C3608.73,805.17,3609.56,807.61,3612,808Z" transform="translate(-263.71 -462)"/><path class="cls-1" d="M3672,1180v-3l3-2.85h3.66l2.17-1.86h4.61c.24.84.41,1.43.57,2-.32,1.77-2.06,2.4-3,3.71h-5.93l-2.13,2Z" transform="translate(-263.71 -462)"/><path class="cls-1" d="M1166,820c.22-.55.33-1.49.68-1.59a29,29,0,0,1,3.93-.56c2,1.86,4.38,3.34,5.39,6.15-.23.56-.44,1.61-.7,1.62-2.87.12-5.76.07-8.64.07C1165.41,823.9,1166.25,821.88,1166,820Z" transform="translate(-263.71 -462)"/><path class="cls-1" d="M3358,998c3.51,1.38,5.2,4.84,8,6.88V1008c-2.2,0-4.4.11-6.59,0a1.53,1.53,0,0,1-1.41-2v-8Z" transform="translate(-263.71 -462)"/><path class="cls-1" d="M2270,1034a7,7,0,0,1,2.67.08c.61.27.9,1.25,1.33,1.92-.33,0-.89-.12-1,0-1.25,2.44-2.45,4.91-3.84,7.72-1.15.85-2.79-.08-4.21.28-1.22-1.2-1.59-2.64-.4-3.47,1.58-1.11,1-3,1.79-4C2267.7,1035.52,2270.21,1036.69,2270,1034Z" transform="translate(-263.71 -462)"/><path class="cls-1" d="M1230,760v2c-.22.55-.44,1.11-.77,2-4,0-8.14,0-12.27,0-.22,0-.45-.43-1-1,2.89-.81,4.75-3.58,8.06-2.94h6Z" transform="translate(-263.71 -462)"/><path class="cls-1" d="M3914,1300h4a1.53,1.53,0,0,1,1.95,1.41c.16,2.19.05,4.39.05,6.59-1.84-.2-3.76.47-6-.77Z" transform="translate(-263.71 -462)"/><path class="cls-1" d="M1326,862v-3c.51-.35,1-1,1.54-1,3.26-.1,6.53,0,9.4,0,1.67,1.35.81,2.78,1.06,4Z" transform="translate(-263.71 -462)"/><path class="cls-1" d="M264.79,822h3.41l3.87,3.1c-.17,1-.28,1.61-.39,2.26-1.32,1.48-3.1,0-4,.55l-4-3.18Z" transform="translate(-263.71 -462)"/><path class="cls-1" d="M3288,982v5.77h-5.2c-.8-1.64-1.65-3.41-2.5-5.16,1.92-1.09,3.85-.41,5.7-.61Z" transform="translate(-263.71 -462)"/><path class="cls-1" d="M2638,1148v-8h3c2.46,2.23.13,4.92,1.11,6.86C2640.64,1148.61,2639.22,1147.75,2638,1148Z" transform="translate(-263.71 -462)"/><path class="cls-1" d="M3608,1150h2v2.94l2,2.1c0,.67.21,1.79,0,1.9-2,.93-1.42,3.73-3.16,4.94-.43-.59-.76-.84-.77-1.09C3608,1157.19,3608,1153.6,3608,1150Z" transform="translate(-263.71 -462)"/><path class="cls-1" d="M3694,1181l2.87-2.87h4.47l2.07,3.08C3698.56,1182.31,3698.55,1182.37,3694,1181Z" transform="translate(-263.71 -462)"/><path class="cls-1" d="M3718,1176h4c-.23,1.86.53,3.84-.6,5.64-1.67-.26-2.28-1.8-3.4-2.71Z" transform="translate(-263.71 -462)"/><path class="cls-1" d="M3834,1284c.2-1.18-.48-2.49,1-4h5v2l-3.47,2Z" transform="translate(-263.71 -462)"/><path class="cls-1" d="M1316,862a1.7,1.7,0,0,1,2-2c.78.45,1.55.92,2.35,1.33.52.27,1.1.45,1.65.67,0,2.67-2,1.89-3.49,2S1315.85,863.9,1316,862Z" transform="translate(-263.71 -462)"/><path class="cls-1" d="M3878,514c.12,1.69-1,2.2-2.29,1.93a2.58,2.58,0,0,1-1.64-1.64c-.27-1.31.24-2.41,1.93-2.29A1.7,1.7,0,0,1,3878,514Z" transform="translate(-263.71 -462)"/><path class="cls-1" d="M1338,862h4v3.43l-2.93.59C1337.4,864.63,1338.24,863.22,1338,862Z" transform="translate(-263.71 -462)"/><path class="cls-1" d="M1390,860c0,2-2,2.46-2.9,4l-2.69-.24c.07-2,1.78-2.53,2.6-3.71Z" transform="translate(-263.71 -462)"/><path class="cls-1" d="M2695.71,1228.17h3.88c.19,1,.37,1.91.62,3.25l-3.74.7C2696.22,1230.81,2696,1229.92,2695.71,1228.17Z" transform="translate(-263.71 -462)"/><path class="cls-1" d="M2243.83,1077.71v3.88l-3.25.62c-.24-1.24-.44-2.36-.7-3.74Z" transform="translate(-263.71 -462)"/><path class="cls-1" d="M2552,1424a39.69,39.69,0,0,1,.05-4.63A1.54,1.54,0,0,1,2554,1418a37.61,37.61,0,0,1-.05,4.63A1.54,1.54,0,0,1,2552,1424Z" transform="translate(-263.71 -462)"/><path class="cls-1" d="M3552,1184a7.17,7.17,0,0,1-.08,2.67c-.27.61-1.25.9-1.92,1.33h-2A4.91,4.91,0,0,1,3552,1184Z" transform="translate(-263.71 -462)"/><path class="cls-1" d="M1449.62,922.28a12.61,12.61,0,0,1,.31,2.65c0,.27-.79.57-1.26.71-.15,0-.64-.42-.63-.64,0-.89.2-1.78.31-2.67Z" transform="translate(-263.71 -462)"/><path class="cls-1" d="M1178,824c-.14-1.88,1.14-2.11,2.48-2a1.55,1.55,0,0,1,1.52,2Z" transform="translate(-263.71 -462)"/><path class="cls-1" d="M3734,1182a1.7,1.7,0,0,1,2-2A1.7,1.7,0,0,1,3734,1182Z" transform="translate(-263.71 -462)"/><path class="cls-1" d="M3734.56,1181.77l-1.74,2C3731.46,1182.07,3733,1182.21,3734.56,1181.77Z" transform="translate(-263.71 -462)"/><path class="cls-1" d="M3120,974c-.07-1,.13-1.86,1.32-1.59.33.08.46,1,.68,1.59Z" transform="translate(-263.71 -462)"/><path class="cls-1" d="M3116,970v2c-1,.07-1.86-.13-1.59-1.32C3114.49,970.35,3115.45,970.22,3116,970Z" transform="translate(-263.71 -462)"/><path class="cls-1" d="M3924,1308h-2c-.07-1,.13-1.86,1.32-1.59C3923.65,1306.49,3923.78,1307.45,3924,1308Z" transform="translate(-263.71 -462)"/><path class="cls-1" d="M3286,464c-2.2,0-4.4.11-6.59-.05A1.53,1.53,0,0,1,3278,462h16c-.23,1.24.53,1.79,1.54,2,1.51.28,3.28-.61,4.46,1.07V468h-8.9C3289.27,466.83,3288.44,464.39,3286,464Z" transform="translate(-263.71 -462)"/><path class="cls-1" d="M1556.44,1150.05l-1.92-2.34-7.6,4c-.85-.47-1.94-1.05-3-1.67s-2.13-1.31-3.12-1.92h-5.88l-1.71,1.71h-9.34a18.5,18.5,0,0,1-5.75,1.78c-.07-1.51-.14-3.08-.21-4.66l-3.72-3.72v-8.46c2.25-1.4,4.61-.45,6.83-.75l3.8-3.8,2.14,1.63h4.35l1.32-3.66c2.41.86.94,2.78,1.37,4.12.06.31,0,.72.21.91,2.25,2.29,4.53,4.56,6.79,6.82l1.82-1.82h12.45c1.64,3.53,3.19,6.88,4.71,10.25.09.21-.18.58-.44,1.34Z" transform="translate(-263.71 -462)"/><path class="cls-1" d="M1444,1026a7.17,7.17,0,0,1,2.67.08c.61.27.9,1.25,1.33,1.92v3.25l3.72,1.25c.64,3.4.07,7,.33,10.5.69.75,1.34,1.47,1.87,2.06V1049c-1.23,2.39-3.55,2.79-5.58,3.66-.24.9-.47,1.8-.7,2.71-1.43,1.25-3.13.35-4.91.62-.38-1.13-.78-2.28-1.31-3.82l-6.55-.3c-.29-.54-.82-1.08-.83-1.63-.08-3,0-6,0-9-1.3-2.41-3.68-3.32-6-4.31v-2c1.14-1.73,3.85-.55,4.86-2.78.86-1.89,3-2.16,5.1-2.93v-6.44l2-.84v2c.43.67.72,1.65,1.33,1.92A7.17,7.17,0,0,0,1444,1026Z" transform="translate(-263.71 -462)"/><path class="cls-1" d="M1344,1211.52c.08,1.91-.47,4,2,5.36l-5.54,2.92H1328.8c-.88-.88-2.06-3-3.68-3.44a9.31,9.31,0,0,1-4.95-3.3v-6.5l5.88-4.36h10.73a7.2,7.2,0,0,1,3.34,3.93C1340.7,1207.87,1342.31,1209.26,1344,1211.52Z" transform="translate(-263.71 -462)"/><path class="cls-1" d="M1344,1270c-.94-1.94-1.53-4.17-2.89-5.73-1.6-1.83-1-3.6-.91-5.74l2.89-.75a23.3,23.3,0,0,0,1.27,3.49c.22.42,1.07.5,1.64.73.33,0,.89-.11,1,0,.53,1.1.72,2.45,1.48,3.33,1.73,2,3.71,3.77,5.56,5.6v3a1.54,1.54,0,0,1-1.37,2,39.69,39.69,0,0,1-4.63,0C1348.32,1272.9,1347.16,1270.78,1344,1270Z" transform="translate(-263.71 -462)"/><path class="cls-1" d="M1523.83,1102v5.6a27.64,27.64,0,0,1-2.81.38c-1.3.07-2.62.06-3.92,0-.92,0-1.82-.22-2.57-.31-1.65-3.27,1.34-4,2.53-5.68Z" transform="translate(-263.71 -462)"/><path class="cls-1" d="M1473.93,1198c.09-1.2.18-2.4.26-3.45,2.14-.66,3.91-1.08,6,.58l-4.69,2.87Z" transform="translate(-263.71 -462)"/><path class="cls-1" d="M1556,1150c-.31,2.63.66,5.44-1,8.56-1.54-3-1-5.48-.77-7.88Z" transform="translate(-263.71 -462)"/><path class="cls-1" d="M3054,676a7.17,7.17,0,0,1-2.67-.08c-.61-.27-.9-1.25-1.33-1.92.55-.22,1.51-.35,1.59-.67.27-1.2-.62-1.4-1.59-1.33h-2.86c-2.68-4.94-2.68-4.94-6.65-6.5-.94-1.75-.3-3.67-.49-5.5h4.23l9.77,5.11V668a1.7,1.7,0,0,0,2,2v3l7,7h5c2,.31,3.23,2.42,5.41,2.48.21,0,.39,1,.59,1.52h-6.91l-1.44-1.34A5.46,5.46,0,0,0,3064,682c-2.3-.07-4.6,0-6.88,0-1.41-.84-1.06-2.21-1.09-3.47S3055.93,675.85,3054,676Z" transform="translate(-263.71 -462)"/><path class="cls-1" d="M3238,772v2.89c1.2,2.09,3.87,2.94,4.18,6,.2,1.91,3.44,2.65,3.82,5.1a10.65,10.65,0,0,0-2.4,3.4c-.25.2-.49.57-.75.57-2.64,0-5.28,0-7.74,0a15.34,15.34,0,0,0-2.4-2,11.2,11.2,0,0,0-2.58-.64c-.06-.94-.09-1.58-.13-2.23,1.31-2.61,4.56.16,6-2.24L3232,781C3234.24,774.75,3234.24,774.75,3238,772Z" transform="translate(-263.71 -462)"/><path class="cls-1" d="M3301,788c1.86,1.57.88,3.49.76,5.3L3299,796l-1.12-1.7Z" transform="translate(-263.71 -462)"/><path class="cls-1" d="M3410,856h-6c0-2.67,2.05-1.89,3.49-2S3410.15,854.1,3410,856Z" transform="translate(-263.71 -462)"/><path class="cls-1" d="M3367.71,829.29l-.71.71a6.53,6.53,0,0,1-.63-1.34c0-.17.41-.44.63-.66Z" transform="translate(-263.71 -462)"/><path class="cls-1" d="M3415.71,851.29l-.71.71a6.53,6.53,0,0,1-.63-1.34c0-.17.41-.44.63-.66Z" transform="translate(-263.71 -462)"/><path class="cls-1" d="M1592,1352h4.71c1.63-1,3-3.59,5.07-1.16L1600,1354a7.53,7.53,0,0,0-1.65.68c-2.36,1.71-2.34,1.71-4.7,0a7.53,7.53,0,0,0-1.65-.68Z" transform="translate(-263.71 -462)"/><path class="cls-1" d="M3635,1292h-2.43c-.22-1-.45-2.12-.74-3.51l3-.6C3636.47,1289.31,3636.43,1290.65,3635,1292Z" transform="translate(-263.71 -462)"/><path class="cls-1" d="M2286,1008v2c-1,.07-1.86-.13-1.59-1.32C2284.49,1008.35,2285.45,1008.22,2286,1008Z" transform="translate(-263.71 -462)"/><path class="cls-1" d="M2616,1082a1.54,1.54,0,0,0-1.49-2c-2.55-.25-3.87-1.73-4.51-4,3.62,0,7.23,0,10.85,0,.25,0,.49.36,1,.8v10.06l1.9,1.9v4.46c.57,3,4.13,4.29,1.21,6.75h-2.07a47.69,47.69,0,0,1-4.84,4.8,35.13,35.13,0,0,1-5.44,2.87c-1.25-1-.4-2.45-.65-3.67,1,0,1.84-.06,1.61-1.39l-1.43-1.43c-.15-1.57-.3-3.14-.42-4.42l-1.68-1.68c.08-2.24-.65-4.54.49-6.69l5.43-1Z" transform="translate(-263.71 -462)"/><path class="cls-1" d="M2584,1178c-.41,2.44-2.91,3.27-4,5.25v3.86l-6.46,3.17c-1-.84-1.67-1.47-2.44-2.13l-4.66-.38c1-4.31,3.54-7.24,6.86-9.77H2584Z" transform="translate(-263.71 -462)"/><path class="cls-1" d="M2610,1134v-2h2.71l2.75,3.51c-1.29,1.06-3.09.61-4.81,0C2610.3,1135.45,2610.21,1134.54,2610,1134Z" transform="translate(-263.71 -462)"/><path class="cls-1" d="M2572,1156c2.05,1.18,2.05,1.18,1.17,3.83C2571,1159.09,2572.37,1157.28,2572,1156Z" transform="translate(-263.71 -462)"/><path class="cls-1" d="M2574,1174a7,7,0,0,1-2.67-.08c-.61-.27-.9-1.25-1.33-1.92a7,7,0,0,1,2.67.08C2573.28,1172.35,2573.57,1173.33,2574,1174Z" transform="translate(-263.71 -462)"/><path class="cls-1" d="M1718.38,1155.72a12.61,12.61,0,0,1-.31-2.65c0-.27.79-.57,1.26-.71.15,0,.64.42.63.64a26.76,26.76,0,0,1-.31,2.66Z" transform="translate(-263.71 -462)"/><path class="cls-1" d="M1690,1236a1.7,1.7,0,0,1-2,2A1.7,1.7,0,0,1,1690,1236Z" transform="translate(-263.71 -462)"/><path class="cls-1" d="M3972,1364h4c.14,1.88-1.14,2.11-2.48,2A1.55,1.55,0,0,1,3972,1364Z" transform="translate(-263.71 -462)"/><path class="cls-1" d="M866,770c1.18.2,2.49-.48,4,1v5C866.84,775.22,865.68,773.1,866,770Z" transform="translate(-263.71 -462)"/><path class="cls-1" d="M2704,1362c-.19-2.11,2.24-2.29,2.75-4.56l5.37,6.56v7.65c3.88.75,7.51,0,11.14.54,1.41,1.71-1,1.8-1.26,3.17V1380h-3c-2-1.54-3.09-4.34-6.2-4.17-1.4-2.54-4-1.53-5.83-2l-3-2.75Z" transform="translate(-263.71 -462)"/><path class="cls-1" d="M2642,966v-8.91l-2-2.12v-3.9l2-2.12v-3h3c.24.22.68.45.68.67,0,5.52,0,11,0,16.67C2644.42,964,2644,966.1,2642,966Z" transform="translate(-263.71 -462)"/><path class="cls-1" d="M2630,988v-6.73c1.63-1.82,2.69-4.43,5.77-3.36.2-2.27.34-3.8.46-5.14,1.22-1.31,2.57-.55,3.77-.77-.05,1.5.38,3.09-1.19,4.23-1.2.87-1,2.06-.4,3.2,1.1,1.06,2.41.37,3.59.57-.21.54-.31,1.46-.65,1.57a27.62,27.62,0,0,1-3.86.59l-5,2.54c0,.18-.22,1-.49,1.87S2631.17,988.22,2630,988Z" transform="translate(-263.71 -462)"/><path class="cls-1" d="M2642,946c-.33,0-.88.11-.94,0a8.12,8.12,0,0,1-1-2.49c-.49-3.62-3.54-6.84-1.71-10.81L2640,932a1.52,1.52,0,0,1,2,1.48C2642.06,937.65,2642,941.83,2642,946Z" transform="translate(-263.71 -462)"/><path class="cls-1" d="M2640,970a1.7,1.7,0,0,1,2-2A1.7,1.7,0,0,1,2640,970Z" transform="translate(-263.71 -462)"/><path class="cls-1" d="M2630,930v6.94l1.94,2.12c-2,2.1-4.51.06-6.25,1.11-2.45-1.1-3.18-3.82-5.69-4.17-.43-.67-.72-1.65-1.33-1.92A7.17,7.17,0,0,0,2616,934v-6h2c4.42,0,4.42,0,8-2,0,1.17,0,2.34,0,4Z" transform="translate(-263.71 -462)"/><path class="cls-1" d="M2634,928c0,.65,0,1.3,0,2,0,1-.12,1.87-1.32,1.65-.32-.06-.47-1-.69-1.6A1.7,1.7,0,0,1,2634,928Z" transform="translate(-263.71 -462)"/><path class="cls-1" d="M2562,1202v17l-3.53,3.49c-.24,3.92-2.19,7.11-4.35,11.06v10.89c-1.22,2.38-4,1.83-5.53,3.74-1.28,1.6-3.63,2.35-5.91,3.72H2537a22.38,22.38,0,0,1-1,2.41c-1.36,2.5-1.38,2.48-5.78,4.46.32.47.67.91,1,1.4s.56,1.1.91,1.81l-2.08,4-3.21-1.82-2.61,2.72,1.74,2.17-1.92.93h-2v-5l2-2.14c0-.69-.07-1.34-.1-2-2.15-2.3-3.43-.36-4.91,1.09-2.55,0-5.19,0-7.84,0-.25,0-.5-.36-.8-.6-.14-1.5,1.5-1.75,2.18-3.12h8.21l3.2-3.2v-3.91L2526,1249v-3c2.85,1.36,4.16-2.5,6.78-2l3.22,2.37V1240c2.06-.29,2.93-2,4-3.38.11-1.82-.46-3.66,1.38-5.18.68-.56.44-2.26.62-3.44l5.48-2.68c2-2.92,2.39-7.73,6.48-10v-4.13l2-2.17v-5.88l5.34-2.78Z" transform="translate(-263.71 -462)"/><path class="cls-1" d="M2438,1240v-3c1.08-1.81,3.57-.76,4.92-2.69.92-1.33,3.83.58,5.23-1.48s3.86.18,5.59-1.61q.2-2,.48-4.71l2.41-.65c2.8,1.42,0,4.64,2.58,6.22.39-1.2.76-2.33,1.2-3.65,2.39-1.11,5.05-.12,7.59-.46v3l-7,7h-9.89l-1.44,1.36a5.71,5.71,0,0,1-1.7.61C2444.62,1240,2441.31,1240,2438,1240Z" transform="translate(-263.71 -462)"/><path class="cls-1" d="M2502,1280v2.53l2,3.47v2h-3.43l-3.34,4H2490c-.08-2,2-2.43,2.76-3.79a41.67,41.67,0,0,1,2.13-4c.94-1.26,2-2.39,4-2.29C2500,1282,2500.36,1279.73,2502,1280Z" transform="translate(-263.71 -462)"/><path class="cls-1" d="M2422,1246c1.35-.67,2.72-1.3,4-2,1.08-.58,2.11-1.24,3.37-2H2434a4.41,4.41,0,0,1-3.6,3.88c-3.74.46-3.8,3.64-5.25,6l-2.47-.14C2421.48,1249.82,2422.22,1247.86,2422,1246Z" transform="translate(-263.71 -462)"/><path class="cls-1" d="M2490,1296h-2a7.17,7.17,0,0,1,.08-2.67c.27-.61,1.25-.9,1.92-1.33Z" transform="translate(-263.71 -462)"/><path class="cls-1" d="M2541.29,1209.71,2540,1209c.22-.22.49-.66.66-.63a6.53,6.53,0,0,1,1.34.63Z" transform="translate(-263.71 -462)"/><path class="cls-1" d="M2339.77,1229.44l2.05,1.74C2340.07,1232.54,2340.21,1231,2339.77,1229.44Z" transform="translate(-263.71 -462)"/><path class="cls-1" d="M2416,1232c.58-2.86,3.57-3.71,4.71-6h4.16c.74-.7,1.45-1.37,2.18-2H2436c-.26,1.22.73,2.83-.71,3.64-1.72,1-.76,3.08-1.86,4-2.11.94-3.23-.23-4.21-1.54-1.66-.09-3.26-.4-5.15.38l1.9,2.94c.35,1.61-1,2.27-1.65,3.33a14.23,14.23,0,0,0-1.1,3.43c-3.8-.34-4.94-3.55-7.22-5.18Z" transform="translate(-263.71 -462)"/><path class="cls-1" d="M2612,982c-2.28.15-2.85,2.53-4.5,3.46s-3.2,1.46-4.87,2.2c-1.37-2-.32-4.34-.58-6.13L2600,978h3.36c.27-1,.57-2.13.9-3.32,2.31-1.64,4.78-.07,6.9-.77,1.33,2.3.63,4.24.84,6.09Zm-4-5c-.22-.22-.49-.66-.66-.63a6.53,6.53,0,0,0-1.34.63c.22.22.49.66.66.63A6.53,6.53,0,0,0,2608,977Z" transform="translate(-263.71 -462)"/><path class="cls-1" d="M2624,988h6v4c.18,2.6-2.14,1.62-3.4,2.36l-1.45,3.84c-1.2-2.25-2.22-4.16-3.21-6,.28-.71.45-1.29.72-1.82C2623.07,989.55,2623.55,988.78,2624,988Z" transform="translate(-263.71 -462)"/><path class="cls-1" d="M2616,962c-.43.67-.72,1.65-1.33,1.92a7.17,7.17,0,0,1-2.67.08c.43-.67.72-1.65,1.33-1.92A7.17,7.17,0,0,1,2616,962Z" transform="translate(-263.71 -462)"/><path class="cls-1" d="M2512,1110c.32-2.58-.54-5.24.88-8.84,1.09,1.94,1.84,3.28,3.3,5.85C2516.26,1108.2,2514.25,1109.2,2512,1110Z" transform="translate(-263.71 -462)"/><path class="cls-1" d="M2512.56,1109.77l-1.74,2C2509.46,1110.07,2511,1110.21,2512.56,1109.77Z" transform="translate(-263.71 -462)"/><path class="cls-1" d="M1641.42,1347.17c2.69-1.52,4.47-1.52,6.24-.52C1646.25,1348,1646.25,1348.08,1641.42,1347.17Z" transform="translate(-263.71 -462)"/><path class="cls-1" d="M1645.62,1312.28a12.61,12.61,0,0,1,.31,2.65c0,.27-.79.57-1.26.71-.15,0-.64-.42-.63-.64,0-.89.2-1.77.31-2.66Z" transform="translate(-263.71 -462)"/><path class="cls-1" d="M3124,562c1.16-.22,2,.56,1.92,1.4-.23,1.82,1.4,2.48,1.91,3.8-1.29,1.42-3,.48-4.41.83a1.6,1.6,0,0,0-1.42,2h-4.92l-2.13,2h-5.9l-2.13,2H3102v-3.08c-.19-.17-.43-.57-.68-.57-7.52-.2-15-.36-22.53-.52-1.22-2.25-3.32-1.71-5.23-1.87a1.54,1.54,0,0,1-1.56-2c3,0,5.93,0,8.9,0,.24,0,.48-.39.84-.69.16-1.46.32-3,.48-4.51,1.45-1.47,3.19-.42,4.72-.77l2.14,2h19.83l2.12,2h3.91l2.14-2Z" transform="translate(-263.71 -462)"/><path class="cls-1" d="M3072,566h-5l-3-3.1a20.67,20.67,0,0,1,2.33-.87A53.42,53.42,0,0,1,3072,566Z" transform="translate(-263.71 -462)"/><path class="cls-1" d="M3118.4,505.42c1.76-1.73,3.53-1.82,5.6-.55C3122.16,507.15,3120.1,505.08,3118.4,505.42Z" transform="translate(-263.71 -462)"/><path class="cls-1" d="M2548,1268a1.7,1.7,0,0,1-2,2h-12.52c-1.53-1-3.14-1.93-3.48-4h3l2.12,2Z" transform="translate(-263.71 -462)"/><path class="cls-1" d="M2682,602a7,7,0,0,1,2.67.08c.61.27.9,1.25,1.33,1.92a7,7,0,0,1-2.67-.08C2682.72,603.65,2682.43,602.67,2682,602Z" transform="translate(-263.71 -462)"/><path class="cls-1" d="M2686,604a1.7,1.7,0,0,1,2,2A1.7,1.7,0,0,1,2686,604Z" transform="translate(-263.71 -462)"/><path class="cls-1" d="M924,828v3.08c-2.3,1.48-4.82,1-7.3.54-.33-.07-.47-1.06-.7-1.62C920.21,830,920.21,830,924,828Z" transform="translate(-263.71 -462)"/><path class="cls-1" d="M3068,676l-6-2.82c0-.84,0-2,0-3.18h3.16l2.84,2.84Z" transform="translate(-263.71 -462)"/><path class="cls-1" d="M3121.77,569.44l2.05,1.74C3122.07,572.54,3122.21,571,3121.77,569.44Z" transform="translate(-263.71 -462)"/></g></g></svg>