<svg xmlns="http://www.w3.org/2000/svg" viewBox="0 0 4320 2160"><defs><style>.cls-1{fill:#f2a405;}</style></defs><g id="Layer_18" data-name="Layer 18"><g id="BSh"><path class="cls-1" d="M3902,1480v-5l2.06-2.2V1459c1.25-2.3,3.5-2.83,5.86-3.73l-1.8-2.27v-3.9c1.1-2.28,3.65-3,5.88-4.1v-2l-5.77-3.32v-15.59l-4.11-7.6c-.08-1.5-.2-3.74-.33-6l-3.25-.73c-1.47-2.66.21-5.73-1-9.13L3898,1399v-4.14l-7.89-3.58v-8.13l-4.23-4.23v-8.44l-3.25-.67c-.39-1-.81-2.21-1.23-3.37-1.68.08-2.73,2.78-5.17.91v-6l-2.35-2.7v-9.92c-1.87.26-1.91.28-3.14,1.41-2.7-.26-4.77-3.29-8-2.18l-1.38-3.77H3852l-7.81-4.26-5,2.47c-.87-1.74-1.46-3.18-2.28-4.47-1-1.57-3-2.31-3.09-4.79-.06-1.24-2.09-2.4-3.25-3.58s-2.35-2.36-2.32-2.33l-5.81-3.28H3819l-11.36-11.35a3,3,0,0,0-.51-.42c-3.06-.45-5.21-3.15-8.31-2.41-1.24-2.09-3.28-1.8-5.26-1.79-4.66,0-9.32,0-14.23,0l-2.18-1.77c-2.13-.33-4.44-.82-6,1.7H3759.2L3757,1310H3747l-2.08-1.94h-4l-3.41,5.93H3731c-1.69,1.75-.62,3.51-1.11,5.31l-3.58,1.24c-.09.8-.2,1.7-.29,2.49.37.37.7.85.83.8,1.41-.52,2-2.87,4.12-1.56.72-1.55,1.35-2.89,2.12-4.52,1.34,2.77,1,5.26.5,8h-12.85c-1.45-1.32-.4-3.1-.74-4.65l2-2.14v-2c-1.27-1.69-3.08-.69-4.83-1l-2.17-1.88h-4.19c-1.13-1.64-2.35-3.42-3.58-5.19-.08-1-.33-.61-1.06-.13-3.45,2.31-7.1,4.18-11.49,2.91l-1.43-1.43h-6.8c-.23,1.1-.43,2-.65,3-2,1.65-4.38.41-6.68.78l-2.14,2h-2c-.68-1.34-1.4-2.71-2.06-4.1-.52-1.12-1-2.27-1.52-3.65h-10.67c-.75,1.34-2.78,1.78-2.73,3.83s-2.06,2.43-2.83,3.82c-.6,1.07-.68,2.58-1.5,3.32-1.33,1.2-1.62,2.69-2,4.19-2.24,1.15-4.54.48-6.78.49L3641,1320h-6l-1.88-1.88H3628l-8-4.12,2-3.46V1307c1.6-3.1,5.7-2.76,7.75-5.9v-6.31c-2.27-1.44-1.89-3.71-1.6-5.94,2.09-3.86,9.34-2.48,8.1-8.86H3640c1.63,3.3,3.27,6.6,5.07,10.26a24.36,24.36,0,0,1,1.29-3.53c.23-.42,1.07-.5,1.64-.73h5l2.19,2h5.78c.87.72,1.54,1.63,2.39,1.88,1.23.35,2.63,0,3.87.35.75.18,1.33,1,2.33,1.88.63-1.79.63-3.36,1.83-4.68,2.46-2.71,5.65-4,8.78-5.43a6.74,6.74,0,0,0,3.9-3.89c.78-2,1.78-3.92,2.71-5.93l4.6-.52,2.77-3V1265c1.58-3,5.14-2.69,6.84-4.59l5,2.57c-.64.7-1.27,1.4-1.91,2.09,1.32,1.66,3.12.63,5.66,1.15l4.56,5.72h6.52c1.26-.41,1.57-2.7,3.14-1,.44,1.59-.62,3.35.71,4.75l4.29-2,3.66-5.64h7l3.1,3.9h14.38l1.51-1.51c2.29-1.37,5.3,1,7.4-1.41v-2c2.22-1.14,4.79-1.78,6.11-4.58v-3.34l2.78-3H3779c1.68,1.67,3.32,3.31,5,5v6a15.6,15.6,0,0,1,9.08,9.06H3797c2,1.36,2.62,3.5,3.68,5.47s3.07,3.26,4,4.17c2.32.4,3.79.28,4.77.92a6.49,6.49,0,0,0,3.41,1.52c1.18.07,1.51,2.2,3.17,1.91v1l2.86,5.25a32.79,32.79,0,0,0,4.45-.6c.35-.1.47-1,.69-1.6h4.48l6.85,3.91h7.76c.33-.33.53-.66.81-.79a29.84,29.84,0,0,0,3.37-1.47c.42-.25.5-1.08.73-1.65h2l3.43,2H3869l6.14,6.18,2.85,5.93c.26.55.51,1.11.55,1.2l5.24,2.69a10,10,0,0,0,4.53-1.06c2.37-1.24,4.51-3.66,7.68-2.94l3.46,2h9.46l3.75,4H3915l2.09,2H3922a7.17,7.17,0,0,0,.08,2.67c.27.61,1.25.9,1.92,1.33,1.38,3.51,4.83,5.2,6.88,8H3934c1.21.24,2.61-.58,3.64.63a30.15,30.15,0,0,0,7.25,15.35l2.34.12c2,2.78,5.43,4.43,6.77,7.9,0,.33-.11.9,0,1,2.37,1.12,1.37,4.36,3.51,5.56s1.91,3.91,3.5,5.4l2.29-2.07,2.55.79c.11,1.82.2,3.4.28,4.84l3.15.82c.9,2,1.75,3.94,2.71,5.86,1.13,2.24,2.86,4.3,1.59,7.4l-2.9.68c-.59.66-1.49,1.63-2.47,2.71v14.35l3.08,2.84h2.83l8,7.93c-.11,1.39-.25,3.34-.47,5.28,0,.24-.46.43-.67.62h-2.75c.63-3-1.41-4.54-3.8-6.09l-2.4.9V1413l2.06,2.21V1419l1.82,2.08v6.12c-1.64,1.13-3.91.9-5,2.82-2.44-.45-3.34,1.69-4.86,2.93v3.91l-4.12,4.32v3.9L3959,1448h-4.19l-6.84,9.6V1460c-2.88.1-3.35,3.58-6.22,4.15s-2.15,5-4.81,5.72h-10.1L3923,1466c-1.71,0-3.65,0-5.6,0-.27,0-.54.26-1.34.66l-3,5.22-.55,0-4.36,2.71c-.42,2.4.56,4.21-1.21,5.36Zm31.66-98.68c.5,2.53,2.21,3.22,3.18,4.58h5.51c2.45,1.41,4.61,2.63,7.17,4.09H3955l1.51-1.4c2.8-1.28,5.22.33,7.33-1.36v-4.5l-3.3-3.09-6.14,1.81c-.22-1.56-.48-3.38-.93-6.54l-3.39,4.28c-.34,1.65.68,3.44-.94,4.72-2.68-2.14-6.4-2.8-7.93-5.81h-4.23ZM3635,1292c1.42-1.35,1.46-2.69-.18-4.11l-3,.6c.29,1.39.52,2.5.74,3.51Z" transform="translate(-819.86 -627.98)"/><path class="cls-1" d="M2626,910h-3l-2.13-2c-3.15-.65-4.53,4.8-7.7,1.77L2609,914c-1.07,0-2.88-.54-3.57.1-1.91,1.8-5,1.44-6.43,3.9h-4l-2.91,2.91v5.77a25.27,25.27,0,0,1-7.46,6c-4.09,2-5.58,6.68-7.25,11.09h-4.87l-6,6c-2.05.12-3.05-.1-3.3.23-1.61,2.21-4.88,1.67-6.41,4h-5.86l-1.63,1.63-4.59.54c-1.5,2.09-.4,4.47-.46,4.85l-2.92,5c-4.82-.25-4.63-4-6.35-6H2531l-2.08-1.94h-4c-2.31,1.76-2.31,1.76-6,2-1,1-2.16,2.76-3.79,3.61-1.37.7-3.09.74-4,2.29h-7.92c-2,1.68-1.35,5.21-5.58,6,.54,0-.19.16-.74-.1s-1-.89-1.78-1.71h-12l-1.94-1.94h-19.94c-.78.49-1.82,1.18-2.9,1.8-.25.14-.65,0-1.59,0l-3.11-4H2439c-2.63-2.9-6.8-3.08-9.73-5.56-1.09-.93-3-.71-4.07-2.18-3.72-5.09-10.55-5.76-14.77-10.22-.77-.81-2.22-1-4.52-1.93h-12.87l-2.09,1.81h-5.66c-2.5,1.3-.63,3.72-1.59,5.34l-2.12,2.12a2.79,2.79,0,0,1-.76.59,3.27,3.27,0,0,1-1,0H2359l-3.81,3.81h-13.9c-1.82-1.33-4-2.49-7-1.53-.16-2.26-.28-3.83-.39-5.42l-5.52-2.84h-11.26l-1.46-1.4a6,6,0,0,0-1.73-.59c-3-.06-6,0-9.66,0l-2.78,3.81c-4.12.83-3.08-2.3-4.12-3.57a26.77,26.77,0,0,1-2.39-4.5l-5.3,2.46-2.77-2.16H2285c-.5.5-1,1-1.45,1.45-.26.17-.52.49-.78.49-3.31,0-6.61,0-9.73,0-.66-.66-1.16-1.56-1.59-1.53-3.63.26-6.31-3.16-9.83-2.5l-7.65-7.87-.42.41c-.26-.17-.51-.46-.78-.49a19,19,0,0,0-2,0h-16.12c-.28,1-.52,1.9-.91,3.35-.79,1.35-2.61.41-4.12.66s-2.17,2.37-4.18,2c-1.14-.18-1.85-.18-4.35-2h-6l-4.1,3.89h-20l-1.77-1.77-4.27-.37-2.58-2.19-3.18,1.83c-3.64,2.09-6.26-2.74-10-1.45l-2.23-2h-6.83l-4.92,6c-2.54-.13-4.71.57-6-1.88h-19.3c-2.72-.86-3.24-3.88-5.81-4.15-2.2-.22-3.56-2.26-6.17-2.23-2.21,0-4.44-2-7.64-3.56h-10.7l-2.63-2.05h-4.4c-.73,1-1.88,2.6-2.74,3.8h-12.77l-2.13-2h-4c-1.41-1.71-1.81-3.93-3.43-5.64-1.86-2-4.4-2.49-6.45-4-1.59-1.16-4.59.24-6-2.32h-6l-2.1,2H2031l-2.08-1.92h-4l-1.83,1.83h-30l-1.93,1.93h-15.88c-2.47-2-6.45-2.42-8.09-5.83H1962v-4l-7.55-7.36c2.56-1.19,5.74-2,6-6,0-.25,1-.46,1.6-.68,1.27-.32,1.67.83,2.41,1.42,1.78,1.39,3,.36,4.41-1.31h20.07l1.94-1.94h9.7l8,4.18L2011,898h6l1.88,1.88a62.27,62.27,0,0,0,8.21,0l1.68-1.68H2039l2.08,1.62h19l11.6,6.18H2095l1.43,1.43a6.59,6.59,0,0,0,1.78.53c6.31,0,12.62,0,19.06,0,.45-1.26.87-2.41,1.36-3.79h10c2.52,1.81,6.24,2.53,8.08,5.76h18.11l2.23,2.06h9.23l11.29,5.83h29.2a9.17,9.17,0,0,1,6-1.86l2.17-2h12.14l3.46-7.6c1.37-.84,3-.35,4.59-.23,1.59,1.33.25,3.16,1.22,5.13l2.94,1c1.46,1.35,0,3.18,1.45,5.67,1.72,2.08,3-1.91,5.67-2l2.74,2H2261l3.7,3.81,6.47.36,3.57,7.58,3.89-5.74h8.2c1.55,1.38,2.86,3.45,4.53,3.79s2.59,2,4.13,2.16a48.5,48.5,0,0,0,5.49,0l1.89,1.89h41.79L2347,934H2351l2.09-2H2357l2.16-2h3.48l2.66-1.92c.83-.38,2.9-.68,3.9.28,2.6,2.48,5.4,1.47,8.11,1.37l1.62-1.63h6.32l3-4.12H2399l3.7-3.7c1.41-.17,3.56.21,4.43-.68,1.68-1.7,3.48-1.41,5.4-1.66,1.5-.2,2.19-2.44,4.19-2s3.13-.54,4.17-2h4l2.18-2H2431c.78.71,1.51,1.36,2.27,2.06h21.6c3.45,1.38,2.84,5.17,5.06,7.19.65.6.1,2.53.1,3.63l2,2.29v5.33l2.26,3.38-1.91,3.08c.2.22.56,1,.92,1,6.64.07,13.28,0,19.8,0,1.68,2.67,4,2.11,6.24,1.69,1.36-3.17,4.9-.63,6.93-2.73,1.42-1.47,3.77-2,5.73-2.94a2.82,2.82,0,0,1,1.06,0l5.79-6h8.38c.36-.93.57-1.51.8-2.08s.5-1.13,1.07-2.43l3.07,4.49H2533l1.78,1.83c5.16.47,10.76-.06,16.32.27,1.53,2.44,3.84,2,6.16,1.66,1.56-1.33.16-3.16,1.52-5.73a14.52,14.52,0,0,1,3.44-3.12c2.14-1.16,1-3.79,2.78-4.91h2l5-5v-2l5.1-4.93h3.77l2.22-2.06H2589l1.79-1.79c3.17-.54,6.8.09,9.47-.24L2606,901v-2c.53-.34,1-1,1.57-1,4.61-.08,9.23,0,13.48,0,2.48-2.77-.27-3.76-1-5.07v-5.5a11.24,11.24,0,0,0,1.92-2.94c.36-1.18.08-2.55.08-4l2.91-.51c1.82,1.37.8,3.18,1.22,5.34l3.87,2.53V892l-2,3.37c.29,2-.82,4.34.65,6.35,1.72.93,4.1-.9,5.59,2l-2,3.45,1.74,2.17C2631.2,910.66,2628.54,909.66,2626,910Zm-617.82,1.83c-.51-2.36.47-4.08-.82-5.48-1.85-.27-3.77-1.15-5.36.65.33,1.53-.65,3.25.8,4.83ZM2528,951c-1.36-1.41-2.7-1.48-4,.08.35,1.53-.69,3.26,1,5l3-.64Zm-78-18c-1.33-1.44-2.67-1.44-4,0C2447.33,934.44,2448.67,934.44,2450,933Z" transform="translate(-819.86 -627.98)"/><path class="cls-1" d="M3080,786c-.23.57-.47,1.14-.76,1.85h-11.81l-2.38,2-6.85.39c-.1,1.52-.18,2.79-.29,4.37-.56,1.67-2.37,2.68-3.66,4.12-1.08,1.21-2.29,2.32-3.25,3.28h-4.78l-5.41,5.46-4.76,1v12.72L3034,822c-.43-1.22,1.06-3.16-1.33-3.73-1.24,1.86-.43,3.85-.67,5.73-.33,0-.78-.14-1,0-1.51,1.24-1.13,3.44-2.72,4.86s-3.63.89-5,2.61c-.82,1-2.71,1.24-5.4,2.34h-7.17L3010,832c1.84.15,2-1.1,2-2.43-1-1.63-1.94-3.21-4.23-3.61l-3.78,2c-2.86-.52-3.92-3.22-5.79-4.91-1.6-1.46-3.78-2.61-4.21-5.09.67-.43,1.65-.72,1.92-1.33A7.17,7.17,0,0,0,2996,814l3.75-2.13c1.56-.31,4.19,1,6.25-.91v-3h3c1.63-1.64,3.28-3.27,4.89-5,.17-.18,0-.68.1-.95,2.14-4.43,4.3-8.85,6.59-13.56.79-.31,2-.71,3.07-1.23s2.16-1.15,4.36-2.34l7.52-7.52c.4-1.16.8-2.31,1.18-3.43h3.41l7.69-8.39c1,.68,2.07,1.36,3.27,2.13,4.47-3,3.81-9.93,8.9-12.5V745c1.9-2.1,4.37-.61,7.41-1.19l4.58-6.24c0-1.6-3.49-3.2-2.12-5.92L3058.22,720c.43-4.47-1.64-7.52-3.61-10.13-1.83-2.42-3.56-5.72-7.42-5.89l-7.15-7.81v-1c-1.17-1.85-3-.77-4.48-1.24a16.2,16.2,0,0,1-3.25-2.05l-5,2.51a18,18,0,0,0-6.47-8.35c-1.6-.35-3.62.78-4.61-1s-4.37,0-4.18-3.07c.22-.56.42-1.58.67-1.59,2.49-.14,3.86-1.87,5.33-3.5v-5.44l-2-3.47,4.79-2.38,2.09,2.36c2,.22,4-.64,5.42,1.31,1,1.33,3,.36,4.09,1.94.82,1.16,1.65,2.85,3.61,2.77v5a32,32,0,0,0,7.55,5.85c2.82,1.41,4.8,4.5,7.16,6.86,3.67.79,6.47,3.55,10.17,4.44a5.17,5.17,0,0,1,3,3.54c.47,2.7,2.81,3.54,4.17,5.29,1.19,1.54,3.5,1.11,4.89,2.77s.8,3.79,2.71,4.93c2.89,1.74,2.75,5.7,5.61,7.71,2.42,1.7,4.3,4.15,6.56,6.41-.82,3.54,2.94,6.18,2.12,10.29,2.41,1.71,5.1,3.35,7.46,5.38s4.88,4.21,5.65,7.56h4l3.22,3.22c-.7,1.49-1.86,3.06-2.15,4.78-.33,2-3,2.74-2.3,5.12a3,3,0,0,1-1.56.81c-2.3.19-3.15,2-4.52,3.91.56.92,1.21,2,2,3.31v6.23l-2.23.66c-2.27-1.17-3.67-3.46-5.3-5-.32-1.19-.57-2.08-.88-3.21L3091,772h-4l-3.07,3.41v8.67l-3.18-1.77C3079.37,783.32,3080.26,784.77,3080,786Zm-46.37,6.52,4.12,4.32c.34,1.25.58,2.14.78,2.91h6.81c.32-.51.64-.77.64-1,0-4,0-7.93,0-11.72l-3-3-2.16,2h-3.93C3035.94,788,3035,789.92,3033.63,792.52Z" transform="translate(-819.86 -627.98)"/><path class="cls-1" d="M2666,1094h-3l-2.27,2.28c-.25.25-1.71-.67-2.87-.23s-2.06,1.57-3.21,1.89c-2.72.75-4.72,2-4.71,5.12-2.74,2.37-2.78,6.24-4.94,8.94h-2l-2.86,2.86c.77,3.44-1.69,5.94-2.89,8.75a72.75,72.75,0,0,1-4.17,8.33h-5.21l-3.46,2.39c-1.17,3.54,3.53,4.48.82,7.43h-6.47L2615,1138c-1.66,1.93-.77,4.2-1.06,6.65a26,26,0,0,0-1.92,2.77,12.56,12.56,0,0,0-.75,2.57H2609l-3.1,5.94,2.11,3.75c-.2,2.49-2.37,3.23-3.68,5-.14.61-.34,1.52-.55,2.48L2598,1170c-1.21-.23-1.69.53-2,1.51s-.51,1.71-.74,2.49h-2.42c-.54.62-1.16,1.36-1.71,2h-3.66l-3.47,2h-8a7.17,7.17,0,0,0-.08-2.67c-.27-.61-1.25-.9-1.92-1.33-.43-.67-.72-1.65-1.33-1.92a7,7,0,0,0-2.67-.08v-15.21l2-.79c.37,1.28-1,3.09,1.17,3.83.88-2.65.88-2.65-1.17-3.83v-6.89l-2-2.12v-15.43l3.07-5.56h4.9c1.23-.27,2.71.67,3.69-.7.86-1.22,2.09-1.28,3.41-1.45,1-.11,1.2-2.57,2.83-1-.09,2.28.64,4.58-.68,7.07h-6.41l-.84,2c-1.89.25-3.9-.59-6.15,1,1,2.1-1.25,4.79,1.19,7H2583l2.08-2h2.25c.39,1.14.79,2.29,1.25,3.62,2.43.48,4.91.74,7.31-.32.12-2.43.23-4.66.35-7l5.09-.56c1.24-1,.27-3.16,2-4.13,1.44-.82.45-2.43.71-3.65.56.22,1.43.3,1.61.69,1,2.17,1.78,4.45,2.78,6.62.18.39,1.05.47,1.61.69.21.54.3,1.45.65,1.56,1.72.56,3.52,1,4.81,0l-2.75-3.51H2610v-3l1.91-2.07-2.08-2.39c1.21-.24,2.1-.44,3-.58s1.84-.22,2.36-.28c1.42-2.85,2.64-5.32,3.86-7.78.22-.45.39-.91.58-1.37l-3-2.84a8.07,8.07,0,0,0-2.49,1.25c-1.06,1.16-2.31.91-3.58,1a13.6,13.6,0,0,0-2.52.73V1120h-7.33a7.52,7.52,0,0,1-1.71,1.94c-.83.5-2.57-.67-2.63,1.43,1.8,1.19,3.79.39,5.67.63v2c-1.22.24-2.63-.6-3.67.65-.31,1.82-.63,3.62-.94,5.45-1.95-.44-3.67.57-5.23-.92v-8.29c2.34-3.45,2.52-5.27.8-6.89h-3v-6h2c4-.86,3.79-4.89,5.68-7.19-.6-.8-1.07-1.41-2.14-2.81H2602a5,5,0,0,0,3.37,3.72c1.1-1.17.45-2.51.63-3.72,1.6-.24,2,1.33,3,2s1.4,2.24,3,2c.25,1.22-.6,2.64.65,3.67a35.13,35.13,0,0,0,5.44-2.87,47.69,47.69,0,0,0,4.84-4.8H2625c2.92-2.46-.64-3.78-1.21-6.75v-4.46l-1.9-1.9v-10.06c-.55-.44-.79-.8-1-.8-3.62,0-7.23,0-10.85,0v-2.91l1.92-2c-.44-1.6,1.3-3.7-1.13-5l-1.74,3.9H2606a4.86,4.86,0,0,0-3.56-3.74l-1,5.77-3.49-2a1.55,1.55,0,0,1-2-1.52c-.16-1.34-.16-2.62-2-2.48h-2c-1.07-3.15-4.23-4.55-6-7.2V1056h5c3.12,1.64,2.83,5.79,5.91,7.82h4.29c1.48-1.58.41-3.35.86-4.88,1.48-1.18,2.37-3.3,5.15-2.89l1.11,3.32c1.35,1.48,3.18,0,6.23,1.78l3.29,1.7c0,.63.11,1.27.24,2.83l5.88,5.17c.1,1.06.17,1.7.25,2.51l3.59,1.32v7.15c1.12,2.22,1.95,3.87,3,6l3.82.29c2.21.79,3.3,3.45,5.1,4.57.35,1.37.58,2.27.8,3.16,2-.45,1.22-2,1.69-3.07,1.33-1.48,3.11-.43,4.7-.78l2.14-2H2655c3-1.43,2.67-5.12,5-7v-4c-.66-.71-1.34-1.42-1.94-2.08v-4c2.57-1.41,1.47-4.08,2.24-6.09s2.2-3.76,3.8-6.39v-9.65c2.18-1.48,4.24-.18,6.12-.78l5.78-3v-2.19l2.92-1.16,7.58-7.58h10.77L2707,1046c2.13-.76,2.85,1.29,4.23,2,2.5,1.15,3.28-3.78,6.09-1.58,1.29.9.4,2.35.66,3.58-1.48,2.84-3.12,5.49-6.68,6-3.88,4.66-10.58,5.25-14.37,10H2694c-.24-1.21.58-2.61-.83-3.82h-4.35c-1.71,1.71-3.43,3.22-4.9,5a11.44,11.44,0,0,1-5.43,3.47c-.83.27-1.93,1.25-2,2-.32,2.88-2.64,4.19-4.15,6.15a2.14,2.14,0,0,0,.79,3.23H2678c-.53,2.87-3.61,3.66-4.82,5.89s-2,4.65-4.22,6.11Zm-39.73,26.28,3.37-.66c.44-4.62.43-4.62-.64-5.62h-4.07l-3,3.24c.59,2.57-.81,5.79.89,8.92l2.89-.56C2625.92,1123.79,2626.07,1122.24,2626.27,1120.28Z" transform="translate(-819.86 -627.98)"/><path class="cls-1" d="M1686,1138h3.38l4.16,6.34,3.45-1.85c.12.07,1,.37,1,.55-.44,3.29,3.15,4,4.28,6.88a20.12,20.12,0,0,0-2.16,3.63c-.51,1.39.63,3.25-1.12,4.4-2.77-5.47-3.21-5.92-8.93-9.1,0-.65-.07-1.3-.13-2.45l-3-.34c-2.29,2.84.65,3.74,1.3,6l-2,3.41v7c-4.2,6.67-4.2,6.67-8.12,8.68v2c.26.26.49.69.73.7,3.29,0,6.57,0,9.48,0,3.11,2,3.61,2.26,6.63,2.25l2.17,2h9.9l2.15-2H1711l5-5v-4c-1.85-1.51-4.82-1.5-5.8-4.23l3.54-3.54c.22-1.55,0-3.35.79-4.62s2.24-2.37.79-4.45l-3.18,2-4.18-2.5-3,2c-1.87-.85-.57-2.72-1.17-5l3.63-2.34,1.66,1.49h4.13c.79-1.47,2.91-1.87,2.81-3.91h17.19c.88,1.62,2.92,2,2.81,4l-1.69.69c-1.27,2.77.49,4.8,1.65,6.9.9,4.36-2.31,7.8-2.51,11.89,0,.49-.87.94-1.45,1.52,0,1.52-.07,3.15,0,4.78.11,1.91-.47,3.89.41,5.62,1.21,1.63,3.3,2.41,3.57,4.6-1.22.25-2.65-.61-3.67.64-.39,1.17-.78,2.31-1.15,3.37H1725l-2.81,2.81c-.35,2.13.43,4.65-2.06,6-.1,1.59-.19,3.15-.28,4.63-5.64.9-7.28,6.6-11.46,8.58-2.83-.34-3.61-3-5.55-4.07-1.52.34-3.28-.7-4.92,1.12v9.1c-1.4,2.7-2.26,4.33-3.09,6s-1.66,3.29-2.8,5.56v3.15l-2,2.15v5a1.7,1.7,0,0,0-2,2c-2.2,0-4.4.11-6.59,0a1.53,1.53,0,0,1-1.41-2v-2c.39-.84.79-1.68,2-4.36.09-.91-.07-3.82-.11-6.63l-2.27-2.55,2.13-4.06v-10l-2.66-.57c-2.22,1.89.08,5.5-2.92,6.9-2.13,4.55-2.17,4.49-6.77,7.27a14.18,14.18,0,0,0-3.41,3.29,9,9,0,0,0-1,2.58c-2.69-1.27-3.38,3.39-6.15,2-2.2-1.48.22-4.43-2-6.17-1.1-.86-1.37-2.72-2.22-4a10,10,0,0,0-2-1.83c-2.86.4-5,3.69-8.39,1.42-1.43-4.39,1.92-7.39,3.92-11.33-.51-.82-1.14-1.88-2-3.31v-6.34l3-.63c1.52-1.2.27-3,1.16-5.09L1652,1189v-5.9l-2-2.11v-3.4c2.54-5.1,8.31-5.55,10.86-9.56h3.36c.31,0,.72,0,.92-.18a31.94,31.94,0,0,0,6.49-7.3l2.16-4.11v-6.52c1.42-2.16,2.64-4,2.07-7.15l3.11-2.69a8.56,8.56,0,0,1,6.32,1.66C1686.63,1140.67,1685.74,1139.23,1686,1138Zm35.44,44.23c1.55-.44,3.1-.3,1.74-2A6,6,0,0,0,1722,1182a1.7,1.7,0,0,0-2,2,7,7,0,0,0-2.67.08c-.61.27-.9,1.25-1.33,1.92-2,1.18-2,1.18-1.17,3.83,2.14-.74.8-2.55,1.17-3.83a7,7,0,0,0,2.67-.08c.61-.27.9-1.25,1.33-1.92C1721.38,1184.05,1722.05,1183.38,1721.44,1182.23Zm-59.27-5.94,3.95-.76c-.26-1.38-.46-2.5-.7-3.74l-3.25.62Zm56.21-20.57,1.27-.06a26.76,26.76,0,0,0,.31-2.66c0-.22-.48-.68-.63-.64-.47.14-1.25.44-1.26.71A12.61,12.61,0,0,0,1718.38,1155.72Z" transform="translate(-819.86 -627.98)"/><path class="cls-1" d="M964,698c.57.23,1.62.45,1.63.7.1,4.13,3.6,4.74,6.32,6.23V711l-4.16,2,4.23,2c-2.71,3.49-7.74,3.82-9.92,8.78v3.2l5.46,2.87h5.81c2.61,1.11,4.78,1.41,5.88,2.66,1.66,1.89,3.5,1.43,5.63,1.55.78,1.49,1.61,3.08,3,5.73v9.66l3.26.83,1.76,3.77H996v8.92l2,2.11v9.81c-2.62,3.08-3.39,7.24-6,10.32V796h-2.93L987,798h-3.91c-2.08-2-2.08-2-3.08-1v6.18l-2,.79h-2c-.25-2-1.79-2.82-3.2-3.82-1.13,1.89-2.93,1.94-4.8,1.82v-2c2,.1,2.4-2,3.74-2.68.51-3.23.8-6.34-1.74-8.9.79-3.64-3.25-6.11-2.17-9.18l-2.7-3.24H958v-8.91l-1.83-1.94c-.21-1.06-.38-2-.53-2.71L952,761.26c-.28-2.5.63-4.81-.84-7.2H941.13l-3-2.86c-.23-1.15-.41-2.05-.55-2.78L934,747.2V742c2-.31,3.23-2.42,5.41-2.48.21,0,.39-1,.59-1.52h3.07l2.78-3v-8.12l-2.69-2.69-2.72-.52-1.33-4.15L934,722v-5.24c-1.63-.18-1.67-2.84-4-2.76.67-3.27,3.69-3.75,6.21-5.19-.29-.81-.35-2-1-2.44-1.57-1.23-1.24-2.81-1.26-4.37.17-2.57,1.76-2.12,3.54-1.63a6.48,6.48,0,0,0,6.14,6.08c.19,1.69.37,3.26.51,4.47l2.67,3c2.9,0,5.54,0,8.18,0,.24,0,.47-.43.68-.64,1-2-.38-3-1.73-4.26.34-1.42-.57-3.07.49-4.53l3.52-1.22a16.52,16.52,0,0,1,0-2.15c0-.27.38-.49.69-.86a45.06,45.06,0,0,0,4.57-.63C963.63,699.55,963.77,698.57,964,698Z" transform="translate(-819.86 -627.98)"/><path class="cls-1" d="M870,776v3.08c2,2,4.11,4.17,6.29,6.18s3.19,4.84,5.05,6.71c2.15,2.16,2.32,5.29,4.66,7.08v5c-1.93.15-1.43-1.64-2.1-2.46-2.68-3.26-5.74-6.22-8.65-9.29-2.64.12-4-1.88-5.45-3.5-3.26-3.59-7.47-6.32-9.8-10.75,0-.66.24-1.46,0-2-1.91-3.51-3-7.46-5.58-10.61-.58-.7-1.12-1.74-2.38-1.42a1.7,1.7,0,0,1-2-2l2.35-1.32c-1.31-2.53-2.06-5.08-3.68-6.8a20.2,20.2,0,0,1-3.44-5.75h-4l-3-2.77c-.17-1.47.12-3.36-.67-4.52-1-1.41-1.75-2.56-1.68-4.35.06-1.55.35-3.09-.91-4.63-.9-1.09-.9-2.93-1.59-5.54L830,723.64v-6.58c-1.36-2.37-4-3-6-4.34.45-3.23-3.38-3.76-4.14-6.9l2-3.07c.1-1.15.24-2.73.41-4.62h11.11l.83-3.23-3.35-1.15c-.38-.34-.83-.55-.84-.78,0-3,0-6,0-9,2.35-.25,4.93.81,6.87-1.73.75-1,2-.18,3.13,1.73v2l-2,.84v6.06c-1.89,2.65-1.93,2.65-2,5.79a18.21,18.21,0,0,1-8,6.44c3.28,1.31.89,4.94,2.68,6.65l2.79.57c.48,1.41.87,2.57,1.16,3.44l2.93.6c.46,1.41.81,2.51,1.24,3.83,1.88-2.44,1.68-6.21,5.61-6.22a16.81,16.81,0,0,1,3.55,8.17c.09.84.06,2,1.83,1.19.12-4.76.22-9.65.38-14.55,0-.24.44-.47.68-.71L853,708c.86,1.76,1.76,3.57,2.66,5.39l-3.57,1.26v4.53l2.73,3.06c1.87-.36,3.37-.2,3.17-2.22,2.29.16,2.8,2.84,4.55,3.42a10.43,10.43,0,0,1,5.45,3.63v7h-6a19.38,19.38,0,0,1-4.14,1.93c-1.85.38-2.39,2.13-3.75,2.93s-2.72,1.39-4.1,2.08l2,2.16v6.31l6.08,3.94v3.83c1,2.67,3.67,2.44,5.68,3.57.18,2.79.31,5.68.61,8.55,0,.29,1.06.47,1.62.7C865.68,773.1,866.84,775.22,870,776Zm-45.62-72.28,1.27-.05c.11-.89.28-1.78.31-2.67,0-.22-.48-.68-.63-.64-.47.14-1.25.44-1.26.71A12.61,12.61,0,0,0,824.38,703.72Zm32.91,22L858,725a6.53,6.53,0,0,0-1.34-.63c-.17,0-.44.41-.66.63Z" transform="translate(-819.86 -627.98)"/><path class="cls-1" d="M3568,1456v-3.37l-5.39-1c-.65-1.73-1.07-3.6-2.61-4.86.46-2.48-1.85-3.23-3-4.73-2.49.59-3.31-1.67-4.81-2.74-.19-1.62-.37-3.19-.57-4.92l-2.92-.6c-1.51-1.19-.28-3-.82-4.49-1-2.26-4.09-3.1-4.07-6.3,0-.93-1.67-2.59-2.68-2.67-3.06-.24-4.24-2.76-6.19-4.32h-3c1-2.78-2.45-4.29-2-6.92-4-2.38-3.91-7.94-8-9.86V1394c1.25.23,1.78-.54,2-1.57.29-1.47-.7-3.25,1.8-4.8l3.14,5L3530,1390c2-.1,2.44,2,3.91,2.81v3.84a11.74,11.74,0,0,0,1.34,1.58c6.5,5.31,5.62,5.51,9.06,13.08,2.89,1.13,6,2.07,8.15,4.33,1.63,1.76,4.09,1.74,5.58,3.52V1423l3.83,3.83c.05,1,.11,2.31.21,4.22l5.91,4.5v3.65l3.41,1.16L3575,1444h8.09l2.65,3c-.65,2-3.49,2.59-3.71,5.08v2a1.54,1.54,0,0,0,1.37,2,39.69,39.69,0,0,0,4.63,0c-.23.57-.37,1.55-.72,1.63a44,44,0,0,1-4.63.65l-1.24,3.5-2.12.22-3.91-6Z" transform="translate(-819.86 -627.98)"/><path class="cls-1" d="M2058,688h4.79l3-2.29c3,1.18,4.13,3.82,6.25,5.27,1.79,1.23,3.76,2.2,5.83,3.4V703c2.07,1.63,2.13-.84,3.64-1h4.5a13.42,13.42,0,0,0,.08,1.86c-1.33.63-3.15-.77-3.92,1.31,2.66.88,2.66.88,3.92-1.31a35.94,35.94,0,0,0,3.92.14v8h-3.09l-1.82-2.1c-2.36,2.2-.29,5.05-1.31,7.27L2070,724c0-2,.05-4,0-6a6.59,6.59,0,0,0-.7-1.83h-5.2c-2.72,1.12-4.29,1.5-5.52,2.35A27.38,27.38,0,0,0,2055,722h-9v-5l-2-2.12V711l2-2.2v-5.16c1.15-2.27,2-3.91,2.79-5.47l3-.61q.17-3.55.32-6.66L2055,688Z" transform="translate(-819.86 -627.98)"/><path class="cls-1" d="M2694,1328v6.93l-2,2.11v7.88c-.66.71-1.33,1.41-2,2.12v3c0,1.33-.07,2.66,0,4a7.15,7.15,0,0,0,.7,1.83h4.46l2-2,2.34,2.25c.85,2.86-.19,4.69,1.53,5.9h3v9.07l3,2.75c1.82.48,4.43-.53,5.83,2,3.11-.17,4.23,2.63,6.2,4.17h3v4c.23,1.26-.54,1.8-1.58,2-1.27.22-2.68,0-3.8.49a64.32,64.32,0,0,0-6.06,3.5h-5.48c-1.44-2.33-4.56-1.94-6.42-3.87-.62-.65-2.51-.1-3.09-.1-5.44-3-6.07-8.67-9.54-13.41V1359l-4-4v-10l1.9-2.09v-3.89c2.39-.94,4.66-2,6.11-4.49v-3.78C2691.56,1330,2692,1327.9,2694,1328Z" transform="translate(-819.86 -627.98)"/><path class="cls-1" d="M2322,1264c-2.15-.38-3.19-1.92-4-3.73-.51-1.13-1.08-2.23-1.95-4v-11.22l2-2.09v-3l3.18,0,2.82-6v-3l3.38-3.31c.28-.41.6-.67.6-.93,0-5.28,0-10.55,0-14.54-2.34-5-4.65-8.68-5.85-12.75-.94-3.23-3.74-6.22-.87-11.72l.62-.74v-5.91l-1.9-2.17c0-1.08.55-3-.1-3.58-1.94-1.82-1.48-5-3.9-6.38v-5h3l7,7v2.22l3.4,1.14c1.25,1.41.22,3.15.65,4.6l2,2.23v11.84l2.74,2.74,3,.61v5.17l-2.91.58c-.23.36-.84.87-.85,1.4-.1,3-.05,6-.05,8.94a48.65,48.65,0,0,1-.08,6.94c-.26,1.76-2.05,3.59-1.75,5.1.55,2.76-2.94,3.78-2.12,6.14.95,2.72-2.71,3.59-2.16,6.16.12.57-1.19,1.44-1.88,2.21v7.85l-2,2.16V1258l-2,3.47Z" transform="translate(-819.86 -627.98)"/><path class="cls-1" d="M1302,958c-2-3.61-2-3.61-2-10h10.89l2.13-2h4.06l2.94-3.41V937c1.35-1.62,2.76-.78,4-1h2v4.68c1.12,1.35,2,3.06,4,3.32v3c-.67.71-1.34,1.41-2,2.12-1.08,2.64,3.23,3.39,2.11,6,2.36,1.51,2.05,3.78,1.73,6L1329,964c-.6,0-1.62.27-1.84,0-1.77-2.43-5.68-1.67-6.92-4.79l1.73-2.58c.21-2.41-1.77-2.93-2.73-4.41H1311l-3,2.75V960l-3.47-2Z" transform="translate(-819.86 -627.98)"/><path class="cls-1" d="M2348,700c-3.64.8-5.4-3-7.3-2.9-3-1.55-5-1-6.94-1.08-1.63-.09-3.27,0-4.76,0l-5.88,5.89h-6l-2-1.75-6.69-.34c.83-3,3.06-1.25,4.6-1.85a9.94,9.94,0,0,1,2.09-1.89,12.24,12.24,0,0,1,3.25-.55c-2.59-2-5.89-2.12-6.53-5.2l-5-.54c-1.4-1.11-.53-2.54-.78-3.77h3l2.14,2H2331l1.85,1.85,4,.24c3.31,2.86,8.1,1.92,11.11,5.18Z" transform="translate(-819.86 -627.98)"/><path class="cls-1" d="M1200,1084v11.27l-4,3.34v4.52c3.79,2.6,4.66,7.15,6.85,10.69l3,.58v8.87c-1.39.74-1.8,2.83-3.81,2.73v-4c.18-2.61-2.17-1.61-3.36-2.34-1.32-1.33-.29-3.05-.64-4.55a11.11,11.11,0,0,0-6.42-4.24c.85-1.68,1.66-3.27,2.67-5.24l-2.25-2.78V1100c.55-.22,1.51-.35,1.59-.68.27-1.19-.62-1.39-1.59-1.32v-5.24l3.6-1.23c1.11-.86.11-2.58.43-4.13C1197,1086,1197.94,1084.32,1200,1084Z" transform="translate(-819.86 -627.98)"/><path class="cls-1" d="M2600,678a5,5,0,0,1-5.07-2H2590a7.17,7.17,0,0,1,.08-2.67c.27-.61,1.25-.9,1.92-1.33s1.65-.72,1.92-1.33A7.17,7.17,0,0,0,2594,668h5.08l1.83,4H2604l-2,3.47V678Z" transform="translate(-819.86 -627.98)"/><path class="cls-1" d="M1294,942a39.69,39.69,0,0,1,4.63,0,1.54,1.54,0,0,1,1.37,2v4l-3.55-2c-1.28,0-3.17.12-5,0a1.53,1.53,0,0,1-1.42-2c.43-.67.72-1.65,1.33-1.92A7.17,7.17,0,0,1,1294,942Z" transform="translate(-819.86 -627.98)"/><path class="cls-1" d="M1074,1094a7.53,7.53,0,0,1-1.65-.68c-2.36-1.71-2.34-1.71-4.7,0a7.53,7.53,0,0,1-1.65.68v-4h7C1074.51,1091.48,1073.79,1092.81,1074,1094Z" transform="translate(-819.86 -627.98)"/><path class="cls-1" d="M3518,1388c3.16.78,4.32,2.9,4,6-1.18-.2-2.49.48-4-1Z" transform="translate(-819.86 -627.98)"/><path class="cls-1" d="M2686,1072c.43-.67.72-1.65,1.33-1.92a7,7,0,0,1,2.67-.08c-.43.67-.72,1.65-1.33,1.92A7,7,0,0,1,2686,1072Z" transform="translate(-819.86 -627.98)"/><path class="cls-1" d="M2686,1074c-1,.07-1.86-.13-1.59-1.32.08-.33,1-.46,1.59-.68Z" transform="translate(-819.86 -627.98)"/><path class="cls-1" d="M2314,1162a1.7,1.7,0,0,1,2,2A1.7,1.7,0,0,1,2314,1162Z" transform="translate(-819.86 -627.98)"/><path class="cls-1" d="M2690,1070a1.7,1.7,0,0,1,2-2A1.7,1.7,0,0,1,2690,1070Z" transform="translate(-819.86 -627.98)"/><path class="cls-1" d="M2692,1068a1.7,1.7,0,0,1,2-2A1.7,1.7,0,0,1,2692,1068Z" transform="translate(-819.86 -627.98)"/><path class="cls-1" d="M2312,1160a1.7,1.7,0,0,1,2,2A1.7,1.7,0,0,1,2312,1160Z" transform="translate(-819.86 -627.98)"/><path class="cls-1" d="M3642,1278v2h-2A1.7,1.7,0,0,1,3642,1278Z" transform="translate(-819.86 -627.98)"/><path class="cls-1" d="M2582,1048c-2,.16-1.41-1.83-2.1-2.48-3.33-3.13-4.21-8-7.9-10.4v-3.41l-2.27-4.07,2.13-2.66v-5.8l6.52-3.39,2.65,2h7.91l2-1.63c3.42-1.44,5.69,1.86,8.7,2.41.23.9.47,1.8.72,2.76,1.37,1.46,3.17,0,5,1,.41-2.17.74-4,1.08-5.79,2.48-2.31,3.33.91,5,1.4h6l2.43,3.9h5.12c.54-.49,1.27-1.13,2.09-1.85H2637L2639,1022h4.37c.32-1.78.66-3.61,1-5.41l3.67-1.32c-.77-.87-1.39-1.56-2.06-2.3V1005c2.07-2.45,5.08,0,7.37-1.4.87-2,1.71-4,2.63-5.91a18.8,18.8,0,0,0,2.22-6.15c.22-2,2.22-3.77,1.67-6.72l4.09-2.68v-3.53l5.72-3.74.51-2.12c1.35-1.48,3.13-.43,4.67-.77.72.65,1.44,1.3,1.91,1.74l5.07-2.61c.05-.65.09-1.3.13-2-2.87-1-5.09-3.81-8.8-3.14l-2.22,1.87h-13.72L2655,970h-4c-2.07,2.81-5.53,4.5-6.92,8a1.7,1.7,0,0,0-2,2c-1.18-.2-2.49.49-3.59-.57-.65-1.14-.8-2.33.4-3.2,1.57-1.14,1.14-2.73,1.19-4.23v-2a1.7,1.7,0,0,0,2-2v-2c2,.1,2.42-2,3.67-2.66,0-5.64,0-11.15,0-16.67,0-.22-.44-.45-.68-.67h-3c0-4.17.06-8.35,0-12.52a1.52,1.52,0,0,0-2-1.48v-8.92l2-2.11c0-2.44-.09-5,.05-7.52A1.52,1.52,0,0,1,2644,912v19c.7.69,1.43,1.37,2.11,2.1.86.93,2,1.61,2,3.22,0,.8.92,1.6,1.74,2.88v9c1.59,2.45,3,4.72,6,3.9.08,1.4.12,2.05.18,3.06l3.59,1.21c.15.75.34,1.66.6,3,1,.73,2.21,1.77,3.57,2.61s2.74,1.41,4.07,2.08c3.19-1.59,6.56-2.71,9-6,1,0,2.59-.49,3.49.09,2.9,1.89,6.69,2.54,8.4,5.9H2693c.36.52,1,1,1,1.56.1,3,.05,6,.05,9-1.47,2.14-2.79,4.48-6,3.6v2.73c-2.44.91-4.62,2.1-6,4.35a2.56,2.56,0,0,0,0,1c1,1.93,2,3.85,3,5.77h2.23a13.07,13.07,0,0,0,1.23,3.37A33.66,33.66,0,0,0,2692,999c0,.59.27,1.49-.06,1.85a8.39,8.39,0,0,1-2.25,1.36L2684,996h-8l2.24-4.76c-.59-.59-.83-1-1.07-1-2.63-.05-5.27,0-8.18,0,0,0-.41.12-.49.36-.3.87-.5,1.79-.73,2.69l-3.65,3.65v8.06c.77,1.83,3.56,2.52,3.88,5.06h-5.37c-.33,1.76-.68,3.58-1,5.4-2.21,2-3.33-.39-4.63-1.38-1.69,1.57-.63,3.35-1,4.89l2,2.14v2l-2.91,2.91h-3.78c-2.08,1.11-1,3-1.51,5.59l-3.69,2.53H2643c-2.85,2.59.57,3.94,1.05,4.71,0,1.47.14,2,0,2.12-2.38,2.31-4.81,4.59-7.48,7.11H2635l-7.36,7.37-5.52,2.62c-1.27.13-3.5-.07-5.95,0,.68-2.61,2.38-3.62,3.71-4.81a19.18,19.18,0,0,1,4.09-2.17v-4.6c-1.32-2.28-2.15-3.7-3.12-5.36l-3.92,2.69c-2.23-1.3,0-3.42-1.06-4.66l2.2-2.2-6.44-4.87-2.9-.31c-1.4-1.52-.34-3.28-.8-4.83-2.08-2.07-3.48-.68-4.85,1.21a16.76,16.76,0,0,1-2.66-.76c-.56-.28-1.12-1.39-1.41-1.29-2.37.76-3.1-2.36-5.19-2.08l-1.16.15-1.32,3.74h-10c-1.47,1.33-2.46,2.22-3.32,3V1039c1.3,2.12,3.37,2.94,6,3.7a40.43,40.43,0,0,1-.42,4.57C2583.57,1047.61,2582.57,1047.76,2582,1048Zm44.23-9.44c-.44-1.55-.3-3.1-2.05-1.74.55.46,1.09.92,1.2,1,.93,1,1.48,2,2.06,2,1.46,0,3.15.71,4.46-.79C2630.25,1037,2627.94,1038.39,2626.23,1038.56Z" transform="translate(-819.86 -627.98)"/><path class="cls-1" d="M2622,642h7l2.29-2.15c2.72.29,4.79,3.28,7.84,2.24l2.73,2.73c.22,1.11.41,2,.61,3h4.91c.67-1.13,1.68-2.87,2.23-3.8H2661l4,3.86c2.1.66,3-1,4-1.82h4.1l3.76,3.76h8.37l2.91,4.1H2695l6.94,7.41c0,.2,0,.85.06,1.5,2.44,3.55,7.51,3.83,9.92,9,0,0,.07,1.32.13,2.72A14.06,14.06,0,0,0,2720,681v1.92c1.44,2.46,4.37,0,6.17,2.08,1.13,1.29,3.18,1.76,5.52,3h9.1l2.26,2h3.85l2.18,2H2756c.2,1.18-.48,2.49,1,4h5c.62,1.06,1.24,2.13,2.05,3.54.22,1.76-.76,4.09.87,6.53l3.34-.71-2.21-2.49c4.81-1,4.81-1,8.86.76l-4.92,2.91c1.68,2.18,3,3.59,4,5.21,1.72,2.88,1.62,2.92,4.4,4.27,1.91.92,3.76,2,5.61,3,.14.08,0,.62,0,1v5.15c1.52,1.26,2.82.69,4,.85v3.6l3.53,2.83c.6,1.8.89,2.68,1.17,3.53h2.13c2.2,2,2.2,2,3.24,1v-6.54l3.19-.45,1.37,3.91h8.73c3.12,1.29,4.58,1.78,5.91,2.5.42.23.5,1.08.73,1.65h-3c-2.28,4.58-2.28,4.58-9.59,8.08l-2.45-1.92h-9.19c-3.49-2-6.41-4.64-10.54-4.16-2.32-1.36-3.38-3.63-4.28-6h-5c-1.19-.21-2.53.52-3.67-.66-.24-1.66-.5-3.43-.73-5l-3-.71c-.33-2.1-2.13-3.53-2.58-5.59-.22-.55-.35-1.51-.68-1.59-1.19-.27-1.39.62-1.32,1.59h-2v-3c-1.62-1.93-3.78-3.28-4.38-6.19-.4-2-3.54-2.6-3.79-5.43-.11-1.22-1.91-2.55-3.24-3.32-1.84-1.06-4.41-1.18-5.83-2.56s-3.84-.92-4.93-2.69c-1.28-2.09-3.59-2.47-5.51-3.55-3.8-2.14-8.25-3.29-11.05-7-4.16-1.31-7.84-3.57-11.64-5.61a27.81,27.81,0,0,0-3.38-1.28c-.09-.77-.17-1.41-.33-2.65l-3.91-2.59V671c-1.09-1.82-3.94-.51-4.83-2.82s-3.9-1.84-5.56-3.45c-1.28-1.24-3.62-1.06-4.8-2.81h-21.38c-2.27-1.33-4-2.74-6.06-3.47-2.31-.84-5.09-.32-6.94-2.49h-14c-.25,1.22-.43,2.13-.66,3.25-1.5,1.8-3.47,0-5.38,1.19-.2-1.78-.3-2.69-.42-3.81l3-.85c.21-.24.93-.7.93-1.17a12.13,12.13,0,0,0-.68-2.79l-2.36,2.18h-5.22c-2.34,2.1-6.71,1.8-7.67,6h-12a1.49,1.49,0,0,1-1.93-1.51,3.72,3.72,0,0,1,1-2.46c1.14-1.06.78-2.31,1-3.54a8.67,8.67,0,0,1,1-2.47c.07-.13.61,0,.94,0l1.5,3,3.06-4.93,5.05-.24a11.94,11.94,0,0,1,.43-2.81C2620.51,644,2622.25,643.61,2622,642Z" transform="translate(-819.86 -627.98)"/><path class="cls-1" d="M2690,914.51l4.07-3.88v-3.69c1.34-1.71,3.16-.48,4.81-1.18.9,3.31,4.31,5.61,2.75,9.8l-3.13.73a45.57,45.57,0,0,0-3.59,3.88,22.16,22.16,0,0,0-1.93,3.76l-3-2.91Z" transform="translate(-819.86 -627.98)"/><path class="cls-1" d="M2729.09,960.07c-1.76-1.25-.85-3-1.23-5.32l4.35-2.75h1.25c.19,1,.41,2.14.67,3.53l-3.32.65C2730.31,957.31,2729.71,958.68,2729.09,960.07Z" transform="translate(-819.86 -627.98)"/><path class="cls-1" d="M2668,1009.93l4,.31c0,1.52.08,2.74,0,3.93a9.52,9.52,0,0,1-1,2.25l-2.93-4Z" transform="translate(-819.86 -627.98)"/><path class="cls-1" d="M2676.07,996c-.09,1.21-.17,2.39-.26,3.61-2,0-2.51-1.66-3.63-2.41C2672.91,995,2674.72,996.38,2676.07,996Z" transform="translate(-819.86 -627.98)"/><path class="cls-1" d="M1380,1470h-13.32c-.29,1-.61,2.13-1,3.56l-2.75.63a22.75,22.75,0,0,0-1.28-3.47c-.22-.41-1.07-.49-1.63-.72v-23c1.61-1.61,3.45-2.62,3.77-4a6.48,6.48,0,0,1,2.23-4v-4l2-2.12V1428c2-.46,3.41-2.31,5.54-2.54.15-2.71,3.21-4.46,2.46-7.46,2.64,0,5.29,0,7.93,0a3.86,3.86,0,0,0,1.41-.5l2.86-5.64v-7.49l6-3.43c-.79-2,.63-4.32-.75-6.49l-1.37-1.37c-.42-1.53.6-3.27-.77-4.79a42.13,42.13,0,0,1-4.57-.64c-.34-.08-.48-1-.71-1.62v-2c2.48-.38,3.25-3,5.24-4,2.89-.21,5.83.4,8.58-.48.14-2.59.26-4.81.36-6.72l1.7-1.7c.1-1.57.19-3.13.24-3.88l5.88-3.87v-10.19l2.09-2.66c-.16-2.5-2.1-3-2.91-4.37s-1.25-2.83-2.14-4a25.31,25.31,0,0,0-2.85-2.93v-6.37c1.35-1.35,3.09-2.33,3.53-3.73.51-1.58.87-3,2.26-4l-2-2.16V1307c1.57-1.93,3.71-.74,5.58-1a41.51,41.51,0,0,1,5,0c2.43-.83,3-4.54,6.69-3.9l1.09,3.26c1.4,1.32,3.16.26,5,.77l1,3L1438,1313v2.26c5.42.62,6.41,5.25,7.94,9.3.42,1.13.08,2.41,1,3.59,1.16,1.41,1.78,3.25,3,5.55v5.13c2.49,1.46,1.33,5.14,4,6v6.3l-5.82,5.82v4.27l-4.12,3.24V1370c-1.93.93-4.19,1.49-5.69,2.87-1.76,1.62-3.69.73-4.88,1.1l-7.43,7.43V1400c-5.93,2.36-6.67,8.71-10,13.3v4.7c-.33,0-.88-.12-1,0-1,1.87-2.45,3.69-2.94,5.72-.74,3.06-2.72,4-5.39,4.63-.34.07-.48,1.06-.71,1.63-3.17-.71-5.06,2.16-7.76,2.76-.36,4.06-4.29,5.43-6.24,8.46V1446c-4,1.6-5.84,5.84-8.8,7.64-2.09.76-3.88-.36-5.12,1.27.1,1.84-.66,3.75,1.1,5.39.8.74.89,2.2,1.43,3.28s1.2,2.06,1.56,2.66C1381.23,1467.88,1380.61,1468.94,1380,1470Z" transform="translate(-819.86 -627.98)"/><path class="cls-1" d="M1666,1246.09c.2.48.3,1.39.69,1.53a10.42,10.42,0,0,0,2.86.24c.23-1.1.41-2,.62-3.06L1675,1240c3,0,3.45,1.93,4.79,2.77l-2.51,4.3,4,1.18c.24.24.67.47.67.71,0,2.63,0,5.28,0,8.16l-3.1,2.73h-5.45l-2.55,2.14c-1.94,0-4.23,0-6.51,0a9.77,9.77,0,0,1-2-.48c-.18-.82-.36-1.72-.6-2.88l-3.53-1.23v-10.62l1.35-1.35c1.41-2.28-.9-5.25,1.37-7.38,2.49,2,.11,5,1.62,7.74Z" transform="translate(-819.86 -627.98)"/><path class="cls-1" d="M1685.91,1138H1683c-.34-.52-1-1-1-1.56-.09-3.26,0-6.53,0-10l2.87-.51a8.65,8.65,0,0,1,3.68,5.68l5.68,1c-2.32,2.84-5.27.48-8,2C1686.14,1135.5,1686,1136.74,1685.91,1138Z" transform="translate(-819.86 -627.98)"/><path class="cls-1" d="M1665.87,1246.62c.52-2.56-.88-4.87,1.25-6.52,1.5,1.31.83,3,.79,4.46C1667.89,1245.14,1666.83,1245.69,1665.87,1246.62Z" transform="translate(-819.86 -627.98)"/><path class="cls-1" d="M3582.41,1344c3.33,1.08,3.24,4.6,5.07,6.72.84,1,.45,3,.58,4.25-.57.57-.8,1-1,1-2.64,0-5.29,0-8.21,0l-1.14-3.31-7.6-3.47c1.58-2.5,4.88,0,6.71-2.69C3577.81,1345,3580.56,1344.74,3582.41,1344Z" transform="translate(-819.86 -627.98)"/><path class="cls-1" d="M962,694v-6h6v6Z" transform="translate(-819.86 -627.98)"/><path class="cls-1" d="M3006,684c-1.69.12-2.2-1-1.93-2.29a2.58,2.58,0,0,1,1.64-1.64c1.31-.27,2.41.24,2.29,1.93A1.7,1.7,0,0,1,3006,684Z" transform="translate(-819.86 -627.98)"/><path class="cls-1" d="M3006,690a4.9,4.9,0,0,1-3.69-3.31c1.12-1.24,2.49-.47,3.69-.69Z" transform="translate(-819.86 -627.98)"/><path class="cls-1" d="M2790,750v-2a7,7,0,0,1,2.67.08c.61.27.9,1.25,1.33,1.92Z" transform="translate(-819.86 -627.98)"/><path class="cls-1" d="M2796,750c.37-1.28-1-3.09,1.17-3.83C2798.05,748.82,2798.05,748.82,2796,750Z" transform="translate(-819.86 -627.98)"/><circle class="cls-1" cx="1975.14" cy="123.02" r="1.41"/><path class="cls-1" d="M2790,748h-2c-.07-1,.13-1.86,1.32-1.59C2789.65,746.49,2789.78,747.45,2790,748Z" transform="translate(-819.86 -627.98)"/><path class="cls-1" d="M3079.41,826.41c.2.58.36,1.18.6,1.74s.53,1.11.86,1.78l2.21-1.93c4.5,0,9.15,0,13.8,0,.25,0,.5.39.74.59.13.62.26,1.23.54,2.61l-6.58,4.17c-1.85-.59-4.4,3.38-8.85,2.45l-2.84,3,1.92,1.92v5.68a33.34,33.34,0,0,1-2.29,4.9,26.48,26.48,0,0,1-3.47,3.56c1.19,2.47-2.41,3-2,5.74.22.33.75,1.09,1.74,2.51.08,1.5.21,3.74.33,5.8,1.31,3.29,5.1,2.68,7.12,4.9.59.65,2.52.1,4,.1.29.92.56,1.81.92,3,3.46,2.77,8.36,2.87,12,5.13,2.11-.58,1.71-2.07,1.93-3.23l3.63-3.63c.16-1.48.33-3.05.5-4.55,2.25-1.43,4.61-.13,6.48-.79,3.36,1.9,3.09,6.14,6,7.79a70.09,70.09,0,0,0,7.18,3.14c.42,3.48-2.5,4.13-3.83,6.13v9.37l-4.11,7.2V909l-2.05,2.2v4.14l-3.71,1.3v5.15l-3.16,6.17-3.86,3.86h-6.46c-1.2-2.56-2.36-5.07-3.58-7.56-.09-.17-.58-.15-.88-.22-2.35,0-3.15,2-4.3,3.45a6.68,6.68,0,0,0,0,1,1.47,1.47,0,0,0,.32.85c2.54,2.07,4.09,4.86,5.65,9.08v2.32c2.31,3.5,5.71,5.36,9.77,7.3h3.47c.3.8.63,1.66,1,2.63l-2.83,3-4.39.52-3,2.7V963c2.1,1.33,4.9,1.66,6,4.36.43,2.55-2.2,3-2.78,4.55H3097c-.28-.28-.72-.52-.72-.75-.05-4,0-7.94,0-11.85-1.72-1.05-3.32-1.93-4.79-3s-2.53-2.12-3.34-2.81v-8.62l1.47-1.48c.51-1.87,1.17-3.74-.49-5.41l-2.14,2c-2.45.45-3.33-1.71-4.8-2.89.35-3.22-2.81-4.14-4.17-6.38v-5.79L3074,921v-6.55l-3.23-.66c-1.8-1.8-.39-4.25-.82-6.63l-1.89-2.19v-4c-3-1.6-3.84-4.88-5.48-7.56-.77-1.24-.6-3.07-.87-4.72l-3.59-3.59v-3.75l-2.05-2.4v-5.7c-2.31-1.59-1.88-4.72-4-6.5-.65-.55-.1-2.52-.1-3.72-.75-.82-1.4-1.55-1.91-2.12v-8L3052,851a26.55,26.55,0,0,0-.38-4.24c-.2-.85-1.44-1.48-1.57-2.31a33.85,33.85,0,0,1-.08-5.17l1.9-2.27V825.36l6.68-4.37c-.89-1.58-1.63-2.88-2.38-4.19L3059,814h7.35l5.56,2.87V823c-.46,1.15-2.64,1.81-1.75,4.24.6.21,1.69,1,2.23.71C3074.62,826.76,3076.64,825,3079.41,826.41Zm27.86,59.48c-1.13,1.16-2.62,1.84-2.89,3.49l1.46,1.46c.12,2.23.25,4.47.4,7.21l3.73-.5v-4.42c1-1.28,2.75-2.14,2-4.19C3110.62,888.05,3110,886.2,3107.27,885.89Zm-37.52-2c.8-.42,2.52.9,4.07-.66-1-1.88-2.81-3.08-4.24-4.58-.37-.38-1.09-.43-1.67-.64-1.83-.09-1.89,1.19-1.94,3.31Z" transform="translate(-819.86 -627.98)"/><path class="cls-1" d="M3313,834h-2.18c-1.11,2.46-2.26,5-3.41,7.53l-4.67,2c-2.69-.63-2.14-4.45-4.54-6.25v-12c.86-1.58,1.57-3.78,3-5.3s3.62-2.4,5.87-3.8H3313l2.34,2.14c.29.42.62.68.62.94,0,4,0,8,0,11.75Z" transform="translate(-819.86 -627.98)"/><path class="cls-1" d="M2322,1266c1.59,0,3.22-.34,4.37,1.33.92,1.34,2.42.42,3.63.67-.19,2.11,2.22,2.28,2.59,3.91h6l7.58-4.26,3,2.35h5.23a54.48,54.48,0,0,0,7.08,3.91c2.32.9,5,1.79,6.46,3.36,2.1,2.27,5.25,2.47,7.11,4.73h15.76l2.87-2.21a10.51,10.51,0,0,1,2.1,1c1,.87,1.89,1.85,3,3h5.93l3.57-2.18,2.72,2.28h21.42c1.57.72,2.34,2.59,4.32,2.11s2.86,1.29,4.23,1.74c1.59.53,3,.85,3.87,2.25h14.73l3.13-3.9h4.76a15.64,15.64,0,0,0,.56,2.74c.22.56.95.92,1.23,1.48a27,27,0,0,1,1.12,3,10.28,10.28,0,0,1,3,1.09c1.06.76,1.84,1.87,3.56,1.46l2.1-1.88H2483l2.08,2h9.86c.93.8,1.84,1.59,3,2.59l3.24-2.59H2504a1.7,1.7,0,0,0,2,2c-.23,1.21.56,2.59-.6,3.62l-3.67,1.19,3.45,3.19h5.88c1.75,3.55,3.35,6.77,4.94,10l-.86,2.12a21.63,21.63,0,0,0-2.64-2.56c-1.12-.77.44-3.27-2.35-3.18,0,3.7,0,7.24,0,10.77,0,.24.44.47.67.7,1.35-.61,2.07-2.61,4.25-1.77l1.84,4c1.36-2.62,4.71-1.91,6.29-4.23s4.81-2.57,7.55-4.09c.42.75.82,1.48,1.22,2.21v4.94l-1.95,2.11,2.8,2.8c1.57,0,3.18.6,4.64-.34l1.46-1.46,2.09,2c1.51-.35,3.25.67,5.06-1.07-.93-2,1.23-4.7-1.11-6.93h-3v-5.07c1.13-1.11,2.29-2.3,3.51-3.42,1.06-1-.32-3.61,2.68-3.5l3.81,2v3l2,2.09V1323l-1.91,2.09v6c2.74,1.47,6.2,2.11,6.32,6.21,0,.25,1,.47,1.62.7h7.57l3.16,3.94,2.74.28c.21.8.45,1.7.77,2.94L2576,1347v4l1.47,1.44c1.09,2.09.2,4.43.62,6.64l1.41,1.41c.16.26.47.52.48.78,0,2.63,0,5.27,0,7.72l-3,3h-4l-3.66,3.75h-5.61l-2.93,2.19h-5.72c-.57.57-1,.8-1,1-.05,2.66,0,5.31,0,7.94l-2,2.18V1412a1.55,1.55,0,0,1-1.39,2,16.66,16.66,0,0,1-3,0l-3.58-2c0-3.63,0-7.26,0-10.89,0-.24.38-.48.59-.73,2.17.18,2.53,3.23,5.38,3.08,0-3.19,0-6.43,0-9.67a2,2,0,0,0-.15-.92,3.5,3.5,0,0,0-.68-.71l-4.67-.38c-.22-2.24-1.82-3.56-2.37-5.24s0-3.6-1.65-5.33c-1-1.13-.79-3.48-1.1-5.21H2532l-1.8-.74v-9.8l3.71-7c-.39-1,.83-2.69-.67-4.3h-7.52l-5.57,4.46c-.43,2.26.57,4.07-1.12,5.33h-2.09l-1.79,3.8-2.91.72v4.86c3.23,1.59,6.73-.42,10.11,1.67-.8,1.7-1.58,3.33-2.35,5-.57.24-1.55.37-1.63.72a45.44,45.44,0,0,0-.7,5h-10.31l-2.69,2.36h-5.79l-1.6,1.6c-2.43.24-5,.92-6.81-.34-1-2,.37-3.8-1.2-5.15h-4.14l-3.73,5.77H2476c-.43-.67-.72-1.65-1.33-1.92a3.69,3.69,0,0,0-2.56.2c-.32-1.27-.18-2.82-1.93-1.46a17.45,17.45,0,0,0,1.93,1.46c-.11,1.36-.11,3-.11,4.8l-4,1.83c0,.79,0,1.44,0,2.1l-3,3a21.31,21.31,0,0,0-4.64.08c-1.44.31-2.69,1.46-4.14,1.86a15.14,15.14,0,0,1-3.76.08c-.28,1.35-.46,2.26-.65,3.18-1.3,1.51-3.06.47-5.07.91-.29.87-.66,2-1.13,3.37l-3.32,1.15c-.16,1.51-.34,3.07-.49,4.42l-2.74,3H2434v-11l5.34-3.1c1.15-2.63.53-4.94.64-7.2.1-2,0-3.94,0-5.73l5.91-5.91V1381l-7.43-6.88-1.78-.12-1-3.26a5.24,5.24,0,0,0-4.57-.44l-6.07-3.42,2.91-4.21c0-1.51,0-3.49,0-5.47,0-.26.36-.5.56-.76,1.9-1.27,3,.13,4.26,1.44h22.54l6.51-7.78,3.22-.18c1-1.93,2.56-3.8,2.73-5.8.27-3.09,3.27-1.4,4.23-3.1,1.16-2,3.21-3,5.7-3.55v-6.66c-.27-.27-.5-.7-.74-.71-2.65,0-5.3,0-8,0l-2.13,2h-16.16c-1.31,3.26-5,3.58-7.48,5.57-.85.68-2.49.38-3.5.5-1.94-.55-2.86-3.44-5.55-1.37-.12,1.31-.25,2.88-.41,4.72l-2.73.76c-1,2.06-1.93,4.41-4.15,5.77H2421l-2.19-2h-9.35c-3.81,2.88-9.18,3.69-12.39,8h-19.76c-1.34.52-1.66,2.34-3.33,2v-5c1.35-2.34,4-2.94,6-4.29-.32-1.55.7-3.34-.89-4.63L2377,1342l-7.22,7.69v3.89c-2,.55-3.57,1-3.74-1.57,2,.19,1.86-1.29,2.16-2.82a17.62,17.62,0,0,0-2.69-2.63,15.76,15.76,0,0,0-3.36-1.23c-.05-.86-.08-1.51-.12-2.24-2.37-2-3.69-5.4-7.41-5.36-.88-2.45-1-4.43.92-6.39.72-.73.46-2.44.71-4.12-1.26-1.26-3-2.43-3.88-4-.74-1.32-.47-3.2-2.27-3.84v-6.14l-7.37-6.93c-1.34-.66-3-1.44-4.64-2.25-1.37-.69-2.72-1.42-4.32-2.25l-3.12,2.37-2.51-.75,2.41-4.21-4.49-2.08V1295l2.84-2.84,4.58-.33c.17-.59.38-1,.3-1-1.38-1.43-2.79-2.82-4.41-4.44l-2.62-.55c-1.08-2.4-2.19-4.93-3.38-7.41a6.44,6.44,0,0,0-1.33-1.44Zm185.74,89.91c.77,1.33-.67,3.17,1.44,3.92.75-1.13,2.38-1.63,2.41-3.64-1.22-.09-2.4-.17-4.59-.19,2.21-2.29,4.82-2.6,6.66-4h5.11l2.25-1.92c1.43-.73,3.81,1.14,5.08-1.54-.57-1.29.67-3.11-.93-4.39l-2-.16-2.21,2c-2.17,0-4.47,0-6.76,0a6.33,6.33,0,0,1-1.74-.53L2511,1344c-1.55.25-3.24-.64-4.67.59-.33,1.82-.67,3.63-.95,5.16l-3.07.6c-.21,2.13-1.24,4.08.71,5.62C2504.71,1356,2506.35,1356,2507.74,1355.91Zm.11,14.09H2499l-4.94,4.94c.13,2.24-.71,4.57.68,6.88h7.41l5.7-4.42Zm-87-44c-1.28,2-3.85,3.13-4.86,5.64.18.64.35,1.24.52,1.86,2.18.91,4.43.45,5.9.36l7-3.56,1.31,3.6,2.65-.18c1.16-1.69.54-3.32.54-4.89L2431,1326Z" transform="translate(-819.86 -627.98)"/><path class="cls-1" d="M2566,1288h-3l-1.87,1.91a79.59,79.59,0,0,1-8.2,0c-1.6-2.66-5.81-1.63-6.61-5.19,1.64-1.32,4.73-1.25,5.73-4.51-.18-.53-.5-1.4-.79-2.21H2549l-1.85,1.7-5.28-2.71,4.09-1.91V1270a1.7,1.7,0,0,0,2-2h4.94l2.51,2.35,3.94-2.27c1.23,3.31,5.19,3.21,7.31,5.62,4.1,0,4.72,3.49,6.16,6.16l1.38.1,5.89,5.1c-.27,1.15-.4,1.75-.54,2.35-.25.2-.5.56-.75.56C2574.56,1288,2570.28,1288,2566,1288Z" transform="translate(-819.86 -627.98)"/><path class="cls-1" d="M2583.71,1288.71,2583,1290c-.22-.22-.66-.49-.63-.66a6.53,6.53,0,0,1,.63-1.34Z" transform="translate(-819.86 -627.98)"/><path class="cls-1" d="M2446,1432v-3.18c6.61-1,7.42-8.08,11.88-11.68v-5.45c1.2-2,2.23-3.77,3.28-5.53.29.29.73.53.73.76,0,5.28,0,10.55,0,16L2460,1425v2.16c-1.84,1.54-3.58,4-5.82,4.61-2.8.75-3.33,4.13-6.22,4.21a7.17,7.17,0,0,0-.08-2.67C2447.65,1432.72,2446.67,1432.43,2446,1432Z" transform="translate(-819.86 -627.98)"/><path class="cls-1" d="M2434,1422a1.7,1.7,0,0,1,2,2h-2Z" transform="translate(-819.86 -627.98)"/><path class="cls-1" d="M2434.56,1423.77l-1.74,2C2431.46,1424.07,2433,1424.21,2434.56,1423.77Z" transform="translate(-819.86 -627.98)"/><path class="cls-1" d="M822,676c.19-1.21-.48-2.58.56-3.66,2.46.94,4.74,3.23,7.61.5a23.87,23.87,0,0,1-3.47-1.23c-.41-.21-.48-1.05-.7-1.61h4.93l2.14,2H838c-.22.56-.35,1.52-.69,1.6-1.5.35-3.07.45-4.89.68l-.54,2.53,2.29,2.4-3.56,1.16c-1.18,1-.38,2.42-.61,3.63-3.2-2.3-3.2-2.3-4.16-5.16C825.18,677.06,821.62,679.19,822,676Z" transform="translate(-819.86 -627.98)"/><path class="cls-1" d="M3977,1386c1.44,1.33,1.44,2.67,0,4C3975.56,1388.67,3975.56,1387.33,3977,1386Z" transform="translate(-819.86 -627.98)"/><path class="cls-1" d="M3976.71,1381.71l-.71-.71a6.53,6.53,0,0,1,1.34-.63c.17,0,.44.41.66.63Z" transform="translate(-819.86 -627.98)"/><path class="cls-1" d="M934,854h-5.38c-.23-1-.49-2.09-.7-3,1.45-1.31,2.52-1.34,3.73-.38A18.86,18.86,0,0,0,934,852Z" transform="translate(-819.86 -627.98)"/><path class="cls-1" d="M2092,704c.43-.67.72-1.65,1.33-1.92A7.17,7.17,0,0,1,2096,702c-.43.67-.72,1.65-1.33,1.92A7.17,7.17,0,0,1,2092,704Z" transform="translate(-819.86 -627.98)"/><path class="cls-1" d="M2522,1270h2v4.89c-1.84,2.23-3.26.91-4.84-.74l-2,1.57c-1.5-.38-2.47-3.08-5.06-.86-.06,1.13-.14,2.68-.22,4.37-2.78,2-4.43,5.43-7.9,6.77l-2-3.47V1280c.37-3.43,5.84-3.69,4.08-8h6.79l2.17-2Z" transform="translate(-819.86 -627.98)"/><path class="cls-1" d="M2590,1115.93c-.31,2-1.72,3-3.72,4.08-.09-1.31-.16-2.39-.26-3.79Z" transform="translate(-819.86 -627.98)"/><path class="cls-1" d="M2820,632h2.53l3.47-2v3.09l2.11,1.81c-2.45,1.37-5.45,1.84-6.11,5.1-2.2,0-4.4-.11-6.59,0a1.53,1.53,0,0,0-1.41,2h-2v-8c2.2,0,4.4.11,6.59,0A1.53,1.53,0,0,0,2820,632Z" transform="translate(-819.86 -627.98)"/><path class="cls-1" d="M2787.9,724.65l3.69-.93c.17,1.49.29,2.56.4,3.6C2789.32,728.29,2790,724.59,2787.9,724.65Z" transform="translate(-819.86 -627.98)"/><path class="cls-1" d="M2900,636h4a2.79,2.79,0,0,1,1,0,1.35,1.35,0,0,1,.69.66c.82,1.93,1.59,3.88,2.37,5.82a22.2,22.2,0,0,1-8,3.5Z" transform="translate(-819.86 -627.98)"/><path class="cls-1" d="M2900.56,645.77l-1.74,2.05C2897.46,646.07,2899,646.21,2900.56,645.77Z" transform="translate(-819.86 -627.98)"/><path class="cls-1" d="M946,794h-2a4.36,4.36,0,0,0-3.64-3.86c-2.44-.24-2.72-2.55-4.4-2.89.09-1.13.14-1.77.2-2.61l3.34-1.14c1.85-2.19-.78-3.17-1.26-4.73L941,776l2.08,2H948c-.23.56-.31,1.41-.72,1.63a23.07,23.07,0,0,1-3.54,1.3l4.4,2.21c1.36.69,2.75,1.33,4.07,2.09S954,788.07,956,788l2.15,3.7c-2,.14-3.72.76-5.6-.14-.4-1.16-.81-2.31-1.23-3.5-2,1.36-3.58,2.75-3.7,5.25C947.6,793.56,946.56,793.77,946,794Z" transform="translate(-819.86 -627.98)"/><path class="cls-1" d="M914,738v5l-2,2.16V749c-.67.77-1.28,1.45-1.87,2.14l1.57,1.57c-.87,1.74-1.75,3.53-2.65,5.35l-2.91-2.91c-.34-4.21.16-8.46-.27-12.52l-4-1.37c.68-.51,1.13-1.14,1.62-1.17,2.6-.2,5.22-.2,7.82-.43.28,0,.47-1,.7-1.62Z" transform="translate(-819.86 -627.98)"/><path class="cls-1" d="M940,738h-2.89l-2-1.89c-2.14,1.63-.66,3.94-1.07,5.89l-1.85-.75v-5.53l-1.93-3c2.59-2.15,3.58.5,5.34,1.57l3.79-2C940.59,734.1,939.75,736.11,940,738Z" transform="translate(-819.86 -627.98)"/><path class="cls-1" d="M966,826h-5.09l-2.65-3c.4-.5.94-1.16,1.55-1.89-1.32-2.28-4.47-3.47-4.26-6.81l-4.79-.5c-1.59-1.37-.19-3.17-.89-4.47,2.22-3.15,3.71,0,5.51.34,1.42-1.37,0-3.14.77-4.47L954,802.94V798a1.7,1.7,0,0,1,2-2l5.5,2.69c.13.41.51,1.55.89,2.72,1.76,1.13,3.74.36,5.61.59v20.78C967.51,824,965.7,824.34,966,826Z" transform="translate(-819.86 -627.98)"/><path class="cls-1" d="M972,834c-.08,2.42-1.66,2.08-3.43,1.77-.34-1-.71-2.16-1.07-3.27l-3.27-1.07c-.31-1.77-.65-3.35,1.77-3.43.23.56.36,1.53.7,1.61a39.24,39.24,0,0,0,4.54.63C972.6,831.37,971.76,832.78,972,834Z" transform="translate(-819.86 -627.98)"/><path class="cls-1" d="M2544,632h-4v-3.43l2.93-.59C2544.6,629.37,2543.76,630.78,2544,632Z" transform="translate(-819.86 -627.98)"/><path class="cls-1" d="M2543.77,631.44l2.05,1.74C2544.07,634.54,2544.21,633,2543.77,631.44Z" transform="translate(-819.86 -627.98)"/><path class="cls-1" d="M2487.29,1389.71,2486,1389c.22-.22.49-.66.66-.63a6.53,6.53,0,0,1,1.34.63Z" transform="translate(-819.86 -627.98)"/><path class="cls-1" d="M858,720c-2-1.18-2-1.18-1.17-3.83C859,716.91,857.63,718.72,858,720Z" transform="translate(-819.86 -627.98)"/></g></g></svg>