<svg xmlns="http://www.w3.org/2000/svg" viewBox="0 0 4320 2160"><defs><style>.cls-1{fill:#fad967;}</style></defs><g id="Layer_4" data-name="Layer 4"><g id="BSk"><path class="cls-1" d="M3902,1480H3907c1.77-1.15.79-3,1.21-5.36l4.36-2.71.55,0,3-5.22c.8-.4,1.07-.66,1.34-.66,1.95,0,3.89,0,5.6,0l3.87,3.87H3937c2.66-.67,2.07-5.17,4.81-5.72s3.34-4.05,6.22-4.15l1.8.74v12.91L3944,1477v4l3.92,4.17c-3,1.32-5.46,2.51-6.53,6.21-.92,3.18-3.88,5.74-3.42,9.58l-2,2.15v3h-5.12c-2,2.8-5.5,4.48-6.88,8-2.46.41-3.27,3-5.39,4.07h-3.4c-2.36,1.53-3.45,4.32-6.52,4.32-.23,0-.46,1-.69,1.61a14.21,14.21,0,0,0-1.7.72c-.79.46-1.54,1-2.44,1.61l-3-2.21h-9.06l-2.44,4-4.68-.29c-.52-1.46-.93-2.62-1.39-3.93l-2.3,2.1H3874c-3.27,0-6.53,0-9.8,0a6.78,6.78,0,0,1-1.74-.52L3861,1524c-2.53,0-5.13,0-7.73,0-.26,0-.52.32-1,.63-.67-.3-.49,2-1.85.78-.38-1.15-.77-2.3-1.13-3.4h-4.16c-.7-.66-1.4-1.32-2.28-2.13a23.74,23.74,0,0,1-1.23,3.39c-.22.41-1.06.48-1.62.71v-4.77c-2.38-2-2.08-5.83-5.35-7.23H3830v-6.84l1.79-2v-4.4c-2.52-2.17-3.48.31-4.91,1.24H3824c-.26-2-2-2.89-3.34-4l-1.82.16c-1.78.66.35,4.22-2.84,3.84-.29-.65-.59-1.3-.79-1.74L3812,1500v-10c2.76-1,4.21-3.37,6-5.24V1476a1.7,1.7,0,0,0,2-2v-4c1.66-.3,2,1.52,3.35,2H3826c3.08,2.74,5.55,4.93,8,7.17.16.15,0,.64,0,1.09l-2.08,3.79c.58,2,2.8,3,2.14,5.4s2.92,3.47,2,6.15c-.22.65.52,1.63.81,2.41H3843l2.1,1.84h12l1.9-1.9c2.85,0,6.12.08,9.39,0s6.49.5,9.33-.38c.3-1.48.49-2.39.76-3.74l3.57.73a18.44,18.44,0,0,0,0,2.45c0,.26.43.47.71.75h8.56c.49-1.37.9-2.52,1.42-4h8.41c1.81-1.87-.27-4.29,1.71-5.75s1-3.52.83-5.38l-1.72-.7Z" transform="translate(-166.05 -80)"/><path class="cls-1" d="M2172,580h4v5.33l-4,1.31a10.64,10.64,0,0,0,.41,2.7c.16.37,1,.45,1.57.66v5.16l-3.74,1.58c-2,2-5.18,4.81-7.88,8-1.3,1.55-1.69,3.87-2.67,6.26l6.6,5.48a10.77,10.77,0,0,1-5.8,4.08c-1.73.65-2.23,3.25-4.51,3.4-2.56.36-5.24-.69-7.63.48-.45,1.36-.83,2.49-1.16,3.5l-2.32.13L2135,638h-3c-.25-1.22.62-2.66-1.08-4h-6c-3.33-3.19-4-7.94-8.61-10H2111l-2.19-2H2099c-.51-.51-.9-1.14-1.46-1.41-1.1-.52-2.29-.83-3.62-1.3l4.25-4.49c-.21-.81-.43-1.71-.72-2.86h-10.6c-1.34-1.79-.62-3.44-.7-4.92l4.87-5h6l2.12-2c2.2-.26,4.52.68,6.6-.65.21-1.86,1.18-3.79-.7-5.35h-5.9l-2.12,2H2094a1.7,1.7,0,0,0-2-2c-.25-1.21.67-2.71-.67-3.63-1.67-1.15-1.33-2.78-1.33-4.37v-2.92l1.93-2c.55-2.3-.84-5,1.1-7h19.51l5,2.9c.06.18.44,1.33.83,2.49,1.41,1.26,3.15.24,4.68.67l1.73,1.73h8l2,2h6.7l.79-2.89-4.28-3.48v-2.53l-4-1.86c.38-.39.61-.83.85-.83,2.63,0,5.25,0,8.14,0l2,1.82h3.84l2.17,2h15.54l3.43,2A1.7,1.7,0,0,0,2172,580Zm-50,6a17.65,17.65,0,0,1-2.35-1.38,2.34,2.34,0,0,0-3.43.1c-.16,1.53-.31,3.08-.45,4.51-1.95,1.95-3.79,3.79-5.61,5.65a6.12,6.12,0,0,0,.68,1.15c1.27-.06,3.43.47,4.2-.34,1.45-1.5,4.05-1,4.75-2.65,1.28-2.89,5.5-1.76,6.21-5l1.69-.63c-.14-1.64-1.68-2.21-2.59-3.19C2124.39,583.42,2123,584.3,2122,586Zm18,16H2143l2.1,2,3.9-3.9c.47-.25-2.64-2.88.31-3.81,1.83,2.22-.31,5.16,1.67,7.78l2.82-.52c.3-1.45.48-2.36.65-3.19a23.75,23.75,0,0,0,4.95-.76,32.76,32.76,0,0,0,4.8-2.84c-.26-.87-.52-1.75-.75-2.55l-4.58-.34L2157,592h-3.91l-2.2-2.07c-.65,1.38-1.28,2.74-2.09,4.48l-6.62-3.21c-.21-1-.39-1.93-.62-3l-6.52-.32c-1.18-.51-1.6-2.67-3.07-.85v5c-1,2.78,2.45,4.29,2,7.1l-2,1.82,2.91,2.91h4.44Z" transform="translate(-166.05 -80)"/><path class="cls-1" d="M1400,1576l-2.09-4.45c-.28-1.46.32-5.06,0-8.32l-7.24-7.25H1377l-3.68-3.68-4.51-.52c-3-2.15-3-6.5-6.57-8.29v-6.27a36.28,36.28,0,0,1-3.91-4c-.87-1.2-1.22-2.79-2.24-5.25v-10.52c-.7-1.56-2.8-2.24-2-4.39l2-2.09V1503l2-2.13V1480c.56-.22,1.51-.34,1.61-.69.6-2.17.85-4.17-1.2-6.07-1.22-1.13-.62-2,1.59-3.24.56.23,1.41.31,1.63.72a22.75,22.75,0,0,1,1.28,3.47l2.75-.63c.41-1.43.73-2.56,1-3.56H1380c0,1.59.34,3.22-1.33,4.37-1.34.92-.42,2.42-.67,3.63v3c.45.43.93.89,1.43,1.35,1.15,2.14.27,4.47.67,7,5.2,0,5.64,5,7.8,8.17.56.84.34,3.28-.29,3.64-2.92,1.68-.62,5-2.61,7-1.44,1.46-2,3.73-3,5.72l3,6.08,4.41,4.22h8.27c.2,1.87.37,3.44.56,5.28l2.91.75,5.64,11.46,2.6.55c.36,1,.76,2.16,1.27,3.59,3.83-.7,6.73,2.84,10.66,2.55.19,0,.46,1,.69,1.62v3.29l-4,3.48V1562a1.55,1.55,0,0,0-2,1.52c-.15,1.34.08,2.62,2,2.48v5.34l-7.22,4.66Z" transform="translate(-166.05 -80)"/><path class="cls-1" d="M2438,1430a39.69,39.69,0,0,0-.05-4.63A1.54,1.54,0,0,0,2436,1424a1.7,1.7,0,0,0-2-2v-4h5.06l2.74-3c.15-1.35.33-2.91.49-4.42l3.32-1.15c.47-1.39.84-2.5,1.13-3.37,2-.44,3.77.6,5.07-.91.19-.92.37-1.83.65-3.18a15.14,15.14,0,0,0,3.76-.08c1.45-.4,2.7-1.55,4.14-1.86a21.31,21.31,0,0,1,4.64-.08l3-3c0-.66,0-1.31,0-2.1l4-1.83V1388a7,7,0,0,1,2.67.08c.61.27.9,1.25,1.33,1.92,0,.33-.12.88,0,1,1.29.72,2.62,1.36,3.72,1.91-1.29,2.28-2.57,4.42-3.7,6.63a3.38,3.38,0,0,0,0,2,25,25,0,0,0,.74,2.51H2481l2.43-2.23c1.95,1.06,4.44-.82,6.58,1.22-.09.79-.19,1.7-.3,2.59l-5.65,1v4.57c3.27,1.69,3.8,5.56,5.92,8.31.27.35-.14,1.22-.23,1.87l-3.42,1.39,1.55,2.84-5.85,1c0,2.71-.12,5,0,7.34.17,2.58-.63,5.23.31,7.47,1.3,1.2,3.89-.06,3.66,2.67-.57.23-1.53.36-1.62.72a21.2,21.2,0,0,0-.45,3.52c.43,1.83,2.79,2.39,2,4.55-1.46.89-3.38,1.53-4.44,2.86-1.51,1.9-4.06,1.74-5.64,3.59l.63,2.61,6.66.32,1.67,1.67c1.36-.6,2.09-2.61,4.08-1.83,1.21,1.64,4.25,2.4,2.47,5.75h-10.15l-3.08,3.08L2480,1474v3l-2,2.12V1488h-2v-2.89l-2.8-3.11H2468v-3c-1.61-1.51-4.6-1.25-5.41-3.54A10.77,10.77,0,0,0,2459,1470h-3c-2,0-4,0-6,0a6.25,6.25,0,0,1-1.79-.68c-.17-1.53-.33-3.1-.49-4.54l-1.53-1.53v-10.57l3.14-1.13c.92-1.84,1.61-3.22,2.54-5.1-.08-1.59.68-3.89-.46-6l-3.44-1.15V1436c2.89-.08,3.42-3.46,6.22-4.21,2.24-.6,4-3.07,5.82-4.61V1425l1.88-2.09c0-5.46,0-10.73,0-16,0-.23-.44-.47-.73-.76-1,1.76-2.08,3.51-3.28,5.53v5.45c-4.46,3.6-5.27,10.64-11.88,11.68V1432h-4c-.43-.67-.72-1.65-1.33-1.92A7,7,0,0,0,2438,1430Z" transform="translate(-166.05 -80)"/><path class="cls-1" d="M3594,1456c.53,2.88,3.48,3.75,4.9,6h3.93c.73.67,1.44,1.34,2.2,2h3.88c2.5,2.07.19,5,1.56,7.65l2.56.52c.67-1.45,1.28-2.8,1.9-4.15,3.24,1.69,2.93,5.82,6,7.81l2-1.62c1.92-.48,4.52.54,5.93-2.11h11.33c4.17,2.09,8,4,11.86,5.88a4.92,4.92,0,0,0,2,0v3l-2,2.15V1487l-4.95,5h-6l-2.1-2h-3c-.36-2.07-1.95-3.06-3.3-3.86h-6c-.8,1.47-2.85,1.88-2.74,3.86h-20.28l-5.36,2.71c-.16.7-.36,1.6-.57,2.49L3595,1498h-5.55l-3.45,2c-.22-.56-.44-1.11-.78-2h-6.17l-3-3,2-2.08v-3.46c.79-1.37,1.39-2.43,2-3.48l2-.83v-5.94l2.19-2.88v-5.7c1.36-1.07,2.72-.45,4-.66.82-.14,2-.07,1.13-1.85h-11.47l-7.5-6.87c-.48-1.5-.77-2.37-1-3.06-1.27-.47-2.88.44-3.08-1.51l1.71-.7h7.38l3.91,6,2.12-.22,1.24-3.5a44,44,0,0,0,4.63-.65c.35-.08.49-1.06.72-1.63Z" transform="translate(-166.05 -80)"/><path class="cls-1" d="M2282,652c0,.33.14.8,0,1-4.18,4.22-8.4,8.41-13,13a11.39,11.39,0,0,0-3.32.07,16.09,16.09,0,0,0-3.17,1.91c-.25.14-.65,0-1,0-.66,0-1.32,0-2,0-.29,0-.73-.14-.82-.34-1.38-3.14-5.17-.29-6.81-2.75a6.33,6.33,0,0,0-.78-.8h-13l-9.78-4.89-.64-2.49c-1.58-.94-3.72-.89-4.82-2.71H2212c-1.22.25-2.65-.61-3.83.84v4.24c1.48,2.24,3.81,2.62,6.12,4l-4.29,3.25V670l-4.28-2.23c-.76.59-1.44,1.55-2.24,1.67a33.57,33.57,0,0,0-7.93,2.5c-.34.13-1-.61-1.55-.94v-4l2.16-2.3c-.7-1.38.66-3.2-.89-4.51h-6.68c-.71,2.77-1.76,4.84-4.53,5.83-2.34.83-4.33,2.8-7,1.89l-2.08-1.88h-8.1c-1.33,3.24-4.9.91-6.82,2.84a4.48,4.48,0,0,1-2.51,1.05c-2.19.27-4.32-.33-6.37,1.64-1.38,1.33-4.29-.11-6.11,2.12-.69.84-3,.7-4.41-.11L2139,672h-7.91l-2.17-2h-3v-2a1.7,1.7,0,0,1,2-2h2a1.55,1.55,0,0,0,1.52,2c1.34.15,2.62-.08,2.48-2,.22-.55.29-1.4.69-1.6a20.68,20.68,0,0,1,3.19-1.12L2136,660h8v5c1.71,1.11,2.47,4.34,5.51,2.5.41-1.16.81-2.32,1.21-3.45h12.15l1.94-1.82c3.09-.73,6.1.41,8.8-.56.33-1.27.57-2.17.75-2.87l9.92-4.95h8.88l1.58-1.58c6.52-.39,6.52-.39,12.25-4.24h47.92l2.12,2h3.46l6.68-3.81c5.42,0,10.72,0,16,0,.24,0,.47.44,1.07,1C2283.53,648.77,2282.76,650.38,2282,652Z" transform="translate(-166.05 -80)"/><path class="cls-1" d="M1292,1670c.67-.43,1.65-.72,1.92-1.33a7,7,0,0,0,.08-2.67c2.58.1,3,3.12,5.24,3.8,1.46-1.58.83-2.85-.52-4.13a4.88,4.88,0,0,1-.72-1.67,7,7,0,0,0-.08-2.67c-.27-.61-1.25-.9-1.92-1.33.25-1.23-.62-2.66.58-3.62,1.7-1.1,4.06.76,5.35-1.48-2.16-1.41-3-4.36-5.93-4.9v-2h10v5l2,2.12c.58,2.81-3.62,4.21-2,7.24l2.51,4.34-5.8,5.48h-3.94c-1.28,1.24-.33,3.38-2.14,4.29a22.11,22.11,0,0,0-3.12,2.23c1.16,2.69,2,4.65,3,6.88,1.26,1.11,3,.26,4.56.43a41.27,41.27,0,0,0,4.19,0c1.45,2.74.45,5.75.79,8.66l4.24,6.86c2.38,1,5.16-.44,6.53,2.37h5.9l6.82-3.89H1334c1.6-.24,2.23,1.15,2.94,2,.9,1.13,1.23,2.7,2.07,3.89a27.81,27.81,0,0,0,3.15,3.22l-2.16.84c-2.93,0-5.87,0-8.8,0-.34,0-.66.76-1,1.15l3.13,3.16,4.14-2.36H1340c2.14.37,3.18,1.92,4,3.72.52,1.11,1.07,2.22,2,4v3c1.52,2.3,3.81,3.27,6.11,4.39s3.06,4.31,5.94,4.85l-.82,2c-2.48,0-5.08,0-7.69,0-.94,0-2.46.12-2.74-.38-1.52-2.65-4.6-.59-6.08-2.12-1.28-1.3-2.86-1.22-4.2-2-2.12-1.23-2-3.9-3.49-5.49h-3c-.22-1.2.54-2.56-1-4h-11c-.25-1.33.73-3-1.13-3.87-1.68,1.23-2.47,3.56-4.87,3.87l-.67-1.69-2.64,1.39c-1.24-1.13-.47-2.5-.69-3.7a4.91,4.91,0,0,0-4-4v-2.89l-2.8-3.11H1296c-.22-.55-.29-1.39-.68-1.6a22.21,22.21,0,0,0-3.3-1.14v-2.2l1.91-2c-1.12-1.81-3.56-2.62-3.93-5,.23-.57.42-1.6.71-1.63,2.89-.3,5.79-.43,8.91-.62.16-1,.3-1.9.44-2.78-2.63-1-2.63-1-5,1h-3.36l-4.45-3.11,2.67-4.18v-3.6c-.47-1.2-2.84-1.76-1.48-4.29l3.58-1.68Z" transform="translate(-166.05 -80)"/><path class="cls-1" d="M2442,610h-4.94l-2.11,2-4.11-4.11L2428,602h2.93l2.25,2.12.78-2.06-7.54-7.5c-.74.82-.76,1.89.19,3.09A17.71,17.71,0,0,1,2428,600h-4.93a5,5,0,0,0-5.07-2v-4c1.24.23,1.79-.53,2-1.54.28-1.51-.61-3.28,1.07-4.46,1,0,2,0,2.94,0,.39,1.31-1,3.12,1.19,3.85.75-1.12,2.38-1.62,2.41-3.63-1.22-.09-2.4-.17-3.6-.22,0-1,0-2,0-2.93l-2-2.13c.33-2.24-.78-4.61.59-6.48,3.34-1.8,5.42,1.44,8.19,1.63.44,0,.82.84,1.23,1.29l.24,1.89c.34.15,7.38,2.06,7.16,2.11,1.55-1.59-.66-4,1.75-5.27,1.29,3.25,4.91.87,6.69,2.71a3,3,0,0,1-1.12,3.53c-1.22,1-1,2.24.12,3.62l4.75-4.24L2456,586c.24,1.21-.58,2.61.63,3.65,1.85.29,3.74,1.12,5.5-.8a22.88,22.88,0,0,1-3.42-1.23c-.41-.22-.48-1.06-.71-1.62h6c.23,1.21-.56,2.59.67,3.68l2.66-1.36c1.23,1.09.44,2.47.67,3.68h-5.24l-1.11,3.38c-1.76,1.2-3.77.37-5.34.68-.62-.89-1.17-1.95-1.75-2-1.46,0-3.15-.71-4.46.79,1.65,2.13,4,.73,6.21,1.18-.56,1.82.27,3.83-1.1,5.83l-2.05-1.63c-1.73.3-.93,1.87-1.32,2.93-2,1.74-4.36.45-7,.88l-3.27-4.06h-2.54l-2.34-2.17c-.27,1-1,2.23-.64,2.73a30.69,30.69,0,0,1,2.49,4.92C2439.35,607.19,2441.85,607.72,2442,610Z" transform="translate(-166.05 -80)"/><path class="cls-1" d="M2400,1484h3l2.11,2h12.2c.38-1.1.77-2.26,1.25-3.66l2.75-.36c.45,1.26.85,2.41,1.3,3.71,2.45.43,4.94.78,7.69-.59l-4.92-2.28c3.7-1.38,7-.66,10.18-.77s6.54,0,10,0c.24-1.17.42-2.08.66-3.26,1.69-1.74,2,1.65,3.56,1.31a15.92,15.92,0,0,1,3.58,0c.57,1.64,1,2.8,1.54,4.42L2460,1482h4c.39,2.44,2.83,3.27,4,5.1v2.9h-2.53l-3.47,2c-.33-2.14-1.93-3.14-3.65-4-1.36-.67-2.73-1.32-3.79-1.83H2441l-2.24,1.76c-2.49.48-4.93-1-6.77,1.11v3l-7.85,4h-12.64l-6.81,3.86h-5.91c-.79-1.48-2.89-1.88-2.79-3.9.32,0,.85.11.92,0a34.87,34.87,0,0,0,3-6.31C2400.39,1487.9,2400,1485.9,2400,1484Z" transform="translate(-166.05 -80)"/><path class="cls-1" d="M758,692h6.25l5.26,5.45c1.1-1.53.23-3.56.49-5.45h3.06c.18.2.61.46.6.68-.4,5.28,5.07,8.74,4.34,14.1,2.44,2.87,3.27,6.63,5.4,9.69a8.53,8.53,0,0,1,.73,2.77l-3.66,1.29c-.39,1.15-.79,2.3-1.34,3.88-.81-1.77-1.43-3.11-2-4.41H771c-2.4-2.09-.06-5.07-1.54-7.66l-2.94-.59c-.28-1.56-.6-3.38-1-5.39l-3.1-.64c-.3-1.6-.05-4-1.13-5.09-1.46-1.52-.78-3.83-2.63-5C757.29,694.78,758.26,693.22,758,692Z" transform="translate(-166.05 -80)"/><path class="cls-1" d="M2344,586c-.39-2.44-2.83-3.27-4-5.1V578h4.94l2,1.92c2.05.64,3-.91,4-1.88h6.07c2.24,2.16,0,5.1,1.36,7.36,2,.87,3.86,2.28,5.86,2.45s3.48,1.13,5.12,2.08c1.82,1.06,4,1.54,5.9,2.44.4.18.48,1.07.71,1.63v6h-2.94l-2.1-2H2367l-2.1,2H2362v-3l2-2.08v-2c-.27-.27-.5-.7-.73-.7-3.94,0-7.87,0-11.36,0C2348.53,590.52,2347.32,587,2344,586Z" transform="translate(-166.05 -80)"/><path class="cls-1" d="M2450,630c1.23.23,1.81-.52,2-1.53s-.09-2,.06-2.94.74-1.76,2-1.53h4.33l5.49,2.87c.06.59.12,1.23.18,1.89,2.09,1.29,4.65,2,6,4.35V635a23.38,23.38,0,0,0,10.39,3.59l-5.94,3.43h-3.76c-.4,1.14-.81,2.29-1.22,3.48-1.79,1.17-3,.23-4.28-1.5h-10.75c-.23-1.2-.41-2.11-.56-2.92,2.23-2.47,5.24-.1,7.54-1.55,1.08-1.46.39-3.11.44-4.69l-3.23-3.22c-.46,2.33-.85,4.36-1.28,6.55-2.51-1.53-3.32-3.61-3.95-5.77C2452.35,631.49,2449.78,632.73,2450,630Zm10.55-1.22c-4.93-.87-4.93-.82-6.17.6C2456.16,630.31,2457.93,630.4,2460.55,628.78Z" transform="translate(-166.05 -80)"/><path class="cls-1" d="M2486,626h3c2.4,2.07.17,5,1.49,7.61l2.83.61,1,3.12c1.38,1.33,3.1.32,4.94.73.32,1,.7,2.13,1.08,3.3,1,1.22,2.43.39,3.65.63a7.17,7.17,0,0,1-.08,2.67c-.27.61-1.25.9-1.92,1.33h-13.08l-2.78-3.08V639.4a11.64,11.64,0,0,0-1.95-2.15,31.79,31.79,0,0,0-5.58-3.17c-1.11-.44-2.54-.08-4-.08-.26-1-.49-1.93-.73-2.86l6.09-3.13h5.26C2485.54,627.13,2485.77,626.56,2486,626Z" transform="translate(-166.05 -80)"/><path class="cls-1" d="M2400,1484l-1.85-.76v-5.8l-2-2.46v-3.62l-3.44-4.34c-.44,2.12-.62,3-.85,4.14-1.43,1.34-4.42,1.08-5.23,3.37A10.77,10.77,0,0,1,2383,1480h-3c-1.79.14-2-1-2-3.35l4-2.53V1464h4.34l3.79-2.76V1457c1.1-1.14,2-2.09,2.92-3,.17-.16.63,0,.95,0,1,2.21,2.66,4.14,2.12,7-.17.9,2.14,1.41,1.88,3v6.92a5,5,0,0,1,2,5.08Z" transform="translate(-166.05 -80)"/><path class="cls-1" d="M1314,1462v3.06l-4.22,1.89,4.24,1.91c-.11.92-.21,1.8-.38,3.14H1306l-1.17-2.5-.23.11a5.91,5.91,0,0,1-.57-1.74c0-4.62,0-9.25,0-13.87l3.47-2h3.69l1.73-2H1316c.55.21,1.51.34,1.57.66a40.07,40.07,0,0,1,.51,4.46L1314,1457Z" transform="translate(-166.05 -80)"/><path class="cls-1" d="M1888,96c.23-.56.3-1.39.71-1.64,2.24-1.34,5.2,1,7.3-1.37s5,0,7.32-1.34c.26-.15.43-.45.85-.92-3.81-1.65-7.8,0-11.5-1-.23-.57-.45-1.13-.68-1.69h22.86l2.14,2c2.82.22,5.75-.22,9,.29-1.86,1.78-1.86,1.81-4.9,1.76l-2.14,2H1910c-1.66-.29-2,1.5-3.22,2Z" transform="translate(-166.05 -80)"/><path class="cls-1" d="M2197,602h4.52l4.83,3.3c-1.17,3.34-3.66,4.89-5.93,7a8.31,8.31,0,0,1-2.41-1.33c-1.07-1.18-2.37-.76-3.61-.95a13.51,13.51,0,0,1-2.42-.82c.05-.95.08-1.6.11-2.24Z" transform="translate(-166.05 -80)"/><path class="cls-1" d="M1350,1680c.18-2.61-2.15-1.61-3.27-2.29l-2.73-5.64c0-.38-.14-.81,0-1,2.35-3.07,5.85-3.89,8.73-5.26,1.81,1.62,1,3,1.25,4.2l-2,3.55c0,1.28.12,3.17,0,5A1.53,1.53,0,0,1,1350,1680Z" transform="translate(-166.05 -80)"/><path class="cls-1" d="M1988,114c.72-3.66,4.45-3.79,7.48-6H2012c-.22.55-.37,1.54-.67,1.59-1.86.3-3.76.39-6.22.6-.28.2-1,.75-2.17,1.63h-7.7c-1,.91-1.68,1.56-2.34,2.18Z" transform="translate(-166.05 -80)"/><path class="cls-1" d="M1888,88h-23c-1.62-1.39-.8-2.79-1-4h8.85l2.34,2.11h12.06Z" transform="translate(-166.05 -80)"/><path class="cls-1" d="M1398,954l-3.47,2H1392v-3l-2-2.11v-2.08c2.34-1.42,4.85-.85,7.31-.58a7.26,7.26,0,0,1,.64,1.78C1398.06,951.37,1398,952.69,1398,954Z" transform="translate(-166.05 -80)"/><path class="cls-1" d="M1094,826c0,.33.13.75,0,1-1.36,2-3.73.3-5.37,1.4-1.82,1.21-3.59,3.12-5.53,3.32-2.17.22-3.07,2.35-5.08,2.3v-3.37l7.23-4.63Z" transform="translate(-166.05 -80)"/><path class="cls-1" d="M1972,749.25v-4.31c2.28-1.59,4.82-.85,7.26-.7,1.44,1.44.38,3.18.8,5A9.55,9.55,0,0,1,1972,749.25Z" transform="translate(-166.05 -80)"/><path class="cls-1" d="M1300,817.82l6,3.24c0,.65,0,1.3,0,2a5.07,5.07,0,0,1-1.54,1c-.94.15-2.32.45-2.84,0-2.18-2-5-2-8.62-2.36Z" transform="translate(-166.05 -80)"/><path class="cls-1" d="M1286,826c-.1-1,.17-1.74,1.35-1.68,1.2,1.55.45,3.21.55,4.78l-2.82,2.82c-2.24-.08-4.54.65-6.88-.59v-2.59c1.88-1.35,3.91-.48,5.8-.74A1.7,1.7,0,0,0,1286,826Z" transform="translate(-166.05 -80)"/><path class="cls-1" d="M2212.12,600.21l4.34,2.75-1.54,3.59c-1.25-.73-2.24-1.4-3.3-1.9s-2.23-.86-3.44-1.31v-2.55C2209.71,599.21,2211.46,600.56,2212.12,600.21Z" transform="translate(-166.05 -80)"/><path class="cls-1" d="M2181.65,619.54l-3.53-2.15c-.44-3.36,1.91-3.93,3-5.38h2C2186.43,615.69,2179.69,616.83,2181.65,619.54Z" transform="translate(-166.05 -80)"/><path class="cls-1" d="M1946,736.16h5.17c1.52,1.51.48,3.23.86,4.87-3.19,2.78-4.25-.76-6-2.08Z" transform="translate(-166.05 -80)"/><path class="cls-1" d="M1949.35,747.93c1.15,2.55.41,3.57-.41,4.12-3.12-.13-3.4-2.24-5.09-3C1945.8,747.4,1947.48,748.31,1949.35,747.93Z" transform="translate(-166.05 -80)"/><path class="cls-1" d="M2460,615v2.43l-3.51.74-.6-3C2457.31,613.53,2458.65,613.57,2460,615Z" transform="translate(-166.05 -80)"/><path class="cls-1" d="M1343,934h2.43c.22,1,.45,2.12.74,3.51l-3,.6C1341.53,936.69,1341.57,935.35,1343,934Z" transform="translate(-166.05 -80)"/><path class="cls-1" d="M2490,658.15l-4.36-.68c1-1.09,1.65-1.8,2.34-2.42a6.64,6.64,0,0,1,1.34-.73A16.69,16.69,0,0,1,2490,656,12.7,12.7,0,0,1,2490,658.15Z" transform="translate(-166.05 -80)"/><path class="cls-1" d="M2132,638v4h-2a7.17,7.17,0,0,1,.08-2.67C2130.35,638.72,2131.33,638.43,2132,638Z" transform="translate(-166.05 -80)"/><path class="cls-1" d="M1954.28,744.38a12.61,12.61,0,0,1,2.65-.31c.27,0,.57.79.71,1.26,0,.15-.42.64-.64.63-.89,0-1.78-.2-2.67-.31Z" transform="translate(-166.05 -80)"/><path class="cls-1" d="M2176,590a1.7,1.7,0,0,1,2-2A1.7,1.7,0,0,1,2176,590Z" transform="translate(-166.05 -80)"/><path class="cls-1" d="M2496,650h2c.07,1-.13,1.86-1.32,1.59C2496.35,651.51,2496.22,650.55,2496,650Z" transform="translate(-166.05 -80)"/><path class="cls-1" d="M2340,578a1.7,1.7,0,0,1-2-2A1.7,1.7,0,0,1,2340,578Z" transform="translate(-166.05 -80)"/><path class="cls-1" d="M754,682a1.7,1.7,0,0,1,2,2A1.7,1.7,0,0,1,754,682Z" transform="translate(-166.05 -80)"/><path class="cls-1" d="M2600,678h2v5.33l3.67,1.21c.62,1.45-.19,3.6,2.33,3.46v6.91c-1.14,1.74-2.91.94-4.44,1.08-1.87.17-3.86-.37-6.35,1l4.16,1.36c1.29,2.09.38,4.42.63,6.61l2,2.12V716h-4.31l-5.49,2.86c-.16,1.49-.34,3.06-.5,4.51-1.66,1.09-3.28.51-4.89.48-1.71-2-.46-4.42-.83-6.69l2-2.19V703.29c.52-1.3,2.33-1.63,2-3.29l1.85-.76v-5.81l2.05-2.45v-7.44C2596.93,681.24,2599.65,680.51,2600,678Z" transform="translate(-166.05 -80)"/><path class="cls-1" d="M2052,722h3a27.38,27.38,0,0,1,3.52-3.46c1.23-.85,2.8-1.23,5.52-2.35h5.2a6.59,6.59,0,0,1,.7,1.83c.08,2,0,4,0,6h-2.95l-2.12,2H2063l-6,6h-4.31c-1.31,0-2.63.1-3.93,0-1.53-.15-3.26.68-4.87-1.06,2.79-1.95,5.5-3.86,8.11-5.7Z" transform="translate(-166.05 -80)"/><path class="cls-1" d="M2620,668h-7.07l-7,7.77c0,.07-.37,1.19-.7,2.23H2602v-2.53l2-3.47v-3.11l2-1.73v-3.69l2-3.47h12c1.22.26,2.5-.45,3.74.63a21.72,21.72,0,0,0,4.22,2.27l-2.63,2.83a41.82,41.82,0,0,0-4.61.64C2620.37,666.45,2620.23,667.43,2620,668Z" transform="translate(-166.05 -80)"/><path class="cls-1" d="M2603.77,715.44l2.05,1.74C2604.07,718.54,2604.21,717,2603.77,715.44Z" transform="translate(-166.05 -80)"/><path class="cls-1" d="M814,522c.56-.23,1.56-.38,1.6-.69.3-1.88.38-3.8.51-5.38-.2-.63-.21-1-.4-1.19-1.12-1.18-2.29-2.32-3.71-3.74,0-1.65.1-3.57,0-5.48a1.54,1.54,0,0,0-2-1.52v-8.95l2-2.1v-4.23l-3.9-1.36L809.8,485v-5.09l2.58-4.23-2.32-2.76a29.58,29.58,0,0,0,3.22-3.3,15.48,15.48,0,0,0,1.4-3.39c4.22.48,6.84-2.81,12.32-4.22h3.93l2.11,2H837l2.2-2H855l2.08-1.85H861l2.27,1.9h5.11l5.62,3.12c.8,2-1.33,2.67-1.77,4.1,1.35,1.49,3.13.44,4.68.79,2.54-2,.2-5,1.59-7.65l2.46-.48c2.23,4.53,2.65,4.95,7,7.06v2.25l-3.3,1.14c-1.33,1.4-.33,3.14-.64,4.65l2,2.2v4.13c1.15.4,2.51.56,3.41,1.28,1.07.85,1.94,1.74,3.49,1.36L895,484h3.29a41.51,41.51,0,0,1,5.47,2.88c1.58,1.18,2.66,3.11,4.32,4.1,2.64,1.57,5.29,3.5,8.78,3l2.13-2h2c1.79,1.08.51,3.88,2.76,4.88.53.24.27,1.88.8,2.56a11,11,0,0,0,2.91,2.51,9.93,9.93,0,0,0,2.54.77V506c-.57.23-1.55.37-1.63.72a41.66,41.66,0,0,0-.64,4.62l-3.53,1.46.41,1h4.64c.84-.34,1.23-2.54,2.75-.76v3l-3.13,1.82-2-1.72c-1.62,1.37-.59,3.13-.83,4.25l2.77,3.78h4.76c1.33,3.59,5,3.84,7.7,5.56L943,528h3.88l2.18-2h3.5l3.48-2h2v6.93l2,2.14V538c-1.66.29-2-1.85-3.17-1.91-1.47-.08-2.3-.94-3.42-1.51-1.31-.67-3-.5-4.43-.67-1.71,2.41-4.5,3.46-5.05,6,.39,2.14,2.14,2.78,3.08,4.08h13v7.94l-3.91,2.77v8l4,2.09c-.1,2.07-.17,3.35-.23,4.41l-3.08,2.91c-3.25-1.29-6.67-2.06-8.75-5.3,1.75-1.26,3.1-2.66.92-4.86l-2.66.44c-.19,1.81-.36,3.38-.52,4.85L940.05,573c.15,2.23-.69,4.55.57,6.68l2.66.89c1.39,2.92,2.46,5.13,3.49,7.27,1.57,1,4-1.23,5.14,1.79l-5.73.84v13.67l4.21,5.43,3.37,1.11.59,2.9,3.65,1.23V623l1.91,2.08L958,627.2c.33,1.63-.69,3.43.76,4.58l2.57.53c1.21,1.34,0,3.92,2.69,3.69v4.94l2.28,2.47-6.07,1v8.42c-2.18,1.66-5.16,1.57-5.9,4.5,2.28,1.43,5.08,0,7.45.84-.24,1.77-.24,1.77-8.76,1.73l-2.11-1.86c-1.16,1.13-1.24,2.26-.13,3.8H963l3,5.79v9.25c.67.71,1.33,1.43,2,2.15V688h-6v6c-1.9-.15-2.11,1.16-2,2.5a1.62,1.62,0,0,0,2,1.52,14.23,14.23,0,0,1,2,0c-.23.57-.37,1.55-.71,1.63a45.06,45.06,0,0,1-4.57.63c-.31.37-.66.59-.69.86a16.52,16.52,0,0,0,0,2.15l-3.52,1.22c-1.06,1.46-.15,3.11-.49,4.53,1.35,1.25,2.73,2.28,1.73,4.26-.21.21-.44.64-.68.64-2.64.05-5.28,0-8.18,0l-2.67-3c-.14-1.21-.32-2.78-.51-4.47a6.48,6.48,0,0,1-6.14-6.08c-1.78-.49-3.37-.94-3.54,1.63a9.59,9.59,0,0,0-2.4-1.35c-3-.68-5.22-3.84-8.66-2.5l-2.78,2.32c-1.09-1.76-2.12-3.43-2.91-4.69l-2.72.66c-1,2.15-.4,4.43-.43,6L919,712c2.21.33,4.54-.54,6.69.63L927,714h3c2.33-.08,2.37,2.58,4,2.76V722h-4.44l-7.8,4.25-3.3-2.36H911c-1.13-1.08-2.09-2-3-2.84v-7l2-3.94c-.3-2.14-2.24-3.08-2.49-5.27-.22-2-2.19-3.69-3.32-5.57-1-1.59,1-4-1.3-5.13h-4C896.5,696,896.5,696,894,695v-5c1.2-.22,2.55.54,3.8-.8v-6.37c-1.07-.7-1.57-2.4-3.8-2.4V688c-.57-.23-1.55-.37-1.63-.72a48.21,48.21,0,0,1-.69-5L886,679v-3.9L884,673V665c.7-.76,1.36-1.48,2-2.17-.35-1.6.69-3.39-.93-4.77L883,660h-5.21l-6.11,3.15,4.78,3.37c-1.08,1.18-1.72,1.87-3.3,3.61l5,2.68c-.44,4-1.1,5.55-4.29,10.63v8.16c-4.75-.14-8.45,4.08-13.56,1.88-.91-2.36-3.32-3.29-5.83-4.06-.39-1.16-.79-2.32-1.15-3.4H850a5,5,0,0,1-5.07-2H840c-1.11-1.91-2.38-2.71-3.13-1.73-1.94,2.54-4.52,1.48-6.87,1.73.23-1.21-.57-2.6.61-3.63l3.56-1.16-2.29-2.4.54-2.53c1.82-.23,3.39-.33,4.89-.68.34-.08.47-1,.69-1.6-.67-3.26-3.69-3.75-6-5.09V664h5l2.19,2H843c.82.73,1.54,1.37,2.39,2.11,2.78-.7,5.81.6,8.53-.86,0-.86.07-1.51.11-2.33l-4-1.89,2.44-2.71-4.64-3.17c.26-2,0-3.84.67-4.45,1.9-1.59.86-3.85,1.7-5.33,1.17-2,2.05-3.83,2-6.24,0-.94,1.11-1.29,1.89-.17v6.08a28.9,28.9,0,0,1,3.46,3.45c.69,1,.86,2.28,1.36,3.71,3-.89,6,.55,8.76-.73l2.88-3.23-2.37-3.61v-3.31l-2.63-3.28-5-.23-7.32-7.81H847l-2.1,1.8L842,631c.38-1.61-.69-3.37.78-4.79l4.58-.53,3.38-7.48,2.83-.58,1.21-3.59c2.54-.36,4.91.71,7.58-1.16l-3-2.76h-7.64c-.67,1.14-1.68,2.86-2.36,4l-4.71-.3c-.52-1.48-.92-2.64-1.33-3.78h-4.14L837,608h-5v-3.09l4.25-1.91L832,601.09V598h5l2.14-2h9.21c-.64.87-1.17,1.73-1.9,1.94-1.45.42-3.3-.63-4.4,1.21.34,1.54-.71,3.32.74,4.61H853.6a10.2,10.2,0,0,0,.25-4.9L851,596H848.3a15.19,15.19,0,0,1,1.53-3.2c-2-1.84-4.71-.17-6.91-1L840.8,590H832c-1.22-.24-2.63.6-4-1a11.52,11.52,0,0,0-.08-3.39,11.07,11.07,0,0,0-1.76-2.85v-8L828,574h3l2.08,2h4.17l3.51-7.76h4.91c5,1.6,7.64,5,12.65,3.09-2.93-2.93-5.61-5.6-8.28-8.29v-3c1.89-.26,3.92.61,5.67-.65,1.6-4-2-6.23-2.59-9.07l-3.21-1L852,547V543l2-2.14c0-.69-.07-1.34-.13-2.71-3.46.74-4.71-2.39-6.9-4.19h-5v-4c.55-.22,1.51-.35,1.59-.68.27-1.19-.62-1.39-1.59-1.32l-1.85-3.18,3.86-1.88c.1-3-1.7-4.2-4-4.94,1-2.58-1.89-3.9-2-6.09C838,510,836.7,510,834.88,510c-1.63,3-5.12,4-8.56,6.17-.87.2-2.61-.82-4.43.94.87,1.33-1,3.4,1.16,4.91h5v7l2,2.15c0,.7-.08,1.35-.15,2.7-4.68-.85-5.21,3.24-6.9,6.15-2.31-1.41.54-4.7-2.41-6.06l-2.48.73v6.18l-4,4.21,2,2.37-2.9.74L811,546c-1.53.36-3.29-.71-4.67.71-.34,1.1-.68,2.19-1,3.22l-3.56-2.4c-1.91,1.72-3.56,3.21-5,4.56l-4.26-.27a10.19,10.19,0,0,1-.27-5.05c1.4-.74,1.8-2.87,3.73-3,.32,1.27.18,2.82,1.93,1.46a17.45,17.45,0,0,0-1.93-1.46c.34-1.58-.42-3.56.91-5.67l4.47,4,4-.2,1.35-3.55,3.38-1.1V534h2a1.7,1.7,0,0,0,2-2v-2a1.55,1.55,0,0,0,2-1.52c.15-1.34-.08-2.62-2-2.48Zm80,52c-1.18-2-1.18-2-3.83-1.17.74,2.14,2.55.8,3.83,1.17,1.18,2,1.18,2,3.83,1.17C897.09,573,895.28,574.37,894,574Zm-32,46a1.7,1.7,0,0,0,2,2v2.94c-4,4.11-4,4.11-4,5.22,0,.31-.06.74.12.92,1.58,1.65,3.21,3.25,4.86,4.9h8.34l5.19,6H886c.25,1.23-.62,2.67.67,3.69l2.6.43c.76-.89,1.81-2.08,3.09-3.55-1.13-2.19-2.23-4.39-3.4-6.55-.07-.14-.63,0-1,0v-2.92L886.06,631c.29-2.33-.9-4.92,1-7h6c1.34,2.68,2.7,5.38,3.87,7.7l2.82.91c1.79,3-3.06,3.68-1.84,6.44.15.35-1.25,1.37-1.94,2.1v5.9c-.52.52-1.24.91-1.41,1.47a21.55,21.55,0,0,1-2.45,5c-.32.52.42,1.7.65,2.5H899l4.9-4.93c.36-2.88-.25-5.84.29-8.66,1.92-.43,3.34-.8,4.58-2s3.87.81,5.12-1.46c-.24-.24-.47-.67-.71-.68-2.63-.11-5.26-.11-7.88-.26-.45,0-.86-.64-1.29-1,1.67-1.56,3.17-3,1-5h-2c-.79-1.2-2.53-1.72-2.56-3.49l3.65-1.27-.42-2.69c-2.58-1.52-5.58.84-7.67-1.56v-3a7.17,7.17,0,0,0,2.67-.08c.61-.27.9-1.25,1.33-1.92l3.21,1.78c1.39-.81.61-2.43.79-3.78,1.23-.26,2.67.63,3.8-.81v-4.82c-5.11.06-5.41-4.71-7.8-7.61V594c-.33-2.54.64-5.19-.68-8.09l-3.33.65v2.92l-3.25.56c-.85-2.55-1.49-4.7-3.62-5.92-1.56,0-3.19-.6-4.66.41-.4,1.16-.79,2.31-1.34,3.93L878,586a1.54,1.54,0,0,0-2,1.37,39.69,39.69,0,0,0,0,4.63l-5.71,2.71c.27,3.37-3.46,4.3-4.21,6.6-.1,1.65-.17,2.89-.24,4.08-2.19.37-4.71,1.35-5.51,2.14,2.55,1,5.16.17,7.67.47v8h-2.53L862,618l-3.18-1.83c-1.24,1.24-1.3,2.56.26,3.83Zm2-80c-.21-.54-.3-1.45-.64-1.56-1.73-.56-3.53-1-5.18.35.76,2.06,2.53.9,3.82,1.21-.23.56-.31,1.41-.72,1.64a21.86,21.86,0,0,1-3.26,1.2V547c2.82,2.82,5.6,5.65,8.45,8.39.39.39,1.14.41,2,.68,1.46-.44,2.22-2,3.51-3L870,551v-3c4.18,1,3.9,5.31,6,7.65v3.25l-2.11,2.26,2.42.94c3.7-1.36,3.45-5.35,5.56-7.38V546.5l-3.11-.72c-.23-1.18-2.47-1.29-2.39-3.2l3.64-1.29c-.12-1.06-.22-2-.3-2.64-2.62-2-3.54.86-5.68,1.5h-7.27c-.3.72-.53,1.28-.76,1.85A1.7,1.7,0,0,1,864,540Zm-23-52c2.31,0,4.62,0,6.93,0a5.89,5.89,0,0,1,1.69.63l1.43,1.34h10.78l5.65-6.14h3.34l3.31-2.91-.62-2.55c-2.27-1.1-3.3.27-4.68,1.76H857.56L850.35,484c-1.62,0-3.93-.11-6.23,0-2.56.16-5.19-.6-8.38.68,1,1.63-.78,3.61,1.23,5.26h2Zm79.61,72.35,3.12-3.12V548.7l-2.68-2.49c-4.42,0-8.36,0-12.3,0-.24,0-.47.44-.79.76,0,.57-.25,1.39,0,1.83a12.27,12.27,0,0,1,2.17,4.12c.4,1.65,2.43,3.09,4,4.2A50.4,50.4,0,0,0,920.65,560.35ZM844.79,672l-.87,2.22c1.16,2.11,2.16,3.95,3.17,5.78h4.56l4.85-3-1.37-3h-4.31l-1.73-2Zm1.69-150.43c.94.92,2.33.46,3.54.38,2.53-.16,5.14.66,8-.6l-.53-3.1-3.08-.6c-.46-1.43-.84-2.58-1.19-3.65h-4.43a11.25,11.25,0,0,1-1.19,3.26C846.65,518.54,845.31,519.52,846.48,521.57ZM863,568h5.87c2.73-2.75,2.73-2.75,2.79-5.34-.23-.22-.47-.63-.7-.63-3.26,0-6.53,0-9.79,0-.25,0-.49.36-1,.76C859.14,565.39,861.76,566.37,863,568Zm7.11,12.89c-.15-.81-.32-1.7-.52-2.71h-6.77L860,581c.23,1.53-.59,3.19.72,4.83a10.37,10.37,0,0,1,2.73-1.73A14,14,0,0,1,867,584ZM880,646.75c.3,2.52-.63,4.83.73,7,2.46.22,5,.85,7.3-.62v-4.29a11.05,11.05,0,0,1-3.24-1.19C883.47,646.66,882.49,645.31,880,646.75ZM851.83,501.9c-3.06.35-5.38-.56-7.88,1l.62,3.18c2.66-.3,5,.61,7.26-.78ZM823,528c1.42-1.35,1.46-2.69-.18-4.11l-3,.6c.29,1.39.52,2.5.74,3.51Zm38.82,151.71-4,.76c.26,1.38.46,2.5.7,3.74l3.25-.62ZM882.15,475c-1.81-1.29-3.08-1.88-3.91.29C879.41,476.38,880.51,476.31,882.15,475ZM849,530c-.22.22-.66.49-.63.66A6.53,6.53,0,0,0,849,532c.22-.22.66-.49.63-.66A6.53,6.53,0,0,0,849,530Z" transform="translate(-166.05 -80)"/><path class="cls-1" d="M936,508l1.79,3.11c-1.91.74-1.91.74-7.79-2.2V506h2.53Z" transform="translate(-166.05 -80)"/><path class="cls-1" d="M807.36,473.56c-1.67-1.05-1.74-2.15-.67-3.3C809.36,471,807,472.59,807.36,473.56Z" transform="translate(-166.05 -80)"/><path class="cls-1" d="M2818,738c-.23-.57-.31-1.42-.73-1.65-1.33-.72-2.79-1.21-5.91-2.5h-8.73l-1.37-3.91-3.19.45v6.54c-1,1-1,1-3.24-1h-2.13c-.28-.85-.57-1.73-1.17-3.53L2788,729.6c0-1.61,0-2.6-.05-4.28,2.07-.73,1.37,3,4,2-.11-1-.23-2.11-.4-3.6a7.39,7.39,0,0,0-3.64,1.6c-1.13.52-2.43,1.09-3.95-.17V720H2787l2.12,2c.33-.58.67-1.1.92-1.66.32-.73.57-1.48.92-2.38l1.79,1.8c2.41.32,4.92.83,7.34-.61l-1.51-1.63c-1.09-2.09.3-3.91-1.38-5.33l-7-.35c-.12-1.78-.22-3.35-.39-5.79l-15.95-16v-2.52c-2.34-4.67-7.22-5.18-10-8.66.15-.79.33-1.7.47-2.45l3.6-1.23v-5.6l-3.58-6.61c.7-1.17,1.34-2.22,2.3-3.8l-4.12-3.29-2.5.75v6l-2.55,3.2c-2.53.45-4.35-.53-5.52,1.23v7h-3.22l-3.31-3.73-3.2-.71a47,47,0,0,0-.67-4.87c-.08-.34-1-.47-1.6-.69v-2c-.22-.55-.35-1.51-.68-1.59-1.19-.27-1.39.62-1.32,1.59l-5.79-2.79c-.17-1.57-.34-3.13-.49-4.49l-3.18-3.18c-1.13-2,.27-3.82-1.5-5.53h-8l-3.35-3.35-5.52-2.66h-3.08c-1-4-5.1-6.08-6-9.73l-2.92-.91c-.33-5.11.07-10-.24-14.77-2.94-.72-5.19-1.71-5.89-4.59.25-1.22-.62-2.66.84-3.83,1.45,2.93,4.5,1.16,6.83,2.4-.25,3.25,3.11,4.41,4.27,6.69.07,1.54.13,2.82.14,3,1.34,1.8,2.13,2.85,2.77,3.72l2.33-.17c.64-1.31,1.3-2.63,2.13-4.32l4,2.14c1.24-1.77.4-3.79.65-5.68h3a21.9,21.9,0,0,1,2.84-2.78,34.18,34.18,0,0,1,4.12-2.15v-2l2-2.22-4.08-2v-4c-2.11-2.78-5.46-3.25-8.07-5-2.16-1.42-4.78-1.56-7-2.47s-4.35-2.52-6.59-3.36a7.44,7.44,0,0,1-4-3.43c1.65-.89,3.65-1,4.84-2.57l2.24,2h7.79c1.5,1.53,2.88,3.06,5.36.2l-4.68-3c1.52-2,3-1.06,4.2-1.32.2.54.29,1.45.63,1.56,3.35,1,6.23,3,9.37,4.44.38,2.15,1.94,3.15,3.74,4,3.89,1.86,7.76,3.79,12,5.85,2.16,0,4.8,0,7.44,0,.24,0,.47-.44.78-.75V591l-7.35-6.88-3.69-.2c-1.41-1.52-.15-4.11-2.88-3.88a1.7,1.7,0,0,0-2-2v-1.5c-2.29-6.17-8.15-6.52-11-10.5H2721l-2.11-2H2710c-1-4.17-5-4.75-7.92-5.84-6.84-2.53-7-2.19-11.46-6.25h-4.95L2680,549v-4c-1.54-1.63-4.53-1.27-5.4-3.56-.82-2.13-1.63-4.14-3.62-5.49h-6l-3.23-6.5,2.17-2.54v-3.56l4.07-3.86V517l-7.89-4v-4l1.92-2.29c-.06-1.5-.06-2.88-2-2.72v-4c1.66.3,2-1.51,3.35-2.05h3.11l8.74-6.21c1.57-3.06-.22-5.52,1.56-7.5h10.48l1.7,1.7h4.78L2701,478c1.79-.07,3.17-.06,3-2,2.75-1.46,5.85-2.34,8-5v-3.69c.53-1.35,2.34-1.68,2-3.34h5l2.11,2h21.27c2.21-1.13,4.31-1.6,5.41-2.91,1.8-2.16,4.69.19,6-1.77.24-1.18.43-2.09.64-3.12h4.76l1.61,1.61h12.42l1.7-1.7h13.82c.75-.67,1.47-1.32,2.29-2h3.77a13.9,13.9,0,0,1,1.52-1.33A10.6,10.6,0,0,1,2798,454h6.89l2.12,2h4.13l4,4.55,4.39-2.52H2822c.23.57.54,1.65.69,1.63,3.66-.51,6.32,3,10,2.47.64-.09,1.48,1.13,2.35,1.85h1.55c3.5.36,3.66,2.43,5.38,2.05v2.55l2.79,3.43h3.7l3.51-2c.22,1.2-.54,2.56,1,4,2.1,0,4.62,0,7.13,0,.55,0,1.08-.48,1.85-.84,0-1.15,0-2.4,0-3.65a1,1,0,0,0-.34-.8A13.15,13.15,0,0,0,2860,468c.24-.57.37-1.55.72-1.63a44.22,44.22,0,0,1,4.66-.65c.67-2.31,1.49-4.39,3.61-5.69h3.88l2.18-2c1.34,2.07,1.64,4.89,4.86,6.15l3.9-2.25h7.94v-5.7l3.19-6.21h2.22c.38-1.09.77-2.23,1.17-3.37l8-8,5.44-2.67h13.12l4.4-4.13c.49,1.34.9,2.49,1.31,3.65,3.3-.29,2.92-3.5,4.29-5.46h4.48l3.07,3.89H2951c.48-.49,1-1,1.49-1.49,2.11-1,4.39-.42,6.63-.37l1.65,1.65h20.58c.42-1.13.86-2.28,1.36-3.61h24.45l1.7,1.7h18.3l2.86,3.75c3,1.1,3.82-.73,5-1.58h4l5.83,5.83h7.65l5.06-2.55c.2-.77.44-1.67.68-2.58.23-.23.46-.67.7-.67,2.66-.05,5.32,0,7.43,0l4.44-2.44c1.92-1.26,2.18-1.58,2.44-1.58,7.3,0,14.6,0,21.73,0l1.79,1.79h4.63c4.51,1,3.84,5.06,6.13,6.69s2.12,4.66,4.56,6.55v10.29c2.53,1.17,4.8.63,7,.53,1.55-1.32.51-3.11.88-4.83l-4-1.92V445c4.3-3.22,7.72.5,11.43,1.48.86,2,2.44,4,2.39,6-.07,2.88,2.73,4.33,2.6,7,2.25,1.16,1.08,4.51,3.55,5.54v6l-2.13,2.3c.29,2.7,3.27,4.79,2.25,7.84l3.67,3.67c.18,1.52.36,3.1.54,4.61l3.81,1.37-2.75,2.92c-4-.42-6.87,3.3-10.71,2.44-1.12,2.56-.64,4.82-.49,7.06l1.77,1.77v6.21l2.06.85c0,1.17,0,2.34,0,4l4,0,3.86,2.2h5.88c2.63,1,3.71,1.65,4.82,1.72A1.47,1.47,0,0,0,3154,518c2.53.32,5.16-.61,7.35.35L3163,520c2.63,0,5.25,0,7.87,0,.25,0,.49-.37.93-.74v-2.45c-1.6-1.07-3.83-.87-4.84-2.78h-7.89l-2.1-2H3153l-2.11-2H3146V499.05l5.93-3.05h9.26l.81-2h8v3.19c2.63,1.58,5.61.46,8.78.88l2.39,1.89H3195l1.86,1.86h12.44c.75-1.4,2.84-1.81,2.74-3.82.33,0,.89-.12,1,0,1.26,2.45,2.46,4.93,3.81,7.68,3.25.81,6.84-.11,10.54.49.34-1.17.59-2.05.81-2.8a11.36,11.36,0,0,0-6.4-4.56l3.92-1.35c.17-.82.36-1.72.65-3.06l5.29-.82c.27-2.93-2.82-.54-3.27-2.42.83-3,3.49.44,4.27-1.52l2.55,2.35,2.21-.16,1.2-3.39,3.43-1.18V483c2.29-1.69,4.84-.9,7.31-.75.26.62.49,1.18.72,1.75h-3l-2.76,2.86c3.1,1.38.94,4.63,2.53,7h8.65a11.93,11.93,0,0,0,.66,2.92,12.85,12.85,0,0,0,1.93,2.28v3.82c1.81,1.12,1.81,3.23,2.72,4.83l2.68.68c.46,1.13.88,2.28,1.4,3.38.64,1.38,1.37,2.73,2.1,4.16h5.57l5.38,3.26c-1.59,1.5-3,2.91-.76,4.82H3284c.37,1.28-1,3.09,1.17,3.83.88-2.65.88-2.65-1.17-3.83.26-1.23-.63-2.68.69-3.71l5.66,3.07c-.71,1.42-1.35,2.71-2.12,4.24,2.4,1.46,4.7,3.9,7.23,4.16,3.33.35,5.59,2.33,8.42,3.36-.25.25-.48.69-.72.69-4,0-7.95,0-12.07,0-1.1-1.43-3.49-1.35-4.63-2.61-1.29-1.41-3.27-.6-4.23-2-1.17-1.75-3.53-1.09-5-2.7-.82-.91-3.64,0-4.44-.94-1.66-1.89-3.52-1.47-5.76-1.59-1.25.76-2.25,3.44-4.61,1.47-.4-1.16-.81-2.33-1.19-3.45-3.55,0-6.88,0-10.21,0-.24,0-.48-.42-.72-.64-.4-1.14-.8-2.28-1.09-3.13-2.91-1.64-4.26,4.43-7.15.89-.07-1.59-.14-3.16-.21-4.76l-5.11-.56-2.93-2.93-5.51-2.83h-3.27l-2.2-2.06H3209l-2.33-2.05h-7.8l-1.71-1.71h-6.43c-1,1.46-3,2-2.7,4.71.34,1.05,1.93,1.83,2.9,3.09h6.2a4.37,4.37,0,0,0,3.93,2.23c.44,0,.76,1.56.93,1.92-1.19,1.67-2.13,3-2.87,4h-8.1a22.31,22.31,0,0,1-10.63,4.41L3179,526c-1.55.37-3.31-.69-4.71.7l2.07,3.79-4.4,4.63V537l-5.63,2.9a63.93,63.93,0,0,1-7.44,0L3157,538a28,28,0,0,0-4.89.28c-.32-1.27-.18-2.82-1.93-1.46a17.45,17.45,0,0,0,1.93,1.46,32.79,32.79,0,0,0-.13,3.7l-4,0v-4.94c-1.81-2.89-5.13-3.44-7.36-4.81h-6.53c-.67,4.1-5.29,3.06-7.21,5.75H3119l-2.14,2H3109c-2.16,4.45-2.51,4.79-6.87,6.88l2.34,3.14-2.5,3.22,2.68.9,2.32-2,6.23-.31,1.67-1.67L3118,552l-2.45,4.82c1.66.77,3.25,1.08,4.17,2,1.32,1.37,2.78,1.09,4.28,1.14v2h-6.92l-2.14,2H3111l-2.12-2h-19.83l-2.14-2c-1.53.35-3.27-.7-4.72.77-.16,1.49-.32,3.05-.48,4.51-.36.3-.6.69-.84.69-3,0-5.93,0-8.9,0a53.42,53.42,0,0,0-5.71-4,20.67,20.67,0,0,0-2.33.87l3,3.1h5a1.54,1.54,0,0,0,1.56,2c1.91.16,4-.38,5.23,1.87,7.49.16,15,.32,22.53.52.25,0,.49.4.68.57V574l-7.6,3.9H3079l-2.1-1.76a30,30,0,0,1-4.2-.51c-.36-.09-.49-1.06-.72-1.63-.24-1.22.59-2.63-1.05-4h-37.86l-2.24-2.12c-1.34.64-3.07-.62-4.5.74.3,1.64,1.8,2.3,2.73,3.34,1,.31,2.63-.64,2.55,1.48-2.2,1.09-4.47.39-6.64.51l-2.1-2H3014c.09-2-1.6-2.81-2.76-3.6-1.67-1.14-3.78-1.64-5.73-2.42-1.56,1-3.17,1.95-3.51,4-1.21-.23-2.6.57-3.75-.75-.14-1.42-.3-3-.46-4.54-1.39-.75-1.8-2.81-3.79-2.71.24-.57.47-1.14.74-1.79h24.47l1.7,1.7h6.46c1.61-1.86,3.53-4.11,5-5.78,2.24-.15,4,.27,4.78-.41,3.64-3.09,9.24-3.11,11.61-7.71h6.21l2.21-2.06h7.32a91,91,0,0,0,12.36-7.88c4-2.91,4.51-8.14,7.17-11.66v-3.33l-4.09-4.31v-5.85l-5.6-2.93H3059l-2.09-1.92h-9.86c-.93.73-1.61,1.61-2.47,1.86-1.22.35-2.73-.09-3.83.42s-1.8,1.6-3.31,1.77c-1.09.12-2.07,1.3-2.54,1.63h-11.61l-6.92-3.77h-7.78c-1.28-1.89-2.65-3.94-4.12-6.12h-5.65l-3.77-3.77h-4.83l-5.6-7.43c-.5,3.27-.79,5.11-1.12,7.28h-8.48l-1.85,1.85h-7c-.11-1.76-.21-3.34-.31-4.89-1.22-2.18-3.5-2.67-5.53-3.58s-1.77-3.82-3.69-5.29l-1.43,4-2.66-.49c-1.27-2.78.36-5.21-1.34-7.34h-8.59c-.49,1.38-.91,2.53-1.33,3.71h-5.72l-6.92,4H2919l-2.09-1.84h-10.07c-3.16,3.67-8.31,2.94-12.15,5.83h-5.51c-1.54,2.35-4.81,1.81-6.43,4-.25.33-1.25.12-3.33.24l-5.76,5.8h-4.37c-1.62,2.11-4.88,1.59-6.41,4-.19.3-1.26,0-1.87,0l-2.23-2.07H2852l-2.78-4.12h-10.42l-2-2h-7.25l-23.37-11.79c-1.85-.68-3.92.64-5.72-.56L2799,488h-12c-.68.64-1.41,1.3-2.16,2H2777l-2.19,2a7.64,7.64,0,0,0-6.43,2.14h-7.56l-1.92,1.92h-5.69l-2.63,1.93h-5.47l-2.17,2h-3.22l-5.55,2.87c-.2.84-.41,1.75-.61,2.56l-9.2,9.2-2.88,6.84c-3.69,1.68-7.42,3.18-10.92,5.1a4.15,4.15,0,0,0-2.51,4.53c1.23,1.23,2.75,3,4.48,4.42s1.22,4.41,3.47,5.6V547c2.11,2.62,5.22,3.53,8,5h3.65c.93,1.21,2.14,2.77,2.63,3.42l3.68,1.32V559a38.65,38.65,0,0,1,4.78,2.89,46.18,46.18,0,0,1,4.11,4.18H2745c1.15,1.51,3.37,2.34,3,4.79,2.19,1.23,1.54,4.13,3.38,5.62s-.51,4,1.45,5.37.22,4.18,1.5,5.32c2.15,1.94,1.58,4.16,1.66,6.38.06,2,0,3.9,0,6l-3.2.65-2.85,2.85c.47,1.39-.63,3.09.78,4.75h7.89l3.74-2.15,3,2.54h7.85L2775,610h8.2c.87-1.14,2.4-2.29,2.69-3.71.48-2.25,2.09-3.11,3.57-4.28,1.55.27,3.37-.72,4.57,1.06v2c2.61,2.6,5.21,5.19,7.78,7.8.19.19.15.6.24,1.06l-2.48,5c3.49,1.73,4.33,5.08,5.9,7.78.88,1.52.35,3.82.59,5.75.07.56.63,1.06,1,1.59h5v8c-.23,1.21.57,2.6-.75,3.75l-6.18.63-1.84,3.7-4.48-.2L2798,648c-.16-2,1.23-1.87,2.57-2,.52-.07,1-.72,1.38-1.06V641l-1.47-1.47c-1.38-3,.59-6.49-1.34-9.48-1.38,0-3.17.55-3.94-.1-3.15-2.68-7.7-2.95-10.44-6.17-1.71-2-4.6-2-6.31-4.17a74.56,74.56,0,0,0-6.3-6.4c-.45-.44-1-.78.35.26-4.49-2.15-6.77-4.6-9.86-3.06l-3.54,3.54c-2.24,0-4.53.65-6.62-.42L2751,612h-4l-2.9,2.92v4.43l3.93,3.12V631l3.55,3.55c.39,1.16.79,2.32.88,2.57l5.1,2.9h10.93l7.28,4.11h5.48c.29.71.53,1.28.76,1.85-.23,1.21.57,2.6-.59,3.61-2.32,1.3-5.21-.87-7.5,1.47l3.51,2.87H2784l5.82,2.92L2788,660h-4.92l-2.39-2.27-6.54,3.11c-1,.93-2.72,2.75-4.05,4.06-.42,3.36,1.54,3,3.17,3.24,2,2.75,5.4,4.39,6.73,7.86l-1.82,3.13,1.91,2.15v7.9c1.12,3.59,3.91,5.84,6.4,8.32,2.83,2.8,5.63,5.62,8.31,8.3l2.74.55c.47,1.43.86,2.58,1.22,3.65H2804c0,1.17,0,2.34,0,3.18l6,2.82a4.91,4.91,0,0,0,4,4c1.22.24,2.63-.6,3.66.64l1.15,3.55,3.06-3.06c-.91-2-3.58-2.67-3.87-5.13a1.54,1.54,0,0,1,1.37-2,39.69,39.69,0,0,1,4.63,0h5.08l1.83,4H2834c.23.56.3,1.42.71,1.63,1.52.77,3.14,1.32,4.75,2l2.41-2.61-1.79-2.21,3.6-1.46c.39-1.14.77-2.27,1.12-3.32h5.2c2-.1,2.44,2,3.91,2.81v4l4.12,4.34V727l2.06,2.28v4.16c3.56,1.47,3.15,5.63,6.08,7.67-2.54,1.67-3.56.35-4.87-.67a11.48,11.48,0,0,0-3.33-1.26V737c-.9-.9-.9-.9-4.63-1l-4,6H2845l-2.21-2.06H2839l-2.08-1.82h-6.52c-.28,1.89-.56,3.73-.79,5.33l-6.17-1.82C2821.23,741.11,2820.54,738.32,2818,738Zm221.84-269.72c1.41-.77,3.23.63,4-1.45-2.66-.88-2.66-.88-3.28.94-1.55.44-3.1.3-1.74,2.05A4.63,4.63,0,0,0,3039.84,468.28ZM3262,520c1.19,2.07,1.19,2.07,4,1.15-1-1.77-2.61-.91-3.94-1.08v-5.11l-3.22-3h-8l-1.33-3.65-2.85-.73c-.4-1.15-.81-2.29-1.16-3.29l-4,4.07-2.47-2.28-3.21,3.21c3.63,1.12,7.37,1.44,10.28,3.79v2c1.3.93,1.94,2.66,3.66,3,3.5.7,1.41-3.15,3.2-3.83,1.57,0,3.19-.6,4.66.39C3258.1,517.11,3259.19,519.26,3262,520Zm-279.82-68h10.91l5.49-2.95c-.77-1.55-1.14-2.27-1.5-3l-2.35,2c-2.32-.42-4.77,1-6.71-1v-2.11l-4.2-1.95,4.53-2.15a12.46,12.46,0,0,0-7.73-.49c-1.9,2.58.91,3.51,1.56,5.73Zm201.53,61.74c-2.23,2-4.13,3.78-6.06,5.54l1.51,3.24,8.68-4.54c2.47-.3,5.48.75,8.85-1.14-3.62-1.56-7-.19-8.45-.67ZM3011.85,446h-7c-.49,1.28-2.41,1.58-2.61,3.62l5.3.73c.49,1.47.86,2.6,1.28,3.84l3-.64ZM2839.79,730h7.55l3.56,4.22c.48-.81,1-1.31,1.06-1.86a32.63,32.63,0,0,0,0-3.54c-3.28-1.92-6.72.28-9.57-1.39l-1.82-1.82C2840.34,727,2840.14,728.15,2839.79,730Zm321.83-192.21A13.43,13.43,0,0,0,3162,535c-.14-1.54.66-3.23-.95-5.12-1.4.86-3.4-.91-5,1.08.23,1.54-.62,3.21.28,4.32ZM2739.73,622c-2.66,0-5.2,0-7.75,0a2.39,2.39,0,0,0-1.12.43l2.64,3.5c1.89-.28,4.23.83,6.41-.79C2739.86,624.34,2739.81,623.45,2739.73,622ZM3235,504c1.63-2,1.68-4-.14-6.12l-3.35.67c1.23,1.88-.65,3.94,1.5,5.45Zm-159.69-13.82c1.22,2.32-.12,4.08,1.64,5.84l3.45-.63c-1-1.89.35-3.65-1.21-5.21ZM2725,616c-.81,1.18-2.45,1.73-2.62,3.41a5.33,5.33,0,0,0,5.7-.36l-.67-3Zm119.29,104.71c1.84.19,3.95,2.64,5.61.19L2847,718Zm-122-88.88c-.33-1.75-.5-2.64-.76-4l-3.74.7c.25,1.34.43,2.23.62,3.25ZM3118.4,505.42c1.7-.34,3.76,1.73,5.6-.55C3121.93,503.6,3120.16,503.69,3118.4,505.42ZM2768,653c-.22-.22-.49-.66-.66-.63a6.53,6.53,0,0,0-1.34.63c.22.22.49.66.66.63A6.53,6.53,0,0,0,2768,653Z" transform="translate(-166.05 -80)"/><path class="cls-1" d="M2866,670h4.87c1.31-.83,1.72-2.61.79-3.14-2.09-1.17-.89-3.78-2.66-4.86h-3.91c-2.58-1.89-6.79-3.74-9.09-4-.23-.57-.46-1.13-.7-1.7-2.26-1.2-5.2,1.09-7.4-1.55l3.55-1.18c1.82-1.44,3.64-4.27,6.37-5.85,2.07.6,2.78,2.29,4.1,3.15s2.73,1.41,4.06,2.17c.14.08,0,.63,0,1-2.15,1.22-2.15,1.22-1,4.15,4.06-.16,8.18-.32,12.31-.53.21,0,.41-.42.78-.83a23.13,23.13,0,0,1-3.44-1.19c-.4-.21-.47-1.05-.69-1.6v-8h6c.25,1.88-.58,3.89.75,5.83h8.42l1.53-1.53,6.58-1.07-6.69-6.14-2.21-7.09H2900c0,3.33,0,6.67.28,9.89-1.27.32-2.82.18-1.46,1.93a17.45,17.45,0,0,0,1.46-1.93c1.66-.11,5.24-1.67,7.74-3.39-.78-1.94-1.55-3.89-2.37-5.82a1.35,1.35,0,0,0-.69-.66,2.79,2.79,0,0,0-1,0v-2.94l7-7.06h16c.72-.68,1.43-1.35,1.89-1.77l2.9-.73c.11-.92.18-1.55.21-1.84l4-4V613c2.45-1.4,2.55-4.31,3.81-6.42,1.36-2.29,2-4.65,5.2-4.61.93-2.07,3.38-1.57,4.79-2.77.2-.94.39-1.85.43-2.06l5.5-3.61c.32-1.52.52-2.43.77-3.61h10.38c3.32-2.18,3-6.33,6.14-7.94h5c.2.53.38,1.51.59,1.52,2.18.06,3.39,2.17,5.41,2.48-.3,1.66,1.51,2,1.91,3,0,1.46,0,2.78,0,4.09,0,.24-.43.47-1,1H2974.8l-2.61,2.84,2.7,3H2979l2.25-2H2985l2.36-2h5L2998,593v-7c.67.43,1.65.72,1.92,1.33A7.17,7.17,0,0,1,3000,590v6c0,2.75-2.14,1.73-3.57,2a21.2,21.2,0,0,0-2.57.84L2997,602c5.58,0,11.22,0,16.87,0a6.35,6.35,0,0,0,1.82-.6L3017,600h13c0,.33.12.87,0,1-1.85,1.06-3.73,2.06-5.63,3-.26.13-.65,0-1,0l-2.61-1.76c-.75.75-1.22,1.21-1.72,1.72h-5.77c-1.4.79-2.14,2.74-4.2,2l-2.07-2-2.1,2c-7.29,0-14.51,0-21.74,0-.25,0-.5.37-.84.64L2984,610h-8c-1.88.25-3.89-.58-5.66.63-.32,1.83-.64,3.64-1,5.37H2966c-.33-1.62,1.49-1.93,1.87-3.12-1.81-1.42-4.81-1.31-5.55-4.2l3.47-1.38v-4.63c-2-.9-3.85-1.2-5.55.1v8.38c1.38,1.87,3.48,2.65,3.76,4.85-2.8,1-4.28,3.42-6.25,5.5.43,1,.78,1.77,1.3,3L2964,622h3l2.49,2.34,13-6.58,2.56,2.14h5.32l7.55,4.3c.63.16,2.38-.88,3.94.61v10.36l-1.61,1.61c-.17,1.52-.35,3.09-.57,5L2994,645v1.91l-2,2.17v7h-8c-.23-1.86.53-3.84-.6-5.64-1.67.26-2.28,1.8-3.4,2.71V656h-4c-.23-.56-.45-1.12-.78-1.94h-11.66l-3.85-2.52-5.06,4.61c-2.15-.17-4.07-.25-6-.54-.31-.05-.46-1.05-.69-1.61a7.17,7.17,0,0,0-.08-2.67c-.27-.61-1.25-.9-1.92-1.33-.23-.57-.42-1.6-.71-1.63-2.87-.29-5.77-.43-8.61-.6-.47-1.28-.89-2.43-1.42-3.86h-8.06l-2.88-2.13-6.44,3.39c1.95,4.76,1.95,4.76,1.72,8.24-4.47,1-6.51,5-9.33,7.35l-.77,2.86c-1.84,1.14-4.23-1-5.29,1.55L2907,668h3c1.23.27,2.71-.67,3.69.71.86,1.21,2.08,1.35,3.41,1.45.2,0,.33.86.56,1.52l-4.73.51-3,2.78,5,5h1.94l2.21,2h7.2l5.62,2.88c-1.38,2.45-4.54-.2-6,2.27,1.19.41,2.62.5,3.43,1.26,2.74,2.52,5.16,2.31,7.57-.34,2.68.36,4.24-3.05,7.1-2.1,0,1,0,2,0,2.94,0,.25.47.71.61.67.48-.12,1.24-.37,1.3-.68A16.81,16.81,0,0,0,2946,686c2.15.67,3.61-1.19,6-1.79,0,1.45,0,2.62,0,3.79a1.7,1.7,0,0,0,2,2c1-.06,1.8.08,1.63,1.37-1.18,1.18-2.35,2.33-3.48,3.53-.05.05.27.44.56.89h8.42l2.12-1.74c.53,1.35.65,2.94,1.48,3.51,1.61,1.11.75,3.11,2,4.24H2971l2.34-1.76.81,2.8c-1.62,1.54-3.34,3.43-5.22,5.15-1.55.36-3.29-.69-4.76.81V712H2974c.22.56.42,1.58.67,1.59,2.49.14,3.86,1.87,5.33,3.5V720c-2.2,0-4.4-.11-6.59,0a1.53,1.53,0,0,0-1.41,2c-1.19.21-2.52-.51-4,1v7a39.69,39.69,0,0,1-4.63,0,1.54,1.54,0,0,1-1.37-2v-7.64l-4-3.16v-5.53c-2-3.22-3.17-7-7.47-9.56l-3.86-.21-2.73-4.69v-4.29c-1.09-1.14-2.56-1.54-3.39-.34-1.26,1.85-3.56,1.12-5,2.68s-3.45,1.08-5.32,0c-2.68-1.54-5.47-2.86-8.19-4.26l2.07-2.27a35.1,35.1,0,0,1-3.62-1.31c-.56-.27-1-.91-1.45-1.4h-7.92l-2.17-2-1.53,1.53c-1.38,1-3,.11-4.41.39-1.71-1.49-.67-3.28-1-4.82-2.58-4-7.75-4-11.12-7.13H2887c-2.15,1.83-.61,4.32-1,6.44,1.23,2.2,2.45,4.37,3.94,7v3.32L2892,693v2.21l-3.84,1.31c-.09,1.41-.18,3-.28,4.56-.24.24-.47.67-.71.68-2.64.05-5.28,0-7.58,0-1.72.86-2.44,2.91-4.55,2.15-2.16-1.84-.62-4.32-1.21-7.34l-3.77-2.08v-5.73a22.24,22.24,0,0,1-3.32-1.18c-.42-.22-.5-1.08-.74-1.65h3c1.09-1.49,3.41-2.18,2.93-5.34l-4.14-3.18v-6.36c-2.06,2.33-3.7,4.25-5.75,1.82V668h2A1.7,1.7,0,0,0,2866,670Zm120.41-29.74,3.4-.68v-3.2c-3.86-1.1-7.87.37-11.42-.76l-1-3.12c-2.68-1.42-3.25.92-4.5,1.43h-7.51c-2.29-1.36-4.05-2.73-6.05-3.47a7.56,7.56,0,0,0-4.61-.05c-1.69.54-3.16,1.79-4.72,2.74,0,.64.05,1.29.09,1.94l6.07,3.1h11.24c.51,1.47.9,2.62,1.3,3.76h8.11l2.39,2.19c1.94-.7,4.29.61,6.41-.75ZM2973.93,607c2.05,1.7,4,1.69,6.16,0-.15-.84-.3-1.73-.48-2.75Zm-91,62.43c-1,4.7-.93,4.7.43,6.29C2884.4,673.93,2884.31,672.16,2882.88,669.4Z" transform="translate(-166.05 -80)"/><path class="cls-1" d="M3018,674v2.91c-1.47,1.63-2.84,3.36-5.33,3.5-.25,0-.45,1-.67,1.59h-4c.12-1.69-1-2.2-2.29-1.93a2.58,2.58,0,0,0-1.64,1.64c-.27,1.31.24,2.41,1.93,2.29v2c-1.2.22-2.57-.55-3.69.69A4.9,4.9,0,0,0,3006,690c-.9,2.74-3.35,4.12-5.16,6H2998c-.31-.62-.61-1.25-.93-1.9l-2.94,2.31-3.07-4.92-3.53,1.58L2990,698h-6c-.25-1.22.61-2.65-1.06-4h-5l-6-3.09,9.33-8.91c2.32.91,2.9-2.62,5.13-2l3.58,2.2V672c.55-.22,1.51-.35,1.59-.68.27-1.19-.62-1.39-1.59-1.32l2.14-3.7c.21-.9-.83-2.63.69-4.15H2999l2.33,1.88c3-.45,5.45-4.23,8.67-1V666h-5.15c-1.51,2.08-.76,3.25.5,4.4.38.36.44,1.06.65,1.6h-5l-2.26-2.13-2.57.63c.18,2-1.39,4,.88,5.33l2-1.7,1.7,1.7h10.42L3012,674Zm-31,14c.91.88.91.88,2.75,1.25.05-1.8,1.16-3.76-.81-5.25h-4.12c-.37,1.35-2.43,1.57-2.49,3.35C2983.8,688.61,2985.48,687.69,2987,688Z" transform="translate(-166.05 -80)"/><path class="cls-1" d="M2996,714v-8c2.57.16,1.66-2.09,2.28-3.28L3001,700h1.92c.36.47,1,.94,1,1.43.09,3.52.05,7.05.05,10.57-1.59,0-3.22-.34-4.37,1.33C2998.71,714.67,2997.21,713.75,2996,714Z" transform="translate(-166.05 -80)"/><path class="cls-1" d="M3003.77,711.44l2.05,1.74C3004.07,714.54,3004.21,713,3003.77,711.44Z" transform="translate(-166.05 -80)"/><path class="cls-1" d="M2845.71,745.29l-.71.71a6.53,6.53,0,0,1-.63-1.34c0-.17.41-.44.63-.66Z" transform="translate(-166.05 -80)"/><path class="cls-1" d="M1324,1294h3.09l1.82-4.06,2.16,2.06h6.19c.35-1.06.72-2.21,1.18-3.64l2.43-.46,2.34,2.23,2.84-.68V1283c1.34-1.56,2.74-.74,4-1v3c1.24,1.83,3.91,2.57,4,5.28a1.65,1.65,0,0,0,1.8,1.76,4.47,4.47,0,0,1,4.09,3.52c.65,2.49,1.83,3.91,4.29,4.52a9.14,9.14,0,0,1,2.35,1.48c4.23,2.71,5.35,8,9.09,11.09.43,4,4.15,5.56,6.38,8.49,0,1.11-.55,3,.1,3.61,2,1.78,1.53,5,3.89,6.37V1339l-1.41,1.41a6,6,0,0,0-.55,1.73c0,5.29,0,10.57,0,15.85v5c-2.51,2.07-2,6.41-6,7.29v6.89l-2,.84v-3l-2-2.09v-4.24l3-1c.78-2.74,4.14-5,2.59-9.26l-2.94-.68-1-3.1-7.5-3.41c-.12-2.32-.24-4.55-.36-6.65l-4.14-1.44,8.79-4.37-4-8c.19-.25.7-.89,1.36-1.75v-6.27c-1.6-1.43-3.34-.4-4.87-.84-1.67-1.25-.54-3.07-1.55-5.88l-2.6-2.62-4.3,2.39h-5.41a12.15,12.15,0,0,0-1.83-1.54c-1.82-1.12-.87-3.68-2.74-4.89a20.36,20.36,0,0,1-3.32-3.38h-2.6c-.32,1.77-.65,3.59-1,5.77l-4,.31c-2.3-1.08-3.61-3.49-5.59-5.12v-5h3l2.13,2a27,27,0,0,1,2.18-4.14,2.52,2.52,0,0,0,.1-3.52c-2.49-.31-5-.88-7.36.6v3.1h-3.16l-2.84-2.84Z" transform="translate(-166.05 -80)"/><path class="cls-1" d="M1330,1496a7.64,7.64,0,0,1,.69-1.66c1.77-2.52,1.78-2.51-.69-5.46V1484c1.72-.39,1.88,1.71,3.17,2.06h5.89L1342,1489v3.92l2.06,2.23V1507l1.88,2.08v4L1343,1516h-5c0-2,0-4,0-6a8.23,8.23,0,0,1,.76-2.06c.1-.35,1.93-.6.43-1.78h-8.53c-1,1.42-1,2.54.12,3.61a16.82,16.82,0,0,1,2.76,2.84,14.84,14.84,0,0,1,1.21,3.34H1338v3.27l-3.45,1.09-1,3.12c-1.41,1.06-3,.24-3.77.38L1326,1526v-20.8C1328,1502.33,1329.74,1498.27,1330,1496Z" transform="translate(-166.05 -80)"/><path class="cls-1" d="M1316,1610a1.7,1.7,0,0,0,2,2v9.33l3.85,3.32a3.26,3.26,0,0,1-1.3,3.81c-3.14,2.42-3.29,6.58-5.54,9.53h-4c-1.76,2-1.82,4,0,6a2.71,2.71,0,0,1,.62,3.44c-1.75,1.17-3.75.36-5.63.6v-2.53l-2-3.47a14.23,14.23,0,0,1,2,0,1.62,1.62,0,0,0,2-1.52c.15-1.34-.06-2.65-2-2.5,1-3.3,4.48-4.54,6.09-7.57v-9.53c2.33-2.1,3.07-4.37.93-6.82-1.3-1.49-1.47-2.72,0-4.08Z" transform="translate(-166.05 -80)"/><path class="cls-1" d="M1386,1386c-2-.1-2.39,2-4,2.81v10.26c-2.48,1.54-5.67,1.58-6.14,5.32A4.42,4.42,0,0,1,1372,1408v-4.93l2-2.13v-4.46l4.46-3.7c-1.62-3.2-3.13-6.17-4.8-9.49L1376,1382h5c1.62-1.24.66-3.06,1-4.57s2.06-2.22,2.13-4.17c0-1.17,1.53-2.56,3.15-3,1.33,2.21.49,4.54.67,7.48l-4,3c.08,2,0,3.41,2,3.25Z" transform="translate(-166.05 -80)"/><path class="cls-1" d="M1372,1410c.67,1.33,1.33,2.67,2,4s1.33,2.67,2,4c.75,3-2.31,4.75-2.46,7.46-2.13.23-3.52,2.08-5.54,2.54v-16c.43-.67.72-1.65,1.33-1.92A7.17,7.17,0,0,1,1372,1410Z" transform="translate(-166.05 -80)"/><path class="cls-1" d="M1328,1472l-1.74-.79L1328,1468c1.88-.14,2.11,1.14,2,2.48A1.55,1.55,0,0,1,1328,1472Z" transform="translate(-166.05 -80)"/><path class="cls-1" d="M1330,1482v-4c1.88-.14,2.11,1.14,2,2.48A1.55,1.55,0,0,1,1330,1482Z" transform="translate(-166.05 -80)"/><path class="cls-1" d="M1330,1478a1.7,1.7,0,0,1-2-2A1.7,1.7,0,0,1,1330,1478Z" transform="translate(-166.05 -80)"/><path class="cls-1" d="M3430,506h7l2.2,2.06h3.92c.33.6.63,1.14,1,1.78l-2.35,4.75c2.23,2.5,3.68,1.3,5.06-.47h12.06l3.18,2.31,3.26-2.45c1.2-.31,2.15.4,3.18,1.39,1.63,1.55,2.94.43,4.37-1.25h16.07l4-4h9.48c2.64-1.08,3.35-4.4,6.63-4.27.91,0,2.62-1.68,2.69-2.68.23-3.09,2.82-4.23,4.29-6.21v-2.23l-3.91-1.36,1.7-2.29c-.41-.52-.91-1.17-1.55-2v-4.33l5.12-2.43c1.38,1.29.32,3.06.68,4.63,1.14,1.81,3,.79,5.46,1.25l2.61,3.75h6.75l2.19,2,1.75-1.75h8l3.91-3.91c2-.85,4.44.38,6.23-2,.76-1,3-.47,4.65,0,.24,1.07.44,2,.65,2.94,1.3,1.48,3.08.44,4.71.79l2.12,2h5a16.61,16.61,0,0,0,7.72,4c.6.1,1.19.32,2.12.58v8.76l3.46.94c2.28,1.41-.55,4.13,1,5.74-2.35,3.12-2.65,7.11-6.22,8.57v6.25L3578,529V533l1.93,2.06c.4,1.62-.54,2.47-1.37,3.53s-.87,2.26-1.32,3.56l-2.59-2.37c-.37,2-.71,3.86-1.13,6.11l-4.87.27c-.26.8-.53,1.68-.81,2.56-.4,1.66-2,1-3,1.58a18.58,18.58,0,0,0-2.82,2.62c0,2.82,0,5.47,0,8.13a3.3,3.3,0,0,1-.71.69,2.57,2.57,0,0,1-3.4-.81c-1-1.24-2.18-1.06-3.67-.39-.13,2.24-.25,4.47-.37,6.66l-3.61,3.61c-.18,1.52-.36,3.09-.58,5.07l-4.69.27-2.27,2h-6.14l-.68,2.67L3538,583v4.07l-4.82,2.25c3.94,1.08,7.24.37,10.32.71.3,1.32.5,2.23.77,3.42l2.89.75L3549,596h5l2.61,1-4.62,2c.3.32.6.63.91.94H3542c-.21-1.19.51-2.52-.77-3.78h-6.08c-1.08.61-2.12,1.19-3.11,1.8-.06-1.24-.16-2.45-.26-3.68-2.82-.35-5.26-.81-7.61.29.14,2-1.18,4,.94,5.37,2.63.46,4.09-3.07,6.93-2,.55,1,1.15,2.06,1.67,3l-1.71,3c-2.55.35-5.22-.68-7.61.47-.46,1.34-.85,2.48-1.24,3.59-1.8-.4-3.57.65-5.26-1.19v-8.53c-1.24-.13-2.18-.2-3.1-.35s-1.8-.37-3.31-.69l5.8-2.92,2.48,1.88c.16-3,.27-5.18.39-7.32l1.75-2.11c-1.25-1.35-3.35-.42-4.36-2.15-.33-.58-1.66-.58-2.17-.73l-3.27,2.34-3.09-1.83-5,2.59c-.47,3.32,3.15,4,4,6.57-1,2.45-2.63,4.84-2.35,7.62-2,3-6.12,2.66-7.71,5.8v9c-.56.23-1.54.37-1.62.71a40,40,0,0,0-.63,4.55l-3.63,3.61c0,1.57-.61,3.2.4,4.65l1.59,1.59c-.62,1.37.64,3.11-.69,4.5l-3.42,1.14c0,7.17,0,7.17-1.37,8.88-.21-.24-.6-.48-.6-.73,0-3.63,0-7.27,0-10.9,2.05-1.18,2.05-1.18,1.17-3.83-2.14.74-.8,2.55-1.17,3.83h-9.34c-3,1.15-4.09,1.59-5.19,2-.94.35-1.7.81-1.47,2l-3.35-2c-1.27.3-3-.75-4.34.63-1,1.67.74,4-1.39,5.32H3458c-.22-.55-.35-1.51-.68-1.59-1.19-.27-1.39.62-1.32,1.59-.31,2-2.42,3.23-2.48,5.41,0,.21-1,.39-1.52.59h-3.61l-3.28-4.1c-2,.4-3.76-.64-4.89.81-.23,1.14-.42,2-.63,3.1h-4.78l-3.76-3.76-3,2.46c-.11,2.29-.18,3.57-.23,4.75-1.95.8-3.85,1.18-5,2.66h-8c-1-1.52-2.44-1.85-4.21-2s-3.43-1.25-5.27-2l-2.67,2.21c-1-1.46-2.14-3-2.93-4.12H3396a1.54,1.54,0,0,0-1.54-2c-1.63-.14-3.29.06-4.92-.08a1.54,1.54,0,0,1-1.54-2c4.27,0,8.54,0,12.81,0,.25,0,.5-.35.75-.54l1.09-3.21,2.91-.58c.18-.86.31-1.47.44-2.07a2.82,2.82,0,0,0-.3-.86c-.84-1-1.73-2-2.41-2.72H3396v-4h3l2.19,2h7.91c1.51,2,1.56,5,3.93,5.79h6.17l3.68-3.68c3.54-.47,7.16.21,10.64-.43L3437,630H3439l2.91-2.91v-4.53c.7-.56,1.64-1.94,2.77-2.12,3.28-.5,4.8-3.12,6.88-5.07.37-.35.29-1.19.42-1.8-.4-2.73-5.65-3.1-3.47-7.09a17.58,17.58,0,0,0,11.65-5.62,19.69,19.69,0,0,1,2.85-2.78c.43-.32,1.29,0,1.93,0l5-5v-4.12l-5.44-5.09h-8.59c.64-2,1.9-1.79,3-1.79l2.19-2H3465l2.27-2.05h7.84l1.83-1.83h16.6c.85-3.71,4.21-1,5.79-2.5,1.9-1.83,4.61-1.94,6.49-3.59h5.4c2.24-4,7-4.57,10.72-6.9,0-.66.07-1.31.1-2l-2-2.15v-4.13l-7-3.16L3502,541c-.38-1.73.67-3.51-1.23-5.18h-11.27l-7.13-3.85a51,51,0,0,0-6.3.28c-.32-1.27-.18-2.82-1.93-1.46a17.45,17.45,0,0,0,1.93,1.46c-.35.29-.56,1.34-.82,1.35-2.9.12-5.8.08-8.58.08l-1.62-1.62h-12L3451,534h-3.87l-2.16,2H3441l-2.3-2.06h-12.8c-2.11-.92-3.22-1.78-4.37-1.82-1.75-.07-3.16-.36-4.33-1.77-.3-.37-1.21-.23-2-.34l-2.36,2c-.71,0-1.86-.34-2.64.06-3.58,1.81-7.47,3-10.75,5.44-.25.18-.53.33-.63.4h-20.06a3.8,3.8,0,0,0-4.26-1.88c-2,.44-2.57-2-4.18-2-2,0-4,.16-5.23-1.9a4.41,4.41,0,0,1-4.08-2.13h-4l-2.21-2.06h-9.54l-4.74-6.19-5.13,2.55-2.61-2.44c-2.71.62-5.72-.49-8.37.44-.71,1.72-.65,2.87.72,3.69l1.94.12c.94.94,1.89,1.88,2.8,2.85a9.2,9.2,0,0,1-.71.85H3318.3l-7.29-7.77c-1.75-.38-3.54.67-4.86-.89,0-1.59-.63-3.22.42-4.75,1.32.53,2.71,1.62,3.95,1.47,2.31-.29,3.38,1.75,5.2,2,.73.11,1.6-.59,2.41-.92-1.29-3.55-2.15-7-5.47-9.09H3309l-2.57-2.2c-3.14,0-6.43,0-9.72,0-.24,0-.48-.44-.73-.69a3.5,3.5,0,0,1,0-1,18,18,0,0,1,.67-1.72c4.54-.48,4.54-.48,5.35-1.61l-3.6-1.14-4.63-5.34c-2.59-.54-4.39.5-5.59-1l-.61-2.93-4.88-.56c-.26-.62-.5-1.19-.73-1.76h9l1.18,1.24c.44.36.69.73.94.73,5.31,0,10.62,0,15.87,0,2.37,2.71,4.7,7.38,5,10,0,1.17,0,2.34,0,3.18l6,2.82h4v3l2,2.11c.36,1.62-.69,3.39.81,4.73.65.07,1.64.43,1.86.15,1.7-2.06,5-1.5,6.37-4,3.32,0,6.64,0,10,0,.23,0,.45.45.75.77l1.26,3.73,5.12-2.55,13.76,7.07c-1.31,2.43-4.61-.71-6,3H3374c-.1,2,2,2.43,2.74,3.8h16.84c.29-2,.56-3.81.82-5.55l5.27-.58c.12-1,.22-1.91.35-3l-3.21-.94-3.9-3.72h-4.33l-3.68-5.71-3.53-1.22a27.9,27.9,0,0,0,3.9-1.42c.42-.23.5-1.07.73-1.64h3.18a18,18,0,0,0,2.49-2.76,14,14,0,0,0,1.09-3.21h2.65c.31,1.76.64,3.55,1,5.34.25.21.48.6.73.6,3.26,0,6.52,0,10.18,0l3.5-4H3416c.21.55.33,1.5.66,1.58,1.48.34,3,.44,4.48.63l2,1.79Zm72.77,85.76c-2.45-2.46-4.22-1.4-5.72-1.75l-2.09-2h-4l-3,3c1.82.91,3.61,1.8,5.35,2.65l1.91-1.91Zm42.65-56.19c-2.62,1-5-.37-7.46,1.35.18.92.39,2,.6,3.19,3.32-.31,6.22.15,9-.25.48-2.3,1.22-4.17-.47-5.82ZM3416,517c-1.35-1.42-2.69-1.46-4.11.18l.6,3,3.51-.74Zm.28,123.39c0,.42,0,.84,0,1.27.89.11,1.78.28,2.67.31.22,0,.68-.48.64-.63-.14-.47-.44-1.25-.71-1.26A12.61,12.61,0,0,0,3416.28,640.38Z" transform="translate(-166.05 -80)"/><path class="cls-1" d="M3552.2,645c-.14,1.22-.31,2.79-.48,4.33-2.25,1.2-4.56.46-6.73.56l-2.55-2.29-3.72,2.08c-.23-.23-.67-.46-.67-.7,0-4,0-7.95,0-11.91l-4.08-4.28v-5.89l-2.85-2.85c-1-.36-2.65.61-2.8-1.69l2.9-.59,2.65-2.65c0-.64.11-1.28.17-2,1.8-1,3.52-2.49,5.5-3.07,1.79-.52,3.86-.11,6-.11.24-1.17.42-2.07.64-3.2,1.45-1.58,3.36-.77,5.75-.3l-1.93,2.78c.07.65.13,1.29.23,2.19l2.9.76c.42-1.26.79-2.39,1.16-3.52.24-.24.47-.67.71-.68,2.65,0,5.3,0,8,0,1.76,1.17.78,3,1.2,5.35l5.34,3c-2.87,1.34-4.19,1.95-5.94,2.78l4.08,1.36c.16.76.34,1.67.56,2.74l1.27,1.27c.17.25.5.51.51.77,0,3.3,0,6.59,0,9.76l-3,3h-9.51Z" transform="translate(-166.05 -80)"/><path class="cls-1" d="M3594,556c-.23-1.23.52-1.81,1.53-2s2,.09,2.94-.06,1.76-.74,1.53-2a5.12,5.12,0,0,0,1.88,0c1.36-.55,2.57-1.48,3.95-1.91s3.17.6,4.17-1.22V546h5l3.27-3.37c.45-.29.71-.61,1-.61,4.62,0,9.24,0,13.73,0l3,3v8l-4,4.2v4.17l-2.93,1c-1.13-1.62-2.26-3.26-2.95-4.27h-5l-2.16,2h-4.15c-1.51,3-.23,6.35-.8,9l-9.88,4.94h-4.49c-3,.8-3.07,3.75-4.37,5.81-.63.06-1.52.43-1.87.14-2.17-1.84-5-2.51-7.32-4V565.63c-1.33-2.46-2.55-4.72-3.85-7.11,2.78-1,5.35-.25,7.85-.52.23,1.21-.56,2.59,1,4,.94-1,2-2,3-3.08Z" transform="translate(-166.05 -80)"/><path class="cls-1" d="M3506,638h-2v-3.21l8.25-5.81-4.23-2c.47-.47.69-.89.93-.9,1.3-.07,2.61,0,3.87,0,.42-.52,1.11-1,1.13-1.47.11-2.59.05-5.18.05-7.58l3.07-3.07,1.84,4.07H3522v2.93l2,2.07-2,2.08V630a4.91,4.91,0,0,0-4,4,7.17,7.17,0,0,0-2.67.08c-.61.27-.9,1.25-1.33,1.92C3510.21,638,3510.21,638,3506,638Z" transform="translate(-166.05 -80)"/><path class="cls-1" d="M2366,1352c.17,2.58,1.77,2.12,3.74,1.57v-3.89L2377,1342l2.16.12c1.59,1.29.57,3.08.89,4.63-2.05,1.35-4.66,2-6,4.29v5a1.53,1.53,0,0,1-1.41,2c-2.19.16-4.39,0-6.59,0h-2c.15-1.9,0-3.69-1.85-4.83C2363,1351.21,2364.69,1352.27,2366,1352Z" transform="translate(-166.05 -80)"/><path class="cls-1" d="M822,676l-4.54-2.12c-.69-.09-3.61.24-6.35.09-3.18-2.27-4.62-6.58-9.11-6.34V665c-2-2.15-3.39-.72-4.78.78-1.75-.37-.76-2.13-1.43-2.9-1.73-2-3.68-3.77-5.47-5.56.77-1.64,1.53-3.24,2.31-4.89l2.59-.65L798,646c.45-.78.92-1.55,1.33-2.35.27-.52.45-1.1.67-1.65,1.23-.26,2.68.63,3.7-.68.31-8.45.31-8.45-1-9.32l-1.33,3.76h-6.63l-1.4-1.4c-2.28-1.35-5.31,1.11-7.65-1.78l2.34-4.72c-.64-2.12-3.19-2.9-3.59-4.6a7.23,7.23,0,0,0-3.43-4.87c-2.24.19.29,3.34-2.57,3.27-1-1.44-.18-3.16-.54-4.74-1.17-.74-1.67-2.53-3.47-2.45-.43,1.28-.83,2.44-1.2,3.53h-4.89l-3.25,4.12c-1.75-.14-3.05-.21-4.34-.38-.26,0-.47-.44-.55-.52-.73-3,.42-6.05-.76-9.28-2.77,1.29-3,4-4.43,6.08l-2.77-.38c.31-3.18-1.37-5.58-2.41-8.24a11.76,11.76,0,0,1,2-2.18,43,43,0,0,1,4.09-2.16c-.76-2.29,2.21-3.09,2.06-5.14-.13-1.64,1.5-2,2.17-3.1.51-.84,1-.94,1.42-.23.39,1.16.79,2.32,1.22,3.59l3-.6v-7c-3.72-.54-5.5-3.47-7.87-5.6a14,14,0,0,0-2-1.18h-5.5c-.33-2-.62-3.88-1-6.06L747,582h-6.59c-.94,1.19-2.17,2.74-3.25,4.12h-4.59l-.76,3.14c-2.11,1.78-3.79,4.81-7.2,5.21-1.09,1.16.18,3.76-2.56,3.53-4.16-2.1-6.57-6.1-9.92-8.85.48-1.23,2.7-1.6.95-3.15h-4.64l-3.06-3.85c-2.18-.45-4,.59-5.29-1.1v-.95c1.23-2,2.1-3.34,2.45-3.88h6.73L713,580h2.22a13,13,0,0,1,1.23-3.31c.75-1.06,1.9-1.82,1.24-4.66a12.3,12.3,0,0,0-2.29-1.57c-1.82-.9-.87-3.05-2-4.2l-4.67-.53c-1.2-1.59-.48-3.25-.55-4.52l2.37-3.44-4.49-5v-5.58l1.93-2.23v-3.35l2.68-3.61c3.21-.06,3.2-.09,5.6-1.25-2.53-1.79-5.9.42-8.53-2.22,2.79-1.2,5.61.18,7.85-1.07L717,532h3c.25,1.22-.61,2.65.86,3.84h10.23c2.19-1.46,2.65-3.74,3.7-5.63l2.51-.58c.9-1.8,1.73-3.44,2.59-5.14v-5.63c-2.18-2-4.22-4-4.84-6.86H720v-2.94l2-2.12c.35-1.52-.68-3.25.66-4.61L726,501.2V498c1.87.14,2.26-1.19,1.92-2.46s-1.26-2.06-2.15-3.4c1.18-1.73-1-4.24.72-5.7l3.27,2.06a36.57,36.57,0,0,0,.64,4.81c.1.35,1,.47,1.6.69.3,2.51-.57,5.12.36,7.4,3,2.38,4.23-3,7.1-1,.34.94.74,2.07,1.14,3.2,2.09,1.47,3.12-1,4.73-1.27.22.55.45,1.11.67,1.67.24,1.21-.58,2.61.59,3.62,2.33,1.29,5.22-.9,7.41,1.37,0,4.49,0,9,0,13.58,0,.49.69,1,1.06,1.43H760c-.41,2,1.07,4.26-1.07,5.89l-2-1.89H754c-.23-.56-.45-1.12-.74-1.84h-6.83c-.2,1-.38,1.88-.62,3L736.92,538h-5.47L728,540h-5.46c-1,2.1-.28,3.19.81,4.51.66.8.46,2.3.65,3.49-2.52.31-5.15-.6-7.66.48.28,1.79,1.82,2.42,2.75,3.52H728c.24,1.22-.59,2.62,1,4h6c1.68,1.81,3.1,3.14,5,1v-3c1.22-.25,2.64.6,3.68-.66.31-1.81.61-3.61.87-5.1l3.25-.67c.71-3.32-.6-6.67.89-9.57H752v3.39l6,3.9c.31,1.53-.71,3.32,1,4.66h4.22c1.53,1.83,3.86,3.57,4.65,5.84.86,2.46,2.68,3.7,4.28,5.14s3.74,2.08,5.65,3.07c1.92-.19,3.91.46,5.76-.51l1.31-1.31c3-.64,6,.4,8.67-1L796,560l3.45,1.94c.32-1.86.66-3.83,1-5.59,1.64-.61,3.72.13,3.59-2.35,2.29-.26,6.47-2.09,9.13-4H820v3.09l4,1.84v4.31c-3.4,1.64-3.77,5.6-6.22,8.56,1.26,1.76-1.06,4.35,1.26,6.2h3c-.32,2.53.62,5.17-.44,7.57L817.35,583l4.68,3.9V599l2,2.19c-1.42,1-2.56,2.16-1.73,4.08l3.58,1.69c1,2.84-4.18,4.33-.79,7.07h3v10h-4.52l-3.85,3,1.28,3.43,3.85-4.39H828c.3,1.66-1.52,2-2,3.32-.31,1.37.74,3.15-.76,4.48l-5,.51v5c.34.83,2.53,1.22.76,2.74h-3a1.55,1.55,0,0,0-2,1.52c-.15,1.34.08,2.62,2,2.48a1.7,1.7,0,0,0,2,2c1.19.21,2.52-.51,4,1v7h-5c-1.17,1.67-4.26,2.43-2.39,5.84l4.34.27,5,4.87v3c.22.56.29,1.4.7,1.61a23.87,23.87,0,0,0,3.47,1.23c-2.87,2.73-5.15.44-7.61-.5C821.52,673.42,822.19,674.79,822,676Zm-6.23-50.56c.44,1.55.3,3.1,2.05,1.74A6,6,0,0,0,816,626v-5c-1.51-1.45-2.82-.77-4-1v-5l2-2.15c-.16-2.92.29-5.87-.32-8.55l-3.49-.85c-.12-2.17-.25-4.42-.37-6.65l-1.76-1.76V587c-1.89-1.23-4.1-1.1-5.16-2.93h-5.25l-5.6,2.87v8l1.37,1.5c1.15,2-.24,3.83,1.2,5.24l2.92-1.5c.7,1.8.44,3.39.22,5.93l-3.87,2.59c.34,3.65-.48,6.6.77,9.51l2.83-2.47c.34,2.19.61,4,.88,5.77l3.13,1.07c1.08,1.91-.35,3.72,1.47,5.43a57.21,57.21,0,0,0,4.56-4.66c.71-.9.85-2.27,1.22-3.35H812C811.68,623.1,812.84,625.22,815.77,625.44ZM780,592c-2,0-2.47,2-4.35,3.15,1.59,1.19-1.2,3.48,1.51,4.65L780,597a13.29,13.29,0,0,0-.56-4.79c1.55-.44,3.1-.3,1.74-2.05A6,6,0,0,0,780,592Zm38,26c-.37-1.28,1-3.09-1.17-3.83-.88,2.65-.88,2.65,1.08,3.83.11,1.25.23,2.49.34,3.74,1.65-4,6.17,0,7.88-3.19-.25-.77-.54-1.64-.79-2.45L823.1,616,821,618Zm-78-39.61a17.35,17.35,0,0,0,2.37-1.8,28.52,28.52,0,0,0,1.84-2.41c3.24-.53,5.63.72,7.54-.91v-7l-3.06-.29c-.45,1.25-.85,2.4-1.31,3.67l-4.47.51L740,573c0,1.75,0,3.4,0,5l-4,.29c.1,1.4.17,2.48.26,3.79C738.29,580.89,739.7,579.93,740,578.39ZM806,633a4.28,4.28,0,0,0,6,0c-.33-1.55.61-3.24-.65-4.68L806,631Z" transform="translate(-166.05 -80)"/><path class="cls-1" d="M770,692a1.7,1.7,0,0,1-2-2A1.7,1.7,0,0,1,770,692Z" transform="translate(-166.05 -80)"/><path class="cls-1" d="M948,778c4.21,0,4.21,0,8-2,1.18,2,1.81,4.33,3.51,6.25l3.84-2,2.59,2.74v3.72l-2.3,3.24,2,3-2.56,4c2.48.32,2.45,3,4.9,3v2c-1.87-.23-3.85.54-5.61-.59-.38-1.17-.76-2.31-.89-2.72L956,796c-.32-3.15,3.22-1.11,3.78-2.58v-4.75c-1.28-1.1-2.59-.5-3.78-.67-2,.07-2.43-2-3.79-2.77s-2.71-1.4-4.07-2.09l-4.4-2.21a23.07,23.07,0,0,0,3.54-1.3C947.69,779.41,947.77,778.56,948,778Z" transform="translate(-166.05 -80)"/><path class="cls-1" d="M2622,642c.25,1.61-1.49,2-2,3a11.94,11.94,0,0,0-.43,2.81l-5.05.24L2611.5,653l-1.5-3v-2.76c1.46-3.15,5.27-2.91,7.26-5.24Z" transform="translate(-166.05 -80)"/><path class="cls-1" d="M730,662v2h-2.8c-2.65-1.77-4.05-4.93-7.2-6v-6.92c-2.43-1.37-1.59-4.9-4.12-6.22-1.92-1-3.8-2.05-5.69-3.07V635.1l-7.84-5.68a25.64,25.64,0,0,1,4-1.38,5.5,5.5,0,0,1,2.84.24,28.81,28.81,0,0,1,5.47,3.48c2.25,1.92,4.23,4.15,6.31,6.24h4c2.82,2.56,5,5.89,9,7v1.92l2,2.16v5c-.54.21-1.38.27-1.57.65a18,18,0,0,0-1,3L730,658.73Z" transform="translate(-166.05 -80)"/><path class="cls-1" d="M2124.29,638.71l.71-.71a6.53,6.53,0,0,1,.63,1.34c0,.17-.41.44-.63.66Z" transform="translate(-166.05 -80)"/><path class="cls-1" d="M3806,1488c-3.26.67-3.75,3.69-5.09,6H3798l-1.81-.71a10.71,10.71,0,0,0,1.74-2.86c.3-1.29-.09-2.57-1.93-2.43a3.71,3.71,0,0,0-2.73-3.53c-3.51-.67-5-3.59-7.27-5.55V1476c1.22-.25,2.66.62,3.85-.87l-1.63-2c.52-1.62,1.81-1.09,3.13-1,.41,1.12.82,2.27,1.36,3.75h8.74c.27,1.17.48,2.07.78,3.35l3.31,1.14C3806.66,1482.79,3805.65,1485.45,3806,1488Z" transform="translate(-166.05 -80)"/><path class="cls-1" d="M3784,1476a7,7,0,0,1-2.67-.08c-.61-.27-.9-1.25-1.33-1.92a7,7,0,0,1,2.67.08C3783.28,1474.35,3783.57,1475.33,3784,1476Z" transform="translate(-166.05 -80)"/><path class="cls-1" d="M744,652h4v4.94l-2,2.14V666h-2.89c-2.16-1.76-1.1-3.19.89-4.91Z" transform="translate(-166.05 -80)"/><path class="cls-1" d="M746,666a1.7,1.7,0,0,1,2,2A1.7,1.7,0,0,1,746,666Z" transform="translate(-166.05 -80)"/><path class="cls-1" d="M2433.31,625.25c3.45-2.09,5.89-.74,8.3-1.38C2441.7,626.15,2441.7,626.15,2433.31,625.25Z" transform="translate(-166.05 -80)"/><path class="cls-1" d="M928,816h-3.25l-1.24-3.65-3-.63-.85-5.19c-.36-.13-.72-.37-.81-.29-1.57,1.31-.43,3.11-.94,5l-2.77,2.45c-.27-.22-1-.54-1-.89-.09-2.64,0-5.28,0-8.07l3.75-1.33c0-.82.1-1.72.15-2.48-1.52-1.61-3.29-.55-4.83-.9l-2.48,2.25c-.36-2.08-.68-3.92-1-5.84l-2.79-.62c-1.83-2,0-4.46-.95-6.59-1.29-2.28-3.76-3.06-5.88-4.41s-3.83-3.66-5.73-5.56c-.5-2.08.46-4.7-2.16-6.11v-4c.63-1.25,2.91-1.86,1.44-4.48l-7.15-3.25-.56-2.55L878,751v-6l-7.23-7H866c.45-.78.92-1.55,1.33-2.35.27-.52.45-1.1.67-1.65v-7a10.43,10.43,0,0,0-5.45-3.63c-1.75-.58-2.26-3.26-4.55-3.42-.37-1.28,1-3.09-1.17-3.83-.88,2.65-.88,2.65,1.17,3.83.2,2-1.3,1.86-3.17,2.22l-2.73-3.06v-4.53l3.57-1.26c-.9-1.82-1.8-3.63-2.66-5.39l-2.11.12c-.24.24-.68.47-.68.71-.16,4.9-.26,9.79-.38,14.55-1.77.79-1.74-.35-1.83-1.19a16.81,16.81,0,0,0-3.55-8.17c-3.93,0-3.73,3.78-5.61,6.22-.43-1.32-.78-2.42-1.24-3.83l-2.93-.6c-.29-.87-.68-2-1.16-3.44l-2.79-.57c-1.79-1.71.6-5.34-2.68-6.65a18.21,18.21,0,0,0,8-6.44c0-3.14.07-3.14,2-5.79v-6.06l2-.84c2.44.39,3.27,2.83,5.1,4H848v2.84l7,7.18h4.27c.38,1.12.79,2.28,1.19,3.44l3.47,1.23V711c4.89,3,4.63,9.61,9.16,13H879l2.16,2,2.22-.16c.38-1.08.53-2.46,1.26-3.34a5.28,5.28,0,0,0,1.51-3.44c0-.46,1.47-.87,2.82-1.61l3,3.62V725L890,727.27c.06,1.49,0,2.89,2,2.73v6.93l1.36,1.44a5.79,5.79,0,0,1,.61,1.7c.07,2.31,0,4.62,0,6.21a40,40,0,0,0,2.84,5.47A41.47,41.47,0,0,0,901,756h2c1.63,2.29,1.78,5.64,5,6.49v6.29l2,2.24v5.92L908,779v2l5.65,2.89h4.15l9.84,4.92.72,2.81a8.17,8.17,0,0,1,2.56.45,10.33,10.33,0,0,1,2.15,1.94H946c.21,1.19-.51,2.52,1,4h7v4.94l2.15,2.25c-.72,1.33.65,3.1-.77,4.47-1.8-.31-3.29-3.49-5.51-.34.7,1.3-.7,3.1.89,4.47l4.79.5c-.21,3.34,2.94,4.53,4.26,6.81-.61.73-1.15,1.39-1.55,1.89l2.65,3H966v2c-2.42.08-2.08,1.66-1.77,3.43l3.27,1.07c.36,1.11.73,2.22,1.07,3.27,1.77.31,3.35.65,3.43-1.77,2-.07,2.48,2,3.83,2.83-.19,3.1,2.68,4.19,4.18,6.34-2.47,1.3-5,.93-7.74.44-.16-1.64-.3-3.21-.47-5.06-2.73-1.45-5.79.18-9.19-1L961,836h-3c.1-1.89-1.82-2.34-2.59-3.6-.89-1.45-1.72-2.95-2.56-4.4H946c-.22-.55-.35-1.51-.68-1.59-1.19-.27-1.39.62-1.32,1.59-.33,0-.87.12-1,0-.72-1.31-1.37-2.67-2-4-2.3-.26-4.62.66-6.7-.64-1-3,.62-6.43-1.22-9.4L931,816Z" transform="translate(-166.05 -80)"/><path class="cls-1" d="M824.38,703.72a12.61,12.61,0,0,1-.31-2.65c0-.27.79-.57,1.26-.71.15,0,.64.42.63.64,0,.89-.2,1.78-.31,2.67Z" transform="translate(-166.05 -80)"/><path class="cls-1" d="M857.29,725.71,856,725c.22-.22.49-.66.66-.63A6.53,6.53,0,0,1,858,725Z" transform="translate(-166.05 -80)"/><path class="cls-1" d="M3798,1496v2h-2A1.7,1.7,0,0,1,3798,1496Z" transform="translate(-166.05 -80)"/><path class="cls-1" d="M2532,518h3l2.14-2h5.12l11.45-5.88H2579c1.08.35,1.7,2.62,3.92,1.82l2.06-1.88c1.76,1.14.73,2.95,1,4.55,1,3.13,4.69,2.87,7,5.34h8.13l.84,2-3.47,2h-8.19c-.94,1.22-2.15,2.77-3,3.82-2.25.46-4-.57-5.2.94l2.84,5c1,.79,2.3,3.24,4.36,4.18h3.53l2.13-2h9.88l2.14,2H2612v4h-23.21l-3.3,4H2582c-.34-1.62,1.51-1.93,1.86-3.14L2581,540h-6.09l-6.94,7.16V550l-2-.83v-6.73l-3.16-.64-3.41-3.41-5.72-1c3.29-2.88,8.14-2.48,10.08-6.59-.26-.26-.5-.7-.73-.7-4,0-7.95,0-11.91,0l-2.18-2H2545l-3.76-3.76h-6.4l-9.89,9.79h-2c-1.6,1.28-.57,3.11-1,4.58-.36,1.14-1.75,2.08-1.84,3.17-.16,2-1.87,2.57-2.84,4.1l-4.63.22-4.72,6.8a4.24,4.24,0,0,1-1.43,3.88c-.89.79-.54,3-.75,4.54-1.82,1.29-3.84.43-5.73.69h-2c-1.71-4.54-6-5.91-9.74-8a17.4,17.4,0,0,0-2.25-.91V545l2-2.1V538c.56-.22,1.58-.42,1.59-.67.14-2.49,1.87-3.86,3.49-5.33H2496l.68,1.67c4.23,0,8.44,0,12.65,0,.22,0,.45-.44.67-.68v-5h6.86c1.54-1,2.24-3.46,4.59-1.88l.86-3.44c1.35-1.37,3.08-.33,4-.54L2530,520A1.7,1.7,0,0,0,2532,518Z" transform="translate(-166.05 -80)"/><path class="cls-1" d="M3262,482v-4.94c2.07-2,4.78-.54,7.05-1.16l2.09-1.9H3288c.24.57.34,1.51.73,1.65a73.76,73.76,0,0,1,7.5,3.6,3.13,3.13,0,0,1,.71.7l2.12-1.92h2.28c.21.86.92,2.11.57,2.58a15.57,15.57,0,0,0-2.58,5.33h-16.19c-1.77,1.38-.88,2.83-1.14,4.06-1.64,0-3.29-.1-4.92,0s-3.24-.61-4.8.61c-.17,1.5-.35,3.05-.53,4.61-2.33.76-1,3.67-2.76,4.75h-3.94c-.71-.67-1.42-1.33-2.14-2H3261a15,15,0,0,0-5.78-7.59l-2.51-.89L3250,484h3.25l1.08,3.33c1.12.46,2.28.85,3.36,1.4a7.34,7.34,0,0,1,1.42,1.26h6c1.46-2.33.85-4.84.62-7.26C3264.63,481.41,3263.22,482.24,3262,482Z" transform="translate(-166.05 -80)"/><path class="cls-1" d="M3224.69,486c-.87-1.6-2.39-1.9-2.36-3.33.28-.25.51-.64.76-.64,3.26,0,6.52,0,9.78,0,1.18.91,2.08,2.05,3.17,3-.65.57-.88,1-1.13,1C3231.65,486,3228.39,486,3224.69,486Z" transform="translate(-166.05 -80)"/><path class="cls-1" d="M3226,626c-.09-2,2-2.4,2.67-3.66,4.3,0,8.48,0,12.67,0,.22,0,.43.43.73.75-3,1.85-6.36.21-9.69,1.31-.15.75-.32,1.64-.49,2.46,2.22,2.41,5.12.3,7.42,1.38.25.62.47,1.18.7,1.73-2.55.31-5.2-.55-7.82.48v4.73c.42.37.66.77.9.77,3.31,0,6.62,0,9.88,0l2.3,2.14,2.53-.69c.09-.9.15-1.54.23-2.4-1.26-.63-3.1-1-3.81-2-1.1-1.68-4.47.16-4.21-3h4.94c.68-.66,1.38-1.32,2.45-2.34.91.52,1.92,1.18,3,1.7s2.57.63,3.29,1.44c1.61,1.8,3.61.9,5.34,1.26l7.44,7.38c-2.86.32-5.32.55-7.76.95-.31.05-.46,1.05-.69,1.61h-24.92l-2.14,2H3217l-2.13-2c-2.82-.59-4.18,3.73-7.24,2l-5.62,3c.24.24.48.68.71.68,4.62,0,9.24,0,14.31,0l2-1.67h3.9c1.37.52,1,2,1.24,3.28l3.25,1.19-2.18,7.3-3.21,2.47v2.85l-7.79,3.54c-.12,1.31-.26,2.88-.42,4.73l-3.22.89c-1.89,1,.32,3.24-1.15,5l3.87.84c.29.85.68,2,1.06,3.14l7.87,3.56-4.46,2.08,4.23,2c-1.4,1.75-3.2.72-4.88,1.06l-2.12,1.9c-2.14.4-4.49-.5-7.06.87l5.18,3,2-1.77c4.17-.65,6.82,2.62,10.61,3.6.12-1.63.25-3.2.39-5l2.73-.79c.7,1.48,1.35,2.83,2,4.21l2.16-2h5.26l5.61,2.87v4.3l-3.5,2.83h-5.69l-1.45,4L3231,706.1,3229,708H3226c.05-1.38-.62-2-2-2-.39-1.31,1-3.12-1.19-3.85-.75,1.12-2.38,1.62-2.41,3.63,1.22.09,2.4.17,3.6.22-.06,1.35.61,2,2,2v3.08l-3.05,2.76h-5.1c-2.68,1.95-6.08,2.31-8,5.35a23.75,23.75,0,0,1,3.42,1.2c.4.21.47,1.05.69,1.61h-13.23l-1.11-3.35a5.85,5.85,0,0,0-1.72-.62c-3.31-.06-6.63,0-9.94,0,.24-.57.32-1.42.74-1.65a21.45,21.45,0,0,1,3.41-1.21c-1.21-1.2-2.16-2.14-3.1-3.09-1.46-.81-3.81,1.33-5-1.61l3.3-.68a14.15,14.15,0,0,1,1.18-3.21,13.91,13.91,0,0,1,2.32-2.38c1.88-.2,3.17-.31,4.45-.5.27,0,.5-.41,1.07-.92-2.39-1.36-5.73.26-7.29-2.75a33.54,33.54,0,0,1-5.84-.08c-1.66-.3-3.88,1.45-5.34-1.83,2.52-.14,4.79-.07,6.95-.09l7.25-7.12c-.88-2.55,1.81-3.13,2.72-4.75,1.09-2,3.65-1.74,5.08-3.41-1.53-1.08-3.23-.8-4.53-2.1-.92-.91-3-.64-4.5-.88l-2.64-2.47c-.29-1.27-.5-2.17-.68-3l-2.74-.36-3.17,4.07c-4,0-7.29,0-10.62,0-.23,0-.45-.46-.81-.84.38-1.58,1.86-1,2.9-1.24.74-1.18,2.57-1.67,2.38-3.71h-6.67L3165,676c-3.53,0-7.18,0-10.83,0-.59,0-1.17-.36.25.11L3150,674a1.7,1.7,0,0,0-2-2V660a4.91,4.91,0,0,1,4-4v3.48l3.61,3c.49,1.7.75,2.57,1,3.37l2.62.21,1.14-3.39c.09-.09.32-.52.56-.53,5.25,0,10.51,0,16.16,0l3.09-3.43c-.55-3.28-3.49-4.55-5.28-6.66H3160l2.84-5.91h3.92c.76-.7,1.49-1.36,2.27-2.06H3175l3.83,3.65L3184,645v-2.4l-5.4-1c-.16-.27-.49-.64-.43-.72,1.28-1.61,3.08-.56,4.79-1l2-1.83c2-.66,3,.74,4.05,1.92l3.35-5.82h5.23c.2,1,.39,1.91.63,3.07,1.09,1.37,2.94.31,4.4.81a12.74,12.74,0,0,1,3,2.06c2.18-1,4.14-1.91,6.08-2.85.07,0,0-.44-.08-.68-2.23-1.72-5.23.58-7.64-1.61,2.95-2.1,6.33-.22,8.88-1.08l3.17-2.83-1.92-2.18,5.58-2.9H3226c1.19,2.06,1.19,2.06,4,1.14C3229,625.36,3227.33,626.22,3226,626Z" transform="translate(-166.05 -80)"/><path class="cls-1" d="M3360,636c2.85.56,3.68,3.55,5.87,4.64.06.89.09,1.53.14,2.3l10,5.1h10.79c1.4.77,1.42,1.42.46,1.66-1.52.38-3.13.39-4.65.76-.54.14-.94.88-1.41,1.35l-3.24-2.23-3.16,2.41h-9.37l-3.42-2a1.7,1.7,0,0,0-2-2h-5.48l-3.76-4c-3.57,1.26-3.57,1.26-5.39,5.61-1.08.85-3.58-.31-3.37,2.38h-8c-.23-2.73,2.36-1.49,3.41-2.41.49-3,3.9-5.26,2.26-8.87-.46-.21-1-.48-1.59-.72s-1.15-.43-2-.74l1.78-2.25-2.52-2.73a40.07,40.07,0,0,1-4.62-.65c-.35-.08-.48-1.06-.72-1.63h10.87c1.13,1.74,3.18,1.82,4.81,2.68.39,1.13.77,2.27,1.13,3.32a56.66,56.66,0,0,0,7.08-.28c.32,1.27.18,2.82,1.93,1.46a17.45,17.45,0,0,0-1.93-1.46c.25-2.23-1.92-1.38-3.1-2-.26-.13-.23-.83-.39-1.51h6.44Z" transform="translate(-166.05 -80)"/><path class="cls-1" d="M3236,728l3.3-1.92c.38,1.09.77,2.24,1.17,3.39,2.41,2.12,3.27-.91,5.4-1.65l3.2,1.74c2.68-.41,2.41-3.49,3.8-5.47L3255,726h3.9L3261,724c1.5.13,3.14-.43,4.63.39.06,2.8-2.73.67-3.37,2.26-.71,1.77-2.9,1-4.27,2,2.24,1.36,2.24,1.36,5.13,1.21l1.44-1.44c1.56.63,3.19,1.18,4.7,1.94.41.21.49,1.08.72,1.64a1.54,1.54,0,0,1-1.49,2c-2.55.25-3.87,1.73-4.51,4h-12.92l-2.13,2H3245l-2.09-1.92h-4l-1.7,1.7h-6.44L3228,737v-3h2.84C3232.65,732.12,3235.1,730.74,3236,728Zm8.29,7.29.71.71a6.53,6.53,0,0,0,.63-1.34c0-.17-.41-.44-.63-.66Z" transform="translate(-166.05 -80)"/><path class="cls-1" d="M3138,692v2h-6.92l-2.11,2h-3.9l-2.12,2H3120v-3l-5-5h-6c-.67-1.33-1.32-2.7-2.06-4-.08-.14-.63,0-1,0,.45-.78.92-1.55,1.33-2.35.27-.52.45-1.1.67-1.65h4c.21,1.19-.51,2.52,1,4h7c.3.63.61,1.26.95,2,3.09-2.34,3.09-2.34,6.41,0H3134c0,1.17,0,2.34,0,4Z" transform="translate(-166.05 -80)"/><path class="cls-1" d="M3213.77,721.44l2.05,1.74C3214.07,724.54,3214.21,723,3213.77,721.44Z" transform="translate(-166.05 -80)"/><path class="cls-1" d="M3341.77,651.44l2.05,1.74C3342.07,654.54,3342.21,653,3341.77,651.44Z" transform="translate(-166.05 -80)"/><path class="cls-1" d="M2880,646c.11-2-1.93-2.38-2.65-3.7a8.06,8.06,0,0,0-5.33.24l2,3.46h-5.24c-.37-1.08-.76-2.24-1.16-3.4-1.81-1.15-3.82-.37-5.9-.62l-7.58-3.94h-7.29a8.91,8.91,0,0,1-.8-2,26.86,26.86,0,0,0-.31-3.88c1.27-.32,2.82-.18,1.46-1.93a17.45,17.45,0,0,0-1.46,1.93c-1.37-.11-3-.11-5.14-.11-.29,1.72-.59,3.53-.89,5.33-1.41,1.34-3.14.33-4.65.67l-2.12,2H2822c.66-3.26,3.66-3.73,6.11-5.1l-2.11-1.81V630a23.07,23.07,0,0,0,9.21-4.11c1.28-1.1,0-3.79,2.14-3.78,2,0,2.61-1.85,4.13-2.06a32.38,32.38,0,0,1,4.59,0l19.79,10H2869l3.32,5.8,4,.28,5.29,2.73c.06.26.28,1.15.57,2.34L2884,643v3Z" transform="translate(-166.05 -80)"/><path class="cls-1" d="M2814,642a1.53,1.53,0,0,1,1.41-2c2.19-.16,4.39,0,6.59,0v2.86l-5.35,3a21.49,21.49,0,0,0-1.08-3.23C2815.38,642.27,2814.54,642.21,2814,642Z" transform="translate(-166.05 -80)"/><path class="cls-1" d="M2990,698c2.05,1.18,2.05,1.18,1.17,3.83C2989,701.09,2990.37,699.28,2990,698Z" transform="translate(-166.05 -80)"/><path class="cls-1" d="M3511.85,611c1.64-1.31,2.74-1.38,3.91-.29C3514.93,612.88,3513.66,612.29,3511.85,611Z" transform="translate(-166.05 -80)"/><path class="cls-1" d="M2472.23,1388.56l-2.05-1.74C2471.93,1385.46,2471.79,1387,2472.23,1388.56Z" transform="translate(-166.05 -80)"/><path class="cls-1" d="M800.23,642.56l-2.05-1.74C799.93,639.46,799.79,641,800.23,642.56Z" transform="translate(-166.05 -80)"/><path class="cls-1" d="M914,738h-2c.33-1.62-1.49-1.93-1.87-3.12,1.43-1.17,2.34-3.26,4.76-2.88,2.07,1.48,1,3.48.74,5.29C915.58,737.6,914.57,737.77,914,738Z" transform="translate(-166.05 -80)"/><path class="cls-1" d="M2528,610l-2.49-5.06a28,28,0,0,0,3.79-1.33c.41-.21.48-1.05.7-1.61,1.67.3,2-1.53,3.41-2.06H2539l2.24-2a5.75,5.75,0,0,1,2,.3,12,12,0,0,1,1.86,1.54h14.12L2565,594h13.54l4.32-2.52,2.13,4.78c.71-1.59,1.31-3,1.59-3.59L2592,590c.25,1.22-.61,2.65.58,3.61,1.72,1.11,4.09-.67,5.18,1.08.3,1.32.51,2.22.69,3,4.79.43,4.79.43,5.41,1.36l-2,2.28c.29.87.57,1.74.84,2.57L2606,602c.22.56.35,1.52.69,1.6a42.66,42.66,0,0,0,4.54.63c3.16,2.77-1.71,3.66-1.23,5.77h-3l-2.13,2H2601c-3,2.52-4.14,6.11-5.55,9.54l-2.67.68L2589,626h-6.2a8.88,8.88,0,0,0-.73,2c-.09,1.31,0,2.63,0,3.94h-3l-1.28,1.34c-2.2,1.4-4.58.11-7,1l-1.16,1.16a6.77,6.77,0,0,1-1.76.51c-3,0-5.93,0-7.31,0-5.09-1.77-8.15-4-10.46-7.17,0-.66-.08-1.3-.12-2-2.65-1.55-5.67-2.45-8.14-4.26-1.3-1-2.52-.36-3.74-.62v-2l2.23-4.68c-1.6-2.07-3.42-.88-5.77-1.81L2532,610Zm67.06-4c-1.35,1.77-4.78,2.82-2.11,6.07,1.5-2.79,6.18-1.54,6.67-5.46C2598.24,605.38,2596.56,606.32,2595.06,606Zm-15.06-.79,2.22.87,6-3.3c-3-1.09-5.61-1.26-8.23,0ZM2559,618c-1.44,1.33-1.44,2.67,0,4C2560.44,620.67,2560.44,619.33,2559,618Z" transform="translate(-166.05 -80)"/><path class="cls-1" d="M2526,596c.78.45,1.55.92,2.35,1.33.52.27,1.1.45,1.65.67v4h-8c.31-2,2.42-3.23,2.48-5.41C2524.49,596.38,2525.47,596.2,2526,596Z" transform="translate(-166.05 -80)"/><path class="cls-1" d="M850.23,560.56l-2.05-1.74C849.93,557.46,849.79,559,850.23,560.56Z" transform="translate(-166.05 -80)"/><path class="cls-1" d="M804.23,554.56l-2.05-1.74C803.93,551.46,803.79,553,804.23,554.56Z" transform="translate(-166.05 -80)"/><path class="cls-1" d="M842,653.47V650l-8-7.88c0-1,.18-2.28,2.73-2.1,1.25,1.08,2.75,3.4,4.61,3.74,2.35.42,3.06,2.25,4.67,3.06-.23,2.35.59,4.66-.81,7.2Z" transform="translate(-166.05 -80)"/><path class="cls-1" d="M832,664c-3.1.32-5.22-.84-6-4,.22-.56.44-1.11.67-1.67L832,661Z" transform="translate(-166.05 -80)"/><path class="cls-1" d="M828,614a7.17,7.17,0,0,1,.08-2.67c.27-.61,1.25-.9,1.92-1.33a7.17,7.17,0,0,1-.08,2.67C829.65,613.28,828.67,613.57,828,614Z" transform="translate(-166.05 -80)"/><path class="cls-1" d="M830,610a1.7,1.7,0,0,1,2-2A1.7,1.7,0,0,1,830,610Z" transform="translate(-166.05 -80)"/><path class="cls-1" d="M868,622v-6h5.15c1.35,1.91.61,3.52.77,4.61-.75,1.32-1.33,2.36-1.92,3.39a7.17,7.17,0,0,1-2.67-.08C868.72,623.65,868.43,622.67,868,622Z" transform="translate(-166.05 -80)"/><path class="cls-1" d="M875.43,621a10.4,10.4,0,0,1,9.14,0A10.4,10.4,0,0,1,875.43,621Z" transform="translate(-166.05 -80)"/><path class="cls-1" d="M821.44,574.23l1.74-2.05C824.54,573.93,823,573.79,821.44,574.23Z" transform="translate(-166.05 -80)"/><path class="cls-1" d="M868,546c-.67-.43-1.65-.72-1.92-1.33A7.17,7.17,0,0,1,866,542c.67.43,1.65.72,1.92,1.33A7.17,7.17,0,0,1,868,546Z" transform="translate(-166.05 -80)"/><path class="cls-1" d="M3318,608c.33,1.62-1.5,1.93-1.93,3.34l2.54.8,5.22,6.2c0-.09-.13.51-.31,1.23a8.44,8.44,0,0,1-1.37-.44c-2.74-1.52-3.29-1.83-6.05,0-1.61,1-3.08.71-5.67,1.09l-2.61,2.87,4.13,2c-1.28,1.63-2.72.74-3.95,1h-3l-2.52-4.93,5.62-3.78c-2.63-3.54-6.64-4.42-10.33-6.13,2.47-2.14,4.9-.42,7.7-1.8.11-.37.45-1.5.78-2.62.24-.24.47-.67.7-.67,2.64-.05,5.27,0,7.67,0Z" transform="translate(-166.05 -80)"/><path class="cls-1" d="M3331,540h-6.43l-3.34-4.06H3317l-2.17-1.91c-2.34-.39-4.74.91-6.74-.89.79-1.21.79-1.21,11.09-.94l1.6,1.6h5.2l7.48,4.07h7.77l2.76,3.3c-.06.72-.12,1.36-.17,2-1.29,1.6-3.11.33-4.53,1-.83-.75-1.55-1.4-2.33-2.12h-3.86Z" transform="translate(-166.05 -80)"/><path class="cls-1" d="M3212,572c-.34-1.62,1.51-1.93,1.72-2.66-.8-1.71-1.46-3.1-2.33-5l-2.53-.6-2-1.82H3203l-3.56-3.56c-1-.92-3.64.32-3.41-2.41h10.85l2.16,2h3.4l5.88,5.22c-1.25,2.91-2.85,5.28-2.54,8.08C3214.61,572.58,3213.21,571.76,3212,572Z" transform="translate(-166.05 -80)"/><path class="cls-1" d="M3388,624h-6.83l-2.36-2.09h-6.06c-.32-.81-.53-1.36-.75-1.91l8.25-4.08c1.95,2.18,4.56,2.11,7.06,2.38A6.41,6.41,0,0,1,3388,620C3388.07,621.34,3388,622.67,3388,624Z" transform="translate(-166.05 -80)"/><path class="cls-1" d="M3338,608h-7.13c-.7.83-1.52,1.83-2.55,3l1.4,1.77c-.3,1.77-1.71,1.06-3.15,1.14-.31-1.76-.63-3.56-.94-5.35a7,7,0,0,0-1.72-.58c-1.3-.09-2.61,0-3.91,0,.23-.56.38-1.56.69-1.6,1.88-.3,3.8-.38,6-.55l2.58-1.6L3331,606c1.65,0,3.57-.1,5.48,0A1.54,1.54,0,0,1,3338,608Z" transform="translate(-166.05 -80)"/><path class="cls-1" d="M3310,628h3l2.1-2c2.66-1,3.46,3,6.25,2,2.37-.85,3.46,2.81,6,2.31.12,0,.46,1,.69,1.62h-9l-2-2c-1.72,0-3.63.11-5.52,0A1.54,1.54,0,0,1,3310,628Z" transform="translate(-166.05 -80)"/><path class="cls-1" d="M3136,546v-3.36c3.16-1.47,6.67-.22,10-.64a39.69,39.69,0,0,1-.05,4.63A1.54,1.54,0,0,1,3144,548C3140.21,546,3140.21,546,3136,546Z" transform="translate(-166.05 -80)"/><path class="cls-1" d="M3082,598c.93-2.75,3.36-4.17,5.21-6H3092v3.13l-3.43,2.87Z" transform="translate(-166.05 -80)"/><path class="cls-1" d="M3094,592c1.61.24,1.94-1.48,3-2a11.17,11.17,0,0,1,2.81-.42l-1.56-3a2.36,2.36,0,0,1,3.4,0A13.23,13.23,0,0,0,3104,588c-.45.78-.92,1.55-1.33,2.35-.27.52-.45,1.1-.67,1.65h-3c-.53,1.2-1.11,2.48-1.7,3.81C3095.74,594.87,3094.28,594,3094,592Z" transform="translate(-166.05 -80)"/><path class="cls-1" d="M3160,652c-.2,1.84.48,3.76-.62,5.7l-5.37-2.59c.09-.85.18-1.73.25-2.47C3156.24,651.52,3158.16,652.2,3160,652Z" transform="translate(-166.05 -80)"/><path class="cls-1" d="M3101.38,591.87c2.56.52,4.87-.88,6.52,1.25-1.31,1.5-3,.83-4.46.79C3102.86,593.89,3102.31,592.83,3101.38,591.87Z" transform="translate(-166.05 -80)"/><path class="cls-1" d="M3340,610c-.22.56-.37,1.54-.69,1.6-1.2.22-1.36-.68-1.32-1.65,0-.65,0-1.3,0-2A1.7,1.7,0,0,1,3340,610Z" transform="translate(-166.05 -80)"/><path class="cls-1" d="M3208,572h4c.14,1.88-1.14,2.11-2.48,2A1.55,1.55,0,0,1,3208,572Z" transform="translate(-166.05 -80)"/><path class="cls-1" d="M3334,531a6.53,6.53,0,0,1-1.34.63c-.17,0-.44-.41-.66-.63a6.53,6.53,0,0,1,1.34-.63C3333.51,530.34,3333.78,530.78,3334,531Z" transform="translate(-166.05 -80)"/><path class="cls-1" d="M3390,626a1.7,1.7,0,0,1-2-2A1.7,1.7,0,0,1,3390,626Z" transform="translate(-166.05 -80)"/><path class="cls-1" d="M3148,684c-.56.23-1.41.3-1.63.72a27.16,27.16,0,0,0-1.43,3.91c-.6-1.77-1-2.92-1.51-4.47-2.7-.43-5.61,0-8.49-.21-.9-1.3-2.67-1.91-2.94-3.68-.08-3,3.89-3.41,4-6.27.56-.23,1.4-.3,1.62-.71a23.75,23.75,0,0,0,1.24-3.43l1.8,1.8c2.21.93,4.82,0,7.34.34a1.7,1.7,0,0,0,2,2v4.93A5,5,0,0,0,3148,684Z" transform="translate(-166.05 -80)"/><path class="cls-1" d="M3388.62,644.13c-2.56-.52-4.87.88-6.52-1.25,1.31-1.5,3-.83,4.46-.79C3387.14,642.11,3387.69,643.17,3388.62,644.13Z" transform="translate(-166.05 -80)"/><path class="cls-1" d="M2988,568c2-.19,1.87,1.27,2,2.08l-7.84,7.8a28.34,28.34,0,0,0-3.47.5c-.35.08-.48,1.06-.71,1.62l-4.33-2c-2.25-.27-6.5.27-10.82-.08-1.57-1.17-.57-3-1-5.12l2.59-2.46c2.92-1,3.47,1.35,5,1.69,2.54,0,4.14-3.48,7.62-1.74l3.12-4.22h4.67C2986,566.5,2986.34,568.3,2988,568Z" transform="translate(-166.05 -80)"/><path class="cls-1" d="M2884,646c1.34.24,3-.62,4,1.15C2885.18,648.05,2885.18,648.05,2884,646Z" transform="translate(-166.05 -80)"/><path class="cls-1" d="M3068,590a1.47,1.47,0,0,0-1.5-1.92c-1.14.11-2.22.81-4.58,1.77h-3.09c-1.67-1.48-.23-3.26-1-4.6.64-.5,1.1-1.19,1.58-1.2,4.86-.08,9.73,0,14.59,0h7.4c.22,1,.46,2.11.65,3-1.72,1.88-3.52.44-5.68,1.67l-1.45,1.37Z" transform="translate(-166.05 -80)"/><path class="cls-1" d="M3136,550c3.79,2,3.79,2,8,2a1.53,1.53,0,0,0,1.56,2c3.62.1,7.26,0,10.88.08a1.53,1.53,0,0,1,1.56,2h-4.92l-2.13,2H3147l-2.12-2H3141l-1.73-1.73h-3.92l-2.47-2.25H3118c.22-.55.28-1.39.67-1.6,1.5-.78,3.1-1.36,4.7-2L3125,550Z" transform="translate(-166.05 -80)"/><path class="cls-1" d="M3128,560l.75-1.85h14.5L3144,560Z" transform="translate(-166.05 -80)"/><path class="cls-1" d="M3166,560h-4.68c-1.35-1.12-3.06-2-3.32-4h7C3166.51,557.48,3165.79,558.81,3166,560Z" transform="translate(-166.05 -80)"/><path class="cls-1" d="M3034,584v2.91c1.37,1.74,4.17,1.21,5.3,3.38,1,1.86,3.28,1.51,5,2.66l-4.33,3.88V600h-10c0-.33-.14-.77,0-1,.62-.76,1.33-1.43,1.95-2.08v-6l-2.9-2.9h-5.91l-2.88,2.17L3016,588v-2a7,7,0,0,0,2.67-.08c.61-.27.9-1.25,1.33-1.92h6c.29.65.59,1.3.79,1.74L3030,584Z" transform="translate(-166.05 -80)"/><path class="cls-1" d="M3042.58,580.83c-2.69,1.52-4.47,1.52-6.24.52C3037.75,580,3037.75,579.92,3042.58,580.83Z" transform="translate(-166.05 -80)"/><path class="cls-1" d="M3001.77,569.44l2.05,1.74C3002.07,572.54,3002.21,571,3001.77,569.44Z" transform="translate(-166.05 -80)"/><path class="cls-1" d="M2946,686h-2c-.07-1,.13-1.86,1.32-1.59C2945.65,684.49,2945.78,685.45,2946,686Z" transform="translate(-166.05 -80)"/><path class="cls-1" d="M728,552c.37-1.28-1-3.09,1.17-3.83C730.05,550.82,730.05,550.82,728,552Z" transform="translate(-166.05 -80)"/><path class="cls-1" d="M182,2098h-6c-.22-.56-.44-1.11-.67-1.67-3-1-6.32.54-9.28-1.11.22-.33.36-.76.52-.76,4.48-.18,9-.32,13.43-.46s4.43,0,5.67-1.35c-1-1.25-2.45-.41-3.67-.65v-4h11l1.36,1.43c2.15,1.13,4.5.24,6.71.66l1.41,1.41c2.25,1.59,5.26-.79,7.55,1.54-3,2-6.37.21-9.38,1.27-1.3,1-.41,2.46-.67,3.69h-2.93l-1.91-1.83H182.72C182.44,2096.9,182.22,2097.45,182,2098Z" transform="translate(-166.05 -80)"/><path class="cls-1" d="M3694,766c.9-1.9,1.72-3.85,2.75-5.68a10.67,10.67,0,0,1,2-2.08l5.61,3.15c-1.49,3.79-5,5.75-7.27,8.61H3694Z" transform="translate(-166.05 -80)"/><path class="cls-1" d="M1852,86c-.23-.56-.3-1.41-.71-1.63-1.88-1-4.66.6-6-2.08-2.2-.2-4.42-.34-6.6-.68-.3,0-.46-1-.69-1.61h16.92l2.12,2h3v2c-1.59,0-3.22-.34-4.37,1.33C1854.71,86.67,1853.21,85.75,1852,86Z" transform="translate(-166.05 -80)"/><path class="cls-1" d="M1388,958v3l-6.28,3.11c-1.77-1.05-3.36-2-3.72-4.11h2C1384.39,960,1384.39,960,1388,958Z" transform="translate(-166.05 -80)"/><path class="cls-1" d="M3718.1,673.83h-3.37c-1.39-2.28-.48-4.6-.78-7.26l3.18-.62C3718.66,668.45,3717.75,670.77,3718.1,673.83Z" transform="translate(-166.05 -80)"/><path class="cls-1" d="M1953.66,148.65c-.3,1.61-1.81,2.24-2.73,3.35-1.5-.32-3.19.63-4.59-.65.3-1.61,1.81-2.24,2.73-3.35C1950.57,148.32,1952.26,147.37,1953.66,148.65Z" transform="translate(-166.05 -80)"/><path class="cls-1" d="M1340,937c-1.51,2-3.54.27-4.89,1.11L1332,935c1.51-2,3.54-.27,4.89-1.11Z" transform="translate(-166.05 -80)"/><path class="cls-1" d="M2652,1256a4.94,4.94,0,0,1-3.92-3.58A1.7,1.7,0,0,1,2650,1250a1.54,1.54,0,0,1,1.95,1.37A37.61,37.61,0,0,1,2652,1256Z" transform="translate(-166.05 -80)"/><path class="cls-1" d="M3704,756h2c.07,1-.13,1.86-1.32,1.59C3704.35,757.51,3704.22,756.55,3704,756Z" transform="translate(-166.05 -80)"/><path class="cls-1" d="M3300,468v-2.95c-1.18-1.68-2.95-.79-4.46-1.07-1-.19-1.77-.74-1.54-2l3.15-1.82,2,1.82H3306c0,.31.11.83,0,.9-1.24.69-2.73,1.08-3.74,2-.75.69-.87,2.05-1.34,3.08C3300.84,468.1,3300.31,468,3300,468Z" transform="translate(-166.05 -80)"/><path class="cls-1" d="M436,282c-1.48-.06-2.83.1-4.24-1.09-2.06-1.72-2.28-1.48-3.76,1.09l-5.38-2.63-2.31-4.73c.41-.29.66-.61.92-.62,3.59,0,7.18,0,10.77,0-.2,2.67,2.25,1.55,3.42,2.4C436.57,278.13,435.76,280.12,436,282Z" transform="translate(-166.05 -80)"/><path class="cls-1" d="M694,458c2,.2,2.76,1.87,3.69,2.92-.6,1.09-1.14,2.09-1.69,3.08l-2.48-1.15c-2.68-1.4-5.62-.41-8.56-1-.94-1.7-3.11-1.57-4.77-2.6v-2.45c1.59-1.4,3.29-.47,4.82-.77l1.65,1.65C688.85,458.6,691.48,457.69,694,458Z" transform="translate(-166.05 -80)"/><path class="cls-1" d="M696,464h2a7.17,7.17,0,0,1-.08,2.67c-.27.61-1.25.9-1.92,1.33Z" transform="translate(-166.05 -80)"/><path class="cls-1" d="M1655.26,1237.82h-2.45c-1.49-1.51-.46-3.24-.81-4.76l-2-2.11v-2c1.57-2,3.59-.25,5-1.12,1.63,1.89.94,3.59.94,5.13S1656.63,1236.24,1655.26,1237.82Z" transform="translate(-166.05 -80)"/><path class="cls-1" d="M1330,1300v-3.1c2.34-1.48,4.87-.91,7.36-.6a2.52,2.52,0,0,1-.1,3.52,27,27,0,0,0-2.18,4.14l-2.13-2h-3Z" transform="translate(-166.05 -80)"/><path class="cls-1" d="M2528,951v4.42l-3,.64c-1.73-1.72-.69-3.45-1-5C2525.3,949.51,2526.64,949.58,2528,951Z" transform="translate(-166.05 -80)"/><path class="cls-1" d="M3498,646a1.54,1.54,0,0,0,2-1.55c.13-1.92,0-3.86,0-5.4,1.36-1.65,2.78-.8,4-1h2v11.15c-3,1.55-3.76,4.88-5.92,8.35v10.19c-3.13.57-6.06.19-9,.32l-2.14-2h-3v-4.92c1-1.13,2-2.12,2.18-4,.12-1.21,2-2.26,2.6-2.88a34,34,0,0,0,4.53-.61c.35-.1.47-1,.69-1.6l2-3.47Z" transform="translate(-166.05 -80)"/><path class="cls-1" d="M3466,674h-4.93a5,5,0,0,0-5.07-2h-2l.84-2h10.43l1.18-3.33,5.35-2.6c2,.23,4.95-.34,7.35.09L3481,666h5c-1.52,1.76-4.94,3.48-7.71,4-1.17.24-2.23,1-4,1.9h-4.9C3468,672.48,3467.66,674.3,3466,674Z" transform="translate(-166.05 -80)"/><path class="cls-1" d="M684,490c.64,2.31,2,3.79,4.51,4a1.54,1.54,0,0,1,1.49,2l-1.28,2.37L674,491v-3C677.61,490,677.61,490,684,490Z" transform="translate(-166.05 -80)"/><path class="cls-1" d="M668,486a1.7,1.7,0,0,1,2,2c-.22.56-.37,1.54-.69,1.6-1.2.22-1.36-.68-1.32-1.65C668,487.3,668,486.65,668,486Z" transform="translate(-166.05 -80)"/><path class="cls-1" d="M664,484a7.17,7.17,0,0,1,2.67.08c.61.27.9,1.25,1.33,1.92a7.17,7.17,0,0,1-2.67-.08C664.72,485.65,664.43,484.67,664,484Z" transform="translate(-166.05 -80)"/><path class="cls-1" d="M3422,494c.78.45,1.55.92,2.35,1.33.52.27,1.1.45,1.65.67,1,2.21,2.66,4.14,2.12,7-.17.9,2.14,1.41,1.88,3h-6.82l-2-1.79c-1.46-.19-3-.29-4.48-.63-.33-.08-.45-1-.66-1.58s-.31-1.41-.73-1.64a28.16,28.16,0,0,0-3.92-1.42c1.84-.63,3.16-.8,4.11-1.49A29.93,29.93,0,0,0,3419,494Z" transform="translate(-166.05 -80)"/><path class="cls-1" d="M3244,470l.75-1.89c3.39,0,6.87,0,10.36,0,.23,0,.45.43.69.66-1,2.8-3.51-.18-3.78.28L3248.9,472H3244Z" transform="translate(-166.05 -80)"/><path class="cls-1" d="M2625.38,1037.87c2.56.52,4.87-.88,6.52,1.25-1.31,1.5-3,.83-4.46.79C2626.86,1039.89,2626.31,1038.83,2625.38,1037.87Z" transform="translate(-166.05 -80)"/><path class="cls-1" d="M2626.23,1038.56l-2.05-1.74C2625.93,1035.46,2625.79,1037,2626.23,1038.56Z" transform="translate(-166.05 -80)"/><path class="cls-1" d="M706,478v-5l-2-2.1v-2.48l3.26-.46c.56,1.6,1,2.75,1.35,3.82l2.2.19,2.14-1.93,2.07,1.92h5c2,.31,3.23,2.42,5.41,2.48.21,0,.39,1,.59,1.52-1.21.19-2.58-.48-3.64.55.16,1.73,2.76,2.71,1.27,4.83-1.35,1.27-3,.29-3.91.48L716,484c.23-1.23-.52-1.81-1.53-2s-2,.09-2.94-.06-1.76-.74-1.51-2c2.54-.31,5.2.57,7.66-.41,1.13-3.23-1.44-4.12-3-5.59-2.19.37-4.61-1-7,1.21.76,1.56,1.53,3.17,2.29,4.79a7.26,7.26,0,0,1-2.69-.08C706.72,479.65,706.43,478.67,706,478Z" transform="translate(-166.05 -80)"/><path class="cls-1" d="M796,528l-3.18,1.82c-1.84-2.49-1.38-4.91,1.4-6.94L792,522c0-1.17,0-2.34,0-4l4,0c2,3.61,2,3.61,2,10Z" transform="translate(-166.05 -80)"/><path class="cls-1" d="M794,512v2c-.79,1.49-.79,1.49-3.18,2.21l-4.61-6.78.33-1.25h6.63C794.57,509.41,793.77,510.79,794,512Z" transform="translate(-166.05 -80)"/><path class="cls-1" d="M810,534a7.17,7.17,0,0,0-.08-2.67c-.27-.61-1.25-.9-1.92-1.33,0-1.17,0-2.34,0-4l-4,0v-3.36c3.16-1.47,6.67-.22,10-.64v10a1.7,1.7,0,0,0-2,2Z" transform="translate(-166.05 -80)"/><path class="cls-1" d="M932,516.23h7.63c.14,1.09.26,2,.37,2.72-1.32,1.75-3,.78-4.51,1.06C933.94,519,932.33,518.06,932,516.23Z" transform="translate(-166.05 -80)"/><path class="cls-1" d="M3148,668v4c-2.52-.3-5.13.59-7.34-.34l-1.8-1.8a23.75,23.75,0,0,1-1.24,3.43c-.22.41-1.06.48-1.62.71h-3l-2.34-2.21a23.7,23.7,0,0,0-9.79,6.12L3119,676c-3.57,0-7.47,0-11.36,0-.53,0-1.06.59-1.58.9,0,.32-.16.7,0,.95.62,1.39,1.31,2.74,2,4.11-.22.55-.4,1.13-.67,1.65-.41.8-.88,1.57-1.33,2.35l-3.31,1.91c-.34-1-.72-2.18-1.11-3.33-1.42-1.17-4.25.25-4.26-2.58h-12.53c-.35-1-.72-2.18-1.11-3.32-2.64-.65-4.57-3.35-7.68-2.68v-5.93l-6.16-5.62v-3.64a26.47,26.47,0,0,0-9-4.56l-1.94,1.6h-16.15c-.29-.71-.53-1.28-.76-1.85l1.7-.69-1.5-2.74c2.36-.39,4.71-1.36,5.6-2.57-1.91,0-3.5.1-5.08,0s-3.28.68-4.67-.89c2.1-1.85,3.36-4.68,6.56-5.22l2.28,1.95a25.47,25.47,0,0,0,2.63-4.43,34.73,34.73,0,0,0,1.11-5.84c1.85,1.7,1.16,3.41,1.39,4.91.16,1,.74,1.78,2,1.55.3,1.93,1.71,2.89,3.26,3.76,1.16-1.42,1.26-2.7-.46-3.76H3054c.23-.57.31-1.42.73-1.64a21.58,21.58,0,0,1,3.23-1.19v-2.52a12.62,12.62,0,0,1-2.62-.69,14.8,14.8,0,0,1-2.34-1.85c-10.38-.15-10.38-.15-10.76-1.35,1.21-2.26,4.51.93,5.68-2.34l-6.74-1c2.18-1.07,3.55-1.49,4.6-2.32a54,54,0,0,0,4.22-4V617l1.81-2-2-3,1.94-3.45c-1-1.3-2.47-.43-3.7-.68l2.8-5.8,2.66-.58c.44-1.28.85-2.43,1.3-3.73l2.29,2.11H3060c1.23,2.18,1.23,2.18,3.86,1.06.18-1,.35-1.87.58-3.06H3082c-.23.57-.47,1.14-.76,1.85h-4.93c-4.64,2.31-8.48,4.3-12.4,6.1-.82.37-2,0-3.17,0-.29.85-.6,1.72-1.09,3.12l6.3,5.12c.08,1.56.11,2.21.16,3.08l3.65,1.28v6.68c-1.3,1.54-3.13.17-5.07,1.16-.14.29-.5,1.12-1.16,2.58l4.21,2.21c.23,3.21.35,4.78.49,6.64l4.53-2.21,4.33,8.62c.47-1.39.85-2.49,1.25-3.66,1.36-1.45,3.16,0,4.48-.74l2.37,2.18h12.12l1.29,3.66,3-1.5c.21,1,.39,1.91.6,2.92.41.24,1.08.93,1.46.79a45.68,45.68,0,0,0,4.64-2.15l2.93,2.22H3114a4.91,4.91,0,0,0,4,4v2h-3l-2.12,2c-1,0-2,0-3,0s-1.87.06-1.41,1.78h6.38c1.53,2.37,1.82,5.18,5.07,6.43,2.72,0,6,0,9.25,0,.24,0,.47.44.83.8l-4.12,1.89,3,3,2.13-1.84h5.87c1.12-1,2-2.61,4.1-2l2.05,1.92Zm-67.11-18.09c-2-2.16-4-4.25-6.66-4.82l-.81-3a4.55,4.55,0,0,1-4.35-2l-.7.56c-1.62,2.1,1.29,3.09,1.18,5l-5.9.92L3067,650h8.27l1.42,3.87h4.72l4.94,6.16h4l5.21,2.68c.91,1.08-.34,2.88,1.81,2.95.71-1.68,1.06-3.54,2.5-4.83l-.71-.71L3097,660l-4-8h-2l-2.29-2.05ZM3112,653c-.22-.22-.49-.66-.66-.63a6.53,6.53,0,0,0-1.34.63c.22.22.49.66.66.63A6.53,6.53,0,0,0,3112,653Z" transform="translate(-166.05 -80)"/><path class="cls-1" d="M3150,674l4.42,2.08c-1.42-.47-.84-.11-.25-.11,3.65.06,7.3,0,10.83,0l3.82-3.82h6.67c.19,2-1.64,2.53-2.38,3.71-1,.26-2.52-.34-2.9,1.24.36.38.58.84.81.84,3.33,0,6.66,0,10.62,0l3.17-4.07,2.74.36c.18.81.39,1.71.68,3l2.64,2.47c1.49.24,3.58,0,4.5.88,1.3,1.3,3,1,4.53,2.1-1.43,1.67-4,1.46-5.08,3.41-.91,1.62-3.6,2.2-2.72,4.75l-7.25,7.12c-2.16,0-4.43,0-6.95.09,1.46,3.28,3.68,1.53,5.34,1.83a33.54,33.54,0,0,0,5.84.08c1.56,3,4.9,1.39,7.29,2.75-.57.51-.8.88-1.07.92-1.28.19-2.57.3-4.45.5a13.91,13.91,0,0,0-2.32,2.38,14.15,14.15,0,0,0-1.18,3.21l-3.3.68c1.19,2.94,3.54.8,5,1.61.94,1,1.89,1.89,3.1,3.09a21.45,21.45,0,0,0-3.41,1.21c-.42.23-.5,1.08-.74,1.65h-3l-1.72-1.75h-8.46c-.5-1.44-.91-2.59-1.35-3.86l-2.88-.64-1.26-3.55h-4.58l-1.44,3.52c-2-.2-.92-1.91-1.86-3.26-1.56-1.4-4-.09-5.71-.38l-4.85-3.4,4.45-.9c.22-.62.53-1.48.91-2.56l-3.55-4.07-.89,4.05c-1.38,1.66-3.31.71-5.43.39-.17-.82-.36-1.73-.56-2.74-1.24-.64-2.65-1.28-4-2.05s-1.81-2.87-3.83-2.8v-4H3143l2.14,2H3156c.21.55.43,1.1.68,1.74,2.39.23,4.83.76,7.52-.57-.32-1.16-.61-2.23-.82-3-2.52-.79-3.26,1-4.51,1.83H3156c-.1-2,2-2.43,2.74-3.79l5.24-.56c-.13-1.3-.24-2.43-.35-3.58h-6.52c-1.23.61-1.94,2.65-4.06,1.9l-2.09-2h-3a5,5,0,0,1,2-5.07Zm13.29,30.29L3162,705c.22.22.49.66.66.63A6.53,6.53,0,0,0,3164,705Zm2-4.58.71-.71a6.53,6.53,0,0,0-1.34-.63c-.17,0-.44.41-.66.63Z" transform="translate(-166.05 -80)"/><path class="cls-1" d="M3268,646h16.91l2.14,2h10.53l3.26,4,2.53-.27c.39-1.07.81-2.22,1.3-3.58h12.53L3319,650h12.19c.37.89.6,1.45.83,2h-8.45l-4.59,2.51c-1.7,1.14-1.94,1.44-2.22,1.47a18.82,18.82,0,0,1-2,0H3295l-1.51-1.51c-1.85-.59-3.7-1.14-5.43.45.64.69,1.27,1.39,1.91,2.09-1.21,1.67-3,.62-4.58,1.1l-2.34-2-6.61-.36,1.26-5.1c-1.39-1.39-3.14-.33-4.93-.75l-1.25,3.72-2.54.39-2.73-5.32C3266.51,647.93,3268.33,647.62,3268,646Z" transform="translate(-166.05 -80)"/><path class="cls-1" d="M3264,738c.64-2.31,2-3.79,4.51-4a1.54,1.54,0,0,0,1.49-2h10c2,3.79,2,3.79,2,8-.67.43-1.65.72-1.92,1.33A7.17,7.17,0,0,0,3280,744h-4.82l-2.51,2c-1.05,0-1.54.14-1.67,0C3268.74,743.23,3265.38,741.48,3264,738Z" transform="translate(-166.05 -80)"/><path class="cls-1" d="M3292.08,738c-1.92-.21-3.85.47-5.82-.66-.07-.75-.15-1.62-.23-2.4,1.77-1.58,3.58-1,5.77-.45C3291.88,735.58,3292,736.78,3292.08,738Z" transform="translate(-166.05 -80)"/><path class="cls-1" d="M2680,602l.72-1.77,4.59-.48c.47-1.24.91-2.38,1.42-3.73l2.29,1.89h10l5.25,6.09H2708a1.7,1.7,0,0,1,2,2c.67,3.26,3.69,3.75,6,5.09V614c-.25,1.89.59,3.91-.65,5.68l-4-2.14c-.83,1.69-1.49,3-2.13,4.32l-2.33.17c-.64-.87-1.43-1.92-2.77-3.72,0-.23-.07-1.51-.14-3-1.16-2.28-4.52-3.44-4.27-6.69-2.33-1.24-5.38.53-6.83-2.4-1.46,1.17-.59,2.61-.84,3.83l-4,0c0-1.64,0-2.81,0-4a1.7,1.7,0,0,0-2-2c-.43-.67-.72-1.65-1.33-1.92A7,7,0,0,0,2682,602Z" transform="translate(-166.05 -80)"/><path class="cls-1" d="M2946,664v-2c1.9.26,3.93-.62,5.68.66l1.15,3.39h9l3.06,4.26a51,51,0,0,0,6.49-2.81A21.56,21.56,0,0,0,2975,664c.85-.54,2.71.83,2.7-1.64l-5.54-.82c.81-2.49,3.68-3.07,3.88-5.58h10c-.67,3.21-3.62,3.76-6,5.13,3,2.3,7-.67,10,2-3,1.85-6.34.24-9.36,1.19.35,1.79.35,1.79,1.29,2.78V670l2.19,4.21c-1.18,2.5-3.58,3.83-5.23,5.77-1.35.07-2.74.26-3-1.63-.17-1.46.55-3.16-1.49-4.69l-.9,5.86c-3.34,2.12-4.94-3.77-8.07-1.54-2.5.84-3.17,4.45-6.41,4-2.24-1.28-.4-3.68-1.44-5.31a6.36,6.36,0,0,0-1.7-.66c-1.32-.1-2.66,0-4,0,.24-1.6-1.33-2-2-3s-2.24-1.4-2-3a7.17,7.17,0,0,0-.08-2.67c-.27-.61-1.25-.9-1.92-1.33Z" transform="translate(-166.05 -80)"/><path class="cls-1" d="M2952,688a1.7,1.7,0,0,1,2,2A1.7,1.7,0,0,1,2952,688Z" transform="translate(-166.05 -80)"/><path class="cls-1" d="M3542,600v2.89l-3,3.09h-3.45l-3.51-2,1.71-3-1.71-3,3.15-1.78h6.08C3542.51,597.48,3541.79,598.81,3542,600Z" transform="translate(-166.05 -80)"/><path class="cls-1" d="M3107.27,885.89c2.76.31,3.35,2.16,4.67,3.05.78,2-1,2.91-2,4.19v4.42l-3.73.5c-.15-2.74-.28-5-.4-7.21l-1.46-1.46C3104.65,887.73,3106.14,887.05,3107.27,885.89Z" transform="translate(-166.05 -80)"/><path class="cls-1" d="M817.91,618H821l2.14-2,2.24.11c.25.81.54,1.68.79,2.45-1.71,3.24-6.23-.86-7.88,3.19C818.14,620.49,818,619.25,817.91,618Z" transform="translate(-166.05 -80)"/><path class="cls-1" d="M812,620c1.18.2,2.49-.48,4,1v5C812.84,625.22,811.68,623.1,812,620Z" transform="translate(-166.05 -80)"/><path class="cls-1" d="M818,618c-2-1.18-2-1.18-1.17-3.83C819,614.91,817.63,616.72,818,618Z" transform="translate(-166.05 -80)"/><path class="cls-1" d="M815.77,625.44l2.05,1.74C816.07,628.54,816.21,627,815.77,625.44Z" transform="translate(-166.05 -80)"/><path class="cls-1" d="M3227,562l-1.81-1.82-3.58-.27-5.72-2.92,3.28-2.87h9.55l6.81,3.88H3239l2,1.9c2.15.67,3-1.12,4-1.78h3.85l3.45,3c-3.07,1.48-6.07.57-9,.88-1.39.48-1.94,2.9-4.77,1.39L3237,562Z" transform="translate(-166.05 -80)"/><path class="cls-1" d="M3176,576c1.87-2,5.1-3.86,7.24-4,1.26-.07,2.52,0,3.23,0l3.53,2v2Z" transform="translate(-166.05 -80)"/><path class="cls-1" d="M3160,574l3.16-1.84,1.43,1.43c1.35,1,3,.07,4.31.41l2.29-2c.82,1.53,2.91,1.94,2.81,4-4.17,0-8.35.06-12.52,0A1.51,1.51,0,0,1,3160,574Z" transform="translate(-166.05 -80)"/><path class="cls-1" d="M3192,574a1.7,1.7,0,0,1,2-2A1.7,1.7,0,0,1,3192,574Z" transform="translate(-166.05 -80)"/><path class="cls-1" d="M3189.77,575.44l2.05,1.74C3190.07,578.54,3190.21,577,3189.77,575.44Z" transform="translate(-166.05 -80)"/><path class="cls-1" d="M3148,672a1.7,1.7,0,0,1,2,2A1.7,1.7,0,0,1,3148,672Z" transform="translate(-166.05 -80)"/><path class="cls-1" d="M3112,682l3.09-1.73c1,1.26,2.67,1.79,4.89,2.33,0,1,0,2.23,0,3.4h-7C3111.49,684.52,3112.21,683.19,3112,682Z" transform="translate(-166.05 -80)"/><path class="cls-1" d="M3144,560c3.2-.74,5.09,2.18,7.8,2.85a10.16,10.16,0,0,1,2.45,1.44l3-2.25h11.93c.37-.9.61-1.47.84-2a14.69,14.69,0,0,1,7.88,3.77h-14.65l-2,2h-12l-1.89,1.89c-2.33.85-5,.12-7.53.28-.53,0-1.09-.5-1.63-.78l5.83-3.78Z" transform="translate(-166.05 -80)"/><path class="cls-1" d="M3188,567.77h-7.63c-.15-1.09-.26-2-.37-2.72,1.32-1.75,3.05-.78,4.51-1.06C3186.06,565,3187.67,565.94,3188,567.77Z" transform="translate(-166.05 -80)"/><path class="cls-1" d="M3172,568v-2l6,3.07c-1.83,1.5-3.63,1-5.35.49C3172.3,569.45,3172.21,568.54,3172,568Z" transform="translate(-166.05 -80)"/><path class="cls-1" d="M3188,568c1.34.24,3-.62,4,1.15C3189.18,570.05,3189.18,570.05,3188,568Z" transform="translate(-166.05 -80)"/></g></g></svg>