<svg xmlns="http://www.w3.org/2000/svg" viewBox="0 0 4320 2160"><defs><style>.cls-1{fill:#ff0201;}</style></defs><g id="Layer_8" data-name="Layer 8"><g id="BWh"><path class="cls-1" d="M2774,960v11l-5.87,5.81c-.05,1.08-.12,2.36-.16,3.21l-6,5.9v5.14c-3.6,2.34-4.19,7.18-7.75,9.66-.57,2.08.48,4.73-2.18,6.13v3.75c-1.1,2.17-3.89,2.91-4.06,5.49-.2,2.88-3.82,3.23-4.22,6.3-.25,1.92-2.89,3.42-3.65,5.42a8.61,8.61,0,0,1-2.11,3.11q-9.49,9.57-19.06,19c-.17.17-.65,0-1,0-.26-1.23.63-2.68-.66-3.58-2.81-2.2-3.59,2.73-6.09,1.58-1.38-.69-2.1-2.74-4.23-2l-9.76-9.94h-10.77l-7.58,7.58-2.92,1.16V1047l-5.78,3c-1.88.6-3.94-.7-6.12.78v9.65c-1.6,2.63-3,4.38-3.8,6.39s.33,4.68-2.24,6.09v4c.6.66,1.28,1.37,1.94,2.08v4c-2.33,1.85-2,5.54-5,7h-5.93l-2.14,2c-1.59.35-3.37-.7-4.7.78-.47,1,.31,2.62-1.69,3.07-.22-.89-.45-1.79-.8-3.16-1.8-1.12-2.89-3.78-5.1-4.57l-3.82-.29c-1.06-2.12-1.89-3.77-3-6v-7.15l-3.59-1.32c-.08-.81-.15-1.45-.25-2.51l-5.88-5.17c-.13-1.56-.19-2.2-.24-2.83l-3.29-1.7c-3.05-1.77-4.88-.3-6.23-1.78l-1.11-3.32c-2.78-.41-3.67,1.71-5.15,2.89-.45,1.53.62,3.3-.86,4.88h-4.29c-3.08-2-2.79-6.18-5.91-7.82h-5c-.31,0-.87.07-.89,0-.75-2.78-3.78-4.67-3.11-8,.57-.24,1.57-.39,1.63-.72a40.43,40.43,0,0,0,.42-4.57c-2.65-.76-4.72-1.58-6-3.7v-8.11c.86-.79,1.85-1.68,3.32-3h10l1.32-3.74,1.16-.15c2.09-.28,2.82,2.84,5.19,2.08.29-.1.85,1,1.41,1.29a16.76,16.76,0,0,0,2.66.76c1.37-1.89,2.77-3.28,4.85-1.21.46,1.55-.6,3.31.8,4.83l2.9.31,6.44,4.87-2.2,2.2c1.09,1.24-1.17,3.36,1.06,4.66l3.92-2.69c1,1.66,1.8,3.08,3.12,5.36v4.6a19.18,19.18,0,0,0-4.09,2.17c-1.33,1.19-3,2.2-3.71,4.81,2.45-.12,4.68.08,5.95,0l5.52-2.62L2635,1048h1.5c2.67-2.52,5.1-4.8,7.48-7.11.16-.17,0-.65,0-2.12-.48-.77-3.9-2.12-1.05-4.71h3.13l3.69-2.53c.51-2.62-.57-4.48,1.51-5.59h3.78L2658,1023v-2l-2-2.14c.35-1.54-.71-3.32,1-4.89,1.3,1,2.42,3.38,4.63,1.38.34-1.82.69-3.64,1-5.4,2,0,3.7,0,5.37,0v2.45l2.93,4a9.52,9.52,0,0,0,1-2.25c.11-1.19,0-2.41,0-3.93-1.6-.13-2.8-.22-4-.28-.32-2.5-3.11-3.19-3.88-5v-8.06l3.65-3.65c.23-.9.43-1.82.73-2.69.08-.24.49-.36.49-.36,2.91,0,5.55,0,8.18,0,.24,0,.48.44,1.07,1-.7,1.49-1.47,3.12-2.21,4.75-1.31.39-3.12-1-3.85,1.19,1.12.75,1.62,2.38,3.63,2.41.09-1.22.17-2.4.22-3.6h8l5.68,6.21a8.39,8.39,0,0,0,2.25-1.36c.33-.36.06-1.26.06-1.85a33.66,33.66,0,0,1-3.55-3.64,13.07,13.07,0,0,1-1.23-3.37H2685c-1-1.92-2-3.84-3-5.77a2.56,2.56,0,0,1,0-1c1.42-2.25,3.6-3.44,6-4.35v-2.73c3.17.88,4.49-1.46,6-3.6,0-3,.05-6-.05-9,0-.53-.64-1-1-1.56h-4.16c-1.71-3.36-5.5-4-8.4-5.9-.9-.58-2.5-.09-3.49-.09-2.48,3.34-5.85,4.46-9,6-1.33-.67-2.77-1.27-4.07-2.08s-2.59-1.88-3.57-2.61c-.26-1.29-.45-2.2-.6-3L2656,955.2c-.06-1-.1-1.66-.18-3.06-3.06.82-4.43-1.45-6-3.9v-9c-.82-1.28-1.74-2.08-1.74-2.88,0-1.61-1.12-2.29-2-3.22-.68-.73-1.41-1.41-2.11-2.1V912l-2-3.47V906a4.91,4.91,0,0,0-4-4c.32-1.26-.77-1.71-1.41-2.39a46.25,46.25,0,0,1-3.46-3.55,39,39,0,0,1-2.17-4c-.08-.14-.63,0-1,0v-4.2l-3.87-2.53c-.42-2.16.6-4-1.22-5.34l-2.91.51c0,1.5.28,2.87-.08,4a11.24,11.24,0,0,1-1.92,2.94v5.5c.77,1.31,3.52,2.3,1,5.07-4.25,0-8.87,0-13.48,0-.53,0-1,.64-1.57,1v2l-5.72,2.94c-2.67.33-6.3-.3-9.47.24L2589,906h-5.94l-2.22,2.06h-3.77L2572,913v2l-5,5h-2c-1.76,1.12-.64,3.75-2.78,4.91a14.52,14.52,0,0,0-3.44,3.12c-1.36,2.57,0,4.4-1.52,5.73-2.32.36-4.63.78-6.16-1.66-5.56-.33-11.16.2-16.32-.27L2533,930h-10.87l-3.07-4.49c-.57,1.3-.83,1.86-1.07,2.43s-.44,1.15-.8,2.08h-8.38l-5.79,6a2.82,2.82,0,0,0-1.06,0c-2,.92-4.31,1.47-5.73,2.94-2,2.1-5.57-.44-6.93,2.73-2.26.42-4.56,1-6.24-1.69-6.52,0-13.16,0-19.8,0-.36,0-.72-.74-.92-1l1.91-3.08-2.26-3.38V927.2l-2-2.29c0-1.1.55-3-.1-3.63-2.22-2-1.61-5.81-5.06-7.19h-21.6c-.76-.7-1.49-1.35-2.27-2.06h-3.92l-2.18,2h-4c-1,1.42-2.32,2.41-4.17,2s-2.69,1.75-4.19,2c-1.92.25-3.72,0-5.4,1.66-.87.89-3,.51-4.43.68L2399,924h-10.83l-3,4.12h-6.32l-1.62,1.63c-2.71.1-5.51,1.11-8.11-1.37-1-1-3.07-.66-3.9-.28L2362.6,930h-3.48l-2.16,2h-3.91l-2.09,2H2347l-2.34-2.06h-41.79L2301,930a48.5,48.5,0,0,1-5.49,0c-1.54-.16-2.35-1.79-4.13-2.16s-3-2.41-4.53-3.79h-8.2l-3.89,5.74-3.57-7.58-6.47-.36L2261,918h-11.78l-2.74-2c-2.67.14-3.95,4.13-5.67,2-1.44-2.49,0-4.32-1.45-5.67l-2.94-1c-1-2,.37-3.8-1.22-5.13-1.61-.12-3.22-.61-4.59.23l-3.46,7.6H2215l-2.17,2a9.17,9.17,0,0,0-6,1.86h-29.2L2166.34,912h-9.23l-2.23-2.06h-18.11c-1.84-3.23-5.56-4-8.08-5.76h-10c-.49,1.38-.91,2.53-1.36,3.79-6.44,0-12.75,0-19.06,0a6.59,6.59,0,0,1-1.78-.53L2095,906h-23.35l-11.6-6.18h-19l-2.08-1.62h-10.17l-1.68,1.68a62.27,62.27,0,0,1-8.21,0L2017,898h-6l-2.51,2.34-8-4.18h-9.7l-1.94,1.94h-20.07c-1.43,1.67-2.63,2.7-4.41,1.31-.74-.59-1.14-1.74-2.41-1.42.4-.84.79-1.68,1.76-3.74v-7.2c2.88-1.57,1.75-4.26,2.54-6.25s2.19-3.76,3.57-6V857.27c-1.14-2-2.37-4.19-3.85-6.79v-5.43l2-2.14c-2.17-6.1-2.17-6.1-6-8.91-.43-.67-.72-1.65-1.33-1.92A7.17,7.17,0,0,0,1958,832v-7l2-2.18v-3.2l2.86-5.57,2-.1c1-2.86,3.75-5.11,3-9.19l4.08-3v-4.63l9-9.12,2.12-.1c1.93-1.84-.47-5.49,2.82-6.78v-6c.7-.73,2.08-1.7,1.94-2.11-1-2.79,3.43-3.45,2.14-6.34,1.17-.41,2.53-.56,3.43-1.28,1.07-.84,1.94-1.75,3.55-1.35l4.92-5.25v-3.48c.81-1.47,2.8-2.22,2-4.35l5.11-4.94h7.75l2.2-2h4l4.14-4.22c1.17-1.18,2.16-2.74,3.58-3.42s3.08-.76,4.06-2.22c3.19.25,4.4-2.51,6.16-4.28,1-1,1.42-2.71,2.19-4s2.87-1.81,2.8-3.83h6v3.21c-2.61,1.84-5.32,3.75-8.11,5.7,1.61,1.74,3.34.91,4.87,1.06,1.3.13,2.62,0,3.93,0H2057l6-6h1.94l2.12-2H2070l13.78-6.83c1-2.22-1.05-5.07,1.31-7.27l1.82,2.1H2097l2.89-2.94v-3.63c2.21-3.56,5.61-5.39,9.9-7.36h11l2.27-2.07a8.57,8.57,0,0,0,2.86,0,19.93,19.93,0,0,0,5.79-2.8c2.18-1.79,4.05-1.68,6.17-.32.11,1.62.21,3.2.31,4.79,2.91.43,5.43.91,7.62-.38.24-1.15.42-2.06.66-3.24,2.83,0,5.63.57,8-.17,2.05-.64,3.79-2.32,6.21-1.83,1.62-2.11,4.86-1.6,6.39-4,.2-.3,1.27,0,1.7,0l3.34,2.52,5.32-4.69h5.74L2185,684a50.7,50.7,0,0,1,5.63,0c3,.32,4.9-3.53,8.17-2.07.15.06.54-.3.74-.54a2.15,2.15,0,0,0,.22-.76l-3.57-1.4v-2.88a10.34,10.34,0,0,0,2.86-.52,11.39,11.39,0,0,0,2.2-2h6.15c.37-1.62,2.79-1.8,2.6-3.91h3.13c2.51-3.85,7.16-4.59,10.92-7-.13-.84-.27-1.74-.45-2.92h-8.43l-3.17-3v-3h10.89c1.1,1.82,3.24,1.77,4.82,2.71l.64,2.49,9.78,4.89h13a6.33,6.33,0,0,1,.78.8c1.64,2.46,5.43-.39,6.81,2.75.09.2.53.32.82.34.66,0,1.32,0,2,0,.33,0,.73.12,1,0a16.09,16.09,0,0,1,3.17-1.91A11.39,11.39,0,0,1,2269,666c4.63-4.62,8.85-8.81,13-13,.16-.17,0-.64,0-1,4.17.51,6.67,2.33,10,7.3V666a4.44,4.44,0,0,1-3.75,3.88c-2.48.28-2.66,2.65-4.46,3,.43,1.24,4.28,4,6.42,5.13,3.05-1.81,3.55-1.9,5.77-1v2.17c1.58,1.52,3,4,5,4.5s3,2.4,5.05,2.36c.25,1.23-.62,2.66.78,3.77l5,.54c.64,3.08,3.94,3.19,6.53,5.2a12.24,12.24,0,0,0-3.25.55A9.94,9.94,0,0,0,2313,698c-1.54.6-3.77-1.18-4.6,1.85l6.69.34,2,1.75h6L2329,696c1.49,0,3.13-.07,4.76,0,1.92.11,3.9-.47,6.94,1.08,1.9-.05,3.66,3.7,7.3,2.9.57.23,1.63.48,1.62.7,0,2.26,1.54,3.45,3.11,5l4.48.49,1.6,1.6h10.93a30.6,30.6,0,0,0,4.84,2.12c1.22.3,2.43.08,3.57,1.1s2.77,1.34,4,2.21c1.07.74,1.92,2.6,2.85,2.6,2,0,2.93,1.17,4,2.11h7.18l5.34-2.58c.11-.41.34-1.3.65-2.53L2404,711v-7c-.16-2,1.22-2,2.55-2l3.41,2.38,3.09-2.17c1.43-.25,3.61,0,4.41-.92,1.27-1.47,3.19-.68,4.24-2s2-2.59,2.63-3.39h8.74L2436,693v-3h5.37c.34,1.76.68,3.59,1.09,5.76h8.3l2.12,2.12h10.54c.29,1.19.51,2.09.83,3.43l2.84,2.57H2471c1.13-.38,1.68-2.81,4.51-1.3L2477,704h10c.47.47.94.94,1.85,1.87l4.19.24,2.16,1.89h5.45l2.61,2a17.9,17.9,0,0,1,4.22.08c1.47.31,2.74,1.47,4.2,1.87,3.11.86,5.25-1.76,7.86-2.67,1.37-.48,2.25-2.33,3.15-3.34h4.37l1.71-1.71h17.6a39.6,39.6,0,0,1,5,2.17c1.64,1,2.44,3.1,5.06,3.75l2.84-2.15H2579c1.2,1,2.08,2.68,4.11,1.94l4.58-4.58c.94-2.5-.41-4.87,1.38-7.58.89.79,3-.66,3,2.22.3,1.66-1.51,2-2,3.29V715l-2,2.19c.37,2.27-.88,4.67.83,6.69,1.61,0,3.23.61,4.89-.48.16-1.45.34-3,.5-4.51l5.49-2.86a24.12,24.12,0,0,0,4.2-.28c.32,1.27.18,2.82,1.93,1.46a17.45,17.45,0,0,0-1.93-1.46c.11-2.68.11-5.64.11-8.64l-2-2.12c-.25-2.19.66-4.52-.63-6.61l-4.16-1.36c2.49-1.37,4.48-.83,6.35-1,1.53-.14,3.3.66,4.44-1.08V688c.25-1.23-.62-2.66.84-3.83h12.26c2,1.44,2.81,4.19,5.78,3.82l2.1-1.93,2.25,2.06,2.55-.61v-6.73l-1.63-1.63c-.12-1.57-.25-3.14-.4-5H2623l-3-6.13c.23-.57.37-1.55.72-1.63a41.82,41.82,0,0,1,4.61-.64l2.63-2.83a21.72,21.72,0,0,1-4.22-2.27c-1.24-1.08-2.52-.37-3.74-.63,1-4.2,5.33-3.9,7.67-6h5.22l2.36-2.18a12.13,12.13,0,0,1,.68,2.79c0,.47-.72.93-.93,1.17l-3,.85c.12,1.12.22,2,.42,3.81,1.91-1.23,3.88.61,5.38-1.19.23-1.12.41-2,.66-3.25h14c1.85,2.17,4.63,1.65,6.94,2.49,2,.73,3.79,2.14,6.06,3.47h21.38c1.18,1.75,3.52,1.57,4.8,2.81,1.66,1.61,4.62,1,5.56,3.45s3.74,1,4.83,2.82v5.1l3.91,2.59c.16,1.24.24,1.88.33,2.65a27.81,27.81,0,0,1,3.38,1.28c3.8,2,7.48,4.3,11.64,5.61,2.8,3.71,7.25,4.86,11.05,7,1.92,1.08,4.23,1.46,5.51,3.55,1.09,1.77,3.42,1.22,4.93,2.69s4,1.5,5.83,2.56c1.33.77,3.13,2.1,3.24,3.32.25,2.83,3.39,3.44,3.79,5.43.6,2.91,2.76,4.26,4.38,6.19v3h-10.3l-5.47,2.84v14.44c2.34,1.76,2,4.85,4.36,6.5,2,1.39,1.58,5.29,4.34,6,2.49.63,4.37,2.3,6.77,2.93.46,4.5.46,4.5,1.49,5.34h3.89a45.09,45.09,0,0,1,2.09,4.17c.88,2.3,3.71,1,4.83,2.79v3c.22.55.35,1.51.68,1.59,1.19.27,1.39-.62,1.32-1.59l4.71-2.29,3.16,3.16c.1,2.13.2,4.33.29,6.29l1.89,1.89v10.17l1.95.78c.23,1.21-.57,2.6.83,3.82h4.64c.38-1.56,2.73-1.76,2.53-3.82l3.45,2h9.47l2.12-2H2813l2.12-2h1.72l9.19-9v-5h6.22l3.78-2.85v-4.34c.61-.56,1.34-1.18,2-1.88.15-.17,0-.61,0-.93h2c.22.55.4,1.13.67,1.65.41.8.88,1.57,1.33,2.35v3l-2,2.09v9.23c1,2,1.68,3.41,2.7,5.46L2851,796h6l1.89,1.89h7.53c1.94,1.5,4.27,2.45,3.57,5.1l8.7,8.7,3.84,1.28-5.25,10.84c-2.09,2.07-4.67,4.65-7.25,7.22v3l-4,0c0,1.64,0,2.81,0,4h-5l-2.91,2.92c-.22,4.8,0,9.72-.13,15h-7.86l-6.12,3.18v4l-5,5h-6c-1.56,2.36-5.08,3.32-5,6.91-1.74,1.93-3.65,3.67-5.66,5.78l-3.57-2.69H2813c-1.06,2.4-4.17,1.49-5.61,3.47-.4.55-1.83.25-2.72.55-3.79,1.28-7.6,2.55-11.31,4-1.15.46-2,1.63-3.3,2.72v6.42c-2.75.74-4.58,2.63-7.16,3-1.06.16-1.65,2.13-3.23,1.75-3.1-.74-4.92,3.29-8.19,2.08-.8-.29-2.49-.14-2.73.34-1.56,3-5.22.32-7,2.76-1.17,1.64-3.18.3-4.59.91S2755,908.66,2753,908l-3.35,5.82H2740c-3.17,2.21-7.08,2.63-8.6,6.17h-4.23L2725,922h-12.14c-2,4-7.37,3.88-9.31,7.72-2.41.5-5-.37-6.41,2.22H2691L2689,930a27.79,27.79,0,0,0-4.85.28c-.32-1.27-.18-2.82-1.93-1.46a17.45,17.45,0,0,0,1.93,1.46C2684,933,2684,936,2684,939l-2,2.15c0,.71.08,1.36.13,2.22l3.7,1.31c.07,1.15.15,2.42.25,4a.88.88,0,0,0,.18.59,91.59,91.59,0,0,0,7.24,6.7c1.4,1.08,3.37,1.44,5.11,2.06,2.26.8,3.39-1.45,5.16-2a47,47,0,0,0,5.89-2.65,6.8,6.8,0,0,0,1.41-1.26h7.9l2.18,1.94c2.62.4,3.3-2,4.9-3s3.3-1.73,5.61-2.92h11.15c.75-.7,1.47-1.37,2.23-2.06h12l1.67-1.76h5.07l6.22-3.2v-1.91c1.16-1.89,3-.87,4.79-1.2l3,2.73c.71,4.66-.17,9.62.39,14.48l1.46,1.46c.24,1.34-.62,1.44-1.61,1.39a7.17,7.17,0,0,0-2.67.08C2774.72,958.35,2774.43,959.33,2774,960ZM2586.12,733.51c1.4.35,2.29.59,3.19.79s.5,3.28,2.51.84v-4.36l-2.91-2.76c-.9,1.77-1.73,3.41,1.09,7.91l-4,.31c.16,1.46.28,2.56.45,4.08l3.58-1C2590,737.9,2590,737,2586.12,733.51ZM2390,820c-.33,0-.8-.14-1,0-2.35,2.3-4.65,4.64-7,7v11.84l1.9,2.09c.06,1.5.13,3.06.22,5.12l3.83-.55V843l-2-2.07c0-2.27,0-4.57,0-6.87a6.18,6.18,0,0,1,.59-1.74L2388,831v-4l2-2.13V820c1.89-.27,3.92.63,5.69-.69.1-.29.37-.65.28-.86-.91-2.15-1.87-4.28-3.1-7C2392.26,814.94,2389.26,816.8,2390,820Zm172-88h-3c-.9-.93-1.83-1.87-2.78-2.84-.16-1.53-.33-3.09-.52-4.84l-3-.31c-.45,1.25-.86,2.41-1.29,3.6l-5.57,1c.23,1.27.38,2.18.5,2.86,2.59,1.49,5.56-.88,8.29,2.31-2.28,1.77-4.6,3.59-6.57,5.13-.31,2.94,1.06,3.33,3,3.06,1.81-1.27,2.54-4,5.29-4,3.28,2.08,3.25,2.12,5.68,1v-6.86l4.31-.39-2.08-2.56c2.19-3.11,2.26-3.43.82-5.16l-3.05.57Zm112,166a1.54,1.54,0,0,0,1.95-1.37A39.69,39.69,0,0,0,2676,892V881.92l-4.11-2.79v-4.87l-11.52-11.5c-2.43-4.88-4.77-9.56-7.25-14.52L2645,840h-1.4l-9.52-9.47c.67-1.87-1.71-2.44-2.22-4.62V811.71c-2.25-4.46-4.22-8-5.81-11.66-2-4.54-6.1-6.13-9.8-8H2613c-1-1.92-2-3.84-3-5.77V781c-3.57-1.77-3.67-6.48-6.88-8.81a12.6,12.6,0,0,1-4.2-6.26,15.21,15.21,0,0,0-4.24-6.25c-2.22-2-4.26-4.21-6.38-6.32-.23-.91-.46-1.81-.7-2.71a10.91,10.91,0,0,1-4.81-2.49h-5.37l-5.35,4.71v7.52c1.9,3.69,3,7.06,5.13,9.65a43.64,43.64,0,0,1,4.79,8c1.53,3,3,6.08,4.82,9.87l7.27,7.17-4,1.89,2.07,2.39v5.13l4.39,5.11,3.36,1c.06.9.09,1.55.13,2.21,2.31,1,4.59,2.06,6.06,4.41v7.26l4.1,2.31V843l2.06,2.65v9.6a10.36,10.36,0,0,0,1.64,1.6c1.33.78,2.79,1.34,4.09,2.17,1.58,1,2.27,3.4,4.75,3,2,2,4.58,3.37,5.45,6.57.45,1.64,1.31,3.87,2.52,4.82,2.33,1.85.68,4.34,1.92,6.31,3.24,5.17,5.45,10.91,8.63,16.33a11.38,11.38,0,0,0,.46-7.35L2640,887l3.83-1.79c.28-1.18.49-2.09.8-3.42l3.29,5.54c.14,2.08.27,4,.4,6,3.2,2.05.83,5.55,2,7.85,3.49,5.28,11.37,5.79,12.52,12.86h2.32a47.88,47.88,0,0,0,4.14,4.17A40,40,0,0,0,2674,921v2l3,3c1.4-.36,3.06.6,4.77-.7v-8l-4-7.44v-5.81C2676.72,900.73,2674,900.4,2674,898Zm16,16.51V921l3,2.91a22.16,22.16,0,0,1,1.93-3.76,45.57,45.57,0,0,1,3.59-3.88l3.13-.73c1.56-4.19-1.85-6.49-2.75-9.8-1.65.7-3.47-.53-4.81,1.18v3.69Zm6-21.52c-1.49-1.07-2.23-3.36-5.24-2.9l-2.62,2.45V897l2.64,2.78,2.86.61,1.22,3.83,3.63-.91c-1.55-2.39,1.12-5.14-1.54-7.17l-2.33,2c-.3-1.18-.52-2.07-.73-2.9Zm-467-91c-1.39,1.39-1.56,2.74.66,4.36,3.72-.79,7.54-2,10.47-5.59l-.63-2.65h-3.94l-3.88,3.88Zm344.21-60.2c1.35-1.26.67-2.64.78-3.88a21.5,21.5,0,0,0,0-3.93c-.12-1.23.64-2.64-1.11-4.06-1.29.81-3.33-1-5.18,1.53l1.7,2.94c1.3,2.87-.28,5.27,1.4,7.4Zm-199.37,88c-2.4.53-4.1-.45-5.49.85-1.39,3,1.53,3.73,2.84,5.48l2.65-.6Zm355.26,130.27c.62-1.39,1.22-2.76,1.72-3.89l3.32-.65c-.26-1.39-.48-2.5-.67-3.53h-1.25l-4.35,2.75C2728.24,957.06,2727.33,958.82,2729.09,960.07Zm-153-216.57c1.3.56,2.41,1,3.53-.11.32-1.85,1.09-3.72-.8-5.54a20.16,20.16,0,0,1-.86,2.53C2577.48,741.39,2576.83,742.31,2576.11,743.5Zm-211.82,88.33c-.33-1.75-.51-2.64-.76-4l-3.74.7c.25,1.34.43,2.23.62,3.25Zm214.12-114A11.74,11.74,0,0,0,2580,717c.74-.59,1.42-1.25,2.12-1.88-1.49-1.54-2.81-1.55-4.22,0C2578,715.93,2578.21,716.81,2578.41,717.84Zm2.76,18.74c.91-4.83.87-4.83-.52-6.24C2579.65,732.11,2579.65,733.89,2581.17,736.58Zm189.88,41.51c1.24-1.75,1.83-3-.56-3.94C2769.93,775.41,2769.52,776.51,2771.05,778.09Z" transform="translate(-730 -629.96)"/><path class="cls-1" d="M3524,1378v-9l3.85-3.78V1351c3-1.51,1.75-4.21,2.44-6.25,1-1.33,2.48-.44,3.71-.7.31,2.52-.6,5.15.5,7.72a17.51,17.51,0,0,0,3.5-7.72,7,7,0,0,0,2.67-.08c.61-.27.9-1.25,1.33-1.92a7,7,0,0,0,2.67-.08c.61-.27.9-1.25,1.33-1.92l5.51-2.65c.19-.55.6-1.71,1.12-3.18l3.88-.25c2.94-1.11,4.1-4.78,7.71-6.17l3,2.23h9.83l3.59-3.8h8.57l1.42-4h13.11c2.36-.77,3.41-2.51,5.77-2.4,1.94.09,4-1.33,5.93-2.32,1.68-.89,2.24-3.33,4.54-3.49l8,4.12h5.1L3635,1320h6l3.89,3.89c2.24,0,4.54.66,6.78-.49.36-1.5.65-3,2-4.19.82-.74.9-2.25,1.5-3.32.77-1.39,2.88-1.85,2.83-3.82s2-2.49,2.73-3.83h10.67c.57,1.38,1,2.53,1.52,3.65.66,1.39,1.38,2.76,2.06,4.1h2l2.14-2c2.3-.37,4.7.87,6.68-.78.22-1,.42-1.91.65-3h6.8l1.43,1.43c4.39,1.27,8-.6,11.49-2.91.73-.48,1-.88,1.06.13,1.23,1.77,2.45,3.55,3.58,5.19H3715l2.17,1.88c1.75.33,3.56-.67,4.83,1v2l-2,2.14c.34,1.55-.71,3.33.74,4.65h12.85c.54-2.76.84-5.25-.5-8-.77,1.63-1.4,3-2.12,4.52-2.12-1.31-2.71,1-4.12,1.56-.13,0-.46-.43-.83-.8.09-.79.2-1.69.29-2.49l3.58-1.24c.49-1.8-.58-3.56,1.11-5.31h6.55l3.41-5.93h4L3747,1310H3757l2.23-2.06h11.89c1.58-2.52,3.89-2,6-1.7l2.18,1.77c4.91,0,9.57,0,14.23,0,2,0,4-.3,5.26,1.79,3.1-.74,5.25,2,8.31,2.41a3,3,0,0,1,.51.42L3819,1324h3.47l5.81,3.28s1.16,1.14,2.32,2.33,3.19,2.34,3.25,3.58c.11,2.48,2.08,3.22,3.09,4.79.82,1.29,1.41,2.73,2.28,4.47l5-2.47,7.81,4.26h9.35l1.38,3.77c3.27-1.11,5.34,1.92,8,2.18,1.23-1.13,1.27-1.15,3.14-1.41v9.92l2.35,2.7v6c2.44,1.87,3.49-.83,5.17-.91.42,1.16.84,2.32,1.23,3.37l3.25.67v8.44l4.23,4.23v8.13l7.89,3.58V1399l1.53,1.64c1.22,3.4-.46,6.47,1,9.13l3.25.73c.13,2.29.25,4.53.33,6l4.11,7.6v15.59L3914,1443v2c-2.23,1.13-4.78,1.82-5.88,4.1v3.9l1.8,2.27c-2.36.9-4.61,1.43-5.86,3.73v13.85L3902,1475v7H3894l-5.18,6.31c-3.46-2.11-7.42-2.07-10.67-4.46l-7.68,4.15c-3.76,0-8.07,0-12.38,0a5.68,5.68,0,0,1-1.71-.64c-1.3-2.29,1.15-5.29-1.45-7.37-2,0-3.93,0-5.92,0-.24,0-.47-.44-.74-.71V1475c.85-1.17,1.41-1.92,1.87-2.55-.11-1.53-.2-2.78-.32-4.49-4.87,0-9.45,0-14,0-.54,0-1.08-.55-1.53-.8-.2-1-.39-1.88-.55-2.67l-3.66-1.24c.25-2.46-.67-4.8.59-6.82l1.45-1.57v-4.62l3.89-2.91c.31-3-.85-3.66-2.93-3.32a40.33,40.33,0,0,0-4.14,4.23,41.47,41.47,0,0,0-2.85,5.49v6.55c-1.12,2.2-2,3.85-2.79,5.51-1,2-3.66,1.8-5.06,3.45l1.85.76v4a1.7,1.7,0,0,0-2,2v2c-.78.45-1.55.92-2.35,1.33-.52.27-1.1.45-1.65.67-.57-.24-1.44-.32-1.65-.73-.85-1.64-1.49-3.38-2.49-5.76-1.59-1,2.07-3.83-1.2-5.37-.45,1.2-.87,2.35-1.37,3.68H3803l-2.66-2h-5.92c-.32-2-.61-3.86-.89-5.59-4.63-.48-8.91.16-13-.38l-1.29-3.77c-3.34,0-3.28-.17-5.66-1.38-2.15-1.09-4.42-1.93-6.35-2.75l-2.33,1.94H3759l-2.3-1.76c-.54,1.51-1,2.66-1.38,3.84h-6.15c-1.48-2.15-4.81-1.55-6.27-3.92-3.28.52-3.9-3.17-6.77-4.15H3733l-2.08-1.65H3716.8l-1.62,1.62-4.41.41L3709,1454h-3.9l-2,1.83-2.83.65c-.31,1.21-.55,2.11-.87,3.35l-8.18.44c-.38.73-1.34,2.51-2,3.71-3.86.23-3.86.23-6.37,2-3,0-6.34,0-9.64,0-.27,0-.53-.31-.79-.48L3671,1464h-2l-2.11,2H3661l-2.08,1.92h-8l-7.88-7.88h-7c-3.24,1.43-5.6,2.94-8.23,3.89-.4.15-1.08-.5-1.57-.75.74-1.29,1.47-2.59,2.14-3.76-1.9-2-4.29-2.09-5.93-3.83-2.15-2.26-5.66-2.9-7.62-5.6-3.18.78-2.52-2.09-3.47-3.77h-10.79c-.45,1.47-2.74,1.78-2.53,4.36l2,2.85a22.36,22.36,0,0,0-2.83.58c-1.19.41-1.51,2.27-3.17,2h-6a39.69,39.69,0,0,1-4.63,0,1.54,1.54,0,0,1-1.37-2h7.38a20.14,20.14,0,0,0,2.87-3.35c.83-1.45,3.41.53,3.43-2.65h-6.91l-3.5,4H3582c.22-2.49,3.06-3.1,3.71-5.08l-2.65-3H3575l-3.57-3.57-3.41-1.16v-3.65l-5.91-4.5c-.1-1.91-.16-3.2-.21-4.22L3558,1423v-3.88c-1.49-1.78-3.95-1.76-5.58-3.52-2.11-2.26-5.26-3.2-8.15-4.33-3.44-7.57-2.56-7.77-9.06-13.08a11.74,11.74,0,0,1-1.34-1.58v-3.84c-1.47-.78-1.87-2.91-3.91-2.81-.18-1.18.05-3-.62-3.43-2.39-1.61-.64-4.16-1.81-6C3526.34,1379.86,3525.92,1377.88,3524,1378Zm58.41-34c-1.85.77-4.6,1.06-5.63,2.54-1.83,2.64-5.13.19-6.71,2.69l7.6,3.47,1.14,3.31c2.92,0,5.57,0,8.21,0,.24,0,.47-.44,1-1-.13-1.24.26-3.27-.58-4.25C3585.65,1348.57,3585.74,1345.05,3582.41,1344Z" transform="translate(-730 -629.96)"/><path class="cls-1" d="M2994,810c0-3.26-3.62-1.64-5-3.72-2-3-5-5.29-7.72-8-3.22.34-5.75-1.87-8.83-2.75-.74-1.27-.65-2.9-1.89-4.21-.89-1-.6-3-.89-4.89l-3.15-.7c-2.64-1.34-2.34-5.51-5.44-7.55h-14.28l-1.68,1.68h-12.07l-2.08-1.8H2927c-.6.56-1.32,1.23-2.08,1.92h-14l-1.33,1.39a6.58,6.58,0,0,1-1.81.59c-3,.06-6,0-8.85,0l-1.87-1.87h-19.84c-2.93-2-2.93-2-6.64-2.48l-1.76-1.76h-8l-2.12-2.12h-8.44a47.94,47.94,0,0,0-.69-5c-.09-.35-1.07-.48-1.64-.72v-6.9c-1.43-1.08-2-3.38-5.15-3-.84,2.18-4.28,2.72-4.85,5.92h-26.92l-2.12-2h-3c-.78-3.16-2.9-4.32-6-4-3.16-.78-4.32-2.9-4-6v-2c2.05-1.18,2.05-1.18,1.17-3.83-2.14.74-.8,2.55-1.17,3.83h-2c-.43-.67-.72-1.65-1.33-1.92A7,7,0,0,0,2790,748c-.22-.55-.35-1.51-.68-1.59-1.19-.27-1.39.62-1.32,1.59h-7.13c-2.45-2.42-3.66-5.58-5-8.78-.75-1.73-2.18-3.11-1.82-5.22h5c.9,2.37,2,4.64,4.28,6,4.13-.48,7.05,2.13,10.54,4.16H2803l2.45,1.92c7.31-3.5,7.31-3.5,9.59-8.08h3c2.54.32,3.23,3.11,5.46,3.63l6.17,1.82c.23-1.6.51-3.44.79-5.33h6.52l2.08,1.82h3.81L2845,742h4.33l4-6c3.73.07,3.73.07,4.63,1v2.18a11.48,11.48,0,0,1,3.33,1.26c1.31,1,2.33,2.34,4.87.67-2.93-2-2.52-6.2-6.08-7.67v-4.16L2858,727v-3.85l-4.12-4.34v-4c-1.47-.78-1.87-2.91-3.91-2.81-.25-1.22.62-2.66-.78-3.77l-4.56-.49c-.9-1.41-2.18-2.21-2.82-3.92-1.06-2.85-2-6-4.9-7.79-2.68,0-5.32,0-8,0-.24,0-.47.44-.7.67a16.88,16.88,0,0,1,1.68,3c.38,1.18,0,2.71.66,3.68s1.72,1.93,1.33,3.52L2830,709v2a25.22,25.22,0,0,1,4.07,2.1A40.2,40.2,0,0,1,2838,717c-1.31,1.65-2.75.78-4,1h-3.09l-1.83-4H2824c.26-1.89-.61-3.92.65-5.67l4.38-1.49-7-7a3,3,0,0,0,0-1.44c-.9-2.23-1.94-4.4-3-6.71l-2.95.95v4.26l3.91,4.13c-1.77,1.55-4.43,1.59-5.27.3-1.27-1.94-5-.13-4.85-3.81,0-1.2-1.84-2.46-2.67-3.48-1.87-.42-3.65.63-5-.92-.12-2.2-.25-4.43-.35-6.25-2.4-2.95-5.44-3.92-8.39-4.86-4.63-1.49-6.76-2.56-10.44-6h-3c-1.33-3.47-4.75-5.11-6.73-7.86-1.63-.25-3.59.12-3.17-3.24,1.33-1.31,3.1-3.13,4.05-4.06l6.54-3.11,2.39,2.27H2793l2.13-2h13.85l2.14,2h8.46l3.34-4.07h6.25c1.42-2.58,4-1.71,6.07-2.13,1.46-1.08,2.22-3,4.55-3.51v4.45l3.2,3.2h3.85l2.23,2h3.6l3.38-2c2.3.26,6.51,2.11,9.09,4H2869c1.77,1.08.57,3.69,2.66,4.86.93.53.52,2.31-.79,3.14H2866a1.7,1.7,0,0,0-2-2h-2c-1.21.23-2.59-.57-3.58.56-1.52,2.37,1.5,3.31,1.5,4.93,0,5,3.57,8.29,5.14,12.5,0,.1.62,0,.94,0,.24.57.32,1.43.74,1.65a22.24,22.24,0,0,0,3.32,1.18v5.73l3.77,2.08c.59,3-.95,5.5,1.21,7.34,2.11.76,2.83-1.29,4.55-2.15,2.3,0,4.94,0,7.58,0,.24,0,.47-.44.71-.68.1-1.58.19-3.15.28-4.56l3.84-1.31V693l-2.06-2.2v-3.32c-1.49-2.68-2.71-4.85-3.94-7,.42-2.12-1.12-4.61,1-6.44h3.85c3.37,3.08,8.54,3.12,11.12,7.13.33,1.54-.71,3.33,1,4.82,1.39-.28,3,.59,4.41-.39l1.53-1.53,2.17,2H2919c.49.49.89,1.13,1.45,1.4a35.1,35.1,0,0,0,3.62,1.31L2922,691c2.72,1.4,5.51,2.72,8.19,4.26,1.87,1.07,4,1.45,5.32,0s3.75-.83,5-2.68c.83-1.2,2.3-.8,3.39.34v4.29l2.73,4.69,3.86.21c4.3,2.52,5.47,6.34,7.47,9.56v5.53l4,3.16V728c-2.68-.21-1.53,2.28-2.37,3.37l-3.56,3.56v3.91l2.43,3c4.41.81,6.62-2,9.5-2.92V730c1.14.22,2.11-.65,1.91-1.35-.77-2.77,1.24-4.5,2.09-6.65a1.53,1.53,0,0,1,1.41-2c2.19-.16,4.39,0,6.59,0,1.28,2.37,1.28,2.38,3.81,1,.27-1,.51-1.93.66-2.53,2.05-1,4.05.21,5.82-1.52,1.46-1.43,3.77-2,5.71-2.91,1.21-.25,2.71.67,3.63-.67,1.15-1.67,2.78-1.33,4.26-1.61.32,1.27.18,2.82,1.93,1.46a17.45,17.45,0,0,0-1.93-1.46c.11-3.24.15-6.77.06-10.29,0-.49-.67-1-1-1.43H3001l-2.72,2.72c-.62,1.19.29,3.44-2.28,3.28v-4.92l-2.13-2.24a24.64,24.64,0,0,0,3.43-1.22c.4-.22.48-1.06.7-1.62h2.84c1.81-1.88,4.26-3.26,5.16-6v-6a1.7,1.7,0,0,0,2-2h4c-.19,3.1,3.18,1.31,4.18,3.07s3,.63,4.61,1a18,18,0,0,1,6.47,8.35l5-2.51a16.2,16.2,0,0,0,3.25,2.05c1.44.47,3.31-.61,4.48,1.24v1l7.15,7.81c3.86.17,5.59,3.47,7.42,5.89,2,2.61,4,5.66,3.61,10.13l11.65,11.65c-1.37,2.72,2.1,4.32,2.12,5.92l-4.58,6.24c-3,.58-5.51-.91-7.41,1.19v10.24c-5.09,2.57-4.43,9.5-8.9,12.5-1.2-.77-2.23-1.45-3.27-2.13l-7.69,8.39h-3.41c-.38,1.12-.78,2.27-1.18,3.43L3028,785c-2.2,1.19-3.26,1.82-4.36,2.34s-2.28.92-3.07,1.23c-2.29,4.71-4.45,9.13-6.59,13.56-.13.27.07.77-.1.95-1.61,1.68-3.26,3.31-4.89,5h-7.95l-2.14,2Zm-89.77-65.44c-.44-1.55-.3-3.1-2.05-1.74.55.46,1.09.92,1.59.62.44,1.55.3,3.1,2.05,1.74C2905.27,744.72,2904.73,744.26,2904.23,744.56Zm-8.23-8.84v-4.66l-2-2.13v-4.22c-1.49-.11-1.5-2.53-3.45-2.32-.44,1.24-.83,2.39-1.2,3.46l-5,.36c-.1,1.18-.18,2.08-.25,2.88l6.09,4.51v5.69c1.26.49,2.42.87,3.51,1.39s2.1,1.14,3,1.65l3-3Zm-50.16-60.31c1.95,4.2,3.52,8.35,7.94,10.71l2.68-1.21c-2-4.48-3.82-8.77-8.59-11.24Zm-59.19-.29c8.78,1,8.78,1,11-.89C2794.6,674.54,2791.51,673.27,2786.65,675.12Zm59.06,70.17L2845,744c-.22.22-.66.49-.63.66A6.53,6.53,0,0,0,2845,746Z" transform="translate(-730 -629.96)"/><path class="cls-1" d="M2368,1438a20.26,20.26,0,0,0-2.82-5.59A6.81,6.81,0,0,1,2364,1428c0-3,0-6,0-9,0-.22.46-.44.86-.8l5.15-.57c-.13-2.24.07-4.47-.12-6.73l-1.41-1.41c-.17-.27-.48-.53-.49-.79,0-2.63,0-5.27,0-7.72l3.8-3.8v-12.4l-2-2v-7.32l-3.85-7.11V1358c2.2,0,4.4.11,6.59,0a1.53,1.53,0,0,0,1.41-2c1.67.3,2-1.52,3.33-2h19.76c3.21-4.27,8.58-5.08,12.39-8h9.35l2.19,2h5.91c2.22-1.36,3.16-3.71,4.15-5.77l2.73-.76c.16-1.84.29-3.41.41-4.72,2.69-2.07,3.61.82,5.55,1.37,1-.12,2.65.18,3.5-.5,2.48-2,6.17-2.31,7.48-5.57h16.16l2.13-2c2.7,0,5.35,0,8,0,.24,0,.47.44.74.71v6.66c-2.49.5-4.54,1.5-5.7,3.55-1,1.7-4,0-4.23,3.1-.17,2-1.77,3.87-2.73,5.8l-3.22.18-6.51,7.78h-22.54c-1.29-1.31-2.36-2.71-4.26-1.44-.2.26-.56.5-.56.76-.05,2,0,4,0,5.47l-2.91,4.21,6.07,3.42a5.24,5.24,0,0,1,4.57.44l1,3.26,1.78.12,7.43,6.88v4.12L2440,1391c0,1.79.08,3.76,0,5.73-.11,2.26.51,4.57-.64,7.2L2434,1407v15a4.2,4.2,0,0,0,.28,1.89c-1.27.32-2.82.18-1.46,1.93a17.45,17.45,0,0,0,1.46-1.93,7.67,7.67,0,0,0,1.72.11,1.54,1.54,0,0,1,1.95,1.37,39.69,39.69,0,0,1,.05,4.63c-1.23.25-2.66-.62-3.69.67-.11.64-.21,1.26-.31,1.88,1.15,1.5,1.95,3.42,4.34,3.45,1.73-.82,3.23-1.91,3.66-4h4c.67.43,1.65.72,1.92,1.33a7.17,7.17,0,0,1,.08,2.67c-1.22.25-2.66-.62-3.61.57-1.11,1.74.69,4.11-1.44,5.4h-4.65c-.92-1.21-2.12-2.77-3.26-4.25-1.92.67-3.74-.45-5,1.26v6.16c-2.08,1.3-3.2,3.9-6,5l-7.6-4.13h-7.63l-6.76-9.52c-.08-.4-.26-1.31-.46-2.3h-6.87c-.49,1.32-.93,2.46-1.31,3.48-2.09,1-3.13-.32-4.3-1.58h-6.26l-3.3-4.08a31.06,31.06,0,0,0-5.43.28c-.32-1.27-.18-2.82-1.93-1.46a17.45,17.45,0,0,0,1.93,1.46c-.4,2.37.54,5.18-.88,7.9l-2.33-2.18Zm10.07-22H2389l2.83-2.84c.07-1.57.61-3.18-.5-4.92h-5C2385.5,1412.45,2379.65,1411.18,2378.07,1416Z" transform="translate(-730 -629.96)"/><path class="cls-1" d="M850,762h-5.24l-1.11-3.35-7.49-3.4c-.12-2.29-.24-4.52-.38-7l-4.74-.33c.43.07,0,.13-.17,0-1.9-1.84-3.75-3.71-5.62-5.58l-1.9-.25c-1.84-1.9-1.77-5.5-5.47-6L814,738v-8.94c-.45-.47-1.11-.87-1.32-1.43-1.24-3.17-3.06-6-4.57-9-1.35-2.73-3-5.65-2.17-9.06.1-.41-.62-1-1-1.53-1.54-.36-3.29.7-4.66-.68-.39-1.15-.77-2.28-1.12-3.35H791l-2.33-2.12-2.55.75c-.1,2.49-.62,4.75.32,6.87L788,711c0,3.23,0,6.52,0,9.82,0,.26.36.51.56.76l3.41,1.16v2.2l6.12,3.27h5.16c1.07,1.14,2,2.09,2.71,2.89.18,3.11-.36,6,.47,9L810,738v9.1c3.13,2.34,5,6.5,9.8,7.47.11,1.46.23,3,.34,4.58a25.16,25.16,0,0,1,4,2.09c2.34,1.78,2.61,4.79,3.81,7.24.44.92.79,1.75,2,1.52a39.69,39.69,0,0,0,0,4.63,1.54,1.54,0,0,0,2,1.37v3.24c.55.49,1.27,1.13,2,1.76l2,1.71V786c0,.65,0,1.3,0,2,0,1,.12,1.87,1.32,1.65.32-.06.47-1,.69-1.6,1.72-.38,1.88,1.69,5.39,2H845c1.67,1.33.65,3.12,1.16,5.61l6,4.85c-.4,4.08-3.58,5.24-5.24,7.47h-4l-2.84-2.84c-.11-1.57-.23-3.14-.34-4.59l-3-.8L829,792h-4l-2.18-2h-4.16a33.43,33.43,0,0,0-1.23-3.43c-.27-.57-.91-1-1.43-1.48v-4l2-2.08V773l-2-2.17v-1.93c-3.71-2.38-8.4-3.08-10.87-6.94h-5.23L790,757v-2c-1.53-3.36-6.52-2.53-7.66-6.4,1.43-1.25,3.15-.42,4.72-.58a37.2,37.2,0,0,1,4,0l2.92-2.92V741.4l-11.16-11.17c-3.21-1.26-6.44-2.45-8.76-5.25v-5h3.1c.6,1.3,1.22,2.64,2,4.41.55-1.58,1-2.73,1.34-3.88l3.66-1.29a8.53,8.53,0,0,0-.73-2.77c-2.13-3.06-3-6.82-5.4-9.69.73-5.36-4.74-8.82-4.34-14.1,0-.22-.42-.48-.6-.68H770a1.7,1.7,0,0,0-2-2v-4.92l-2-2.08,2.27-2.49L763.67,677l1-2.88c1.24-.38,2.84.53,3-1.45L766,672v-5c-1.13-1.74-3.67-.71-4.94-2.74-.86-1.36-3.79,1.11-5-1.83l5.51-.82c.47-1.39.85-2.55,1.21-3.61,1.3,0,2.3,0,3.29,0s1.9,0,1.5-1.48c-2.2-1-4.47-.47-6.62-.37l-2,1.71h-5.74L750,655.1c0-.89.08-1.54.12-2.41l3.5-1.23c.3-1.78.61-3.61.89-5.24,3.21.78,2.94,3.93,4.52,5.75,1.71-1.43.66-3.22,1-4.85l-4.15-4.35.74-2.9L759,642h3.81c1.13,1.85,3.3,1.79,4.92,2.79.18,1.55.37,3.13.53,4.55L772,653v3.28l2.85,5.5h8.76c.55-2.75.84-5.25-.25-7.52l-3-.62c-.37-2.74-.91-5.26.56-7.62H783c1.14-2.23,1.8-4.79,4.34-6,1.9-.11,3.85.46,5.4-1.58.79-1,2.36-.58,3.25.65.8,2-1.25,2.72-1.84,4.15,1.41.75,1.81,2.88,3.85,2.78l-2.78,5.78-2.59.65c-.78,1.65-1.54,3.25-2.31,4.89,1.79,1.79,3.74,3.57,5.47,5.56.67.77-.32,2.53,1.43,2.9,1.39-1.5,2.8-2.93,4.78-.78v2.63c4.49-.24,5.93,4.07,9.11,6.34,2.74.15,5.66-.18,6.35-.09L822,676c-.38,3.19,3.18,1.06,3.84,2.84,1,2.86,1,2.86,4.16,5.16,0,3,0,6,0,9,0,.23.46.44.84.78l3.35,1.15-.83,3.23H822.28c-.17,1.89-.31,3.47-.41,4.62l-2,3.07c.76,3.14,4.59,3.67,4.14,6.9,2,1.38,4.65,2,6,4.34v6.58l3.44,2.68c.69,2.61.69,4.45,1.59,5.54,1.26,1.54,1,3.08.91,4.63-.07,1.79.72,2.94,1.68,4.35.79,1.16.5,3,.67,4.52l3,2.77h4a20.2,20.2,0,0,0,3.44,5.75c1.62,1.72,2.37,4.27,3.68,6.8ZM765,645.85c-1.29,1.81-1.88,3.08.29,3.91C766.38,648.59,766.31,647.49,765,645.85Z" transform="translate(-730 -629.96)"/><path class="cls-1" d="M2342,1390v-6.24l-6.14-12L2337,1370l1.23-2c-.56-.87-1.24-1.9-2.17-3.31v-7.54c.67-.88,1.41-1.87,2-2.71-.33-.91-.37-1.74-.78-2-3.35-2.27-3.78-6.68-6.92-9.21-1-.77-.66-3.07-2.21-4-1.86-1.09-1.64-3.58-2.92-4.7-1.46-1.27-.65-3.23-2-4.21-2-1.45-.94-3.62-1.47-5.72-3.17-1.23-3.26-5.07-5.46-7.42-.7-.74-.32-2.5-.41-3.48l-8.88-8.88-2.92-6.79v-25.46l3.8-2.66v-6.72l2-2.21v-3.92l2.05-2.18V1249l1.72-1.72c.12-1.27.27-2.85.43-4.49,1.37-.73,1.77-2.85,3.81-2.75v3l-2,2.09v11.22c.87,1.77,1.44,2.87,1.95,4,.82,1.81,1.86,3.35,4,3.73v12.93a6.44,6.44,0,0,1,1.33,1.44c1.19,2.48,2.3,5,3.38,7.41l2.62.55c1.62,1.62,3,3,4.41,4.44.08.09-.13.45-.3,1l-4.58.33L2326,1295v2.1l4.49,2.08-2.41,4.21,2.51.75,3.12-2.37c1.6.83,2.95,1.56,4.32,2.25,1.64.81,3.3,1.59,4.64,2.25l7.37,6.93v6.14c1.8.64,1.53,2.52,2.27,3.84.91,1.62,2.62,2.79,3.88,4-.25,1.68,0,3.39-.71,4.12-1.94,2-1.8,3.94-.92,6.39,3.72,0,5,3.4,7.41,5.36,0,.73.07,1.38.12,2.24a15.76,15.76,0,0,1,3.36,1.23,17.62,17.62,0,0,1,2.69,2.63c-.3,1.53-.15,3-2.16,2.82-1.31.27-3-.79-3.85,1.17,1.87,1.14,2,2.93,1.85,4.83h-3l-2.82,2.83c-.15,1.57-.29,3.15-.4,4.39L2356,1367c0,1.93.1,3.93,0,5.91-.14,2.25.66,4.59-.57,6.74-3.69-.17-6.41,2.07-9.49,3.64v3.9C2344.44,1388,2344,1390.1,2342,1390Z" transform="translate(-730 -629.96)"/><path class="cls-1" d="M1276,1276c-2.78-1.33-5.51-2.76-8.34-4-2.62-1.13-3.84-4.1-7.09-4.65-2.28-.39-2.11-3.7-3.56-5.37h-1.55l-9.53-9.52v-11.13c-1.36-2.28-2.87-4-3.49-6.07a8.37,8.37,0,0,0-3-4.76c-2-1.39-1.15-4.45-3.5-5.56v-4.22l-3.82-1.31c-.09-1.41-.19-3-.3-4.66-3.69-2.28-3.87-7.45-7.75-9.41-.1-2.51.31-4.93-2.12-6.37.24-3-3.29-4.92-2.11-8.11-1.3-2.12-2.63-4.23-3.86-6.39-.3-.51-.08-1.34-.4-1.82-1.75-2.64-5.68-3.68-5.63-7.66-2.25-1.88-2.53-5-4.76-7.11-1.65-1.59-2.2-4.47-4.58-6h-3.74c-2.1-2.09-3.93-4.37-6.88-4.82V1153l2.15-2.41c-.73-1.68-2.29-3.53-2-5,.52-2.76-2.52-3.74-2.23-6.2a43.65,43.65,0,0,0,0-5.57l11.82-11.82H1202v4l-2.41,4.86,4.41,4V1138c.24,1.88-.56,3.87.6,5.63l3.4,1.11v6.19l2,2.1v4.39l3.14,2.65c1.58,3.26-.1,5.68,1.62,7.69l2.63.67c.89,2,1.76,3.88,2.69,5.93l-1.83,2.89c.24.24.55.43.68.71a22.2,22.2,0,0,1,1.06,2.51c.34,1,.78,1.76,2,1.53.43.67.72,1.65,1.33,1.92a7.17,7.17,0,0,0,2.67.08c0,4.21,0,4.21,2,8v3.15l2,1.69v4.27l4,3.64V1208a39.69,39.69,0,0,0,0,4.63,1.54,1.54,0,0,0,2,1.37,4.91,4.91,0,0,0,4,4v4.07c1.57,3.22,2.81,5.7,4,8.21.85,1.79,1.86,3.35,4,3.72a1.7,1.7,0,0,0,2,2,7.17,7.17,0,0,0,.08,2.67c.27.61,1.25.9,1.92,1.33a1.7,1.7,0,0,0,2,2v5.58a19,19,0,0,1,3.15,2.67A17.43,17.43,0,0,1,1259,1254h5v3.08l2,1.73c.26,2.37-.5,4.64.54,6.74,4.51.86,6.35,5,9.49,7.33Z" transform="translate(-730 -629.96)"/><path class="cls-1" d="M1318,1290c.19,1.19,0,2.9.66,3.48,1.88,1.54,1,3.48,1.4,5.21.35,1.4,2.43,2.06,1.93,4a3.81,3.81,0,0,1-.43.82c-1,1.06-2.37.33-3.56.54a1.49,1.49,0,0,0-1.53-1.94c-3.15.18-3.5-3.71-6.2-4.06-3.08-.39-3.73-2.65-4.67-5.18-.55-1.47-2.09-3.45-4.58-2.82-1-2-3.32-1.61-4.74-2.76-1.69-1.36-2.78-3.65-5.46-3.42-1-2-3.49-1.33-4.73-2.77-.79-.93-2.33-1.4-2.09-3h7.23c1.24-2.24.57-4.16.77-6,1.21.24,2.61-.58,3.64.62.38,1.17.75,2.31,1.09,3.38H1299l2.1,2H1304v5.09l4.91,4.91H1314c.43.67.72,1.65,1.33,1.92A7,7,0,0,0,1318,1290Z" transform="translate(-730 -629.96)"/><path class="cls-1" d="M1294,942a35.75,35.75,0,0,1,2.79-5.69c1.75-2.42,6-4,10.24-4.33l3,2.69V939l-6.25,5H1300a1.54,1.54,0,0,0-1.37-2A39.69,39.69,0,0,0,1294,942Z" transform="translate(-730 -629.96)"/><path class="cls-1" d="M1995.53,745.89H1991c-1.08-.58-1.1-1-.39-1.52.52-.38,1.42-1.13,1.33-1.34-1.25-2.74,3.45-3.37,2.1-6.06l6.92-6.92c1.31-.12,2.65-.34,3.1,1.72.41,3.09-3.89,3.52-4.28,6.85C1999.48,741.11,1997.09,743.36,1995.53,745.89Z" transform="translate(-730 -629.96)"/><path class="cls-1" d="M852,764c1.26-.32,1.8.72,2.38,1.42,2.57,3.15,3.67,7.1,5.58,10.61.28.51,0,1.31,0,2h-4.81c-1.24-1.46-2.94-2.06-5-2.59v-6.63l1.76-1.85Z" transform="translate(-730 -629.96)"/><path class="cls-1" d="M2802,934v-2.92c.21-.24.41-.68.64-.69,4.8-.2,9.61-.36,14.57-.54l1,2.78L2812.6,936H2806c-.43-.67-.72-1.65-1.33-1.92A7.17,7.17,0,0,0,2802,934Z" transform="translate(-730 -629.96)"/><path class="cls-1" d="M2394,1454c-.32,0-.78-.14-.95,0-1,.89-1.82,1.84-2.92,3v4.24l-3.79,2.76H2382v-2l2-3.47V1455c3.13-.84,5.51-4.25,9.33-2.69C2393.55,1452.88,2393.78,1453.44,2394,1454Z" transform="translate(-730 -629.96)"/><path class="cls-1" d="M2128,666c-2-3.79-2-3.79-2-8,3.61,2,3.61,2,10,2l1.88,3.28a20.68,20.68,0,0,0-3.19,1.12c-.4.2-.47,1.05-.69,1.6h-6Z" transform="translate(-730 -629.96)"/><path class="cls-1" d="M1884,902l-3.42,2H1877c-1.74-1.63-1-3.52-.57-5.53,2.43-1.07,5.06-.13,7.59-.45Z" transform="translate(-730 -629.96)"/><path class="cls-1" d="M2994,812a1.7,1.7,0,0,1,2,2,7.17,7.17,0,0,1-.08,2.67c-.27.61-1.25.9-1.92,1.33h-3c-1.9-1.56-.92-3.49-.71-5.35C2991.36,811.4,2992.78,812.25,2994,812Z" transform="translate(-730 -629.96)"/><path class="cls-1" d="M2324,1234l-2.82,6-3.18,0v-3.16l2.84-2.84Z" transform="translate(-730 -629.96)"/><path class="cls-1" d="M1888,891v-2.43l3.51-.74.6,3C1890.69,892.47,1889.35,892.43,1888,891Z" transform="translate(-730 -629.96)"/><path class="cls-1" d="M1278,1276a7.17,7.17,0,0,1,2.67.08c.61.27.9,1.25,1.33,1.92a7,7,0,0,1-2.67-.08C1278.72,1277.65,1278.43,1276.67,1278,1276Z" transform="translate(-730 -629.96)"/><path class="cls-1" d="M1368,1428v4.93l-2,2.12v4a6.48,6.48,0,0,0-2.23,4c-.32,1.36-2.16,2.37-3.77,4v23c-2.21,1.26-2.81,2.11-1.59,3.24,2,1.9,1.8,3.9,1.2,6.07-.1.35-1,.47-1.61.69h-3c-2.31-2.32-4.42-5-7-6.93-2.38-1.79-5.31-2.83-8.08-4.25.51-3.4,3.41-4.65,5.24-6.77,1.18,1.27,2.21,2.66,4.26,1.65,1.45-2,.35-4.38.74-7.08l-3.58-.79-.74,3.7-2.89.48c-1.57-2.15-.78-3.41,1.14-4.8v-4.5c0-1.32-.09-2.66,0-4,.15-1.56-.67-3.31.83-4.62,3.07,1.62,3.5,5,5.13,7.59a17.31,17.31,0,0,1,2.45,8l2.7.12c1.57-1.53.52-3.29.87-4.83l-2-2.13c-.74-2.08,1.3-2.8,1.92-4v-6l-1.62-1.62c-.39-2.37-.8-4.87.63-7.5l3.36,3.84c.41.67-1.52,3,.84,4.22,1.57-1.31.54-3.1.89-4.76L1362,1433v-3.88c-1.81-1.07-1.72-3.25-2.7-4.82l-3-.77c-.06-.81-.5-2.27-.12-2.53,2.37-1.6,1.63-4,2-6.21,1.33-1.58,3.15-.22,5.26-1.28L1365,1412h3Z" transform="translate(-730 -629.96)"/><path class="cls-1" d="M3018,674h-8.53l-3.47-2c-.21-.54-.27-1.24-.65-1.6-1.26-1.15-2-2.32-.5-4.4H3014a1.7,1.7,0,0,0,2,2l2,3.47Z" transform="translate(-730 -629.96)"/><path class="cls-1" d="M908,714v7c.91.86,1.87,1.76,3,2.84h7.46l3.3,2.36,7.8-4.25H934l5.11-2.51,1.33,4.15,2.72.52,2.69,2.69V735l-2.78,3H940c-.25-1.89.59-3.9-.65-5.68l-3.79,2c-1.76-1.07-2.75-3.72-5.34-1.57l1.93,3v5.53L934,742v5.2l3.63,1.22c.14.73.32,1.63.55,2.78l3,2.86h10.06c1.47,2.39.56,4.7.84,7.2l3.61,1.18c.15.75.32,1.65.53,2.71l1.83,1.94V776h-2c-3.79,2-3.79,2-8,2h-4.93L941,776l-2.75,2.76c.48,1.56,3.11,2.54,1.26,4.73l-3.34,1.14c-.06.84-.11,1.48-.2,2.61,1.68.34,2,2.65,4.4,2.89A4.36,4.36,0,0,1,944,794H933.08a10.33,10.33,0,0,0-2.15-1.94,8.17,8.17,0,0,0-2.56-.45l-.72-2.81-9.84-4.92h-4.15L908,781v-2l2-2.09V771l-2-2.24v-6.29c-3.18-.85-3.33-4.2-5-6.49h-2a41.47,41.47,0,0,1-4.15-4.24,40,40,0,0,1-2.84-5.47c0-1.59,0-3.9,0-6.21a5.79,5.79,0,0,0-.61-1.7L892,736.93V730c2.66,0,5.33,0,8,0a5.68,5.68,0,0,0,1.71-.67c1.18-2.26-1.05-5.18,1.34-7.18l2.38,2,.75-3.12L902,719.07l1.85-2.11-1.76-2.15C904.06,713.38,906.1,714.26,908,714Zm6,24c.57-.23,1.58-.4,1.63-.71.26-1.81,1.33-3.81-.74-5.29-2.42-.38-3.33,1.71-4.76,2.88.38,1.19,2.2,1.5,1.87,3.12-.23.57-.42,1.6-.7,1.62-2.6.23-5.22.23-7.82.43-.49,0-.94.66-1.62,1.17l4,1.37c.43,4.06-.07,8.31.27,12.52L909,758c.9-1.82,1.78-3.61,2.65-5.35l-1.57-1.57c.59-.69,1.2-1.37,1.87-2.14v-3.84l2-2.16Zm16,15.29c1.42,2.5,2.21,3.91,3,5.2l3.1-1.38-2-2.2c-.37-1.61.66-3.34-1.12-5l-2.91.7ZM919,736c-1.24,1.37-1.42,2.7,0,4,1-.15,2.5.61,2.75-1.26Z" transform="translate(-730 -629.96)"/><path class="cls-1" d="M930,714h-3l-1.32-1.41c-2.15-1.17-4.48-.3-6.69-.63l-4.86-9.52c0-1.57-.62-3.85.43-6l2.72-.66c.79,1.26,1.82,2.93,2.91,4.69l2.78-2.32c3.44-1.34,5.69,1.82,8.66,2.5A9.59,9.59,0,0,1,934,702c0,1.56-.31,3.14,1.26,4.37.6.47.66,1.63,1,2.44C933.69,710.25,930.67,710.73,930,714Z" transform="translate(-730 -629.96)"/><path class="cls-1" d="M940,738c-.2.53-.38,1.51-.59,1.52-2.18.06-3.39,2.17-5.41,2.48.41-2-1.07-4.26,1.07-5.89l2,1.89Z" transform="translate(-730 -629.96)"/><path class="cls-1" d="M2468,1482h-8c.24-1.64-1.33-2.07-2.07-3a25.35,25.35,0,0,0-1.93-2.06V1470h3a10.77,10.77,0,0,1,3.62,5.47c.81,2.29,3.8,2,5.41,3.54Z" transform="translate(-730 -629.96)"/><path class="cls-1" d="M2400,1476a5,5,0,0,0-2-5.08V1464h1.81l8.08,8.15c0,.06-.15.65-.28,1.25-1.39,1.21-3.06.29-3.87.46Z" transform="translate(-730 -629.96)"/><path class="cls-1" d="M730,662v-3.27l3.44-1.12a18,18,0,0,1,1-3c.19-.38,1-.44,1.57-.65.56.23,1.59.41,1.62.7.26,2.2.32,4.42.44,6.63C735.19,662.65,732.54,661.66,730,662Z" transform="translate(-730 -629.96)"/><path class="cls-1" d="M2126,670c-.16,1.18.41,2.48-.85,4H2120v-4l3.47-2H2126Z" transform="translate(-730 -629.96)"/><path class="cls-1" d="M848,690h-2.9c-1.83-1.17-2.66-3.61-5.1-4v-2h4.93a5,5,0,0,0,5.07,2,7.17,7.17,0,0,1-.08,2.67C849.65,689.28,848.67,689.57,848,690Z" transform="translate(-730 -629.96)"/><path class="cls-1" d="M2670,882.71v.21c-1.13,1.77-2.91.77-5.15,1.39-.64-1.11-1.43-2.52-2.85-5v-.21c1.13-1.77,2.91-.77,5.16-1.39Z" transform="translate(-730 -629.96)"/><path class="cls-1" d="M2794,750v2a7,7,0,0,1-2.67-.08c-.61-.27-.9-1.25-1.33-1.92Z" transform="translate(-730 -629.96)"/><path class="cls-1" d="M2804,710v-3c1.53-2.1,3.58-.27,5.46-1.47.33,1.64.5,2.54.74,3.73,2.62,1.9,4.3,5.35,7.8,6.72.29,2.46,3,3.15,3.87,5.13l-3.06,3.06-1.15-3.55c-1-1.24-2.44-.4-3.66-.64,0-1.17,0-2.34,0-4l-4,0-6-2.82C2804,712.34,2804,711.17,2804,710Z" transform="translate(-730 -629.96)"/><path class="cls-1" d="M2820,632a1.53,1.53,0,0,1-1.41,2c-2.19.16-4.39,0-6.59,0h-2v-3c2.07-1.91,4.68-.63,6.61-.95Z" transform="translate(-730 -629.96)"/><path class="cls-1" d="M2986.41,640.26l-.8,3.13c-2.12,1.36-4.47.05-6.41.75l-2.39-2.19h-8.11c-.4-1.14-.79-2.29-1.3-3.76h-11.24l-6.07-3.1q-.06-1-.09-2c1.56-.94,3-2.19,4.72-2.73a7.56,7.56,0,0,1,4.61.05c2,.74,3.76,2.11,6.05,3.47h7.51c1.25-.51,1.82-2.85,4.5-1.43l1,3.12c3.55,1.13,7.56-.34,11.42.76v3.2Z" transform="translate(-730 -629.96)"/><path class="cls-1" d="M2882.88,669.4c1.43,2.76,1.52,4.53.43,6.29C2882,674.1,2881.92,674.1,2882.88,669.4Z" transform="translate(-730 -629.96)"/><path class="cls-1" d="M2800.72,699.83h-3.92c-1.61-1.52-.22-3.3-1.25-5.18L2799,694C2800.81,695.69,2799.42,697.47,2800.72,699.83Z" transform="translate(-730 -629.96)"/><path class="cls-1" d="M2507,1356h-3.94c-1.95-1.54-.92-3.49-.71-5.62l3.07-.6c.28-1.53.62-3.34.95-5.16,1.43-1.23,3.12-.34,4.67-.58l1.4,1.4a6.33,6.33,0,0,0,1.74.53c2.29.07,4.59,0,6.76,0l2.21-2,2,.16c1.6,1.28.36,3.1.93,4.39-1.27,2.68-3.65.81-5.08,1.54l-2.25,1.92h-5.11C2511.82,1353.4,2509.21,1353.71,2507,1356Z" transform="translate(-730 -629.96)"/><path class="cls-1" d="M2420.84,1326H2431l2.83,2.83c0,1.57.62,3.2-.54,4.89l-2.65.18-1.31-3.6-7,3.56c-1.47.09-3.72.55-5.9-.36-.17-.62-.34-1.22-.52-1.86C2417,1329.16,2419.56,1328,2420.84,1326Z" transform="translate(-730 -629.96)"/><path class="cls-1" d="M2507.74,1355.91l3.85.28c0,2-1.66,2.51-2.41,3.64C2507.07,1359.08,2508.51,1357.24,2507.74,1355.91Z" transform="translate(-730 -629.96)"/></g></g></svg>