<svg xmlns="http://www.w3.org/2000/svg" viewBox="0 0 4320 2160"><defs><style>.cls-1{fill:#ff9895;}</style></defs><g id="Layer_6" data-name="Layer 6"><g id="BWk"><path class="cls-1" d="M1390,1600h-3l-7,7v10.26l-3.74,1.26v4.27c-2.32,2.2-4.75.84-7.1,1.25l-2.18,1.91h-5.8c-3,3.12-6,6.22-9.3,9.69-.21.84.54,1.77,1.47,2.83.76.87.93,3.16,1.47,3.19,3.07.21,4,3.61,6.26,4.15,3.13.78,6.59.2,9.94.2l2.88,2.94v8.13l-7.49,6.59c-2.68-.56-5,2.29-8,2.95l-.7,2.73c-1,1.28-2.46.41-3.69.66-.23-1.2.56-2.58-1.25-4.2-2.88,1.37-6.38,2.19-8.73,5.26-.16.2,0,.63,0,1l2.73,5.64c1.12.68,3.45-.32,3.27,2.29a3.76,3.76,0,0,1-2.77,3.55c-2.71.54-4.59,3.69-8.18,2.27l-5,5.55V1700h-4.48l-6.82,3.89h-5.9c-1.37-2.81-4.15-1.38-6.53-2.37l-4.24-6.86c-.34-2.91.66-5.92-.79-8.66a41.27,41.27,0,0,1-4.19,0c-1.58-.17-3.3.68-4.56-.43-1-2.23-1.82-4.19-3-6.88a22.11,22.11,0,0,1,3.12-2.23c1.81-.91.86-3,2.14-4.29h3.94l5.8-5.48-2.51-4.34c-1.64-3,2.56-4.43,2-7.24l-2-2.12v-5c1.88-.24,3.88.57,5.63-.6a2.71,2.71,0,0,0-.62-3.44c-1.78-1.94-1.72-4,0-6h4c2.25-3,2.4-7.11,5.54-9.53a3.26,3.26,0,0,0,1.3-3.81l-3.85-3.32V1612c.23-.57.46-1.13.79-1.92l2.1,1.72c1.59-.31,3.69,1.52,4.9-1l-2.58-2.65-3.06-.64,3.81-7.16v-5.26l2-2.17c.36-1.53-.7-3.28.69-4.66,4.54-.46,4.54-.46,5.89-2.34l-4.71-2.78v-16.31l-4-4v-16l-2-2c.5-2.63-.44-5.56-.05-6.85l4.14-7.64V1526l3.76-2.14c.73-.14,2.36.68,3.77-.38l1-3.12,3.45-1.09V1516h5l2.91-2.92v-4L1344,1507v-11.85l-2.06-2.23V1489l-2.91-2.91h-5.89c-1.29-.35-1.45-2.45-3.17-2.06v-2a1.55,1.55,0,0,0,2-1.52c.15-1.34-.08-2.62-2-2.48a1.7,1.7,0,0,0-2-2v-4a1.55,1.55,0,0,0,2-1.52c.15-1.34-.08-2.62-2-2.48l-1.85-.75v-15.91l2.11-3.43-2.22-3.34c-.44-2.33.71-4.53-1-6.74-1.19-1.54-1.28-3.93-1.85-5.92-1.91.42-3.68-.62-5,.85v6.47l1.94,1.94-4.17,3.22V1450h-3.11l-1.73,2h-3.69l-3.47,2-1.81-.74v-6.85l3-.61,2.81-5.47V1435l-4-1.86a2.86,2.86,0,0,1,0-1.07c1.23-2.49,2.51-5,4-7.82v-4.47c1.17-2.19,2.32-4.38,3.85-7.25v-5.06l2.05-2.45v-14.13l4.09-2.77v-5l-2-2.11V1359l2-2.22V1353l1.94-2.22v-5.45l1.82-2.38v-9.69l-2.1-3.25c.59-.9,1.27-1.93,2.19-3.35v-7.61c-.5-.57-1.15-1.29-1.87-2.09v-7.84l-2-2.18v-3c1.19-.21,2.53.52,3.56-.54a3.81,3.81,0,0,0,.43-.82c.5-1.89-1.58-2.55-1.93-4-.43-1.73.48-3.67-1.4-5.21-.7-.58-.47-2.29-.66-3.48,3.1-.32,5.22.84,6,4v3.16l2.84,2.84H1330v7c2,1.63,3.29,4,5.59,5.12l4-.31c.4-2.18.73-4,1-5.77h2.6a20.36,20.36,0,0,0,3.32,3.38c1.87,1.21.92,3.77,2.74,4.89a12.15,12.15,0,0,1,1.83,1.54h5.41l4.3-2.39,2.6,2.62c1,2.81-.12,4.63,1.55,5.88,1.53.44,3.27-.59,4.87.84v6.27c-.66.86-1.17,1.5-1.36,1.75l4,8-8.79,4.37,4.14,1.44c.12,2.1.24,4.33.36,6.65l7.5,3.41,1,3.1,2.94.68c1.55,4.21-1.81,6.52-2.59,9.26l-3,1V1373l2,2.09v7l-2.34,1.29c1.67,3.32,3.18,6.29,4.8,9.49l-4.46,3.7v4.46l-2,2.13V1410a7.17,7.17,0,0,0-2.67.08c-.61.27-.9,1.25-1.33,1.92h-3l-1.57,1.48c-2.11,1.06-3.93-.3-5.26,1.28-.4,2.16.34,4.61-2,6.21-.38.26.06,1.72.12,2.53l3,.77c1,1.57.89,3.75,2.7,4.82V1433l-1.94,2.14c-.35,1.66.68,3.45-.89,4.76-2.36-1.2-.43-3.55-.84-4.22l-3.36-3.84c-1.43,2.63-1,5.13-.63,7.5l1.62,1.62v6c-.62,1.21-2.66,1.93-1.92,4l2,2.13c-.35,1.54.7,3.3-.87,4.83l-2.7-.12a17.31,17.31,0,0,0-2.45-8c-1.63-2.58-2.06-6-5.13-7.59-1.5,1.31-.68,3.06-.83,4.62-.11,1.31,0,2.65,0,4v4.5c-1.92,1.39-2.71,2.65-1.14,4.8l2.89-.48.74-3.7,3.58.79c-.39,2.7.71,5.07-.74,7.08-2,1-3.08-.38-4.26-1.65-1.83,2.12-4.73,3.37-5.24,6.77,2.77,1.42,5.7,2.46,8.08,4.25,2.63,2,4.74,4.61,7,6.93h3v20.91l-2,2.13V1511l-2,2.09c-.77,2.15,1.33,2.83,2,4.39V1528c1,2.46,1.37,4,2.24,5.25a36.28,36.28,0,0,0,3.91,4v6.27c3.56,1.79,3.59,6.14,6.57,8.29l4.51.52L1377,1556h13.74l7.24,7.25c.27,3.26-.33,6.86,0,8.32L1400,1576h-6.54l-6.88-4H1383c-1.65,1.65-1.42,3.6,1.07,7.18v8c2.07,1.37,4.06.57,5.94.81v4c-1.19.21-2.52-.51-3.78.77v4.42c1.17.58,2.48,1.2,3.76,1.89C1390.12,1599.16,1390,1599.68,1390,1600Z" transform="translate(-714.05 -484)"/><path class="cls-1" d="M2448,1436v3.25l3.44,1.15c1.14,2.13.38,4.43.46,6-.93,1.88-1.62,3.26-2.54,5.1l-3.14,1.13v10.57l1.53,1.53c.16,1.44.32,3,.49,4.54a6.25,6.25,0,0,0,1.79.68c2,.08,4,0,6,0v6.9a25.35,25.35,0,0,1,1.93,2.06c.74,1,2.31,1.4,2.07,3l-5.12,2.44c-.57-1.62-1-2.78-1.54-4.42a15.92,15.92,0,0,0-3.58,0c-1.54.34-1.87-3-3.56-1.31-.24,1.18-.42,2.09-.66,3.26-3.48,0-6.75-.09-10,0s-6.48-.61-10.18.77l4.92,2.28c-2.75,1.37-5.24,1-7.69.59-.45-1.3-.85-2.45-1.3-3.71l-2.75.36c-.48,1.4-.87,2.56-1.25,3.66h-12.2l-2.11-2h-3v-8l3.74-2.14c.81-.17,2.48.75,3.87-.46.13-.6.26-1.19.28-1.25l-8.08-8.15H2398c.26-1.62-2.05-2.13-1.88-3,.54-2.83-1.08-4.76-2.12-7-.22-.56-.45-1.12-.67-1.67-3.82-1.56-6.2,1.85-9.33,2.69v3.51l-2,3.47h-3c-1.37-2.7-2.2-6-4.27-8s-2.47-5.18-4.73-7v-3.9l-2-2.13v-3h2.9l2.33,2.18c1.42-2.72.48-5.53.77-8.18h5.54l3.3,4.08h6.26c1.17,1.26,2.21,2.63,4.3,1.58.38-1,.82-2.16,1.31-3.48h6.87c.2,1,.38,1.9.46,2.3l6.76,9.52h7.63l7.6,4.13c2.8-1.09,3.92-3.69,6-5V1439c1.27-1.71,3.09-.59,5-1.26,1.14,1.48,2.34,3,3.26,4.25H2443c2.13-1.29.33-3.66,1.44-5.4C2445.34,1435.38,2446.78,1436.25,2448,1436Z" transform="translate(-714.05 -484)"/><path class="cls-1" d="M3594,1456c1.66.29,2-1.57,3.17-2a22.36,22.36,0,0,1,2.83-.58l-2-2.85c-.21-2.58,2.08-2.89,2.53-4.36h10.79c.95,1.68.29,4.55,3.47,3.77,2,2.7,5.47,3.34,7.62,5.6,1.64,1.74,4,1.84,5.93,3.83-.67,1.17-1.4,2.47-2.14,3.76.49.25,1.17.9,1.57.75,2.63-1,5-2.46,8.23-3.89h7l7.88,7.88h8L3661,1466h5.91l2.11-2h2l1.46,1.46c.26.17.52.48.79.48,3.3,0,6.6,0,9.64,0,2.51-1.82,2.51-1.82,6.37-2,.63-1.2,1.59-3,2-3.71l8.18-.44c.32-1.24.56-2.14.87-3.35l2.83-.65,2-1.83h3.9l1.74-1.74,4.41-.41,1.62-1.62h14.14l2.08,1.65h3.11c2.87,1,3.49,4.67,6.77,4.15,1.46,2.37,4.79,1.77,6.27,3.92h6.15c.42-1.18.84-2.33,1.38-3.84l2.3,1.76h5.93l2.33-1.94c1.93.82,4.2,1.66,6.35,2.75,2.38,1.21,2.32,1.34,5.66,1.38l1.29,3.77c4.08.54,8.36-.1,13,.38.28,1.73.57,3.57.89,5.59h5.92l2.66,2h4.27c.5-1.33.92-2.48,1.37-3.68,3.27,1.54-.39,4.37,1.2,5.37,1,2.38,1.64,4.12,2.49,5.76.21.41,1.08.49,1.65.73-.67,1.33-1.33,2.67-2,4s-1.33,2.67-2,4h-4c-.35-2.55.66-5.21-.46-7.6l-3.31-1.14c-.3-1.28-.51-2.18-.78-3.35h-8.74c-.54-1.48-.95-2.63-1.36-3.75-1.32-.12-2.61-.65-3.13,1l1.63,2c-1.19,1.49-2.63.62-3.85.87h-2c-.43-.67-.72-1.65-1.33-1.92a7,7,0,0,0-2.67-.08,1.54,1.54,0,0,0-1.37-2,39.69,39.69,0,0,0-4.63,0h-6a1.54,1.54,0,0,0-1.37-2,39.69,39.69,0,0,0-4.63,0c-2.52-.34-3.24-3.08-5.32-4-2.06-.73-2.61,1.66-4.16,2-3.59-1.29-7-2.87-9.45-6h-29.93c-1.48,2.28-4.61,1.86-6.42,3.88-.59.65-2.51.1-3.64.1l-2.27,2h-5.44l-2.4,1.81H3676.2l-16,8.19H3654a4.92,4.92,0,0,1-2,0c-3.87-1.84-7.69-3.79-11.86-5.88h-11.33c-1.41,2.65-4,1.63-5.93,2.11l-2,1.62c-3-2-2.72-6.12-6-7.81-.62,1.35-1.23,2.7-1.9,4.15l-2.56-.52c-1.37-2.62.94-5.58-1.56-7.65H3605c-.76-.69-1.47-1.36-2.2-2h-3.93C3597.48,1459.75,3594.53,1458.88,3594,1456Z" transform="translate(-714.05 -484)"/><path class="cls-1" d="M2342,1390c2,.1,2.44-2,3.91-2.81v-3.9c3.08-1.57,5.8-3.81,9.49-3.64,1.23-2.15.43-4.49.57-6.74.13-2,0-4,0-5.91l1.78-1.78c.11-1.24.25-2.82.4-4.39L2361,1358h5v10.42l3.85,7.11v7.32l2,2v12.4l-3.8,3.8c0,2.45,0,5.09,0,7.72,0,.26.32.52.49.79l1.41,1.41c.19,2.26,0,4.49.12,6.73l-5.15.57c-.4.36-.86.58-.86.8-.05,3,0,6,0,9h-3c-2.8-2.81-5.47-5.81-8.48-8.41-2.76-2.37-3-6.53-6.28-8.19-.35-4-.35-4-2.17-6.37v-3.89L2342,1399Z" transform="translate(-714.05 -484)"/><path class="cls-1" d="M1292,1272c-.2,1.84.47,3.76-.77,6H1282c-.43-.67-.72-1.65-1.33-1.92a7.17,7.17,0,0,0-2.67-.08h-2v-3.12c-3.14-2.31-5-6.47-9.49-7.33-1-2.1-.28-4.37-.54-6.74l-2-1.73V1254a3.92,3.92,0,0,1,3.63,2.82c1.28,4.47,4.53,6.56,8.22,8.14l.61,3a17.82,17.82,0,0,1,4,.07,8,8,0,0,1,2.35,1.45l3.34-1.68C1288.8,1268.94,1289.49,1271.67,1292,1272Z" transform="translate(-714.05 -484)"/><path class="cls-1" d="M2132,638h3l9.89-9.89,2.32-.13c.33-1,.71-2.14,1.16-3.5,2.39-1.17,5.07-.12,7.63-.48v7.1l-3.12,2.75h-5l-5.93,3.29V639l-4.91,4.91-2.1-2H2132Z" transform="translate(-714.05 -484)"/><path class="cls-1" d="M1378,2066a1.54,1.54,0,0,1,1.55-2c1.92-.14,3.85,0,5.4,0,1.65-1.36.8-2.78,1-4h31.8v3.16c-.35.36-.58.81-.81.81-4,0-8,0-12,0-.4.44-.85.93-1.21,1.34a6.49,6.49,0,0,1-1.86.63C1393.93,2066,1386,2066,1378,2066Z" transform="translate(-714.05 -484)"/><path class="cls-1" d="M2120,670c-1.84.14-2.31-1.18-1.92-2.42a16.65,16.65,0,0,1,2.18-3.64c-1.22-2-2.19-3.59-4.26-3.94a1.52,1.52,0,0,1,1.44-2c2.85-.13,5.71,0,8.56,0,0,4.21,0,4.21,2,8a1.7,1.7,0,0,0-2,2h-2.53Z" transform="translate(-714.05 -484)"/><path class="cls-1" d="M1394,1588h5c1.67,2.25.83,4.79.76,7.23L1394,1598c.24-1.6-1.33-2-2-3s-2.24-1.4-2-3l4,0C1394,1590.34,1394,1589.17,1394,1588Z" transform="translate(-714.05 -484)"/><path class="cls-1" d="M1863.21,882.18c-1.21-1.93-3.25-2-5-2.92v-2.47c2.18-1.65,4.55-.14,6.62-1l2.91,5.59C1866.35,882.84,1864.57,881.39,1863.21,882.18Z" transform="translate(-714.05 -484)"/><path class="cls-1" d="M2866,838c0-1.17,0-2.34,0-4l4,0c1.71-.13,2,1,2,3.64l-2.39,2.39C2867,840,2865.87,839.71,2866,838Z" transform="translate(-714.05 -484)"/><path class="cls-1" d="M2787.71,934.17h3.88c.19,1,.37,1.91.62,3.25l-3.74.7C2788.22,936.81,2788,935.92,2787.71,934.17Z" transform="translate(-714.05 -484)"/><path class="cls-1" d="M778.17,746.29v-3.88l3.25-.62c.24,1.24.44,2.36.7,3.74Z" transform="translate(-714.05 -484)"/><path class="cls-1" d="M1884,902v-4h3.43c.21,1,.43,2.14.59,2.93C1886.63,902.6,1885.22,901.76,1884,902Z" transform="translate(-714.05 -484)"/><path class="cls-1" d="M3548,1330h2v3.31l-3,.89C3545.93,1331.19,3545.93,1331.19,3548,1330Z" transform="translate(-714.05 -484)"/><path class="cls-1" d="M1876,883a4.29,4.29,0,0,1-6.06,0A4.29,4.29,0,0,1,1876,883Z" transform="translate(-714.05 -484)"/><path class="cls-1" d="M1326,936h-2v-4c.67.43,1.65.72,1.92,1.33A7,7,0,0,1,1326,936Z" transform="translate(-714.05 -484)"/><path class="cls-1" d="M1324.23,932.56l-2-1.74C1323.93,929.46,1323.79,931,1324.23,932.56Z" transform="translate(-714.05 -484)"/><path class="cls-1" d="M2835,872a6.53,6.53,0,0,1,.63,1.34c0,.17-.41.44-.63.66a6.53,6.53,0,0,1-.63-1.34C2834.34,872.49,2834.78,872.22,2835,872Z" transform="translate(-714.05 -484)"/><path class="cls-1" d="M2090,712v-8h2a7.17,7.17,0,0,0,2.67-.08c.61-.27.9-1.25,1.33-1.92v-2.53l-2-3.47c.23-.56.3-1.41.72-1.63a22.2,22.2,0,0,1,3.3-1.22v-2.4l3.74-1.36,4.13-5.3c0-.88.14-3.1.26-5.56l3.46-.88,3.1-3.65h12.44c1.26-1.52.69-2.82.85-4h3l2.17,2H2139l1.57,1.57c1.37.81,3.72.95,4.41.11,1.82-2.23,4.73-.79,6.11-2.12,2-2,4.18-1.37,6.37-1.64a4.48,4.48,0,0,0,2.51-1.05c1.92-1.93,5.49.4,6.82-2.84h8.1L2177,668c2.72.91,4.71-1.06,7-1.89,2.77-1,3.82-3.06,4.53-5.83h6.68c1.55,1.31.19,3.13.89,4.51L2194,667v4c.52.33,1.21,1.07,1.55.94a33.57,33.57,0,0,1,7.93-2.5c.8-.12,1.48-1.08,2.24-1.67L2210,670c.19,2.11-2.23,2.29-2.6,3.91h-6.15a11.39,11.39,0,0,1-2.2,2,10.34,10.34,0,0,1-2.86.52v2.88l3.57,1.4a2.15,2.15,0,0,1-.22.76c-.2.24-.59.6-.74.54-3.27-1.46-5.16,2.39-8.17,2.07a50.7,50.7,0,0,0-5.63,0l-1.83,1.83h-5.74l-5.32,4.69-3.34-2.52c-.43,0-1.5-.26-1.7,0-1.53,2.36-4.77,1.85-6.39,4-2.42-.49-4.16,1.19-6.21,1.83-2.38.74-5.18.17-8,.17-.24,1.18-.42,2.09-.66,3.24-2.19,1.29-4.71.81-7.62.38-.1-1.59-.2-3.17-.31-4.79-2.12-1.36-4-1.47-6.17.32a19.93,19.93,0,0,1-5.79,2.8,8.57,8.57,0,0,1-2.86,0l-2.27,2.07h-11c-4.29,2-7.69,3.8-9.9,7.36v3.63L2097,712Z" transform="translate(-714.05 -484)"/><path class="cls-1" d="M2608,688c-2.52.14-1.71-2-2.33-3.46l-3.67-1.21V678h3.25c.33-1,.67-2.16.7-2.23l7-7.77H2620l3,6.13h8.79c.15,1.88.28,3.45.4,5l1.63,1.63v6.73l-2.55.61-2.25-2.06-2.1,1.93c-3,.37-3.76-2.38-5.78-3.82h-12.26C2607.38,685.34,2608.25,686.77,2608,688Z" transform="translate(-714.05 -484)"/><path class="cls-1" d="M2562,732v7c-2.43,1.16-2.4,1.12-5.68-1-2.75,0-3.48,2.71-5.29,4-1.91.27-3.28-.12-3-3.06,2-1.54,4.29-3.36,6.57-5.13-2.73-3.19-5.7-.82-8.29-2.31-.12-.68-.27-1.59-.5-2.86l5.57-1c.43-1.19.84-2.35,1.29-3.6l3,.31c.19,1.75.36,3.31.52,4.84,1,1,1.88,1.91,2.78,2.84Z" transform="translate(-714.05 -484)"/><path class="cls-1" d="M2210,670v-3.64l4.29-3.25c-2.31-1.41-4.64-1.79-6.12-4v-4.24c1.18-1.45,2.61-.59,3.83-.84v3l3.17,3h8.43c.18,1.18.32,2.08.45,2.92-3.76,2.41-8.41,3.15-10.92,7Z" transform="translate(-714.05 -484)"/><path class="cls-1" d="M2390,820v4.92l-2,2.13v4l-1.38,1.35a6.18,6.18,0,0,0-.59,1.74c-.07,2.3,0,4.6,0,6.87l2,2.07v2.5l-3.83.55c-.09-2.06-.16-3.62-.22-5.12l-1.9-2.09V827c2.37-2.38,4.67-4.72,7-7C2389.2,819.86,2389.67,820,2390,820Z" transform="translate(-714.05 -484)"/><path class="cls-1" d="M2696,893l-2.11,2.24c.21.83.43,1.72.73,2.9l2.33-2c2.66,2,0,4.78,1.54,7.17l-3.63.91-1.22-3.83-2.86-.61-2.64-2.78v-4.47l2.62-2.45C2693.75,889.63,2694.49,891.92,2696,893Z" transform="translate(-714.05 -484)"/><path class="cls-1" d="M2229,802h2.68l3.88-3.88h3.94l.63,2.65c-2.93,3.55-6.75,4.8-10.47,5.59C2227.43,804.74,2227.6,803.39,2229,802Z" transform="translate(-714.05 -484)"/><path class="cls-1" d="M2573.2,741.8h-2.42c-1.68-2.13-.1-4.53-1.4-7.4l-1.7-2.94c1.85-2.53,3.89-.72,5.18-1.53,1.75,1.42,1,2.83,1.11,4.06a21.5,21.5,0,0,1,0,3.93C2573.87,739.16,2574.55,740.54,2573.2,741.8Z" transform="translate(-714.05 -484)"/><path class="cls-1" d="M2674,898h-3c-2.13-1.53-.26-3.59-1.19-5,2.27-1.55,4.28-.72,6.16-1a39.69,39.69,0,0,1-.05,4.63A1.54,1.54,0,0,1,2674,898Z" transform="translate(-714.05 -484)"/><path class="cls-1" d="M2390,820c-.74-3.2,2.26-5.06,2.87-8.59,1.23,2.76,2.19,4.89,3.1,7,.09.21-.18.57-.28.86C2393.92,820.63,2391.89,819.73,2390,820Z" transform="translate(-714.05 -484)"/><path class="cls-1" d="M2373.83,829.8v5.73l-2.65.6c-1.31-1.75-4.23-2.5-2.84-5.48C2369.73,829.35,2371.43,830.33,2373.83,829.8Z" transform="translate(-714.05 -484)"/><path class="cls-1" d="M2562,732.09v-7.54l3.05-.57c1.44,1.73,1.37,2-.82,5.16l2.08,2.56Z" transform="translate(-714.05 -484)"/><path class="cls-1" d="M2586.12,733.51l2.79-5.49,2.91,2.76v4.36c-2,2.44-1.65-.64-2.51-.84S2587.52,733.86,2586.12,733.51Z" transform="translate(-714.05 -484)"/><path class="cls-1" d="M2576.11,743.5c.72-1.19,1.37-2.11,1.87-3.12a20.16,20.16,0,0,0,.86-2.53c1.89,1.82,1.12,3.69.8,5.54C2578.52,744.49,2577.41,744.06,2576.11,743.5Z" transform="translate(-714.05 -484)"/><path class="cls-1" d="M2590,735.93v3.4l-3.58,1c-.17-1.52-.29-2.62-.45-4.08Z" transform="translate(-714.05 -484)"/><path class="cls-1" d="M2364.29,831.83h-3.88c-.19-1-.37-1.91-.62-3.25l3.74-.7C2363.78,829.19,2364,830.08,2364.29,831.83Z" transform="translate(-714.05 -484)"/><path class="cls-1" d="M2578.41,717.84c-.2-1-.37-1.91-.52-2.7,1.41-1.58,2.73-1.57,4.22,0-.7.63-1.38,1.29-2.12,1.88A11.74,11.74,0,0,1,2578.41,717.84Z" transform="translate(-714.05 -484)"/><path class="cls-1" d="M2581.17,736.58c-1.52-2.69-1.52-4.47-.52-6.24C2582,731.75,2582.08,731.75,2581.17,736.58Z" transform="translate(-714.05 -484)"/><path class="cls-1" d="M3902,1482l1.72.7c.14,1.86,1.19,3.9-.83,5.38s.1,3.88-1.71,5.75h-8.41c-.52,1.44-.93,2.59-1.42,4h-8.56c-.28-.28-.67-.49-.71-.75a18.44,18.44,0,0,1,0-2.45l-3.57-.73c-.27,1.35-.46,2.26-.76,3.74-2.84.88-6.13.28-9.33.38s-6.54,0-9.39,0l-1.9,1.9h-12l-2.1-1.84h-6.09c-.29-.78-1-1.76-.81-2.41.9-2.68-2.65-3.85-2-6.15s-1.56-3.38-2.14-5.4l2.08-3.79c0-.45.14-.94,0-1.09-2.44-2.24-4.91-4.43-8-7.17h-2.64c-1.36-.53-1.69-2.35-3.35-2l-1.85-.76c1.4-1.65,4-1.42,5.06-3.45.83-1.66,1.67-3.31,2.79-5.51v-6.55a41.47,41.47,0,0,1,2.85-5.49A40.33,40.33,0,0,1,3833,1444c2.08-.34,3.24.32,2.93,3.32l-3.89,2.91v4.62l-1.45,1.57c-1.26,2-.34,4.36-.59,6.82l3.66,1.24c.16.79.35,1.7.55,2.67.45.25,1,.79,1.53.8,4.59.07,9.17,0,14,0,.12,1.71.21,3,.32,4.49-.46.63-1,1.38-1.87,2.55v4.18c.27.27.5.7.74.71,2,0,4,0,5.92,0,2.6,2.08.15,5.08,1.45,7.37a5.68,5.68,0,0,0,1.71.64c4.31,0,8.62,0,12.38,0l7.68-4.15c3.25,2.39,7.21,2.35,10.67,4.46L3894,1482Z" transform="translate(-714.05 -484)"/><path class="cls-1" d="M3582,1454v-2h3.27l3.5-4h6.91c0,3.18-2.6,1.2-3.43,2.65a20.14,20.14,0,0,1-2.87,3.35Z" transform="translate(-714.05 -484)"/><path class="cls-1" d="M3820,1474a1.7,1.7,0,0,1-2,2A1.7,1.7,0,0,1,3820,1474Z" transform="translate(-714.05 -484)"/><path class="cls-1" d="M2874,646v8h-8c0-.33.12-.88,0-1-1.33-.76-2.78-1.33-4.06-2.17s-2-2.55-4.1-3.15c-2.73,1.58-4.55,4.41-6.37,5.85l-3.55,1.18c2.2,2.64,5.14.35,7.4,1.55.24.57.47,1.13.7,1.7l-3.38,2H2849l-2.23-2h-3.85l-3.2-3.2v-4.45c-2.33.51-3.09,2.43-4.55,3.51-2.09.42-4.65-.45-6.07,2.13h-6.25l-3.34,4.07h-8.46l-2.14-2h-13.85l-2.13,2H2788l1.81-3.13L2784,654h-6.57l-3.51-2.87c2.29-2.34,5.18-.17,7.5-1.47,1.16-1,.36-2.4.59-3.61h6.93l2.14,2H2798l.75,1.88,4.48.2,1.84-3.7,6.18-.63c1.32-1.15.52-2.54.75-3.75h2c.54.21,1.38.27,1.57.65a21.49,21.49,0,0,1,1.08,3.23l5.35-3V640h10.92l2.12-2c1.51-.34,3.24.67,4.65-.67.3-1.8.6-3.61.89-5.33H2846c0,1.33-.07,2.66,0,4a8.91,8.91,0,0,0,.8,2h7.29l7.58,3.94c2.08.25,4.09-.53,5.9.62.4,1.16.79,2.32,1.16,3.4Z" transform="translate(-714.05 -484)"/><path class="cls-1" d="M2824,714a39.69,39.69,0,0,0-4.63,0,1.54,1.54,0,0,0-1.37,2c-3.5-1.37-5.18-4.82-7.8-6.72-.24-1.19-.41-2.09-.74-3.73-1.88,1.2-3.93-.63-5.46,1.47v3h-5.24c-.36-1.07-.75-2.22-1.22-3.65l-2.74-.55c-2.68-2.68-5.48-5.5-8.31-8.3-2.49-2.48-5.28-4.73-6.4-8.32v-7.9l-1.91-2.15L2780,676h3c3.68,3.49,5.81,4.56,10.44,6,2.95.94,6,1.91,8.39,4.86.1,1.82.23,4.05.35,6.25,1.36,1.55,3.14.5,5,.92.83,1,2.7,2.28,2.67,3.48-.12,3.68,3.58,1.87,4.85,3.81.84,1.29,3.5,1.25,5.27-.3l-3.91-4.13v-4.26l2.95-.95c1,2.31,2.07,4.48,3,6.71a3,3,0,0,1,0,1.44l7,7-4.38,1.49C2823.39,710.08,2824.26,712.11,2824,714Zm-23.28-14.17c-1.3-2.36.09-4.14-1.74-5.86l-3.43.68c1,1.88-.36,3.66,1.25,5.18Z" transform="translate(-714.05 -484)"/><path class="cls-1" d="M2990,698l-2.47-4.93,3.53-1.58,3.07,4.92,2.94-2.31c.32.65.62,1.28.93,1.9-.22.56-.3,1.4-.7,1.62a24.64,24.64,0,0,1-3.43,1.22l2.13,2.24V714c-1.94.94-4.25,1.48-5.71,2.91-1.77,1.73-3.77.52-5.82,1.52-.15.6-.39,1.49-.66,2.53-2.53,1.42-2.53,1.41-3.81-1v-2.91c-1.47-1.63-2.84-3.36-5.33-3.5-.25,0-.45-1-.67-1.59l1.87-.73v-8.51c1.28-.42,2.75-.46,3.43-1.21,1.17-1.3,2.66-1.36,4-2,.38-.17.45-1,.67-1.59h6c.37,1.28-1,3.09,1.17,3.83C2992.05,699.18,2992.05,699.18,2990,698Z" transform="translate(-714.05 -484)"/><path class="cls-1" d="M2850,712h-5.2c-.35,1-.73,2.18-1.12,3.32l-3.6,1.46,1.79,2.21-2.41,2.61c-1.61-.65-3.23-1.2-4.75-2-.41-.21-.48-1.07-.71-1.63,1.22-.25,2.66.62,4-1a40.2,40.2,0,0,0-3.9-3.82,25.22,25.22,0,0,0-4.07-2.1v-2l1.94-2.06c.39-1.59-.62-2.42-1.33-3.52s-.28-2.5-.66-3.68a16.88,16.88,0,0,0-1.68-3c.23-.23.46-.67.7-.67,2.65,0,5.29,0,8,0,2.88,1.75,3.84,4.94,4.9,7.79.64,1.71,1.92,2.51,2.82,3.92l4.56.49C2850.62,709.34,2849.75,710.78,2850,712Z" transform="translate(-714.05 -484)"/><path class="cls-1" d="M2896,735.72l3.64,3.64-3,3c-.92-.51-1.94-1.15-3-1.65s-2.25-.9-3.51-1.39V733.6l-6.09-4.51c.07-.8.15-1.7.25-2.88l5-.36c.37-1.07.76-2.22,1.2-3.46,1.95-.21,2,2.21,3.45,2.32v4.22l2,2.13Z" transform="translate(-714.05 -484)"/><path class="cls-1" d="M2962,728a1.54,1.54,0,0,0,1.37,2,39.69,39.69,0,0,0,4.63,0v8.9c-2.88.93-5.09,3.73-9.5,2.92l-2.43-3v-3.91l3.56-3.56C2960.47,730.28,2959.32,727.79,2962,728Z" transform="translate(-714.05 -484)"/><path class="cls-1" d="M2862,668v4.94c2.05,2.43,3.69.51,5.75-1.82v6.36l4.14,3.18c.48,3.16-1.84,3.85-2.93,5.34h-3c-.32,0-.9.09-.94,0-1.57-4.21-5.17-7.55-5.14-12.5,0-1.62-3-2.56-1.5-4.93C2859.41,667.43,2860.79,668.23,2862,668Z" transform="translate(-714.05 -484)"/><path class="cls-1" d="M2845.84,675.41l2-1.74c4.77,2.47,6.55,6.76,8.59,11.24l-2.68,1.21C2849.36,683.76,2847.79,679.61,2845.84,675.41Z" transform="translate(-714.05 -484)"/><path class="cls-1" d="M2968,730v-7c1.48-1.5,2.81-.78,4-1-.85,2.15-2.86,3.88-2.09,6.65C2970.11,729.35,2969.14,730.22,2968,730Z" transform="translate(-714.05 -484)"/><path class="cls-1" d="M2786.65,675.12c4.86-1.85,7.95-.58,11-.89C2795.43,676.08,2795.43,676.08,2786.65,675.12Z" transform="translate(-714.05 -484)"/><path class="cls-1" d="M2866,670a1.7,1.7,0,0,1-2-2A1.7,1.7,0,0,1,2866,670Z" transform="translate(-714.05 -484)"/><path class="cls-1" d="M2903.77,743.44l2.05,1.74C2904.07,746.54,2904.21,745,2903.77,743.44Z" transform="translate(-714.05 -484)"/><path class="cls-1" d="M2904.23,744.56l-2.05-1.74C2903.93,741.46,2903.79,743,2904.23,744.56Z" transform="translate(-714.05 -484)"/><path class="cls-1" d="M2378.07,1416c1.58-4.82,7.43-3.55,8.27-7.76h5c1.11,1.74.57,3.35.5,4.92L2389,1416Z" transform="translate(-714.05 -484)"/><path class="cls-1" d="M2438,1430a7,7,0,0,1,2.67.08c.61.27.9,1.25,1.33,1.92-.43,2.09-1.93,3.18-3.66,4-2.39,0-3.19-2-4.34-3.45.1-.62.2-1.24.31-1.88C2435.34,1429.38,2436.77,1430.25,2438,1430Z" transform="translate(-714.05 -484)"/><path class="cls-1" d="M2374.23,1432.56l-2.05-1.74C2373.93,1429.46,2373.79,1431,2374.23,1432.56Z" transform="translate(-714.05 -484)"/><path class="cls-1" d="M722,598c2.74.23,1.47-2.37,2.56-3.53,3.41-.4,5.09-3.43,7.2-5.21l.76-3.14h4.59c1.08-1.38,2.31-2.93,3.25-4.12H747l2.52-2.29c.35,2.18.64,4,1,6.06h5.5a14,14,0,0,1,2,1.18c2.37,2.13,4.15,5.06,7.87,5.6v7l-3,.6c-.43-1.27-.83-2.43-1.22-3.59-.47-.71-.91-.61-1.42.23-.67,1.07-2.3,1.46-2.17,3.1.15,2.05-2.82,2.85-2.06,5.14a43,43,0,0,0-4.09,2.16,11.76,11.76,0,0,0-2,2.18c1,2.66,2.72,5.06,2.41,8.24L755,618c1.42-2,1.66-4.79,4.43-6.08,1.18,3.23,0,6.25.76,9.28.08.08.29.48.55.52,1.29.17,2.59.24,4.34.38l3.25-4.12h4.89c.37-1.09.77-2.25,1.2-3.53,1.8-.08,2.3,1.71,3.47,2.45.36,1.58-.41,3.3.54,4.74,2.86.07.33-3.08,2.57-3.27a7.23,7.23,0,0,1,3.43,4.87c.4,1.7,2.95,2.48,3.59,4.6l-2.34,4.72c2.34,2.89,5.37.43,7.65,1.78l1.4,1.4h6.63l1.33-3.76c1.29.87,1.29.87,1,9.32-1,1.31-2.47.42-3.59,1-.32-1.27-.18-2.82-1.93-1.46a17.45,17.45,0,0,0,1.93,1.46,4.71,4.71,0,0,0-.78,1.37c-.41.8-.88,1.57-1.33,2.35-2,.1-2.44-2-3.85-2.78.59-1.43,2.64-2.15,1.84-4.15-.89-1.23-2.46-1.69-3.25-.65-1.55,2-3.5,1.47-5.4,1.58-2.54,1.21-3.2,3.77-4.34,6h-2.1c-1.47,2.36-.93,4.88-.56,7.62l3,.62c1.09,2.27.8,4.77.25,7.52h-8.76l-2.85-5.5V653l-3.68-3.68c-.16-1.42-.35-3-.53-4.55-1.62-1-3.79-.94-4.92-2.79H759l-2.43-2.09-.74,2.9,4.15,4.35c-.35,1.63.7,3.42-1,4.85-1.58-1.82-1.31-5-4.52-5.75-.28,1.63-.59,3.46-.89,5.24l-3.5,1.23c0,.87-.07,1.52-.12,2.41l3.21,2.76h5.74l2-1.71c2.15-.1,4.42-.64,6.62.37.4,1.43-.56,1.46-1.5,1.48s-2,0-3.29,0c-.36,1.06-.74,2.22-1.21,3.61l-5.51.82c1.22,2.94,4.15.47,5,1.83,1.27,2,3.81,1,4.94,2.74v5c-2.37,0-2.7-2.66-2.79-2.69-3.82-1.83-6.11-1.18-8.33-1.29s-4.59,0-6.88,0a1.7,1.7,0,0,0-2-2v-6.92l2-2.14V649l-2-2.19v-4.3c-3.39-.78-1.33-3.77-2.16-5.76-1.06-1.46-3-2.19-3.41-4.17l2.2-2.2c-3.35.23-4.86-1.79-6.69-3.46-2.17-2-2-5.56-4.91-7h-3a1.7,1.7,0,0,0-2-2v-4.91l2-2.07-2-2v-3.53c-.77-1.31-1.42-2.34-2-3.42C723.3,600.7,722.67,599.34,722,598Z" transform="translate(-714.05 -484)"/><path class="cls-1" d="M765,645.85c1.31,1.64,1.38,2.74.29,3.91C763.12,648.93,763.71,647.66,765,645.85Z" transform="translate(-714.05 -484)"/><path class="cls-1" d="M2752,674c.21,1.21,0,2.81.71,3.55,1.7,1.79,1.86,3.16,0,4.81-.4.36-.47,1.08-.69,1.64h-8c.6-1,1.2-2.09,1.68-2.91-.82-1.6-1.65-3.2-2.56-5h-6.37c-.62-.93-1.5-2.26-2.75-4.12v-2a1.7,1.7,0,0,0,2-2l4,0c0-1.64,0-2.81,0-4,.56.22,1.52.35,1.6.69a47,47,0,0,1,.67,4.87l3.2.71,3.31,3.73Z" transform="translate(-714.05 -484)"/><path class="cls-1" d="M2718,666h4v2.92l1.93,2c-2,2.53-4.77,0-6.71,1.22-1.84-1.53-1.17-3.23-1.16-4.72A1.5,1.5,0,0,1,2718,666Z" transform="translate(-714.05 -484)"/><path class="cls-1" d="M2744.56,683.77l-1.74,2.05C2741.46,684.07,2743,684.21,2744.56,683.77Z" transform="translate(-714.05 -484)"/><path class="cls-1" d="M2538,622c-.85,2.15-2.86,3.88-2.09,6.65.2.7-.77,1.57-1.91,1.35h-2.9c-1.83,1.17-2.66,3.61-5.1,4,.18-2.6-2.14-1.62-3.38-2.35-1.43-2,0-4.32-1.21-7.27l-3.49-2.76L2520,618l.74-1.5c2.23.58,2.64,2.87,4.71,3.12,1.08-2.16.32-4.41.49-6L2528,610h4l2.44,3.51c2.35.93,4.17-.26,5.77,1.81L2538,620c-1,0-2,0-2.94,0-.25,0-.71.47-.67.61.12.48.37,1.24.68,1.3A16.81,16.81,0,0,0,2538,622Zm-9.07-5.63c-1.22,9.24-1.18,9.24.58,9.3C2530.34,623.23,2530.29,620.8,2528.93,616.37Z" transform="translate(-714.05 -484)"/><path class="cls-1" d="M2516,616c-1.23-.27-2.43.27-3.76-.62A83.1,83.1,0,0,0,2504,611v-6l10-5.08,4,2.08h2a8.49,8.49,0,0,1-1.16,4.42c-1.29,2.29-3.51,4.48-2.84,7.58Z" transform="translate(-714.05 -484)"/><path class="cls-1" d="M2526,634v3l-2,2.16,4,1.87c0,.83-.07,1.47-.1,2.1l-2.66,2.67h-7c-.14-1.78-.26-3.34-.38-5L2514,639c1.49-1.67,3.25-.64,5.28-1.09l3.26-3.88Z" transform="translate(-714.05 -484)"/><path class="cls-1" d="M2130,666h4c.14,1.88-1.14,2.11-2.48,2A1.55,1.55,0,0,1,2130,666Z" transform="translate(-714.05 -484)"/><path class="cls-1" d="M1254,1242c2.88.54,3.77,3.49,6,4.92v2.1l4,1.89V1254h-5a17.43,17.43,0,0,0-1.85-3.75,19,19,0,0,0-3.15-2.67Z" transform="translate(-714.05 -484)"/><path class="cls-1" d="M1240,1218c.33,0,.88-.12,1,0,.76,1.33,1.31,2.8,2.18,4A23.93,23.93,0,0,0,1246,1225v3.9l2,2.18v3c-2.15-.37-3.16-1.93-4-3.72-1.18-2.51-2.42-5-4-8.21Z" transform="translate(-714.05 -484)"/><path class="cls-1" d="M1236,1214l4,0c0,1.64,0,2.81,0,4A4.91,4.91,0,0,1,1236,1214Z" transform="translate(-714.05 -484)"/><path class="cls-1" d="M1250,1236c1.35.18,3-.6,3.78.79L1252,1240c-.67-.43-1.65-.72-1.92-1.33A7.17,7.17,0,0,1,1250,1236Z" transform="translate(-714.05 -484)"/><path class="cls-1" d="M1234,1208a1.54,1.54,0,0,1,2,1.37,39.69,39.69,0,0,1,0,4.63,1.54,1.54,0,0,1-2-1.37A39.69,39.69,0,0,1,1234,1208Z" transform="translate(-714.05 -484)"/><path class="cls-1" d="M1304,1278h3.4c.25,1,.54,2.1.93,3.62l5.09.72c1,1.89.38,3.82.58,5.66h-5.09l-4.91-4.91Z" transform="translate(-714.05 -484)"/><path class="cls-1" d="M1292,1272c.23-.56.37-1.55.7-1.61a47.84,47.84,0,0,1,4.83-.48c.25,1.27.42,2.17.69,3.52l5.14.91c1.23,1,.4,2.44.64,3.66h-2.94l-2.1-2h-2.23c-.34-1.07-.71-2.21-1.09-3.38C1294.61,1271.42,1293.21,1272.24,1292,1272Z" transform="translate(-714.05 -484)"/><path class="cls-1" d="M1314,1288a7,7,0,0,1,2.67.08c.61.27.9,1.25,1.33,1.92a7,7,0,0,1-2.67-.08C1314.72,1289.65,1314.43,1288.67,1314,1288Z" transform="translate(-714.05 -484)"/><path class="cls-1" d="M2676.83,913.42c1.52,2.69,1.52,4.47.52,6.24C2676,918.25,2675.92,918.25,2676.83,913.42Z" transform="translate(-714.05 -484)"/><path class="cls-1" d="M848,690c.67-.43,1.65-.72,1.92-1.33A7.17,7.17,0,0,0,850,686h3.25c.36,1.08.76,2.24,1.15,3.4,2.51.77,4.92,1.7,5.83,4.06,5.11,2.2,8.81-2,13.56-1.88v-8.16c3.19-5.08,3.85-6.67,4.29-10.63l-5-2.68c1.58-1.74,2.22-2.43,3.3-3.61l-4.78-3.37,6.11-3.15H883l2.13-1.89c1.62,1.38.58,3.17.93,4.77-.65.69-1.31,1.41-2,2.17V673l2,2.18V679l5.64,3.23a48.21,48.21,0,0,0,.69,5c.08.35,1.06.49,1.63.72v7c2.5,1,2.5,1,4.93-.91h4c2.29,1.09.34,3.54,1.3,5.13,1.13,1.88,3.1,3.61,3.32,5.57.25,2.19,2.19,3.13,2.49,5.27L908,714c-1.9.26-3.94-.62-5.9.81l1.76,2.15L902,719.07l4.16,1.95-.75,3.12-2.38-2c-2.39,2-.16,4.92-1.34,7.18A5.68,5.68,0,0,1,900,730c-2.66.07-5.33,0-8,0-2,.16-2-1.24-2-2.73l1.93-2.29v-3.9l-3-3.62c-1.35.74-2.8,1.15-2.82,1.61a5.28,5.28,0,0,1-1.51,3.44c-.73.88-.88,2.26-1.26,3.34l-2.22.16L879,724h-5.88c-4.53-3.4-4.27-10-9.16-13v-6.31l-3.47-1.23c-.4-1.16-.81-2.32-1.19-3.44H855l-7-7.18Z" transform="translate(-714.05 -484)"/><path class="cls-1" d="M824,656v-7c-1.48-1.5-2.81-.78-4-1a1.7,1.7,0,0,0-2-2v-4h3c1.77-1.52-.42-1.91-.76-2.74v-5l5-.51c1.5-1.33.45-3.11.76-4.48.51-1.33,2.33-1.66,2-3.32V614c.67-.43,1.65-.72,1.92-1.33A7.17,7.17,0,0,0,830,610a1.7,1.7,0,0,0,2-2h5l2.19,2h4.14c.41,1.14.81,2.3,1.33,3.78l4.71.3c.68-1.14,1.69-2.86,2.36-4h7.64l3,2.76c-2.67,1.87-5,.8-7.58,1.16l-1.21,3.59-2.83.58-3.38,7.48-4.58.53c-1.47,1.42-.4,3.18-.78,4.79l3,2.83,2.1-1.8h6.05l7.32,7.81,5,.23,2.63,3.28v3.31l2.37,3.61-2.88,3.23c-2.79,1.28-5.78-.16-8.76.73-.5-1.43-.67-2.76-1.36-3.71a28.9,28.9,0,0,0-3.46-3.45V641c-.78-1.12-1.93-.77-1.89.17.1,2.41-.78,4.2-2,6.24-.84,1.48.2,3.74-1.7,5.33-.72.61-.41,2.44-.67,4.45l4.64,3.17L850,663.08l4,1.89c0,.82-.07,1.47-.11,2.33-2.72,1.46-5.75.16-8.53.86-.85-.74-1.57-1.38-2.39-2.11h-3.83L837,664h-5v-3l-5.33-2.7c-.23.56-.45,1.11-.67,1.67-.67-.43-1.65-.72-1.92-1.33A7.17,7.17,0,0,1,824,656Zm18-2.53,3.19.57c1.4-2.54.58-4.85.81-7.2-1.61-.81-2.32-2.64-4.67-3.06-1.86-.34-3.36-2.66-4.61-3.74-2.55-.18-2.72,1.07-2.73,2.1l8,7.88Z" transform="translate(-714.05 -484)"/><path class="cls-1" d="M868,546a1.7,1.7,0,0,1,2,2v3l2,2.12c-1.29,1-2.05,2.58-3.51,3-.85-.27-1.6-.29-2-.68-2.85-2.74-5.63-5.57-8.45-8.39v-4.18a21.86,21.86,0,0,0,3.26-1.2c.41-.23.49-1.08.72-1.64h2a1.7,1.7,0,0,0,2,2,7.17,7.17,0,0,0,.08,2.67C866.35,545.28,867.33,545.57,868,546Z" transform="translate(-714.05 -484)"/><path class="cls-1" d="M848.61,596H851l2.84,2.86a10.2,10.2,0,0,1-.25,4.9H842.74c-1.45-1.29-.4-3.07-.74-4.61,1.1-1.84,3-.79,4.4-1.21C847.13,597.73,847.66,596.87,848.61,596Z" transform="translate(-714.05 -484)"/><path class="cls-1" d="M863,568c-1.24-1.63-3.86-2.61-2.84-5.22.52-.4.76-.75,1-.76,3.26,0,6.53,0,9.79,0,.23,0,.47.41.7.63-.06,2.59-.06,2.59-2.79,5.34Z" transform="translate(-714.05 -484)"/><path class="cls-1" d="M870.11,580.89,867,584a14,14,0,0,0-3.52.07,10.37,10.37,0,0,0-2.73,1.73c-1.31-1.64-.49-3.3-.72-4.83l2.79-2.79h6.77C869.79,579.19,870,580.08,870.11,580.89Z" transform="translate(-714.05 -484)"/><path class="cls-1" d="M868,622h-4a1.7,1.7,0,0,0-2-2v-2l3.47-2H868Z" transform="translate(-714.05 -484)"/><path class="cls-1" d="M3250,484l2.68,5.5,2.51.89A15,15,0,0,1,3261,498h1.94c.72.69,1.43,1.35,2.14,2H3269c1.78-1.08.43-4,2.76-4.75.18-1.56.36-3.11.53-4.61,1.56-1.22,3.24-.49,4.8-.61s3.28,0,4.92,0c.23.57.47,1.14.73,1.76l4.88.56.61,2.93c1.2,1.47,3,.43,5.59,1l4.63,5.34,3.6,1.14c-.81,1.13-.81,1.13-5.35,1.61A18,18,0,0,0,3296,506a3.5,3.5,0,0,0,0,1c.25.25.49.69.73.69,3.29.05,6.58,0,9.72,0l2.57,2.2h3.64c3.32,2.11,4.18,5.54,5.47,9.09-.81.33-1.68,1-2.41.92-1.82-.3-2.89-2.34-5.2-2-1.24.15-2.63-.94-3.95-1.47-1.05,1.53-.44,3.16-.42,4.75,1.32,1.56,3.11.51,4.86.89l7.29,7.77h10.91a9.2,9.2,0,0,0,.71-.85c-.91-1-1.86-1.91-2.8-2.85l-1.94-.12c-1.37-.82-1.43-2-.72-3.69,2.65-.93,5.66.18,8.37-.44l2.61,2.44,5.13-2.55,4.74,6.19h9.54l2.21,2.06h4a4.41,4.41,0,0,0,4.08,2.13c1.23,2.06,3.23,1.86,5.23,1.9,1.61,0,2.18,2.42,4.18,2a3.8,3.8,0,0,1,4.26,1.88h20.06c.1-.07.38-.22.63-.4,3.28-2.41,7.17-3.63,10.75-5.44.78-.4,1.93-.06,2.64-.06l2.36-2c.77.11,1.68,0,2,.34,1.17,1.41,2.58,1.7,4.33,1.77,1.15,0,2.26.9,4.37,1.82h12.8L3441,536h3.91l2.16-2H3451l2.08-1.88h12l1.62,1.62c2.78,0,5.68,0,8.58-.08.26,0,.47-1.06.71-1.63h6.41l7.13,3.85h11.27c1.9,1.67.85,3.45,1.23,5.18l11,10.63,7,3.16V559l2,2.15c0,.69-.06,1.34-.1,2-3.68,2.33-8.48,2.86-10.72,6.9h-5.4c-1.88,1.65-4.59,1.76-6.49,3.59-1.58,1.52-4.94-1.21-5.79,2.5h-16.6l-1.83,1.83h-7.84L3465,580h-3.85l-2.19,2c-1.1,0-2.36-.25-3,1.79h8.59l5.44,5.09V593l-5,5c-.64,0-1.5-.27-1.93,0a19.69,19.69,0,0,0-2.85,2.78,17.58,17.58,0,0,1-11.65,5.62c-2.18,4,3.07,4.36,3.47,7.09-.13.61-.05,1.45-.42,1.8-2.08,1.95-3.6,4.57-6.88,5.07-1.13.18-2.07,1.56-2.77,2.12v4.53L3439,630H3437l-3.48,3.75c-3.48.64-7.1,0-10.64.43l-3.68,3.68H3413c-2.37-.79-2.42-3.79-3.93-5.79h-7.91l-2.19-2h-3c-2-.31-3.23-2.42-5.41-2.48-.21,0-.39-1-.59-1.52a1.7,1.7,0,0,0-2-2c0-1.33.07-2.66,0-4a6.41,6.41,0,0,0-.66-1.72c-2.5-.27-5.11-.2-7.06-2.38L3372,620c-1.21-.24-2.41.31-3.68-.59a58.27,58.27,0,0,0-10.48-5.31c-1.34-.57-2.92-.18-4.35-1.41s-3.46-1.17-4.68-2.69H3340a1.7,1.7,0,0,0-2-2,1.54,1.54,0,0,0-1.52-2c-1.91-.14-3.83,0-5.48,0l-1.75-1.75-2.58,1.6c-2.18.17-4.1.25-6,.55-.31,0-.46,1-.69,1.6h-2l-3.37-2c-2.4,0-5,0-7.67,0-.23,0-.46.43-.7.67-.33,1.12-.67,2.25-.78,2.62-2.8,1.38-5.23-.34-7.7,1.8,3.69,1.71,7.7,2.59,10.33,6.13l-5.62,3.78L3305,626h3a1.7,1.7,0,0,0,2,2,1.54,1.54,0,0,0,1.48,2c1.89.15,3.8,0,5.52,0l2,2h11c.24.57.37,1.55.72,1.63a40.07,40.07,0,0,0,4.62.65l2.52,2.73-1.78,2.25c.85.31,1.44.51,2,.74s1.13.51,1.59.72c1.64,3.61-1.77,5.85-2.26,8.87-1,.92-3.64-.32-3.41,2.41h-2c-.23-.57-.46-1.13-.83-2H3319l-1.78-1.78h-12.53c-.49,1.36-.91,2.51-1.3,3.58l-2.53.27-3.26-4h-10.53l-2.14-2h-21.77c-1.87-1.13-2.7-3.6-5.14-4,.23-.56.38-1.56.69-1.61,2.44-.4,4.9-.63,7.76-.95l-7.44-7.38c-1.73-.36-3.73.54-5.34-1.26-.72-.81-2.2-.91-3.29-1.44s-2.08-1.18-3-1.7c-1.07,1-1.77,1.68-2.45,2.34H3240c-.23-.56-.45-1.12-.7-1.74-2.3-1.08-5.2,1-7.42-1.38.17-.82.34-1.71.49-2.46,3.33-1.1,6.72.54,9.69-1.31-.3-.32-.51-.75-.73-.75-4.19,0-8.37,0-12.67,0-.68,1.26-2.76,1.66-2.66,3.67h-6.33l-5.58,2.9,1.92,2.18-3.17,2.83c-2.55.86-5.93-1-8.88,1.08,2.41,2.19,5.41-.11,7.64,1.61,0,.24.15.65.08.68-1.94.94-3.9,1.84-6.08,2.85a12.74,12.74,0,0,0-3-2.06c-1.46-.5-3.31.56-4.4-.81-.24-1.16-.43-2.08-.63-3.07h-5.23L3189,640c-1.08-1.18-2.1-2.58-4.05-1.92l-2,1.83c-1.71.4-3.51-.65-4.79,1-.06.08.27.45.43.72l5.4,1V645l-5.2,2.68L3175,644H3169c-.78.7-1.51,1.36-2.27,2.06h-3.92L3160,652c-1.84.2-3.76-.48-5.74.64-.07.74-.16,1.62-.25,2.47l5.37,2.59c1.1-1.94.42-3.86.62-5.7h14.88c1.79,2.11,4.73,3.38,5.28,6.66l-3.09,3.43c-5.65,0-10.91,0-16.16,0-.24,0-.47.44-.56.53l-1.14,3.39-2.62-.21c-.23-.8-.49-1.67-1-3.37l-3.61-3V656l-.81-2a51.64,51.64,0,0,1-5.69,0c-1.84-.2-4,1-5.3-.71-.25-1.2-.44-2.1-.71-3.43l-3.19.75c-.38,1.5-.6,2.39-.84,3.33H3131c-1-.6-1.8-2.44-4-1.78l-2,1.81L3123,652H3118c0-1.17,0-2.34,0-4l-4,0h-2.78l-2.93-2.22a45.68,45.68,0,0,1-4.64,2.15c-.38.14-1.05-.55-1.46-.79-.21-1-.39-1.92-.6-2.92l-3,1.5-1.29-3.66h-12.12l-2.37-2.18c-1.32.7-3.12-.71-4.48.74-.4,1.17-.78,2.27-1.25,3.66l-4.33-8.62-4.53,2.21c-.14-1.86-.26-3.43-.49-6.64l-4.21-2.21c.66-1.46,1-2.29,1.16-2.58,1.94-1,3.77.38,5.07-1.16V618.6l-3.65-1.28c-.05-.87-.08-1.52-.16-3.08l-6.3-5.12c.49-1.4.8-2.27,1.09-3.12,1.21,0,2.35.32,3.17,0,3.92-1.8,7.76-3.79,12.4-6.1h4.93c.29-.71.53-1.28.76-1.85h6.57l3.43-2.87V592h2c.28,2,1.74,2.87,3.27,3.81.59-1.33,1.17-2.61,1.7-3.81,1.16,0,2.1,0,2.72-.06.62.89,1.17,1.95,1.75,2,1.46,0,3.15.71,4.46-.79-1.65-2.13-4-.73-6.21-1.18a4.94,4.94,0,0,0,1-1.59c.41-.8.88-1.57,1.33-2.35h5.2c1.6-3.43,5.62-3.74,8.44-6.15h13.51l1.55-1.56c2.33-1.19,5.3,1.11,7.41-1.38,1.77-2.09,5.54.56,6.8-2.87h4l2.18-2h7a1.51,1.51,0,0,0,1.48,2c4.17.11,8.35,0,12.52,0h2c4.67,0,9.33,0,13.89-.28.32,1.27.18,2.82,1.93,1.46a17.45,17.45,0,0,0-1.93-1.46A7.67,7.67,0,0,0,3190,574h2a1.7,1.7,0,0,0,2-2h14a1.55,1.55,0,0,0,1.52,2c1.34.15,2.62-.08,2.48-2,1.21-.24,2.61.58,3.75-.75-.31-2.8,1.29-5.17,2.54-8.08l-5.88-5.22H3209l-2.16-2h-20.17l-3.34-4h-14.26l-2.11-2h-5.91l-2.13,2H3155l-2.11-2H3144v-2a1.54,1.54,0,0,0,1.95-1.37A39.69,39.69,0,0,0,3146,542h2l4,0c0-1.64,0-2.81,0-4h5l1.9,1.9a63.93,63.93,0,0,0,7.44,0L3172,537v-1.93l4.4-4.63-2.07-3.79c1.4-1.39,3.16-.33,4.71-.7l1.41-1.41a22.31,22.31,0,0,0,10.63-4.41h8.1c.74-1,1.68-2.36,2.87-4-.17-.36-.49-1.89-.93-1.92a4.37,4.37,0,0,1-3.93-2.23H3191c-1-1.26-2.56-2-2.9-3.09-.25-2.72,1.75-3.25,2.7-4.71h6.43l1.71,1.71h7.8L3209,508h13.83l2.2,2.06h3.27l5.51,2.83,2.93,2.93,5.11.56c.07,1.6.14,3.17.21,4.76,2.89,3.54,4.24-2.53,7.15-.89.29.85.69,2,1.09,3.13.24.22.48.64.72.64,3.33,0,6.66,0,10.21,0,.38,1.12.79,2.29,1.19,3.45,2.36,2,3.36-.71,4.61-1.47,2.24.12,4.1-.3,5.76,1.59.8.91,3.62,0,4.44.94,1.44,1.61,3.8,1,5,2.7,1,1.42,2.94.61,4.23,2,1.14,1.26,3.53,1.18,4.63,2.61,4.12,0,8.1,0,12.07,0,.24,0,.47-.44.72-.69-2.83-1-5.09-3-8.42-3.36-2.53-.26-4.83-2.7-7.23-4.16.77-1.53,1.41-2.82,2.12-4.24l-5.66-3.07c-1.32,1-.43,2.48-.69,3.71h-6.93c-2.21-1.91-.83-3.32.76-4.82l-5.38-3.26h-5.57c-.73-1.43-1.46-2.78-2.1-4.16-.52-1.1-.94-2.25-1.4-3.38l-2.68-.68c-.91-1.6-.91-3.71-2.72-4.83v-3.82a12.85,12.85,0,0,1-1.93-2.28,11.93,11.93,0,0,1-.66-2.92h-8.65c-1.59-2.36.57-5.61-2.53-7L3247,484Zm-23,78h10l1.53,1.42c2.83,1.51,3.38-.91,4.77-1.39,2.95-.31,5.95.6,9-.88l-3.45-3H3245c-1,.66-1.83,2.45-4,1.78l-2-1.9h-3.43l-6.81-3.88h-9.55l-3.28,2.87,5.72,2.92,3.58.27Zm104-22,2.15,2H3337c.78.72,1.5,1.37,2.33,2.12,1.42-.64,3.24.63,4.53-1,0-.65.11-1.29.17-2l-2.76-3.3h-7.77L3326,533.8h-5.2l-1.6-1.6c-10.3-.27-10.3-.27-11.09.94,2,1.8,4.4.5,6.74.89l2.17,1.91h4.18l3.34,4.06Zm3-9c-.22-.22-.49-.66-.66-.63a6.53,6.53,0,0,0-1.34.63c.22.22.49.66.66.63A6.53,6.53,0,0,0,3334,531Z" transform="translate(-714.05 -484)"/><path class="cls-1" d="M2900,636h-11.62l2.21,7.09,6.69,6.14-6.58,1.07-1.53,1.53h-8.42c-1.33-1.94-.5-4-.75-5.83h4c1.19,2.06,1.19,2.06,4,1.14-1-1.77-2.61-.91-4-1.14,0-1,0-2,0-3l-1.78-1.89c-.29-1.19-.51-2.08-.57-2.34l-5.29-2.73-4-.28L2869,630h-3.14l-19.79-10a32.38,32.38,0,0,0-4.59,0c-1.52.21-2.17,2.07-4.13,2.06-2.13,0-.86,2.68-2.14,3.78A23.07,23.07,0,0,1,2826,630l-3.47,2H2820l-3.39-1.92c-1.93.32-4.54-1-6.61.95v3h-3c-.33-.53-.89-1-1-1.59-.24-1.93.29-4.23-.59-5.75-1.57-2.7-2.41-6-5.9-7.78l2.48-5c-.09-.46-.05-.87-.24-1.06-2.57-2.61-5.17-5.2-7.78-7.8v-2c-1.2-1.78-3-.79-4.57-1.06-1.48,1.17-3.09,2-3.57,4.28-.29,1.42-1.82,2.57-2.69,3.71H2775l-1.79-1.79h-7.85l-3-2.54-3.74,2.15h-7.89c-1.41-1.66-.31-3.36-.78-4.75l2.85-2.85,3.2-.65c0-2.15.05-4.1,0-6-.08-2.22.49-4.44-1.66-6.38-1.28-1.14.56-3.88-1.5-5.32s.25-4-1.45-5.37-1.19-4.39-3.38-5.62c.4-2.45-1.82-3.28-3-4.79h-2.16a46.18,46.18,0,0,0-4.11-4.18A38.65,38.65,0,0,0,2734,559v-2.2l-3.68-1.32c-.49-.65-1.7-2.21-2.63-3.42H2724c-2.77-1.45-5.88-2.36-8-5V541.1c-2.25-1.19-1.67-4.08-3.47-5.6s-3.25-3.19-4.48-4.42a4.15,4.15,0,0,1,2.51-4.53c3.5-1.92,7.23-3.42,10.92-5.1l2.88-6.84,9.2-9.2c.2-.81.41-1.72.61-2.56l5.55-2.87H2743l2.17-2h5.47l2.63-1.93h5.69l1.92-1.92h7.56a7.64,7.64,0,0,1,6.43-2.14l2.19-2h7.86c.75-.7,1.48-1.36,2.16-2h12l1.48,1.47c1.8,1.2,3.87-.12,5.72.56l23.37,11.79h7.25l2,2h10.42l2.78,4.12h6.8L2861,510c.61,0,1.68.26,1.87,0,1.53-2.37,4.79-1.85,6.41-4h4.37l5.76-5.8c2.08-.12,3.08.09,3.33-.24,1.62-2.21,4.89-1.67,6.43-4h5.51c3.84-2.89,9-2.16,12.15-5.83h10.07L2919,492h9.64l6.92-4h5.72c.42-1.18.84-2.33,1.33-3.71h8.59c1.7,2.13.07,4.56,1.34,7.34l2.66.49,1.43-4c1.92,1.47,1.52,4.32,3.69,5.29s4.31,1.4,5.53,3.58c.1,1.55.2,3.13.31,4.89h7l1.85-1.85h8.48c.33-2.17.62-4,1.12-7.28l5.6,7.43h4.83l3.77,3.77h5.65c1.47,2.18,2.84,4.23,4.12,6.12h7.78l6.92,3.77h11.61c.47-.33,1.45-1.51,2.54-1.63,1.51-.17,2.21-1.26,3.31-1.77s2.61-.07,3.83-.42c.86-.25,1.54-1.13,2.47-1.86H3057L3059,510h15.27l5.6,2.93v5.85l4.09,4.31v3.33c-2.66,3.52-3.17,8.75-7.17,11.66a91,91,0,0,1-12.36,7.88h-7.32l-2.21,2.06h-6.21c-2.37,4.6-8,4.62-11.61,7.71-.8.68-2.54.26-4.78.41-1.44,1.67-3.36,3.92-5,5.78h-6.46l-1.7-1.7h-24.47c-.27.65-.5,1.22-.74,1.79-.24,1.22.6,2.63-.76,3.76a39.24,39.24,0,0,0-4.54.63c-.34.08-.47,1.05-.7,1.61-1.66.3-2-1.5-3.12-2h-4.67l-3.12,4.22c-3.48-1.74-5.08,1.69-7.62,1.74-1.54-.34-2.09-2.72-5-1.69l-2.59,2.46c.41,2.15-.59,4,1,5.12,4.32.35,8.57-.19,10.82.08l4.33,2v2h-5c-3.12,1.61-2.82,5.76-6.14,7.94H2956.5c-.25,1.18-.45,2.09-.77,3.61l-5.5,3.61c0,.21-.23,1.12-.43,2.06-1.41,1.2-3.86.7-4.79,2.77-3.2,0-3.84,2.32-5.2,4.61-1.26,2.11-1.36,5-3.81,6.42v4.61l-4,4c0,.29-.1.92-.21,1.84l-2.9.73c-.46.42-1.17,1.09-1.89,1.77h-16l-7,7.06V636Z" transform="translate(-714.05 -484)"/><path class="cls-1" d="M3128,560h-4c-1.5,0-3,.23-4.28-1.14-.92-1-2.51-1.27-4.17-2L3118,552h14.86l2.47,2.25h3.92L3141,556h3.93l2.12,2H3151l2.13-2H3158c.26,2,2,2.88,3.32,4H3170c-.23.57-.47,1.14-.84,2h-11.93l-3,2.25a10.16,10.16,0,0,0-2.45-1.44c-2.71-.67-4.6-3.59-7.8-2.85l-.75-1.85h-14.5Z" transform="translate(-714.05 -484)"/><path class="cls-1" d="M2739.73,622c.08,1.45.13,2.34.18,3.17-2.18,1.62-4.52.51-6.41.79l-2.64-3.5A2.39,2.39,0,0,1,2732,622C2734.53,622,2737.07,622,2739.73,622Z" transform="translate(-714.05 -484)"/><path class="cls-1" d="M2725,616h2.41l.67,3a5.33,5.33,0,0,1-5.7.36C2722.55,617.73,2724.19,617.18,2725,616Z" transform="translate(-714.05 -484)"/><path class="cls-1" d="M2844.29,720.71,2847,718l2.9,2.9C2848.24,723.35,2846.13,720.9,2844.29,720.71Z" transform="translate(-714.05 -484)"/><path class="cls-1" d="M2722.29,631.83h-3.88c-.19-1-.37-1.91-.62-3.25l3.74-.7C2721.79,629.19,2722,630.08,2722.29,631.83Z" transform="translate(-714.05 -484)"/><path class="cls-1" d="M2810,716l4,0c0,1.64,0,2.81,0,4A4.91,4.91,0,0,1,2810,716Z" transform="translate(-714.05 -484)"/><path class="cls-1" d="M3284,524c2.05,1.18,2.05,1.18,1.17,3.83C3283,527.09,3284.37,525.28,3284,524Z" transform="translate(-714.05 -484)"/><path class="cls-1" d="M2740,662h-2c-.07-1,.13-1.86,1.32-1.59C2739.65,660.49,2739.78,661.45,2740,662Z" transform="translate(-714.05 -484)"/><path class="cls-1" d="M3152.23,538.56l-2.05-1.74C3151.93,535.46,3151.79,537,3152.23,538.56Z" transform="translate(-714.05 -484)"/><path class="cls-1" d="M3002,594h5c2.19-3.09,5.69-4.39,9-6l4.28,2.24,2.88-2.17h5.91l2.9,2.9v6c-.62.65-1.33,1.32-1.95,2.08-.16.2,0,.64,0,1h-13l-1.28,1.37a6.35,6.35,0,0,1-1.82.6c-5.65,0-11.29,0-16.87,0l-3.14-3.14a21.2,21.2,0,0,1,2.57-.84c1.43-.29,3.54.73,3.57-2A1.7,1.7,0,0,0,3002,594Z" transform="translate(-714.05 -484)"/><path class="cls-1" d="M2880,646h-6l-2-3.46a8.06,8.06,0,0,1,5.33-.24C2878.07,643.62,2880.11,644,2880,646Z" transform="translate(-714.05 -484)"/><path class="cls-1" d="M3000,590h2c2.23,0,2.23.08,4.06,1.33a21.44,21.44,0,0,0-3.42,1.12c-.38.18-.44,1-.64,1.55h-2Z" transform="translate(-714.05 -484)"/><path class="cls-1" d="M1338,1516h-3.22a14.84,14.84,0,0,0-1.21-3.34,16.82,16.82,0,0,0-2.76-2.84c-1.12-1.07-1.13-2.19-.12-3.61h8.53c1.5,1.18-.33,1.43-.43,1.78a8.23,8.23,0,0,0-.76,2.06C1338,1512,1338,1514,1338,1516Z" transform="translate(-714.05 -484)"/><path class="cls-1" d="M3416.28,640.38a12.61,12.61,0,0,1,2.65-.31c.27,0,.57.79.71,1.26,0,.15-.42.64-.64.63-.89,0-1.78-.2-2.67-.31C3416.31,641.22,3416.29,640.8,3416.28,640.38Z" transform="translate(-714.05 -484)"/><path class="cls-1" d="M3476.23,532.56l-2.05-1.74C3475.93,529.46,3475.79,531,3476.23,532.56Z" transform="translate(-714.05 -484)"/><path class="cls-1" d="M812,620h-3.23c-.37,1.08-.51,2.45-1.22,3.35A57.21,57.21,0,0,1,803,628c-1.82-1.71-.39-3.52-1.47-5.43l-3.13-1.07c-.27-1.74-.54-3.58-.88-5.77l-2.83,2.47c-1.25-2.91-.43-5.86-.77-9.51l3.87-2.59c.22-2.54.48-4.13-.22-5.93l-2.92,1.5c-1.44-1.41,0-3.22-1.2-5.24l-1.37-1.5v-8l5.6-2.87h5.25c1.06,1.83,3.27,1.7,5.16,2.93v8.12l1.76,1.76c.12,2.23.25,4.48.37,6.65l3.49.85c.61,2.68.16,5.63.32,8.55L812,615Z" transform="translate(-714.05 -484)"/><path class="cls-1" d="M720,532c1,.06,1.8-.08,1.6-1.64l-2.79-.55-4.76-4.76q1-1,2-2.1v-4.2l3.36-1.1a6.75,6.75,0,0,0,.61-1.71c.09-1.31,0-2.63,0-3.94h15c.62,2.86,2.66,4.83,4.84,6.86v5.63c-.86,1.7-1.69,3.34-2.59,5.14l-2.51.58c-1,1.89-1.51,4.17-3.7,5.63H720.86C719.39,534.65,720.25,533.22,720,532Z" transform="translate(-714.05 -484)"/><path class="cls-1" d="M728,540c.23.56.35,1.52.71,1.62a38.55,38.55,0,0,0,4.86.61l2.37,2.93L732,547c2.37,2.11,5.3-.1,7.61,1.56a8.59,8.59,0,0,1-.57,1.33c-1.59,2.54-1.57,2.65,1,4.07v3c-1.91,2.16-3.33.83-5-1h-6c-1.6-1.35-.77-2.75-1-4,2-1.18,2-1.18,1.17-3.83-2.14.74-.8,2.55-1.17,3.83h-4l1.74-3.21L724,548c-.19-1.19,0-2.69-.65-3.49-1.09-1.32-1.8-2.41-.81-4.51Z" transform="translate(-714.05 -484)"/><path class="cls-1" d="M740,578.39V573l2.91-2.75,4.47-.51c.46-1.27.86-2.42,1.31-3.67l3.06.29v7c-1.91,1.63-4.3.38-7.54.91a28.52,28.52,0,0,1-1.84,2.41A17.35,17.35,0,0,1,740,578.39Z" transform="translate(-714.05 -484)"/><path class="cls-1" d="M780,592v5l-2.84,2.77c-2.71-1.17.08-3.46-1.51-4.65C777.53,594,778,592,780,592Z" transform="translate(-714.05 -484)"/><path class="cls-1" d="M740,577.93c-.31,2-1.72,3-3.72,4.08-.09-1.31-.16-2.39-.26-3.79Z" transform="translate(-714.05 -484)"/><path class="cls-1" d="M779.44,592.23l1.74-2.05C782.54,591.93,781,591.79,779.44,592.23Z" transform="translate(-714.05 -484)"/><path class="cls-1" d="M930,753.29v-2.66l2.91-.7c1.78,1.64.75,3.37,1.12,5l2,2.2-3.1,1.38C932.21,757.2,931.42,755.79,930,753.29Z" transform="translate(-714.05 -484)"/><path class="cls-1" d="M919,736l2.78,2.78c-.25,1.87-1.71,1.11-2.75,1.26C917.53,738.65,917.71,737.32,919,736Z" transform="translate(-714.05 -484)"/><path class="cls-1" d="M956,796a1.7,1.7,0,0,0-2,2h-7c-1.5-1.48-.78-2.81-1-4,.56-.23,1.6-.44,1.62-.69.12-2.5,1.71-3.89,3.7-5.25.42,1.19.83,2.34,1.23,3.5,1.88.9,3.63.28,5.6.14L956,788c1.19.17,2.5-.43,3.78.67v4.75C959.22,794.89,955.68,792.85,956,796Z" transform="translate(-714.05 -484)"/><path class="cls-1" d="M2609.55,610H2615l2.08-2h4c2.25,2.18-.12,5.18,1.43,7.43,2.32,1.28,5.15-.22,8,1.3l-4.55,2.13,2,2.15c-1.32,1.66-3.12.63-4.8,1L2621,624h-3.84l-2.18,2H2607c-1.81-1.61-1-3.53-.56-5.74h4.29l3.4-3.4-3.47-1.18C2609.07,614,2610.84,611.82,2609.55,610Z" transform="translate(-714.05 -484)"/><path class="cls-1" d="M2606,592a1.7,1.7,0,0,1,2,2c0,4.21,0,4.21-2,8l-3.32,1.93c-.27-.83-.55-1.7-.84-2.57l2-2.28c-.62-.93-.62-.93-5.41-1.36-.18-.81-.39-1.71-.69-3-1.09-1.75-3.46,0-5.18-1.08-1.19-1-.33-2.39-.58-3.61a1.7,1.7,0,0,1,2-2c-.13,1.76,1,2,2.38,2,1.19.05,2.54-.47,3.26.55.43,1.37.78,2.46,1.27,4Z" transform="translate(-714.05 -484)"/><path class="cls-1" d="M2686.45,620.12l-.8,3.25c-1.39,1.28-3.1.3-4.71.65-1.6-2.29-.83-4.82-.73-7.12L2683,614h4.31l1.07,3.34c.4,1.79,3.5-.76,3.31,2C2690.23,620.63,2688.53,619.68,2686.45,620.12Z" transform="translate(-714.05 -484)"/><path class="cls-1" d="M3118,654l3.47,2H3125l4,4h19v8h-4.95l-2.05-1.92c-2.06-.64-3,.95-4.1,2H3131l-2.13,1.84-3-3L3130,665c-.36-.36-.59-.79-.83-.8-3.26,0-6.53,0-9.25,0-3.25-1.25-3.54-4.06-5.07-6.43h-6.38c-.46-1.72.49-1.76,1.41-1.78s2,0,3,0l2.12-2Z" transform="translate(-714.05 -484)"/><path class="cls-1" d="M3240,630c-.25,3.19,3.12,1.35,4.22,3,.71,1.07,2.55,1.4,3.81,2-.08.86-.14,1.5-.23,2.4l-2.53.69L3243,636c-3.26,0-6.57,0-9.88,0-.24,0-.48-.4-.9-.77v-4.73C3234.8,629.44,3237.45,630.3,3240,630Z" transform="translate(-714.05 -484)"/><path class="cls-1" d="M3226,626c1.34.24,3-.62,4,1.15C3227.18,628.05,3227.18,628.05,3226,626Z" transform="translate(-714.05 -484)"/><path class="cls-1" d="M3134,688h-6.64c-3.32-2.38-3.32-2.38-6.41,0-.34-.7-.65-1.33-.95-2,0-1.17,0-2.35,0-3.4-2.22-.54-3.88-1.07-4.89-2.33L3112,682h-4c-.67-1.37-1.36-2.72-2-4.11-.12-.25,0-.63,0-.95.52-.31,1.05-.89,1.58-.9,3.89-.08,7.79,0,11.36,0l1.91,1.91a23.7,23.7,0,0,1,9.79-6.12L3133,674h3c-.11,2.86-4.08,3.25-4,6.27.27,1.77,2,2.38,2.94,3.68,2.88.22,5.79-.22,8.49.21.52,1.55.91,2.7,1.51,4.47a27.16,27.16,0,0,1,1.43-3.91c.22-.42,1.07-.49,1.63-.72h3l2.09,2c2.12.75,2.83-1.29,4.06-1.9h6.52c.11,1.15.22,2.28.35,3.58l-5.24.56c-.73,1.36-2.84,1.76-2.74,3.79h-10.91l-2.14-2H3138c-.43-.67-.72-1.65-1.33-1.92A7,7,0,0,0,3134,688Z" transform="translate(-714.05 -484)"/><path class="cls-1" d="M3112,653a6.53,6.53,0,0,1-1.34.63c-.17,0-.44-.41-.66-.63a6.53,6.53,0,0,1,1.34-.63C3111.51,652.34,3111.78,652.78,3112,653Z" transform="translate(-714.05 -484)"/><path class="cls-1" d="M3156,692h2.87c1.25-.82,2-2.62,4.51-1.83.21.77.5,1.84.82,3-2.69,1.33-5.13.8-7.52.57C3156.43,693.1,3156.21,692.55,3156,692Z" transform="translate(-714.05 -484)"/><path class="cls-1" d="M3030,584l-3.21,1.74c-.2-.44-.5-1.09-.79-1.74-.14-1.88,1.14-2.11,2.48-2A1.55,1.55,0,0,1,3030,584Z" transform="translate(-714.05 -484)"/><path class="cls-1" d="M3020,584c-.43.67-.72,1.65-1.33,1.92a7,7,0,0,1-2.67.08c.43-.67.72-1.65,1.33-1.92A7.17,7.17,0,0,1,3020,584Z" transform="translate(-714.05 -484)"/><path class="cls-1" d="M2845.44,632.23l1.74-2.05C2848.54,631.93,2847,631.79,2845.44,632.23Z" transform="translate(-714.05 -484)"/></g></g></svg>