<svg xmlns="http://www.w3.org/2000/svg" viewBox="0 0 4320 2160"><defs><style>.cls-1{fill:#c7ff52;}</style></defs><g id="Layer_22" data-name="Layer 22"><g id="Cfa"><path class="cls-1" d="M1184,632v3.09l-4,1.84v2.35l3.53,1.21c-.13.45-.13,1.07-.44,1.34-2.72,2.36-4,5.53-5.11,8.77a2,2,0,0,0,3.07,1.2c1.63-1,2.78-3.26,4.43-3.62,2.27-.48,3-2.3,4.63-3.28s3.26-1.7,5.53-2.86h3.42l2.76-3.25v-6l3.48-2.83H1209l2.16-1.82c1.22,1.34,2.3,2.63,4.46,1.36,1.06-2.27.06-4.93.4-7.47l4.31,2.24c2.46-2.09,4.61-4.8,7.4-6.07,3.19-1.46,4.71-4.42,7.57-6.21h6.51l3-4.1h10.32l5.78-5.78c1.56.15,3.24-.65,4.69.52.35,1.83.7,3.65,1,5.4H1272c-.16,2.29-2.24,3.12-3.56,4.44s-2.15,3.4-4.44,3.56c-.2-1.18.49-2.49-.91-3.94l-2.83.25c-.12,1.08-.19,1.68-.33,2.89,1.69.2,1.71,2.87,4.07,2.8.69,3.14-2.09,5-2.72,7.72-4.23,3.1-6.07,7.82-8.33,12.26-.07.14-.62,0-1,0,0-1.62.09-3.25,0-4.86s.52-3.2-.79-4.65c-.74-1.46-1.48-2.91-3.18-6.29,0,6.1,0,10.23,0,14.35,0,.49.67,1,1,1.45H1252v3.09l2,1.74v4.11c1,1.12,2.23,2,2.12,4-.06,1,2.14,1.44,1.88,3.06-1.62-.26-2,1.94-3.06,1.88a4,4,0,0,0-3.27,1.43c-2.24,1.29-4-.14-5.55,1.55a8.36,8.36,0,0,0,.28,2.44c.15.39,1,.48,1.6.7v3c-1.92,2-4.6.17-6.51,1.11s-3.81,2.29-6.37,1.85l-7.3,7.81h-6.23a13.82,13.82,0,0,1-2.28,1.85,12.12,12.12,0,0,1-2.67.73l-3.43,7.59h-4.39l-1.12,3.35-7.4,3.4c-2.24,2.24-4.9,5.26-7.94,7.82-2.1,1.76-2,4.73-4.18,6.3.47,3-1.21,5.45-2.55,7.68l2.38,2.57v7.77c3.25,3.68,3.2,9.34,7.88,11.73v5.75l4.11,7.2v7l-2,3.47a9.07,9.07,0,0,0-4.43,1.17c-2.61,1.36-5.1,3.9-8.58,2.79l-2.08-2H1176l-2.78-5.78L1170,753V732.47l-3.22-.65-9.58-9.59c-2.93-1.24-4.85,1.07-7.21,1.7s-3.28,3.08-5.2,4c-1.63.38-2.41-.73-3.47-1.49a13,13,0,0,0-3.36-1.23V723l-9.66-5h-11.29l-2.09,2h-7c0-1,0-2,0-2.94,0-.25-.46-.71-.61-.67-.48.12-1.24.37-1.3.68A16.81,16.81,0,0,0,1106,720h-2c-.23-.56-.39-1.57-.7-1.63-4.07-.66-5.12-.54-9.3.68v5a1.7,1.7,0,0,0-2,2,1.55,1.55,0,0,0-2,1.52c-.15,1.34.08,2.62,2,2.48,2.57.16,2.12,1.76,1.54,3.85-2.77.41-5.7-.06-8.48.21l-1.57-1.57c-2.12-1-4.38-.41-6.54-.37l-2.18,1.91c-3.77-1.17-7.12-2.82-9.86-6.18h-14.06l-1.79-1.79H1035.2c-1.23,1.4-3.4,1.52-4.71,2.65-1.73,1.48-4.51,1-5.6,3.39-.94,2-3.5,1.42-4.77,2.82-2.41,2.67-5.53,4-8.82,5.13-1.43.49-2.37,1.73-4.11,2.14-2.29.55-3.08,4.26-6.29,3.91-.7,1.36-1.35,2.76-2.11,4.09S995.93,752,996,754h-3.09l-1.76-3.77-3.26-.83v-9.66c-1.4-2.65-2.23-4.24-3-5.73-2.13-.12-4,.34-5.63-1.55-1.1-1.25-3.27-1.55-5.88-2.66h-5.81l-5.46-2.87v-3.2c2.18-5,7.21-5.29,9.92-8.78l-4.23-2,4.16-2v-6.11c-2.72-1.49-6.22-2.1-6.32-6.23,0-.25-1.06-.47-1.63-.7a14.23,14.23,0,0,0-2,0,1.62,1.62,0,0,1-2-1.52c-.15-1.34.06-2.65,2-2.5h6V679.07c-.67-.72-1.33-1.44-2-2.15v-9.25l-3-5.79H950.76c-1.11-1.54-1-2.67.13-3.8l2.11,1.86c8.52,0,8.52,0,8.76-1.73-2.37-.8-5.17.59-7.45-.84.74-2.93,3.72-2.84,5.9-4.5v-8.42l6.07-1L964,640.94V636h22.93l2.13-2H999l2.09,1.92h11.65l3.34-2.27,3.65,2.47,8.83-4.47L1031,634H1035c1,2.35,2,4.68,4.17,5.93h12l1.82-1.82h26.24c1.45-3.41,5.12-1,6.66-2.86a5.63,5.63,0,0,1,4.9-5.39l2.35,2.15c2.89,0,5.88,0,8.86,0a5.7,5.7,0,0,0,1.73-.61c.39-1.15.77-2.3,1.13-3.38h6.2l2.08-1.91H1117l2.12,1.84c2.31.81,2.84-1.62,5.34-2.08h3.89l8.21-4.17,4.52,4.3h7.68l3-2.15c3.68,1.32,4.78,5.06,7.93,6.19h5c1.39-.65,2.09-2.74,4.83-1.75l5.51-6.73,6.78,3.38c-.77,1.09-1.49,2.1-2.09,2.93C1180.81,630.07,1181.91,631.56,1184,632Zm-11.52,27.06c-1.16-2.44-2.22-4.64-3.27-6.86-1.85,0-3.9-1.05-5.36,1s-3.88-.21-5.38,1.37c-.39,1.15-.79,2.3-1.11,3.23l-3.5.71c1.64,1.93,4.18,1.67,5.33,3.49.18.29,1.23,0,1.93,0l1.94-4.11c.77,1.58,1.42,2.89,2,4,1.84.43,2.59-.74,3.64-1.47S1170.92,659.59,1172.48,659.06Z" transform="translate(-720 -528)"/><path class="cls-1" d="M1522,1362c2.56-.36,5.24.7,7.74-.53-.36-1.8-3.16-2.82-1-5.24h16a60.44,60.44,0,0,0,6,3.46,5.51,5.51,0,0,0,3.83.22c1.86-.7,3.5-2,5.84-3.35l-3.65-.74c-.06-.06-.49-.29-.5-.53,0-3.57,0-7.14,0-10.61.37-.29.62-.65.88-.65,3.31,0,6.63,0,9.75,0,3.17,1.86,3,5.92,5.85,7.77h6.78l.65-2.91,5.47-2.85H1592v6c-.55.22-1.51.35-1.59.68-.27,1.19.62,1.39,1.59,1.32a7.53,7.53,0,0,1,1.65.68c2.36,1.71,2.34,1.71,4.7,0a7.53,7.53,0,0,1,1.65-.68h2v5c-5,1.46-7.38,6.16-11.27,9l-2.09.2-1.39,3.8c-9.13,0-18.4,0-27.68,0-.52,0-1,.63-1.54,1l2,2.19v5.88c2.39,2.07,2.93,4.31,1,6.93-1.67,0-3.34.1-5,0-1.91-.14-3.94.62-5.72-.6-.12-.65,0-1.46-.37-1.86-2.37-2.67-4.83-5.24-7-7.6l-4.12.24c-1.32,1.42-1,2.87-.74,4,.29,1.58-3.07,1.9-1.35,3.6l3.72.76c-3.61,1.73-1.72,4.85-3,7l-3.26,1.15c-.25,1.2-.44,2.12-.59,2.88-3.29,1.22-6.74-.56-9.8,1.47,3.09,2.08,6.59.14,10.07,1.66l2.59,4.49,4.38,2.51c1.77.86,3.61-.47,5.11,1.36,0,3.77,0,7.74,0,11.71,0,.27.33.53.5.79L1548,1423c0,1.59-.09,3.25,0,4.9.14,1.92-.58,3.94.77,6,1.58-.25,2.72.8,4,1.75.89.65,2.61,0,3.79.42a21.43,21.43,0,0,1,3.85,2.24,16.84,16.84,0,0,1,1.83-1.58,10.64,10.64,0,0,1,1.69-.73v5c-1.94,1-1.49,3.47-2.8,4.74-1.64,1.6-1.11,4.41-3.43,5.56-1.91.94-1.56,3.33-2.53,4.74H1552v-3l2.14-2.29c-.23-.85-.48-1.75-.7-2.57-1.85-.09-3.46-.62-5,.33-2,4.09-2.48,9.42-8.42,10.22v4.18c.41,1.1,2.24,1.42,1.94,3.09-4.61,1.81-6,6.18-8,10-1.18,2.17-1.6,4.8-3.53,6.51-1.64,1.44-2.66,4-5.5,3.54-1.16,1.48-3.35,2.33-2.85,5.2a42.43,42.43,0,0,0-4.84,4.61c-1.33,1.7-3.25,1.87-4.88,2.77-1.9,1-3.79,2.13-5.78,3.26h-5.65l-1.71-1.71h-6.15l-1.92,1.5c-1.68.16-3.58,1.09-5.24-.77-1.27-1.42-3.83-.81-4.79-2.83-1.86.24-2.89-1-4.18-2-.63-.48-1.93-.08-2.93-.08h-4.92l-2.2-2.09-2.46.45c-.18.88-.3,1.48-.42,2.08a2.48,2.48,0,0,0,.31.84c.85,1,1.74,1.92,2.48,2.72h6.44a12.62,12.62,0,0,0,1.22,3.36,31.8,31.8,0,0,0,3.49,3.58c.15,3.55,0,7.13.08,10.71l5.21.58c1.4,1.1.51,2.54.77,3.77h-3a30.1,30.1,0,0,0-2.8,2.85c-.92,1.21-2.9.69-3.33,1.46-1.78,3.16-6.13.15-7.67,3.45-.09.18-.58.23-.88.23-1.67,0-3.34,0-5.13,0l-2.22-2h-5.82l-2.19-2h-3.69c-2.35,2-5.72,2.19-7.25,5v6.83l-3.9,2.8c-.13,2.64-.21,4.61-.36,6.57,0,.26-.44.48-.38.42l-3.25-2.14c-.15-2.39-.22-3.67-.28-4.56l-14.64-7.31-1.26,2.33c.59,4.12,4.6,3.48,6.55,5.49,1.13,1.16,4.34.16,3.5,3.4a5,5,0,0,1,2,5.17h-6c-.23-.57-.5-1.63-.69-1.62-3.93.29-6.83-3.25-10.66-2.55-.51-1.43-.91-2.58-1.27-3.59l-2.6-.55-5.64-11.46-2.91-.75c-.19-1.84-.36-3.41-.56-5.28h-8.27L1385,1520l-3-6.08c1-2,1.61-4.26,3-5.72,2-2-.31-5.32,2.61-7,.63-.36.85-2.8.29-3.64-2.16-3.2-2.6-8.14-7.8-8.17-.4-2.53.48-4.86-.67-7-.5-.46-1-.92-1.43-1.35v-3c1.22.25,2.66-.62,3.67.65l1.14,3.33H1391c1-4,4.44-6.19,6-7.92,1.68-3.48,2.74-5.69,3.78-7.87l3-.62v-9.43c1.86-3.61,3.12-6.07,4.29-8.36-1.52-3.51-6-4.55-6.26-8.78l4.14-1.92V1430c.23-.57.37-1.56.71-1.63,2.67-.58,4.65-1.57,5.39-4.63.49-2,1.89-3.85,2.94-5.72.08-.14.63,0,1,0h5l2.16,2c.67-1.4,1.31-2.74,1.9-4,1.76-.37,3.54.66,4.92-1v-5.92c-2-3-3.67-6.89-3.93-9.15v-18.6l7.43-7.43c1.19-.37,3.12.52,4.88-1.1,1.5-1.38,3.76-1.94,5.69-2.87,3.76,1.13,6.59,4.78,11,4,2.6,2.21,6.29,2.9,7.84,6h4.2c1.42,2.79,2.74,5.51,4.21,8.15.38.68,1.24,1.1,1.94,1.69l.77-1.92,3.93-2.24h5.44c1.09-2,.44-3.92.63-5.76.56-.22,1.4-.3,1.62-.7a24.64,24.64,0,0,0,1.22-3.43l2.24,2.13h5.9c1-1.91,3.2-1.72,4.73-2.71,1.56-3.84-2-6.15-2.76-9.29h-3v-3l2-2.12V1352c.56.23,1.53.36,1.61.7a43.75,43.75,0,0,1,.63,4.54,18.2,18.2,0,0,1,4.38,6.17c1,2.62,4.45,2.81,6.69,4.28l3.48-3.48c1.41.42,2,2.55,4,1.75C1518.83,1365.07,1519.48,1362.31,1522,1362Z" transform="translate(-720 -528)"/><path class="cls-1" d="M3596,674h2.9c1.83-1.17,2.66-3.61,5.1-4h3c1.72,1.22.68,3,1.45,5.63.74.53,2.33,1.7,3.53,2.58v4.65l2.06,2.21V689l2.83,2.83,2,.15c1.92,1.3,1.29,4.35,3.58,5.36,2,.89,4.42,1.2,5.57,4.75V705L3626,707v5a24,24,0,0,0-9.09,4.14c-.32.28-.35.88-.62,1.63l6,.47,2.68,4.41c.84-2.1,1.3-3.22,2-4.89,1.53,1,3.6-.88,5.1,1.29v7c-1.18.2-2.49-.48-4,1v7c-1.19.21-2.52-.51-4,1v7a1.55,1.55,0,0,1-1.52,2c-1.34.16-2.62.16-2.48,2-2-.32-2.46,2.94-4.71,2-1.28,1.18-3.13,1.9-3.29,4-.79,1.58-1.57,3.17-3.14,6.32l-2.86,2.75v3.44l-2,3.49-4,0c0,1.64,0,2.81,0,4-.23,1.52,1.3,1.9,1.86,2.89s-.18,2.22-1.86,3.11c-.23-.57-.34-1.48-.73-1.63a13.14,13.14,0,0,0-2.84-.38c-.61-.08-1.22-.25-2.31-.49-.07-1.45-.14-3-.24-5.09l-3-.36c-2,2.56.08,3.75,1.16,5-1.7,1.84-3.51.39-6.92,2.34l-2.63,1.37c-.17.5-.58,1.66-1.11,3.15h-14.73c-.3,1.17-.54,2.06-.84,3.23-2.7.54-4.62,2.68-6.67,4.82h-4.05L3553,788h-32.15l-2.85,3.71v5.51l-4,1.46c2.62,3.84,8,4.11,9.83,8.52-.56.26-1.28.88-1.65.71-2.53-1.14-5-2.45-7.82-3.87h-11.37l-1.82,1.82h-8l-1.86,1.86-4.85.52c-.19.92-.37,1.83-.61,3-2.2,1.26-4.71.8-7.1.43l-1.53-1.53-6.61-.36c-.32-1.23-.55-2.13-.9-3.5-3-.67-6.14-.07-9.24-.37-.23,3.49,2.94.93,3.32,2.8-2.12,1.34-2.12,1.36-6.86,1.14l-2.75-2.75c-.69-2,.71-3.07,1.9-4.09v-6l1.79-1.79c.09-1.19.22-2.77.33-4.25l1.86-2.16v-5.59l-5.8-4.44c-.13-2.29,0-3.06-.25-3.56a15,15,0,0,0-1.95-2.25V765l-2-2.12c0-.71-.07-1.36-.1-2l-3.65-3.65c-.16-1.44-.33-3-.47-4.34-.38-.43-.6-.88-.82-.89-3,0-6,0-9,0h-2c0-3,0-6,0-9,0-.25-.42-.48-.65-.72-2.66-1.78-3.61,2.54-6.41,1.53-.57-3-4.17-5.21-3.23-7.59l8.17-8.21,2.09-.84c.42-1.79-.64-3.55.85-5h7.94c1.39.83,2.17,1.36,3,1.79s1.6.67,1.93.81c.47,1.43.75,2.31.94,2.88,2.5.86,4.88-.41,7.05,1L3457,730a9.76,9.76,0,0,0,2.9-.28c.32,1.27.18,2.82,1.93,1.46a17.45,17.45,0,0,0-1.93-1.46c.11-1.38.11-3.05.11-4.05,1.13-2.17,2-3.82,2.69-5.14l5-2.5h7.15l4.16-3.95h7.3l5.61,2.87c.35,1-.72,2.69,1.43,2.7l1.27-3.55h4.85a37.79,37.79,0,0,0,2.8-3.44c.92-1.39,3.66.36,3.69-2.4-.47-2.32-3.2-4.13-2-7-1.76-1.17-1.69-3.62-3.09-5l-3.42,2.58c1.08-4,.14-6.19-1.41-8.32-.32-.46.43-1.7.6-2.28l2.94-.62c.44-1.41.79-2.5,1-3.31a25.93,25.93,0,0,1,10.88,8.46c.62,1.61.95,2.47,1.26,3.25H3517l2,1.88c2.84,0,5.49,0,8.14,0,.24,0,.47-.44.7-.67.15-1.58.29-3.15.4-4.36l10.22-5,5.54,4.76,3.23-2.59h14.65l2.31-3.24c4.1-1.43,7.19.29,9.81-1.62.51-3.25-2.93-4-3.95-7.06,3.76,0,7.34,0,10.91,0a14.64,14.64,0,0,1,2,0c.27,0,.49.41.75.65.31,1.79.62,3.6.91,5.29H3591l5-5Zm-112,48c1.94-.32,4.2.83,5.91-1.09l-2.73-2.73L3484,720c-1.18.2-2.49-.49-3.94.91.07.75.16,1.84.27,3C3482.27,723.93,3484,724.47,3484,722Z" transform="translate(-720 -528)"/><path class="cls-1" d="M3936,1506v-3l2-2.15c-.46-3.84,2.5-6.4,3.42-9.58,1.07-3.7,3.56-4.89,6.53-6.21l-3.92-4.17v-4l5.76-3.31v-12.91l-1.8-.74v-2.43l6.84-9.6H3959l2.91-2.91v-3.9l4.12-4.32v-3.91c1.52-1.24,2.42-3.38,4.86-2.93,1-1.92,3.32-1.69,5-2.82v-6.12l-1.82-2.08v-3.81L3972,1413v-2.18l2.4-.9c2.39,1.55,4.43,3.1,3.8,6.09H3981c.21-.19.64-.38.67-.62.22-1.94.36-3.89.47-5.28l-8-7.93h-2.83l-3.08-2.84V1385c1-1.08,1.88-2,2.47-2.71l2.9-.68c1.27-3.1-.46-5.16-1.59-7.4-1-1.92-1.81-3.91-2.71-5.86l-3.15-.82c-.08-1.44-.17-3-.28-4.84l-2.55-.79-2.29,2.07c-1.59-1.49-1.36-4.2-3.5-5.4s-1.14-4.44-3.51-5.56c-.13-.06,0-.63,0-1h4.93a11.64,11.64,0,0,1,4.14,6H3965l2.1,2H3972v4a1.55,1.55,0,0,0,1.52,2c1.34.15,2.62-.08,2.48-2a4.91,4.91,0,0,1,4,4,1.7,1.7,0,0,0,2,2h2.92c3.35,1.76,2.95,6.35,6.23,8.16s2.75,6.42,6.16,7.86c1.53,0,2.84-.12,2.69-2h2v4.93l-2,2.13c.42,2.18.42,2.18,2,4.1V1411c1.51,1.45,2.82.77,4,1v12.79l2.07,2.72c-.3,2.92-2.94,3.26-3.82,5.11l-.58,8.71c-3.13,1.59-.21,6-3.6,7.52v9.84c-2.42,2.67-2.74,6.69-6.07,8.09v3.49a5.52,5.52,0,0,1-.91,1.6c-1.94,1.6-3,4.29-6.21,4.4a3.85,3.85,0,0,0-2.68,2.68c0,3.21-3.06,4.07-4.29,6.49v3.75c-1.47.78-1.87,2.91-3.91,2.81-1.88-.25-3.89.58-5.83-.75V1487c.8-1,1.38-1.77,1.66-2.11v-10.09c-.42-.37-.65-.78-.9-.78-3.95,0-7.91,0-12.74,0l-4.54,5.48-3.61,1.23V1485l2,2.08v5.91c-3.56,2.82-4.74,7.43-7.9,10.62-.69.69-.17,2.59-2.1,2.44Zm52.93-64.15c1.4-2.44,2.17-3.76,3-5.24V1433l-2.05-2.28v-3.83L3987,1424l-2.86,3a13.35,13.35,0,0,1-.15,2.69c-.84,3.29-3.51,5.78-4,9.26-.13.8-1.25,1.44-1.92,2.16-.29,2.21.77,4.57-.72,6.65l-4-2.3c1.49,3.55-.53,6.14,1.49,8.35l2.78.57c.41,2.1,1.22,4-.36,5.46l-3,.6v2.89l3.81,1.39c0,1.36,0,2.65,0,3.94,0,.27.28.54.51,1,6.14-1.71,9.35-7,13.64-10.67v-6.6c.54-5,6.21-2.9,5.93-6.36l-2.95-4.12ZM3977,1386c-1.44,1.33-1.44,2.67,0,4C3978.44,1388.67,3978.44,1387.33,3977,1386Zm-.29-4.29,1.29-.71c-.22-.22-.49-.66-.66-.63a6.53,6.53,0,0,0-1.34.63Z" transform="translate(-720 -528)"/><path class="cls-1" d="M3722,696c1.51-2.87-2-4.12-2.18-6.63A4.24,4.24,0,0,0,3716,686v-4c.23-.57.31-1.42.73-1.65a21.27,21.27,0,0,1,3.32-1.19l-2.19-2.57,2.91-.71L3723,678h3.74l7.26-7.26v-1.78l5.63-2.89h3.18l2.19-2h3c.27,1.89-.63,3.92.5,5.44l4.94-4.94c-1.52-1.13-3.55-.23-5.44-.5.66-2.73,2.52-4,5.42-4.23.33-1,.68-2.12,1-3.25,1.05-1,2.36-.32,3.54-.52h18c-.23.57-.46,1.13-.83,2h-10l-2.44,1.89c-2.53.54-5-1.1-6.9,1.4l.69,2.59h6.11l6.86-3.9c1.09,0,2.74.09,4.39,0,1.9-.14,3.9.57,6.11-.84-.18-1-.39-2.1-.58-3.14H3776c.23-.57.47-1.14.84-2h16.75c.19-1.21,0-2.37.54-3,1.48-1.78,3.23-3.34,4.87-5h3c-1.45,2.35-2.16,5.09-3.92,7.31-.36.45.31,1.72.49,2.53l2.29.17,2.16-2h5.19l3.56,2.44c.52,2.56-.55,4.37,1.26,5.45l2.09-1.9c3-.18,5.91.35,8.64-.41.21-2,.37-3.54.58-5.59l4,.39c-1.08,1.19-1.69,1.88-2.31,2.57,1.08.88,1.67,2.47,3.75,2.65.1-1.63.2-3.19.28-4.41l2.48-3.6c-1.13-1.15-2-2.09-2.91-2.9A6,6,0,0,0,3828,648v-2l3.47-2c2.2,0,4.81,0,7.41,0,.24,0,.48-.37.72-.57.52-2.58,1.55-4.73,4.4-5.4l4,2,4,2v13a5.85,5.85,0,0,0-2.23,4,4,4,0,0,1-2.69,2.7,5.88,5.88,0,0,0-4,2.24h-5c-.24-1.22.6-2.63-1.07-4l-2.93.59V664a1.7,1.7,0,0,0-2,2c-.17,2.58-1.77,2.12-3.6,1.6-.27-1.8-.54-3.62-1-6.68-2.45,3.09-4.24,5.36-5.63,7.13h-13.06c-.4,1.13-.8,2.29-1.31,3.75l-6.84.38c-.22.82-.47,1.71-.86,3.16l-7.25,6.62h-3.51l-1.85-4H3784v-5.15c-1.52-1.26-2.82-.69-4-.85v-2.87c.73-.79.81-1,1.38-2.75-1.79-.39-3.61-1-5.23.47.2,1.74-1.2,3.79,1,5.15H3780v6c-2.2.29-3,2.39-4.86,3.77h-10.36c-1.14,1.84-2.53,4.08-3.91,6.33-.24-.27-.48-.53-.71-.8-.27.88-.55,1.77-.82,2.64h-4.25c-1.1-.41-1.42-2.24-3.09-1.94v-7.44l4.31-3.54c-.82-1.71.49-3.53-1-4.78h-4.84c-.32,2-.6,3.85-.89,5.72l-7.07-4H3739c-.81,1.19-2.52,1.72-2.58,3.45,2.3,1.62,5.26-.67,7.49,1.46v3.49c1,2.4,3.75,3.08,4.08,5.6-.23.56-.3,1.31-.71,1.65-2,1.68-2.88,4.05-4.26,6.11-1.68,2.49-.42,5-1.22,7.43-2,2-4.27,3.8-4.73,6.81h-8.24l-2.84-2.84v-8a17,17,0,0,0-1.75-1.9A16,16,0,0,0,3722,696Zm43-22c1.53-3.43,1.4-3.6-2-4-.87,1.14-2.44,1.73-2.68,3.38C3761.8,674.6,3763.48,673.69,3765,674Z" transform="translate(-720 -528)"/><path class="cls-1" d="M2344,586h-2.9c-1.83-1.17-2.66-3.61-5.1-4-.93-1.94-1.87-3.87-2.8-5.81-1.59.49-2.53,3.57-4.81,1.2-1.6-2.1,1.2-3.11,1.19-4.95-3.52-.49-5.62-2.52-6-6.05-2-.3-4-1.24-5.56.65v9a4.47,4.47,0,0,1-3.88-3.73c-.26-2-1.95-2.5-2.7-4.2h-8.49c-1.68-2.4-.62-4.76-.94-7l-2-2.12v-5l2.2-1.11c-2.69-1.48-5-.64-6.56-.82l-7.2-4.1H2283l-2.14-2H2270c-.23-.57-.47-1.13-.74-1.81h-7.69l-6,3.17c.79,1.42,1.48,2.68,2.17,3.94l-1.7.7c-1.2-.22-2.55.53-3.8-.8V541.15L2254,538l3.48-2h4.9l4.95-6.56,4.62,2.79h5.25l1.9,1.9h12l1.63,1.63c3.82,1.87,6.35-3.12,10-1.73,1.52-2.21,4.88-1.56,6.25-4H2315l2.13-2H2326c.56.23,1.4.3,1.62.71a21,21,0,0,1,1.2,3.29h2.4c3.07,4.94,9.4,6.29,12.78,11.2V548h-3.09l-1.83-4H2329l-2.82-2.88c-.12-2.16-.25-4.39-.36-6.42a5.56,5.56,0,0,0-1.08-.68,1.32,1.32,0,0,0-1,0c-3.58,2.48-8.36,2.22-11.73,5.12-.79,2,1.33,2.65,1.78,4.07l-1.6,1.6v6.7l3.58,2.55H2319c1.91,1.3,2.84,3.35,5.38,4.15s4.48,3.21,5.7,6.12c1.45,3.47,3.28,6.89,6.46,9.29.72.55,1.75,1.12,1.43,2.38a1.7,1.7,0,0,0,2,2v2.9C2341.17,582.73,2343.61,583.56,2344,586Z" transform="translate(-720 -528)"/><path class="cls-1" d="M1582,1390c0,1.59.34,3.22-1.33,4.37-1.34.92-.42,2.42-.67,3.63v8.93l2,2.11v7.89l-2,2.1V1423c-2.26,1.63-3.59,4.13-6.65,5.25s-5.21,4.39-6.4,7.78h-3v-7.73c5.1-1.22,5.06-7.5,8.21-9.63,2.51-1.13,4.34.15,5.65-1.48-1.45-1.3-1.79-3.16-2.59-5h-4.45a8.1,8.1,0,0,1-1.61,1.55,5.61,5.61,0,0,1-1.82.26c-1.93-1.76-3.82-3.5-5.48-5,.42-3.32-.63-6.28.93-9.12a39.59,39.59,0,0,0,3.1,3.05c1.15.91,1.69,2.64,3.46,2.77,1.57-3.91,3-7.77,6.73-10.7v-8.09c1.53-1.51,2.91-2.64,1.29-4.45-2.35-1.62-3.3,1.14-5,1.58-2.1-.43-4.54,1.11-6.36-1.07,2.33-1.86,2-5.55,5-6.93h13v3.09l2.28,2-4.28,3.8Z" transform="translate(-720 -528)"/><path class="cls-1" d="M2520,1460c0-1.59-.34-3.22,1.33-4.37,1.34-.92.42-2.42.67-3.63.67-.43,1.65-.72,1.92-1.33a7.17,7.17,0,0,0,.08-2.67c-.22-2.71,2.32-1.51,3.3-2.32,1.22-2.59,1.84-5.7,3.73-7.41,2.3-2.07,2.47-5.24,4.77-7.07-.49-3.5,3.87-4.17,4.2-7.2-.23-1.52,1.3-1.9,1.86-2.89s-.18-2.22-1.86-3.11v-4c.55-.22,1.13-.4,1.65-.67.8-.41,1.57-.88,2.35-1.33l3.58,2a16.66,16.66,0,0,0,3,0,1.55,1.55,0,0,0,1.39-2c.67.43,1.65.72,1.92,1.33a7.17,7.17,0,0,1,.08,2.67v2a1.54,1.54,0,0,0-1.95,1.37,39.69,39.69,0,0,0-.05,4.63c-1.36,3.49-4.8,5.16-6.84,8h-2.4a47.26,47.26,0,0,0-3.82,4.16c-.9,1.2-1.29,2.77-2.15,4-1.05,1.53-.83,3.67-2.69,4.84-1.35.84-2.59,2.06-2.1,4-3.94,2.91-4.62,8.49-9.46,11Z" transform="translate(-720 -528)"/><path class="cls-1" d="M2378,570v-6c1.22.26,2.39-.19,3.71.59,5.63,3.34,5.69,3.24,9.59,3.53,2.44,3.78,7.28,4.64,10.36,7.86.16.16.64,0,1.6,0,.91-1.2,2.1-2.75,3-4h4.59c1,1,2.44,1.7,2.78,3.32-1.44,1.28-3.16.29-5.22.81.85,3.76-4.4.13-4.44,3.68,1.81,2.64,1.94,6.53,5.18,8a29.22,29.22,0,0,1,4.11.52c.36.1.48,1.06.71,1.62h-2.53l-3.47,2c-2.44-.38-3.38-2.65-5-4a9.19,9.19,0,0,1-3.52-5.24A3.67,3.67,0,0,0,2396,580c-3.1.32-5.22-.84-6-4a1.7,1.7,0,0,0-2-2c-.43-.67-.72-1.65-1.33-1.92A7.17,7.17,0,0,0,2384,572c-.43-.67-.72-1.65-1.33-1.92A7.17,7.17,0,0,0,2380,570Z" transform="translate(-720 -528)"/><path class="cls-1" d="M2196,576c1.84-.14,2.23,1.14,1.93,2.43a11,11,0,0,1-1.74,2.86l1.81.71c-.22.55-.28,1.4-.68,1.6-2.64,1.35-5.7,1.86-8.49,4.4H2178a1.7,1.7,0,0,0-2,2h-2c-.55-.21-1.41-.29-1.57-.66a10.64,10.64,0,0,1-.41-2.7l4-1.31V580c-.16-2,1.21-2,2.72-2l2.23,1.86,2.08-1.78h4c.58,1.22,1.22,2.57,1.85,3.92H2193c2.13-1.3.33-3.66,1.36-5.29Z" transform="translate(-720 -528)"/><path class="cls-1" d="M3682,652v7.07l4,1.84V664c-.33,0-.86-.13-.95,0a7.16,7.16,0,0,0,0,8c.09.15.62,0,.95,0v2h-6a1.7,1.7,0,0,0-2-2l-4,0c0-1.64,0-2.81,0-4v-4c.31-2,2.42-3.23,2.48-5.41,0-.21,1-.39,1.52-.59.67-.43,1.65-.72,1.92-1.33A7.17,7.17,0,0,0,3680,654,1.7,1.7,0,0,1,3682,652Z" transform="translate(-720 -528)"/><path class="cls-1" d="M3814,638v3.13l-3.2,2.67h-4.91L3802,646v-3l2-2.11c0-2.62,0-5.24,0-7.86,0-.25.4-.48.69-.81,2.4-.26,4.9-.82,7.31.61l-2,2.17v3c.22.55.35,1.51.68,1.59,1.19.27,1.39-.62,1.32-1.59Z" transform="translate(-720 -528)"/><path class="cls-1" d="M3854,638v-8.82l-2.12-2.4,2.62-6.27a6.87,6.87,0,0,1,1.7-.49c1.93-.06,3.87,0,5.8,0v3.38l-5.53,1c-1.12,2.43-.13,5.08-.47,7.62v2a7.17,7.17,0,0,1-.08,2.67C3855.65,637.28,3854.67,637.57,3854,638Z" transform="translate(-720 -528)"/><path class="cls-1" d="M2268,550a7.17,7.17,0,0,1,.08-2.67c.27-.61,1.25-.9,1.92-1.33.23.56.3,1.41.71,1.63,1.88,1,4.66-.6,6,2.08,2.2.2,4.41.34,6.6.68.3.05.46,1.05.69,1.61a7.17,7.17,0,0,0-2.67.08c-.61.27-.9,1.25-1.33,1.92l-3.47-2h-5.06Z" transform="translate(-720 -528)"/><path class="cls-1" d="M3714,686v3.21a13.33,13.33,0,0,0-3.32,1.21c-1.06.73-1.8,1.91-3.41,1.53-1.52-.53-1.41-1.78-1.12-3.09,2.68-1.42,6.1-2.08,6.23-6.16,0-.25,1.06-.47,1.62-.7Z" transform="translate(-720 -528)"/><path class="cls-1" d="M3685.5,679.49l1.65-1.64,1.24,3.15-4.71,3h-5.14c-.2-1-.4-2.15-.58-3.08C3680.41,679.18,3682.76,680.61,3685.5,679.49Z" transform="translate(-720 -528)"/><path class="cls-1" d="M3836,626c-.9,2.74-3.35,4.12-5.16,6H3828v-4C3831.79,626,3831.79,626,3836,626Z" transform="translate(-720 -528)"/><path class="cls-1" d="M1962,692h-2.67l-3.58-2.86c2.08-1.71,3.88-1.25,5.6-.7.35.11.44,1,.65,1.56Z" transform="translate(-720 -528)"/><path class="cls-1" d="M3826,628c-1.64-.22-4.09,1-4-2.45.19-1.62,2.11-2,2.72-3.51.51.48,1.19.83,1.23,1.22C3826.08,624.83,3826,626.42,3826,628Z" transform="translate(-720 -528)"/><path class="cls-1" d="M724,674h4a1.53,1.53,0,0,1-1.41,2c-2.19.16-4.39,0-6.59,0v-2Z" transform="translate(-720 -528)"/><path class="cls-1" d="M3718,742v2c-.55.22-1.13.4-1.65.67-.8.41-1.57.88-2.35,1.33,0-1.17,0-2.34,0-4Z" transform="translate(-720 -528)"/><path class="cls-1" d="M3826,632h2a1.7,1.7,0,0,1-2,2Z" transform="translate(-720 -528)"/><path class="cls-1" d="M1552,1458c-1,.07-1.86-.13-1.59-1.32.08-.33,1-.46,1.59-.68Z" transform="translate(-720 -528)"/><path class="cls-1" d="M3852,640a1.7,1.7,0,0,1,2-2A1.7,1.7,0,0,1,3852,640Z" transform="translate(-720 -528)"/><path class="cls-1" d="M1492,1348a4.91,4.91,0,0,1,4,4h-4Z" transform="translate(-720 -528)"/><path class="cls-1" d="M3933.66,1381.32l3.27-3.22h4.23c1.53,3,5.25,3.67,7.94,5.81,1.61-1.28.59-3.07.93-4.72l3.39-4.28c.45,3.16.71,5,.93,6.54l6.14-1.81,3.3,3.09v4.5c-2.11,1.69-4.53.08-7.33,1.36L3955,1390h-5.43c-2.56-1.46-4.72-2.68-7.17-4.09h-5.51C3935.87,1384.54,3934.16,1383.85,3933.66,1381.32Z" transform="translate(-720 -528)"/><path class="cls-1" d="M2190,562v4l-3.74-1.76h-7c-1.18-1.18-1.18-1.18-1.24-5.16l10.26-5.27c3,1.41,1.28,3.62,1.57,5.36l-1.44,1.44C2188.15,562,2189,562.05,2190,562Z" transform="translate(-720 -528)"/><path class="cls-1" d="M2172,580a1.7,1.7,0,0,1-2-2A1.7,1.7,0,0,1,2172,580Z" transform="translate(-720 -528)"/><path class="cls-1" d="M3936,1506v3.39l-5.71,3.72-1.05,3L3927,1514H3924c1.38-3.52,4.84-5.2,6.88-8Z" transform="translate(-720 -528)"/><path class="cls-1" d="M968,800c-2.45,0-2.42-2.68-4.9-3l2.56-4-2-3,2.3-3.24V783l-2.59-2.74-3.84,2c-1.7-1.92-2.33-4.25-3.51-6.25h9.13l2.7,3.24c-1.08,3.07,3,5.54,2.17,9.18,2.54,2.56,2.25,5.67,1.74,8.9C970.4,798,970,800.1,968,800Z" transform="translate(-720 -528)"/><path class="cls-1" d="M2500,562a26.62,26.62,0,0,1-3.33,8.35,16.26,16.26,0,0,0-.85,2.11l2.18,2.69V578c.1,2-2,2.41-2.81,4l-2.21-1.88h-7.87l-2.12,1.86h-3.64l-3.09,2.33-4.46-2.6-3,2.34H2466v-3l-6.11-3.13h-7.54c-.14-1.21-.24-2.11-.33-2.89.37-.37.59-.78.84-.81,1.3-.13,2.61-.15,4.06-.23L2459,572h3.91L2465,574c.7,0,1.48.23,2-.06.83-.46,1.41-1.38,2.23-1.86.5-.3,1.34,0,1.88-.23s1-.89,1.76-1.69h12.21c.91-1.7,3-2.1,2.92-4.13,2.44-.4,3.27-2.87,5.14-4H2500Z" transform="translate(-720 -528)"/><path class="cls-1" d="M2522,602h-4v-3.2l3.32-1.12c.88-1.6.89-3.68,2.68-4.78V588h8c-.24,1.88.57,3.88-.69,5.74a45.4,45.4,0,0,0-4.6.64c-.35.08-.48,1.06-.71,1.62-.53.2-1.51.38-1.52.59C2524.42,598.77,2522.31,600,2522,602Z" transform="translate(-720 -528)"/><path class="cls-1" d="M2464,586a1.7,1.7,0,0,1,2-2A1.7,1.7,0,0,1,2464,586Z" transform="translate(-720 -528)"/><path class="cls-1" d="M2290,554h4c.14,1.88-1.14,2.11-2.48,2A1.55,1.55,0,0,1,2290,554Z" transform="translate(-720 -528)"/><path class="cls-1" d="M2740,1314l1.85-.75v-6c4.28-3.39,5.64-8.67,8.15-13.26,2.29,1.29,2.84,2,1.52,3.28-1.75,1.68-1.22,3.51-1.59,5.36-.29,1.45-2.43,2.16-1.95,4.14a9.44,9.44,0,0,1,0,2.07l-2,2.17v7.83l-2,2.18v4c-3.76,2.14-4,7.16-7.75,9.61a41.16,41.16,0,0,1-.64,4.61c-.08.34-1.06.48-1.62.71l-1.85-.75v-6.69l3.78-2.65v-4.7l2-2.23v-3.87l2-2.15Z" transform="translate(-720 -528)"/><path class="cls-1" d="M2376,562c.22-.56.37-1.54.69-1.6,1.2-.22,1.36.68,1.32,1.65,0,.65,0,1.3,0,2A1.7,1.7,0,0,1,2376,562Z" transform="translate(-720 -528)"/><path class="cls-1" d="M2370,560a1.7,1.7,0,0,1,2,2c-.22.56-.37,1.54-.69,1.6-1.2.22-1.36-.68-1.32-1.65C2370,561.3,2370,560.65,2370,560Z" transform="translate(-720 -528)"/><path class="cls-1" d="M3056,670h6c0,1.17,0,2.34,0,3.18l6,2.82v4h-5l-7-7Z" transform="translate(-720 -528)"/><path class="cls-1" d="M3054,668a1.7,1.7,0,0,1,2,2A1.7,1.7,0,0,1,3054,668Z" transform="translate(-720 -528)"/><path class="cls-1" d="M3482,711c1.33-1.44,2.67-1.44,4,0C3484.67,712.44,3483.33,712.44,3482,711Z" transform="translate(-720 -528)"/><path class="cls-1" d="M2490,1296v-4h7.23l3.34-4H2504l5.85,2.78v8.52c-2,1.39-2.17-2.15-3.85-1.3a1.7,1.7,0,0,0-2-2h-2.84l-3.24,2.59c-1.18-1-2.09-1.79-3-2.59Z" transform="translate(-720 -528)"/><path class="cls-1" d="M2519,1303.85c1.31,1.64,1.38,2.74.29,3.91C2517.12,1306.93,2517.71,1305.66,2519,1303.85Z" transform="translate(-720 -528)"/><path class="cls-1" d="M2646,548a16.46,16.46,0,0,1-7.74,4,16.49,16.49,0,0,0-1.79.51c.25,3.31,3.61,2.77,5.24,4.3s3.82,2.67,4.29,5.18h-5.26a60.07,60.07,0,0,1-4.47-4.81c-1.27-1.66-3.8-.72-4.8-2.7-1.11-2.19-3.88-2-5.38-3.49s-3-.63-4.49-1.07c-1.13-.33-2.14-1.91-3.1-1.81-3.45.34-5.61-2.33-8.5-3.18V542h2c1.37.67,2.74,1.36,4.13,2,.25.12.63,0,1.18-.07.36-1.07.76-2.22,1.15-3.37,1.82-1.53,2.93-.17,4.4,1.32h8l2,2h6.53c3.06,1.26,4.52,1.74,5.85,2.46C2645.69,546.58,2645.77,547.44,2646,548Z" transform="translate(-720 -528)"/><path class="cls-1" d="M2648,564h8c.21.54.33,1.49.65,1.57,1.47.34,3,.44,5.11.71l3.08,3.72H2670c.23.56.49,1.62.68,1.61,4.49-.28,7.89,4.45,12.77,1.82.33,1.76.5,2.66.75,4-3.56,1.17-7.16.14-10.95.8l-5.25,2.81v3c-1.21.25-2.71-.67-3.63.67-1.15,1.67-2.78,1.33-4.37,1.33.34-2.52,3.08-3.22,4-5.45.65-2.61-4.47-3.73-1.76-6.58-1.29-2-2.33-3.38-4.39-4.08-1.72-.59-3.11-2.17-5.17-3.7a33.46,33.46,0,0,1-4-.56C2648.37,565.55,2648.23,564.57,2648,564Z" transform="translate(-720 -528)"/></g></g></svg>