<svg xmlns="http://www.w3.org/2000/svg" viewBox="0 0 4320 2160"><defs><style>.cls-1{fill:#69fe55;}</style></defs><g id="Layer_27" data-name="Layer 27"><g id="Cfb"><path class="cls-1" d="M2226,446c.57-.23,1.55-.37,1.63-.72a40.6,40.6,0,0,0,.64-4.65c2.26-1.23,4.59-.47,6.83-.61,2-.11,4,0,5.25,0l7.08-3.78h13.7l2.14,1.8c1.51-.06,2.89,0,2.73-2,1,0,2,0,2.94,0,.25,0,.71-.47.67-.61-.12-.48-.37-1.24-.68-1.3A16.81,16.81,0,0,0,2266,434v-3.4l-4-3.73v-3.64l2.08-2.85c-.49-2.74-2.85-3.26-3.92-6.43V403.09L2267,396h7l-1.82,3.13,1.75,2v8c-1.82,2.45-1.82,2.45-1.71,6.09L2275,418h3c.2,1.18-.48,2.49,1,4h5v4c1.23,1.78,2.13,3.08,2.72,3.92,3.51.23,6.37-.32,8.86.42.5,1.56.85,2.66,1.17,3.64H2302c.16,2-1.34,1.66-2.55,2.09a8.47,8.47,0,0,0-2.95,2.46,3.6,3.6,0,0,1-3.42,1.48c-.2,0-.54.36-.7.63s0,.45,0,.69c1.71.71,3.62,1.09,4.95,2.73h5l9.68,5c-.36,2.3.83,4.69-.79,6.75-2.28.19-4.54.63-6.73-.29-.41-1.18-.82-2.34-1.2-3.45-2.46.09-4.76-.65-7.11.61v4.51c1.31,1.31,2.49,2.47,3.64,3.68.05.06-.25.45-.39.69s-.61.48-.8.41c-3.73-1.46-7.64-2.42-11.15-4.07-2.63,1.37-3.46,3.8-4.85,6.84l-3.65-5.35c-.77,2-1.21,3.13-1.66,4.28-2.14-1.12-4.24-2.56-6.82-1.18l-1.76,1.76h-6L2261,466c-2.26.27-4.63-.72-6.73.68-.1.66-.19,1.28-.39,2.53l4.44,3.3-2.56,2.83c.63,1.54,1.2,3,1.88,4.6h-4.26c-1.41.53-1.73,2.36-3.4,2.06-.26-1.88.6-3.9-.89-6h-6.25c-1.37-2.6-3.52-1.91-5.45-2l-5.15,5.6-4.09.82v2.77c.42.37.65.78.9.78,2.63,0,5.27,0,7.89,0l2.12-2H2250c-.23.57-.46,1.62-.71,1.63-2.54.06-3.89,1.68-5.08,3.63,2.09,1.54,4.47.41,7.54.87l4.8-6c2.37-.45,4.18.55,5.42-1.13-1-1.21-2.69-2.09-1.78-4.38a14,14,0,0,0,3.26-1.2c1.09-.71,1.83-1.95,2.89-2.73a11.37,11.37,0,0,1,2.81-1c.48,1.4.87,2.56,1.27,3.72l3.74,3.74c-.74,2,.62,4.36-.79,6.48l-3.48,1.16a8.87,8.87,0,0,0,5.79,3.79c.38,2.5.84,5-.49,7.32-2.21.81-3-1-4.25-1.87h-6c-.74.74-1.5,1.4-2.13,2.17a9.33,9.33,0,0,0-.83,1.64c-1.75,3.23-2.65,7-5.92,9a15.35,15.35,0,0,1,1.86,2.7c.2.49-.17,1.21-.29,1.83-.24.22-.48.62-.73.62-4.65,0-9.3,0-12.94,0-4.42,1.85-7.68,3.87-9.94,7.18,1.44,2.49-4.69,3.81-1.14,6.72l2,.11,2.15-2h3c-.23.56-.43,1.14-.7,1.69-1.45,3-3.94,5.69-3.4,9.64l-3.41,1.18.57.58-5.15,3.64c.1,2.12.17,3.39.23,4.53,3.57,1.7,7.46,2.52,9.72,5.72,1.12,1.59,4.34-.07,4.14,3h-7l-2.2-2.06h-3.9l-7.87-7.87L2219,548H2214c4-7.42,4-7.42,3.08-9.92-1.5.83-2.49,3.71-4.81,1.19.41-3.62-2.1-6.12-3.33-9.21-1.65,1.53-.59,3.3-1,4.85l-2,2.15c-.35,1.55.71,3.31-.76,4.71-3.13-1.77-4.9-4.64-6.41-7.91l-2.58.63c-.21,1.85-.39,3.42-.66,5.72.07.16-2.2,0-1,1.36,2.29,1.43,5.29-.92,7.84,1.87l-5.82,4.14a68.29,68.29,0,0,0,8.2.51c1.33.22,1.49,2.29,3.21,1.91.08,2-1.81,2.54-2.79,3.74-2.21,2.73-6.33,3-8.26,6.21-.17.29-1.59-.22-1.83.09a5,5,0,0,1-5.12,2c-1,0-1.85,0-1.61-1.39l1.44-1.44c-.29-1.74,1.48-3.95-1.57-5.36L2178,559.08c.06,4,.06,4,1.24,5.16h7L2190,566c3.16.78,4.32,2.9,4,6.6a5.31,5.31,0,0,1,0-.6h-3l-2.15-2H2185l-2.18-2H2171l-2.11-1.93H2159l-2.08,1.81-2.44-2-.64,3,6.22,3.31H2167l2.39,1.8h5.29c1.45.52,2.07,2.72,4.27,1.94l2-1.86,2,1.86,2-1.83,2.07,1.81c1.75.41,2.5-.75,3.55-1.48s2.26-.84,3.38-1.84a1.74,1.74,0,0,1,1.88.73A7.17,7.17,0,0,1,2196,576l-1.69.69c-1,1.63.77,4-1.36,5.29h-4.07c-.63-1.35-1.27-2.7-1.85-3.92h-4l-2.08,1.78-2.23-1.86c-1.51.06-2.88.07-2.72,2h-4a1.7,1.7,0,0,0-2-2l-3.43-2H2151l-2.17-2H2145l-2-1.82c-2.89,0-5.51,0-8.14,0-.24,0-.47.44-.85.83l4,1.86v2.53l4.28,3.48-.79,2.89h-6.7l-2-2h-8l-1.73-1.73c-1.53-.43-3.27.59-4.68-.67-.39-1.16-.77-2.31-.83-2.49l-5-2.9H2096c-.23-1.87.55-3.86-.75-5.85-2.91-.63-6.23.58-9.15-.8,0-.9-.07-1.54-.11-2.18-2.27-1.4-5.32-1.9-6-5.17h25c.41.44.85.93,1.25,1.38,2.24,1.2,4.55.45,6.79.55l1.41-1.42c1.85-1,3.85-.32,5.82-.51,1.79.35,2.74,3,5.11,2,1.71-.7,3.42-1.37,5.22-2.1l2.38,2h10l2.63-2.49c1-2-.64-4.83,2.25-6.2V541.38l2.05-2.4v-3.89c-1.09-2.07-4.36-2.93-4-6.15-2.15-1.44-3.05-4.39-5.94-4.94,0-.31.13-.76,0-.9a18.17,18.17,0,0,1-5.09-7.09c0-.1-.58,0-.89,0l-3.92-2.15a19,19,0,0,1-3.78,2.08A1.68,1.68,0,0,1,2124,514a1.7,1.7,0,0,0-2-2l-.82-2h-10.32c-1.45-2.09-.61-4.1-.86-6a1.7,1.7,0,0,0-2-2v-2c3.51,0,7,.07,10.54-.05A1.51,1.51,0,0,0,2120,498c.22-.56.38-1.55.68-1.6,1.88-.3,3.8-.38,5.51-.52,2,1.22,3.82,2.61,6.28,2.1,1.59-.89,3.15-1.9,3.53-4,1.19-.21,2.52.51,4-1v-7h9.23l1.11,3.34c.24.22.48.63.72.63,3.3,0,6.61,0,10.15,0,1.52-3.48,5.63-3.66,8.19-6h5c2.48-1.83,6-2.14,7.7-5.35v-5.71l2.9-2.9h7.48l7-4.06h3.5c2.11-1.45,2.9-4.72,6-4l9-9v-6.13c2.1-1.47,4.12-.63,6-.88Zm21,64,5.13-5.13c-.63-2,.55-4.29-.81-6.63l-2.48-.14c-1.44,2.47-1.42,5.85-5.44,6-1.18.06-2.28,1.83-3.39,2.78L2243,510Zm-103.71-12.29.71-.71a6.53,6.53,0,0,0-1.34-.63c-.17,0-.44.41-.66.63Z" transform="translate(-558 -351.87)"/><path class="cls-1" d="M2094,386c3.84-1.56,5.66-5.4,9.48-8.12h18.23c.18-1.91.32-3.48.47-5l5.49-2.87c2,0,4.67,0,7.33,0,.24,0,.47.44,1,1-2.25,2.25-4.87,4.27-6.67,6.85-1.63,2.34-2.76,5-5.12,6.89v4.87c5.75.91,11.37,0,16.95.52,1.07,1,1.35,2.29.26,3.38s-1.75,1.95-1.37,3.46l-7.83,7.67v5.14l4.92.36,3.54,3.54,2.66.69c1.73,3.64,3.44,7.26,5.25,11.08,1.42.66,3.4.93,4.68,2.63h3.81l4.31,4.32c.22.22.62.53.58.73-.68,3.58,4.12,3.95,4.17,7.35,0,1.65,1.59,3.27,2.67,5.31,3.17.57,6.8-.09,9.45.25L2184,449v8.26l-3.64,1.24c-.16.78-.35,1.69-.59,2.88l-3.35,1.18c-.26,2.74,2.81.44,3.41,2.82v3.91c-1.87.81-3.8,1.15-5.12,2.81h-5.78l-1.5,1.5c-.27.14-.55.4-.82.4-5,0-10,0-15,0l-3.52,2.26-3.37-2.17h-3.6L2139,476h-5.91l-2.1-2h-6l-6,6h-14c-.82.83-1.3,1.3-1.95,1.95-2.46,0-5.1,0-7.74,0-.26,0-.52-.33-.81-.52-.46-1.41.55-1.42,1.46-1.45s2,0,3.12,0l7-7.21V470a39.69,39.69,0,0,0,4.63-.05A1.54,1.54,0,0,0,2112,468c4.17,0,8.35.06,12.52-.05a1.23,1.23,0,0,0,1.2-1.84c1.27-.32,2.82-.18,1.46-1.93a17.45,17.45,0,0,0-1.46,1.93c-1.56-.3-3.47.35-5.2-.59l-1.6-1.6c-2,.14-4.13.23-6.27.51-.28,0-.44,1-.65,1.57h-6c-.22-.56-.38-1.55-.68-1.6a6.66,6.66,0,0,1-5.3-3.92V459c1.5-2.23,4.51.26,6-2,1.33-2,3.71-.24,5.26-1.35.41-.29.48-1.07.7-1.63.54-.2,1.43-.28,1.55-.63.6-1.7.95-3.47-.54-5.49-.41.85-.71,1.49-1,2.12h-5.43c-.2-1-.43-2.14-.64-3.17l4-1.58-1.74-2.11c.33-.35.7-1.08,1.08-1.09,5.26-.07,10.52-.05,15.74-.05,3.09-3.83-1-6.39-1.68-9.49-.38-1.72-3.21-2.23-3.36-4.51a1.7,1.7,0,0,0-2-2h-10c-1.52-.23-1.9,1.3-2.89,1.86s-2.22-.18-3.11-1.86c0-4.21,0-4.21,1.72-7.89,1.27-.32,2.82-.18,1.46-1.93a17.45,17.45,0,0,0-1.46,1.93c-1.32-.11-2.92-.11-4.67-.11-1.3.92-2.28,3.31-4.58,1.47-1.41-2.23.56-5-1.34-7.4-1.76.94-.92,2.61-1.13,3.93-3.1.32-5.22-.84-6-4a1.55,1.55,0,0,0,2-1.52c.15-1.34-.08-2.62-2-2.48v-4.9l1.93-2.06-1.85-2c-.18-4.21-.18-4.21-1.23-5H2082v-2c-.22-.55-.35-1.51-.68-1.59-1.19-.27-1.39.62-1.32,1.59-.56.23-1.52.35-1.61.7a35.66,35.66,0,0,0-.61,4.82l-3.39,2.52-2.51-.67,2.06-2.39v-5.77l2-2.23v-4.09l2.89-2.36c1.43-1.26,3.68.42,5.18-1.52s3.49-.93,5.34-.67c1.2,1.78.39,3.78.63,5.66-2-.08-2.8,2.79-5.09,2.13a12,12,0,0,0-.53,1.29c2.14,1.42,5.38-.72,6.75,2.35L2094,389Zm25.29.29L2118,387c.22.22.49.66.66.63A6.53,6.53,0,0,0,2120,387Z" transform="translate(-558 -351.87)"/><path class="cls-1" d="M4266,1516c.23-.56.32-1.46.7-1.6a8.74,8.74,0,0,1,2.53-.28c1.44,2.29.52,4.6.81,7.12l3.24,1L4276,1528c-.32,3.1.84,5.22,4,6,1.66-.29,2,1.84,3.17,1.91a6.61,6.61,0,0,1,3.41,1.52c1,.64,2.45.52,3.23.65,3.18-.52,3.58-4.35,6.83-4.19,1,0,2-1.42,3.18-1.83a7.81,7.81,0,0,1,2.67-.06l4.25,3.17-2.63,4.19v5.25l-6.11,4V1552h-7l-2.88,2.94v5.54c-.71,1.63-2.84,2.31-2,4.78a24.33,24.33,0,0,0-2.84,2.48c-2.05,2.4-4.48,4.28-5.89,7.5-1.49,3.4-5.23,5.47-10.28,6.44l-2.5-1.57h-5.07c-1.83-.77-2.78-3.61-5.36-1.4v5.5c-1.51,2-3.45,3.55-4.07,5.54-.88,2.82-3.3,4-4.9,5.94a73.82,73.82,0,0,1-5.24,5.3v8.14c-2.12,1.45-4.14.7-6,.84-1.65.13-3.32,0-4.94,0-3.05,3.38-8.52,2.91-11,7.42V1621l-2,2.24v3.86l-3.6,3.6c-.23.89-.46,1.79-.73,2.81-1.16.92-3,.34-4.15,1.94-.85,1.22-1.86,2.54-3.85,2.71-1.05.09-2.05,1.42-3,2.28-1.22,1.12-2.36,2.34-3.57,3.55h-6l-2.09-2h-7a1.7,1.7,0,0,0-2-2h-5l-2.19-2h-9.92c-1-2-2-3.89-3-5.94.68-2.73,3.3-3.91,5-5.84,2-2.24,4.31-4.16,6.29-6.41,1.74-2,4.66-2,6.31-4.16a65.56,65.56,0,0,1,5.28-5.67c3.07.6,4.52-3.43,7.51-1.93,2-1,3.7-2.58,6.17-2,1.77-1.34,3.37-3.28,5.36-3.86,2.53-.72,3.38-3,5.35-4.18h3.47l7.37-6.92v-3.24c.76-2.74,3.69-3.6,4.79-5.84H4225l2.91-2.91v-5.6c1.3-3.34,4.89-3.15,7-5.17.71-.7,2.52-.27,4-.37,1.35,2.7,2.72,5.4,4.06,8.07,3.29.42,4.08-3,6.47-4.07,1.68.69,3.34,1.76,5.11,2s3.21.38,4,1.67l7.33-7.34v-3.12c-2.42-4-7.57-4-10.9-6.9-.74-.65-2.54-.09-3-.09l-3.88-3.1c-.67-3.84,2.79-2.32,3.72-3.83,1.34-2.16,3.69-.58,5.53-1.54.1-.1.54-.33.54-.58.06-2,0-4,0-5.89l2-2.21v-10l-3.83-3.84c-.06-1-.13-2.24-.25-4.25-2.12-2.12-4.52-4.84-7.26-7.17s-3-6.51-6.46-8.31v-6.69c1.36-1.06,2.64-1.21,3.56.07,1.49,2,3.95.39,5.36,1.48a11.12,11.12,0,0,0,4.18,2.09c.36.09.49,1.06.72,1.63a4.91,4.91,0,0,0,4,4v6a25.3,25.3,0,0,1,1.95,4c.58,2,2,3,3.82,4.1l2.23-1v-3.66Zm-62,90c-2.52.34-3.17,3.55-5.35,3.88-2.73.42-3.94,1.86-4.7,4.16.14,2,2.09,2.48,2.9,3.84s1.41,2.75,2.1,4.12c2.7,0,5.35,0,8,0,.25,0,.48-.42,1.09-1-.19-.86-.44-2-.54-2.43-2.14-1.08-4,.28-5.27-1.26v-4.6l2.85-2.61c3.2-.4,6.22.67,8.91-.86V1606a15.83,15.83,0,0,1,1.37-2.33c1-1.18.95-2.24-.13-3.51-3.27,2-6.56,4-10.57,4.25C4204.42,1604.42,4204.22,1605.45,4204,1606Zm-19.29,18c-.09,1.49-2.55,1.49-2.32,3.41,2.27,1.92,3.29-.76,4.44-1l6.49,3.32c1.57-1.8,3.45-3,4.51-4.91-.46-.39-.7-.77-.95-.77C4192.92,1624,4189,1624,4184.71,1624Zm7.28-5.06c-.35-1.49.71-3.25-.77-4.74h-4.49l-2.27,2.46c1.62,2,3.08,3.79,4.42,5.42,1.91-.4,3.71.64,5.05-1Z" transform="translate(-558 -351.87)"/><path class="cls-1" d="M3942,1506c1.93.15,1.41-1.75,2.1-2.44,3.16-3.19,4.34-7.8,7.9-10.62V1487l-2-2.08v-4.24l3.61-1.23,4.54-5.48c4.83,0,8.79,0,12.74,0,.25,0,.48.41.9.78v10.09c-.28.34-.86,1.08-1.66,2.11v4.24c1.94,1.33,3.95.5,5.83.75l-1.18,2.51c-1.17,2.73-.56,5.69-.91,8.58a57.06,57.06,0,0,0-4.87,5c-1.12,1.43-1.74,3.24-2.95,5.6v5.08L3964,1521v12.12a18.36,18.36,0,0,0-2.44.88,32.16,32.16,0,0,0-2.77,1.83h-15.37l-2.48,2h-4.14l-3.19,4.11h-2.75c-1.32,1.36-3.08,2.58-4,4.26-1.17,2.12-3.78,1-4.9,2.75v2.28c-.81.22-2,1-2.52.64a64.88,64.88,0,0,0-9.08-4.58c-2.46-1.13-2.37-1.33-5.37-1.35l-2.09-1.94h-10l-3.76,3.76h-8.45L3880,1546a5.39,5.39,0,0,0-4.54-4.13c-1.35-.29-2.41-1.89-3.46-2.79,0-2.55,0-4.82,0-7.09a5.42,5.42,0,0,1,.64-1.65l1.33-1.42V1526H3881l2.3-2.1c.46,1.31.87,2.47,1.39,3.93l4.68.29,2.44-4h9.06l3,2.21c.9-.6,1.65-1.15,2.44-1.61a14.21,14.21,0,0,1,1.7-.72c1.23.26,2.67-.63,3.6.56,1.13,1.76-.71,4.16,1.55,5.45l1.94-.1,7.77-7.77c3.55-.41,7.17.19,10.33-.33l6.76-6.76v-5.67C3940.48,1508,3942.3,1507.67,3942,1506Zm3.73,8.51-3.87,2.25c.37,2.32-.53,4.07.41,4.73l3.87-2.25C3945.77,1516.92,3946.67,1515.17,3945.73,1514.51Z" transform="translate(-558 -351.87)"/><path class="cls-1" d="M1276,1582v-10.87l2-2.15v-6.11c3.21-1.57,3.78-5.38,6-8.06V1550c2.63,0,5.25,0,7.87,0a7.13,7.13,0,0,0,1.84-.6c-.27-3.33,3.26-4.38,4.22-6.62.09-1.65.15-2.91.26-4.75H1308v3.1l-4,1.84,1.83,2.11-1.71,2.09,1.57,1.57c-.68,1.23-1.4,2.51-2.07,3.73l2.28,2.54-1.92,2.08V1564l-2,.84v6.21l-1.71,1.71c-.25,4.28-.49,8.51-.77,12.74,0,.11-.44.2-.61.27l-2.86-2.31c0,6.07,0,11.3,0,16.54a5.52,5.52,0,0,1-.67,1.71l-3.75,1.23c1.22,2.37-.57,4.84,1.42,7,.66-1.37,1.27-2.66,2-4.14,1,2,1.85,3.74,2.73,5.52-3.11,1.64-6.62-.43-9.75,1.39,1.51,2.53,4.63,0,6,2.19l-1.75,1.92c-.28,1.17-.5,2.07-.61,2.52l-7.53,3.58c1.23,1.77,3.26,2.46,3.59,4.6l-6.25,1.08,2.94,6c-1.19,1.19-2.61,2.5-3.91,3.93-1.51,1.68-3.6,2.88-4.44,5.07v3.06l-4.49,5.19,2.78,3.84-4.28,2.9c-.06,6.47-.06,6.47-1.08,7.29-1.4-2-1.59-4.92-4-5.79a30,30,0,0,1-4.24-.51c-.36-.09-.49-1.06-.72-1.63v-3c1.92-2,4.38-.59,7.53-1.17l2.56-2.87c-.18-3.77-3.85-4.5-4.86-6.93-3.35-.49-5.06,4.58-8.55,1.46-1.39-1.11-.33-2.88-.77-4.78l5.9-3.89c.08-.84.22-2.42.38-4,1.37-.73,1.77-2.86,3.81-2.76a1.7,1.7,0,0,0,2-2v-4c-.25-1.21.67-2.71-.67-3.63-1.67-1.15-1.33-2.78-1.33-4.37,2.1-.16,2.82-2,4-3.29-.94-2.25,2.32-2.72,2-4.71h6.8l2.67,2.06c2.55-.2,3.1-2.08,4.48-3v-3.91l2-2.19v-5c1.56-3.2,2.8-5.69,4-8.2.1-.23-.11-.6-.14-.78l-1.64-2,1.66-2.14-3.13-2.9-1.36,3.74-5.36,1V1587l1.93,2.08V1593l-2,2.33V1601l-2.87,3h-7a1.46,1.46,0,0,1-1.92-1.52c.12-1.15.84-2.23,1.78-4.51v-7.87c.86-1.84,1.55-3.19,2.12-4.58.39-1,.79-1.75,2-1.52.55-.22,1.51-.35,1.59-.68C1277.86,1582.13,1277,1581.93,1276,1582Zm-2,51.8c-2.5.51-4.18-.4-5.63.83A4.68,4.68,0,0,0,1272,1638c.55-.22,1.44-.32,1.59-.7A15.43,15.43,0,0,0,1274,1633.8Z" transform="translate(-558 -351.87)"/><path class="cls-1" d="M2098,428v3.23c-1.09.38-2.44.52-3.36,1.23A53.79,53.79,0,0,0,2090,437c0,.92-.35,2.33.08,3.45.66,1.72,2.13,3,2,5.2s-2.88,2.87-2.11,5.15c-1.64,1.22-1.89,3.2-2.69,5l-4.57.5-1.64,1.64h-7.42l-7.2,4.1H2063l-1.76,1.77h-6l-2,2h-6c-1.5-.81-3.29-2.27-6.51-1.6l-2.66-3.49v-3.75L2041,454h2.24c.37-1.08.76-2.24,1.24-3.66l2.9-.59c.21-.65.5-1.53,1-3l-6.42-5.36V437.3l-2.8-4.15,5.26-3.19c4.69,0,10.67,0,16.65,0,.24,0,.47-.44.91-.88l-3.81-1.86c0-.7-.09-1.35-.16-2.33l5.57-4.76h5.16l2.31-2.05H2079L2081,420h11c.12,2.21,2.32,2.82,3.33,4.34C2096.17,425.6,2098.09,426.07,2098,428Z" transform="translate(-558 -351.87)"/><path class="cls-1" d="M600,426v2l-2.14,1.05c2.53,1.61,3.34,4.49,6.14,4.95a10.78,10.78,0,0,0,6,6c-.06,1,.08,1.8,1.37,1.63l1.72-1.72c1.95,2.78,3.87,5.49,5.7,8.09H622a22.59,22.59,0,0,1,10,7.16V461l2,2.17v2.16a34,34,0,0,1,3.42,1.22c.56.27.95.9,1.48,1.43h3.74c2.1,1.11,2.87,3.67,5.41,4.1,2.11.36,3.62,2.08,6.12,2.18,2.23.09,4.38,2.06,7.34,3.61H666c.74.28,1.17.3,1.29.51,1,1.57,2.65,1.59,4.33,2.07.19.88.37,1.79.63,3a6.33,6.33,0,0,1,2.43.62,57.9,57.9,0,0,1,4.44,3.95H684v2c-6.39,0-6.39,0-10-2h-4a1.7,1.7,0,0,0-2-2c-.43-.67-.72-1.65-1.33-1.92A7.17,7.17,0,0,0,664,484h-7c-1.64-1.64-3-3.74-5-4.83-2.66-1.48-5.2-3.79-8.66-3.13-.45.09-.8.73-.93.85.55,2,2.9,2.41,3.21,4.49l-1.44,1.44c.47,1.67,2,.93,3.06,1.42l5.7,5.7h6A6,6,0,0,1,662,488c2.72-.22,1.5,2.34,2.83,3.9l4.26.19,2.82,2.82c0,.65.06,1.3.1,2.13l4,1.87V502c-.55.22-1.51.35-1.59.68-.27,1.19.62,1.39,1.59,1.32a1.7,1.7,0,0,0,2,2c-.32,3.1.84,5.22,4,6v3.07l-3,2.72a40.77,40.77,0,0,0-4.35.61c-.34.08-.47,1-.69,1.6-.57-.23-1.54-.35-1.64-.72-2.17-7.85-2.15-7.86-6.36-12.3v-6.19l-3.8-1.46-2.62-3.6c-3.72,1.71-5.63-2.06-8.59-1.74-1.44-2.41-3.85-2-6.33-2.09-.26-.81-.54-1.69-.91-2.87-5.2-1.79-8.36-8.41-15.18-6.94-.36-1.5-.57-2.4-.85-3.59l-2.76-.7c-1-1.25-3.33-1.91-2.91-4.75l3.77-1.88,4.15-2.1v-2.14l-4-1.85V463c-1.89-1.89-3.72-3.82-5.66-5.63-1.6-1.49-3-3-5.41-3.77s-3.54-4.33-5.8-5.16-3.63-2.5-5.47-3.67a60.66,60.66,0,0,0-7.16-3.37,7.64,7.64,0,0,0-.53-2.09,14.8,14.8,0,0,0-1.92-2.37v-5.79L592,429v-3Z" transform="translate(-558 -351.87)"/><path class="cls-1" d="M3928,1606h-11l-8.5-8.92-2.47-4.7v-5.65l-4.17-3.51c.7-2.28-.86-3.2-1.85-4.25v-11c.55.22,1.13.4,1.65.67.8.41,1.57.88,2.35,1.33l4.17,2c1.39.67,2.73,1.71,4.18,1.9a14.42,14.42,0,0,1,4.38,1.57c1.89.87,4.37.45,6.23.57l1.92-1.92h7.1l8-4.12h2l2.15,4.58c-.55-1.6-.18-1-.18-.44.05,5,0,9.93,0,14.86l-3.89,3.89V1601c-2.39,1.78-4.77.65-7.13,1-.63,1.27-1.29,2.63-2,4-.08.14-.63,0-1,0-.22-.55-.35-1.51-.68-1.59C3928.13,1604.14,3927.93,1605,3928,1606Z" transform="translate(-558 -351.87)"/><path class="cls-1" d="M2480,1474l-1.84-3.16,3.08-3.08h10.15c1.78-3.35-1.26-4.11-2.47-5.75-2-.78-2.72,1.23-4.08,1.83l-1.67-1.67-6.66-.32-.63-2.61c1.58-1.85,4.13-1.69,5.64-3.59,1.06-1.33,3-2,4.44-2.86.76-2.16-1.6-2.72-2-4.55a21.2,21.2,0,0,1,.45-3.52c.09-.36,1-.49,1.62-.72h5.85l2.79-3.83c3.27,0,5.9,0,8.53,0,.24,0,.47.44.77.74v4L2502,1447v7.86l-2.14,2.3c.18.8.38,1.71.66,3l2.49-2.06h3.61a11,11,0,0,0,4.42-6.08H2522c-.25,1.21.67,2.71-.67,3.63-1.67,1.15-1.33,2.78-1.33,4.37,0,.32.14.79,0,1-4.33,4.35-8.69,8.67-12.28,12.23L2502,1476h-4.93l-2.1,2h-5.85C2486.5,1476.11,2482.29,1474.26,2480,1474Z" transform="translate(-558 -351.87)"/><path class="cls-1" d="M1428,1550a5,5,0,0,0-2-5.17c.84-3.24-2.37-2.24-3.5-3.4-2-2-6-1.37-6.55-5.49l1.26-2.33,14.64,7.31c.06.89.13,2.17.28,4.56l3.25,2.14c-.06.06.36-.16.38-.42.15-2,.23-3.93.36-6.57l3.9-2.8V1531c1.53-2.8,4.9-3,7.25-5H1451l2.19,2H1459l2.22,2c1.79,0,3.46,0,5.13,0,.3,0,.79,0,.88-.23,1.54-3.3,5.89-.29,7.67-3.45.43-.77,2.41-.25,3.33-1.46a30.1,30.1,0,0,1,2.8-2.85h3c.73,3.2-1.78,5.28-2.94,7.73-.94,2-3.19,3.31-4.77,5-.85.92-2,1.92-2.21,3-.65,3.07-2.86,3.81-5.39,4.67-1.08.36-1.8,1.81-3.33,1.56-3-.5-4.88,3.49-8.18,2l-2.21,2h-7.85l-2.16,2h-17Z" transform="translate(-558 -351.87)"/><path class="cls-1" d="M566,439c.18-2.22-.62-4.52.65-6.84h14.54c1.48,1.73.58,3.77.75,5.65.15,1.63,0,3.29,0,4.94.73,1.35,2.72,2.08,2,4.21l8,7.78a22.56,22.56,0,0,1-.06,3.66c-.09.6,0,2.06-1.69.94-2.65-1.73-5.58-3-7.54-5.65-1.56-2.11-4.59-2-6.23-4.15a49.1,49.1,0,0,0-4.85-4.94Z" transform="translate(-558 -351.87)"/><path class="cls-1" d="M3612,808v-9.31l3.55-1c.18-.75.38-1.63.58-2.46L3614,793a2.37,2.37,0,0,1,0-1c.88-1.93,1.81-3.84,2.76-5.83h6.52a7.88,7.88,0,0,1,.67,1.89c.09,1.3,0,2.62,0,3.93v3c-.67.7-1.33,1.41-2,2.12V803l-2,2.1V810h-3.18a21,21,0,0,1-1.2,3.29c-.22.41-1.06.48-1.62.71a1.54,1.54,0,0,1-1.95-1.37A39.69,39.69,0,0,1,3612,808Z" transform="translate(-558 -351.87)"/><path class="cls-1" d="M580,424c-.22.56-.45,1.12-.74,1.84H567.42L558,419.18v-7.71l2-3.47a28.61,28.61,0,0,1,7.06,6c.1.15.62,0,.94,0a1.7,1.7,0,0,0,2,2c.24,1.21-.58,2.61.63,3.65,1.85.29,3.74,1.12,5.5-.8a22.88,22.88,0,0,1-3.42-1.23c-.41-.22-.48-1.06-.71-1.62h6c.25,1.21-.67,2.71.67,3.63C580.34,420.78,580,422.41,580,424Z" transform="translate(-558 -351.87)"/><path class="cls-1" d="M2432,1492v-3c1.84-2.13,4.28-.63,6.77-1.11l2.24-1.76h13.55c1.06.51,2.43,1.16,3.79,1.83,1.72.86,3.32,1.86,3.65,4-.22.56-.37,1.54-.69,1.6a36,36,0,0,1-4.27.44l-2-2Z" transform="translate(-558 -351.87)"/><path class="cls-1" d="M2142,361.24V357l2.92-2.86c3,.95,5.1-1.9,7.7-2.25,1.57.95,2,2.5,1,3.33-1.79,1.57-1.75,3.38-1.51,6l-4,2.94c-1,.23-1.75-.88-2.81-1.64A12.62,12.62,0,0,0,2142,361.24Z" transform="translate(-558 -351.87)"/><path class="cls-1" d="M4182,1644v3l-2.85,2.75h-6.91c1.35-3,2.07-6,4.79-7.78h3A1.7,1.7,0,0,0,4182,1644Z" transform="translate(-558 -351.87)"/><path class="cls-1" d="M2112,430a1.47,1.47,0,0,1-1.38,1.92c-1.81-.21-2.52,1.31-3.77,1.95-.89-2.67-.89-2.67,1.15-3.87Z" transform="translate(-558 -351.87)"/><path class="cls-1" d="M4234.35,1496.88l4.66-.93c1.36,1.42,1.29,2.53.38,3.72C4237.57,1499.64,4237.39,1497.53,4234.35,1496.88Z" transform="translate(-558 -351.87)"/><path class="cls-1" d="M1602,1354h4c.33,2.07,2,3,3.43,4,1.55.3,3.28-.67,4.38.78.19,1.06.36,1.94.6,3.25H1622c-1.74,1.89-5.34,3.82-7.53,4-1,.07-2,0-2.79,0-2,1-4.2,1.69-5.63,3.12-1.84,1.87-4.47-.27-6.14,1.88s-4.27.56-6.39,1c-1,.21-1.75.76-1.52,2-4.21,0-4.21,0-8,2h-13c-3,1.38-2.65,5.07-5,6.93,1.82,2.18,4.26.64,6.36,1.07,1.69-.44,2.64-3.2,5-1.58,1.62,1.81.24,2.94-1.29,4.45V1395c-3.71,2.93-5.16,6.79-6.73,10.7-1.77-.13-2.31-1.86-3.46-2.77a39.59,39.59,0,0,1-3.1-3.05c-1.56,2.84-.51,5.8-.93,9.12,1.66,1.53,3.55,3.27,5.48,5a5.61,5.61,0,0,0,1.82-.26,8.1,8.1,0,0,0,1.61-1.55h4.45c.8,1.82,1.14,3.68,2.59,5-1.31,1.63-3.14.35-5.65,1.48-3.15,2.13-3.11,8.41-8.21,9.63V1436a10.64,10.64,0,0,0-1.69.73,16.84,16.84,0,0,0-1.83,1.58,21.43,21.43,0,0,0-3.85-2.24c-1.18-.42-2.9.23-3.79-.42-1.33-1-2.47-2-4-1.75-1.35-2.06-.63-4.08-.77-6-.11-1.65,0-3.31,0-4.9l-1.48-1.48c-.17-.26-.5-.52-.5-.79,0-4,0-7.94,0-11.71-1.5-1.83-3.34-.5-5.11-1.36l-4.38-2.51-2.59-4.49c-3.48-1.52-7,.42-10.07-1.66,3.06-2,6.51-.25,9.8-1.47.15-.76.34-1.68.59-2.88l3.26-1.15c1.23-2.1-.66-5.22,3-7l-3.72-.76c-1.72-1.7,1.64-2,1.35-3.6-.21-1.17-.58-2.62.74-4l4.12-.24c2.2,2.36,4.66,4.93,7,7.6.35.4.25,1.21.37,1.86,1.78,1.22,3.81.46,5.72.6,1.65.13,3.32,0,5,0,2-2.62,1.41-4.86-1-6.93v-5.88l-2-2.19c.5-.33,1-1,1.54-1,9.28-.06,18.55,0,27.68,0l1.39-3.8,2.09-.2c3.89-2.84,6.28-7.54,11.27-9Z" transform="translate(-558 -351.87)"/><path class="cls-1" d="M3988.93,1441.85h6.22l2.95,4.12c.28,3.46-5.39,1.32-5.93,6.36v6.6c-4.29,3.69-7.5,9-13.64,10.67-.23-.42-.5-.69-.51-1-.05-1.29,0-2.58,0-3.94l-3.81-1.39v-2.89l3-.6c1.58-1.45.77-3.36.36-5.46l-2.78-.57c-2-2.21,0-4.8-1.49-8.35l4,2.3c1.49-2.08.43-4.44.72-6.65.67-.72,1.79-1.36,1.92-2.16.54-3.48,3.21-6,4-9.26a13.35,13.35,0,0,0,.15-2.69l2.86-3,2.93,2.93v3.83L3992,1433v3.59C3991.1,1438.09,3990.33,1439.41,3988.93,1441.85Z" transform="translate(-558 -351.87)"/><path class="cls-1" d="M2132,592v-5c1.47-1.82,1.89.34,3.07.85l6.52.32c.23,1.11.41,2,.62,3l6.62,3.21c.81-1.74,1.44-3.1,2.09-4.48l2.2,2.07H2157l1.79,1.79,4.58.34c.23.8.49,1.68.75,2.55a32.76,32.76,0,0,1-4.8,2.84,23.75,23.75,0,0,1-4.95.76c-.17.83-.35,1.74-.65,3.19l-2.82.52c-2-2.62.16-5.56-1.67-7.78-3,.93.16,3.56-.31,3.81l-3.9,3.9-2.1-2H2140v-4.87a8.24,8.24,0,0,1-1.81-2c-.45-1.05.09-2.52-1.48-3.11Z" transform="translate(-558 -351.87)"/><path class="cls-1" d="M2126,588a7.17,7.17,0,0,1-2.67-.08c-.61-.27-.9-1.25-1.33-1.92,1-1.7,2.39-2.58,3.1-1.82.91,1,2.45,1.55,2.59,3.19Z" transform="translate(-558 -351.87)"/><path class="cls-1" d="M1266.23,1668.56l-2-1.74C1265.93,1665.46,1265.79,1667,1266.23,1668.56Z" transform="translate(-558 -351.87)"/><path class="cls-1" d="M2522,1452a7.17,7.17,0,0,1,.08-2.67c.27-.61,1.25-.9,1.92-1.33a7.17,7.17,0,0,1-.08,2.67C2523.65,1451.28,2522.67,1451.57,2522,1452Z" transform="translate(-558 -351.87)"/><path class="cls-1" d="M2244,524c-.43.67-.72,1.65-1.33,1.92a7.17,7.17,0,0,1-2.67.08v-2.91c.95-1.13,2-2.07,3-3.08C2244.56,521.41,2243.77,522.79,2244,524Z" transform="translate(-558 -351.87)"/></g></g></svg>