<svg xmlns="http://www.w3.org/2000/svg" viewBox="0 0 4320 2160"><defs><style>.cls-1{fill:#fdf909;}</style></defs><g id="Layer_20" data-name="Layer 20"><g id="Csa"><path class="cls-1" d="M2594,668v-8.93l-2-2.13V653l1.91-2.07c.4-1.65-.6-2.48-1.4-3.54a11.77,11.77,0,0,1-1.24-3.38h-6.15l-2.17-2H2579l-2.16,2H2575l-5.81,5.81h-14.41L2554,648c1.22-.25,2.66.62,3.77-.78.16-1.47.33-3,.48-4.49.36-.31.61-.7.85-.7,4,0,7.94,0,12.1,0,.76-1.54,2.21-1.86,3.88-2.24,1.09-.25,1.79-1.9,2.87-2.64A32.22,32.22,0,0,1,2582,635v-3h4.62c2.41-1.44,4.52-2.78,6.72-4,.46-.25,1.25.1,1.76.16l2.36,1.95H2607l2.66,2.07,8-4.21h11.27l2.22-2H2635l2.27-2.05H2641c.88-.76,1.62-1.38,2.09-1.78H2649l2.56,2.05h11.65l1.6,1.6,4.93.54c.16,1.71.31,3.28.46,4.83L2673,634h4l2.21,2.06H2683l2.34,2.05H2691l2,1.6a14.5,14.5,0,0,1,2.69-1.65c.49-.17,1.18.24,1.78.39,1.68,2.24-.7,5.25,1.4,7.41l6.68.33c.4,2.18.73,4,1,5.79h4.12c3.49,2.31,5.37,5.7,7.3,9.78V666a1.5,1.5,0,0,0-1.94,1.46c0,1.49-.68,3.19,1.16,4.72,1.94-1.2,4.67,1.31,6.71-1.22l-1.93-2V666h3.29l3.48,4H2734v2c1.25,1.86,2.13,3.19,2.75,4.12h6.37c.91,1.76,1.74,3.36,2.56,5a16.64,16.64,0,0,0-1.4,2.8c-1.27.32-2.82.18-1.46,1.93a17.45,17.45,0,0,0,1.46-1.93c2.39.11,5,.11,7.72.11.22.55.29,1.43.69,1.61,2.43,1.13,4.93,2.11,8,3.38a32.11,32.11,0,0,0-4,1.4c-.4.21-.47,1.06-.69,1.61h-6.95l-2.18-2H2743l-2.26-2h-9.1c-2.34-1.2-4.39-1.67-5.52-3-1.8-2-4.73.38-6.17-2.08V681a14.06,14.06,0,0,1-7.92-6.38c-.06-1.4-.13-2.68-.13-2.72-2.41-5.17-7.48-5.45-9.92-9,0-.65-.06-1.3-.06-1.5L2695,654h-6.87l-2.91-4.1h-8.37l-3.76-3.76H2669c-1,.79-1.89,2.48-4,1.82l-4-3.86h-11.39c-.55.93-1.56,2.67-2.23,3.8h-4.91c-.2-1-.39-1.92-.61-3l-2.73-2.73c-3.05,1-5.12-2-7.84-2.24L2629,642h-11.7c-2,2.33-5.8,2.09-7.26,5.24V650c-.33,0-.87-.11-.94,0a8.67,8.67,0,0,0-1,2.47c-.2,1.23.16,2.48-1,3.54a3.72,3.72,0,0,0-1,2.46A1.49,1.49,0,0,0,2608,660l-2,3.47v3.69l-2,1.73V672h-3.09l-1.83-4Zm44-39c1.05,1,2,2.06,3.1,3h2c1.16-1.35,1.37-2.68-.31-4.13C2641.48,628.55,2639.74,627.23,2638,629Z" transform="translate(-684.01 -544)"/><path class="cls-1" d="M2090,586c0,1.59-.34,3.22,1.33,4.37,1.34.92.42,2.42.67,3.63-1.21.23-2.6-.57-4,1,.14.79.33,1.91.59,3.32l2.48-2.36H2094v6h-3l-4.87,5c.08,1.48-.64,3.13.7,4.92h10.6c.29,1.15.51,2.05.72,2.86l-4.25,4.49c1.33.47,2.52.78,3.62,1.3.56.27.95.9,1.46,1.41h9.88l2.19,2h5.31c4.61,2,5.28,6.8,8.61,10h6c1.7,1.36.83,2.8,1.08,4-.67.43-1.65.72-1.92,1.33A7.17,7.17,0,0,0,2130,642h-17c-1.41,2.44-4.53,2.07-6.43,3.9-.67.65-2.5.1-3.59.1l-3.87,3.87h-5.81l-7.39-7.74a34.49,34.49,0,0,0-1.86-3c-1.17-1.63-3.48-1.16-5-2.7-.73-.75-3.16-.42-4.51.16-1.11.48-2,1.37-3.38,1.56-1.09.14-2,1.35-3.2,2.2l-3.72-2.36c-1.53-.28-4.49.27-7.39,0-.23-.23-.62-.44-.68-.71-.58-2.91,0-5.8-.26-8.19l1.91-1.91c-.09-1.58.65-3.24-.57-4.83l-4.55-.51c-1.4-1.09-.51-2.54-.77-3.77.57-.23,1.54-.36,1.63-.72a24.86,24.86,0,0,0,.46-3.67l5.92-5.74V599l9.84-5c2-.26,4,.57,6.19-.92-.18-.94-.41-2.06-.56-2.82l-3.87-.88c1.48-1.48,2.41-2.85,3.7-3.58,1.48-.84-.51-3.5,2.06-3.47.43,1.2.84,2.35,1.14,3.17,2.3,1.31,3.24-.31,4.43-1.45l2.11,1.94Zm34.29,52.71L2125,640c.22-.22.66-.49.63-.66A6.53,6.53,0,0,0,2125,638Z" transform="translate(-684.01 -544)"/><path class="cls-1" d="M2486,626h-4.95l-2.16-2H2475c-1.72-1.65-1-3.54-.57-5.39,2.94-1.66,6.43.47,9.45-1.2-1.12-2.78-3.77-.36-4.91-1.59-1.41-1.51-3.23-1.86-4.91-2.35V611l2-2.07V603.5c1.38-2.46,2.58-4.57,3.88-6.89l-3.45-1-2.94-3.6H2468c-.23-1.21.56-2.59-.67-3.68l-2.66,1.36c-1.23-1.09-.44-2.47-.67-3.68a1.7,1.7,0,0,0,2-2h2.82l3-2.34,4.46,2.6,3.09-2.33H2483l2.12-1.86H2493l2.21,1.88c.83-1.54,2.91-1.94,2.81-4,2.14.32,3.11,1.93,4,3.63.4.78.73,2.24,1.16,2.26,2.83.14,4.79,3.39,7.82,2.15.8.72,1.51,1.36,2.16,2H2524v4.9c-1.79,1.1-1.8,3.18-2.68,4.78L2518,598.8V602l-4-2.08L2504,605v6a83.1,83.1,0,0,1,8.21,4.34c1.33.89,2.53.35,3.76.62.43.67.72,1.65,1.33,1.92a7,7,0,0,0,2.67.08l-2.08,3.62,3.49,2.76c1.2,3-.22,5.29,1.21,7.27,1.24.73,3.56-.25,3.38,2.35h-3.42l-3.26,3.88c-2,.45-3.79-.58-5.28,1.09l3.81,1.82c.12,1.62.24,3.18.38,5h7l2.66-2.67c0-.63.07-1.27.1-2.1l-4-1.87,2-2.16v-3c2.44-.39,3.27-2.83,5.1-4h2.9a1.54,1.54,0,0,0,1.37,2,39.69,39.69,0,0,0,4.63,0c.23,1.21-.57,2.59.61,3.63a17.54,17.54,0,0,0,1.81.36c.94.09,1.89.11,3.07.16.22.91.44,1.78.77,3.12.86,1.46,3.34,2.29,3.74,4.73h-7l-2.16-2h-3.64l-2.85-2.07c-2.43.37-3,2.15-4.37,3.08v3.94c-.52.37-1,1-1.53,1-2.46.39-5-.71-7.36,1.64-1.07,1.07-3.58.94-5.3-.67-.84-.78-2.22-1-3.42-1.48-.2-.86-.41-1.76-.64-2.73-2.71-.48-4.58-3.45-7.77-2.72-1.22-.24-2.63.59-3.65-.63-.38-1.17-.76-2.31-1.08-3.3-1.84-.41-3.56.6-4.94-.73l-1-3.12-2.83-.61c-1.32-2.62.91-5.54-1.49-7.61Zm8-32.58c1.23,1,2.2,2.47,3.12,2.44,2-.07,2.84,1.27,4,2.09h7.93c4.93-4.93,4.93-4.93,4-6h-5.8l-2.73-2.15c-3.33.16-6.58.31-9.82.51-.23,0-.45.44-.67.68v3c-3.3-.64-5.18,2.14-9.76,3.51,4.62.47,7.25,1.07,9.76-.23Z" transform="translate(-684.01 -544)"/><path class="cls-1" d="M720,658h-3l-5-5V649.1l-4-4.22v-3.15c-.38-2.72-4.45-3.1-4-6.34-2-2-2.33-5.14-4.62-7.13-1.88-1.63-2.24-4.38-4.13-6.33-1.63-1.69-2.2-4.49-4.6-6h-3.73L684,613v-2l1.55-1c2.29-.73,3.27,3.83,6.2,1.27v-8.51c-2.2-1.19-1.42-3.38-1.85-5.23-.33-1.41-1.51-2.63-2.33-3.95l3.09-3.3a42.49,42.49,0,0,0,4.61-.64c.35-.09.48-1.07.72-1.64h2c-.23,1.23.52,1.81,1.53,2s2-.09,2.94.06,1.76.74,1.53,2l-1.92.79,1.74,2.13.44,4.42,2.83,2.59c2.53.46,5-1,6.91,1.06v4.07c.44.42,1.1.79,1.36,1.35,1.7,3.61,3.27,7.27,5,10.87.2.41,1.08.49,1.65.72a1.7,1.7,0,0,0,2,2v2c0,2,1.88,3.06,2.36,5s3,3.39,4.5,5h2.89c-.65,3.45,2.36,4.79,4.22,7l-2,2.14,4.07,2v4.09c1.47.79,1.87,2.91,3.91,2.81v9.09c-2,1.72-3,3.15-.89,4.91H746a1.7,1.7,0,0,0,2,2c2.29,0,4.59-.08,6.88,0s4.51-.54,8.33,1.29c.09,0,.42,2.67,2.79,2.69l1.7.69c-.16,2-1.76,1.07-3,1.45l-1,2.88,4.65,3.49L766.05,683l2,2.08V690a1.7,1.7,0,0,0,2,2c-.26,1.89.61,3.92-.49,5.45L764.25,692H758c-2-3.79-2-3.79-2-8a1.7,1.7,0,0,0-2-2c-1.59,0-3.22.34-4.37-1.33-.92-1.34-2.42-.42-3.63-.67-.43-.67-.72-1.65-1.33-1.92A7.17,7.17,0,0,0,742,678c-.21-.54-.37-1.53-.63-1.56a18.31,18.31,0,0,1-7.51-2.4c-.47-.27-1.23,0-1.86,0-.45-.78-.92-1.55-1.33-2.35-.27-.52-.45-1.1-.67-1.65l5.81-2.77v-2.52c-2-1.25-3.94-.48-5.81-.71v-2c2.54-.34,5.19.65,8.06-.67-.12-2.21-.18-4.43-.44-6.63,0-.29-1.06-.47-1.62-.7v-5l-2-2.16V645c-4-1.08-6.2-4.41-9-7h-4c-2.08-2.09-4.06-4.32-6.31-6.24a28.81,28.81,0,0,0-5.47-3.48,5.5,5.5,0,0,0-2.84-.24,25.64,25.64,0,0,0-4,1.38l7.84,5.68v6.69c1.89,1,3.77,2.08,5.69,3.07,2.53,1.32,1.69,4.85,4.12,6.22Z" transform="translate(-684.01 -544)"/><path class="cls-1" d="M2362,600v5c1.35.68,2.71,1.4,4.11,2.05,1.11.52,2.26.95,3.64,1.52v6.65c-1.29,1.45-3.07.4-4.63.75-1.9,1.07-.85,2.91-1,3.75l-8.09,8.06h-7.27l-2.69,3.51V635c.75.86,1.38,1.6,1.93,2.24,0,.49.12.88,0,1.14-1,1.9-2,3.77-3.07,5.64h-3c-3.16-1.46-6.41-2.79-8.51-5.67a6,6,0,0,0-1-.32c-1.27-.16-2.92.18-3.75-.5-3-2.4-7.05-2.7-9.73-5.52H2313c-1.71-1.25-.64-3.08-1.15-4.68l2.85-3.08h12.42c.8.65,1.53,1.26,2.58,2.13l4.06-2.45h7.55c.53-1.5,1-2.65,1.52-4.25l2.06,4.35,2.23-2h4.15a12.85,12.85,0,0,1,1.25-3.39,29.13,29.13,0,0,1,3.42-3.51c.39-1.52-.34-2.46-1.28-3.52-.76-.87-1-2.23-1.47-3.35s-1.05-2.21-2-4.19c-.45-.54-2.55.4-3.56-1.3-.84-1.39-3-.51-4.17-2.06a8.06,8.06,0,0,1-1.7-4.42h-5.63l-6.15-3.31V591l-2.91-2.91h-7.83c-1.52-2.37-4.94-1.66-6.33-4.15s-4.63-1.91-6.29-4.17-3.69-3.82-5.59-5.72h-4.25l-1.13-3.39c-1.29-1.41-4.3.47-4.28-3l-2,2c-1.89.81-3.66.37-6.87-.34l4.85-1.63c1.19-1.45.37-3.13.53-4.7l-1.68-1.68c-.12-1.28-.27-2.85-.43-4.44L2280,554c.43-.67.72-1.65,1.33-1.92A7.17,7.17,0,0,1,2284,552l3.47,2H2290a1.55,1.55,0,0,0,1.52,2c1.34.15,2.62-.08,2.48-2h6v5l2,2.12c.32,2.23-.74,4.59.94,7h8.49c.75,1.7,2.44,2.21,2.7,4.2A4.47,4.47,0,0,0,2318,576c2.72-.22,1.5,2.34,2.87,3.94,2.13-1.49,2.74,1.3,4.41,2,2.9.17,5.86-.36,7.95.22,1.17,1.61,0,3.34,2.08,3.5,1.32-1,.43-2.48.69-3.71,2.44.39,3.27,2.83,5.1,4h2.9c3.32,1,4.53,4.52,7.87,6.23,3.49,0,7.42,0,11.36,0,.23,0,.46.43.73.7v2l-2,2.08Z" transform="translate(-684.01 -544)"/><path class="cls-1" d="M2282,652c.76-1.62,1.53-3.23,2.25-4.75-.6-.6-.83-1-1.07-1-5.29,0-10.59,0-16,0l-6.68,3.81H2257l-2.12-2H2207c-5.73,3.85-5.73,3.85-12.25,4.24l-1.58,1.58h-8.88l-9.92,4.95c-.18.7-.42,1.6-.75,2.87-2.7,1-5.71-.17-8.8.56l-1.94,1.82h-12.15c-.4,1.13-.8,2.29-1.21,3.45-3,1.84-3.8-1.39-5.51-2.5v-5c-.23-2.74,2.37-1.47,3.69-2.71l.51-2.45,5.46-2.81h9.55l1.13-3.37c2-.89,3.89-1.88,5.92-2.61a8.16,8.16,0,0,1,2.74,0l1.79-1.79h11.62c.84-.66,1.58-1.25,2.87-2.25H2195l1.86-1.86h28c1.2.45,1.76,2.84,4.58,1.32l1.54-1.43H2237l2.21-2h29.21l7.11-3.76h9.27c1.92,1.23,4.17,2.6,3.36,5.65l2.76.17,2.15-2h4.17l.91,2.38a17.31,17.31,0,0,1-8.35,6.79,9.39,9.39,0,0,0,1,2.56c1.65,2,3.64,3.78,5.15,5.89a26.79,26.79,0,0,1,2.27,5c-.81.91-1.47,1.63-2.21,2.45l4.05,1.89-3,3L2295,666H2292v-6.7C2288.67,654.33,2286.17,652.51,2282,652Z" transform="translate(-684.01 -544)"/><path class="cls-1" d="M2442,610h3l2.39,2.27,6.21-2.85c.17,1.8.28,2.93.37,3.79-2.72,1.84-5.67-.46-7.83,1.66,1.22,2.32,3.55.45,4.82,1.19L2454,619v5c-1.23-.23-1.81.52-2,1.53s.09,2-.06,2.94-.74,1.76-2,1.53h-3.36c-.34,1.75-.68,3.57-1.09,5.74h-4.3c-2.44,2.45-.95,3.81.67,5a75.32,75.32,0,0,1-.08,9h-3.14c-1.21-1.17-.37-3.17-2-4.28-.82-.56-.89-2.2-1.47-3.83l-2.09,4.32c-1.47-1.38-2.87-2.71-4.29-4.06h-3.89L2422,639v-6l-5.06-2.62-2.51,1.55c-3.11,0-5.92-4.82-6.47-10.79l2-2.23v-3.83c-2.19-1.07-4.57-2-6-4.24s-3.84-3-5.93-3.62c0-1-.12-1.46,0-1.7.48-.82,1-1.59,1.64-2.47-.73-2.71-3.8-2.53-5.63-4.08v-6l2-2.1V580a3.67,3.67,0,0,1,3.49,2.71A9.19,9.19,0,0,0,2403,588c1.61,1.4,2.55,3.67,5,4v5.17c3.78,2.43,4.67,7.26,7.9,10.39.69.67.17,2.59,2.1,2.44.25,1.22-.61,2.64.78,3.77l4.82.5c.19.93.37,1.83.58,2.91l2.58,2.58H2432c-.14-1.42-.25-2.55-.35-3.59l-5.09-.36c-.68-2.89-1.67-5.12-4.55-5.81a8.49,8.49,0,0,0-1.16-4.42c-1.29-2.29-3.51-4.48-2.84-7.58a5,5,0,0,1,5.07,2H2428v2l2.84,5.84L2435,612l2.11-2Zm-26.84,11.54c-1.69,2.74-1.35,4.54-.27,6.57l2.64-2.64C2416.78,624.22,2416,623,2415.16,621.54Zm18.15,3.71c8.39.9,8.39.9,8.3-1.38C2439.2,624.51,2436.76,623.16,2433.31,625.25Z" transform="translate(-684.01 -544)"/><path class="cls-1" d="M2058,688v-3l2.86-2.84c3.43.76,6-1.61,8.72-2.89,4.19-1.94,8.26-4.18,12.41-6v-2.54c4.57-2.36,4.57-7.95,7.66-11.57.69-.81.32-2.52.48-4.19l2.58-2.79h5.3l7.72,7.78H2116c2.07.35,3,2,4.26,3.94a16.65,16.65,0,0,0-2.18,3.64c-.39,1.24.08,2.56,1.92,2.42v4h-7.29l-3.1,3.65-3.46.88c-.12,2.46-.22,4.68-.26,5.56l-4.13,5.3-3.74,1.36v2.4a22.2,22.2,0,0,0-3.3,1.22c-.42.22-.49,1.07-.72,1.63-.31,0-.76-.13-.9,0a18.17,18.17,0,0,1-7.09,5.09c-.1,0,0,.58,0,.89h-4.5c-1.51.18-1.57,2.65-3.64,1v-8.64c-2.07-1.2-4-2.17-5.83-3.4-2.12-1.45-3.27-4.09-6.25-5.27l-3,2.29Z" transform="translate(-684.01 -544)"/><path class="cls-1" d="M3568,1456l-1.71.7c.2,2,1.81,1,3.08,1.51.22.69.51,1.56,1,3.06l7.5,6.87h11.47c.87,1.78-.31,1.71-1.13,1.85-1.25.21-2.61-.41-4,.66v5.7l-2.19,2.88v5.94l-2,.83c-.23-.56-.45-1.12-.74-1.84h-5.83l-3.48,2c-1.95-.67-2.64-2.36-4.59-2.34-1,0-2.17-1.37-2.82-2.41-1-1.63-2.89-1.1-4.09-1.91-.42-1.26-.8-2.41-1.25-3.74l-2.91,4.92c-1,1.63.75,4-1.36,5.29H3548l2-3.45V1475l2-2.1V1468c0-1.17,0-2.34,0-4l-4,0v-7l-2-2.18V1453l-3.86-3.86v-16l-4-4v-3.68l-6.14-5.59V1416h3c1.95,1.56,3.13,4.08,6.19,4.32,1,.08,2.68,1.74,2.68,2.67,0,3.2,3.05,4,4.07,6.3.54,1.48-.69,3.3.82,4.49l2.92.6c.2,1.73.38,3.3.57,4.92,1.5,1.07,2.32,3.33,4.81,2.74,1.11,1.5,3.42,2.25,3,4.73,1.54,1.26,2,3.13,2.61,4.86l5.39,1Z" transform="translate(-684.01 -544)"/><path class="cls-1" d="M2256,552l1.7-.7c-.69-1.26-1.38-2.52-2.17-3.94l6-3.17h7.69c.27.68.51,1.24.74,1.81-.67.43-1.65.72-1.92,1.33A7.17,7.17,0,0,0,2268,550c-2.5.46-3.6,2.71-5.18,4.27-2.12,2.09-4.88,2.66-7.45,3.7-.86.34-2.07,0-2.76.51-2.55,1.82-5.44,2.89-8.22,4.23-1.13.54-1.91,1.81-2.89,2.79-1.8,1-3.79.37-5.71.48-1.64.1-3.28,0-4.79,0a13,13,0,0,0-1.56-1.53c-1.83-1.25-4.77.68-6.09-2.12l-13.86-.5-2.51,2h-4.12l-2.75,3.47v3.78l1.7,1.7v8.37c-1.14,1.45-2.58.56-3.81.82l-1.81-.71a11,11,0,0,0,1.74-2.86c.3-1.29-.09-2.57-1.93-2.43a7.17,7.17,0,0,0-.08-2.67c-.27-.61-1.25-.9-1.92-1.33.32-3.1-.84-5.22-4-6v-4a5,5,0,0,0,5.12-2c.24-.31,1.66.2,1.83-.09,1.93-3.22,6.05-3.48,8.26-6.21,1-1.2,2.87-1.75,2.79-3.74l3.47-2H2219l2.12-1.93,7.87,7.87h3.9L2235,556h7l3.51-2c2.67,0,5.86.08,9,0A1.52,1.52,0,0,0,2256,552Z" transform="translate(-684.01 -544)"/><path class="cls-1" d="M2264,598.4l-3.83-3.08c-.5-2.16.64-2.92,1.39-4a15.37,15.37,0,0,0,1.35-3.73L2265,592c3.88.25,4.3-3.93,7.29-4.74l-6.12-6.12v-8.42a29.35,29.35,0,0,1,3.06-2.71c.74-.49,1.87-.41,2.58-.93,1.06-.76,1.8-2,2.89-2.7.66-.43,1.74-.22,2.46-.28,1.51,1.62.47,3.37.88,4.91l1.44,1.44c1,1.45.37,3.08.39,4.65l-1.64,1.64v8.46c2.17,1.18,1.45,3.34,1.87,5.19.31,1.41,1.49,2.62,2.28,3.89l-2.29,2.71v11.76l-2.66,2.83c-4.42-.25-8.08,4.17-12.79,2-.21-.24-.61-.48-.61-.73C2264,609.61,2264,604.3,2264,598.4Z" transform="translate(-684.01 -544)"/><path class="cls-1" d="M2592,700c0-2.88-2.09-1.43-3-2.22-1.79,2.71-.44,5.08-1.38,7.58l-4.58,4.58c-2,.74-2.91-.93-4.11-1.94H2574v-3.58l6-5.79c0-.56,0-1.22,0-1.87s-.12-1.7.16-1.84c3-1.46,1.24-4.67,2.59-6.84,2.39-3.83,4.2-8,6.29-12.06.07-.14.62,0,.95,0h4.93a5,5,0,0,0,5.07,2c-.35,2.51-3.07,3.24-4.1,5.54V691l-2.05,2.45v5.81Z" transform="translate(-684.01 -544)"/><path class="cls-1" d="M2334,544h5.08l1.83,4H2344c1.67-.3,2,1.53,3.25,2,.92,0,1.92,0,2.92,0a6,6,0,0,1,.8.09c.85.68,1.52,1.63,2.38,1.84,5,1.27,7.47,2.19,10.12,4.53.49.44,1,1.41,1.4,1.34,2.29-.48,3.12,2.22,5.13,2.19,0,.65,0,1.3,0,2,0,1,.12,1.87,1.32,1.65.32-.06.47-1,.69-1.6h4a1.7,1.7,0,0,0,2,2v6h-4.91l-2.41-2.27-4.62,2.31c-2.49-.38-3.32-2.85-5.15-4H2358v-3c-3.68-1.52-7.05-3.67-10.77-5.21a21,21,0,0,1-7.85-5.22c-1.19-1.35-1-3-1.88-4.17l-2.84-.74C2333.38,546.66,2334.25,545.23,2334,544Z" transform="translate(-684.01 -544)"/><path class="cls-1" d="M2436,690v3l-2.93,2.88h-8.74c-.62.8-1.61,2.11-2.63,3.39s-3,.52-4.24,2c-.8.93-3,.67-4.41.92l-3.09,2.17-3.41-2.38c-1.33,0-2.71,0-2.55,2-.56-.23-1.57-.39-1.61-.7-.29-1.9-.37-3.83-.57-6.49l5.21-3.75-.45-.37,9.34-4.68c2.91,1,5.55-1.33,8.56-1.9,2.83-.53,5.83-.11,8.68-.11C2434,687.59,2436.1,688,2436,690Z" transform="translate(-684.01 -544)"/><path class="cls-1" d="M2459,662h-4.06l-2,4.42c-.54-1.58-.94-2.73-1.45-4.23l-4.56-.33c-.86-1.33-2.77-1.86-2.85-3.41-.2-2.43,2.06-2.74,2.56-4.32h6.35l2.36,2h9.85l2,2h12.51c.11,1.2.2,2.1.28,2.87l-2.95,3h-15.92Z" transform="translate(-684.01 -544)"/><path class="cls-1" d="M3774,1472a39.69,39.69,0,0,1,4.63,0,1.54,1.54,0,0,1,1.37,2c.43.67.72,1.65,1.33,1.92a7,7,0,0,0,2.67.08h2v2.92c2.3,2,3.76,4.88,7.27,5.55A3.71,3.71,0,0,1,3796,1488c-3.61,2-3.61,2-8,2h-2a11.18,11.18,0,0,1-6.64-7.84l-4.79-.28-2.57-4.42V1474A1.7,1.7,0,0,0,3774,1472Z" transform="translate(-684.01 -544)"/><path class="cls-1" d="M2576,656c-.3,3-4.78,3.61-4.16,7.15-1.91,1-3.82,1.89-5.72,2.85-1.1.56-2.17,1.16-3.74,2h-7.27c-1.52-1-2.26-3.46-4.95-1.67v-5.58c2.26-1.42,4.58-.49,6.79-.75l2.12-2H2565l2.11-2Z" transform="translate(-684.01 -544)"/><path class="cls-1" d="M1302,1488h3.09l3.46-3.79h8.66c1.32,1.25.58,2.6.79,3.79a1.53,1.53,0,0,0-2,1.41c-.16,2.19,0,4.39,0,6.59l-8.29,4.11-2.91-1.81-2,1.55c-.41-.46-.8-.7-.8-.94,0-3,0-5.94,0-8.91Z" transform="translate(-684.01 -544)"/><path class="cls-1" d="M2376,600v-6h5.07l4.74,5.07v4.25c-2.29,1.27-4.58.43-7,.71a22.82,22.82,0,0,0-1.19-3.33C2377.4,600.3,2376.56,600.22,2376,600Z" transform="translate(-684.01 -544)"/><path class="cls-1" d="M2496,646h6c0,1.17,0,2.34,0,4l-4,0h-2Z" transform="translate(-684.01 -544)"/><path class="cls-1" d="M1860,630c-1.94-.37-4.23,1-6-1.29a11,11,0,0,1,7.38-.29c.34.09.45,1,.66,1.58Z" transform="translate(-684.01 -544)"/><path class="cls-1" d="M2554,648l-4,0c0-1.64,0-2.81,0-4A4.91,4.91,0,0,1,2554,648Z" transform="translate(-684.01 -544)"/><path class="cls-1" d="M2594,668a7.17,7.17,0,0,1-.08,2.67c-.27.61-1.25.9-1.92,1.33a7.17,7.17,0,0,1,.08-2.67C2592.35,668.72,2593.33,668.43,2594,668Z" transform="translate(-684.01 -544)"/><path class="cls-1" d="M2384,572a7.17,7.17,0,0,1,2.67.08c.61.27.9,1.25,1.33,1.92a7.17,7.17,0,0,1-2.67-.08C2384.72,573.65,2384.43,572.67,2384,572Z" transform="translate(-684.01 -544)"/><path class="cls-1" d="M2380,570a7.17,7.17,0,0,1,2.67.08c.61.27.9,1.25,1.33,1.92a7,7,0,0,1-2.67-.08C2380.72,571.65,2380.43,570.67,2380,570Z" transform="translate(-684.01 -544)"/><path class="cls-1" d="M2358.56,565.77l-1.74,2.05C2355.46,566.07,2357,566.21,2358.56,565.77Z" transform="translate(-684.01 -544)"/><path class="cls-1" d="M2575.44,656.23l1.74-2.05C2578.54,655.93,2577,655.79,2575.44,656.23Z" transform="translate(-684.01 -544)"/><path class="cls-1" d="M2388,574a1.7,1.7,0,0,1,2,2A1.7,1.7,0,0,1,2388,574Z" transform="translate(-684.01 -544)"/><path class="cls-1" d="M3036,674c-2,.08-2.79-1.61-3.61-2.77-1.12-1.58-3.12-.61-4.09-1.94-1.41-1.95-3.46-1.09-5.42-1.31l-2.09-2.36L3016,668a1.7,1.7,0,0,1-2-2v-3a27.32,27.32,0,0,0,4-2,34.47,34.47,0,0,0,3.6-3.52l3.87,2.56a11.57,11.57,0,0,1,3.18.07,9.42,9.42,0,0,1,2.64,1.67l1.64-1.64,2.84,2.17L3040,660c.19,1.83-.45,3.75.49,5.5,4,1.56,4,1.56,6.65,6.5H3050v2c.43.67.72,1.65,1.33,1.92a7.17,7.17,0,0,0,2.67.08c-.22.56-.45,1.12-.68,1.69-1.82.21-3.82,1.18-5.28-.69s-3.69-.34-5.66-1.49c-.14-.63-.33-1.52-.55-2.57-1.47-1.07-2.22-4-5.21-2.58C3035.43,671.4,3036.23,672.79,3036,674Z" transform="translate(-684.01 -544)"/><path class="cls-1" d="M2132,592h4.71c1.57.59,1,2.06,1.48,3.11a8.24,8.24,0,0,0,1.81,2V602l-.73,1.83h-4.44l-2.91-2.91,2-1.82C2134.45,596.29,2131,594.78,2132,592Z" transform="translate(-684.01 -544)"/><path class="cls-1" d="M2456,586h2c.23.56.3,1.4.71,1.62a22.88,22.88,0,0,0,3.42,1.23c-1.76,1.92-3.65,1.09-5.5.8C2455.42,588.61,2456.24,587.21,2456,586Z" transform="translate(-684.01 -544)"/><path class="cls-1" d="M2756,692c3.1-.32,5.22.84,6,4h-5C2755.52,694.49,2756.2,693.18,2756,692Z" transform="translate(-684.01 -544)"/><path class="cls-1" d="M2798,648h-6.93l-2.14-2H2782c-.23-.57-.47-1.14-.76-1.85h-5.48l-7.28-4.11h-10.93l-5.1-2.9c-.09-.25-.49-1.41-.88-2.57L2748,631v-8.55l-3.93-3.12v-4.43L2747,612h4l1.48,1.48c2.09,1.07,4.38.4,6.62.42l3.54-3.54c3.09-1.54,5.37.91,9.86,3.06-1.35-1-.8-.7-.35-.26a74.56,74.56,0,0,1,6.3,6.4c1.71,2.14,4.6,2.15,6.31,4.17,2.74,3.22,7.29,3.49,10.44,6.17.77.65,2.56.1,3.94.1,1.93,3,0,6.48,1.34,9.48L2802,641v3.94c-.42.34-.86,1-1.38,1.06C2799.23,646.13,2797.84,646,2798,648Z" transform="translate(-684.01 -544)"/><path class="cls-1" d="M2946,650l-3.49,2H2939l-1.78,1.79-4.32.32-1.57,1.57-4.59.51c-1.64,2.22-.11,5-1,7.69h-8.65L2915,666a28.67,28.67,0,0,0-3.44,0,1.56,1.56,0,0,0-1.56,2h-3l-2.77-2.83c1.06-2.54,3.45-.41,5.29-1.55l.77-2.86c2.82-2.31,4.86-6.33,9.33-7.35.23-3.48.23-3.48-1.72-8.24l6.44-3.39,2.88,2.13h8.06c.53,1.43.95,2.58,1.42,3.86,2.84.17,5.74.31,8.61.6C2945.58,648.4,2945.77,649.43,2946,650Z" transform="translate(-684.01 -544)"/><path class="cls-1" d="M2984,586l3.46-2h7.08l3.46,2v7l-5.65,2.9h-5l-2.36,2h-3.76l-2.25,2h-4.08l-2.7-3,2.61-2.84h10.08c.57-.56,1-.79,1-1,.07-1.31,0-2.63,0-4.09C2985.51,588,2983.7,587.66,2984,586Z" transform="translate(-684.01 -544)"/><path class="cls-1" d="M2966,616h-2c-.28-2.2-2.38-3-3.76-4.85v-8.38c1.7-1.3,3.51-1,5.55-.1v4.63l-3.47,1.38c.74,2.89,3.74,2.78,5.55,4.2C2967.49,614.07,2965.67,614.38,2966,616Z" transform="translate(-684.01 -544)"/><path class="cls-1" d="M2964,616v6l-4.95,2.47c-.52-1.2-.87-2-1.3-3C2959.72,619.42,2961.2,617,2964,616Z" transform="translate(-684.01 -544)"/><path class="cls-1" d="M2736,668a1.7,1.7,0,0,1-2,2A1.7,1.7,0,0,1,2736,668Z" transform="translate(-684.01 -544)"/><path class="cls-1" d="M2516,614c1-.07,1.86.13,1.59,1.32-.08.33-1,.46-1.59.68Z" transform="translate(-684.01 -544)"/></g></g></svg>