<svg xmlns="http://www.w3.org/2000/svg" viewBox="0 0 4320 2160"><defs><style>.cls-1{fill:#c8c80c;}</style></defs><g id="Layer_21" data-name="Layer 21"><g id="Csb"><path class="cls-1" d="M724,670h-7l-2.87-3v-5.32l-14-14v-4.63l2-2.19-7.58-3.44c-.27-2.72-3.28-4.67-2.63-7.34l-13.71-13.72V608.1l-2.82-5.61A8.39,8.39,0,0,1,670,599a2.28,2.28,0,0,1,0-.94c1-2.24,2.13-4.46,4.13-8.59.12-.81-.36-3.73-.17-5.74l-3.63-6.89V562.65c3.09-1.6.21-6,3.58-7.51V543.23l2-2.26V529.06L674,527v-7c.22-.56.35-1.52.69-1.6a40.77,40.77,0,0,1,4.35-.61l3-2.72V512c1.21-.24,2.61.58,4-1.05-.15-.79-.35-1.91-.55-2.95h-4L678,506a1.7,1.7,0,0,1-2-2c4.54-.31,9.15.67,13.64-.68.07,0,0-.44,0-.67-.24-.22-.48-.62-.73-.62-4.3,0-8.61,0-12.92,0v-3.09L672,497c0-.83-.07-1.48-.1-2.13l-2.82-2.82-4.26-.19c-1.33-1.56-.11-4.12-2.83-3.9-.22-.55-.4-1.13-.67-1.65-.41-.8-.88-1.57-1.33-2.35h4c.43.67.72,1.65,1.33,1.92A7.17,7.17,0,0,0,668,486c0,.65,0,1.3,0,1.95,0,1,.12,1.87,1.32,1.65.32-.06.47-1,.69-1.6h4v3l14.72,7.4L690,496c1.3,0,2.6-.06,3.9,0a7.34,7.34,0,0,1,1.73.58c.31,1.77.61,3.56.88,5.14l3.27.64v15c-.42.35-1.15,1-1.78,1.54V522c.23.57.31,1.41.73,1.64a35.2,35.2,0,0,0,4.57,1.64l-7.09,1.16c1,2,1.86,3.78,2.64,5.39l3.31.67-2,2.44c-.12,2.11-.25,4.35-.36,6.46l-3.91,1.36,2.11,2.3V549l2.1,2.24c.09,5.95-4.84,9.95-6.1,15.39.44,1.49,2.74,2.08,1.93,4.32L694,573v3.91l2,2.1v9c-.24.57-.37,1.55-.72,1.64a42.49,42.49,0,0,1-4.61.64l-3.09,3.3c.82,1.32,2,2.54,2.33,3.95.43,1.85-.35,4,1.85,5.23v8.51c-2.93,2.56-3.91-2-6.2-1.27L684,611v2l2.91,2.91h3.73c2.4,1.52,3,4.32,4.6,6,1.89,2,2.25,4.7,4.13,6.33,2.29,2,2.57,5.1,4.62,7.13-.45,3.24,3.62,3.62,4,6.34v3.15l4,4.22V653l5,5h3c3.15,1.07,4.55,4.23,7.2,6H730c1.87.23,3.85-.54,5.81.71v2.52L730,670Z" transform="translate(-660 -484)"/><path class="cls-1" d="M2090,586h-4.95l-2.11-1.94c-1.19,1.14-2.13,2.76-4.43,1.45-.3-.82-.71-2-1.14-3.17-2.57,0-.58,2.63-2.06,3.47-1.29.73-2.22,2.1-3.7,3.58l3.87.88c.15.76.38,1.88.56,2.82-2.19,1.49-4.22.66-6.19.92l-9.84,5v8.9l-5.92,5.74a24.86,24.86,0,0,1-.46,3.67c-.09.36-1.06.49-1.63.72l-1.85-.76v-6.67l3.73-2.68c.06-1.45.09-2.1.13-2.81l2-2.12V599l2-2.09V583l-1.78-1.78v-7c-1.88-3.65-3.14-6.12-4.4-8.56,5.22-3.38,5.22-3.38,9.52-3.79,2-3,5.47-4,8.41-5.82,2.22-.64,2.72,3.17,5.14,2a4.94,4.94,0,0,0,5.15,2c.67,3.27,3.72,3.77,6,5.17,0,.64.07,1.28.11,2.18,2.92,1.38,6.24.17,9.15.8,1.3,2,.52,4,.75,5.85h-3c-1.94,2.08-.55,4.74-1.1,7l-1.93,2Z" transform="translate(-660 -484)"/><path class="cls-1" d="M1308,1538h-9.81c-.11,1.84-.17,3.1-.26,4.75-1,2.24-4.49,3.29-4.22,6.62a7.13,7.13,0,0,1-1.84.6c-2.62.06-5.24,0-7.87,0a1.54,1.54,0,0,1-2-1.49c-.25-2.55-1.73-3.87-4-4.51v-13.37l5.86-3.85c0-.5.12-1.75.25-3.62,0,.29-.1-.13.08-.31,1.85-1.91,3.73-3.77,5.54-5.58.26-1.64.09-3.45.84-4.71,2.35-4,3.84-8.46,6.38-12.27,1.28-1.92.23-4,1.34-5.41a10.94,10.94,0,0,0,2.08-4.16c.1-.36,1.06-.49,1.63-.72,0,3,0,5.94,0,8.91,0,.24.39.48.8.94l2-1.55,2.91,1.81L1316,1496a1.7,1.7,0,0,0,2,2v4c-2.87.52-3.73,3.46-5.87,4.84-.1,2.25-.21,4.46-.29,6.32l-1.79,1.79v6.2l-4,3.38c0,2.8,0,5.1,0,7.4a6.76,6.76,0,0,0,.65,1.83l1.32,1.2Z" transform="translate(-660 -484)"/><path class="cls-1" d="M3548,1486h4.93c2.11-1.33.39-3.66,1.36-5.29l2.91-4.92c.45,1.33.83,2.48,1.25,3.74,1.2.81,3.06.28,4.09,1.91.65,1,1.87,2.42,2.82,2.41,1.95,0,2.64,1.67,4.59,2.34l3.48-2h5.83c.29.72.51,1.28.74,1.84-.61,1-1.21,2.11-2,3.48v3.46l-2,2.08,3,3h6.17c.34.84.56,1.39.78,2-.23.56-.3,1.41-.72,1.64-1.33.71-2.78,1.2-5.35,2.24h-18.48a46.25,46.25,0,0,1-5.48-3c-1.58-1.15-2.75-2.84-4.25-4.11s-3.75-.84-4.76-2.77h-4.06c-1.5-2.33-.87-4.85-.63-7.32a6.79,6.79,0,0,1,1.78-.65C3545.36,1485.94,3546.68,1486,3548,1486Z" transform="translate(-660 -484)"/><path class="cls-1" d="M3874,1526v2.92l-1.33,1.42a5.42,5.42,0,0,0-.64,1.65c-.07,2.27,0,4.54,0,7.09,1.05.9,2.11,2.5,3.46,2.79A5.39,5.39,0,0,1,3880,1546h-2.95l-2.11-2h-14.17l-3.22-4h-6.46L3840,1529v-5c.56-.23,1.4-.3,1.62-.71a23.74,23.74,0,0,0,1.23-3.39c.88.81,1.58,1.47,2.28,2.13h4.16c.36,1.1.75,2.25,1.13,3.4,1.36,1.21,1.18-1.08,1.85-.78.48-.31.74-.62,1-.63,2.6,0,5.2,0,7.73,0l1.46,1.46a6.78,6.78,0,0,0,1.74.52C3867.47,1526,3870.73,1526,3874,1526Z" transform="translate(-660 -484)"/><path class="cls-1" d="M2400,1484c0,1.9.39,3.9-.1,5.67a34.87,34.87,0,0,1-3,6.31c-.07.13-.6,0-.92,0h-11.11c-.52-.69-.86-.93-.87-1.18,0-2.59,0-5.17,0-8.06l-4-3.72v-3h3a10.77,10.77,0,0,0,3.62-5.47c.81-2.29,3.8-2,5.23-3.37.23-1.11.41-2,.85-4.14l3.44,4.34V1475l2,2.46v5.8Z" transform="translate(-660 -484)"/><path class="cls-1" d="M3812,1500l3.21-1.74c.2.44.5,1.09.79,1.74-.23,1.87.54,3.85-.57,5.59-2.32,1.34-5.21-.85-7.41,1.38,2.15,2,4.87.46,6.48,1l4,2.67c1.81-2.23,3.41-4.21,5.47-6.77V1500h2.88c1.43-.93,2.39-3.41,4.91-1.24v4.4l-1.79,2V1512h-7c-.73.68-1.44,1.36-2.19,2H3817l-2.09,1.85h-12c-1.71-1.41-.38-3.24-1.06-4.64l2.16-2.3v-3c.67-.43,1.65-.72,1.92-1.33a7.17,7.17,0,0,0,.08-2.67,1.54,1.54,0,0,1,1.37-2A39.69,39.69,0,0,1,3812,1500Z" transform="translate(-660 -484)"/><path class="cls-1" d="M1302,1488v-6.87c1.91-2.66,3.74-6.84,4-9.13h7.64c.17-1.34.27-2.22.38-3.14l-4.24-1.91,4.22-1.89V1462c2.31.74,4.11,1.92,4,4.82l-1.92,2.16,1.91,2.07V1475l1.81,2-2,2.94c1.37,2.64,3.18,4.67,1.93,7.44l-1.7.7c-.21-1.19.53-2.54-.79-3.79h-8.66l-3.46,3.79Z" transform="translate(-660 -484)"/><path class="cls-1" d="M2480,1474c2.29.26,6.5,2.11,9.12,4H2495l2.1-2H2502a3.81,3.81,0,0,1-2.8,3.59c-3,.45-4,3.47-6.2,4.15-2.39.75-4.3,2.33-6.67,3-.55.16-1,.84-1.43,1.28H2478v-8.92l2-2.12Z" transform="translate(-660 -484)"/><path class="cls-1" d="M3786,1490h2c4.42,0,4.42,0,8-2,1.84-.14,2.23,1.14,1.93,2.43a10.71,10.71,0,0,1-1.74,2.86l1.81.71v2a1.7,1.7,0,0,0-2,2,7.17,7.17,0,0,1-.08,2.67c-.27.61-1.25.9-1.92,1.33h-2.85c-.23-.19-.49-.35-.71-.56l-2.32-2.32c-.06-1.19-.14-2.7-.22-4.18l-1.9-2Z" transform="translate(-660 -484)"/><path class="cls-1" d="M2468,1490v-2.9c-1.17-1.83-3.61-2.66-4-5.1h9.2l2.8,3.11V1488h-3l-1.72,3.81C2469.65,1492.07,2468.06,1492.4,2468,1490Z" transform="translate(-660 -484)"/><path class="cls-1" d="M3624,1490c-.11-2,1.94-2.39,2.74-3.86h6c1.35.8,2.94,1.79,3.3,3.86Z" transform="translate(-660 -484)"/><path class="cls-1" d="M3888.25,1558h4.69c2,1.52.9,3.48.76,5.32-1.37,1.37-3.11.32-4.64.68C3886.73,1562,3888.62,1560,3888.25,1558Z" transform="translate(-660 -484)"/><path class="cls-1" d="M1965,746.13l-2.37-.52c-.61-.72-.61-.72-.61-4.85a9.59,9.59,0,0,1,7.52-.24C1967.94,742.48,1966.36,744.44,1965,746.13Z" transform="translate(-660 -484)"/><path class="cls-1" d="M2120,498a1.51,1.51,0,0,1-1.46,1.95c-3.51.12-7,.05-10.54.05a1.51,1.51,0,0,1,1.46-1.95C2113,497.93,2116.49,498,2120,498Z" transform="translate(-660 -484)"/><path class="cls-1" d="M1292,852h-2v-4a1.7,1.7,0,0,1,2,2Z" transform="translate(-660 -484)"/><path class="cls-1" d="M2108,502a1.7,1.7,0,0,1,2,2A1.7,1.7,0,0,1,2108,502Z" transform="translate(-660 -484)"/><circle class="cls-1" cx="1447" cy="17" r="1.41"/><path class="cls-1" d="M2644,912a1.52,1.52,0,0,0-1.95,1.45c-.14,2.54-.05,5.08-.05,7.52l-2,2.11V926h-2.53l-3.47,2a1.7,1.7,0,0,0-2,2h-2l-4,0c0-1.64,0-2.81,0-4v-6h5.74c-.17-2.75-1.92-1.59-3.21-2.55l-1-2.94-3.44-1.2c.44-1.38,2.26-1.69,1.93-3.31,2.54-.34,5.2.66,8-.65l-1.74-2.17,2-3.45c-1.49-2.91-3.87-1.08-5.59-2-1.47-2-.36-4.38-.65-6.35l2-3.37c.33,0,.88-.12,1,0a39,39,0,0,0,2.17,4,46.25,46.25,0,0,0,3.46,3.55c.64.68,1.73,1.13,1.41,2.39,0,1.17,0,2.34,0,4l4,0v2.53Z" transform="translate(-660 -484)"/><path class="cls-1" d="M2638,1004c.1,2-2,2.44-2.77,3.84-1.44-.57-2.15-2.63-4.47-1.7l-3.32,7.29-4.76,2.25c-.19-.19-.62-.42-.63-.66-.05-2.65,0-5.31,0-8l1.94-2.09v-3.28l-2.95-5.75-1.91,4.09H2616c-.33-1.62,1.5-1.93,1.88-3.16l-3.77-1.87c-.84-2.34,1.54-2.9,2-4.9-.12-2.82-.25-6.1-.44-9.37,0-.25-.43-.48-.64-.7h-3c-.21-1.85.49-3.79-.84-6.09-2.12.7-4.59-.87-6.9.77-.33,1.19-.63,2.31-.9,3.32H2600v-4.92c1.32-2.13,3.64-.41,5.32-1.38,1.38-1.32.33-3.06.7-4.64l2-2.07c-1.92-2-3.39-1-4.64.81h-5c-.17-1-.31-1.94-.48-3,3.07-1.59,6.41-.28,9.17-.89,1.52-1.28.69-2.69.93-3.9,1.18-.2,2.49.49,3.94-.91-.07-.75-.16-1.84-.27-3-1.94,0-3.65-.55-3.67,1.92h-3.06l-2.94-3.17c0-.81-.53-2.62.1-3.24,2.07-2,1.76-4.57,2.25-7,1-1.21,2.44-.39,3.65-.63a1.7,1.7,0,0,0,2,2c-.23,1.23.54,1.7,1.53,2l2.25.71.65,3,4.33.44,3.24,2.67V962h-6a7.17,7.17,0,0,0-2.67.08c-.61.27-.9,1.25-1.33,1.92l2.11,3.61c.23,1-.81,2.81.63,4.14,1.34.46,2.51.45,3.53-1.49l-2.17-3.74,2.68-.65L2621,968h3l-2.26,4.2c.54,1.65,2.94,2.62,2.28,4.82,2.41,1.42,2.05,3.74,2,6.16l-2,1.74V988c-.45.78-.93,1.55-1.34,2.35-.27.53-.44,1.11-.72,1.82,1,1.87,2,3.78,3.21,6l1.45-3.84c1.26-.74,3.58.24,3.4-2.36,1.19-.21,2.52.51,3.56-.54.36-1.14.72-2.25,1.18-3.69l3.26.9V994a4.82,4.82,0,0,0-3.7,3.44,8.47,8.47,0,0,1,5.55,3.37Z" transform="translate(-660 -484)"/><path class="cls-1" d="M2582,1098c.29-2.34-4.59-3-1.67-6.35.92-2.82,4.16-4.27,5.78-7.35l-.93-2.31h-2.31c-1.86-2.89-.16-6.31-1.22-9.37-1.76-1.2-3.77-.37-5.65-.62v-4.94c.5-.36,1-1,1.51-1,3.92-.09,7.84,0,11.89,0,1.41,3.9-.16,7.91.95,11.63,2.41.07,1.36-1.63,1.85-3.08l5.13-.87c1.28-1,.42-2.46.67-3.68l3.49,2,1-5.77A4.86,4.86,0,0,1,2606,1070c-.32,3.1.84,5.22,4,6,.64,2.31,2,3.79,4.51,4a1.54,1.54,0,0,1,1.49,2c-2.49.25-3.12,3-5.15,3.85-1.5-2.4-3.79-1.93-6.29-1.64-.22.78-.46,1.66-.72,2.57l-3.84,3.78v6l2,3.45h-6.46c1.07,1.4,1.54,2,2.14,2.81-1.89,2.3-1.7,6.33-5.68,7.19-.22-.55-.35-1.51-.68-1.59-1.19-.27-1.39.62-1.32,1.59l-3.47,2H2584v-8.64c.67-1.54,3.16-2.48,1.56-4.82C2584.55,1097.47,2583.2,1098.22,2582,1098Z" transform="translate(-660 -484)"/><path class="cls-1" d="M2612,982v3l2.1,2.29-3.63,1.28c-.56,1.83,3.57,2.52,1.21,4.8-.24.23-.47.65-.72.65-3,0-6,0-9,0a1.7,1.7,0,0,0-2-2c.1-2-2-2.42-2.72-3.78l-4.66-.52c-2.22-3.89,2.75-4.39,3.07-7L2594,980a1.54,1.54,0,0,1,1.37-2,39.69,39.69,0,0,1,4.63,0l2.05,3.53c.26,1.79-.79,4.14.58,6.13,1.67-.74,3.34-1.35,4.87-2.2S2609.72,982.15,2612,982Z" transform="translate(-660 -484)"/><path class="cls-1" d="M2592,1066h2c.07,1-.13,1.86-1.32,1.59C2592.35,1067.51,2592.22,1066.55,2592,1066Z" transform="translate(-660 -484)"/><path class="cls-1" d="M1396,1310h-5l-2.13,2-2.22-.1c-.37-1.09-.78-2.24-1.18-3.41-1.79-.36-2.7,2.84-4.87,1.16-1.35-2.06-.37-4.41-.66-6.75l-4.12-1.93c.18-3.57,3.5-4.67,5.13-7l3.86,3.86h9.84l2.52,2.07c.33-.79.56-1.35.79-1.92,1.19-.23,1.65.53,2,1.47.41,1.1.85,2.2,1.57,4-.14.8-1.85,1.3-2.59,2.54s-1.33,2.64-2,3.93C1396.85,1310.12,1396.32,1310,1396,1310Z" transform="translate(-660 -484)"/><path class="cls-1" d="M1308,1578c-2,.16-2-1.22-2-2.73l2.15-2.56-4.13-3v-12.65l1.92-2.08-2.28-2.54c.67-1.22,1.39-2.5,2.07-3.73l-1.57-1.57,1.71-2.09-1.83-2.11,4-1.84V1538l1.85.75V1544c1.92,3.63,3.57,6.76,5.29,10,1.64-2.26.54-4.63.87-6.87l-2-2.13v-3.91l-1.83-2,2.22-3.12-2.27-3.18v-7.67L1315,1522c2.37,1.44-.41,4.62,2.11,5.89l1.72-1.48c2.1.62,2.56,2.92,4.81,3.26.74-1.55.33-3.17.34-4.65l-1.8-2.09c1-1,1.93-2,2.9-2.89.18-.16.64,0,1,0v10.42l-4.14,7.64c-.39,1.29.55,4.22.05,6.85l2,2v16l4,4v16.31l4.71,2.78c-1.35,1.88-1.35,1.88-5.89,2.34-1.39,1.38-.33,3.13-.69,4.66l-2,2.17v5.26l-3.81,7.16,3.06.64,2.58,2.65c-1.21,2.48-3.31.65-4.9,1l-2.1-1.72c-.33.79-.56,1.35-.79,1.92a1.7,1.7,0,0,1-2-2c-.21-1.19.51-2.52-.54-3.56l-.64-.19-2,1.75H1306v-6.92l-2-2.09c1.4-2.24,3.86-3,6.13-4.26-.23-.86-.48-1.73-.74-2.7-2.53,1.78-2.53,1.78-5.06,1.38a12.26,12.26,0,0,1,.64-1.37,6.19,6.19,0,0,1,.87-.89l-1.68-2.1v-8.21c1.21-1.43,2.61-.6,3.83-.84v2c.23.57.47,1.14.74,1.8H1315c1-.74,1.6-1.2,2.17-1.61l1.74,1.74c1.56-.17,3.25.66,4.69-.54.24-2.71.24-2.71-.66-5.39Z" transform="translate(-660 -484)"/><path class="cls-1" d="M2602,1100h4c-.18,1.21.47,2.55-.63,3.72A5,5,0,0,1,2602,1100Z" transform="translate(-660 -484)"/><path class="cls-1" d="M3942,1506c.3,1.67-1.52,2-2.05,3.38v5.67l-6.76,6.76c-3.16.52-6.78-.08-10.33.33l-7.77,7.77-1.94.1c-2.26-1.29-.42-3.69-1.55-5.45-.93-1.19-2.37-.3-3.6-.56.23-.56.46-1.62.69-1.61,3.07,0,4.16-2.79,6.52-4.32h3.4c2.12-1.1,2.93-3.66,5.39-4.07H3927l2.29,2.11,1.05-3,5.71-3.72V1506Z" transform="translate(-660 -484)"/><path class="cls-1" d="M2126,588c-.71,3.28-4.93,2.15-6.21,5-.7,1.61-3.3,1.15-4.75,2.65-.77.81-2.93.28-4.2.34a6.12,6.12,0,0,1-.68-1.15c1.82-1.86,3.66-3.7,5.61-5.65.14-1.43.29-3,.45-4.51a2.34,2.34,0,0,1,3.43-.1A17.65,17.65,0,0,0,2122,586c.43.67.72,1.65,1.33,1.92A7.17,7.17,0,0,0,2126,588Z" transform="translate(-660 -484)"/><path class="cls-1" d="M2094,602v-6H2097l2.12-2h5.9c1.88,1.56.91,3.49.7,5.35-2.08,1.33-4.4.39-6.6.65l-2.12,2Z" transform="translate(-660 -484)"/><path class="cls-1" d="M2094,596h-2.93l-2.48,2.36c-.26-1.41-.45-2.53-.59-3.32,1.4-1.61,2.79-.81,4-1A1.7,1.7,0,0,1,2094,596Z" transform="translate(-660 -484)"/><path class="cls-1" d="M986,858h3l2.11-2c2.48-.45,3.34,1.7,4.81,2.87-1,2.38,2.18,3,2.13,5.1l-2.92,6.08-1.89-3.91c-2.83,1.17.27,4.46-2.36,5.85a20.88,20.88,0,0,0-1.2-3.27c-.23-.42-1.08-.5-1.64-.73a1.52,1.52,0,0,1-2-1.44C985.92,863.71,986,860.85,986,858Z" transform="translate(-660 -484)"/><path class="cls-1" d="M933.91,854h7c1.41,2.38,4.61,1.84,6.36,3.9.55.64,2.5.1,4.28.1.15,1.14.31,2.26.51,3.78h-6.42l-3.46,2.45c-2.82-1.4-5.06-2.68-4.15-5.71l-3.8-1C934.13,856.48,934,855.25,933.91,854Z" transform="translate(-660 -484)"/><path class="cls-1" d="M1002,884c.35-2.55-.67-5.22.4-7.47l5.32,5.47H1012v5.11l-3.21,2.79-4.08.18-2.71-4.23Z" transform="translate(-660 -484)"/><path class="cls-1" d="M698,588c3,0,5.94,0,8.91,0,.24,0,.48.39.91.77v2.37c-1.17,1.44-2.6.58-3.82.83.23-1.23-.52-1.81-1.53-2s-2,.09-2.94-.06S697.77,589.23,698,588Z" transform="translate(-660 -484)"/><path class="cls-1" d="M1302,1638h4c1.9-.15,2.11,1.16,2,2.5a1.62,1.62,0,0,1-2,1.52,14.23,14.23,0,0,0-2,0h-7.63c-.06-2.72,1.63-1.65,2.53-2C1300,1639.5,1300.37,1637.74,1302,1638Z" transform="translate(-660 -484)"/><path class="cls-1" d="M2418,610h4c2.88.69,3.87,2.92,4.55,5.81l5.09.36c.1,1,.21,2.17.35,3.59h-5.23l-2.58-2.58c-.21-1.08-.39-2-.58-2.91l-4.82-.5C2417.39,612.64,2418.25,611.22,2418,610Z" transform="translate(-660 -484)"/><path class="cls-1" d="M1318,1496h-2c0-2.2-.11-4.4,0-6.59a1.53,1.53,0,0,1,2-1.41c.06,1.48-.09,2.83,1.09,4.24C1320.81,1494.3,1320.57,1494.52,1318,1496Z" transform="translate(-660 -484)"/><path class="cls-1" d="M1276,1018c2.29-.16,2.9-2.48,4.51-3.49,1.3-.82,3.19-.43,4.11-2.1.45-.81,1.7-1.15,1.38-2.41h3c2.08-1.35.37-3.66,1.55-5.63l2.61-.55a23.87,23.87,0,0,0,1.27,3.47c.22.41,1.06.48,1.62.71v5l-5.5,5.35-.73,2.85L1284,1024l-5.4,2.69c-.26.6-.86,1.94-1.47,3.34-.43-.54-1.07-1-1.08-1.46C1276,1025.05,1276,1021.52,1276,1018Z" transform="translate(-660 -484)"/><path class="cls-1" d="M950,828h2.85c.84,1.45,1.67,3,2.56,4.4.77,1.26,2.69,1.71,2.59,3.6-.43.67-.72,1.65-1.33,1.92A7.17,7.17,0,0,1,954,838l-3.46-2H943.1c-1-1.83-2.69-3.58-2.94-5.52-.31-2.37-2.17-3-3.27-4.48H932v-3.25l-3.38-1.11c-1.2-1.76-.38-3.76-.62-5.64h3l2.17-2c1.84,3,.19,6.35,1.22,9.4,2.08,1.3,4.4.38,6.7.64.64,1.3,1.29,2.66,2,4,.08.14.62,0,1,0h2c.22.55.29,1.25.67,1.62,1.49,1.42,2.69,3.21,4.89,4.41.39-1.52,1-2.56-.21-3.74A10.55,10.55,0,0,1,950,828Z" transform="translate(-660 -484)"/><path class="cls-1" d="M872,756c-1.32-.67-2.64-1.35-4-2-.26-.13-.63,0,.09,0L860,745.82c0-.74.18-2,2-1.82h9l4.93,5v4.15c-.69.24-1.53.56-2.38.81C872.56,754.3,871.77,754.74,872,756Z" transform="translate(-660 -484)"/><path class="cls-1" d="M2594,588c-.45-.78-.92-1.55-1.33-2.35-.27-.52-.45-1.1-.67-1.65a1.57,1.57,0,0,1,1.42-2,21.52,21.52,0,0,1,3.38,0c2.1.81,0,4.33,3.2,4,.64,2.31,2,3.79,4.51,4a1.54,1.54,0,0,1,1.49,2l-5.09,2.58c-.49-1.55-.84-2.64-1.27-4-.72-1-2.07-.5-3.26-.55C2595,590,2593.87,589.76,2594,588Z" transform="translate(-660 -484)"/></g></g></svg>