<svg xmlns="http://www.w3.org/2000/svg" viewBox="0 0 4320 2160"><defs><style>.cls-1{fill:#95fc95;}</style></defs><g id="Layer_11" data-name="Layer 11"><g id="Cwa"><path class="cls-1" d="M3600,778l-5.78,2.78L3585,790h-2l-9.17,9.23-5.79,2.78-5.55,2.66-1,2.82c-1.81,1.38-4.82-.73-6.21,2.32h-9.16L3534.36,816h-3.42l-2-4.34c-.43,1.2-.75,2.06-1.51,4.13l-5.22,4.13-3.49.37c-.47,1.26-.89,2.41-1.27,3.42-2.16,1.09-3.16-.39-4.35-1.61h-4L3507,824h-6c-.43.46-.88,1-1.22,1.3-2.26,1.46-4.65.15-7.3,1.1-.24,1.46-.55,3.29-.86,5.06l-3.7,1.31,2.1,2.29v5h-6c-.56-.23-1.41-.3-1.64-.72-.71-1.33-1.19-2.78-2.44-5.82v-6.64c-2.41-1.59-4.77-.25-7.26-1.17l-1.75-1.63H3461l-7,7a13.14,13.14,0,0,1,0,2c0,.26-.45.45-1,1h-8.11l-.81,2h-3l-2.11,2c-1.61.36-3.38-.69-4.54.6-.47,1.35-.85,2.46-1.15,3.31-2,.42-3.84-.6-5.18,1.06v3.82c-2.25,2.79-4.72,5.19-8.09,6.25.09.9.16,1.54.22,2.18L3426,858v3.26l6,5.48V870h-5.1l-5.59-6h-2.39c-1.32-2.67-2.63-5.35-3.92-8h-5c.15-1.9-1.16-2.07-2.51-2s-3.48-.69-3.49,2c-.43.67-.72,1.65-1.33,1.92a7,7,0,0,1-2.67.08h-2c-.24-1.22.6-2.63-.76-3.76a39.24,39.24,0,0,1-4.54-.63c-.34-.08-.47-1.05-.7-1.61v-3.09l4.24-1.91-4.57-2.08a41.31,41.31,0,0,1,4.25-8.2c.35-.56-.29-1.72-.46-2.53l-2.58-.23-5.29,6H3384c.3-1.67-1.53-2-2.75-5.26,0-.06,1.78-2.54-.07-4.56-2.5,1.12-.42,3.51-1.41,5.05-1.34.84-1.84,2.84-3.92,2.77-1.85-.08-2.39-2-3.84-3,1-1.4,3.51-2.5,1.33-4.72-2-1.08-3,.29-4.46,1.83h-8.27l-1.17,3.35c-1.87,1.08-3.67-.29-5.06,1.08-.35,1.84-.69,3.64-1.13,5.94-2.32-3.47-.42-6.95-1.91-9.85-.84-1.59-1.69-3.18-2.41-4.55h-4.13c-1.07,1.7-.91,4-2.88,4.94s-1.54,3.43-2.82,4.83c-3.59-.68-4.09,4.09-7.3,4.11-1.94,0-1.57,1.5-1.88,2.75-.21.84-1.2,1.5-1.84,2.24.61.68,1.27,1.39,2,2.24l-.62,2.51-1.95.22-3.7-2.83v-5.48l-4.09-8c.95-1.81,3-2.55,2.32-4.39l-2.54-3.28,2.37-3.15V821l-2.06-2.44v-7.73c-1.3-1.29-2.7-2.35-1.3-4.47l5.36-.81V799c-.52-1.36-3.72-2.23-1.27-4.67l3.56-1.2c-.26-1.16-.47-2.07-.67-2.93h-3.82c-1.92.44-2,2.17-3.27,1.22-.41-1.18-.81-2.34-1.24-3.61l-2.93.56c-.2,1.85-.38,3.43-.54,4.92l-3,2.79h-3.67c-3.47,1.34-2.49,5.53-5.26,7a7.78,7.78,0,0,1-1.41.43c-.36-2-.7-3.78-1-5.39-1.87-.51-2.8.23-3.88,1.14-.88.74-2.26.89-3.39,1.3-.13,2.41-.26,4.65-.36,6.57L3290,809c0,2.89,0,5.87,0,8.86a6.63,6.63,0,0,0,.59,1.8L3292,821v17c-3.52-1.39-5.21-4.85-8-6.9v-7.39l-3.95-2.5c-.14-2.48.21-4.27-1.58-6-1.44-1.39.25-4.34-2.13-6.1-1.37-1,.89-3.93-.63-4.67l-3.93-1.19c.79-3-.45-6,.65-8.78,4.67-1,6.57-5.12,9.67-7.48-.34-2,.62-3.77-1.07-5h-10l-2.17-2H3251c-1.86-2.34-5.54-2.05-6.94-5,.87-1.38,2.29-.81,3.5-1.08a39,39,0,0,0,5-2.08h6.72c1.13-1.62,3.09-2.21,2.58-5.36l-3.62-2.47H3247l-2.3,2.05h-3.8c-1,1-2,2-2.93,2.9v3c-3.76,2.75-3.76,2.75-6.05,9l4.08,1.91c-1.47,2.4-4.72-.37-6,2.24,0,.65.07,1.29.13,2.23a11.2,11.2,0,0,1,2.58.64,15.34,15.34,0,0,1,2.4,2c2.46,0,5.1,0,7.74,0,.26,0,.5-.37.75-.57a10.65,10.65,0,0,1,2.4-3.4c.45.78.92,1.55,1.33,2.35.27.52.45,1.1.67,1.65l-.84,2H3241L3237,796h-10c-1.14-1.43-3.45-2.12-3.07-4.67l4.19-4.88c-1.46-2.78-1.45-2.8-4-1.39l-.73,2.87H3219c-1.31-.45-2.14-3.73-4.6-1.29-.39,1.16-.79,2.31-1.15,3.39H3203c-.74.7-1.46,1.37-2.21,2.06h-3.21l-7.78,7.27c0,3.23,0,6.54,0,9.84,0,.24-.44.47-1,1.06l-5.44-2.5L3181,810h-22.77l-2.95-4.09c-2.21.39-4-.59-5.08.92-.83,2.2,1,3,1.68,4.36.05.08-.43.45-1,1h-8L3141,814h-.85c-3.23.89-3.63,4.06-6.5,4-1.75-.8-3.24-1.91-3.68-4,1.23-.26,2.68.63,3.7-.68.1-.65.2-1.28.41-2.59l-2.82-2.62c-2.82-.49-5.26.9-7.08-.89l-.56-2.69c-2.58-1.52-5.61,1-6.43-.07-2.27-3.64.14-4.21.69-5.87l-2.66-.73-2.33,2.18c-.64-1.37-1.29-2.74-1.88-4h-8.11c-2,2.4-4.29,2.92-6.73,1.15-.22-1.08-.4-2-.57-2.78l-3.26-.85-.57-2.78-2.74-2.74h-3.89L3083,786h-3c.26-1.23-.63-2.68.7-3.72l3.18,1.77v-8.67L3087,772h4l2.39-2.1c.31,1.13.56,2,.88,3.21,1.63,1.53,3,3.82,5.3,5l2.23-.66v-6.23c-.83-1.34-1.48-2.39-2-3.31,1.37-1.92,2.22-3.72,4.52-3.91a3,3,0,0,0,1.56-.81c-.75-2.38,2-3.15,2.3-5.12.29-1.72,1.45-3.29,2.15-4.78L3107,750h-4c-.77-3.35-3.25-5.49-5.65-7.56s-5.05-3.67-7.46-5.38c.82-4.11-2.94-6.75-2.12-10.29-2.26-2.26-4.14-4.71-6.56-6.41-2.86-2-2.72-6-5.61-7.71-1.91-1.14-1.44-3.41-2.71-4.93s-3.7-1.23-4.89-2.77c-1.36-1.75-3.7-2.59-4.17-5.29a5.17,5.17,0,0,0-3-3.54c-3.7-.89-6.5-3.65-10.17-4.44-2.36-2.36-4.34-5.45-7.16-6.86A32,32,0,0,1,3036,679v-5c.23-1.21-.57-2.6.62-3.64,3-1.43,3.74,1.51,5.21,2.58.22,1,.41,1.94.55,2.57,2,1.15,4.17-.43,5.66,1.49s3.46.9,5.28.69c.23-.57.46-1.13.68-1.69,1.93-.15,2,1.17,2,2.53s-.32,2.63,1.09,3.47c2.28,0,4.58,0,6.88,0a5.46,5.46,0,0,1,1.68.63l1.44,1.34H3074c0,2.74-2.13,1.74-3.56,2a21.85,21.85,0,0,0-2.59.83l3.1,3.1h2.65c2.52-.26,2.69-2.33,4.4-2v7l8.87,4.43L3090,698c.22.55.4,1.13.67,1.65.41.8.88,1.57,1.33,2.35-1.23.26-2.67-.63-3.65.62-.62,1.4-.53,2.54.37,3.11l3.1.81c.14,2.49.27,4.73.41,7.24l6.93.38c1.47,1.1,2.24,3,4.07,3.44l2.31-1.72c2.17,1,4.13,1.85,6.07,2.77.11.05,0,.44.06.68-1.92,2.37-1.9,2.37-.21,5.09l3.79-2.17L3117,724h12.07c2.73,3.48,6.26,4.82,10.5,5.38l7.72,8.56,4,.22,1.19,3.24,5.25,2.57H3165l2.09-2h9c0,.32-.11.85,0,.92a34.87,34.87,0,0,0,6.31,3c1.76.49,3.77.1,5.67.1v3.1l-4.41,2c1.58.55,2.92.71,3.84,1.41s1.89,1.79,3.53,1.39L3193,752c1.52.3,3.24-.67,4.66.63.31,1.8.63,3.59,1.2,6.86l3.82-5.66c2,1.44,2.72,3.44,4.9,3.79.3-1.92.59-3.74.89-5.69l3.09.37c.35,2,.67,3.86,1,5.94l4.65-4.36c.47,1.34.88,2.49,1.37,3.87h4.18l3.26-2,3.44,2.26h5.25l2.26,1.9h4.24l3.16-3.91,6.74,3.76,2.22-1.86h19.79c.31-.66.55-1.22.83-1.76a9,9,0,0,1,1.35-2.41c1.2-1.15.39-2.5.65-3.72,1.89.26,3.92-.61,5.65.63,1.08,1.65-.8,4,1.61,5.38.54-1.56,2.69-1.91,2.79-4.54l-2.05-2.68V744h5a8.94,8.94,0,0,1,1.38-1.37,7.34,7.34,0,0,1,1.72-.63c4.26,2.46,4.38,2.48,5.81,1v-3.91L3300,737v-3h2a1.55,1.55,0,0,1,2,1.52c.16,1.34.16,2.62,2,2.48.21,1.19-.51,2.52.77,3.78h4.42l1.9-1.78H3316v2a1.7,1.7,0,0,0,2,2c-.3,1.66,1.52,2,2.05,3.36v3l2.88,5.62L3325,754c2.3,1.41-.46,4.66,1.43,5.61l3.3.9c.39,1.88.39,1.88,2.42,4.45-.55-3.67.52-6.11-.73-8.6L3330,755v-7h4c.23.56.35,1.52.7,1.61,1.76.46,3.57.7,5.3,1,0,5,0,9.58,0,14.16,0,.25.33.51.51.76l3.42,1.16v4.67c-3.42,1.13-3.51,5.28-5.95,7.73a27,27,0,0,0,.28,4.8c-1.27.32-2.82.18-1.46,1.93a17.45,17.45,0,0,0,1.46-1.93c1.39.11,3,.11,4,.11l5.5,2.87c.14,1.53.28,3.1.44,4.78,3.14-1.1,6-2.07,7.73-4.9.32-1.54-.72-3.33.89-4.64.94,1.53,1.87,3.07,2.82,4.59s-.88,4,.85,5l4.44,1.21-6.34,4.81c-.77,2.49-1,3.38-1.38,4.44l-2.51-2.29c-.28,1-1,2.06-.69,2.71a55.58,55.58,0,0,0,3.24,5.64l2.59-.89c.39-2.47-.52-4.82.86-7.2l2.06,1.64c3.18-1.36,3.43-4.88,5.08-7.39.58-.89.09-2.49.09-3.59l-3.83-1.59.6-1.17a17.82,17.82,0,0,0,3.56,0c1.46-.29,1.83,3.15,3.44,1.28.3-1.26.52-2.16.71-3,2.42-.5,5,.37,6.38-2.16l4.28-.25L3385,782h3v2.79l2.41,3.15c-.88,1.3-1.54,2.28-2.3,3.39l2.75,1,4.23,6.2,1.42-4,3.39-1.18c.08-1.79.15-3.36.22-4.85,1.82-.29,1.93.56,1.88,1.54s.06,1.84,1.39,1.61l1.42-3.89L3409,796a9.83,9.83,0,0,0,2.93-.28c.32,1.27.18,2.82,1.93,1.46a17.45,17.45,0,0,0-1.93-1.46c.11-2,.11-4.22.11-6.57l2-2.22a15.57,15.57,0,0,1,0-2.63,12.27,12.27,0,0,1,.84-2.3,27.77,27.77,0,0,0,5-.28c.32,1.27.18,2.82,1.93,1.46a17.45,17.45,0,0,0-1.93-1.46,22,22,0,0,0,.11-3l4-3.49c0-3,0-5.57,0-8.17,0-.24.4-.47.35-.42l7.72-3.52-2.1-2.21V756h5.15c1.26-1.52.69-2.82.85-4,3,0,6,0,9,0,.22,0,.44.46.82.89.14,1.33.31,2.9.47,4.34l3.65,3.65c0,.65.06,1.3.1,2l2,2.12v7.9a15,15,0,0,1,1.95,2.25c.29.5.12,1.27.25,3.56l5.8,4.44v5.59l-1.86,2.16c-.11,1.48-.24,3.06-.33,4.25L3456,797v6c-1.19,1-2.59,2-1.9,4.09l2.75,2.75c4.74.22,4.74.2,6.86-1.14-.38-1.87-3.55.69-3.32-2.8,3.1.3,6.24-.3,9.24.37.35,1.37.58,2.27.9,3.5l6.61.36,1.53,1.53c2.39.37,4.9.83,7.1-.43.24-1.16.42-2.07.61-3l4.85-.52,1.86-1.86h8l1.82-1.82h11.37c2.83,1.42,5.29,2.73,7.82,3.87.37.17,1.09-.45,1.65-.71-1.78-4.41-7.21-4.68-9.83-8.52l4-1.46v-5.51l2.85-3.71H3553l2.09,1.88h4.05c2-2.14,4-4.28,6.67-4.82.3-1.17.54-2.06.84-3.23h14.73c.53-1.49.94-2.65,1.11-3.15l2.63-1.37c3.41-2,5.22-.5,6.92-2.34-1.08-1.2-3.18-2.39-1.16-5l3,.36c.1,2.07.17,3.64.24,5.09,1.09.24,1.7.41,2.31.49a13.14,13.14,0,0,1,2.84.38C3599.66,776.52,3599.77,777.43,3600,778Zm-293-4c.23-.24.66-.46.68-.71.16-2.22.26-4.44.36-6.33l-2.95-2.74c-2.09,1.26-4.27,2.09-5.75,3.59-1.72,1.76-1.84,4.79-4.34,6.17h-4c-.68,1.35-1.12,2.94-2.11,4-1.36,1.49-.73,3.09-.82,4.65,0,.36.73.77,1.12,1.16l2.64-2.64c.22-1.1.4-2,.8-4,1,2.17,1.59,3.39,2.14,4.58h6.95c.17-1.8.32-3.37.47-4.93L3305,774Zm-6,14-3.09,6.33L3299,796l2.73-2.73C3301.85,791.46,3302.83,789.54,3301,788Zm62,15.94c-1.24,1.75-1.83,3,.56,3.94C3364.07,806.59,3364.48,805.49,3363,803.91Zm4.76,25.38L3367,828c-.22.22-.66.49-.63.66A6.53,6.53,0,0,0,3367,830Zm48,22L3415,850c-.22.22-.66.49-.63.66A6.53,6.53,0,0,0,3415,852Z" transform="translate(-39.95 -400)"/><path class="cls-1" d="M2722,1384v-8.64c.22-1.37,2.67-1.46,1.26-3.17-3.63-.53-7.26.21-11.14-.54V1364l-5.37-6.56c-.51,2.27-2.94,2.45-2.75,4.56h-3c-1.72-1.21-.68-3-1.53-5.9l-2.34-2.25-2,2h-4.46a7.15,7.15,0,0,1-.7-1.83c-.1-1.32,0-2.65,0-4h5.07l1.83-4c2.29,1.47,3.17,3.83,4.25,6h3.5c2-.9,3.28-3.34,5.15-4.81.2-1,.38-1.91.57-2.87l4.84-.53c1.49-1.32.46-3.07.79-4.58,1.07-1.94,3.59-2.77,4-5.21,2.84.67,3.2,3.27,4.55,5.28,1.95,2.92,2.24,5-.24,7.54-.87.9-.49,2.38.84,3.18H2730v30.89l-2.8,3.11Z" transform="translate(-39.95 -400)"/><path class="cls-1" d="M2306,410c-.8,2.71-2.39,4.45-5.12,4-1.43,1.84-.64,3.49-.84,5.16,3,1.72,6.2.25,9.47,1,.27-1.39.45-2.28.71-3.66l5-.85c1.66-.6-.2-3.28,2.11-3.47,1.25,1.91.47,3.9.7,5.77.06,1-.07,1.81-1.23,1.65l-2.49-1.87c-.18,2.25-.31,3.81-.44,5.38-2,1.35-4.94,1.46-5.93,4.6.26.63.6,1.47.9,2.24H2312c-.29,2.06-2,2.93-3.38,4H2302v-2c1.22-.25,2.64.6,4-1.08-.16-.79-.39-1.9-.6-2.92H2300c-.21-.55-.43-1.1-.72-1.85h-7.4c-1.84-1-2.88-1.59-3.94-2.15-1.31-.68-2.63-1.33-3.94-2h-5c-1.45-1.51-.77-2.82-1-4h3l2.15,2H2287l2.36,2.09c.32-1.08.58-2,.83-2.83a30.61,30.61,0,0,0-4.8-2.84,37.85,37.85,0,0,0-6.06-1.18c3.1-1.14,5.35-2.21,6.36-3.93l.94-3.09,3.15-.65c.06-1,.12-1.93.19-2.94l-3.78-1.36a8.93,8.93,0,0,1,.23-2.58c.14-.39,1.06-.49,1.62-.72.23.56.34,1.51.7,1.61a35.88,35.88,0,0,0,4.8.62l2.5,3.71V410h-2c-.54.21-1.45.3-1.56.64-.56,1.73-1,3.53.35,5.18,2.06-.76.9-2.53,1.21-3.82a1.7,1.7,0,0,0,2-2Z" transform="translate(-39.95 -400)"/><path class="cls-1" d="M3934,1328l.75-1.83a8.24,8.24,0,0,1,2.79-.11c1.45.45,2.74,1.68,4.18,1.85,2.71.34,3.46,2.84,5.3,4.09h7v5.23l4,3.48V1350a1.7,1.7,0,0,0-2,2h-2c-1.34-3.47-4.76-5.12-6.77-7.9l-2.34-.12a30.15,30.15,0,0,1-7.25-15.35C3936.61,1327.42,3935.21,1328.24,3934,1328Z" transform="translate(-39.95 -400)"/><path class="cls-1" d="M3688,664h4.92c.48-.44.95-.89,1.79-1.68,2.39-1.14,5.38.36,9.17-.91l2.89-3.45H3711l4.91-4.91L3714,651v-3h2l1.85.76v8.67l-3.46,2.47c-.39,1.93-.58,2.83-.77,3.78l-5.2.59-.6,2.88c-2.78,2.58-5.06,0-7.55-1.17-2.71.06-3.46,2.76-5.28,4h-5.52l-3.47,2c-.33,0-.86.13-.95,0a7.16,7.16,0,0,1,0-8c.09-.15.62,0,.95,0,.22.55.35,1.51.68,1.59C3687.87,665.86,3688.07,665,3688,664Z" transform="translate(-39.95 -400)"/><path class="cls-1" d="M3604,804v-5c2.37-1.08,1.49-4.17,3.49-5.55,1.63-1.12,2.29-2.86,3-4.75s3.65-2.62,3.68-5.51c0-1,1.49-2.2,2.57-2.81a54.09,54.09,0,0,1,6-2.56l3.09,2.92v10.51l-1.8.74c0-1.31.06-2.63,0-3.93a7.88,7.88,0,0,0-.67-1.89h-6.52c-1,2-1.88,3.9-2.76,5.83a2.37,2.37,0,0,0,0,1l2.13,2.23c-.2.83-.4,1.71-.58,2.46l-3.55,1V808c-2.44-.39-3.27-2.83-5.1-4Z" transform="translate(-39.95 -400)"/><path class="cls-1" d="M990,804c-.54.21-1.38.27-1.58.66a28.88,28.88,0,0,0-1.28,3.81l-4.78-2.37a32.64,32.64,0,0,1-3.71-.53c-.32-.08-.44-1-.65-1.57l2-.79V797c1-1,1-1,3.08,1H987l2.11-2H992v2c-.67.43-1.65.72-1.92,1.33A7.17,7.17,0,0,0,990,802Z" transform="translate(-39.95 -400)"/><path class="cls-1" d="M1826.93,612a14.45,14.45,0,0,0,5.06,7,52.43,52.43,0,0,1-5.29,5c-3,.49-4.33-5-8-1.3l-.78-3.46c1.24-2,3-1,4.64-1.27C1825.38,617.2,1825.55,614.32,1826.93,612Z" transform="translate(-39.95 -400)"/><path class="cls-1" d="M3942,1570h-2l-4-8c.11-2,2-2.5,3.35-4.6a47.71,47.71,0,0,1,4.26,5.32,34.33,34.33,0,0,1,2.37,5.84c.08.2-.21.54-.34.85C3944.6,1570.58,3943.21,1569.76,3942,1570Z" transform="translate(-39.95 -400)"/><path class="cls-1" d="M580,424c0-1.59.34-3.22-1.33-4.37-1.34-.92-.42-2.42-.67-3.63h3.23c.37,1.09.49,2.47,1.23,3.33,1,1.16,1.82,2.86,3.81,2.69L590,419.9c2.91.66,1.69,2.68,2,4.1H580Z" transform="translate(-39.95 -400)"/><path class="cls-1" d="M46,1612H43.66L40,1608.92l.32-2.25c2.33-1.59,4.79-.08,6.9-.76,1.31,2.31.63,4.24.83,6.09Z" transform="translate(-39.95 -400)"/><path class="cls-1" d="M1840.3,619.83h-5.89c-.19-1-.37-1.91-.52-2.71,1.69-1.93,3.61-1,5.73-.75C1839.78,617.18,1840,618.08,1840.3,619.83Z" transform="translate(-39.95 -400)"/><path class="cls-1" d="M3716,646V636c.56.23,1.6.44,1.61.69.12,2.87.12,5.75,0,8.62C3717.6,645.56,3716.56,645.77,3716,646Z" transform="translate(-39.95 -400)"/><path class="cls-1" d="M2566,1196v6h-4l-.68-1.68-5.34,2.78V1209l-2,2.17v4.13c-4.09,2.31-4.51,7.12-6.48,10L2542,1228c-1.24-2.31-1.24-2.32-4-.92V1229l-7,7h-2.38l-2.7,3.19c-3.24,1.52-5.64-.11-7.74,1.61v4.67c2.65,1.15,5.28.22,7.81.54v3l-2.05,2.18v3.91l-3.2,3.2h-8.21c-.68,1.37-2.32,1.62-2.18,3.12.3.24.55.6.8.6,2.65,0,5.29,0,7.84,0,1.48-1.45,2.76-3.39,4.91-1.09,0,.65.06,1.3.1,2l-2,2.14v5h-7l-2.17,2h-6.79c1.76,4.27-3.71,4.53-4.08,8-1.64-.27-2,2-3.11,1.89-2-.1-3.06,1-4,2.29a41.67,41.67,0,0,0-2.13,4c-.77,1.36-2.84,1.79-2.76,3.79-.67.43-1.65.72-1.92,1.33a7.17,7.17,0,0,0-.08,2.67h-3l-2.08-2H2479l-2.1,1.88c-1.72.41-2.5-.7-3.56-1.46a10.28,10.28,0,0,0-3-1.09,27,27,0,0,0-1.12-3c-.28-.56-1-.92-1.23-1.48a15.64,15.64,0,0,1-.56-2.74h-4.76l-3.13,3.9h-14.73c-.83-1.4-2.28-1.72-3.87-2.25-1.37-.45-2.37-2.2-4.23-1.74s-2.75-1.39-4.32-2.11H2411l-2.72-2.28-3.57,2.18h-5.93c-1.14-1.14-2-2.12-3-3a10.51,10.51,0,0,0-2.1-1l-2.87,2.21H2375c-1.86-2.26-5-2.46-7.11-4.73-1.45-1.57-4.14-2.46-6.46-3.36a54.48,54.48,0,0,1-7.08-3.91h-5.23l-3-2.35-7.58,4.26h-6c-.37-1.63-2.78-1.8-2.59-3.91l2-3.44V1256h4.13l2.76-4.11H2347l1.86-1.53c3.67-2,5.17,1.85,7.95,1.64l2.16-1.87,4.22-.3,1.25-1.25c2.06-1.19,3.88.25,5.34-1.31.17-1.51.34-3.08.5-4.52l3.69-3.7v-4L2372,1233v-15l5.06,2.49a28,28,0,0,1,1.33-3.79c.21-.41,1.05-.48,1.61-.7.41,2.45,3,3.27,4.11,5.45-.22.72-.47,1.59-.71,2.38l-5,.39a12.76,12.76,0,0,1-.65,2.94,9.73,9.73,0,0,1-1.66,1.94v5.24l3.52,6.92-1.79,2.36,4,.46c0-2.16-.11-5,3.27-3.76,1.77.68,2.23,3,4.26,3.32L2395,1238h1.92l2.14-2h3c.43.67.72,1.65,1.33,1.92a7.17,7.17,0,0,0,2.67.08h2v2.55l2.81,3.52h4.2l2.13,1.93H2422c.22,1.86-.52,3.82.68,5.77l2.47.14c1.45-2.39,1.51-5.57,5.25-6a4.41,4.41,0,0,0,3.6-3.88c.55-.22,1.13-.4,1.65-.67.8-.41,1.57-.88,2.35-1.33,3.31,0,6.62,0,9.93,0a5.71,5.71,0,0,0,1.7-.61l1.44-1.36H2461l7-7v-3h3a10.64,10.64,0,0,0,4.26,6c1,0,2,0,3,0a7.4,7.4,0,0,0,.93-.12c2.93-2.2,5.22-2.52,6.75-1,.36,1-.51,2.61,1.39,2.84l2.77-5.83-2.86-5.69-3-.64V1212c-3.41,1-4.73-1.34-6.25-3.61a23.18,23.18,0,0,1,.47-3.68c.09-.35,1.06-.48,1.62-.71,3.43,1.85,7,3.34,10.41,5.32,1,.58,2.38.47,3.59.68H2505l2.13,2c2.09-2.22.18-5.14,1-7.1,2.83-2.28,3.73.67,5.39,1.15,2.13,0,2.22-.11,2.57-3l2.89-2.89h3.73a11.11,11.11,0,0,0,4.43-6h5.14l3.25,3.26c.06-.15.3-.72.53-1.29,2.06-.51,3.59-2.17,5.66-2.64.22-.9.15-2,.68-2.61,1.9-2,4-3.91,4.73-6.74,0-.08.61,0,.93,0,2.87.53,3.74,3.47,5.89,4.86-1.33,2.31-3.61,3.26-5.9,4.22V1197c-1.23,1.7-3,.65-5.76,1.49l-2.24,2.67c.06.73.12,1.36.2,2.41l5.67.87-1.7,3.14,3,.58,3.52-7.74a1.39,1.39,0,0,1,.59-.4c.63-.11,1.28-.11,2.13-.17l1.31-3.79,2.11,1.59c1.16.16,1.29-.66,1.23-1.65Zm-24.71,13.71.71-.71a6.53,6.53,0,0,0-1.34-.63c-.17,0-.44.41-.66.63Z" transform="translate(-39.95 -400)"/><path class="cls-1" d="M2416,1232h-4v-5.06l-2.71-2.53c-3.27-2-5.68,2-9.06,1.51-.5-3.26,0-6.17-.28-8.91,2.15-2,4.54-.8,6.73-1s4.49,0,7.07,0v4.91l5.5,2.8c1.19-.39.53-1.92,1.11-3.25l2.79-.68L2425,1218h7.89l2.13-2H2440v8h-12.95c-.73.67-1.44,1.34-2.18,2h-4.16C2419.57,1228.29,2416.58,1229.14,2416,1232Z" transform="translate(-39.95 -400)"/><path class="cls-1" d="M2558,1188v6c-1.21-.23-2.59.56-3.59-.57.65-1.61,1.21-3.23,2-4.74C2556.59,1188.29,2557.44,1188.22,2558,1188Z" transform="translate(-39.95 -400)"/><path class="cls-1" d="M2439.44,1216.23l1.74-2C2442.54,1215.93,2441,1215.79,2439.44,1216.23Z" transform="translate(-39.95 -400)"/><path class="cls-1" d="M1660,1352h-13l-2.11,2c-2.11.76-2.81-1.34-4.21-2-2.23.07-4.51-.22-6.74.37.52,1.7,2.35,2,2,3.63-.89,1.68-2.08,2.45-3.11,1.86s-1.37-2.09-2.89-1.86v-5.4l5.53-3.58c-.4-2.17,3.77-3.37,2-6.67l-3.12-.53-3.21,4.33h-4.74l-.59,2.95c-1.56,1-2.32,4.25-5.37,2.37l-1.62-4.66c-.54,3-.87,4.75-1.21,6.58l-2.77,2.64c-1.66-.35-3.46.69-4.65-.78l-.69-3.33-3.53.6V1354h-6l1.78-3.16c-2.11-2.43-3.44.2-5.07,1.16H1592v-6l5.14,2.46c.44-1.35.73-2.22,1.08-3.27l-4.35-2.14,4.15-1.94-1.38-1.48a5.61,5.61,0,0,1-.61-1.7c-.07-2.64,0-5.29,0-7.93v-2c2.58.12,3,3.1,5.35,3.88.4-1.15.81-2.29,1.21-3.44l3.56-1.21L1604,1325c-.26-2.21.69-4.54-.64-6.61-2.33-1.27-5.29,1.07-7.36-1.37v-3h3l2.08,2h4c1.56-2.48,3.86-2.07,6.19-1.72,1.53,2.06.4,4.44.73,6.66,1.85,1.09,1.73,3.29,2.84,5l2.53-.14,1.29-3.6,2.13-.16c2.27,1.4,1.09,5.3,4.33,6h2.17c.39-1.14.8-2.29,1.2-3.45,2.12-1.71,3.3.43,5,1.89.32-1.57.5-2.48.71-3.51l5.6-3.22v-6.44c-1-1.76-2.14-3.94-3.54-6.52v-10.38l3.06-.33c.46,1.27.87,2.42,1.3,3.59,3.91,2.45,6.89-3.58,10.85-1.17,1,1.27-.76,1.34-.94,2.09s-.35,1.77-.48,2.5c1.54,1.7,3.32.65,5.12,1,.31.67.67,1.5.94,2.1-.9,3.27-3.92,3.3-5.93,4.69-.88,2,.72,3,1.82,4.12l-1.46,1.53c-1.09,2-.18,4.36-.63,6.81l-3.59,1.26c-.08.8-.17,1.7-.24,2.47,1.48,1.67,3.26.62,4.57.91l5.7-3.28c.38-.38,0-3.66,3-4.46l1.37,3.61H1671c.94-.7,1.57-1.19,2.3-1.75,1.17,2.57.65,4.84.52,7.35l-2.56.72-2.26-2.09-2,1.85-2.38-2c-.3,1.18-.52,2.08-.89,3.54-1.09,2-4-.5-5.84,1.54-1.13,1.3-3.2,1.78-5,2.73-.94-.66-2.36-2.75-3.65-1.55-1.53,1.43-3.48,1.51-4.92,2.61v5l5.12.52c.39,1.09.81,2.24,1.37,3.74h8.34C1660.62,1348.07,1659.74,1350.1,1660,1352Zm-18.58-4.83c4.83.91,4.83.87,6.24-.52C1645.89,1345.65,1644.11,1345.65,1641.42,1347.17Zm4.2-34.89-1.27.06c-.11.89-.28,1.77-.31,2.66,0,.22.48.68.63.64.47-.14,1.25-.44,1.26-.71A12.61,12.61,0,0,0,1645.62,1312.28Zm-6,22-1.27.06c-.11.89-.28,1.77-.31,2.66,0,.22.48.68.63.64.47-.14,1.25-.44,1.26-.71A12.61,12.61,0,0,0,1639.62,1334.28Z" transform="translate(-39.95 -400)"/><path class="cls-1" d="M1406,1316v6.92l2,2.16c-1.39,1-1.75,2.42-2.26,4-.44,1.4-2.18,2.38-3.53,3.73v6.37a25.31,25.31,0,0,1,2.85,2.93c.89,1.21,1.36,2.73,2.14,4s2.75,1.87,2.91,4.37l-2.09,2.66v10.19l-5.88,3.87c0,.75-.14,2.31-.24,3.88l-1.7,1.7c-.1,1.91-.22,4.13-.36,6.72-2.75.88-5.69.27-8.58.48-2,1-2.76,3.6-5.24,4-2,.16-2-1.24-2-3.25l4-3c-.18-2.94.66-5.27-.67-7.48-1.62.42-3.11,1.81-3.15,3-.07,2-1.76,2.68-2.13,4.17s.58,3.33-1,4.57h-5v-4l2-.84v-6.89c4-.88,3.45-5.22,6-7.29v-5l2-.82v-6.52c2.19-4.5,6.18-8.1,6.09-13.43L1390,1335v-3.93l2-2.09v-9.88l2-2.12v-3h3.09c.59,1.31,1.2,2.68,1.8,4H1401l2.1-2Z" transform="translate(-39.95 -400)"/><path class="cls-1" d="M1593.29,1333.71,1592,1333c.22-.22.49-.66.66-.63a6.53,6.53,0,0,1,1.34.63Z" transform="translate(-39.95 -400)"/><path class="cls-1" d="M1172.48,659.06c-1.56.53-2.85.7-3.81,1.37s-1.8,1.9-3.64,1.47c-.55-1.12-1.2-2.43-2-4l-1.94,4.11c-.7,0-1.75.25-1.93,0-1.15-1.82-3.69-1.56-5.33-3.49l3.5-.71c.32-.93.72-2.08,1.11-3.23,1.5-1.58,4,.6,5.38-1.37s3.51-1,5.36-1C1170.26,654.42,1171.32,656.62,1172.48,659.06Z" transform="translate(-39.95 -400)"/><path class="cls-1" d="M1392,1446v-4.78c2-3,5.88-4.4,6.24-8.46,2.7-.6,4.59-3.47,7.76-2.76v7.08l-4.14,1.92c.26,4.23,4.74,5.27,6.26,8.78-1.17,2.29-2.43,4.75-4.29,8.36v9.43l-3,.62c-1,2.18-2.1,4.39-3.78,7.87-1.53,1.73-4.92,3.92-6,7.92h-8.22l-1.14-3.33c-1-1.27-2.45-.4-3.67-.65.25-1.21-.67-2.71.67-3.63,1.67-1.15,1.33-2.78,1.33-4.37,1.22.25,2.65-.61,3.69.67.3,1.79.59,3.57.94,5.7l3.53-3.53V1458.6A8.72,8.72,0,0,0,1394,1455v-4l-2-2.09Z" transform="translate(-39.95 -400)"/><path class="cls-1" d="M1416,1418v-4.7c3.33-4.59,4.07-10.94,10-13.3.26,2.26,2,6.19,3.93,9.15v5.92c-1.38,1.64-3.16.61-4.92,1-.59,1.21-1.23,2.55-1.9,4l-2.16-2Z" transform="translate(-39.95 -400)"/><path class="cls-1" d="M1592,1352v2c-1,.07-1.86-.13-1.59-1.32C1590.49,1352.35,1591.45,1352.22,1592,1352Z" transform="translate(-39.95 -400)"/><path class="cls-1" d="M3920,1308c.45.78.92,1.55,1.33,2.35.27.52.45,1.1.67,1.65v4h-4.93l-2.09-2h-2.31l-3.75-4h-9.46l-3.46-2v-3l2-2.13V1299c4-2.89,4.56-8.55,9.51-11H3912c0,3.51-.07,7,.05,10.54A1.51,1.51,0,0,0,3914,1300v7.23C3916.24,1308.47,3918.16,1307.8,3920,1308Z" transform="translate(-39.95 -400)"/><path class="cls-1" d="M3922,1316c.67.43,1.65.72,1.92,1.33a7.17,7.17,0,0,1,.08,2.67c-.67-.43-1.65-.72-1.92-1.33A7.17,7.17,0,0,1,3922,1316Z" transform="translate(-39.95 -400)"/><path class="cls-1" d="M1386,1386c.23.57.37,1.54.71,1.62a42.13,42.13,0,0,0,4.57.64c1.37,1.52.35,3.26.77,4.79l1.37,1.37c1.38,2.17,0,4.5.75,6.49l-6,3.43v7.49l-2.86,5.64a3.86,3.86,0,0,1-1.41.5c-2.64.07-5.29,0-7.93,0-.67-1.33-1.33-2.67-2-4s-1.33-2.67-2-4v-2a4.42,4.42,0,0,0,3.88-3.61c.47-3.74,3.66-3.78,6.14-5.32v-10.26C1383.61,1388,1384,1385.9,1386,1386Z" transform="translate(-39.95 -400)"/><path class="cls-1" d="M3434,752l-4,0c0,1.64,0,2.81,0,4-2.68.2-1.54-2.27-2.34-3.33l-6-2.79-3.51,2.36-4.33-4.33-2.77,1.74c-.22-.19-1-.58-1-.88.4-3.39-1.74-5.87-2.92-8.58l-2.65-.53c-.74-2.69-1.33-5.13,1.54-6.57-1.39-1.69-2.81-.84-4-1.09.6-1,1.2-2.09,1.87-3.24l-7.44-3.39c-1-1.89-.19-4.17-.46-6.58a20.93,20.93,0,0,0,3.33-1.18c.4-.21.48-1.05.7-1.61,1.67.24,2.17-1.3,3.08-2.13,1.38-1.29.81-3.79,2.82-4.78,1.38-.68,2.75-1.37,4.08-2.13.14-.08,0-.63,0-1l1.72-.69c.24-2.42.49-4.86.71-7l3-.58c1.67-2.37-.76-3.4-1.07-5L3416,692c2.55-.35,5.21.66,7.69-.5-.27-1.88-3.61-3.3-.7-5.22l3.86,2.55c1-1.6,1.87-3,3.12-5V681c-.66-.76-1.27-1.45-1.9-2.15l5.4-2.77c1,.17,2.75-.74,4.27.6.19,1.48.36,3,.61,4.6,0,.26.45.45.69.68h23.88l2.12,2h3a1.7,1.7,0,0,0,2,2c1.62.34,1.93-1.5,3.14-1.86a4.81,4.81,0,0,0,5.39,2.09l4.68-4.23c.78,0,1.23-.14,1.43,0,1.24,1.05,2.37,2.27,3.67,3.23a9.22,9.22,0,0,0,2.47.94c2.42-2.2.9-3.6-.59-5,.37-.4.74-1.13,1.13-1.14,3.29-.09,6.59,0,9.68,0l1.81,1.81h6l6.86-4.1c.22-1.82.41-3.39.59-5,2.11-1.52,4.48-.45,7-.77,1.57-3.39,5.62-3.67,8.24-6h5.94c.71,1.08,1.79,2.75,2.56,3.91h4.82L3547,672h27.85l2.17,2H3596v7l-5,5h-6.42c-.29-1.69-.6-3.5-.91-5.29-.26-.24-.48-.61-.75-.65a14.64,14.64,0,0,0-2,0c-3.57,0-7.15,0-10.91,0,1,3.06,4.46,3.81,3.95,7.06-2.62,1.91-5.71.19-9.81,1.62l-2.31,3.24h-14.65l-3.23,2.59-5.54-4.76-10.22,5c-.11,1.21-.25,2.78-.4,4.36-.23.23-.46.67-.7.67-2.65,0-5.3,0-8.14,0l-2-1.88h-4.16c-.31-.78-.64-1.64-1.26-3.25a25.93,25.93,0,0,0-10.88-8.46c-.25.81-.6,1.9-1,3.31l-2.94.62c-.17.58-.92,1.82-.6,2.28,1.55,2.13,2.49,4.37,1.41,8.32l3.42-2.58c1.4,1.36,1.33,3.81,3.09,5-1.22,2.91,1.51,4.72,2,7,0,2.76-2.77,1-3.69,2.4a37.79,37.79,0,0,1-2.8,3.44h-4.85l-1.27,3.55c-2.15,0-1.08-1.71-1.43-2.7l-5.61-2.87H3479l-4.16,3.95h-7.15l-5,2.5c-.7,1.32-1.56,3-2.69,5.14V730h-3l-1.34-1.37c-2.17-1.36-4.55-.09-7.05-1-.19-.57-.47-1.45-.94-2.88-.33-.14-1.16-.42-1.93-.81s-1.61-1-3-1.79h-7.94c-1.49,1.46-.43,3.22-.85,5l-2.09.84-8.17,8.21c-.94,2.38,2.66,4.63,3.23,7.59,2.8,1,3.75-3.31,6.41-1.53.23.24.65.47.65.72C3434,746,3434,749,3434,752Zm59.93-48c.09,1.2.18,2.4.31,4l4.08-.45c-.43-1.57-.73-2.64-1-3.58h-3.24c-.11-1.25-.22-2.48-.34-3.83h-6.27l-3.57,2-6.1-6.19c-4.79,0-8.75,0-12.71,0-.24,0-.49.39-.82.68-.28,2.42-.85,4.93.61,7.29,4.38,0,8.67,0,13,0a6.16,6.16,0,0,1,1.74.55L3481,706c2.95,0,5.91,0,8.88,0a6.41,6.41,0,0,0,1.78-.59A12.5,12.5,0,0,1,3493,704C3493.24,703.87,3493.67,704,3493.93,704Zm-53.68-12.57c13.56,1.07,17.45.9,19.35-.83-1.76-.6-3.56-1.12-5-2.77-4.68.67-9.59-.51-14.54.66C3440.14,689.67,3440.19,690.56,3440.25,691.43ZM3482,711c1.33,1.44,2.67,1.44,4,0C3484.67,709.56,3483.33,709.56,3482,711Z" transform="translate(-39.95 -400)"/><path class="cls-1" d="M3484,720v2c0,2.47-1.73,1.93-3.67,1.92-.11-1.17-.2-2.26-.27-3C3481.51,719.51,3482.82,720.2,3484,720Z" transform="translate(-39.95 -400)"/><path class="cls-1" d="M3459.77,729.44l2.05,1.74C3460.07,732.54,3460.21,731,3459.77,729.44Z" transform="translate(-39.95 -400)"/><path class="cls-1" d="M3115,816c-2.66,0-5.33,0-8,0-.24,0-.47-.45-.71-.69.9-3.19,4.67-2.72,6.48-5.1h6.42C3120,811.05,3120,811.05,3115,816Z" transform="translate(-39.95 -400)"/><path class="cls-1" d="M3198.63,823.65c-1.38-1.3-.57-3.18-.24-5.28l2.73-.53c.38.91.71,1.74,1.31,3.21Z" transform="translate(-39.95 -400)"/><path class="cls-1" d="M3130.23,814.56l-2.05-1.74C3129.93,811.46,3129.79,813,3130.23,814.56Z" transform="translate(-39.95 -400)"/><path class="cls-1" d="M3458,908c-1.25-3.59-5.06-4.94-6.53-8h-2.62a22.62,22.62,0,0,0-1.22-3.3c-.22-.42-1.07-.49-1.63-.72v-5l-2-2.15c2.43-2.06,5-.2,7.72-1.21.16,3,.29,5.25.41,7.5,2,.94,3.88,1.88,5.82,2.8.55.27,1.6.41,1.64.7.52,4,4.31,5.53,6.38,8.45V912h-3.09l-1.82-4Z" transform="translate(-39.95 -400)"/><path class="cls-1" d="M3384.6,847.06l-4.49,2.88c-.19,3.25-.05,5.52-.17,8.59-3.8-5.69-3.8-5.69-3.76-9.71l2.11-2.12c.24-.23.47-.47.73-.73C3380.57,846.23,3382.28,845.51,3384.6,847.06Z" transform="translate(-39.95 -400)"/><path class="cls-1" d="M3294,840a1.7,1.7,0,0,1-2-2A1.7,1.7,0,0,1,3294,840Z" transform="translate(-39.95 -400)"/><path class="cls-1" d="M3384.56,839.77l-1.74,2.05C3381.46,840.07,3383,840.21,3384.56,839.77Z" transform="translate(-39.95 -400)"/><path class="cls-1" d="M2516,1316c-1.59-3.23-3.19-6.45-4.94-10h-5.88l-3.45-3.19,3.67-1.19c1.16-1,.37-2.41.6-3.62,1.68-.85,1.87,2.69,3.85,1.3v-8.52L2504,1288v-2c3.47-1.34,5.12-4.76,7.9-6.77.08-1.69.16-3.24.22-4.37,2.59-2.22,3.56.48,5.06.86l2-1.57c1.58,1.65,3,3,4.84.74V1270l1.92-.93-1.74-2.17,2.61-2.72L2530,1266c.34,2.07,1.95,3,3.48,4H2546v5.1l-4.09,1.91,5.28,2.71,1.85-1.7h2.21c.29.81.61,1.68.79,2.21-1,3.26-4.09,3.19-5.73,4.51.8,3.56,5,2.53,6.61,5.19a79.59,79.59,0,0,0,8.2,0L2563,1288h3v5.42l4.05,3.74v4.14l3.42,1.17c.18.58.6,1.22.49,1.74-.63,2.83-4.54,3.7-4.27,7.1a19.49,19.49,0,0,0-4.93,6.83c-.54,1.12-1.79,1.89-2.74,2.84v7.89c.79,1.26,2.68,2,1.86,4.41l-3.24,1.06c-1.24,1-.39,2.44-.64,3.66-.57-.23-1.62-.45-1.62-.7-.12-4.1-3.58-4.74-6.32-6.21v-6L2554,1323v-5.93l-2-2.09v-3c.26-1.23-.63-2.67,1-4,.62,1.32,1.2,2.54,1.81,3.85,1-1.54,1.92-3,2.78-4.51,1.08-1.89-.61-4.72,2.08-6.15.33-.18.24-1.19.31-1.82a8.16,8.16,0,0,0,0-1,4.66,4.66,0,0,0,0-1,8.24,8.24,0,0,0-.67-1.41c-2.57-.1-5.5.09-8.38-.09L2549,1294c-2.06,0-4.66,0-7.25,0-.55,0-1.09-.54-2-1v-6.26l-3-2.68h-3.34c-1.65.48-2.57,3.38-4.95,1.52l-1.25-3.57-3.06.41V1291c2.22,2.59,2.62,6.22,5.73,7.69V1303L2528,1305v2l-4.88,4.8-2.65.54c-.48,1.41-.87,2.57-1.23,3.65Zm3-12.15c-1.29,1.81-1.88,3.08.29,3.91C2520.38,1306.59,2520.31,1305.49,2519,1303.85Z" transform="translate(-39.95 -400)"/><path class="cls-1" d="M2572,1232v11l2,2.15v3.28c2.68,4.24,4,9.58,8.45,13.2-2.33,2.61-2.19,6.29-5.68,8.22h-4.36l-.69-3.34-5.31-.87c-.21-1-.41-1.88-.61-2.78l-6.57-6.58h-8.5c-1.55,2-.4,4.42-.74,6.69l-2,2.12v3h-12.92l-2.12-2h-3l2.08-4c-.35-.71-.6-1.28-.91-1.81s-.64-.93-1-1.4c4.4-2,4.42-2,5.78-4.46a22.38,22.38,0,0,0,1-2.41h5.73c2.28-1.37,4.63-2.12,5.91-3.72,1.52-1.91,4.31-1.36,5.53-3.74v-10.89c2.16-4,4.11-7.14,4.35-11.06L2562,1219v-15c2.07.34,3,2,3.83,3.54,1,2-1,4.47,1.06,6.35l4.41.26c1.18,2.07.5,4,.7,5.85h-3.23a14,14,0,0,1-.8,2.48,34.44,34.44,0,0,1-2,3c.44,2.21-1.09,4.66,1.08,6.49Z" transform="translate(-39.95 -400)"/><path class="cls-1" d="M2613.13,1270H2603l-3.7,3.7-4.7.51c-.37,1.07-.78,2.22-1.25,3.57h-8.54c-.95-2-1.88-3.9-2.93-6.06,1.11-2.81,5.08-4,4.79-7.8,2.49,1.53,3.53,3.77,4.48,6.06h3l9.71-4.88c.2-1,.38-1.9.61-3.06l3.41,2.09,3.86-2.15c2.35,0,3.16,2,4.3,3.44C2616.41,1267.5,2614.55,1268.17,2613.13,1270Z" transform="translate(-39.95 -400)"/><path class="cls-1" d="M2582,1235l4.88-4.88c2-.82,2.94.76,4.1,1.86h3.92c2.23,1.84.68,4.3,1.19,6.88l-6.25,4.74v14.12c-1.75-1.53-1.75-1.53-1.84-4.57l-2-2.17v-6.21l-4-3.2Z" transform="translate(-39.95 -400)"/><path class="cls-1" d="M2589,1208l2.1-2h2c1.68,1.27.68,3.06,1.09,5.2l-7.85,6.68c-.61,2.8.43,4.57-1.22,6l-4.9-9.6v-5.51c.41-.38.64-.8.88-.8C2583.68,1208,2586.32,1208,2589,1208Z" transform="translate(-39.95 -400)"/><path class="cls-1" d="M872,756v2.93c1.45,2.14,3.63,3.22,6.06,4.17l-4.47,2.06,3.88,1.31c.18.26.51.51.51.77,0,3.58,0,7.17,0,10.76-1.59,0-3.22.34-4.37-1.33-.92-1.34-2.42-.42-3.63-.67v-5c-1.51-1.45-2.82-.77-4-1-.56-.23-1.59-.41-1.62-.7-.3-2.87-.43-5.76-.61-8.55-2-1.13-4.72-.9-5.68-3.57v-3.83L852,749.41V743.1l-2-2.16c1.38-.69,2.78-1.31,4.1-2.08s1.9-2.55,3.75-2.93A19.38,19.38,0,0,0,862,734c0,1.17,0,2.34,0,4l4,0c.24,1.6-1.33,2-2,3s-2.24,1.4-2,3c-1.82-.14-2,1.08-2,1.82l8.11,8.18c-.72,0-.35-.11-.09,0C869.36,754.65,870.68,755.33,872,756Z" transform="translate(-39.95 -400)"/><path class="cls-1" d="M924,828l3.31,1.9c.33-1,.69-2.14,1.07-3.3,1-1.16,2.41-.37,3.62-.6h4.89c1.1,1.46,3,2.11,3.27,4.48.25,1.94,1.91,3.69,2.94,5.52h7.44l3.46,2c.23,1.23-.55,1.66-1.52,2-1.13.41-2.23.91-4.51,1.85H940.1c-1.84.86-3.19,1.55-4.58,2.12-.95.39-1.75.79-1.52,2h-4c-.25-1.22.61-2.65-.78-3.77l-4.46-.47-3.61-3.61-6.19-.32c-2-1.47-2.77-3.56-5-3.83.2-1.18-.48-2.49,1-4h5c.23.56.37,1.55.7,1.62,2.48.5,5,.94,7.3-.54Z" transform="translate(-39.95 -400)"/><path class="cls-1" d="M878,778h4l8,8.12c0,.78-.16,2-2,1.88,0-.32.1-.89,0-.93a16.72,16.72,0,0,1-6.11-4.05c-.93-1-2.6-1.36-3.88-2Z" transform="translate(-39.95 -400)"/><path class="cls-1" d="M902,806c.08-2.42,1.67-2.08,3.47-1.76a11.3,11.3,0,0,1,.1,7.11c-.09.33-1,.44-1.57.65a1.54,1.54,0,0,1-2-1.37A39.69,39.69,0,0,1,902,806Z" transform="translate(-39.95 -400)"/><path class="cls-1" d="M892,796c.53.2,1.51.38,1.52.59.06,2.18,2.17,3.39,2.48,5.41-1.18-.2-2.49.48-4-1Z" transform="translate(-39.95 -400)"/><path class="cls-1" d="M905.85,828l.68-4.36c1.09,1,1.8,1.65,2.42,2.34a6.64,6.64,0,0,1,.73,1.34A16.69,16.69,0,0,1,908,828,12.7,12.7,0,0,1,905.85,828Z" transform="translate(-39.95 -400)"/><path class="cls-1" d="M888,788v2c-1,.07-1.86-.13-1.59-1.32C886.49,788.35,887.45,788.22,888,788Z" transform="translate(-39.95 -400)"/><path class="cls-1" d="M896,802a1.7,1.7,0,0,1,2,2A1.7,1.7,0,0,1,896,802Z" transform="translate(-39.95 -400)"/><path class="cls-1" d="M892,792c1-.07,1.86.13,1.59,1.32-.08.33-1,.46-1.59.68Z" transform="translate(-39.95 -400)"/><path class="cls-1" d="M2740,1314v-15l-2.82-2.82L2734,1298v-3.25l3.39-1.15c1.49-2.15-.08-4.51.74-6.36l-2.11-2.41c-.38-2.62,1.85-3.35,3.19-5l1.28,3.65a2.38,2.38,0,0,0,3.54-.52c-.12-3.47-3.05-4-3.92-6.35l2.58-.79,2.51,2.27c.7-.22,2-.23,2.37-.82,1-1.71,3.13-.78,4.32-2.12v-10c-1.27-1.62-2.51-3.59-5.19-3.48a5.68,5.68,0,0,1-.67-1.71c-.07-2.66,0-5.33,0-8l4,0c0-1.64,0-2.81,0-4h3.07l2.72,3a41.78,41.78,0,0,0,.61,4.3c.08.34,1,.47,1.6.69v2.77l2.43,3.22-2.2,3.07v7.15a16,16,0,0,0-2.16,3.31c-.42,1.18,0,2.73-.52,3.78s-1.75,1.83-1.58,3.37c.14,1.32,0,2.66,0,4.51l-4,2.65V1294c-2.51,4.59-3.87,9.87-8.15,13.26v6Z" transform="translate(-39.95 -400)"/><path class="cls-1" d="M2730,1348a1.7,1.7,0,0,1,2-2A1.7,1.7,0,0,1,2730,1348Z" transform="translate(-39.95 -400)"/><path class="cls-1" d="M3432,870h2c.07,1-.13,1.86-1.32,1.59C3432.35,871.51,3432.22,870.55,3432,870Z" transform="translate(-39.95 -400)"/><path class="cls-1" d="M2540,1414c-.24-.57-.32-1.42-.74-1.65a27,27,0,0,0-4-1.39l4.33-1.53c2-3.12-3.91-4.74-2-7.35,1.1-1.62,1.8-2.65,2.48-3.67-.93-2.06-1.81-4-2.7-6l-2.68-.7a5.28,5.28,0,0,1-.67-1.71c-.05-4.66,0-9.33,0-14h5.37c.31,1.73.05,4.08,1.1,5.21,1.62,1.73,1.08,3.59,1.65,5.33s2.15,3,2.37,5.24l4.67.38a3.5,3.5,0,0,1,.68.71,2,2,0,0,1,.15.92c0,3.24,0,6.48,0,9.67-2.85.15-3.21-2.9-5.38-3.08-.21.25-.59.49-.59.73,0,3.63,0,7.26,0,10.89-.78.45-1.55.92-2.35,1.33C2541.13,1413.6,2540.55,1413.78,2540,1414Z" transform="translate(-39.95 -400)"/><path class="cls-1" d="M2540,1424c-2.67,0-1.89-2-2-3.49s.08-2.66,2-2.51c1.68.89,2.45,2.08,1.86,3.11S2539.77,1422.48,2540,1424Z" transform="translate(-39.95 -400)"/><path class="cls-1" d="M3473,852h5.55l3.57,2.75c-.2,1.31-.3,1.92-.43,2.82l-3,.66-1.86,2.16-1.27-4-2.75-.55C3471.54,854.68,3471.57,853.35,3473,852Z" transform="translate(-39.95 -400)"/><path class="cls-1" d="M2422,540l2,3.51v3.32l-5.48,3.17H2414c-.15-2.54-1.74-2.11-3.63-1.62-.16.83-.34,1.73-.57,2.87-2.17,1.31-4.67.75-7.07.47l-1.61-1.6h-6l-2,1.65c-1.7-.35-.86-1.93-1.37-3l-8-4,4.16-1.62V537c2.37-1.83,4.77-.29,6.45-1L2398,538h5.2l3.54,4c2.5-.29,4.79.55,6.89-.62q.48-2.73.94-5.38h2C2418.85,537,2419.49,539.69,2422,540Z" transform="translate(-39.95 -400)"/><path class="cls-1" d="M2361,536c.73-.68,1.44-1.36,2.18-2h4.15l1.19-3.44c.26-.18.52-.5.79-.5,3.29,0,6.59,0,9.73,0l3,3v8c-1.81,2.19-4.29.63-7.49,1.27-.58.88-1.67,2.53-2.24,3.38-2.89.65-4.27.49-4.29-1.9,0-.54-.57-1.08-1-1.78-.68,1.45-1.3,2.79-1.9,4.08H2363l-2.2-2H2357l-1.71-1.71h-5.32c-2.64-1.32-4-3.56-5.84-5.32L2347,534h4l2.09,2Z" transform="translate(-39.95 -400)"/><path class="cls-1" d="M2510,528v5c-.22.24-.45.68-.67.68-4.21,0-8.42,0-12.65,0L2496,532l.78-1.92,2.15,1.75c2.6-2-.32-5.56,1.93-7.69,2.38,1.18.43,3.53,1.56,5.41l2.36.58L2507,528Z" transform="translate(-39.95 -400)"/><path class="cls-1" d="M2842,466h8.92a5,5,0,0,0,5.08,2c-.43.67-.72,1.65-1.33,1.92a7.17,7.17,0,0,1-2.67.08l-3.51,2h-3.7l-2.79-3.43Z" transform="translate(-39.95 -400)"/><path class="cls-1" d="M2312,430c.23-.56.39-1.57.69-1.61,1.9-.25,3.83-.21,5.74-.41,1.57-.16,2.13-2.45,4.08-2a12.79,12.79,0,0,0,2,0,3.49,3.49,0,0,1,.85.31L2326,428l-3.43,2Z" transform="translate(-39.95 -400)"/><path class="cls-1" d="M2414,550c-.37,1.28,1,3.09-1.17,3.83C2412,551.18,2412,551.18,2414,550Z" transform="translate(-39.95 -400)"/><path class="cls-1" d="M3402.56,731.77l-1.74,2.05C3399.46,732.07,3401,732.21,3402.56,731.77Z" transform="translate(-39.95 -400)"/><path class="cls-1" d="M3387.44,782.23l1.74-2.05C3390.54,781.93,3389,781.79,3387.44,782.23Z" transform="translate(-39.95 -400)"/><path class="cls-1" d="M3115.29,719.71,3114,719c.22-.22.49-.66.66-.63a6.53,6.53,0,0,1,1.34.63Z" transform="translate(-39.95 -400)"/><path class="cls-1" d="M3050,672c1-.07,1.86.13,1.59,1.33-.08.32-1,.45-1.59.67Z" transform="translate(-39.95 -400)"/><path class="cls-1" d="M2532,1376c.2,2.67-2.35,1.46-3.34,2.38-1.93,1.79-3.74,3.7-5.78,5.74a21.47,21.47,0,0,0-1.25-3.4c-.22-.42-1.07-.49-1.63-.72.77-1.64,1.55-3.27,2.35-5-3.38-2.09-6.88-.08-10.11-1.67v-4.86l2.91-.72,1.79-3.8H2519c1.69-1.26.69-3.07,1.12-5.33l5.57-4.46h7.52c1.5,1.61.28,3.34.67,4.3l-3.71,7v9.8Z" transform="translate(-39.95 -400)"/><path class="cls-1" d="M2507.85,1370v7.4l-5.7,4.42h-7.41c-1.39-2.31-.55-4.64-.68-6.87l4.94-5Z" transform="translate(-39.95 -400)"/><path class="cls-1" d="M2532,1320h5.33c.53,1.6.89,2.71,1.24,3.77,1.76.31,3.35.65,3.43-1.77h3c2.34,2.23.18,4.91,1.11,6.93-1.81,1.74-3.55.72-5.06,1.07l-2.09-2-1.46,1.46c-1.46.94-3.07.37-4.64.34l-2.8-2.8,1.95-2.11Z" transform="translate(-39.95 -400)"/><path class="cls-1" d="M2504,1296a1.7,1.7,0,0,1,2,2A1.7,1.7,0,0,1,2504,1296Z" transform="translate(-39.95 -400)"/><path class="cls-1" d="M2652,590c-.15.16-5.42,4-5.54,4-2.22.45-4-.74-5.79-1.68-1.24,1.09-.44,2.47-.67,3.68-2.69.21-1.53-2.3-2.51-3.54-1.29-1.19-3,0-4.39-.56l-1.55,1.56a6.91,6.91,0,0,1-1.76.52c-7.26,0-14.53,0-21.79,0a1.7,1.7,0,0,0-2-2,1.54,1.54,0,0,0-1.49-2c-2.55-.25-3.87-1.73-4.51-4h6.92l1.42,1.34c.23.22.47.63.71.63,2.63,0,5.27,0,7.9,0l2.13,2h13.84l2-1.92c2.05-.64,3,.87,4,1.92Z" transform="translate(-39.95 -400)"/><path class="cls-1" d="M2525.13,1421.72l1.23,3.64c2.23,1.73,5.21-.49,7.42,1.41-1,2.66-3.46.43-5,1.41l-1.62,1.62h-10.47c-1.53-1.77-.74-3.06.69-4.21A22.55,22.55,0,0,1,2525.13,1421.72Z" transform="translate(-39.95 -400)"/><path class="cls-1" d="M2660,586a16,16,0,0,1-1.29,2.25,17,17,0,0,1-1.9,1.75H2652c0-.31-.07-.87,0-.89C2654.79,588.36,2656.68,585.33,2660,586Z" transform="translate(-39.95 -400)"/><path class="cls-1" d="M2526,1246v-2.83c1-1.82,2.79-.8,4.17-1.22s2.59-1.36,3.95-1.91a5.12,5.12,0,0,1,1.88,0v6.37l-3.22-2.37C2530.16,1243.5,2528.85,1247.36,2526,1246Z" transform="translate(-39.95 -400)"/><path class="cls-1" d="M2695.64,579.4c-.48.13-1.51.79-2.16.52a53.35,53.35,0,0,1-5.44-3c1.2-1.64,2.95-.69,5.19-1.1Z" transform="translate(-39.95 -400)"/></g></g></svg>