<svg xmlns="http://www.w3.org/2000/svg" viewBox="0 0 4320 2160"><defs><style>.cls-1{fill:#6bce6e;}</style></defs><g id="Layer_16" data-name="Layer 16"><g id="Cwb"><path class="cls-1" d="M2238,380v2h-5l-2.77-2.87c-.16-1.49-.34-3.05-.54-4.9l-4.82-.38c-.28-.55-.79-1.09-.8-1.64-.08-3.65,0-7.29,0-10.71-1.32-2.33-2.55-4.48-4-7V341.24c2.32-3.36,5.56-5.38,9.94-7.22h3.83l5.06-6h5.52c3.47-2,6.88-4.23,11.29-4.44.18-.86.36-1.76.58-2.81,1.19-1.46,3-.44,5.1-.88l3.13-3.87H2270c-.15,1.9,1.16,2.07,2.51,2s3.48.69,3.49-2h2v3.22a16.1,16.1,0,0,0-2.43.81,26.34,26.34,0,0,0-2.72,1.81h-5.69a33.27,33.27,0,0,1-3.93,3.83c-1.17.85-2.73,1.17-5.76,2.39H2253c-1.55,1.34-.73,2.73-1,3.94h-7c-1.45,1.51-.77,2.82-1,4a1.7,1.7,0,0,0-2,2h-2.95l-2.12-1.94a4.74,4.74,0,0,0-.74.76c-1.43,2.49-4.58-.06-6.21,2.23l4.07,1.89-2.91,2.92a17.52,17.52,0,0,0-1.93.16c-.28.06-.52.35-1,.7v8.51c2.47,1.89,1.86,6.46,6.37,6.79,1.7-1.53,2.26-4,3.41-6a19.94,19.94,0,0,0,2.37-1.4,2.37,2.37,0,0,1,3.51.23v4c-1.4,2.63-4.91,3.87-5.88,7.17l-4,0c0,1.64,0,2.81,0,4v5c1.51,1.45,2.82.77,4,1Z" transform="translate(-208 -314)"/><path class="cls-1" d="M300,842c.67.43,1.65.72,1.92,1.33A7.17,7.17,0,0,1,302,846c-.24,1.21.59,2.62-.53,3.56s-3.67-.21-3.47,2.44a1.7,1.7,0,0,0-2,2c-1.23.23-1.81-.52-2-1.53s.09-2-.06-2.94-.74-1.76-2-1.53c.9-2.74,3.35-4.12,5.16-6Z" transform="translate(-208 -314)"/><path class="cls-1" d="M1938,322c-.2-2.07,2.17-2.26,2.52-3.76l4.75-.51,1.57-1.57h10.42c.29.72.52,1.28.74,1.84h-4.52c-1.37.78-2.45,1.38-3.51,2s-2.12,1.26-3.38,2Z" transform="translate(-208 -314)"/><path class="cls-1" d="M1450,1696v3.08l2.12,1.85c-2,1-1.84,3.25-2.82,4.78-2-.16-1-1.79-1.54-2.88-.3-.18-.93-.89-1.31-.77-3.18,1-5-2.3-7.78-2.47-.25,0-.45-1-.67-1.59a39.69,39.69,0,0,0,4.63,0,1.54,1.54,0,0,0,1.37-2Z" transform="translate(-208 -314)"/><path class="cls-1" d="M1306,852h8c-.2,2.67,2.25,1.55,3.42,2.4,1.15,1.73.34,3.72.58,5.6a1.7,1.7,0,0,0-2,2h-2c-2,.16-2-1.22-2-2.73l2.06-2.46c-2.48-1-4.94-2-7.32-3.16C1306.31,853.45,1306.23,852.57,1306,852Z" transform="translate(-208 -314)"/><path class="cls-1" d="M1908,316v-2h6a1.52,1.52,0,0,0,1.44,1.95c2.85.13,5.71.05,8.56.05v4h-8.88c-1.17-.95-2.06-2.24-4-2.11C1910,318,1909.63,315.73,1908,316Z" transform="translate(-208 -314)"/><path class="cls-1" d="M554,412c-.67-.43-1.65-.72-1.92-1.33A7.17,7.17,0,0,1,552,408v-4.75l-1.84-2.44c1.35-1.3,2.66-.61,3.84-.81-.24,1.6,1.33,2,2,3s2.24,1.4,2,3c.24,1.6-1.33,2-2,3S553.76,410.4,554,412Z" transform="translate(-208 -314)"/><path class="cls-1" d="M3934,1158c-.22.56-.39,1.57-.68,1.6-2.17.26-4.37.32-6.47.45-.89-1.65-2.95-2.06-2.85-4h10Z" transform="translate(-208 -314)"/><path class="cls-1" d="M2242,384c4.21,0,4.21,0,8,2v2c-1.9,0-3.81,0-5.71,0a9.51,9.51,0,0,1-1.74-.41C2241.49,386.52,2242.21,385.19,2242,384Z" transform="translate(-208 -314)"/><path class="cls-1" d="M208,428h5c1.45,1.51.77,2.82,1,4C210.9,432.32,208.78,431.16,208,428Z" transform="translate(-208 -314)"/><path class="cls-1" d="M2372,1218v15L2374,1235v4l-3.69,3.7c-.16,1.44-.33,3-.5,4.52-1.46,1.56-3.28.12-5.34,1.31l-1.25,1.25-4.22.3-2.16,1.87c-2.78.21-4.28-3.65-7.95-1.64l-1.86,1.53h-8.09l-2.76,4.11H2332l2-3.47V1247l5.8-5.8v-6.37c-1.48-1.51-3.23-.46-5.27-.93-.18-.9-.41-2-.6-3,2.16-1.48,4.17-.65,5.94-1.18.32,1.27.18,2.82,1.93,1.46a17.45,17.45,0,0,0-1.93-1.46c.11-2.72.11-5.72.11-8.73l-1.69-1.66a12.88,12.88,0,0,1,.56-7.88c.89,3.55,3.79,5.61,3,9.73l4.07,2.76,1.5-.14c.22-.8.47-1.69.7-2.54L2346,1219v-4.33l5.64-1.07c.17-.84.36-1.75.58-2.81,1.19-1.47,3-.43,4.52-.75,2,1.28,3.41,2.89,3.61,5.33l6.06,2.78,3-2.12C2370.76,1216,2372.16,1216,2372,1218Z" transform="translate(-208 -314)"/><path class="cls-1" d="M2422,1246h-4.86l-2.13-1.93h-4.2l-2.81-3.52V1238h2.92c2.86-2.11-.24-3.57-.59-5.33l1.67-.67h4v3c2.28,1.63,3.42,4.84,7.22,5.18a14.23,14.23,0,0,1,1.1-3.43c.66-1.06,2-1.72,1.65-3.33l-1.9-2.94c1.89-.78,3.49-.47,5.15-.38,1,1.31,2.1,2.48,4.21,1.54,1.1-.94.14-3.05,1.86-4,1.44-.81.45-2.42.71-3.64h13a15.9,15.9,0,0,1,6.91-8.25l3.52,2.12h5.6c1.09-.37,1.72-2.62,4-1.78l1.87,3.92c1.74-1.23.65-3.09,1.16-4.52a21.3,21.3,0,0,1,2.26-3.8c-1.77-2.07-3.22-3.75-4.4-5.12a4.37,4.37,0,0,1,2.94-4.23c3.46-.62,4.74-2.65,5.59-5.68.29-1,1.67-1.78,2.54-2.65,1.71,1.51.66,3.29,1,4.88l-2,2.15v3c-.56.23-1.53.36-1.62.71a23.18,23.18,0,0,0-.47,3.68c1.52,2.27,2.84,4.57,6.25,3.61v11.56l3,.64,2.86,5.69-2.77,5.83c-1.9-.23-1-1.82-1.39-2.84-1.53-1.53-3.82-1.21-6.75,1a7.4,7.4,0,0,1-.93.12c-1,0-2,0-3,0a10.64,10.64,0,0,1-4.26-6h-3c-2.54.34-5.2-.65-7.59.46-.44,1.32-.81,2.45-1.2,3.65-2.53-1.58.22-4.8-2.58-6.22l-2.41.65q-.28,2.74-.48,4.71c-1.73,1.79-4.22-.41-5.59,1.61s-4.31.15-5.23,1.48c-1.35,1.93-3.84.88-4.92,2.69v3c-.78.45-1.55.92-2.35,1.33-.52.27-1.1.45-1.65.67h-4.59c-1.26.75-2.29,1.41-3.37,2C2424.72,1244.7,2423.35,1245.33,2422,1246Z" transform="translate(-208 -314)"/><path class="cls-1" d="M2506,1106v-7l1.87-1.79c.47-2.42-.12-5.39.11-7.42l5-9.77h5c.95,2.85-2.47,4.41-2.1,7.1-2.64,2.4-2.86,4.81-.35,7.56.75.82.85,2.25,1.46,4,.61-1.8,1-3,1.4-4.12,2.14-1.31,4.48-.06,6.54-.76.45.8,1,1.33,1,1.88.09,2.59,0,5.18,0,7.89l-5.29-1.31c-.92,1.61-.94,3.72-2.67,4.82V1111l1.8,1.8v8.69l5.95.9v7.1l-3.26.74-1.19,6.07-3.28-3.28v-3.87l-2-2.22v-3.79c.82-1,1.57-2,2.34-3-1.27-2.84-3.74-4.13-5.33-6.15h-2c-2.19,2-.7,3.4.89,4.89v10l-1.79,2c-.09,1.49-.18,3.07-.28,4.79l-3,.13c-2.29-2.38,0-3.53,1.47-5.29l-6-1c-.1-.93-.19-1.83-.3-2.87l3.57-1.28c1.29-1.89-.11-3-1.26-4.1l3.44-6.59-3.1-1c-1.28-1-.4-2.45-.66-3.68.22-.55.4-1.13.67-1.65C2505.08,1107.55,2505.55,1106.78,2506,1106Zm6,4c2.27-.83,4.28-1.83,4.18-3-1.46-2.57-2.21-3.91-3.3-5.85-1.42,3.6-.56,6.26-.3,8.58-1.55.44-3.1.3-1.74,2A5.75,5.75,0,0,0,2512,1110Z" transform="translate(-208 -314)"/><path class="cls-1" d="M2566,1196h-8v-8h5l5-10c0-3.15-2.87-1.11-3.65-2.68a8,8,0,0,1,.64-1.24c2.31.81,3-2.21,5-2.06.43.67.72,1.65,1.33,1.92a7,7,0,0,0,2.67.08c.67.43,1.65.72,1.92,1.33a7.17,7.17,0,0,1,.08,2.67h-2.73c-3.32,2.53-5.85,5.46-6.86,9.77l4.66.38c.77.66,1.48,1.29,2.44,2.13l6.46-3.17v-3.86c1.12-2,3.62-2.81,4-5.25l3.47-2h3.66c.55-.64,1.17-1.38,1.71-2h2.42c.23-.78.48-1.64.74-2.49s.79-1.74,2-1.51v3.37l5.63,1.06c.15,1.93-1.35,1.41-2.38,1.6-2.79,2.15-4.68,5-6.55,8-1.66,2.71-4.67,4.6-7.27,7l2.14,4.11-1.44,1.85,3.73,1.79c-1.76,3.81-7.08,3.17-8.49,7.12h-4.23a5.55,5.55,0,0,1-1.12-1.32c-2.66-6.16-2.65-6.16-7.55-10.7a24.6,24.6,0,0,0-3.75.46C2566.36,1194.46,2566.23,1195.43,2566,1196Z" transform="translate(-208 -314)"/><path class="cls-1" d="M2402,1236h-3l-2.14,2H2395l-5.62,5.62c-2-.36-2.49-2.64-4.26-3.32-3.38-1.26-3.25,1.6-3.27,3.76l-4-.46,1.79-2.36-3.52-6.92v-5.24a9.73,9.73,0,0,0,1.66-1.94,12.76,12.76,0,0,0,.65-2.94l5-.39c.24-.79.49-1.66.71-2.38-1.15-2.18-3.7-3-4.11-5.45v-3c1.67-1.16,2.43-4.22,5.89-2.36.06,1.29.13,2.85.2,4.43,1.25,1.62,3,.59,5.07,1l3.05-3.95c2.54-.36,4-.2,3.7,3.15l-3.79,1.9v6.86c-.49,2-3,2.5-1.65,5.2,1.54.72,3.71,1.7,5.86,2.72C2400.08,1232.84,2401.66,1233.86,2402,1236Z" transform="translate(-208 -314)"/><path class="cls-1" d="M2584,1112h2.53l3.47-2c0,2,0,4,0,6-1.2,0-2.38.13-4,.25.1,1.4.17,2.48.26,3.79,2-1.12,3.41-2.08,3.72-4,1,0,2,0,2.95,0,1.72,1.62,1.54,3.44-.8,6.89v8.29c1.56,1.49,3.28.48,5.23.92.31-1.83.63-3.63.94-5.45,1-1.25,2.45-.41,3.67-.65h2c-.26,1.22.73,2.83-.71,3.65-1.73,1-.76,3.09-2,4.13l-5.09.56c-.12,2.34-.23,4.57-.35,7-2.4,1.06-4.88.8-7.31.32-.46-1.33-.86-2.48-1.25-3.62H2585l-2.08,2h-3v-8l.84-2h6.41c1.32-2.49.59-4.79.68-7.07-1.63-1.6-1.87.86-2.83,1-1.32.17-2.55.23-3.41,1.45-1,1.37-2.46.43-3.69.7v-11.31l3.6-2.69Z" transform="translate(-208 -314)"/><path class="cls-1" d="M2612,980h3c.21.22.62.45.64.7.19,3.27.32,6.55.44,9.37-.46,2-2.84,2.56-2,4.9l3.77,1.87c-.38,1.23-2.21,1.54-1.88,3.16.13,1.74-1,2-2.63,2l-2.69-2h-3.17l-3.51-2h-6.62c-1.39-.21-1.47-2.67-3-1.17-1.72,1.36,1.15,4-1.66,4.95-1.48-1.37-.42-3.15-.83-4.92-2.72-2-4.41-5.47-7.94-6.86-1.84.15-2-1.1-2-3.27l6.58-4.48c1.19.21,2.67-3.29,5.46-2.25l1.69.69c-.32,2.62-5.29,3.12-3.07,7l4.66.52c.73,1.36,2.82,1.76,2.72,3.78-1.22.43-3.16-1.06-3.73,1.33,1.86,1.24,3.85.43,5.73.67,3,0,6,0,9,0,.25,0,.48-.42.72-.65,2.36-2.28-1.77-3-1.21-4.8l3.63-1.28L2612,985v-5Z" transform="translate(-208 -314)"/><path class="cls-1" d="M2638,992v-3.33l-3.26-.9c-.46,1.44-.82,2.55-1.18,3.69-1,1-2.37.33-3.56.54v-4c1.17.22,1.68-.51,2-1.43s.45-1.69.49-1.87l5-2.54a27.62,27.62,0,0,0,3.86-.59c.34-.11.44-1,.65-1.57a1.7,1.7,0,0,1,2-2c2.3,1.3,2.79,1.92,1.59,3.28-2.41,2.71-2.51,5,.12,7.5.35.34.26,1.2.27,1.82,0,.27-.25.54-.48,1C2643.14,992.59,2640.52,991.69,2638,992Z" transform="translate(-208 -314)"/><path class="cls-1" d="M2500,1210h-6v-16.87c1.62-1.28,2.38-4.24,5.4-2.73.2.25.57.5.57.75C2500,1197.43,2500,1203.72,2500,1210Z" transform="translate(-208 -314)"/><path class="cls-1" d="M2638,1004l1.85-3.19a8.47,8.47,0,0,0-5.55-3.37A4.82,4.82,0,0,1,2638,994h13.16c1.56,2.21.45,3.26-.61,4.57-.72.87-.83,2.22-1.24,3.43l-2.82-2.08c-2.93.34-3.73,2.88-5.56,4.08Z" transform="translate(-208 -314)"/><path class="cls-1" d="M2548,1184c-.32,0-.91-.07-.93,0-.77,2.83-2.83,4.7-4.73,6.74-.53.58-.46,1.71-.68,2.61-2.07.47-3.6,2.13-5.66,2.64v-5.23l4-3.48c0-3.62,0-6.87,0-10.12,0-.25.36-.49.57-.77a2.44,2.44,0,0,1,3.33.5c1.09,1.16,2.3,2,2.19,4C2546.06,1182,2548.26,1182.37,2548,1184Z" transform="translate(-208 -314)"/><path class="cls-1" d="M2332,1256v8.56l-2,3.44c-1.21-.25-2.71.67-3.63-.67-1.15-1.67-2.78-1.33-4.37-1.33v-4.53l2-3.47c1.21-.25,2.71.67,3.63-.67C2328.78,1255.66,2330.41,1256,2332,1256Z" transform="translate(-208 -314)"/><path class="cls-1" d="M2518,1173l5.1-5.06,2.76,3.39v3.86l-4.82,4.91-2.38-.41C2517.31,1177.58,2518.26,1175.23,2518,1173Z" transform="translate(-208 -314)"/><path class="cls-1" d="M2626,920v6c-3.61,2-3.61,2-8,2h-2v-3a18,18,0,0,0,3.75-1.82,20.27,20.27,0,0,0,2.8-3.15Z" transform="translate(-208 -314)"/><path class="cls-1" d="M2528,1062v-5c1.3-.65,2.67-1.29,4-2,.14-.08,0-.62,0-1h3.13c.32.72.69,1.52,1.32,2.94L2529,1062Z" transform="translate(-208 -314)"/><path class="cls-1" d="M2520,1078c.22-.55.4-1.13.67-1.65.41-.8.88-1.57,1.33-2.35h3.16c.26.71,1,1.67.76,2.28a57.26,57.26,0,0,1-2.81,5.67l-2.35-.18C2519.48,1080.53,2520.21,1079.19,2520,1078Z" transform="translate(-208 -314)"/><path class="cls-1" d="M2586,972.36v-6.14h5.23c1.73,1.57,0,3.47.86,4.82C2589.83,972.77,2587.8,971.3,2586,972.36Z" transform="translate(-208 -314)"/><path class="cls-1" d="M2602,1008l1.69-.67-1.39-2.64c1.13-1.24,2.5-.47,3.7-.69l1.92.74-1.7,2.18c-.11,1.23-.25,2.74-.43,4.73l-2.85.3C2601.5,1010.51,2602.2,1009.18,2602,1008Z" transform="translate(-208 -314)"/><path class="cls-1" d="M2286,1008v-2h7.43c.2,1,.43,2.14.67,3.31-2.9,1.34-5.56.35-8.1.69Z" transform="translate(-208 -314)"/><path class="cls-1" d="M2616,934c-3.79-2-3.79-2-8-2-.22-1.14.64-2.11,1.35-1.91,2.77.77,4.5-1.24,6.65-2.09Z" transform="translate(-208 -314)"/><path class="cls-1" d="M2613.06,1012h-2.21l-1.33-3,4.86-2.83,1.39.26C2614.78,1008.44,2613.92,1010.23,2613.06,1012Z" transform="translate(-208 -314)"/><path class="cls-1" d="M2486,1191.12v-4.53l3-.64c1.73,1.72.69,3.45,1.05,5C2488.7,1192.53,2487.36,1192.26,2486,1191.12Z" transform="translate(-208 -314)"/><path class="cls-1" d="M2590,957v-2.43l3.51-.74.6,3C2592.69,958.47,2591.35,958.43,2590,957Z" transform="translate(-208 -314)"/><path class="cls-1" d="M2525,1116h2.43c.22,1,.45,2.12.74,3.51l-3,.6C2523.53,1118.69,2523.57,1117.35,2525,1116Z" transform="translate(-208 -314)"/><path class="cls-1" d="M2406,1238a7.17,7.17,0,0,1-2.67-.08c-.61-.27-.9-1.25-1.33-1.92a7,7,0,0,1,2.67.08C2405.28,1236.35,2405.57,1237.33,2406,1238Z" transform="translate(-208 -314)"/><path class="cls-1" d="M2590.71,974.29l1.29.71c-.22.22-.49.66-.66.63A6.53,6.53,0,0,1,2590,975Z" transform="translate(-208 -314)"/><path class="cls-1" d="M2616,940v2h-2A1.7,1.7,0,0,1,2616,940Z" transform="translate(-208 -314)"/><path class="cls-1" d="M2608.56,931.77l-1.74,2.05C2605.46,932.07,2607,932.21,2608.56,931.77Z" transform="translate(-208 -314)"/><path class="cls-1" d="M1394,1314v3l-2,2.12V1329l-2,2.09V1335l2.08,2.25c.09,5.33-3.9,8.93-6.09,13.43v6.52l-2,.82c0-5.28,0-10.56,0-15.85a6,6,0,0,1,.55-1.73L1386,1339v-7.92c-2.36-1.42-1.87-4.59-3.89-6.37-.65-.58-.1-2.5-.1-3.61-2.23-2.93-6-4.47-6.38-8.49-3.74-3.12-4.86-8.38-9.09-11.09a9.14,9.14,0,0,0-2.35-1.48c-2.46-.61-3.64-2-4.29-4.52a4.47,4.47,0,0,0-4.09-3.52,1.65,1.65,0,0,1-1.8-1.76c-.09-2.71-2.76-3.45-4-5.28v-3l-2-3.47V1276a39.69,39.69,0,0,0,4.63,0,1.54,1.54,0,0,0,1.37-2c2.89.14,2.89.14,5.08,2H1364a1.7,1.7,0,0,0,2,2c0,.33-.13.87,0,1,2.59,1.53,6.16,2,6.11,6.18,1.31.88,1.84,2.91,3.75,2.83,1.64-.07,2.13,1.93,3.11,1.9,2,0,3,1,4.06,2.14h7c.43.67.72,1.65,1.33,1.92a7.17,7.17,0,0,0,2.67.08c-.14,1.88,1.14,1.88,2.48,2a1.55,1.55,0,0,1,1.52,2c-.23.57-.46,1.13-.79,1.92l-2.52-2.07h-9.84L1381,1294c-1.63,2.32-5,3.42-5.13,7l4.12,1.93c.29,2.34-.69,4.69.66,6.75,2.17,1.68,3.08-1.52,4.87-1.16.4,1.17.81,2.32,1.18,3.41l2.22.1,2.13-2h5c-.22.55-.4,1.13-.67,1.65C1394.92,1312.45,1394.45,1313.22,1394,1314Z" transform="translate(-208 -314)"/><path class="cls-1" d="M1596,1314v3c2.07,2.44,5,.1,7.36,1.37,1.33,2.07.38,4.4.64,6.61l2.12,2.28-3.56,1.21c-.4,1.15-.81,2.29-1.21,3.44-2.3-.78-2.77-3.76-5.35-3.88v-5.61c-1.85-1.59-4.06-3.5-5.81-5-.52-2.2.58-3,1.33-4s.83-2.25,1.43-4a29.55,29.55,0,0,0,1.42,3.93C1594.59,1313.7,1595.44,1313.77,1596,1314Z" transform="translate(-208 -314)"/><path class="cls-1" d="M1596,1328v2c-1,.07-1.86-.13-1.59-1.32C1594.49,1328.35,1595.45,1328.22,1596,1328Z" transform="translate(-208 -314)"/><path class="cls-1" d="M1222,1112v6.2c-2.27,4.44-4.22,8.28-6.23,12.2l2.08,2.62v7.27a15.62,15.62,0,0,1,2.08,3.41,12.62,12.62,0,0,1,.07,3.51c2.31,1.27,4.3.59,6.22.79,3.63,1.92,7.51,3.5,9.78,7.27.06.63.12,1.26.19,2.09l3.86,1.39c-.1,1.41.34,3.33-.42,4.45-2.27,3.36-2.48,6.4.13,9.56a11.21,11.21,0,0,0,2.21,7,40.62,40.62,0,0,1,3.29,6.6c1,2.24,2.53,4.2,3,6.73.21,1.08,1.75,1.9,2.7,2.85h4c.36.52.91,1,1,1.54.25,1.26-.18,2.92.49,3.76,2,2.49,2.28,6.16,5.42,7.41.87,2.29-1,3.11-1.8,4.4,1.38.7,2.78,1.34,4.11,2.1s1.81,2.87,3.82,2.8c1.55,2.65,2.26,5.82,4.84,7.84,2.54-1.12.14-3.55,1.34-5l2.8-2.8h2c1.69,4.14,4.74,7.8,5.49,13.64l2.92,2.34h3c1.58-.3,2.18-2.09,3.51-2.92s2.7-1.38,4-2.13c.14-.08,0-.62,0-1,2-.1,2.44,2,3.81,2.75.42,4.15.42,4.15,3.56,9.14a26.62,26.62,0,0,1,3.91.48c.36.1.49,1.06.72,1.63h-3l-2.8,2.84c-.16,1.54-.31,3.12-.44,4.43l-5.07,2.39c-.45-1.12-.91-2.26-1.42-3.55l-2.62.12a33.26,33.26,0,0,1-2.23,3.27c-.33-1.84-.64-3.67-1.08-6.19-1.7,3.39-3,6.08-4.45,8.89l-2.72-.8c-.13-1.83-.25-3.4-.41-5.47l-3.48.51c-.29,1.45-.48,2.36-.75,3.7l-3.24-.67-.74-3.15-3-.78c-.94-2.27-1.27-5.28-3-6.64-2.49-2-.41-5.23-2.31-6.65l-3.4-.84V1222.6c-3.81-.67-5.68-3.42-7.92-5.77v-3.9c-2.09-1.22-1.63-3.3-2.08-5.17-.48-2-1.88-3.85-2.88-5.76-1.62,1.25-.73,3-1,4.56-.1.5-.7.89-1.22,1.52-.44-1.28-.6-2.63-1.32-3.54-.84-1.07-1.75-1.93-1.37-3.49l2-2.23c-2.33-1.24-3.23-4.17-6.58-5l-2.77,2.21c-.42-1.23-.83-2.39-1.23-3.55l-2.8-1-2.72-5.18V1181c-1.17-.83-1.72-2.53-3.75-2.61v6.81c2.42,1.51,1.85,3.81,1.45,6.07l-1.7.7c-2-3.79-2-3.79-2-8-.34-2.54.65-5.19-.68-8.09l-3.32.66V1182c-1.23.23-1.67-.55-2-1.53a22.2,22.2,0,0,0-1.06-2.51c-.13-.28-.44-.47-.68-.71l1.83-2.89c-.93-2-1.8-4-2.69-5.93l-2.63-.67c-1.72-2,0-4.43-1.62-7.69l-3.14-2.65V1153l-2-2.1v-6.19l-3.4-1.11c-1.16-1.76-.36-3.75-.6-5.63.56.22,1.4.3,1.62.7a26.33,26.33,0,0,1,1.27,3.58c.95-1.91,1.77-3.54,3-6V1127l-1.79-2.23,1.92-.77c.31,0,.83.12.91,0,1.82-3.08,3.66-6.16,3.09-10,1.59,0,3.22.34,4.37-1.33C1219.29,1111.33,1220.79,1112.25,1222,1112Zm54.89,118c1-1.14,2.47-1.78,2.68-2.9-1-1.93-1.81-3.5-2.62-5.07l-.73.73C1276.1,1225.18,1275.39,1227.67,1276.89,1230Zm24.73,10.26-1.27.06c-.11.89-.28,1.77-.31,2.66,0,.22.48.68.63.64.47-.14,1.25-.44,1.26-.71A12.61,12.61,0,0,0,1301.62,1240.28ZM1297,1238c-.22.22-.66.49-.63.66a6.53,6.53,0,0,0,.63,1.34c.22-.22.66-.49.63-.66A6.53,6.53,0,0,0,1297,1238Z" transform="translate(-208 -314)"/><path class="cls-1" d="M1326,1248h8.07l6.7,7.55a15.87,15.87,0,0,1,3.7-1.47A1.47,1.47,0,0,1,1346,1256v6c-.57-.23-1.42-.31-1.64-.73a23.3,23.3,0,0,1-1.27-3.49l-2.89.75c-.06,2.14-.69,3.91.91,5.74,1.36,1.56,2,3.79,2.89,5.73-1.21.25-2.71-.67-3.63.67-1.15,1.67-2.78,1.33-4.37,1.33,0-2,.07-3.91,0-5.86s.47-3.84-.85-5.52l-1.68-4.17c-3.57-.38-5.17-3.41-7.45-5.52Z" transform="translate(-208 -314)"/><path class="cls-1" d="M3430,756v4.92l2.1,2.21-7.72,3.52s-.35.18-.35.42c-.05,2.6,0,5.21,0,8.17l-4,3.49V782h-5.13a12.27,12.27,0,0,0-.84,2.3,15.57,15.57,0,0,0,0,2.63l-2,2.22V796h-3l-4.15-8.28-1.42,3.89c-1.33.23-1.44-.62-1.39-1.61s-.06-1.83-1.88-1.54c-.07,1.49-.14,3.06-.22,4.85l-3.39,1.18-1.42,4-4.23-6.2-2.75-1c.76-1.11,1.42-2.09,2.3-3.39l-2.41-3.15a9,9,0,0,0-.28-2.68c1.27-.32,2.82-.18,1.46-1.93a17.45,17.45,0,0,0-1.46,1.93A20.28,20.28,0,0,0,3385,782l-1.86,1.87-4.28.25c-1.38,2.53-4,1.66-6.38,2.16-.19.79-.41,1.69-.71,3-1.61,1.87-2-1.57-3.44-1.28a17.82,17.82,0,0,1-3.56,0l-.6,1.17,3.83,1.59c0,1.1.49,2.7-.09,3.59-1.65,2.51-1.9,6-5.08,7.39l-2.06-1.64c-1.38,2.38-.47,4.73-.86,7.2l-2.59.89a55.58,55.58,0,0,1-3.24-5.64c-.28-.65.41-1.73.69-2.71l2.51,2.29c.33-1.06.61-2,1.38-4.44l6.34-4.81-4.44-1.21c-1.73-.93.15-3.34-.85-5s-1.88-3.06-2.82-4.59c-1.61,1.31-.57,3.1-.89,4.64-1.7,2.83-4.59,3.8-7.73,4.9-.16-1.68-.3-3.25-.44-4.78l-5.5-2.87H3338v-4.91c2.44-2.45,2.53-6.6,5.95-7.73v-4.67l-3.42-1.16c-.18-.25-.51-.51-.51-.76,0-4.58,0-9.16,0-14.16-1.73-.3-3.54-.54-5.3-1-.35-.09-.47-1.05-.7-1.61v-2c1.62-.33,1.93,1.49,3.07,1.85l2-1.68,2,1.61,2.45-1.87c.36,2.34.64,4.16.95,6.15.72-.66,1.39-1,1.47-1.42.18-1-.05-2,.1-3a6.47,6.47,0,0,1,1-1.76l1.91,4.11H3351c1.63,1.77,1.33,4.93,4.25,5.73,1.44-1.37.38-3.14.73-4.68l-2.1-2.3,2.9-1c1.43,2.82,2.79,5.51,4.23,8.37,1.66-1.72,4.17-3.17,4.62-5.1s2.4-3,2.35-5l4.95,2.38c.8-1.72,1.4-3,2-4.19l3,2c2.16-1.1,3.69-2.16,4.1-4.24.25-1.22-.61-2.65.78-3.77l4.51-.48L3390,735l-1.78-1.78c0-3.92,0-8.13,0-12.34,0-.24.44-.47.67-.7,2.31,1.77,2.31,1.77,4.8,1.21.31-1.8.63-3.61.94-5.34H3400c-.22.56-.3,1.4-.7,1.61a20.93,20.93,0,0,1-3.33,1.18c.27,2.41-.53,4.69.46,6.58l7.44,3.39a19.27,19.27,0,0,0-1.59,3.13c-1.27.32-2.82.18-1.46,1.93a17.45,17.45,0,0,0,1.46-1.93c.94.36,2.36-.49,3.75,1.2-2.87,1.44-2.28,3.88-1.54,6.57l2.65.53c1.18,2.71,3.32,5.19,2.92,8.58,0,.3.74.69,1,.88l2.77-1.74,4.33,4.33,3.51-2.36,6,2.79C3428.46,753.73,3427.32,756.2,3430,756Z" transform="translate(-208 -314)"/><path class="cls-1" d="M3258,748h3.11l1.71,2h4.11c3.07,2.63,3.07,2.63,6.14,0H3276c-.26,1.22.55,2.57-.65,3.72a9,9,0,0,0-1.35,2.41c-.28.54-.52,1.1-.83,1.76h-19.79l-2.22,1.86-6.74-3.76-3.16,3.91H3237l-2.26-1.9h-5.25l-3.44-2.26-3.26,2h-4.18c-.49-1.38-.9-2.53-1.37-3.87l-4.65,4.36c-.37-2.08-.69-3.9-1-5.94l-3.09-.37c-.3,1.95-.59,3.77-.89,5.69-2.18-.35-2.88-2.35-4.9-3.79l-3.82,5.66c-.57-3.27-.89-5.06-1.2-6.86-1.42-1.3-3.14-.33-4.66-.63l-2.05,1.91c-1.64.4-2.47-.58-3.53-1.39s-2.26-.86-3.84-1.41l4.41-2V746h6.43l6.15,3.34c1.41,1.15,3.09.51,4.68.64,1.3.1,2.61,0,3.29,0l4.31-2.82,3,4.72h7.07c1.17-.48,1.83-2.64,4.35-1.73l1.14,3.59,3.53.33c3.47-1.61,6.86-3.23,9.23-6.11,1.59.06,3,0,2.81,2,.26,1.23-.63,2.67.15,3.28,2.5,1.52,3.52.07,4.74-1.18l2.09,1.81c1.5-.14,3.17.66,4.75-.61a42.31,42.31,0,0,1,.64-4.58C3256.45,748.37,3257.43,748.23,3258,748Z" transform="translate(-208 -314)"/><path class="cls-1" d="M3102,708a5.08,5.08,0,0,0,3.72,4c2.32.81,4.23,3.14,7.15,2l2.17,2c1.94.72,2.78-1.06,4.38-2.17.35,2,.66,3.82,1,6H3127c1.57,2.84,4.12,2,6.23,2.4l3.67,3.67h6.06l2.09-1.75h4l2.7,2.53c.17,1.48.36,3.05.53,4.59l7.56,3.53c.17,1.54.35,3.1.51,4.58,1.42,1.11,1.48-.66,3.61-1.1h3.38c.71,1.33,2.82,1.73,2.72,3.76h-3l-2.09,2h-7.21l-5.25-2.57-1.19-3.24-4-.22-7.72-8.56c-4.24-.56-7.77-1.9-10.5-5.38H3117l-1.75-1.74-3.79,2.17c-1.69-2.72-1.71-2.72.21-5.09,0-.24,0-.63-.06-.68-1.94-.92-3.9-1.8-6.07-2.77l-2.31,1.72c-1.83-.41-2.6-2.34-4.07-3.44l-6.93-.38c-.14-2.51-.27-4.75-.41-7.24l-3.1-.81c-.9-.57-1-1.71-.37-3.11,1-1.25,2.42-.36,3.65-.62a1.6,1.6,0,0,0,1.44,2c1.45.34,3.15-.59,4.2.61.44,1.37.78,2.46,1.09,3.42Zm13.29,11.71.71-.71a6.53,6.53,0,0,0-1.34-.63c-.17,0-.44.41-.66.63Z" transform="translate(-208 -314)"/><path class="cls-1" d="M3307,774h-2l-2.81,2.83c-.15,1.56-.3,3.13-.47,4.93h-6.95c-.55-1.19-1.12-2.41-2.14-4.58-.4,2-.58,2.9-.8,4l-2.64,2.64c-.39-.39-1.14-.8-1.12-1.16.09-1.56-.54-3.16.82-4.65,1-1.09,1.43-2.68,2.11-4h4c2.5-1.38,2.62-4.41,4.34-6.17,1.48-1.5,3.66-2.33,5.75-3.59L3308,767c-.1,1.89-.2,4.11-.36,6.33C3307.66,773.54,3307.23,773.76,3307,774Z" transform="translate(-208 -314)"/><path class="cls-1" d="M3318,744l5.11-2.52c.5,1.57.85,2.71,1.22,3.86,2.05.52,3.61,2.12,5.67,2.66v7l1.45,1.36c1.25,2.49.18,4.93.73,8.6-2-2.57-2-2.57-2.42-4.45l-3.3-.9c-1.89-.95.87-4.2-1.43-5.61l-2.1,1.92-2.88-5.62v-3C3319.52,746,3317.7,745.66,3318,744Z" transform="translate(-208 -314)"/><path class="cls-1" d="M3282,740c2.85,0,5.71.08,8.56,0a1.52,1.52,0,0,0,1.44-2c2.44-.39,3.27-2.83,5.1-4h2.9v3l-2.05,2.18v3.91c-1.43,1.43-1.55,1.41-5.81-1a7.34,7.34,0,0,0-1.72.63A8.94,8.94,0,0,0,3289,744h-3c.14-1.88-1.14-1.88-2.48-2A1.55,1.55,0,0,1,3282,740Z" transform="translate(-208 -314)"/><path class="cls-1" d="M3276,750c-.24-1.6,1.33-2,2-3s2.24-1.4,2-3h4v4.79l2.05,2.68c-.1,2.63-2.25,3-2.79,4.54-2.41-1.36-.53-3.73-1.61-5.38C3279.92,749.39,3277.89,750.26,3276,750Z" transform="translate(-208 -314)"/><path class="cls-1" d="M3306,738h3.09l3.88-4.27c1.67,1.75,3.2,3.35,4.7,5,.1.11,0,.43,0,.66L3316,740h-2.91l-1.9,1.78h-4.42C3305.49,740.52,3306.21,739.19,3306,738Z" transform="translate(-208 -314)"/><path class="cls-1" d="M3176,742c1.9,0,3.91-.39,5.67.1a34.87,34.87,0,0,1,6.31,3c.13.07,0,.6,0,.92-1.9,0-3.91.39-5.67-.1a34.87,34.87,0,0,1-6.31-3C3175.89,742.85,3176,742.32,3176,742Z" transform="translate(-208 -314)"/><path class="cls-1" d="M3434,752h2c-.16,1.18.41,2.48-.85,4H3430c0-1.17,0-2.34,0-4Z" transform="translate(-208 -314)"/><path class="cls-1" d="M3306,732v6c-1.88.14-1.88-1.14-2-2.48a1.55,1.55,0,0,0-2-1.52c.43-.67.72-1.65,1.33-1.92A7.17,7.17,0,0,1,3306,732Z" transform="translate(-208 -314)"/><path class="cls-1" d="M3363,803.91c1.53,1.58,1.12,2.68.56,3.94C3361.12,806.93,3361.71,805.66,3363,803.91Z" transform="translate(-208 -314)"/><path class="cls-1" d="M3419.77,781.44l2.05,1.74C3420.07,784.54,3420.21,783,3419.77,781.44Z" transform="translate(-208 -314)"/><path class="cls-1" d="M3411.77,795.44l2.05,1.74C3412.07,798.54,3412.21,797,3411.77,795.44Z" transform="translate(-208 -314)"/><path class="cls-1" d="M3316,742a1.7,1.7,0,0,1,2,2A1.7,1.7,0,0,1,3316,742Z" transform="translate(-208 -314)"/><path class="cls-1" d="M3338.56,783.77l-1.74,2.05C3335.46,784.07,3337,784.21,3338.56,783.77Z" transform="translate(-208 -314)"/><path class="cls-1" d="M3468.29,939.83h-3.88c-.19-1-.37-1.91-.62-3.25l3.74-.7C3467.78,937.19,3468,938.08,3468.29,939.83Z" transform="translate(-208 -314)"/><path class="cls-1" d="M2572,1220c-.2-1.85.48-3.78-.7-5.85l-4.41-.26c-2-1.88,0-4.32-1.06-6.35-.81-1.59-1.76-3.2-3.83-3.54v-2h4c4.42,1.33,5.4,5.7,7.83,9.15v8.12Z" transform="translate(-208 -314)"/><path class="cls-1" d="M2572,1232h-4.94c-2.17-1.83-.64-4.28-1.08-6.49a34.44,34.44,0,0,0,2-3,14,14,0,0,0,.8-2.48H2572Z" transform="translate(-208 -314)"/><path class="cls-1" d="M3860,1144h-5l-1.72-1.75h-7.06l-12.35-6.44-3.1,2.08c-.27,0-1.29.35-1.5.07-1.64-2.18-4.91-1.63-6.41-4H3807l-1.44-1.44c-.27-.18-.53-.49-.79-.5-2.64,0-5.28,0-7.81,0-1.3,2.36-3.39,2-6.18,2l-2.53-4.35a7.5,7.5,0,0,1,.58-1.37c2.65.75,3.48-3.28,6.48-2l2.12,1.93c.37-2.08.69-3.91,1-5.66,1.92-1.6,3-.2,4.39,1.19H3808l4.26,2.58,2.72-2.27h16c1,3.22,3.39,5.72,6.22,8h3.81l3.6,3.6c5.84.35,10.17,4.36,15.34,6.34Z" transform="translate(-208 -314)"/><path class="cls-1" d="M3914,1152v2a26.62,26.62,0,0,0,3.33,8.35,16.26,16.26,0,0,1,.85,2.11l-2.18,2.69V1170h-3.39l-3.76-5.75-2-.45-5.6-5.6c-2.11-.41-4.67.44-6.28-2.48a18.85,18.85,0,0,0-.89,2.67,20.53,20.53,0,0,0-.17,2.76c-1.47,1.55-3.23.5-4.76.85-1.9-1.17-2.67-3.62-5.28-4.08-2.08-.36-3.64-2.09-6.14-2.12-1.9,0-3.79-1.81-5.68-2.82v-3a1.7,1.7,0,0,1,2-2c2,.1,2.43-2,4-2.82l-1.84-2.13c.14-.19.3-.61.49-.63,1.93-.23,3.86-.4,5.34-.54l15.7,8.11h7.24l2.16,2Z" transform="translate(-208 -314)"/><path class="cls-1" d="M3920,1170h3.08l2-4.41a27.38,27.38,0,0,0,1.31,3.71c.22.4,1.06.48,1.62.7v5.23l4,3.48V1181l2,2.1V1190l-5.79-2.79c-.17-1.55-.35-3.12-.54-4.82l-2.84-.59-2.8-5.47v-2.84Z" transform="translate(-208 -314)"/><path class="cls-1" d="M3918,1170c-.07-1,.13-1.86,1.32-1.59.33.08.46,1,.68,1.59Z" transform="translate(-208 -314)"/><path class="cls-1" d="M3916,1170h2c.07,1-.13,1.86-1.32,1.59C3916.35,1171.51,3916.22,1170.55,3916,1170Z" transform="translate(-208 -314)"/><path class="cls-1" d="M3328,1040v-7.08l-4.06-1.86c.33-.33.56-.76.8-.77,2.88,0,5.77,0,8.54,0,1.37,1.53.35,3.27.85,5l3.61,1.24c-.89,1.81-1.76,3.61-2.64,5.42H3333l-2.08-2Z" transform="translate(-208 -314)"/><path class="cls-1" d="M1300,1002v5c-1.51,1.45-2.82.77-4,1-.56-.23-1.4-.3-1.62-.71a23.87,23.87,0,0,1-1.27-3.47l-2.61.55c-1.18,2,.53,4.28-1.55,5.63h-3c-.26-1.89.61-3.93-.81-5.89l-2.07,1.68c-2.41-1.23-.64-3.31-.94-5.18l3.52-1.25c0-2.87,0-5.76-.07-8.65,0-.26-1.06-.48-1.63-.71V980h2c.31,2,2.42,3.23,2.48,5.41,0,.21,1,.39,1.52.59.24,1.22-.6,2.63,1.07,4l2.93-.59V986h3c3-3.91,8.53-4.59,11-9.51V974a7.17,7.17,0,0,0,2.67-.08c.61-.27.9-1.25,1.33-1.92h8l-2.77,5.77-8.17,8.17h-6.21c-.38.92-.62,1.49-.85,2.06.23,1.21-.51,1.78-1.5,2-1.5.29-3.24-.59-4.34.82L1298,994l-2.28,4.41C1297.16,1000,1298,1001.77,1300,1002Z" transform="translate(-208 -314)"/><path class="cls-1" d="M1320,972v-5q1.39-1.34,2.85-2.76c2.47,1.21.64,3.31,1,5C1322.47,970,1322,972,1320,972Z" transform="translate(-208 -314)"/><path class="cls-1" d="M2616,1082v5.36l-5.43,1c-1.14,2.15-.41,4.45-.49,6.69l1.68,1.68c.12,1.28.27,2.85.42,4.42l1.43,1.43c.23,1.33-.62,1.44-1.61,1.39-1.6.24-2-1.33-3-2s-1.4-2.24-3-2h-4l-2-3.45v-6l3.84-3.78c.26-.91.5-1.79.72-2.57,2.5-.29,4.79-.76,6.29,1.64C2612.88,1085,2613.51,1082.25,2616,1082Z" transform="translate(-208 -314)"/><path class="cls-1" d="M2608,1120c-.2.53-.38,1.51-.59,1.52-2.18.06-3.39,2.17-5.41,2.48-1.88-.24-3.87.56-5.67-.63.06-2.1,1.8-.93,2.63-1.43a7.52,7.52,0,0,0,1.71-1.94Z" transform="translate(-208 -314)"/><path class="cls-1" d="M2590,1110c-.07-1,.13-1.86,1.32-1.59.33.08.46,1,.68,1.59Z" transform="translate(-208 -314)"/><path class="cls-1" d="M4214,1606v3.21c-2.69,1.53-5.71.46-8.91.86l-2.85,2.61v4.6c1.3,1.54,3.13.18,5.27,1.26.1.46.35,1.57.54,2.43-.61.58-.84,1-1.09,1-2.66,0-5.31,0-8,0-.69-1.37-1.31-2.8-2.1-4.12s-2.76-1.89-2.9-3.84c.76-2.3,2-3.74,4.7-4.16,2.18-.33,2.83-3.54,5.35-3.88.56.22,1.28.29,1.64.69,1.65,1.88,3,1.72,4.81,0C4211.19,1606,4212.79,1606.21,4214,1606Z" transform="translate(-208 -314)"/><path class="cls-1" d="M4184.71,1624c4.25,0,8.21,0,12.17,0,.25,0,.49.38.95.77-1.06,1.9-2.94,3.11-4.51,4.91l-6.49-3.32c-1.15.26-2.17,2.94-4.44,1C4182.16,1625.49,4184.62,1625.49,4184.71,1624Z" transform="translate(-208 -314)"/><path class="cls-1" d="M4192,1618.94l1.94,2.13c-1.34,1.65-3.14.61-5.05,1-1.34-1.63-2.8-3.43-4.42-5.42l2.27-2.46h4.49C4192.7,1615.69,4191.64,1617.45,4192,1618.94Z" transform="translate(-208 -314)"/><path class="cls-1" d="M990,838a4.34,4.34,0,0,0,3.47,3.83c1.77.28,2.53,1.62,3.86,2.17H1004a5,5,0,0,1-2,5.08V856c-.56.22-1.5.34-1.6.69a24.09,24.09,0,0,0-.51,3.69l2.26,3.33c-.57,1.13-1.19,2.39-1.82,3.63,1.08,1.23,2.46.43,3.67.66-.33,3.15,3.19,1.1,4.18,3.67.52.8-1.25,3,.62,4.14L1012,874v8h-4.28l-5.32-5.47c-1.07,2.25,0,4.92-.4,7.47h-5.39c-.31-1.73-.63-3.54-1-5.34-.67-.59-.67-.59-2.86,1.34l-2.14-.15c-.38-1.07-.78-2.22-1.29-3.7-3.62-.5-7.54.23-11.51-.46,1.46-2.91,4.37-.63,5.24-2,1.28-2,3.82-.9,4.9-2.71v-3c.56.23,1.41.31,1.64.73a20.88,20.88,0,0,1,1.2,3.27c2.63-1.39-.47-4.68,2.36-5.85l1.89,3.91L998,864c0-2.05-3.09-2.72-2.13-5.1-1.47-1.17-2.33-3.32-4.81-2.87L989,858h-3l-.75-1.85h-5.79l-2.23-1.83c-3.55-1.79-5.63,2.19-8.61,1.79-.53,1.56-.93,2.71-1.44,4.17l-7.13-7.89c0,.06,0-.59,0-1.21-.76-1.5-2.17-1-3.39-1.23a25.45,25.45,0,0,1-3.82-1.39c-2.77,1.15-5.55,4-9.66,3.43L941,850h-3.61L934,852v-6c-.23-1.23.57-1.63,1.52-2,1.39-.57,2.74-1.26,4.58-2.12H948c2.28-.94,3.38-1.44,4.51-1.85,1-.35,1.75-.78,1.52-2a7.17,7.17,0,0,0,2.67-.08c.61-.27.9-1.25,1.33-1.92h3l1.65,1.54c3.4,1.19,6.46-.44,9.19,1,.17,1.85.31,3.42.47,5.06,2.77.49,5.27.86,7.74-.44-1.5-2.15-4.37-3.24-4.18-6.34-1.35-.85-1.81-2.9-3.83-2.83-.24-1.22.6-2.63-.76-3.76a39.24,39.24,0,0,1-4.54-.63c-.34-.08-.47-1.05-.7-1.61v-2c-.3-1.66,1.51-2,2-3.22V802c1.87.12,3.67.07,4.8-1.82,1.41,1,3,1.86,3.2,3.82-1.26-.32-1.78.73-2.38,1.43-1.26,1.44-3.19,2.35-3.76,5l2.13,2.75V817l-1.93,2.08v6c2,1.87,2.21-2,3.83-1.09,2-.08,2.53,1.91,4,2.85l-1.74,2.08c.94,2,2.79.71,4.51,1.16C984.2,831.92,985.89,836.42,990,838Z" transform="translate(-208 -314)"/><path class="cls-1" d="M1290,1694c.37,2.42,2.81,3.23,3.93,5l-1.91,2v2.2a22.21,22.21,0,0,1,3.3,1.14c.39.21.46,1,.68,1.6l-2.77,5.78c-2.67-1-.45-3.4-1.52-5.17l-3.22-1.12c-1.8-2.16.85-3.18,1.29-5l-3-.64c-1.67-1.35-.67-3.29-.47-5.15C1287.36,1693.4,1288.78,1694.25,1290,1694Z" transform="translate(-208 -314)"/><path class="cls-1" d="M1304,1712a4.91,4.91,0,0,1,4,4l-4,0C1304,1714.34,1304,1713.17,1304,1712Z" transform="translate(-208 -314)"/><path class="cls-1" d="M708,514c-2-.1-2.4,2-3.78,2.71-.17,1.59-.34,3.14-.5,4.63-1.87,1.2-3.85.43-5.72.66v-3.1c.63-.55,1.36-1.19,1.78-1.54v-15l-3.27-.64c-.27-1.58-.57-3.37-.88-5.14a7.34,7.34,0,0,0-1.73-.58c-1.3-.09-2.6,0-3.9,0a1.54,1.54,0,0,0-1.49-2c-2.55-.25-3.87-1.73-4.51-4v-2c.25-1.88-.58-3.89.74-5.81,2.67,1,.5,3.36,1.28,4.83.23.23.46.66.7.67,4.19,0,8.39,0,12.58,0L700,486c3.16.78,4.32,2.9,4,6-2-.08-2.67,1.68-3.65,2.79s-.51,2.35.73,3.21h3.44l3.48,2v8.88l-1.82,2Z" transform="translate(-208 -314)"/><path class="cls-1" d="M892,796v-2c.55-.22,1.51-.35,1.59-.68.27-1.19-.62-1.39-1.59-1.32-.78-.45-1.55-.92-2.35-1.33-.52-.27-1.1-.45-1.65-.67v-2c1.84.15,2-1.1,2-1.88L882,778h-4c0-3.59,0-7.18,0-10.76,0-.26-.33-.51-.51-.77l-3.88-1.31,4.47-2.06c-2.43-1-4.61-2-6.06-4.17V756c-.23-1.26.56-1.7,1.57-2,.85-.25,1.69-.57,2.38-.81V749L871,744h-9c-.24-1.6,1.33-2,2-3s2.24-1.4,2-3h4.79l7.23,7v6l7.78,7.78.56,2.55,7.15,3.25c1.47,2.62-.81,3.23-1.44,4.48v4c2.62,1.41,1.66,4,2.16,6.11,1.9,1.9,3.54,4.16,5.73,5.56s4.59,2.13,5.88,4.41c.95,2.13-.88,4.6.95,6.59l2.79.62c.33,1.92.65,3.76,1,5.84l2.48-2.25c1.54.35,3.31-.71,4.83.9,0,.76-.1,1.66-.15,2.48L914,804.71c0,2.79,0,5.43,0,8.07,0,.35.77.67,1,.89l2.77-2.45c.51-1.87-.63-3.67.94-5,.09-.08.45.16.81.29l.85,5.19,3,.63,1.24,3.65H928c.24,1.88-.58,3.88.62,5.64l3.38,1.11V826c-1.21.23-2.59-.56-3.62.6-.38,1.16-.74,2.3-1.07,3.3L924,828c-3.79,2-3.79,2-8,2,.19-2.64-2.21-1.58-3.35-2.36-.84-1.58-.87-3.64-2.65-4.73v-11c-1.88,1.69-1.88,1.69-2.6,5.76-1.67-.25-2.28-1.8-3.4-2.71V812c.55-.21,1.48-.32,1.57-.65a11.3,11.3,0,0,0-.1-7.11c-1.8-.32-3.39-.66-3.47,1.76a7.17,7.17,0,0,1-2.67-.08c-.61-.27-.9-1.25-1.33-1.92a1.7,1.7,0,0,0-2-2c-.31-2-2.42-3.23-2.48-5.41C893.51,796.38,892.53,796.2,892,796Z" transform="translate(-208 -314)"/><path class="cls-1" d="M1054,900v-4h7.23l2.77-3.33V890h4v3l6,3h9.23l.8,2c-1-.06-1.8.08-1.6,1.62l5.43.78c-.41,1.66-.41,1.69-6.86,1.52l-2.29-2.07-2.8.84,2,2.29-1.93,2.09V910a23.11,23.11,0,0,1-9-4h-4.13l-3.61-4H1056A1.7,1.7,0,0,0,1054,900Z" transform="translate(-208 -314)"/><path class="cls-1" d="M910,834c2.19.27,3,2.36,5,3.83l6.19.32,3.61,3.61,4.46.47c1.39,1.12.53,2.55.78,3.77-1.67-.3-2,1.53-3.8,2.21l-3.55-2c-.43,1.17-.87,2.32-1.3,3.47-1.92,1.13-3-.21-4.11-1.42l-4.8-.57c-.28-2.84,2.68-.74,3.45-3.24,0-.22-.23-1.36-.47-2.78l-2.46,2.3h-4c-2.1-2.06-3.91-4.38-6.86-4.88-.42-1.63.47-2.51,1.33-3.58.72-.91.88-2.27,1.45-3.91Z" transform="translate(-208 -314)"/><path class="cls-1" d="M1046,876h4c0,.32-.12.86,0,.94a35.29,35.29,0,0,0,5.54,3A1.71,1.71,0,0,0,1058,878c.31,0,.88-.08.91,0,.93,3,3,5.12,5.09,7V890h-5.09c-4.23-4.27-8.58-8.64-12.89-13C1045.86,876.79,1046,876.33,1046,876Z" transform="translate(-208 -314)"/><path class="cls-1" d="M3945.73,1514.51c.94.66,0,2.41.41,4.73l-3.87,2.25c-.94-.66,0-2.41-.41-4.73Z" transform="translate(-208 -314)"/><path class="cls-1" d="M2730,1350h-4.85c-1.33-.8-1.71-2.28-.84-3.18,2.48-2.59,2.19-4.62.24-7.54-1.35-2-1.71-4.61-4.55-5.28-.23-.56-.37-1.54-.71-1.62a39.57,39.57,0,0,0-4.56-.63c-.31-.36-.66-.58-.7-.84a18.47,18.47,0,0,1,0-2.3l6-3.95c.72-2-1.64-2.59-2-4.2-.46-2.32,2.71-3.31,2.2-6-.28-1.49,1.26-3.33,2-5l-4.67-5.4c.85-.86,1.33-1.73,2-2,3.55-1.37,6.94-2.93,9.43-6l2.11,2H2734l3.18-1.82L2740,1299v18l-2,2.15V1323l-2,2.23v4.7l-3.78,2.65v6.69l1.85.75a37.61,37.61,0,0,1-.05,4.63A1.54,1.54,0,0,1,2732,1346a1.7,1.7,0,0,0-2,2Z" transform="translate(-208 -314)"/><path class="cls-1" d="M2476,1390h5.4l3.73-5.77h4.14c1.57,1.35.16,3.18,1.2,5.15,1.83,1.26,4.38.58,6.81.34l1.6-1.6h5.79l2.69-2.36h10.31a45.44,45.44,0,0,1,.7-5c.08-.35,1.06-.48,1.63-.72.56.23,1.41.3,1.63.72a21.47,21.47,0,0,1,1.25,3.4c2-2,3.85-3.95,5.78-5.74,1-.92,3.54.29,3.34-2.38h2c0,4.66,0,9.33,0,14a5.28,5.28,0,0,0,.67,1.71l2.68.7c.89,2,1.77,3.95,2.7,6-.68,1-1.38,2-2.48,3.67-1.87,2.61,4,4.23,2,7.35l-4.33,1.53a27,27,0,0,1,4,1.39c.42.23.5,1.08.74,1.65v4c-1.9-.15-2.07,1.16-2,2.51s-.69,3.48,2,3.49c-.33,3-4.69,3.7-4.2,7.2-2.3,1.83-2.47,5-4.77,7.07-1.89,1.71-2.51,4.82-3.73,7.41-1,.81-3.52-.39-3.3,2.32-.67.43-1.65.72-1.92,1.33a7.17,7.17,0,0,0-.08,2.67h-10.94a11,11,0,0,1-4.42,6.08H2503l-2.49,2.06c-.28-1.24-.48-2.15-.66-3l2.14-2.3V1447l1.92-2.09v-4c-.3-.3-.53-.74-.77-.74-2.63,0-5.26,0-8.53,0l-2.79,3.83H2486c.23-2.73-2.36-1.47-3.66-2.67-.94-2.24-.14-4.89-.31-7.47-.15-2.31,0-4.63,0-7.34l5.85-1-1.55-2.84,3.42-1.39c.09-.65.5-1.52.23-1.87-2.12-2.75-2.65-6.62-5.92-8.31v-4.57l5.65-1c.11-.89.21-1.8.3-2.59-2.14-2-4.63-.16-6.58-1.22L2481,1404h-4.21a25,25,0,0,1-.74-2.51,3.38,3.38,0,0,1,0-2c1.13-2.21,2.41-4.35,3.7-6.63-1.1-.55-2.43-1.19-3.72-1.91C2475.88,1390.88,2476,1390.33,2476,1390Zm49.13,31.72a22.55,22.55,0,0,0-7.71,3.87c-1.43,1.15-2.22,2.44-.69,4.21h10.47l1.62-1.62c1.5-1,3.93,1.25,5-1.41-2.21-1.9-5.19.32-7.42-1.41Zm-37.84-32,.71-.71a6.53,6.53,0,0,0-1.34-.63c-.17,0-.44.41-.66.63Z" transform="translate(-208 -314)"/><path class="cls-1" d="M3596.16,1121.29v-6.66c1.2-.43,2.36-.75,3.43-1.26s2-1.18,3.61-2.12l1,4.16-3.53.86Z" transform="translate(-208 -314)"/><path class="cls-1" d="M1156,962c2.52-.14,1.71,2,2.41,3.64l4.93.68c1.17,1.16.45,2.49.66,3.68h-2.9l-2-1.9-4.71-.25c-.13-1.12-.52-2.11-.26-2.85C1154.49,963.91,1156.24,963.59,1156,962Z" transform="translate(-208 -314)"/><path class="cls-1" d="M1170,976c-.43-.67-.72-1.65-1.33-1.92A7.17,7.17,0,0,0,1166,974c-.45-.78-.92-1.55-1.33-2.35-.27-.52-.45-1.1-.67-1.65,2.88-1.48,4.11,2.51,6.71,2,.22,0,.5.28.78.45,1,1,.31,2.34.51,3.52Z" transform="translate(-208 -314)"/><path class="cls-1" d="M1252,1058c-.61,1-1.22,2.09-1.84,3.17,1,1.08,2.66,2,1.21,4.58-.87,1-2.68-.27-4.09.41l-2.27-2.11c-.91,1.56-2.5,3.08-2.65,4.73-.35,4.12-3.68,4.68-6.33,6.18v1.93l-3.92,4.09c-.67,2.19,1.14,3,1.78,4v4.16L1228,1092v-6.92l2-2.12c-.35-1.53.68-3.26-.47-4.44-1.86,1.6-3.72,3.2-5.27,4.55-.66,1.8.47,3.61-1.23,4.89h-3.85c-1.41,3.06-3.72,5.72-3.57,9.36,0,.2-1,.45-1.61.68v-8.56l2-3.44c-.3-1.66,1.52-2,2-3.11V1079l-1.84-2.14c1.44-1.6,3.21-.55,4.79-.9,1.72-2.2,4.92-3.28,5.16-6.73a1.77,1.77,0,0,1,1.26-1.2c4.12.18,4.07-3.44,5.43-5.78a11.86,11.86,0,0,1,1.31-1.55v-5.81c1.85-1.29,4.28-1.53,5.57-3.55.34-1.81.68-3.61,1.39-7.43.71,3.84,1,5.67,1.4,7.59,1.83.08,2.33-1.71,3.55-2.49v-9.51l2.89-5.07a6.6,6.6,0,0,0,2.51-.93A53.16,53.16,0,0,0,1256,1029v-6l1.89-1.89v-7.9a20.35,20.35,0,0,1-4.28-11.86c-1.14,1.19-1.56,1.42-1.56,1.66,0,3.32,0,6.64,0,9.93l2,2.14c0,.69-.07,1.34-.11,2.23l-2.68.87c-.9-1.73-1.74-3.33-3-5.76v-9.23l2.06-3.15-1.92-3c.21-.22.55-.93.94-1,1.29-.09,3.27-.45,3.78.21,1.73,2.26,4.09,1.57,6,1.73,1.64,2.37.61,4.73.89,7,.67.72,1.34,1.43,2,2.15V1030a1.7,1.7,0,0,0-2,2c-.56.23-1.51.34-1.62.71a15.21,15.21,0,0,1-2,4.14c-.79,1.2-.84,2.93-2.17,4-.34.29-.15,1.22-.22,1.95l2,2.19v3.9c-1.34,1.25-2.78,2.57-4,3.65Z" transform="translate(-208 -314)"/><path class="cls-1" d="M1284,1024a22.36,22.36,0,0,1-4,9v3.87c-1.15,1.86-3.61,2.69-4,5.13h-5.12l-2.77,3.27c0,.61-.1,1.86-.19,3.85l-6.07,4.88H1260v-3.18l2.47-2.22c1.87-3.2,2.61-4.49,3.53-6.07v-3.06c.78-1.35,1.42-2.39,2-3.46.7-1.32,1.34-2.67,2-4v-8.75c1.76-1.87,3.23-4.28,6-5.25,0,3.52,0,7,0,10.57,0,.47.65.92,1.08,1.46.61-1.4,1.21-2.74,1.47-3.34Z" transform="translate(-208 -314)"/><path class="cls-1" d="M1276,1018v-7c2.74-2.48,3.64.15,5.06.95l2-1.91H1286c.32,1.26-.93,1.6-1.38,2.41-.92,1.67-2.81,1.28-4.11,2.1C1278.9,1015.52,1278.29,1017.84,1276,1018Z" transform="translate(-208 -314)"/><path class="cls-1" d="M2318,576v-9c1.58-1.89,3.51-.95,5.56-.65.4,3.53,2.5,5.56,6,6.05,0,1.84-2.79,2.85-1.19,4.95,2.28,2.37,3.22-.71,4.81-1.2.93,1.94,1.87,3.87,2.8,5.81-.26,1.23.63,2.67-.69,3.71-2-.16-.91-1.89-2.08-3.5-2.09-.58-5.05-.05-7.95-.22-1.67-.75-2.28-3.54-4.41-2C2319.5,578.34,2320.72,575.78,2318,576Z" transform="translate(-208 -314)"/><path class="cls-1" d="M2284,552c-.23-.56-.39-1.56-.69-1.61-2.19-.34-4.4-.48-6.6-.68-1.34-2.68-4.12-1.09-6-2.08-.41-.22-.48-1.07-.71-1.63h10.88l2.14,2h5.42l7.2,4.1c1.57.18,3.87-.66,6.56.82L2300,554h-12.53Z" transform="translate(-208 -314)"/><path class="cls-1" d="M1296,1650l-4,2-4,2v-9c1.46-1.54,2.81-.79,4-1,.18,1.21-.47,2.55.64,3.73l2.69-1.42.67,1.69Z" transform="translate(-208 -314)"/><path class="cls-1" d="M1292,1639a6.53,6.53,0,0,1-1.34.63c-.17,0-.44-.41-.66-.63a6.53,6.53,0,0,1,1.34-.63C1291.51,1638.34,1291.78,1638.78,1292,1639Z" transform="translate(-208 -314)"/><path class="cls-1" d="M1291.44,1644.23l1.74-2C1294.54,1643.93,1293,1643.79,1291.44,1644.23Z" transform="translate(-208 -314)"/><path class="cls-1" d="M1288,1654a1.7,1.7,0,0,1-2,2A1.7,1.7,0,0,1,1288,1654Z" transform="translate(-208 -314)"/><path class="cls-1" d="M868,734c-.22.55-.4,1.13-.67,1.65-.41.8-.88,1.57-1.33,2.35l-4,0c0-1.64,0-2.81,0-4Z" transform="translate(-208 -314)"/><path class="cls-1" d="M1283.85,951.55c-1.27,2.24-2.06,3.65-2.44,4.3-3.53.52-3.74-2.27-5.44-2.61.06-1.07.09-1.71.13-2.48,2.33-1.29,4.8-.75,7.52-.46A8.48,8.48,0,0,1,1283.85,951.55Z" transform="translate(-208 -314)"/><path class="cls-1" d="M1292,958l-2.82,6-3.18,0v-4.2l3.07-3.83C1290.86,956,1292.15,956.11,1292,958Z" transform="translate(-208 -314)"/><path class="cls-1" d="M1622,1362h-7.59c-.24-1.31-.41-2.19-.6-3.25-1.1-1.45-2.83-.48-4.38-.78-1.48-1-3.1-1.9-3.43-4v-3.48l3.53-.6.69,3.33c1.19,1.47,3,.43,4.65.78l2.77-2.64c.34-1.83.67-3.62,1.21-6.58l1.62,4.66c3,1.88,3.81-1.38,5.37-2.37l.59-2.95h4.74l3.21-4.33,3.12.53c1.8,3.3-2.37,4.5-2,6.67l-5.53,3.58v5.4c.13,2.48-2,1.74-3.45,2.3l-1,3.18C1624.49,1362.49,1623.18,1361.8,1622,1362Z" transform="translate(-208 -314)"/><path class="cls-1" d="M3924,1152v4c-4.21,0-4.21,0-8-2a1.53,1.53,0,0,1,1.41-2C3919.6,1151.89,3921.8,1152,3924,1152Z" transform="translate(-208 -314)"/><path class="cls-1" d="M2236,350v-2h8.92l2.1-2c1.51.32,3.23-.66,5.32,1.27l-4,.9c-.93,2.37-3.23,1.69-5.45,1.8S2238.3,350,2236,350Z" transform="translate(-208 -314)"/><path class="cls-1" d="M2616,942c3.16-.78,4.32-2.9,4-6,2.51.35,3.24,3.07,5.69,4.17,1.74-1,4.26,1,6.25-1.11l-1.94-2.12V930h2c.22.56.37,1.54.69,1.6,1.2.22,1.36-.68,1.32-1.65,0-.65,0-1.3,0-2l3.47-2H2640v6l-1.68.68c-1.83,4,1.22,7.19,1.71,10.81a8.12,8.12,0,0,0,1,2.49c.06.13.61,0,.94,0v3l-2,2.12V955l2,2.12V968a1.7,1.7,0,0,0-2,2v2c-1.2.22-2.55-.54-3.77.77-.12,1.34-.26,2.87-.46,5.14-3.08-1.07-4.14,1.54-5.77,3.36V988h-6v-3.08l2-1.74c.08-2.42.44-4.74-2-6.16.66-2.2-1.74-3.17-2.28-4.82L2624,968l2.26-1.07L2622,965v-3l4.55,2.14c-1.57-.54-1-.18-.4-.17,2.31.07,4.62,0,6.88,0,2-2,.59-4.48,1-6.67-2-1.71-5.45-1.89-6.07-5.74,1-2.78,4.59-3.88,5.77-6.89-1.14-.47-2.3-.88-3.39-1.42a18.79,18.79,0,0,1-2.08-1.37c-2.47.56-3.34,2.53-5.09,3.9h-6.32C2615.38,944.67,2616.25,943.23,2616,942Z" transform="translate(-208 -314)"/><path class="cls-1" d="M2542,1228c-.18,1.18.06,2.88-.62,3.44-1.84,1.52-1.27,3.36-1.38,5.18-1.07,1.41-1.94,3.09-4,3.38a5.12,5.12,0,0,0-1.88,0c-1.36.55-2.57,1.48-3.95,1.91s-3.17-.6-4.17,1.22V1246c-2.53-.32-5.16.61-7.81-.54v-4.67c2.1-1.72,4.5-.09,7.74-1.61l2.7-3.19H2531l7-7v-1.93C2540.76,1225.68,2540.76,1225.69,2542,1228Z" transform="translate(-208 -314)"/><path class="cls-1" d="M1392,1446v3l2,2.09v4a8.72,8.72,0,0,1-5.81,3.59v14.24l-3.53,3.53c-.35-2.13-.64-3.91-.94-5.7-1-1.28-2.47-.42-3.69-.67.61-1.06,1.23-2.12,2.17-3.76-.36-.6-1-1.6-1.56-2.66s-.63-2.54-1.43-3.28c-1.76-1.64-1-3.55-1.1-5.39,1.24-1.63,3-.51,5.12-1.27C1386.16,1451.84,1388,1447.6,1392,1446Z" transform="translate(-208 -314)"/><path class="cls-1" d="M1639.62,1334.28a12.61,12.61,0,0,1,.31,2.65c0,.27-.79.57-1.26.71-.15,0-.64-.42-.63-.64,0-.89.2-1.77.31-2.66Z" transform="translate(-208 -314)"/><path class="cls-1" d="M894,690v-9.57c2.23,0,2.73,1.7,3.8,2.4v6.37C896.55,690.54,895.2,689.78,894,690Z" transform="translate(-208 -314)"/><path class="cls-1" d="M823,528h-2.43c-.22-1-.45-2.12-.74-3.51l3-.6C824.47,525.31,824.43,526.65,823,528Z" transform="translate(-208 -314)"/><path class="cls-1" d="M1222,1112v-3l1.4-1.3c1.19-2.17.38-4.48.6-6.93l-3.66-1.23a13.76,13.76,0,0,1,.19-7.41c3.11,1.19,0,4.45,2.32,5.74,1.41-2.22,2-5.21,5.15-5.84v4.91c-.63.66-1.28,1.36-2.16,2.3v12C1224.58,1112.56,1223.2,1111.77,1222,1112Z" transform="translate(-208 -314)"/><path class="cls-1" d="M1256,1060c-.32-3.1.84-5.22,4-6v5C1258.49,1060.48,1257.18,1059.8,1256,1060Z" transform="translate(-208 -314)"/><path class="cls-1" d="M1416,1018h2l2.28,1.06C1417.12,1020.12,1417.12,1020.12,1416,1018Z" transform="translate(-208 -314)"/><path class="cls-1" d="M1348,1276c-3.16-.78-4.32-2.9-4-6C1347.16,1270.78,1348.32,1272.9,1348,1276Z" transform="translate(-208 -314)"/><path class="cls-1" d="M3308,730a1.7,1.7,0,0,1-2,2A1.7,1.7,0,0,1,3308,730Z" transform="translate(-208 -314)"/><path class="cls-1" d="M3307.44,730.23l1.74-2.05C3310.54,729.93,3309,729.79,3307.44,730.23Z" transform="translate(-208 -314)"/><path class="cls-1" d="M3075.34,490.18h3.88c1.56,1.56.22,3.32,1.21,5.21L3077,496C3075.22,494.26,3076.56,492.5,3075.34,490.18Z" transform="translate(-208 -314)"/><path class="cls-1" d="M1335.45,1271.94l2.5,3.15v4c-.59.32-1.27,1-1.65.86-2-.74-4-1.68-6.11-2.64v-4.52C1332,1271.07,1334.18,1272.83,1335.45,1271.94Z" transform="translate(-208 -314)"/><path class="cls-1" d="M2516,1316h3.25c.36-1.08.75-2.24,1.23-3.65l2.65-.54,4.88-4.8v-2l1.93-2.08v-4.27c-3.11-1.47-3.51-5.1-5.73-7.69v-8.63l3.06-.41,1.25,3.57c2.38,1.86,3.3-1,4.95-1.52h3.34l3,2.68v6.26c.88.48,1.42,1,2,1,2.59.09,5.19,0,7.25,0l1.93,1.93c2.88.18,5.81,0,8.38.09a8.24,8.24,0,0,1,.67,1.41,4.66,4.66,0,0,1,0,1,8.16,8.16,0,0,1,0,1c-.07.63,0,1.64-.31,1.82-2.69,1.43-1,4.26-2.08,6.15-.86,1.52-1.82,3-2.78,4.51-.61-1.31-1.19-2.53-1.81-3.85-1.64,1.29-.75,2.73-1,4l-3.81-2c-3-.11-1.62,2.51-2.68,3.5-1.22,1.12-2.38,2.31-3.51,3.42V1322c-.08,2.42-1.67,2.08-3.43,1.77-.35-1.06-.71-2.17-1.24-3.77H2532c-.4-.73-.8-1.46-1.22-2.21-2.74,1.52-5.9,1.66-7.55,4.09s-4.93,1.61-6.29,4.23l-1.84-4c-2.18-.84-2.9,1.16-4.25,1.77-.23-.23-.66-.46-.67-.7,0-3.53,0-7.07,0-10.77,2.79-.09,1.23,2.41,2.35,3.18a21.63,21.63,0,0,1,2.64,2.56Z" transform="translate(-208 -314)"/><path class="cls-1" d="M2526,596c.23-.56.36-1.54.71-1.62a45.4,45.4,0,0,1,4.6-.64c1.26-1.86.45-3.86.69-5.74H2539c1.85-1.21,2.77-3.35,5.24-4.17a19.69,19.69,0,0,0,6.55-3.41c1.59-1.33,4.67.53,6-2.26h28.37c1.48,1.18.61,2.62.86,3.84h-7l-2.09-2H2563l-2.16,1.93c-1.68.34-3.48-.69-4.77.93,0,.64-.07,1.29-.11,2l2,2.15v3h-8.95l-2.19,2h-3.34l-7.29,4.11h-5.47c-.29.71-.53,1.28-.76,1.85-.55-.22-1.13-.4-1.65-.67C2527.55,596.92,2526.78,596.45,2526,596Z" transform="translate(-208 -314)"/><path class="cls-1" d="M2590,584h-4v-2a7,7,0,0,1,2.67.08C2589.28,582.35,2589.57,583.33,2590,584Z" transform="translate(-208 -314)"/><path class="cls-1" d="M950,828a10.55,10.55,0,0,0,1.35,2.29c1.17,1.18.6,2.22.21,3.74-2.2-1.2-3.4-3-4.89-4.41-.38-.37-.45-1.07-.67-1.62Z" transform="translate(-208 -314)"/><path class="cls-1" d="M946,828h-2c-.07-1,.13-1.86,1.32-1.59C945.65,826.49,945.78,827.45,946,828Z" transform="translate(-208 -314)"/><path class="cls-1" d="M2608,977a6.53,6.53,0,0,1-1.34.63c-.17,0-.44-.41-.66-.63a6.53,6.53,0,0,1,1.34-.63C2607.51,976.34,2607.78,976.78,2608,977Z" transform="translate(-208 -314)"/></g></g></svg>