<svg xmlns="http://www.w3.org/2000/svg" viewBox="0 0 4320 2160"><defs><style>.cls-1{fill:#04fefe;}</style></defs><g id="Layer_26" data-name="Layer 26"><g id="Dfa"><path class="cls-1" d="M1272,608h-5.36c-.33-1.75-.68-3.57-1-5.4-1.45-1.17-3.13-.37-4.69-.52l-5.78,5.78h-10.32l-3,4.1h-6.51c-2.86,1.79-4.38,4.75-7.57,6.21-2.79,1.27-4.94,4-7.4,6.07L1216,622v-6c1.28-.37,3.09,1,3.83-1.17-2.65-.88-2.65-.88-3.83,1.17l-2-.82c0-1.17,0-2.46,0-3.75,0-.94.14-1.89.23-3l2.92-.6c.91-1.82,1.8-3.79,2.86-5.66,1.91-3.39,2.42-7.86,7.49-8.82,1.31-.25,2.28-2.27,3.23-3.29h2.39l1.87,4c1.71-1.46.67-3.25.88-4.23l3.65-4.27,4.21,2.65h7.86c.15,2.93-2.49,1.16-3.24,2.43a14.16,14.16,0,0,1-2.41,2.49c1.91,1.63,3.61.52,4.93,1l2.3-2h5l5.7-2.93L1276,577V567l5-4.92c2,2.46,1.53,4.65-.8,6.73v12.55c2.36,1.22,4.65.52,6.89.57L1290,579v-3.88c1.83-1.15,1.82-3.28,2.76-4.88.24.05.62,0,.68.16.9,1.95,1.76,3.92,2.68,6l-2.09,3.09c0,1.4.2,2.63,2.06,2.5,2.83-.67,3.73-3.6,5.94-4.78V571l5.07-4.93h3.83c.34.42,1,.87,1.06,1.38.18,1.34.08,2.72,2,2.57l1.63.62c-.06,1.66-2.74,2.51-1.25,4.85l3.1,1c1,1,.32,2.36.52,3.54.22.56.29,1.4.7,1.61a29.77,29.77,0,0,0,4,1.39,29.77,29.77,0,0,0-4,1.39c-.41.21-.48,1.05-.7,1.61h-4a1.55,1.55,0,0,0-1.52-2c-1.34-.15-2.62.08-2.48,2h-6.92l-2.11,2c-2.55,0-5.16-.14-7.75,0-2.38.17-5-.82-7.48,1.14,4,1.75,7.92.11,11.59,1.15.22.55.45,1.11.67,1.67h-3l-2.19,2H1287l-1.8,1.8H1277c-1.89,2.39-.7,4.78-1,6.87-.49,1.29-2.31,1.61-2,3.28A1.7,1.7,0,0,0,1272,608Z" transform="translate(-939.91 -443.97)"/><path class="cls-1" d="M3854,586h4c2.48-.13,1.38,2.41,2.28,3.12,2.14,1.68,1.6,3.84,1.71,5.32l2,3.56a1.56,1.56,0,0,1-1.55,2c-2.67.24-4,1.79-4.62,4.91,2.74,1.36,2,5.55,5.22,7.12H3866v2a1.7,1.7,0,0,0-2,2,1.7,1.7,0,0,0-2,2v2c-1.93,0-3.87,0-5.8,0a6.87,6.87,0,0,0-1.7.49l-2.62,6.27,2.12,2.4V638a1.7,1.7,0,0,0-2,2v2l-4-2-4-2-.74-1.81h-10.45l-3.72,3.72-4.6.21c-.45,2.35-1.29,4.26.52,5.88h3v2c-2.55.36-5.23-.69-7.51.42-1.22,1.86.67,4.23-2.47,6,0-4.27,0-8.07,0-11.72l3.35-1.18c1.06-2.19,1.85-3.85,2.65-5.51a1.7,1.7,0,0,0,2-2,1.7,1.7,0,0,0,2-2h2.84c1.81-1.88,4.26-3.26,5.16-6v-4a1.7,1.7,0,0,0,2-2c.45-.78.92-1.55,1.33-2.35.27-.52.45-1.1.67-1.65a1.54,1.54,0,0,0,1.95-1.37A39.69,39.69,0,0,0,3842,610v-2.94l-2-2.11V603l2-2.1v-8.18l3.37-1.09c1.22-1,.39-2.44.63-3.65,1.33,0,2.66-.07,4,0a6.22,6.22,0,0,1,1.71.66c.37,1.1.75,2.21,1,3.06l5.53-2.83a23.29,23.29,0,0,1-3.53-1.28C3854.31,587.41,3854.23,586.57,3854,586Z" transform="translate(-939.91 -443.97)"/><path class="cls-1" d="M3678,638h4.94c1.11,1.48,3,2.21,3.21,4.62.15,1.65,2.69,2.67,1.91,4.89l3.14.69c.23.23.66.46.67.7,0,3.28,0,6.56,0,10-.9,1.82-3.52,2.59-3.9,5.07h-2v-3.09l-4-1.84V648.71c-1.23-1.14-2.66-2.44-4-3.67v-7Z" transform="translate(-939.91 -443.97)"/><path class="cls-1" d="M964,636c-2.73.23-1.48-2.35-2.69-3.69l-2.57-.53c-1.45-1.15-.43-2.95-.76-4.58l1.93-2.17L958,623v-8.19l-3.65-1.23-.59-2.9-3.37-1.11-4.21-5.43V590.42l5.73-.84c-1.16-3-3.57-.78-5.14-1.79-1-2.14-2.1-4.35-3.49-7.27l-2.66-.89c-1.26-2.13-.42-4.45-.57-6.68l5.72-5.72c.16-1.47.33-3,.52-4.85l2.66-.44c2.18,2.2.83,3.6-.92,4.86,2.08,3.24,5.5,4,8.75,5.3l3.08-2.91c.06-1.06.13-2.34.23-4.41l-4-2.09v-8l3.91-2.77V544l2-3.47V538h3.63l3.09,3.89c2.79.49,5.23-.88,7.07.88.22,1.09.41,2,.6,3,2.2-.58,3-2.47,4.47-3.58l4.61-.33c.56-2.23,1.26-4.12-.45-5.79h-3.95c-1.16-1.5-3.44-2.24-3-5.18l2.69-3h6.48c.29-.71.53-1.28.76-1.85h6.84c3.64-1.55,2.65-7.3,7.7-8.07,5.22,2.86,6.24,9.92,11.46,12.84V534c-1.28.37-3.09-1-3.83,1.17,2.65.88,2.65.88,3.83-1.17h7l1.71-1.75h5.57l4.36-3,4.49,6.7h11.6c1.27,1.71,3.26,2,5.14,2.84,0,1.18.11,2.47.2,4.68l3.41,2.9,4.1-2.16h5.67c1.43,2.23.47,4.59.75,6.82,2.48,1,2.48,1,4.81-.83,1.66.47.93,2.05,1.5,3.22l3.33,1.25c-1,2.16-2.55,4.24-1.18,6.82.26.18.49.45.78.51,1.49.33,2.32-.71,3.38-1.5s2.27-.86,4.24-1.54l-4.54-4.47,2.83-.69c.51-1.08,1.14-2.43,1.79-3.83,2.36,2.22.12,5.21,1.49,7.66,2.09.16,1.33-1.47,1.63-2.56l5.53-2.89h6.7l3.08-2c1,2.53.63,4.79.43,7-3,3.65-4.16-3-7.12-1l-1,2.68a15.3,15.3,0,0,1,7.2,5.11h6.29c1.41,2.48.51,4.83.87,7,2.55,3.09,3.78-1,6.51-1.06l2.66,2h10.13c.33-1.75.68-3.57,1-5.39,2.12-1.36,4.51-.06,6.9-.9l1.51-1.51,6.29-.36,2.71-2.61c.26-1.2.45-2.11.65-3h13.37c.11,1.76.2,3.33.3,4.91L1165,566h3.91l2.23,2H1177c1.9,1.91,3.48,4.63,5.75,5.46,2.66,1,4.25,2.79,6.19,4.49h6l4.19-4c2.3.38,4.71-.89,6.82.93-2.9,3.8-7.14,4.77-11.45,5.59-1.8,3,1.4,3.8,2.54,5.51h2c1.21,2.18,1.74,4.84,4.07,5.87,2.25.68,2.94-1.45,4.61-2,3,.8,4.4,3.46,6.32,5.44-.12.76,0,1.6-.37,2-2.51,2.64-5.12,5.19-7.69,7.76v3.23l-1.88,3.82L1197,620a17.11,17.11,0,0,0-2.19.31c-.27.08-.47.44-.73.7v1.93c-2.52,2.93-6,5.07-7,9.1h-3c-2.09-.44-3.19-1.93-4.24-4.17.6-.83,1.32-1.84,2.09-2.93l-6.78-3.38-5.51,6.73c-2.74-1-3.44,1.1-4.83,1.75h-5c-3.15-1.13-4.25-4.87-7.93-6.19l-3,2.15h-7.68l-4.52-4.3-8.21,4.17h-3.89c-2.5.46-3,2.89-5.34,2.08l-2.12-1.84h-3.93L1111,628h-6.2c-.36,1.08-.74,2.23-1.13,3.38a5.7,5.7,0,0,1-1.73.61c-3,.06-6,0-8.86,0l-2.35-2.15a5.63,5.63,0,0,0-4.9,5.39c-1.54,1.9-5.21-.55-6.66,2.86H1052.9l-1.82,1.82h-12c-2.22-1.25-3.2-3.58-4.17-5.93H1031l-2.5-2.32-8.83,4.47-3.65-2.47-3.34,2.27h-11.65L999,634h-9.91l-2.13,2Zm15.53-78.52c-3.06-6.16-3.06-6.16-7.77-9.48-2.78-.12-1,2.7-2.65,3.77h-4.3c-.9-.37-1.28-2.54-2.81-.8v4.2a13.83,13.83,0,0,1,3.29,1.21c1.05.71,1.76,1.94,3.34,1.59l3.3-2.34,3.25,2.24C976.44,557.85,978.05,558.47,979.53,557.48ZM999,537.42c-.8,2.2-3.39,2.67-2.8,6l3.18,2.51A10.45,10.45,0,0,0,999,537.42Zm4.76,14.2c0-.42,0-.84-.05-1.27-.89-.11-1.78-.28-2.67-.31-.22,0-.68.48-.64.63.14.47.44,1.25.71,1.26A12.61,12.61,0,0,0,1003.72,551.62Z" transform="translate(-939.91 -443.97)"/><path class="cls-1" d="M1223,564l-4,4h-7.37l-5.54-2.85V561l2.62-2.8h8l6.74,3.71h17.29l3,2.87v6.82l-3,.52c-.44-1.27-.85-2.43-1.25-3.59-1.85-1-3.85-.33-5.78-.53-2.73-1.44-5.35-3.1-8.34-4A10.25,10.25,0,0,0,1223,564Z" transform="translate(-939.91 -443.97)"/><path class="cls-1" d="M3776,656h3.46c.19,1,.4,2.17.58,3.14-2.21,1.41-4.21.7-6.11.84-1.65.11-3.3,0-4.39,0l-6.86,3.9h-6.11l-.69-2.59c1.88-2.5,4.37-.86,6.9-1.4l2.44-1.89h10C3775.54,657.13,3775.77,656.57,3776,656Z" transform="translate(-939.91 -443.97)"/><path class="cls-1" d="M2660,504c2-.16,2,1.22,2,2.72L2660.1,509v4l7.89,4v2.61l-4.07,3.86V527l-2.17,2.54L2665,536h6c2,1.35,2.8,3.36,3.62,5.49.87,2.29,3.86,1.93,5.4,3.56v4l5.66,2.88h4.95c4.5,4.06,4.62,3.72,11.46,6.25,3,1.09,7,1.67,7.92,5.84a4,4,0,0,1-5.4,1.59c-1.76-1.31-2.65-3.94-5.5-3.59l-2.15,2h-6l-5-5v-2c-2-2.71-5.11-3.62-7.89-5h-3l-4.21-4-2.23.16-1.21,3.4c-6.85-3.44-6.85-3.44-10.93-3.07l-1.47,1.47h-4l-2.08-2h-3c-.23-.56-.31-1.42-.72-1.64-1.33-.72-2.79-1.2-5.85-2.46h-6.53l-2-2h-8c-1.47-1.49-2.58-2.85-4.4-1.32-.39,1.15-.79,2.3-1.15,3.37-.55,0-.93.19-1.18.07-1.39-.62-2.76-1.31-4.13-2v-4c1.25.23,1.7-.55,2-1.57.25-.85.56-1.68.81-2.41l2.49-.11c.37-1.09.78-2.24,1.18-3.4l3.56-1.24c-.14-1.08-.27-2-.37-2.76l-3.67-1.25v-3c3.84.71,6.62-1.87,9.86-3.4-.27-.27-.49-.7-.74-.71-2.3-.09-4.6-.2-6.9-.13-1.92.06-3.91-.49-5.71.45l-1.45,1.45c-2.21.39-4.55-.49-6.66.62L2605,522h-3l-.84-2H2593c-2.31-2.47-6-2.21-7-5.34-.31-1.6.72-3.41-1-4.55l-2.06,1.88c-2.22.8-2.84-1.47-3.92-1.82h-25.34L2542.22,516h-5.12l-2.14,2h-3v-4.31c1.13-2.16,2-3.81,3-5.8h14.31c.3-.91.45-1.51.68-2.08s.54-1.1.82-1.64l2-.18,2.34,2.12c.7-.21,2-.21,2.36-.79,1-1.77,3.21-.69,4.18-2.06,1.18-1.69,3-.87,4.44-1.33,2.62-.83,4.7-3.14,9-1.47L2572,497c.24-.24.47-.67.7-.67,5.55,0,11.1,0,16.54,0l1.62,1.62h13.46c2.92,1.21,3.33,3.94,4.61,6.08h5.92l2.16,2h9.9a12.18,12.18,0,0,1,2.22-1.95c.78-.4,1.78-.39,3.77-.75l-4.93-3.57V496l2-.83v-6.76l3.2-.51c.43,1.26.83,2.42,1.23,3.57.24.12.62.39.68.33,3-2.92,5.92-5.87,9-8.93l-3.87-1.57c2.29-1.28,2.29-1.28,8.77-1.39l2-1.82h4l3.72,3.72h6.48c1.36-2.49.25-5.25,1.06-8.13l2.8,2.36c.65-.17,1.78-.12,2.36-.66a5,5,0,0,1,3.43-1.49c.76-.05,1.44-1.22,2.17-1.91H2685l2.09-1.91h4l1.5,1.5c1.82.47,3.77,1.21,5.33-.52s3.56-.92,5.43-.75c1.27,1.78.41,3.81.67,5.7s-1.22,2-3,2l-7.27,7.91h-4.78l-1.7-1.7h-10.48c-1.78,2,0,4.44-1.56,7.5l-8.74,6.21h-3.11c-1.36.54-1.69,2.35-3.35,2.05l-4.95-2.37-2,4.29-2.25-1.92c-5.81,0-5.81,0-6.83,1.06.13.81.28,1.71.48,2.9h6.34c1.14.89,1.79,1.4,2.41,1.87l1.72-1.72,2,1.71Zm-29.72,12.38c0,.42,0,.84,0,1.27.89.11,1.78.28,2.67.31.22,0,.68-.48.64-.63-.14-.47-.44-1.25-.71-1.26A12.61,12.61,0,0,0,2630.28,516.38Z" transform="translate(-939.91 -443.97)"/><path class="cls-1" d="M2488,538v4.92l-2,2.1v8.08a17.4,17.4,0,0,1,2.25.91c3.72,2.08,8,3.45,9.74,8h-4.86c-1.87,1.13-2.7,3.6-5.14,4h-5l-2.08-2H2477l-2.1,1.88H2461l-2.64-2.26-3.88,2.17h-5.43l-2.09-1.71h-3.33c-2.65-1-3.42-3.94-6.57-4.34-2.53-.32-2.82-3.94-4.33-5.91-1.22-1.58-.41-3.16-.85-4.93l3.39-2.79h30.84l7.38-4.06H2480Z" transform="translate(-939.91 -443.97)"/><path class="cls-1" d="M2798,454a10.6,10.6,0,0,0-1.69.72,13.9,13.9,0,0,0-1.52,1.33H2791c-.82.72-1.54,1.37-2.29,2h-13.82l-1.7,1.7h-12.42l-1.61-1.61h-4.76c-.21,1-.4,1.94-.64,3.12-1.34,2-4.23-.39-6,1.77-1.1,1.31-3.2,1.78-5.41,2.91h-21.27l-2.11-2h-5c-1.51-.79-1.51-.79-2-2.55,1.22-3.47,5.27-3.14,7.35-5.45h5.29l2.32-1.75,4.26-.47,1.63-1.63,2.16,1.73h4.35l4.56-6.3c0,.25.14-1.31.3-2.8.3-.3.5-.62.78-.74a2.6,2.6,0,0,1,1,0h9.7c-.43,3.84-3.6,3.47-5.45,4.78.38,1.75,1.93,1,3.17,1.48l1.21,3.45,5.4-2.66V448h10.92l2.12-2h10.66c-.11,2.73-1.76,1.73-2.9,2.11-1.34,2.28-.83,4.78-.51,7.21.34.24.57.42.8.59.47-1.13.93-2.26,1.52-3.71l4.54-.35,1.63-1.63h6.5C2796,451.57,2798.1,452,2798,454Z" transform="translate(-939.91 -443.97)"/><path class="cls-1" d="M2388.66,527.66c-1.71-1.87-.35-3,1.18-4.49v-9l3.42-6.71c.43,2.32.77,4.12,1.15,6.2l2.82.47,1.35-3.93,6.55-.31,1.64-1.64h6.37L2416,511V513l-5.85,3-4.61-2.3c-2.62,1.55-.81,3.94-1.84,5.56-.68.66-.68.66-2.8-1.26h-4.19a11.9,11.9,0,0,1-1.27,3.4c-.82,1.07-1.76,1.92-1.36,3.54Z" transform="translate(-939.91 -443.97)"/><path class="cls-1" d="M2422,540c-2.51-.31-3.15-3-5.4-4h-2q-.46,2.65-.94,5.38c-2.1,1.17-4.39.33-6.89.62l-3.54-4H2398v-3l7-7c2.11-.75,2.89,1.17,4.29,2h3.8l3.69,3.69,4.54.48A6.77,6.77,0,0,1,2422,536C2422.07,537.34,2422,538.67,2422,540Z" transform="translate(-939.91 -443.97)"/><path class="cls-1" d="M2842,466c-1.72.38-1.88-1.69-5.38-2.05h-1.55c-.87-.72-1.71-1.94-2.35-1.85-3.71.54-6.37-3-10-2.47-.15,0-.46-1.06-.69-1.63.22-.56.45-1.12.74-1.84h8.52c1.34,3.12,4.61,1.18,6.76,2.65s4.48,2.12,6,4.26V466Z" transform="translate(-939.91 -443.97)"/><path class="cls-1" d="M2532,518a1.7,1.7,0,0,1-2,2A1.7,1.7,0,0,1,2532,518Z" transform="translate(-939.91 -443.97)"/><path class="cls-1" d="M2628.23,496.56l-2.05-1.74C2627.93,493.46,2627.79,495,2628.23,496.56Z" transform="translate(-939.91 -443.97)"/><path class="cls-1" d="M2760.23,448.56l-2.05-1.74C2759.93,445.46,2759.79,447,2760.23,448.56Z" transform="translate(-939.91 -443.97)"/></g></g></svg>