<svg xmlns="http://www.w3.org/2000/svg" viewBox="0 0 4320 2160"><defs><style>.cls-1{fill:#38c8fc;}.cls-2{fill:#48aaf7;}</style></defs><g id="Layer_2" data-name="Layer 2"><g id="Dfb"><path class="cls-1" d="M953.89,441.72c.35-.29.56-1.34.82-1.35,2.9-.12,5.8-.08,8.58-.08l1.62,1.62h7.91c1.2-2,1.94-4.55,4.22-5.88h10l5,5c0,.68,0,1.34,0,2a31.64,31.64,0,0,1,3.48,3.57,13.42,13.42,0,0,1,1.25,3.4h2.46c2.41,4.52,8,4.54,12.12,8.1h8.1c1.57,8,9.37,8.07,14.05,11.92h4.8l11.35,6h11.22c1.54,1.38,2.85,3.46,4.52,3.8s2.64,2.17,4.12,2.12c2.58-.08,2.88,2.44,4.6,2.86v4.31L1077,492h2l2.14,2h5.12c1.88,1,4.1,1.62,5.65,3,1.88,1.71,3.69.29,5.09,1.1.59-.72,1-1.14,1-1.17-1.85-1.91-3.74-3.79-5.75-5.8-.05-.83-.13-1.8-.15-2.76s0-2,0-2.82c1-3.4,4.89-3,6.78-5.4h6.82c.17,1.06.32,2,.44,2.69-1.44,2.49-4.67-.38-5.88,2.3,1.37,1.54,3.16.49,4.73.84,2.22,1.28.39,3.68,1.42,5.31s1.92,3.12,2.87,4.67c1.56.34,3.35-.71,4.72.91-1.78,2.16-4.2.69-7.44,1.34l-2.15,3.44-5.88.63c-.34,3,2.94.44,3.1,2.48.18,1.34-1.39,1.64-2.13,3h-8.27c-1.7,2.09-1.32,3.92-.48,6H1103l2.08-1.62h5.73c1.58,1.18,3.9,2.15,3.09,5.24l3.28.82,1.95,1.8H1125l1.43,1.44a7.49,7.49,0,0,0,1.78.52c3,0,6,0,8.85,0l2.92-5.8c0-.51.14-1,0-1.16-1.86-1.91-3.77-3.77-5.8-5.77v-4.48c.83-.7.86-.69,3.1,1.24,1.51-.34,3.54.81,4.53-.95s4.38,0,4.19-3.08h11.2c1.3-2.2.59-4.15.8-6,.57-.23,1.54-.36,1.63-.72a31.25,31.25,0,0,0,.52-4.24c.76-2.07,4-1,5.2-3.14h5.74c1.62-1.42.57-3.2.91-4.74-1.25-2.34-3.68-.38-5.65-1.76l-.48-2.32,9.78-5h3.2L1181,472H1187c1.4-2.45,4.72-1.86,6.31-4,1.55.25,3.34-.69,4.61.9,1.56,2,3.54,1,5.4.82.23-.58.47-1.15.7-1.72h2c3.66,0,7.32,0,11,0,.23,0,.45.46.83.88l-1.65,2c-.12,2.11-.25,4.35-.39,6.85a9.77,9.77,0,0,1-3-.06c-.85-.32-1.44-1.38-2.3-1.66s-2,.14-3-.13-1.59-1-2.9-1.94a57.91,57.91,0,0,0-6.27.05c-2.46.25-4.24,3.2-7.59,1.76l-4.73,5.59-4.14,1.31.41,2.85,5.66,1.07v2.61a12.49,12.49,0,0,1,3.37,1.23,31.16,31.16,0,0,1,3.6,3.5h9.9l2.17,2h3.72l3.06-2.24,4.41,2.42,3-2h14c.49,1.34.91,2.5,1.26,3.43l3.08,1.06c.48,1.53.75,2.41,1,3.21l2.2.13c1.58,2.15,1.89,5.18,5.29,6.11,2.62.71,4.95,2.48,7.91,4h7.12l1.61,1.61h17c.12-1.76.24-3.34.35-4.92.94-.94,2.12-2.83,2.78-2.66,2.76.71,3.5-3.32,6.18-2.35a13.72,13.72,0,0,0,1.15-2l-2.25-3.25c0-.85,0-2.17,0-3.48,0-.26.37-.5.73-1h10.17c2.16,1.33,4,2.59,5.91,3.56.81.4,2,0,2.88.28a30.73,30.73,0,0,1,5.86,2.67c.84.54,2.27,1.16,1.94,3.29-3.52,0-7.09,0-10.88,0-1.21-3-3.67-1.93-5.61-1.76l-3,2.64V513l5,5h16.16c1.26-1.52.69-2.82.85-4a1.7,1.7,0,0,0,2-2h2.94c2.86-2.49,5-5.76,8.94-7a2.87,2.87,0,0,0,2.12-3h6v2.47l-2.34,4.19,3.25,3.25H1349a11.15,11.15,0,0,1,3.7-2.11c1.66-.4,2.92-2.42,4.1-3.49,2.37-.87,4.73.44,6.83-.92L1365,504h3.93l2.13-2h5.9l2.12,2H1384l-.73,1.78c-3.53.2-7.09.39-10.65.63-.19,0-.35.45-.57.74l6.52,3.17L1381,508h7c-.67,1.33-1.32,2.68-2,4s-1.42,2.62-2.06,3.81c.47,2.61,2.86,3.48,4.06,5.29V524c.29,2.06,2,2.93,3.38,4H1398c.25,1.22-.6,2.64.78,3.77l4.26.44,2.08,1.63h12.13L1418,532h3l2.31,2.13,1.09-3.37,5.65-5.91c0-3.53,3.41-4.52,5-6.85h5v7.4l5.78,3.75c0,.26.08,1.16.17,2.31l-3.08.75-4.07,3.87h-6.12c-.42,1.17-.83,2.33-1.3,3.62-1.5.19-3.65-.19-4.53.69-1.67,1.69-3.46,1.43-5.39,1.67-1.51.19-2.18,2.43-4.17,2-1.84-.45-3.14.49-4.18,1.93h-8l-4.25,4h-5.09l-5.69,2.88-5.07,5.07h-4.23l-1.12,3.35a6.14,6.14,0,0,1-1.71.67c-1.32.1-2.66,0-4,0,0-1.17,0-2.34,0-4l-4,0c-.56-.22-1.53-.35-1.6-.69a40.46,40.46,0,0,1-.64-4.55l-1.44-1.44c.71-2.86,3.56-2.86,5.47-4.11v-4.68c-2.66-1.11-5.27-.23-7.79-.53-.67.43-1.65.72-1.92,1.33A7.17,7.17,0,0,0,1362,546h-3l-1.85,1.88-4.27.23c-1.39,2.51-3.95,1.7-6.08,2.1l-3.66,3.66h-3.77l-2.38,2.06h-7.77L1327,558h-3.89c-2.26,2.29-5,4.15-5.61,7.6l-3.47,1.17V570c-2,.15-1.87-1.23-2-2.57-.07-.51-.72-1-1.06-1.38h-3.83L1302,571v6.25c-2.21,1.18-3.11,4.11-5.94,4.78-1.86.13-2.06-1.1-2.06-2.5l2.09-3.09c-.92-2.06-1.78-4-2.68-6-.06-.13-.44-.11-.68-.16-.94,1.6-.93,3.73-2.76,4.88V579l-2.87,2.87c-2.24,0-4.53.65-6.89-.57V568.79c2.33-2.08,2.77-4.27.8-6.73l-5,4.92v10l-12.08,12.07-5.7,2.93h-5l-2.3,2c-1.32-.46-3,.65-4.93-1a14.16,14.16,0,0,0,2.41-2.49c.75-1.27,3.39.5,3.24-2.43h-7.86l-4.21-2.65-3.65,4.27c-.21,1,.83,2.77-.88,4.23l-1.87-4h-2.39c-1,1-1.92,3-3.23,3.29-5.07,1-5.58,5.43-7.49,8.82-1.06,1.87-2,3.84-2.86,5.66l-2.92.6c-.09,1.14-.2,2.09-.23,3,0,1.29,0,2.58,0,3.75l2,.82v6c-.34,2.54.66,5.2-.4,7.47-2.16,1.27-3.24,0-4.46-1.36l-2.16,1.82h-3.65l-3.48,2.83v6l-2.76,3.25h-3.42c-2.27,1.16-4,1.9-5.53,2.86s-2.36,2.8-4.63,3.28c-1.65.36-2.8,2.61-4.43,3.62a2,2,0,0,1-3.07-1.2c1.11-3.24,2.39-6.41,5.11-8.77.31-.27.31-.89.44-1.34l-3.53-1.21v-2.35l4-1.84V632h3c1-4,4.52-6.17,7-9.1V621c.26-.26.46-.62.73-.7A17.11,17.11,0,0,1,1197,620l7.13-7.87,1.88-3.82V605c2.57-2.57,5.18-5.12,7.69-7.76.37-.38.25-1.22.37-2-1.92-2-3.37-4.64-6.32-5.44-1.67.57-2.36,2.7-4.61,2-2.33-1-2.86-3.69-4.07-5.87h-2c-1.14-1.71-4.34-2.46-2.54-5.51,4.31-.82,8.55-1.79,11.45-5.59-2.11-1.82-4.52-.55-6.82-.93l-4.19,4h-6c-1.94-1.7-3.53-3.51-6.19-4.49-2.27-.83-3.85-3.55-5.75-5.46h-5.92l-2.23-2H1165l-2.85-2.85c-.1-1.58-.19-3.15-.3-4.91h-13.37c-.2.91-.39,1.82-.65,3l-2.71,2.61-6.29.36-1.51,1.51c-2.39.84-4.78-.46-6.9.9-.35,1.82-.7,3.64-1,5.39h-10.13l-2.66-2c-2.73,0-4,4.15-6.51,1.06-.36-2.22.54-4.57-.87-7h-6.29a15.3,15.3,0,0,0-7.2-5.11l1-2.68c3-2.06,4.14,4.62,7.12,1,.2-2.24.62-4.5-.43-7l-3.08,2h-6.7l-5.53,2.89c-.3,1.09.46,2.72-1.63,2.56-1.37-2.45.87-5.44-1.49-7.66-.65,1.4-1.28,2.75-1.79,3.83l-2.83.69,4.54,4.47c-2,.68-3.3.84-4.24,1.54s-1.89,1.83-3.38,1.5c-.29-.06-.52-.33-.78-.51-1.37-2.58.14-4.66,1.18-6.82l-3.33-1.25c-.57-1.17.16-2.75-1.5-3.22-2.33,1.85-2.33,1.85-4.81.83-.28-2.23.68-4.59-.75-6.82h-5.67l-4.1,2.16-3.41-2.9c-.09-2.21-.15-3.5-.2-4.68-1.88-.89-3.87-1.13-5.14-2.84h-11.6l-4.49-6.7-4.36,3h-5.57L1021,534h-7v-3.23c-5.22-2.92-6.24-10-11.46-12.84-5,.77-4.06,6.52-7.7,8.07H988c-.3-.64-.59-1.29-.92-2l-2.14,1.9c-.72-.67-1.35-1.32-2.05-1.88-.19-.15-.59,0-.89,0-.24-1.22.6-2.63-.64-3.66L978,519.25V517c-2-1.59-3.29-4-6.09-5.32l-3.06,2.26c-1.34-.18-3,.65-4.44-.51-.38-1.16-.77-2.3-1.13-3.39h-2.21L959,512H953.5l-7-4H936l-3.47-2H930v-3.27a9.93,9.93,0,0,1-2.54-.77,11,11,0,0,1-2.91-2.51c-.53-.68-.27-2.32-.8-2.56-2.25-1-1-3.8-2.76-4.88h-2l-2.13,2c-3.49.5-6.14-1.43-8.78-3-1.66-1-2.74-2.92-4.32-4.1a41.51,41.51,0,0,0-5.47-2.88H895L893,486c-1.55.38-2.42-.51-3.49-1.36-.9-.72-2.26-.88-3.41-1.28v-4.13l-2-2.2c.31-1.51-.69-3.25.64-4.65l3.3-1.14v-2.25c-4.37-2.11-4.79-2.53-7-7.06l-2.46.48c-1.39,2.62.95,5.61-1.59,7.65-1.55-.35-3.33.7-4.68-.79.44-1.43,2.57-2.11,1.77-4.1L868.36,462h-5.11L861,460.1h-3.92L855,462H839.17l-2.2,2H833l-2.11-2H827c-5.48,1.41-8.1,4.7-12.32,4.22a15.48,15.48,0,0,1-1.4,3.39,29.58,29.58,0,0,1-3.22,3.3l2.32,2.76-2.58,4.23V485l-1.74,2.34,3.9,1.36V493l-2,2.1V504c-1.27.32-1.71-.79-2.4-1.42-2.14-1.95-2.31-5.19-4.89-7-2.15-1.51-3.82-3.69-5.7-5.57h-2.47c-.19-1.06-.39-2.19-.64-3.54l3.36-.69c1.46-1.15.43-2.95.83-4.94L794,478V469l2-2.21v-3.88L799,460h5.91c2.62-2.06.14-5.08,1.62-7.66l6.24-.91L804,447.05c2.09-2.49,5.08-.07,7.44-1.47.88-1.12,1.11-2.72-.26-3.25-2.18-.85.15-4.48-3.91-4.29-2.22,1.21-4,4.13-6.3,5.85h-4.17c-1.61-2.18-.48-4.56-.84-6.93l4.1-1.91c-2-1.55-4.88-1.59-5.93-4.24,2.21-1.58,4.58-.52,7.36-.88l3.16,4H811l2.26-1.91h5.17l7.1,3.91h5.7l3.79,4.84,1.44-4.19c2.37-2,3.36.71,4.61,1.44h5.31l7.15,3.89h4.8l7.21,4.11H869l1.29,1.35c2.23,1.38,4.57.11,6.44.75,3.37-1.89,3.16-6,6.07-7.89h8.39l1.71,1.71h7.84L903,444h5.91l4.25-4.05h3.5l3.1-2.05c2.31.52,3.26,3.27,5.88,1.56.13-.67.32-1.58.54-2.66,1.85-1.75,4.28-.39,6.58-.79l2.36,2.08c1.21.78,3.64-1.58,4.61,1.2-1.45,1.44-3.21.38-4.77.75l-3,3.06c.54-.54-.85-1.25-2.1-1.08-1.92.26-2.81,2.79-5.07,2.23-1,2-3.51,1.34-4.83,2.81-.89,1-1.87,1.89-2.81,2.83l-6.87.34c-.07,1.25-.12,2.15-.17,3,2.24,1.62,4.61.55,7,.87,1.57,2.91,4.88,3.74,8.19,5.77h5.88l1.65-1.65h7.53a7.73,7.73,0,0,1,6.34-2.15c1.49-1.49,4.16-2.32,3-5.29-.27-.26-.51-.68-.75-.68-5,0-10,0-15,0-.1-2,2-2.44,2.8-3.91h5.54l7.18-4.09a25,25,0,0,0,4.37-.28c.32,1.27.18,2.82,1.93,1.46A17.45,17.45,0,0,0,953.89,441.72ZM1380,542c1.19-.21,2.52.51,4-.94-.08-.76-.2-1.86-.35-3.19-2,.19-3.48.26-4.95.56-.31.07-.44,1-.65,1.57-1.69-.12-2.2,1-1.93,2.29a2.58,2.58,0,0,0,1.63,1.64C1379,544.2,1380.12,543.69,1380,542Zm-157,22a10.25,10.25,0,0,1,2.41,0c3,.87,5.61,2.53,8.34,4,1.93.2,3.93-.48,5.78.53.4,1.16.81,2.32,1.25,3.59l3-.52v-6.82l-3-2.87h-17.29l-6.74-3.71h-8l-2.62,2.8v4.12l5.54,2.85H1219ZM956,458.45a9.34,9.34,0,0,0-2.49-.42c-3.61.72-7,2.58-10.81,2.3-.22,0-.46.43-.7.66v2c1.77,2.89,5.15,3.32,7.39,4.85h5.84c.37-.44.74-.68.74-.93C956,464.26,956,461.65,956,458.45ZM1367,518c1.46-6.16,1.47-8.53-.09-10.09l-2.72.49c.6,1.16,1,2.06,1.63,3.19l-5.63.8V518ZM961,474c1.32,2.43,4.6,1.76,6.12,3.88l.66-.66v-4.6a8.88,8.88,0,0,0-1.95-.6c-2.94,0-5.87,0-8.81,0-.22,0-.44.45-.65.69C957.69,474,957.69,474,961,474Zm310.88,47.82c-.4-2.16.61-3.64,2.07-4.87l-.68-.68-2.51-.37c-.69.91-1.64,2.16-2.8,3.71l.52,2.21ZM1329,518c1.42-1.35,1.46-2.69-.18-4.11l-3,.6c.29,1.39.52,2.5.74,3.51ZM807.36,473.56c-.41-1,2-2.59-.67-3.3C805.62,471.41,805.69,472.51,807.36,473.56Zm525.93,36.73L1332,511c.22.22.49.66.66.63A6.53,6.53,0,0,0,1334,511Z" transform="translate(-553.95 -344.11)"/><path class="cls-1" d="M2238,380h5l1.9,1.91c2.37.35,5.31-.11,8,.14l1.81-1.81h6.5l2.49-4.12h4.83l4-6.12h8.15c2.33-2.08,4.4-4.21,6.78-5.94,1.45-1.05,3.36-1.48,5.52-2.38.46,1.26.85,2.35,1.34,3.73,1.81,1.46,4.21.25,6.5.61l2.13,2H2309l2.15,2,2.22-.13,1.28-3.64h12.63l1.58,1.59h6.45c2.81.43,3.27,3,6.57,1.42l2.54-3.24h4l5.56-2.93,2.83-2.83,4.5-.48c1.42-1.52.35-3.28.8-4.81l5.61-3.22a45.87,45.87,0,0,1,.7-5c.08-.35,1.06-.48,1.63-.72v5l2.84,2.81,4.39.41L2379,356h5.08l11.5,11.49-3.2,1.18c.05,2.18-1.33,3.57-2.83,4.8-1.2,1-2.91.74-4.19,2.05-1.49,1.51-4.51-.45-6.15,2.12-.42.66-2.45.34-3.74.38-1.61.05-3.22,0-4.44,0a20.94,20.94,0,0,0-2.48,2.53,36.19,36.19,0,0,0-1.95,4.19c-1.06,2.14-.59,5-2.55,6.94-.16.16,0,.64,0,1a6.59,6.59,0,0,0,.05,2c.15.48.72.82,1.06,1.19l2.31-2,3.8,1.37-7.14,5.54c-.09,2-.15,3.31-.2,4.43l-3,2.84c-.67-1.39-1.28-2.63-1.93-4L2353,410h-14.86a3.25,3.25,0,0,0-1,0,3,3,0,0,0-.76.59c-1.38,2.29,1,5.3-1.4,7.39h-17c-.23-1.87.55-3.86-.7-5.77-2.31.19-.45,2.87-2.11,3.47l-5,.85c-.26,1.38-.44,2.27-.71,3.66-3.27-.78-6.47.69-9.47-1,.2-1.67-.59-3.32.84-5.16,2.73.43,4.32-1.31,5.12-4,1.71.38,1.88-1.68,5.21-2h1.84c1.69-1.31.64-3.11,1-4.62-.58-1.45-2.75-2.11-1.94-4.34l-7.6-6.94-1.34-.07c-2.53-1.33-.4-4.1-1.94-6.12a18.11,18.11,0,0,1-3.28-6.55c-.53-2.16-3.55-2.82-3.91-5.32a1.55,1.55,0,0,0-1.52-2c-1.34-.15-2.62.08-2.48,2h-5l-1.63,1.64a18.68,18.68,0,0,0-9.3,3.31c-3.67,2.38-8.45,3-10.91,7.05H2250c-3.79-2-3.79-2-8-2a7.17,7.17,0,0,1-2.67-.08c-.61-.27-.9-1.25-1.33-1.92Zm91.31-1.17c-1.08,2.61-1.3,3.95-2.07,4.82a17.67,17.67,0,0,1-3.13,2.5v5.2c1.21.44,2.58.6,3.46,1.34,1.07.9,2,1.64,3.16,1.33l3.08-2.29,5,2.71,5-5.85c-1-.35-2.37-.5-3.25-1.24-1.08-.89-2-1.68-3.61-1.27l-2.21,4.75c-.45-2.68-.76-4.51-1-6.29l-3.37-1.18C2330,382.18,2329.81,381.27,2329.31,378.83Z" transform="translate(-553.95 -344.11)"/><path class="cls-1" d="M3840,574v-2.94l6-3.06a1.7,1.7,0,0,0,2-2v-3c.93-1.18,2.48-1.65,3.27-.6,1.52,2,3.46,1.46,5.57,1.58l2.9-2.68c.14-1.4.29-3,.44-4.42l1.82-2.14v-5.43l2-2.62a35.13,35.13,0,0,0-.4-4c-.06-.33-1.06-.48-1.62-.71v-4c.23-.57.36-1.53.72-1.63a32.89,32.89,0,0,1,4.47-.54c1,1.33,2.12,2.92,2.92,4l3.07.15c.35,1,.7,2.16,1.14,3.27.11.28.45.48.68.71s.46.48.71.7c.47.44,1,1.3,1.44,1.23,3.57-.59,3.91,4.36,7.31,4.16.75-.05,1.56,1,2.69,1.77h5.45l2.42,2h7.87c1.87-.85,2.6-3.55,5.11-3.91v2.85l-2.12,2.63c.63,2.58,2.25,4.14,2.8,6.2,1.15.72,3.5-.3,3.32,2.32h-5l-3.72,3.82c-3.93.51-8.19-.11-11.76.26l-7.17,6.66c-.43,1.43-.7,2.31-1,3.19h-5.66l-8.71-4.41c-2.92-2-4.6-1.36-6.18-1.5-1.3-.11-2.62,0-3.81,0l-3,3v4l2,2.09v5h-4a14.23,14.23,0,0,1,0-2,1.62,1.62,0,0,0-1.52-2c-1.33-.15-2.65.06-2.5,2a7.17,7.17,0,0,0-2.67.08c-.61.27-.9,1.25-1.33,1.92h-3c-1.45-1.29-1.41-2.55-.1-4a4,4,0,0,0,1-2.47A1.49,1.49,0,0,0,3842,578c-.22-.55-.4-1.13-.67-1.65C3840.92,575.55,3840.45,574.78,3840,574Zm14.58.83c-4.83-.91-4.83-.87-6.24.52C3850.11,576.35,3851.89,576.35,3854.58,574.83Z" transform="translate(-553.95 -344.11)"/><path class="cls-1" d="M1488,512l2.06-3.54c-2.9-.85-5.84-.29-8.7-.47l-2.88,2.09c-.85-.26-1.61-.27-2-.65-1.49-1.5-3.25-2.8-4.74-5.21h9.49c.36-1.13.64-2,1-3.05L1478,499.1l2.75-2.87,4.54-.48c1.33-1.54.44-3.24.67-4.74l-1.86-2.09c1.35-1.63,3.13-.6,4.79-.95L1491,486h3.62l3.36,2h4a1.7,1.7,0,0,0,2-2h11.11a29.31,29.31,0,0,0,3.43,3.44,12.78,12.78,0,0,0,3.38,1.25c-.28,2.52-.25,2.55-1.92,4.32v12l-3.23,3h-12.93l-4.32,2.23-2.5-2.24-2.08,1.92Z" transform="translate(-553.95 -344.11)"/><path class="cls-1" d="M3812,460c2.11-.19,2.29,2.23,3.82,2.58q.21,3.74.38,6.73c3.89,2.59,6.09-1.51,9.14-1.65,1.46-2.08,4.19-3.1,4.7-6s3.68-3.14,5.75-4.42c1-2-.57-3-2.05-4.46v-4.43l-5.12-.56c-1.14-1.77,1.26-1.82,1.4-2.94a27.49,27.49,0,0,1,.55-2.73l4.1,2.33,3.15-3.37-1.81-2.12c2.9-2,6.31-.17,9.32-1.23,1.3-1,.41-2.46.67-3.69.53.2,1.51.38,1.52.59.06,2.18,2.17,3.39,2.48,5.41-1.22.25-2.66-.62-4.21,1.33l5.22,3.25-5,2.3c-.38,1.66.65,3.4-.68,4.78a2.57,2.57,0,0,1-3.43-.73c-1-1.16-2.13-1.26-3.86-.19.09.91.2,2,.33,3.45h11.27L3853,460h3v3.25l-4,3.52v6.33l-2,1.75v4.24c.63.54,1.36,1.18,2.21,1.9l-2.21,1.86V486l-1.85-.76V471.31l-2.84-3.07h-13.88l-9.22,4.66c-.1,1.12-.24,2.7-.39,4.34-1.38.73-1.78,2.86-3.82,2.76.07-2-2-2.43-2.78-3.8s-1.41-2.7-2.09-4.08c-.4-.81-1.25-1.81-1.05-2.47.92-2.92-3-4.29-2.09-7.11a14,14,0,0,0,.32-1.85Z" transform="translate(-553.95 -344.11)"/><path class="cls-1" d="M3884,460c-3.46,1.32-5.09,4.73-7.82,6.7-.59,2.47.5,5.09-1,7.46-2.38-2.4-.24-5.26-1.55-7.58-1-1.14-2.39-.35-3.6-.58-2.24-.14-2.79-2.51-4.43-3.37s-3.55-1-4.7-2.63H3856l-2-3.43V453l2-2.12V442h4v3l-1.94,2.08v3.29l2.87,5.6c3-1.3,2.85-4.83,4.85-6.91.66-.69.1-2.54.1-4.08-.35-.95-2.18-1.27-1.88-2.94a1.54,1.54,0,0,1,1.37-1.95A39.69,39.69,0,0,1,3870,440c0,1.17,0,2.34,0,4l4,0c.22.55.35,1.51.68,1.59,1.19.27,1.39-.62,1.32-1.59h2c.56.22,1.61.47,1.6.67-.13,3.23,1.86,5.77,2.79,8.64.12.36,1.05.47,1.61.69l-1.71,3Z" transform="translate(-553.95 -344.11)"/><path class="cls-1" d="M3824,636c-.8,1.66-1.59,3.32-2.65,5.51l-3.35,1.18c0,3.65,0,7.45,0,11.72,3.14-1.76,1.25-4.13,2.47-6,2.28-1.11,5-.06,7.51-.42a6,6,0,0,1,1.67.72c.95.81,1.78,1.75,2.91,2.9l-2.48,3.6c-.08,1.22-.18,2.78-.28,4.41-2.08-.18-2.67-1.77-3.75-2.65.62-.69,1.23-1.38,2.31-2.57l-4-.39c-.21,2.05-.37,3.61-.58,5.59-2.73.76-5.66.23-8.64.41l-2.09,1.9c-1.81-1.08-.74-2.89-1.26-5.45l-3.56-2.44H3803l-2.16,2-2.29-.17c-.18-.81-.85-2.08-.49-2.53,1.76-2.22,2.47-5,3.92-7.31l3.89-2.2h4.91l3.2-2.67V638a5,5,0,0,0,5.07-2Z" transform="translate(-553.95 -344.11)"/><path class="cls-1" d="M2288,400c-.56.23-1.48.33-1.62.72a8.93,8.93,0,0,0-.23,2.58l3.78,1.36c-.07,1-.13,1.91-.19,2.94l-3.15.65-.94,3.09c-1,1.72-3.26,2.79-6.36,3.93a37.85,37.85,0,0,1,6.06,1.18,30.61,30.61,0,0,1,4.8,2.84c-.25.87-.51,1.75-.83,2.83L2287,420h-3.85l-2.15-2h-6l-2.75-2.86c-.11-3.64-.11-3.64,1.71-6.09v-8l-1.75-2L2274,396h3l5.77-5.81h6.4c1.44,1.14.56,2.58.82,3.81v2c-.67.43-1.65.72-1.92,1.33A7.17,7.17,0,0,0,2288,400Z" transform="translate(-553.95 -344.11)"/><path class="cls-1" d="M3716,648h-2l-1.85-.76v-6.4l-4.11-2.45v-5.2c-1.34-2.29-3.73-.46-5.36-1.51a6,6,0,0,1-.65-1.7c-.08-2,0-4,0-6l-2-3.47V618h2.92c4.69,3.48,6.29,9.57,11.06,13-.84,2.28,2.15,3,2,5v12Z" transform="translate(-553.95 -344.11)"/><path class="cls-1" d="M1398,522l.79,2h6.52c2.58,0,5.17-.09,7.75,0,2.18.1,4.45-.61,6.65.59A4.92,4.92,0,0,1,1416,528l-3.43,2H1409l-2.12-2H1398c0-.31.07-.87,0-.89-2.78-.75-4.67-3.78-8-3.11v-2c1.25-1.86,2.13-3.19,2.69-4,2.18.06,3.46.17,3.31,2A1.7,1.7,0,0,0,1398,522Z" transform="translate(-553.95 -344.11)"/><path class="cls-1" d="M3866,612h-2.95c-3.27-1.57-2.48-5.76-5.22-7.12.65-3.12,2-4.67,4.62-4.91a1.56,1.56,0,0,0,1.55-2c1.19,1,4,5.32,4,6.36,0,2.54,0,5.09,0,7.64Z" transform="translate(-553.95 -344.11)"/><path class="cls-1" d="M3712,596v-2.89l2.8-3.11h5.2c-.16,2.1-2,2.82-3.29,4C3714.46,593.06,3714,596.32,3712,596Z" transform="translate(-553.95 -344.11)"/><path class="cls-1" d="M1390,500v-6h3c1.9,1.56.92,3.49.71,5.35C1392.64,500.6,1391.22,499.75,1390,500Z" transform="translate(-553.95 -344.11)"/><path class="cls-1" d="M1388,504h-4c.78-3.16,2.9-4.32,6-4-.22.55-.4,1.13-.67,1.65C1388.92,502.45,1388.45,503.22,1388,504Z" transform="translate(-553.95 -344.11)"/><path class="cls-1" d="M3856,442a7.17,7.17,0,0,1-2.67-.08c-.61-.27-.9-1.25-1.33-1.92a7,7,0,0,1,2.67.08C3855.28,440.35,3855.57,441.33,3856,442Z" transform="translate(-553.95 -344.11)"/><path class="cls-1" d="M3700,618a1.7,1.7,0,0,1-2-2v-2c.67.43,1.65.72,1.92,1.33A7.17,7.17,0,0,1,3700,618Z" transform="translate(-553.95 -344.11)"/><path class="cls-1" d="M3826,634a1.7,1.7,0,0,1-2,2A1.7,1.7,0,0,1,3826,634Z" transform="translate(-553.95 -344.11)"/><path class="cls-1" d="M3710,598a1.7,1.7,0,0,1,2-2A1.7,1.7,0,0,1,3710,598Z" transform="translate(-553.95 -344.11)"/><path class="cls-1" d="M1362,546h2c.07,1-.13,1.86-1.32,1.59C1362.35,547.51,1362.22,546.55,1362,546Z" transform="translate(-553.95 -344.11)"/><path class="cls-1" d="M1388,508v-2c1-.07,1.86.13,1.59,1.32C1389.51,507.65,1388.55,507.78,1388,508Z" transform="translate(-553.95 -344.11)"/><path class="cls-1" d="M2414,590c-.23-.56-.35-1.52-.71-1.62a29.22,29.22,0,0,0-4.11-.52c-3.24-1.48-3.37-5.37-5.18-8,0-3.55,5.29.08,4.44-3.68,2.06-.52,3.78.47,5.22-.81-.34-1.62-1.79-2.32-2.78-3.32h-4.59c-.93,1.21-2.12,2.76-3,4-1,0-1.44.14-1.6,0-3.08-3.22-7.92-4.08-10.36-7.86-3.9-.29-4-.19-9.59-3.53-1.32-.78-2.49-.33-3.71-.59,0-.65,0-1.3,0-2,0-1-.12-1.87-1.32-1.65-.32.06-.47,1-.69,1.6h-4a1.7,1.7,0,0,0-2-2c-2,0-2.84-2.67-5.13-2.19-.36.07-.91-.9-1.4-1.34-2.65-2.34-5.09-3.26-10.12-4.53-.86-.21-1.53-1.16-2.38-1.84a6,6,0,0,0-.8-.09c-1,0-2,0-2.92,0-1.26-.47-1.58-2.3-3.25-2v-4.8c-3.38-4.91-9.71-6.26-12.78-11.2h-2.4a21,21,0,0,0-1.2-3.29c-.22-.41-1.06-.48-1.62-.71a39.69,39.69,0,0,1,.05-4.63A1.54,1.54,0,0,1,2328,522h4c.72-1,1.85-2.69,3-4.3l2.78.95c.25,1.23.44,2.14.61,3,2.12.25,4.08,1.29,5.65-.74v-3.22c1.15-2.23,2-3.9,2.88-5.53.09-.16.61-.09,1.05-.15l5.07,2.51c.49-1.28.81-2.15,1.18-3.1l-3-3.27h-6.31l-1.7,1.7H2333l-2.75-2.1a10.48,10.48,0,0,1-2.47,1.42c-2.72.65-4.59,3.6-7.81,2.86.16-2-1.23-2-2.73-2l-2.19,1.84-4.33.43L2309,514l-1.88-4.07-2.25,2.08h-19.31l-7.3,4.1h-7.46c-.29.71-.53,1.28-.76,1.85-.78.45-1.55.92-2.35,1.33-.52.27-1.1.45-1.65.67-.25-1.22.61-2.65-.67-3.68l-11,5.66h-5.25l-2.14,2h-3c-.23-1.21.56-2.59-1-4-.94,1-2,2-3,3.08V526h-3l-2.15,2-2-.11c-3.55-2.91,2.58-4.23,1.14-6.72,2.26-3.31,5.52-5.33,9.94-7.18,3.64,0,8.29,0,12.94,0,.25,0,.49-.4.73-.62.12-.62.49-1.34.29-1.83a15.35,15.35,0,0,0-1.86-2.7c3.27-2,4.17-5.74,5.92-9a9.33,9.33,0,0,1,.83-1.64c.63-.77,1.39-1.43,2.13-2.17h6c1.21.86,2,2.68,4.25,1.87,1.33-2.31.87-4.82.49-7.32a8.87,8.87,0,0,1-5.79-3.79l3.48-1.16c1.41-2.12.05-4.49.79-6.48l-3.74-3.74c-.4-1.16-.79-2.32-1.27-3.72a11.37,11.37,0,0,0-2.81,1c-1.06.78-1.8,2-2.89,2.73a14,14,0,0,1-3.26,1.2c-.91,2.29.79,3.17,1.78,4.38-1.24,1.68-3,.68-5.42,1.13l-4.8,6c-3.07-.46-5.45.67-7.54-.87,1.19-1.95,2.54-3.57,5.08-3.63.25,0,.48-1.06.71-1.63,1.67.3,2-1.53,3.4-2.06h4.26c-.68-1.65-1.25-3.06-1.88-4.6l2.56-2.83-4.44-3.3c.2-1.25.29-1.87.39-2.53,2.1-1.4,4.47-.41,6.73-.68l1.69-1.75h6l1.76-1.76c2.58-1.38,4.68.06,6.82,1.18.45-1.15.89-2.3,1.66-4.28l3.65,5.35c1.39-3,2.22-5.47,4.85-6.84,3.51,1.65,7.42,2.61,11.15,4.07.19.07.53-.27.8-.41s.44-.63.39-.69c-1.15-1.21-2.33-2.37-3.64-3.68v-4.51c2.35-1.26,4.65-.52,7.11-.61.38,1.11.79,2.27,1.2,3.45,2.19.92,4.45.48,6.73.29,1.62-2.06.43-4.45.79-6.75l-9.68-5h-5c-1.33-1.64-3.24-2-4.95-2.73,0-.24-.09-.53,0-.69s.5-.66.7-.63a3.6,3.6,0,0,0,3.42-1.48,8.47,8.47,0,0,1,2.95-2.46c1.21-.43,2.71-.11,2.55-2.09h6.62c1.41-1.07,3.09-1.94,3.38-4h10.57l3.43-2c.57.24,1.62.45,1.63.71.11,2.6,1.85,4,3.54,5.17h11.95L2345,432h9.79a21,21,0,0,1,10.73-4.51L2367,426h4l2.08-1.94h10l5.7,5.7h7.17l5.68-2.36c.34-1.82.69-3.64,1-5.4H2412c.21.55.32,1.48.66,1.58,1.76.49,3.6,1.08,5.42-.63-.14-2-.23-4.16-.51-6.3,0-.28-1-.44-1.57-.65V400.81c4.16-2.53,4.5-8.48,9.77-10.93,1-.21,2.74.83,4-.65-.4-1.81-2-.93-3.27-1.61-1-.93-.15-3-1.83-4-1.29-.82-1-2.23-.05-3.26,1.67-1.06,4.05.95,5.21-1.49-1.2-1.1-2.58-2.15-1.53-4.18,1.07-.42,2.42-.63,3.3-1.39,1.08-.92,2-1.59,3-1.28l3.2,2.26,8.13-4.44h9.22l1.71-1.71h11.81l2.3-2H2475L2477,368h15.75l2.78,2.13c3.55-.81,4.2-3.35,5.1-5.9,3.68-.79,7.69.51,11.33-.73V360c.57-.24,1.55-.37,1.63-.72a45.31,45.31,0,0,0,.7-5h6.92c.36-1.16.64-2.05,1.15-3.71,1.14-1,2.89-2.51,5-4.35a38.33,38.33,0,0,0,4-.7c.56-.15,1-.89,1.43-1.36a11.15,11.15,0,0,1,5.5,1c4.36,2.21,8.53,5.1,14.12,5.49-3.49,2.08-6.51,3.59-10.12,3.87-.13,2.11,1.61,1.1,2.45,1.55a12.23,12.23,0,0,1,2.23,1.95c2.19.29,4.56-.76,6.66.71-.29,1.24-.29,1.24-11.16,1.44a15.73,15.73,0,0,1-.61,2.62c-.22.57-.91.94-1.2,1.5a22.24,22.24,0,0,0-1,2.48c.41.44.63.88.87.9,3.57.22,7.14.39,10.92.59.2,1,.39,1.91.61,3,2,2,5-.07,7.34,1,.25,1.11.45,2,.65,2.92.24.24.47.68.71.68,3.32.05,6.64,0,11,0,1.37-1.71,3.24-4,4.66-5.78h6.6l2.61,2.61v10c2.51,2.4,3-2.81,5.26-.67l1.9-4c2.22-.8,3,1.21,4.18,1.86h4c1.19-1.95,1.59-4.29,4.12-6h7.82l1.84-1.84c3.5-.27,7.07,0,10.48-.14,1,3.61-3.7.48-3,3.64,2.76,1.07,5.76-.16,8.44.54l1.92-1.92c3.22-.61,6.85.09,10.59-.42l1.22-3.39c2.25-.6,4.5-1.16,6.35,1.63h14.12l1.86,1.86h17.83L2687,376h15.84c.75.7,1.48,1.36,2.17,2h2l1.44-1.44c.26-.18.52-.52.78-.52,6.64,0,13.28,0,19.76,0l1.58,1.58a8.59,8.59,0,0,0,1.82.39c1,0,2.52.17,2.79-.31,1.73-3.14,6.13-.15,7.64-3.57h5.91L2751,372H2757c.68.64,1.41,1.3,2.16,2H2767l2.58,2.33,4-2.21c.2,1,.38,1.91.61,3l2.73,2.73h7.85c.76.7,1.49,1.36,2.27,2.06h9.87l2.23,2.06h5.9l1.49,1.5a6.36,6.36,0,0,0,5.43-.32c2.14-1.16,4.14-2.79,6.65-3.19a14,14,0,0,1,2.17,0l2.35,2c4.36,0,9,0,13.65,0,.26,0,.51-.34.77-.52.23-.9.43-1.82.73-2.7.09-.28.45-.48.69-.72,2.5,2,0,5.06,1.41,7.33a5.45,5.45,0,0,0,.68.53c1.16-1.13,2.17-2.57,4.09-1.69l2.87,5.5V403l5,5h2.37l1.08-5.63L2859,402l1.54,1.54c.26.17.53.48.79.48,4,0,7.94,0,11.71,0l5.9,5.9a62.44,62.44,0,0,0,9.39-.13l-2.13-2.77V397l2.52-2.74h5.63l2.67-2,4.62-.5c.19-.92.37-1.83.58-2.85l5.49-2.81H2915L2917,388H2925l2.2,2.06h11.24l7.1,3.77h12.71l3.76,2.5,3.34-2.26H2969l4.19,4h3.9l1.82,1.82h8l4,4h6.06l2.08-1.82h3.81L3005,400h8.21l1.31,3.84,4.48.27,2.3,2h17.78L3041,408h20l1.88,1.88h5.79l2.35,2.06H3081L3083,410h7.35l7.23,3.89h9l3.11,2.8c.32,1.34.54,2.24.77,3.2h5.88c1.71.69,2.38,2.86,4.54,2.07l2.11-2h22l1.84-1.84,4.28-.28,1.64-1.64h4.76c.2.86.4,1.76.64,2.79,4.55,2.33,4.55,2.33,6.73,6.89,2.27,0,4.66-.29,6.13,2.09,2.63-1.1,3.45,3.16,6.18,2,2.22-.92,3,2.23,5.16,2s4.6-.05,6.63-.05c1.44,1.43,2.61,2.61,3.75,3.75h6.94l.25-2.83c-2-2-5.76.59-7-2.92-2.62.94-3.51-3-6.11-2.15-.81-2.31-3.65-1.14-4.84-2.83v-2.35c4.27-1.8,9,.21,13.87-1.15l-1.81-3,2.69-.67,2.32,2.14h5.23l5.22,2.64c.21.6.63,1.76,1.09,3l4.63.54,3.52,7.58,5,.48v5c-1.05,1.2-3.08.34-4.2,1.95-.59.84-2.2,1-3.44,1.42v4l-2,2.25c.33,1.16,2.18,1.47,2.29,3-2.39.48-4.7-.92-7.36,2.51,3-1.18,5,.87,7.36-2.51a20.18,20.18,0,0,0,2.55.09l2.85,2.85c-1.34,1.75-3.78,1.67-5.31,3.41-1.38,1.56-3.66,2.33-5.94,3.68H3203L3201,460H3180.3l-3,3.92H3171l-2.22-1.84c-.32.77-.57,1.33-.8,1.9s-.45,1.14-.68,1.71c-3.68-.28-6.32,2.12-9.32,3.57.06.65.12,1.29.2,2.11l3.73,1.35v7.88l2.93,3.36H3171l2.17-1.94c3.55-.56,6,1.82,8.85,3-.23,2.23.69,4.58-.78,6.92l-2.16-1.74L3177,492h-1.55c-3.54.36-3.7,2.43-5.42,2.05h-7.81c-.92-1.81.62-3.87-1.1-6-2.23,0-4.78-.05-7.33,0-.55,0-1.07.52-1.53.76v4.5c.49.34.74.67,1,.68,2.93,0,5.85,0,9,0a8.26,8.26,0,0,0-1,2h-9.26l-5.93,3.05V510h-4.93l-2.14,2H3134l-2.06-.85v-6.21l-1.77-1.77c-.15-2.24-.63-4.5.49-7.06,3.84.86,6.72-2.86,10.71-2.44l2.75-2.92-3.81-1.37c-.18-1.51-.36-3.09-.54-4.61l-3.67-3.67c1-3.05-2-5.14-2.25-7.84L3136,471v-6c-2.47-1-1.3-4.38-3.55-5.54.13-2.65-2.67-4.1-2.6-7,.05-2-1.53-4-2.39-6-3.71-1-7.13-4.7-11.43-1.48v4.1l4,1.92c-.37,1.72.67,3.51-.88,4.83-2.25.1-4.52.64-7-.53V445c-2.44-1.89-2.31-4.94-4.56-6.55s-1.62-5.73-6.13-6.69h-4.63L3095,430c-7.13,0-14.43,0-21.73,0-.26,0-.52.32-2.44,1.58l-4.44,2.44c-2.11,0-4.77,0-7.43,0-.24,0-.47.44-.7.67-.24.91-.48,1.81-.68,2.58l-5.06,2.55h-7.65L3039,434h-4c-1.21.85-2,2.68-5,1.58l-2.86-3.75h-18.3l-1.7-1.7h-24.45c-.5,1.33-.94,2.48-1.36,3.61h-20.58l-1.65-1.65c-2.24-.05-4.52-.64-6.63.37-.53.53-1,1-1.49,1.49h-8.61l-3.07-3.89h-4.48c-1.37,2-1,5.17-4.29,5.46-.41-1.16-.82-2.31-1.31-3.65l-4.4,4.13h-13.12l-5.44,2.67-8,8c-.4,1.14-.79,2.28-1.17,3.37h-2.22l-3.19,6.21V462h-7.94l-3.9,2.25c-3.22-1.26-3.52-4.08-4.86-6.15l-2.18,2H2869c-2.12,1.3-2.94,3.38-3.61,5.69a44.22,44.22,0,0,0-4.66.65c-.35.08-.48,1.06-.72,1.63h-4a5,5,0,0,1-5.08-2H2844v-2.93c-1.5-2.14-4-2.87-6-4.26s-5.42.47-6.76-2.65h-8.52c-.29.72-.52,1.28-.74,1.84h-2.52l-4.39,2.52-4-4.55H2807l-2.12-2H2798c.1-2-2-2.43-2.72-3.78h-6.5l-1.63,1.63-4.54.35c-.59,1.45-1.05,2.58-1.52,3.71-.23-.17-.46-.35-.8-.59-.32-2.43-.83-4.93.51-7.21,1.14-.38,2.79.62,2.9-2.11H2773l-2.12,2c-3.66,0-7.29,0-10.81.28-.32-1.27-.18-2.82-1.93-1.46a17.45,17.45,0,0,0,1.93,1.46,20.46,20.46,0,0,0-.11,2.77l-5.4,2.66-1.21-3.45c-1.24-.49-2.79.27-3.17-1.48,1.85-1.31,5-.94,5.45-4.78H2746a2.6,2.6,0,0,0-1,0c-.28.12-.48.44-.78.74-.16,1.49-.33,3.05-.3,2.8l-4.56,6.3H2735l-2.16-1.73-1.63,1.63-4.26.47-2.32,1.75h-5.29c-2.08,2.31-6.13,2-7.35,5.45.49,1.76.49,1.76,2,2.55.3,1.66-1.51,2-2,3.34V471c-2.11,2.63-5.21,3.51-8,5-.26-1.89.6-3.92-.67-5.7-1.87-.17-3.76-1.09-5.43.75s-3.51,1-5.33.52l-1.5-1.5h-4L2685,472h-7.86c-.73.69-1.41,1.86-2.17,1.91a5,5,0,0,0-3.43,1.49c-.58.54-1.71.49-2.36.66l-2.8-2.36c-.81,2.88.3,5.64-1.06,8.13h-6.48l-3.72-3.72h-4l-2,1.82c-6.48.11-6.48.11-8.77,1.39l3.87,1.57c-3.06,3.06-6,6-9,8.93-.06.06-.44-.21-.68-.33-.4-1.15-.8-2.31-1.23-3.57l-3.2.51v6.76a4.79,4.79,0,0,0-1.93,1.11c-.32-1.27-.18-2.82-1.93-1.46a17.45,17.45,0,0,0,1.93,1.46,26.47,26.47,0,0,0-.11,3.45l4.93,3.57c-2,.36-3,.35-3.77.75a12.18,12.18,0,0,0-2.22,1.95H2617l-2.16-2H2609c-1.28-2.14-1.69-4.87-4.61-6.08h-13.46l-1.62-1.62c-5.44,0-11,0-16.54,0-.23,0-.46.43-.7.67l3.17,3.49c-4.34-1.67-6.42.64-9,1.47-1.46.46-3.26-.36-4.44,1.33-1,1.37-3.19.29-4.18,2.06-.32.58-1.66.58-2.36.79l-2.34-2.12-2,.18c-.28.54-.59,1.08-.82,1.64s-.38,1.17-.68,2.08H2535c-1,2-1.89,3.64-3,5.8V518a1.7,1.7,0,0,0-2,2l-3.7,2.14c-.91.21-2.64-.83-4,.54l-.86,3.44c-2.35-1.58-3,.91-4.59,1.88H2507l-2.26,2.13-2.36-.58c-1.13-1.88.82-4.23-1.56-5.41-2.25,2.13.67,5.66-1.93,7.69l-2.15-1.75L2496,532h-2.92c-1.62,1.47-3.35,2.84-3.49,5.33,0,.25-1,.45-1.59.67l-8,4.09h-6.52l-7.38,4.06h-30.84l-3.39,2.79c.44,1.77-.37,3.35.85,4.93,1.51,2,1.8,5.59,4.33,5.91,3.15.4,3.92,3.29,6.57,4.34H2447l2.09,1.71h5.43l3.88-2.17,2.64,2.26h13.9L2477,564H2481l2.08,2h5c.1,2-2,2.43-2.92,4.13h-12.21c-.8.8-1.19,1.43-1.76,1.69s-1.38-.07-1.88.23c-.82.48-1.4,1.4-2.23,1.86-.5.29-1.28.06-2,.06l-2.08-1.94H2459l-2.11,1.91c-1.45.08-2.76.1-4.06.23-.25,0-.47.44-.84.81.09.78.19,1.68.33,2.89h7.54L2466,581v3a1.7,1.7,0,0,0-2,2h-8l-4.41-2.3-4.75,4.24c-1.16-1.38-1.34-2.57-.12-3.62a3,3,0,0,0,1.12-3.53c-1.78-1.84-5.4.54-6.69-2.71-2.41,1.24-.2,3.68-1.75,5.27.22-.05-6.82-2-7.16-2.11l-.24-1.89c-.41-.45-.79-1.26-1.23-1.29-2.77-.19-4.85-3.43-8.19-1.63-1.37,1.87-.26,4.24-.59,6.48l2,2.13v3h-2.95c-1.68,1.18-.79,3-1.07,4.46-.19,1-.74,1.77-2,1.54-1.88.14-1.88-1.14-2-2.48A1.55,1.55,0,0,0,2414,590Zm51.77-52.56c.44,1.55.3,3.1,2.05,1.74A6,6,0,0,0,2466,538a12.54,12.54,0,0,0,0-1.94,14.58,14.58,0,0,0-.74-2.06c-2.41,0-4.95,0-7.49,0-.54,0-1.06.52-1.73.87.09.83.18,1.72.32,3.09A51.38,51.38,0,0,0,2465.77,537.44Zm390.46-110.88c-.44-1.55-.3-3.1-2.05-1.74A6,6,0,0,0,2856,426v3l2.05,2.19V435l1.92,2.17c.4,2.34-.94,4.77.93,6.77,1.17-1.7,3.24-1.71,4.87-2.67.18-1.54.36-3.11.52-4.54l8.58-8.59,2.2-.14,6.95-7.43c-.22-2.37.23-5.3-.24-8.69l-3.78.67V419l-5.85,3a30.12,30.12,0,0,0-3.87,0c-1.4.14-3.21-.91-4.07,1.07l1.65,2c-.42.4-.65.82-.89.82A72.6,72.6,0,0,0,2856.23,426.56ZM2414,550h4.52l5.48-3.17v-3.32l-2-3.51c0-1.33.07-2.66,0-4a6.77,6.77,0,0,0-.68-1.79l-4.54-.48-3.69-3.69h-3.8c-1.4-.86-2.18-2.78-4.29-2l-7,7v3l-3.58-2.08c-1.68.74-4.08-.8-6.45,1v6.27l-4.16,1.62,8,4c.51,1-.33,2.61,1.37,3l2-1.65h6l1.61,1.6c2.4.28,4.9.84,7.07-.47.23-1.14.41-2,.57-2.87,1.89-.49,3.48-.92,3.63,1.62-2.05,1.18-2.05,1.18-1.17,3.83C2415,553.09,2413.63,551.28,2414,550Zm-53-14H2353l-2.09-2h-4l-2.88,2.88c1.82,1.76,3.2,4,5.84,5.32h5.32L2357,544h3.88l2.2,2h2.06c.6-1.29,1.22-2.63,1.9-4.08.4.7,1,1.24,1,1.78,0,2.39,1.4,2.55,4.29,1.9.57-.85,1.66-2.5,2.24-3.38,3.2-.64,5.68.92,7.49-1.27v-8l-3-3c-3.14,0-6.44,0-9.73,0-.27,0-.53.32-.79.5l-1.19,3.44h-4.15C2362.4,534.64,2361.69,535.32,2361,536Zm95-151c-.9-1.35-2.34-.75-3.52-1.08a25.19,25.19,0,0,1-3.89-1.75h-6.94l-9.59,4.87,4.35,4.35a9.8,9.8,0,0,0,4.73,3c1.6.41,2.77,2.53,3.7,3.46h5.53L2456,395Zm22,140.29V521c-1.37-2.31-3.91-3-6-4.26-.33-1.55.7-3.33-.78-4.56l-2.71-.56c-.46-1.35-.86-2.5-1.24-3.62h-4.15a17.6,17.6,0,0,0-6.45-8,72.87,72.87,0,0,0-10.36-3.64c-.07.91-.55,2.35-.17,2.63,2.27,1.68,3.14,5.33,6.83,5a17.41,17.41,0,0,1,5.07,8.82c.13.48.88.79,1.33,1.16,1.55.3,3.35-.7,4.67,1.08l-4.22,2c3.12,2,6.57.2,9.64,1.42a2.38,2.38,0,0,1-.35,3.48c-.69-.6-1.38-1.19-2.07-1.8-1.31.79-1.26,1.93-.45,3.93,2.21-1.54,2.94.93,4.45,1.84l2.07-1.78C2474.31,525.4,2475.37,526.74,2478,525.31Zm-89.34,2.35,5.41-2.67c-.4-1.62.54-2.47,1.36-3.54a11.9,11.9,0,0,0,1.27-3.4h4.19c2.12,1.92,2.12,1.92,2.8,1.26,1-1.62-.78-4,1.84-5.56l4.61,2.3,5.85-3V511l-2.85-2.72h-6.37l-1.64,1.64-6.55.31-1.35,3.93-2.82-.47c-.38-2.08-.72-3.88-1.15-6.2l-3.42,6.71v9C2388.31,524.66,2387,525.79,2388.66,527.66Zm2.86-33c2.7,2.76,6.05,0,8.59,2.23,2.28,2,5.25,1.42,7.93.31-.3-2.5.64-4.83-.72-7-2.86,0-5.73,0-8.6,0-.24,0-.47.44-.54.51-.21,1.08-.39,2-.55,2.78ZM2434,525c6.19,1.46,8.53,1.47,10,0v-2.85c-3.18.86-5.6-1.35-8.53-2.1-.37-.09-1,.65-1.46,1Zm87.64-158.41c-2.13-1.19-4.44-.51-6.64-.53-1.54,0-3.24-.69-5,.86.18.92.39,2,.58,3.08,3.09,0,5.71,0,8.33,0,.25,0,.49-.37,1-.78C2519.9,368.2,2521.87,368.21,2521.64,366.59ZM2452.2,539.83c-.54-2.4.46-4.11-.92-5.57-2.42-.23-4.92-.83-7.26.6V536l2.69,4.08Zm379.11-148.56c1.68,2.8,2.62,4.52,4.88,4.73,1.84-.2,2.43-2,3.61-2.84-.6-1.09-1.58-2.12-1.72-3.26-.23-1.93-1.41-1.88-3.23-1.92ZM2476.6,536.88c-4.7-1-4.7-.93-6.29.43C2472.07,538.4,2473.84,538.31,2476.6,536.88Z" transform="translate(-553.95 -344.11)"/><path class="cls-1" d="M3270,446c-.55-.21-1.51-.34-1.57-.66a38.62,38.62,0,0,1-.5-4.36c1.88-1.65,2,.67,2.73.81h4.56c1.3-1.26.57-2.6.78-3.79h3.36l3.33,3.89c2,.34,3.7-.4,5.13.72-1,3.05-3.57,0-3.89.59-1.7,1.55-2.4,2.2-3.07,2.8Z" transform="translate(-553.95 -344.11)"/><path class="cls-1" d="M2238,374c-1.18-.2-2.49.48-4-1v-5c1.18.2,2.49-.48,4,1Z" transform="translate(-553.95 -344.11)"/><path class="cls-1" d="M1158,476.28v7.52h-13.39c-.23-.73-.5-1.6-.72-2.33,1.56-2.54,4.67-3.8,4.6-7C1152.62,472.13,1154.64,477,1158,476.28Z" transform="translate(-553.95 -344.11)"/><path class="cls-1" d="M1122,498.86c0-.68.08-1.33.12-2L1125,494h4l2.17,2h6.16c.28.83.58,1.71.91,2.65-1,1-1.87,2-2.93,3.12h-8Z" transform="translate(-553.95 -344.11)"/><path class="cls-1" d="M935,450c-1.26,1.24-1.49,1.67-1.73,1.67-3.56.05-7.12,0-10.67,0-1-1.54.37-1.38,1.07-1.7s1.65-.82,2.5-1.19,1.7-.7,2.49-1L931,450Z" transform="translate(-553.95 -344.11)"/><path class="cls-1" d="M1330,502c.12,2.45-1.9,1.78-3.18,2.18-1.23,2.25-1.59,5.22-4.82,5.82v-4.88l-1.88-2c.4-.35.81-1,1.24-1C1324.24,502,1327.12,502,1330,502Z" transform="translate(-553.95 -344.11)"/><path class="cls-1" d="M1340,494c-.78,3.16-2.9,4.32-6,4,.2-1.18-.48-2.49,1-4Z" transform="translate(-553.95 -344.11)"/><path class="cls-1" d="M1322,512a1.7,1.7,0,0,0-2,2h-4c.2-1.18-.48-2.49,1-4h5Z" transform="translate(-553.95 -344.11)"/><path class="cls-1" d="M1334,500c-.78.45-1.55.92-2.35,1.33-.52.27-1.1.45-1.65.67,0-1.17,0-2.34,0-4l4,0Z" transform="translate(-553.95 -344.11)"/><path class="cls-1" d="M2214,548h-2.53l-3.47,2c-1.72.38-1.88-1.69-3.21-1.91a68.29,68.29,0,0,1-8.2-.51l5.82-4.14c-2.55-2.79-5.55-.44-7.84-1.87-1.18-1.37,1.09-1.2,1-1.36.27-2.3.45-3.87.66-5.72l2.58-.63c1.51,3.27,3.28,6.14,6.41,7.91,1.47-1.4.41-3.16.76-4.71l2-2.15c.36-1.55-.7-3.32,1-4.85,1.23,3.09,3.74,5.59,3.33,9.21,2.32,2.52,3.31-.36,4.81-1.19C2218,540.58,2218,540.58,2214,548Z" transform="translate(-553.95 -344.11)"/><path class="cls-1" d="M2250,482h-10.92l-2.12,2c-2.62,0-5.26,0-7.89,0-.25,0-.48-.41-.9-.78v-2.77l4.09-.82,5.15-5.6c1.93.1,4.08-.59,5.45,2h6.25C2250.6,478.1,2249.74,480.12,2250,482Z" transform="translate(-553.95 -344.11)"/><path class="cls-1" d="M2247,510h-4l-2.95-3.08c1.11-.95,2.21-2.72,3.39-2.78,4-.19,4-3.57,5.44-6l2.48.14c1.36,2.34.18,4.65.81,6.63Z" transform="translate(-553.95 -344.11)"/><path class="cls-1" d="M592,426v-2c-.29-1.42.93-3.44-2-4.1L586.27,422c-2,.17-2.82-1.53-3.81-2.69-.74-.86-.86-2.24-1.23-3.33H570a1.7,1.7,0,0,0-2-2c-.32,0-.84.13-.94,0a28.61,28.61,0,0,0-7.06-6,1.7,1.7,0,0,0-2-2c.24-1.6-1.33-2-2-3s-2.24-1.4-2-3c0-.3-.12-.69,0-.87.55-.69,1.18-1.32,2-2.21l-2-.92c1-2.52,3.51-4.49,3.07-7.86L558,390c.38,2.67-.86,5.57.88,8H562c2.71-.22,1.51,2.32,2.73,3.8,3.17.52,6.77,0,10.32.25.24.24.64.45.68.71.17,1.28.24,2.57.39,4.31l7.48,3.55c.11.45.33,1.35.65,2.7l2.88,2.57,6.46.29c.22,1.1.41,2,.64,3.11l7.45,3.37c.44,1.57.89,3.17-1.68,3.34Z" transform="translate(-553.95 -344.11)"/><path class="cls-1" d="M622,448h-3.21c-1.83-2.6-3.75-5.31-5.7-8.09l-1.72,1.72c-1.29.17-1.43-.65-1.37-1.63,0-.33-.12-.89,0-1,2.44-1.26,4.91-2.45,7.53-3.74.5-1.2,1.09-2.61,2.05-4.93,0-.75-3.57-2.21-.53-4.3l2.87,2.87v4L620,435v7.91l2,2.1Z" transform="translate(-553.95 -344.11)"/><path class="cls-1" d="M604,434c-2.8-.46-3.61-3.34-6.14-4.95L600,428C603.16,428.78,604.32,430.9,604,434Z" transform="translate(-553.95 -344.11)"/><path class="cls-1" d="M3828,646h-3c-1.81-1.62-1-3.53-.52-5.88l4.6-.21,3.72-3.72h10.45L3844,638c-2.85.67-3.88,2.82-4.4,5.4-.24.2-.48.57-.72.57-2.6,0-5.21,0-7.41,0Z" transform="translate(-553.95 -344.11)"/><path class="cls-1" d="M3748,664c1.89.27,3.92-.63,5.44.5l-4.94,4.94C3747.37,667.92,3748.27,665.89,3748,664Z" transform="translate(-553.95 -344.11)"/><path class="cls-1" d="M1216,616c1.18-2,1.18-2,3.83-1.17C1219.09,617,1217.28,615.63,1216,616Z" transform="translate(-553.95 -344.11)"/><path class="cls-1" d="M1480.08,488.81c-.08,3.16-1.75,4.31-3,4.85-1.46.65-3,.86-4.18,2.56l-1.34-3.24,6.78-4.81Z" transform="translate(-553.95 -344.11)"/><path class="cls-1" d="M2424,587.93l3.61.26c0,2-1.66,2.51-2.41,3.63C2423,591.09,2424.38,589.28,2424,587.93Z" transform="translate(-553.95 -344.11)"/><path class="cls-1" d="M1342,502a1.7,1.7,0,0,1,2-2A1.7,1.7,0,0,1,1342,502Z" transform="translate(-553.95 -344.11)"/><path class="cls-1" d="M2385,399.92h-4.1c-.32-.32-.75-.55-.75-.79-.05-2.61,0-5.23,0-8.39l3.24-1.12,3.46-3.46h8.33c.81.86.81.86-2.79,4.46-.18.78-.38,1.68-.39,1.74C2389.27,395.3,2387.06,397.71,2385,399.92Z" transform="translate(-553.95 -344.11)"/><path class="cls-1" d="M841,488,839,490h-2c-2-1.65-.19-3.63-1.23-5.26,3.19-1.28,5.82-.52,8.38-.68,2.3-.14,4.61,0,6.23,0l7.21-3.84h11.31c1.38-1.49,2.41-2.86,4.68-1.76l.62,2.55-3.31,2.91h-3.34L861.87,490H851.09l-1.43-1.34A5.89,5.89,0,0,0,848,488C845.66,488,843.35,488,841,488Z" transform="translate(-553.95 -344.11)"/><path class="cls-1" d="M920.65,560.35a50.4,50.4,0,0,1-6.39-3.2c-1.61-1.11-3.64-2.55-4-4.2a12.27,12.27,0,0,0-2.17-4.12c-.3-.44,0-1.26,0-1.83.32-.32.55-.75.79-.76,3.94,0,7.88,0,12.3,0l2.68,2.49v8.53Z" transform="translate(-553.95 -344.11)"/><path class="cls-1" d="M876,592l.72,1.77,4.56.49c1.33,1.54.44,3.23.68,4.8-2,2-4.38.55-6.55.94a16.54,16.54,0,0,0-6.46,8c0,.11-.62,0-1,0-2.51-.3-5.12.57-7.67-.47.8-.79,3.32-1.77,5.51-2.14.07-1.19.14-2.43.24-4.08.75-2.3,4.48-3.23,4.21-6.6Z" transform="translate(-553.95 -344.11)"/><path class="cls-1" d="M960,538h2v2.53L960,544H947c-.94-1.3-2.69-1.94-3.08-4.08.55-2.55,3.34-3.6,5.05-6,1.38.17,3.12,0,4.43.67,1.12.57,2,1.43,3.42,1.51C958,536.15,958.34,538.29,960,538Z" transform="translate(-553.95 -344.11)"/><path class="cls-1" d="M900,618l-1.85-.76V594.76L900,594v8.76c2.39,2.9,2.69,7.67,7.8,7.61v4.82c-1.13,1.44-2.57.55-3.8.81.15-1.9-1.17-2.11-2.5-2a1.62,1.62,0,0,0-1.52,2A14.23,14.23,0,0,1,900,618Z" transform="translate(-553.95 -344.11)"/><path class="cls-1" d="M878,586a39.69,39.69,0,0,1,0,4.63,1.54,1.54,0,0,1-2,1.37,39.69,39.69,0,0,1,0-4.63A1.54,1.54,0,0,1,878,586Z" transform="translate(-553.95 -344.11)"/><path class="cls-1" d="M882.15,475c-1.64,1.31-2.74,1.38-3.91.29C879.07,473.12,880.34,473.71,882.15,475Z" transform="translate(-553.95 -344.11)"/><path class="cls-1" d="M999,537.42a10.45,10.45,0,0,1,.38,8.55l-3.18-2.51C995.57,540.09,998.16,539.62,999,537.42Z" transform="translate(-553.95 -344.11)"/><path class="cls-1" d="M1014,534c-1.18,2-1.18,2-3.83,1.17C1010.91,533,1012.72,534.37,1014,534Z" transform="translate(-553.95 -344.11)"/><path class="cls-1" d="M2680,602l-2.48,1.16.1.22a5.53,5.53,0,0,1-1.71.59c-6.23,0-12.46,0-18,0l-10-5a9.83,9.83,0,0,1,2.13-1c.91-.17,1.83-.11,1.51-1.45-.27-.21-.52-.56-.77-.57-3.61,0-7.21,0-10.82,0,.23-1.21-.57-2.59.67-3.68,1.81.94,3.57,2.13,5.79,1.68.12,0,5.39-3.84,5.54-4h4.81a17,17,0,0,0,1.9-1.75A16,16,0,0,0,2660,586c1.59,0,3.22.34,4.37-1.33.92-1.34,2.42-.42,3.52-.95.32,1.27.18,2.82,1.93,1.46a17.45,17.45,0,0,0-1.93-1.46,19.51,19.51,0,0,0,.11-2.67l5.25-2.81c3.79-.66,7.39.37,10.95-.8-.25-1.35-.42-2.25-.75-4-4.88,2.63-8.28-2.1-12.77-1.82-.19,0-.45-1.05-.68-1.61h2.93l2.11-2H2679l2.1,2h5.49l3.46,2c1.67-.3,2,1.52,3.34,2h13.23a65.61,65.61,0,0,0,6.06,3.5c1.11.49,2.53.26,3.79.48,1,.18,1.81.72,1.58,2-1.23.26-2.68-.63-4.2,1.32l4.68,3c-2.48,2.86-3.86,1.33-5.36-.2h-7.79l-2.24-2c-1.19,1.55-3.19,1.68-4.84,2.57a7.44,7.44,0,0,0,4,3.43c2.24.84,4.43,2.46,6.59,3.36s4.81,1.05,7,2.47c2.61,1.7,6,2.17,8.07,5v4l4.08,2-2,2.22v2a34.18,34.18,0,0,0-4.12,2.15A21.9,21.9,0,0,0,2719,614h-3v-2.91c-2.31-1.34-5.33-1.83-6-5.09h4.94l2.13,2c1.45-1.45,1.25-2.8-.21-4.1a2.32,2.32,0,0,1-.38-3.36l3.42-1.4-.86-1.21c-1.41.84-3.4-.92-4.84.87-.23,1.13-.41,2-.59,3a48.85,48.85,0,0,0-4.9.67c-.35.08-.48,1.06-.71,1.62h-3.76l-5.25-6.09h-10l-2.29-1.89c-.51,1.35-.95,2.49-1.42,3.73l-4.59.48Zm4.82-13.82c-1.14,1.16-1.46,2.46.25,3.68l2.07-1.81c1.74-.34,3.54.68,4.83-1v-3.95l-.81.82c-.74-1.51-1.47-3-2.19-4.5l-3.49,1.85,2.37,4.31Zm-13.1-4c.33,1.7.5,2.6.69,3.61h6.52l3.86-3.46A51.65,51.65,0,0,0,2671.72,584.22Zm23.92-4.82-2.41-3.55c-2.24.41-4-.54-5.19,1.1a53.35,53.35,0,0,0,5.44,3C2694.13,580.19,2695.16,579.53,2695.64,579.4Zm-30.22,11.77c4.83.91,4.83.87,6.24-.52C2669.89,589.65,2668.11,589.65,2665.42,591.17Z" transform="translate(-553.95 -344.11)"/><path class="cls-1" d="M2646,548h3l2.08,2h4l1.47-1.47c4.08-.37,4.08-.37,10.93,3.07l1.21-3.4,2.23-.16,4.21,4h3c2.78,1.43,5.91,2.34,7.89,5v2l5,5h6l2.15-2c2.85-.35,3.74,2.28,5.5,3.59A4,4,0,0,0,2710,564h8.92l2.11,2H2725c2.88,4,8.74,4.33,11,10.5V578h-3l-2.18-2h-3.44a62,62,0,0,0-6.06-3.49c-1.11-.49-2.52-.27-3.78-.48a2.24,2.24,0,0,1-2-1.89c2.39-.48,4.7.92,7.36-2.51-3,1.18-5-.87-7.36,2.51-1.84-.09-4.13-.09-6.47-.09l-2.11-2h-3.9l-2.11,2H2697l-2.1-2H2690l-5.68-2.73-1-2.81c-2.11-.94-3.93.32-5.22-1.29-.05-.66-.1-1.3-.16-2a52.69,52.69,0,0,0-5.49-3.1c-.64-.27-1.7.43-2.29.6-.26,1.27-.44,2.18-.64,3.13h-4.76l-1.92-1.92h-7.22l-7-3.68-2.46,2.9c1.91.91,4,1.91,6.05,2.89,1.77.84,3.34,1.86,3.7,4h-8a1.7,1.7,0,0,0-2-2c-.47-2.51-2.69-3.65-4.29-5.18s-5-1-5.24-4.3a16.49,16.49,0,0,1,1.79-.51A16.46,16.46,0,0,0,2646,548Z" transform="translate(-553.95 -344.11)"/><path class="cls-1" d="M2728,586H2731l2.12,2H2737c.74.68,1.61,2,2.14,1.88,2.34-.56,3,2.48,5.09,2.09a6.45,6.45,0,0,0,1.63-.79,16.71,16.71,0,0,0-7.82-6.26V580c2.73-.23,1.47,2.36,2.88,3.88l3.69.2,7.35,6.88v4.12c-.31.31-.54.74-.78.75-2.64,0-5.28,0-7.44,0-4.2-2.06-8.07-4-12-5.85C2729.94,589.15,2728.38,588.15,2728,586Z" transform="translate(-553.95 -344.11)"/><path class="cls-1" d="M2660,504l-3.12,1.82-2-1.71-1.72,1.72c-.62-.47-1.27-1-2.41-1.87h-6.34c-.2-1.19-.35-2.09-.48-2.9,1-1,1-1,6.83-1.06l2.25,1.92,2-4.29L2660,500Z" transform="translate(-553.95 -344.11)"/><path class="cls-1" d="M2568,550v-2.81l6.94-7.16H2581l2.83,2.83c-.35,1.21-2.2,1.52-1.86,3.14-2.15.2-6.75,2.22-9.11,4Z" transform="translate(-553.95 -344.11)"/><path class="cls-1" d="M2244,524h3l2.14-2h5.25l11-5.66c1.28,1,.42,2.46.67,3.68-1.93.93-4.35,1.43-5.68,2.91-1.88,2.08-4.66-.11-6.18,1.93-.39,1,.5,2.66-1.33,2.87l-2.09-1.63c-.54,1.47-.95,2.62-1.44,4l-2.67-2.3c-.75,3.43-3.2,6-3,9-1.66,3.75-6.11,3-7.62,6.27,4,1.19,4.2,1.44,5.34.53,2.72-2.17,6.26-2.77,8.91-4.91,1.27-1,2.51-.38,3.73-.64l-1.8,3.15V551.2c1.25,1.33,2.6.58,3.8.8a1.52,1.52,0,0,1-1.45,2c-3.18.13-6.37,0-9,0l-3.51,2c.2-3.09-3-1.43-4.14-3-2.26-3.2-6.15-4-9.72-5.72-.06-1.14-.13-2.41-.23-4.53l5.15-3.64-.57-.58,3.41-1.18c-.54-4,1.95-6.6,3.4-9.64.27-.55.47-1.13.7-1.69a7.17,7.17,0,0,0,2.67-.08C2243.28,525.65,2243.57,524.67,2244,524Z" transform="translate(-553.95 -344.11)"/><path class="cls-1" d="M2328,522a1.54,1.54,0,0,0-1.95,1.37A39.69,39.69,0,0,0,2326,528h-8.91l-2.13,2H2309c-1.37,2.44-4.73,1.79-6.25,4-3.69-1.39-6.22,3.6-10,1.73l-1.63-1.63h-12l-1.9-1.9H2272l-4.62-2.79-4.95,6.56h-4.9l-3.48,2c0-1.32-.07-2.65,0-4a6.77,6.77,0,0,1,.68-1.79l4.9-.52c.18-.93.37-1.83.58-2.91l2.73-2.73h3.68c1.52-.76,2.23-2.8,4.34-2.06l2.1,2H2277l2.11,2c3,.14,5.88-.25,8.43.25.73,1.55,0,3.11,1.65,3.61a6.76,6.76,0,0,1,1.41-1.37c2-1,.82-3.8,2.77-4.83,1.44-.76-.3-3.62,2.29-3.62,2.29,0,3.08-1.76,4.09-3.13l-2.65-2.88h-4l-2.07,1.88-2-1.79h-4c-1,1-1.92,2-2.93,2.9-1.21,1-1.93,2.67-3.52,3h-3.16c-2-1-2.8-3.63-5.29-4,.23-.57.47-1.14.76-1.85h7.46l7.3-4.1h19.31l2.25-2.08L2309,514l1.79-1.79,4.33-.43,2.19-1.84c1.5.06,2.89,0,2.73,2-.45.78-.92,1.55-1.33,2.35-.27.52-.45,1.1-.67,1.65-5,0-9.93,0-14.9,0-.24,0-.49.39-1.12.94.16.87.37,2,.57,3H2308c-.24.57-.45,1.62-.71,1.63-2.59.12-4,1.84-5.41,3.88.26.75.56,1.63.79,2.32,1.72.5,2.69-.15,3.74-1.13.6-.55,1.85-.35,2.62-.8,1.08-.62,1.59-2.18,3.38-1.87l2.91,1.68c1.3-1.77.42-3.81.68-5.71h3.08l1.92,2.19,1.92-2.19H2326A1.7,1.7,0,0,1,2328,522Z" transform="translate(-553.95 -344.11)"/><path class="cls-1" d="M2570,592h-4.93l-2.14-2H2558v-3l-2-2.15c0-.7.08-1.35.11-2,1.29-1.62,3.09-.59,4.77-.93L2563,580H2577l2.09,2h7v2c-1.84.2-3.76-.47-5.67.59-.16.79-.33,1.67-.52,2.62-1.87,1.71-4.2.44-6.36.8C2572,589,2570.33,589.93,2570,592Z" transform="translate(-553.95 -344.11)"/><path class="cls-1" d="M2656,564h9.09l1.85,4,2.39-2.14,2.61.82c-.45,1.4-2.27,1.71-1.94,3.33h-5.16l-3.08-3.72c-2.11-.27-3.64-.37-5.11-.71C2656.33,565.49,2656.21,564.54,2656,564Z" transform="translate(-553.95 -344.11)"/></g><path class="cls-2" d="M776,498c1.18-.2,2.49.49,3.77-.75v-4.11L778,490h4.93c1.8,1.13.82,2.93,1.1,4.55.88,3.63,5.24,2.83,7,5.45,1.61-2.57,3.91-2.08,6.15-1.8L800,501v3.94c-.66.7-1.32,1.41-2,2.11v3c-.55.22-1.13.4-1.65.67-.8.41-1.57.88-2.35,1.33-.23-1.21.57-2.59-.83-3.82h-6.63l-.33,1.25,4.61,6.78c2.39-.72,2.39-.72,3.18-2.21.67.43,1.65.72,1.92,1.33A7.17,7.17,0,0,1,796,518l-4,0c0,1.64,0,2.81,0,4h-3.16l-3.61-4H782c0-3.29,0-6.57,0-9.86a1.92,1.92,0,0,0-.32-1L776,503.35Z" transform="translate(-553.95 -344.11)"/><path class="cls-2" d="M720,460v-4h2c-.3,1.67,1.52,2,2,3.28.32,2.09-.87,4.48.75,6.53l4.65.46,1.34,3.82,3-.47c-.58-1.17-1-2.09-1.46-3,1.61-1.13,3.24-.49,5.07-.51.24.83.5,1.72.9,3.07l3.68,3.86v6l-2.9,2.9L737,480h-3l-4-2-4-2c-.2-.53-.38-1.51-.59-1.52-2.18-.06-3.39-2.17-5.41-2.48V462c.55-.22,1.51-.35,1.59-.68C721.86,460.13,721,459.93,720,460Z" transform="translate(-553.95 -344.11)"/><path class="cls-2" d="M758,498h-6.85c-1.38,2.29-1.89,5.33-5.15,6-.22-.56-.45-1.12-.67-1.67-1.61.31-2.64,2.74-4.73,1.27-.4-1.13-.8-2.26-1.14-3.2-2.87-2-4.14,3.38-7.1,1-.93-2.28-.06-4.89-.36-7.4,2-.25,2.82-1.79,3.82-3.2-1.89-1.13-1.94-2.93-1.82-4.8h3l2.16-2,2.07,4.2,2.78-.91v-4.17l2-2.18v-5a1.7,1.7,0,0,0,2-2c.53.2,1.51.38,1.52.59.06,2.18,2.17,3.39,2.48,5.41v2a4.94,4.94,0,0,0-3.92,3.58A1.7,1.7,0,0,0,750,488c1.83.19,3.75-.45,5.83.66l-1.73,2.71,3.41,1.13C758.45,494.25,757.81,496.17,758,498Zm-14-7c1.33,1.44,2.67,1.44,4,0C746.67,489.56,745.33,489.56,744,491Z" transform="translate(-553.95 -344.11)"/><path class="cls-2" d="M820,550l1.23-2.2c2.33,1,4.46,1.61,6.22,2.77s2.86,2.74,4.27,4.15c1.15,2.76-.5,4.84-2,7.43l2.21,3.11v3.8l-4,1.85V574l-1.84.74v8a11.07,11.07,0,0,1,1.76,2.85A11.52,11.52,0,0,1,828,589c1.37,1.65,2.78.81,4,1-.57,1-1.14,2-2,3.58a16.66,16.66,0,0,0,0,3,1.55,1.55,0,0,0,2,1.39v3.09l4.25,1.91L832,604.91V608a1.7,1.7,0,0,0-2,2c-.67.43-1.65.72-1.92,1.33A7.17,7.17,0,0,0,828,614h-3c-3.39-2.74,1.78-4.23.79-7.07l-3.58-1.69c-.83-1.92.31-3,1.73-4.08L822,599V586.86l-4.68-3.9,4.21-1.39c1.06-2.4.12-5,.16-7.46,1.27-.32,2.82-.18,1.46-1.93a17.45,17.45,0,0,0-1.46,1.93A20,20,0,0,0,819,574c-2.32-1.85,0-4.44-1.26-6.2,2.45-3,2.82-6.92,6.22-8.56v-4.31l-4-1.84Z" transform="translate(-553.95 -344.11)"/><path class="cls-2" d="M890,624c.2-1.18-.48-2.49,1-4h5v3c2.09,2.4,5.09,0,7.67,1.56l.42,2.69-3.65,1.27c0,1.77,1.77,2.29,2.56,3.49h2c2.19,2,.69,3.41-1,5,.43.35.84,1,1.29,1,2.62.15,5.25.15,7.88.26.24,0,.47.44.71.68-1.25,2.27-3.84.16-5.12,1.46s-2.66,1.62-4.58,2c-.54,2.82.07,5.78-.29,8.66L899,656h-6.27c-.23-.8-1-2-.65-2.5a21.55,21.55,0,0,0,2.45-5c.17-.56.89-.95,1.41-1.47v-5.9c.69-.73,2.09-1.75,1.94-2.1-1.22-2.76,3.63-3.41,1.84-6.44l-2.82-.91c-1.17-2.32-2.53-5-3.87-7.7Z" transform="translate(-553.95 -344.11)"/><path class="cls-2" d="M778,490h-4.88c-2.13-1.43-.85-3.44-.9-5.22l2.93-2.93a25.3,25.3,0,0,0,1.23,3.45c.22.4,1.06.48,1.62.7Z" transform="translate(-553.95 -344.11)"/><path class="cls-2" d="M872,624c-.24.57-.45,1.62-.71,1.63-2.59.12-4,1.85-5.36,3.81.09,1.2.17,2.5.34,3.79,0,.26.44.48.67.71l2.12-1.88,1.42,1.42c.26.17.52.49.78.5,3.31,0,6.61,0,10.13,0,.27,1,.52,1.9.86,3.14l3.75,1.77V642h-7.49l-5.19-6H865c-1.65-1.65-3.28-3.25-4.86-4.9-.18-.18-.09-.61-.12-.92,0-1.11,0-1.11,4-5.22V622h4c.43.67.72,1.65,1.33,1.92A7.17,7.17,0,0,0,872,624Z" transform="translate(-553.95 -344.11)"/><path class="cls-2" d="M840,518c-2.85,0-5.71-.08-8.56,0a1.52,1.52,0,0,0-1.44,2,1.7,1.7,0,0,0-2,2h-5c-2.15-1.51-.29-3.58-1.16-4.91,1.82-1.76,3.56-.74,4.43-.94,3.44-2.17,6.93-3.21,8.56-6.17,1.82,0,3.08,0,3.15,1.93C838.11,514.1,841,515.42,840,518Z" transform="translate(-553.95 -344.11)"/><path class="cls-2" d="M846.48,521.57c-1.17-2.05.17-3,1.16-4.31a11.25,11.25,0,0,0,1.19-3.26h4.43c.35,1.07.73,2.22,1.19,3.65l3.08.6.53,3.1c-2.9,1.26-5.51.44-8,.6C848.81,522,847.42,522.49,846.48,521.57Z" transform="translate(-553.95 -344.11)"/><path class="cls-2" d="M880,646.75c2.53-1.44,3.51-.09,4.79.89a11.05,11.05,0,0,0,3.24,1.19v4.29c-2.32,1.47-4.84.84-7.3.62C879.33,651.58,880.26,649.27,880,646.75Z" transform="translate(-553.95 -344.11)"/><path class="cls-2" d="M886,642a1.54,1.54,0,0,0,2-1.37,39.69,39.69,0,0,0,0-4.63c.33,0,.89-.12,1,0,1.17,2.16,2.27,4.36,3.4,6.55-1.28,1.47-2.33,2.66-3.09,3.55l-2.6-.43C885.38,644.67,886.25,643.23,886,642Z" transform="translate(-553.95 -344.11)"/><path class="cls-2" d="M862,618v2h-2.92c-1.56-1.27-1.5-2.59-.26-3.83Z" transform="translate(-553.95 -344.11)"/><path class="cls-2" d="M862,620a1.7,1.7,0,0,1,2,2A1.7,1.7,0,0,1,862,620Z" transform="translate(-553.95 -344.11)"/><path class="cls-1" d="M752,538c.14-2.89.14-2.89,2-5.08V528h2.89l2,1.89c2.14-1.63.66-3.94,1.07-5.89h3l2.13,2H769c1.59,2,4,3.29,5.07,5.56-.28.84-.3,1.71-.69,1.93-.77.44-1.93.28-2.6.79a36.7,36.7,0,0,0-3.52,3.43L764.37,536c-2.8.07-3.54,2.72-5.33,4-2,.7-2.9-1-4.09-2Z" transform="translate(-553.95 -344.11)"/></g></svg>