<svg xmlns="http://www.w3.org/2000/svg" viewBox="0 0 4320 2160"><defs><style>.cls-1{fill:#024861;}</style></defs><g id="Layer_23" data-name="Layer 23"><g id="Dfd"><path class="cls-1" d="M3774,226a1.52,1.52,0,0,0,1.44,1.95c2.85.13,5.71.05,8.56.05l2.11,3.93-2.52,5,4.21,1.9.71,3.17h6.65l2.84,6c-8.09,0-8.09,0-10,1.76h10.61l2.68,2.35h7.55c1.22,1.1,2.2,2,3.18,2.84l-2.9,2.9c-1,.41-2.64-.49-2.86,1.33l1.76,2.27c-4.14,1.43-8.23-.41-12,1.23,2,3.42,5.43,4.1,8.56,5.32,2.12-.89,2.8-3.68,5.34-4v3c3.27,2.27,7.53,2.83,10.25,6.16a17.34,17.34,0,0,1,2.11,4.07c.66,1.39,2.22,2.36,3.35,3.55.09.09-.08.44-.14.67l-3.45,1.23,2,3.14h-5.18l-2.18-1.82c-2.31.41-4.73-1-6.85,1.15a23.07,23.07,0,0,1,3.42,1.25c.42.23.49,1.07.72,1.63v7c.89.94.89.94,1.24,3a20.4,20.4,0,0,0-2.93,0c-2.14.32-2.86-2.82-5.15-2-1-2.29-2-4.59-4.31-6-2.2-.33-4.58.82-6.77-.85l1.82-2.13-1.85-2,1.88-2.07L3795,280h-3.9l-2.18-2c-2.22-.28-4.58.75-6.67-.69l-1.05-3.4c-4.38,0-8.35,0-12.32,0-.23,0-.47-.44-.87-.85l4.09-2a15.69,15.69,0,0,0-.76-2.63c-.27-.57-1.11-.88-1.32-1.45a11.08,11.08,0,0,1-.41-2.53c-3.11-1.4-5.15.42-7.82,1.79h-5.5c-.11,1.12-.2,2-.29,2.86,1.52.78,3.32,1.16,4.14,2.27,1,1.31,3.54-.59,3.47,2.45-2.87.47-5.82,0-8.64.24l-2.32,2.09-2.54-.78c-.06-.89-.1-1.54-.15-2.26l4-4.16c-1.31-1.66-3.1-.64-4.74-1l-2.55,2.26h-5.45l-4,5.87-2.27-1.95-2.38,2h-5.81c-.3.72-.53,1.28-.76,1.85h-2c-.29-.65-.59-1.3-.79-1.74L3720,278a1.7,1.7,0,0,1-2-2c2,.08,2.8-2.8,5.07-2.07.68-1.24,2.69-1.58,2.53-3.51l-6.75-1.18a32.87,32.87,0,0,0,4.43-1.61c.41-.22.49-1.07.72-1.63,2,.16,2-1.23,2-2.73l-2.17-2.58v-8.06l-3.74-1.31c0-.86-.08-1.51-.14-2.54l3.64-1.17.6-2.92,3.18-1.08c1.45-3.45,2.59-7.08,5.62-9.61h3c2.15-.85,3.88-2.86,6.65-2.09.71.2,1.57-.77,1.35-1.91a1.7,1.7,0,0,0,2-2h15.19c.89-1.62,2.92-2,2.81-4a5,5,0,0,1,5.07,2Zm5.24,5.87c-1.85,2-4.13,3.39-5.3,5.65.83,2.45-1.36,4-1.49,6.27h7.06c.2-.86.42-1.75.53-2.23-.95-1.68-1.71-3-2.73-4.79l5.48-4Z" transform="translate(-3502.24 -221.95)"/><path class="cls-1" d="M3624.11,300.28A20.13,20.13,0,0,0,3624,303c-4.36,1.36-4.36,1.36-11-2.95h-3.88L3607,298H3603l-2.09-1.94h-10l-1.81,1.81h-8.2c-1.5,3-4.3,1.53-6.23,2.48s-3.76,2.21-6,3.57h-5l-7.19,4.11H3553l-2.53,2.26c-.34-2.19-.63-4-.94-6l-3.06-.19c-.23,1-.44,1.92-.63,2.72l2.08,2.29c-1.86,2-5.49-.38-6.81,2.86h-6.47c-.27-.94-.61-2.07-.95-3.22-1.37-1.43-3.13-.37-4.68-.72-.71.67-1.43,1.34-2.12,2h-6.2c-1.34-3.26-4.81-4.19-7.53-5.44a24.81,24.81,0,0,1-6.12-4.45c-1.46-.91-3.87,1.42-4.84-1.32.32-.31.56-.73.8-.73,4.32,0,8.64,0,13,0v1.72l3,4.78,2.81-1.28c.29-1.25.5-2.13.76-3.26h5.84c2.41-2.06,4.13-3.53,5.69-4.88V291l1.84-2.14c-1.73-.89-3.36-1.71-5-2.56L3528,288c-.78-1.63-1.55-3.27-2.25-4.75l2.95-2.95c2.41-.85,4.79.44,7.32-1.17-.16-.95-.37-2.08-.51-2.88l-3.11-.64c-.48-1.45-.85-2.58-1.17-3.56h-3.56l-5.47,2.8c-.2,1-.39,1.89-.67,3.25l-3.53-.63V274c-.33-1.62,1.5-1.93,2-3.51l-5.7-.92c-.07-1-.15-1.87-.23-2.9,3.09-1.78,6.62.45,9.62-1.32l-4-7.91L3523,254H3529c1.63-1.76.58-3.51,1.13-5.46l5.63-1c.12-2.21.23-4.45.37-7.1l5.63-.88c.12-2.33.23-4.57.33-6.48L3545,230h4l2.26-2.05h7.1L3564,225v-2c.52-.35,1-1,1.54-1,1.57,0,3.31-.62,4.55,1s3.06.65,4.68,1l2.26-2h13.61l6.85,4H3607l1.79,1.79H3617c1,2,1.87,3.61,3,5.84v5.54a12.93,12.93,0,0,1,3.35,1.23c1.06.76,1.83,1.89,3.57,1.48l2.11-1.87H3635L3637,242h5a1.56,1.56,0,0,1-1.57,2,28.51,28.51,0,0,1-3.43,0l-1.78,1.78c-4.22.22-8.44.43-12.65.68-.16,0-.29.44-.46.72l3.7,1.79a20.63,20.63,0,0,0-1.78,2.53,15.51,15.51,0,0,0-.8,2.51H3619c-1.13,1.51-3.35,2.31-2.87,5.58,3.06-.44,4.26,3,6.69,3.94,3.28,1.25,5.84,3.21,7,6s3.54,4.43,5.35,6.39c1.71.34,3.5-.68,5.09,1.4l-6.38,1.24c.47,2-.59,3.74.92,5.23h12.42c1.78-2.51,4-2,6.22-1.37.4,1.15.81,2.3,1.31,3.71,3-.59,5.9.39,8.62-.46l2.47-2.7a30.72,30.72,0,0,1,.52-4.28c.1-.36,1.06-.49,1.63-.72l1.93.77v8.16L3678,295c-.12,1.92-.19,4.11-.44,6.28,0,.29-1,.46-1.6.68h-4.31l-5.48,2.85-.66,2.57c-2,2.18-4.35,3.93-5.44,5.68-.45,4,3.37,1.88,3.73,4.1l-5.66,2.74c5.58.08,9.14.05,12.35.06l4.07-2.34,2.45,2.29h4c1.71-1.69,3.36-3.31,5-5,.16-.17,0-.64,0-1,3.79,2,3.79,2,7.69,1.94.62.89,1.17,1.95,1.75,2,1.46,0,3.15.71,4.46-.79-1.65-2.13-4-.73-6.21-1.18.45-1.82-.83-1.82-2.17-2a1.55,1.55,0,0,1-1.52-2h7.16l2.45-3.12-1.5-1.94L3700,306h2.53l3.47-2c.26,1.9-.62,3.93.67,5.7,4.4-.24,7.51,2.79,11.21,4.3h3c.95,1.58,1.91,3.15,2.85,4.73s-.91,4,1.66,5.38l2.35-.66c.26-1.2.46-2.11.75-3.48l3.84.54-2.27,2.55c.24.24.47.67.71.68,4.23,0,8.46,0,12.46,0L3745,322c3.17,0,6.47,0,9.78,0,.26,0,.51.35.77.53l1.18,3.43h2.18l2.17,2H3781l2.09-1.91h6l1.83,1.83h7.88c3.14,2.36,3.61,5.69,5.16,8.38.16.28-.52,1.05-.82,1.6l-4.55.28-1.3,3.79c-2.48.33-4.83-.62-7.08.78v3.37l4.4,5.75c3.48.18,6.09.3,8.71.48.25,0,.48.43.7.65v3h-3.25c-.36,1.08-.75,2.24-1.31,3.89l-4.46.2-2.09,1.85h-33.95l-3.81-3.81-4-.2-4.47-4c-3.13.19-3.87,2.89-5.74,4h-10c-1.25-2.85-3.46-5.35-2.93-9l-3-1.54-3,6.55c-2.36-3.32-3.48-4.87-4.26-6H3703c-1-2.34-1.95-4.66-4.31-6-2.44-.94-3.36,3.47-6.37,1.48-.13-.63-.31-1.53-.52-2.58l-1.67-1.07-3.88,2.17c-2.08.27-2.54-1.86-4.25-2.61v-6.56a9,9,0,0,0-2.06-.8c-1.32-.1-2.65,0-4,0a4.91,4.91,0,0,0-4-4c0-.33.13-.86,0-.95a7.16,7.16,0,0,0-8,0c-.15.09,0,.62,0,.95h-2c-.23-.57-.36-1.54-.72-1.63a35.59,35.59,0,0,0-4.71-.56l-4.53-6.48c0,.76,0-.52-.14-2.79l-3.41-2.61h-5.56l-1.62-1.62-4.65-.55-1.36-3.52-4.91-.53c-.19-.94-.38-1.85-.62-3.06l-3.56-1.24c.51-.93,1-1.82,1.5-2.71-1-1.33-2.48-.44-3.6-.42-.32-1.27-.18-2.82-1.93-1.46A17.45,17.45,0,0,0,3624.11,300.28Zm108.12,50.28c-.44-1.55-.3-3.1-2.05-1.74A6,6,0,0,0,3732,350c.2,1.84-.48,3.76.86,6.11,1.41-.82,3.25.79,4.9-.86.08-.62.16-1.22.33-2.49l-3.61-2.76A3.63,3.63,0,0,0,3732.23,350.56Zm41.95-17.1c3,1.11,5.34-.22,7.44,1.15.38,1.15.75,2.3,1.11,3.38h4.19a6.81,6.81,0,0,1,1.41-1.28c1.07-.55,2.23-.94,3.5-1.45v-2.45c-.41-.37-.65-.78-.89-.78-3.27,0-6.54,0-9.86,0l-2.1-2c-1.51.31-3.21-.64-4.8.78Z" transform="translate(-3502.24 -221.95)"/><path class="cls-1" d="M3506,284h8.81l2.09,1.83,4.35.42c1.29,1.19.53,2.55.75,3.75H3515c-.59,1.29-1.21,2.65-1.83,4h-2.18c-2-2.61-1.46-5,1.17-7.05-3.38-2.1-6.86.24-9.84-1.62C3502.84,283,3504.78,284.43,3506,284Z" transform="translate(-3502.24 -221.95)"/><path class="cls-1" d="M3686,312h-4.73c-1.28-1.21-2.95-2-3.35-4.1-.26-1.38-1.25-2.61-1.92-3.9h3.05l1.75-3.88,2.09-.13,3.11,2.95V312Z" transform="translate(-3502.24 -221.95)"/><path class="cls-1" d="M3514,274a7.53,7.53,0,0,0-1.65.68c-2.36,1.71-2.34,1.71-4.7,0A7.53,7.53,0,0,0,3506,274c0-.33-.13-.86,0-.95a7.16,7.16,0,0,1,8,0C3514.13,273.14,3514,273.67,3514,274Z" transform="translate(-3502.24 -221.95)"/><path class="cls-1" d="M3524,292c0,1.17,0,2.34,0,4l-4,0c0-1.17,0-2.34,0-4Z" transform="translate(-3502.24 -221.95)"/><path class="cls-1" d="M3888,316c.57.23,1.53.36,1.63.72a30.72,30.72,0,0,1,.52,4.28l2.57,2.81,6.44.35a7.49,7.49,0,0,1,.67.68c-1.18,1.43-2.45,2.8-2,4.53-3.09,2.07-4.05-2.19-7.23-1l-2.42,3.64h-11c-.23-.19-.61-.35-.69-.61-.3-.87-.49-1.78-.73-2.71-1-1.28-2.46-.41-3.68-.66-.39-2.44-2.85-3.27-4-5.13,0-3.23,0-6.46,0-9.69,0-.24.35-.49.87-1.18H3880c.43.67.72,1.65,1.33,1.92a7,7,0,0,0,2.67.08c.43.67.72,1.65,1.33,1.92A7,7,0,0,0,3888,316Z" transform="translate(-3502.24 -221.95)"/><path class="cls-1" d="M3890,286c-.33,1.62,1.49,1.93,1.86,3.07l-2.1,2.46,6,.89c-.34.67-.51,1.47-.81,1.52a17.28,17.28,0,0,1-3,.06H3869l-2.69-2.84s5-1.84,6.61-2.25c-4.66-1.1-8.55-1.91-12.13-4.92h-8.29c-.23-1.18-.41-2.08-.61-3.08-5.44-2.76-6-3.31-8.84-8.91h-6.42l-.62-3c.61-.57.85-1,1.09-1,4,0,7.92,0,11.88,0l2.14-2H3866c.56-.23,1.41-.31,1.64-.72a27.49,27.49,0,0,0,1.39-3.81l10.94,5.45v5.6l2,3.48c.57,3.25,3.68,3.68,5.84,5.16-1.54,1.44-3,2.85-.83,4.84Zm-24.16-13.17c.2,1.08.37,2,.57,3h4.77l2.8-2.8c.07-1.29.3-2.64-1.43-3-1.54-.34-2.22.91-3.25,1.58A15.3,15.3,0,0,1,3865.84,272.83Zm-3.48,1.46c-.4-2.2-.56-3.08-.73-4-1.88.31-2.48,1.85-4.09,3.08Zm17.24,16.29c-1.7.34-3.76-1.73-5.6.55C3876.07,292.4,3877.84,292.31,3879.6,290.58Z" transform="translate(-3502.24 -221.95)"/><path class="cls-1" d="M3810,263.54c2.64-1.44,2.64-1.44,5.92-.68C3814.25,265,3811.94,263.61,3810,263.54Z" transform="translate(-3502.24 -221.95)"/><path class="cls-1" d="M3835,262c1.44,1.33,1.44,2.67,0,4C3833.56,264.67,3833.56,263.33,3835,262Z" transform="translate(-3502.24 -221.95)"/></g></g></svg>