<svg xmlns="http://www.w3.org/2000/svg" viewBox="0 0 4320 2160"><defs><style>.cls-1{fill:#ff00fe;}</style></defs><g id="Layer_10" data-name="Layer 10"><g id="Dsa"><path class="cls-1" d="M2692,610c.7,2.88,2.95,3.87,5.89,4.59.31,4.76-.09,9.66.24,14.77l2.92.91c.91,3.65,5,5.72,6,9.73h3.08l5.52,2.66L2719,646h8c1.77,1.71.37,3.51,1.5,5.53l3.18,3.18c.15,1.36.32,2.92.49,4.49L2738,662h2v2c0,1.17,0,2.34,0,4l-4,0a1.7,1.7,0,0,0-2,2h-5.23l-3.48-4H2718v-4.24c-1.93-4.08-3.81-7.47-7.3-9.78h-4.12c-.32-1.78-.65-3.61-1-5.79l-6.68-.33c-2.1-2.16.28-5.17-1.4-7.41-.6-.15-1.29-.56-1.78-.39a14.5,14.5,0,0,0-2.69,1.65l-2-1.6h-5.66l-2.34-2.05h-3.81L2677,634h-4l-2.81-2.84c-.15-1.55-.3-3.12-.46-4.83l-4.93-.54-1.6-1.6h-11.65l-2.56-2.05h-5.91c-.47.4-1.21,1-2.09,1.78h-3.74L2635,626h-3.85l-2.22,2h-11.27l-8,4.21-2.66-2.07h-9.51l-2.36-1.95c-.51-.06-1.3-.41-1.76-.16-2.2,1.17-4.31,2.51-6.72,4H2582c0-1.31-.06-2.63,0-3.94a8.88,8.88,0,0,1,.73-2h6.2l3.81-3.81,2.67-.68c1.41-3.43,2.55-7,5.55-9.54h3.92l2.13-2h2.73c1.07,1.82-.7,4,.9,5.68l3.47,1.18-3.4,3.4h-4.29c-.41,2.21-1.25,4.13.56,5.74H2615l2.18-2H2621l2.16-1.92c1.68-.34,3.48.69,4.8-1l-2-2.15,4.55-2.13c-2.89-1.52-5.72,0-8-1.3-1.55-2.25.82-5.25-1.43-7.43h-4l-2.08,2h-5.19c-.25-2.11,4.62-3,1.46-5.77a42.66,42.66,0,0,1-4.54-.63c-.34-.08-.47-1-.69-1.6,2-3.79,2-3.79,2-8,7.26,0,14.53,0,21.79,0a6.91,6.91,0,0,0,1.76-.52l1.55-1.56c1.37.59,3.1-.63,4.39.56,1,1.24-.18,3.75,2.51,3.54,3.61,0,7.21,0,10.82,0,.25,0,.5.36.77.57.32,1.34-.6,1.28-1.51,1.45a9.83,9.83,0,0,0-2.13,1l10,5c5.52,0,11.75,0,18,0a5.53,5.53,0,0,0,1.71-.59l-.1-.22L2680,602h2c.43.67.72,1.65,1.33,1.92a7,7,0,0,0,2.67.08,1.7,1.7,0,0,0,2,2c0,1.17,0,2.34,0,4Zm-5.55,10.12c2.08-.44,3.78.51,5.19-.75.19-2.79-2.91-.24-3.31-2l-1.07-3.34H2683l-2.74,2.9c-.1,2.3-.87,4.83.73,7.12,1.61-.35,3.32.63,4.71-.65Z" transform="translate(-2581.98 -562)"/><path class="cls-1" d="M3014,572h-3.24c-1.41,4.14-7.43,3.29-8.94,8.34l2,2.73-1.87,2V590h-2a7.17,7.17,0,0,0-.08-2.67c-.27-.61-1.25-.9-1.92-1.33l-3.46-2h-7.08l-3.46,2c-2-.31-3.23-2.42-5.41-2.48-.21,0-.39-1-.59-1.52v-2c.23-.56.36-1.54.71-1.62a28.34,28.34,0,0,1,3.47-.5l7.84-7.8c-.15-.81,0-2.27-2-2.08.23-.56.36-1.53.7-1.61a39.24,39.24,0,0,1,4.54-.63c1.36-1.13.52-2.54.76-3.76,2-.1,2.4,2,3.79,2.71.16,1.57.32,3.12.46,4.54,1.15,1.32,2.54.52,3.64.47.32,1.27.18,2.82,1.93,1.46a17.45,17.45,0,0,0-1.93-1.46c.45-1.79,2.06-2.74,3.62-3.74,1.95.78,4.06,1.28,5.73,2.42C3012.4,569.19,3014.09,570.05,3014,572Z" transform="translate(-2581.98 -562)"/><path class="cls-1" d="M2982,670c1.59,0,3.22-.34,4.37,1.33.92,1.34,2.42.42,3.63.67v10.21l-3.58-2.2c-2.23-.63-2.81,2.9-5.13,2l-9.33,8.91,6,3.09h5c1.67,1.35.81,2.78,1.06,4-.22.55-.29,1.42-.67,1.59-1.37.6-2.86.66-4,2-.68.75-2.15.79-3.43,1.21v8.51L2974,712h-9.81v-3.2c1.47-1.5,3.21-.45,4.76-.81,1.88-1.72,3.6-3.61,5.22-5.15l-.81-2.8L2971,701.8h-4.29c-1.25-1.13-.39-3.13-2-4.24-.83-.57-.95-2.16-1.48-3.51l-2.12,1.74h-8.42c-.29-.45-.61-.84-.56-.89,1.13-1.2,2.3-2.35,3.48-3.53.17-1.29-.65-1.43-1.63-1.37a1.7,1.7,0,0,0-2-2c0-1.17,0-2.34,0-3.79-2.37.6-3.83,2.46-6,1.79-.22-.55-.35-1.51-.68-1.59-1.19-.27-1.39.62-1.32,1.59-2.86-1-4.42,2.46-7.1,2.1-2.41,2.65-4.83,2.86-7.57.34-.81-.76-2.24-.85-3.43-1.26,1.51-2.47,4.67.18,6-2.27l-5.62-2.88h-7.2l-2.21-2H2915l-5-5,3-2.78,4.73-.51c-.23-.66-.36-1.5-.56-1.52-1.33-.1-2.55-.24-3.41-1.45-1-1.38-2.46-.44-3.69-.71a1.56,1.56,0,0,1,1.56-2,28.67,28.67,0,0,1,3.44,0l2.09-2.09h8.65c.85-2.65-.68-5.47,1-7.69l4.59-.51,1.57-1.57,4.32-.32L2939,652h3.55l3.49-2c.67.43,1.65.72,1.92,1.33A7.17,7.17,0,0,1,2948,654a4.85,4.85,0,0,0-4,4.29l2,3.71v2h-4.93l-2.12,2c-2.21.26-4.53-.68-6.59.63-1.1,1.94.17,3,1.52,4.23-.57.66-1,1.57-1.74,1.93a48.76,48.76,0,0,1-7.41,3.51c-1,.3-.94.91.25,1.54h6.18l1.54-1.54c1.82-.13,3.78-1.21,5.3.77a27.17,27.17,0,0,0,.28,4.82c-1.27.32-2.82.18-1.46,1.93a17.45,17.45,0,0,0,1.46-1.93c.78-.51,1.84-1.12,2.91-1.74,1.39-.75,3.18.69,4.5-.8l1.1-3.35H2952c1.33,0,2.67-.07,4,0a6.36,6.36,0,0,1,1.7.66c1,1.63-.8,4,1.44,5.31,3.24.43,3.91-3.18,6.41-4,3.13-2.23,4.73,3.66,8.07,1.54l.9-5.86c2,1.53,1.32,3.23,1.49,4.69.22,1.89,1.61,1.7,3,1.63,1.65-1.94,4.05-3.27,5.23-5.77Z" transform="translate(-2581.98 -562)"/><path class="cls-1" d="M3000,654c-3.79,2-3.79,2-8,2v-7l2-2.17V645l5.61-3.21c.22-1.88.4-3.45.57-5l1.61-1.61V624.81c-1.56-1.49-3.31-.45-3.94-.61l-7.55-4.3H2985l-2.56-2.14-13,6.58L2967,622h-3v-6h5.39c.31-1.73.63-3.54,1-5.37,1.77-1.21,3.78-.38,5.66-.63-.35,2.51-3.07,3.24-4,5.34.32,1.51-.73,3.31,1.05,4.69.64-1.39,1.27-2.73,1.87-4h12l2.08-1.91,2,1.82h7.42l7.37-4.06c3,.17,6.25.33,9.51.55.2,0,.37.45.53.65-.66.73-1.31,1.45-2,2.21V623c-1.33,2-4.17,2.63-3.85,6.44l2.71,2.58,2.56-2.07c1.34,2.79.31,5.46.66,8-.56.22-1.54.37-1.6.69a34.62,34.62,0,0,0-.43,4.09l1.89,2.4-2.89,2.76c-2.32-1.44.56-4.59-2.09-5.82L3006,647v2.5C3003.43,649.91,3000.73,650.81,3000,654Z" transform="translate(-2581.98 -562)"/><path class="cls-1" d="M3044,600l-3.21,1.74c-.2-.44-.5-1.09-.79-1.74v-3.17l4.33-3.88c-1.75-1.15-4.06-.8-5-2.66-1.13-2.17-3.93-1.64-5.3-3.38V584l4.29,2.3,2.78-2.23,1.6,1.6c2.23.89,4.82,0,7.33.33l1.81.73c.06.87.17,1.8.18,2.73,0,1.92,0,3.84,0,6l-3.3.85C3047.27,597.11,3046.44,599.59,3044,600Z" transform="translate(-2581.98 -562)"/></g></g></svg>