<svg xmlns="http://www.w3.org/2000/svg" viewBox="0 0 4320 2160"><defs><style>.cls-1{fill:#c90cc8;}</style></defs><g id="Layer_3" data-name="Layer 3"><g id="Dsb"><path class="cls-1" d="M3874,438c3.16.78,4.32,2.9,4,6h-4l-4,0c0-1.64,0-2.81,0-4,.43-.67.72-1.65,1.33-1.92A7,7,0,0,1,3874,438Z" transform="translate(-694 -437.91)"/><path class="cls-1" d="M2752,674v-7c1.17-1.76,3-.78,5.52-1.23l2.55-3.2v-6l2.5-.75,4.12,3.29c-1,1.58-1.6,2.63-2.3,3.8l3.58,6.61v5.6l-3.6,1.23c-.14.75-.32,1.66-.47,2.45,2.74,3.48,7.62,4,10,8.66v2.52l15.95,16c.17,2.44.27,4,.39,5.79l7,.35c1.68,1.42.29,3.24,1.38,5.33l1.51,1.63c-2.42,1.44-4.93.93-7.34.61l-1.79-1.8c-.35.9-.6,1.65-.92,2.38-.25.56-.59,1.08-.92,1.66l-2.12-2H2784c0-.33.12-.87,0-1-1.85-1.06-3.7-2.11-5.61-3-2.78-1.35-2.68-1.39-4.4-4.27-1-1.62-2.3-3-4-5.21l4.92-2.91c-4-1.72-4-1.73-8.86-.76l2.21,2.49-3.34.71c-1.63-2.44-.65-4.77-.87-6.53-.81-1.41-1.43-2.48-2.05-3.54-.78-3.16-2.9-4.32-6-4,.22-.55.29-1.4.69-1.61a32.11,32.11,0,0,1,4-1.4c-3.1-1.27-5.6-2.25-8-3.38-.4-.18-.47-1.06-.69-1.61.22-.56.29-1.28.69-1.64,1.88-1.65,1.72-3,0-4.81C2752,676.81,2752.21,675.21,2752,674Z" transform="translate(-694 -437.91)"/><path class="cls-1" d="M2554,648a4.91,4.91,0,0,0-4-4c-.4-2.44-2.88-3.27-3.74-4.73-.33-1.34-.55-2.21-.77-3.12-1.18,0-2.13-.07-3.07-.16a17.54,17.54,0,0,1-1.81-.36c-1.18-1-.38-2.42-.61-3.63a17.7,17.7,0,0,0,3.89-.28c.32,1.27.18,2.82,1.93,1.46a17.45,17.45,0,0,0-1.93-1.46c-.13-.94.71-2.35-1-3.74l-2.93.59V632a39.69,39.69,0,0,1-4.63,0,1.54,1.54,0,0,1-1.37-2c1.14.22,2.11-.65,1.91-1.35-.77-2.77,1.24-4.5,2.09-6.65,1.22.26,2.44-.33,3.74.62,2.47,1.81,5.49,2.71,8.14,4.26,0,.65.08,1.29.12,2,2.31,3.15,5.37,5.4,10.46,7.17,1.38,0,4.35,0,7.31,0a6.77,6.77,0,0,0,1.76-.51l1.16-1.16c2.43-.86,4.81.43,7-1L2579,632h3v3a32.22,32.22,0,0,0-4.05,2.08c-1.08.74-1.78,2.39-2.87,2.64-1.67.38-3.12.7-3.88,2.24-4.16,0-8.13,0-12.1,0-.24,0-.49.39-.85.7-.15,1.46-.32,3-.48,4.49C2556.66,648.62,2555.22,647.75,2554,648Z" transform="translate(-694 -437.91)"/><path class="cls-1" d="M2638,629c1.77-1.76,3.51-.44,4.84-1.13,1.68,1.45,1.47,2.78.31,4.13h-2C2640,631.05,2639,630,2638,629Z" transform="translate(-694 -437.91)"/><path class="cls-1" d="M722,598c.67,1.34,1.3,2.7,2,4,.57,1.08,1.22,2.11,2,3.42V609l2,2-2,2.07V618a7.17,7.17,0,0,0-2.67.08c-.61.27-.9,1.25-1.33,1.92-.57-.23-1.45-.31-1.65-.72-1.72-3.6-3.29-7.26-5-10.87-.26-.56-.92-.93-1.36-1.35V603c-1.92-2-4.38-.6-6.91-1.06l-2.83-2.59-.44-4.42-1.74-2.13L704,592c1.22-.25,2.65.61,3.82-.83V588.8c-.43-.38-.67-.77-.91-.77-3,0-5.94,0-8.91,0h-2v-9l-2-2.1V573l1.9-2.11c.81-2.24-1.49-2.83-1.93-4.32,1.26-5.44,6.19-9.44,6.1-15.39L698,549v-3.91l-2.11-2.3,3.91-1.36c.11-2.11.24-4.35.36-6.46l2-2.44-3.31-.67c-.78-1.61-1.67-3.42-2.64-5.39l7.09-1.16a35.2,35.2,0,0,1-4.57-1.64c-.42-.23-.5-1.07-.73-1.64,1.87-.23,3.85.54,5.72-.66.16-1.49.33-3,.5-4.63C705.6,516,706,513.9,708,514h4.88c3.65-2.68-1.68-4.14-.75-6.83,1.54-1.36,3.87-2,5.76-3.45.32,1.27.18,2.82,1.93,1.46a17.45,17.45,0,0,0-1.93-1.46c.11-1.54.11-3.36.11-4.75,1.51-1.45,2.82-.77,4-1h4v3.2l-3.34,1.13c-1.34,1.36-.31,3.09-.66,4.61l-2,2.12V512c0,1.31.06,2.63,0,3.94a6.75,6.75,0,0,1-.61,1.71l-3.36,1.1V523q-1,1-2,2.1l4.76,4.76,2.79.55c.2,1.56-.62,1.7-1.6,1.64h-3l-1.46,1.48c-2.24,1.25-5.06-.13-7.85,1.07,2.63,2.64,6,.43,8.53,2.22-2.4,1.16-2.39,1.19-5.6,1.25l-2.68,3.61V545L706,547.21v5.58l4.49,5-2.37,3.44c.07,1.27-.65,2.93.55,4.52l4.67.53c1.17,1.15.22,3.3,2,4.2a12.3,12.3,0,0,1,2.29,1.57c.66,2.84-.49,3.6-1.24,4.66A13,13,0,0,0,715.2,580H713l-3.76-3.76h-6.73c-.35.54-1.22,1.92-2.45,3.88v.95c1.31,1.69,3.11.65,5.29,1.1l3.06,3.85H713c1.75,1.55-.47,1.92-.95,3.15C715.43,591.9,717.84,595.9,722,598Z" transform="translate(-694 -437.91)"/><path class="cls-1" d="M2516,614c-.67-3.1,1.55-5.29,2.84-7.58A8.49,8.49,0,0,0,2520,602h10c-.22.56-.29,1.4-.7,1.61a28,28,0,0,1-3.79,1.33L2528,610l-2.06,3.59c-.17,1.62.59,3.87-.49,6-2.07-.25-2.48-2.54-4.71-3.12L2520,618a7,7,0,0,1-2.67-.08c-.61-.27-.9-1.25-1.33-1.92.55-.22,1.51-.35,1.59-.68C2517.86,614.13,2517,613.93,2516,614Z" transform="translate(-694 -437.91)"/><path class="cls-1" d="M724,622c1-.07,1.86.13,1.59,1.32-.08.33-1,.46-1.59.68Z" transform="translate(-694 -437.91)"/><path class="cls-1" d="M722,620a1.7,1.7,0,0,1,2,2A1.7,1.7,0,0,1,722,620Z" transform="translate(-694 -437.91)"/><path class="cls-1" d="M760,524h-4.89c-.37-.47-1.05-.94-1.06-1.43-.08-4.54,0-9.09,0-13.58-2.19-2.27-5.08-.08-7.41-1.37-1.17-1-.35-2.41-.59-3.62,3.26-.67,3.77-3.71,5.15-6H758l3.16-1.82,1.89,1.79c2.07.68,2.83-1.15,4.09-2h5.38l3.48,2v5.35l5.65,3.76a1.92,1.92,0,0,1,.32,1c.06,3.29,0,6.57,0,9.86l2.06,3.53c0,1.58,0,3.56,0,5.53,0,.24.44.47.67.7,1,.47,2.57-.21,3.15,1.62l-2.19.64-5.53,4.78v10.39l4,4v6l5.54,2.78c1.38,0,3,0,4.68,0a3.3,3.3,0,0,1,.87.29L796,560l-2.51,1.18c-2.71,1.4-5.7.36-8.67,1l-1.31,1.31c-1.85,1-3.84.32-5.76.51-1.91-1-4.1-1.67-5.65-3.07s-3.42-2.68-4.28-5.14c-.79-2.27-3.12-4-4.65-5.84H759c-1.66-1.34-.64-3.13-1-4.66l-6-3.9V538h3c1.19,1,2.07,2.66,4.09,2,1.79-1.26,2.53-3.91,5.33-4l2.91,1.74a36.7,36.7,0,0,1,3.52-3.43c.67-.51,1.83-.35,2.6-.79.39-.22.41-1.09.69-1.93C773,529.3,770.61,528,769,526h-3.94L763,524Z" transform="translate(-694 -437.91)"/><path class="cls-1" d="M824,656a7.17,7.17,0,0,0,.08,2.67c.27.61,1.25.9,1.92,1.33.78,3.16,2.9,4.32,6,4v2.91c2.31,1.34,5.33,1.83,6,5.09h-4.93l-2.14-2H826v-3l-5-4.87-4.34-.27c-1.87-3.41,1.22-4.17,2.39-5.84Z" transform="translate(-694 -437.91)"/><path class="cls-1" d="M844.79,672h4.3l1.73,2h4.31l1.37,3-4.85,3h-4.56c-1-1.83-2-3.67-3.17-5.78Z" transform="translate(-694 -437.91)"/><path class="cls-1" d="M861.83,679.71v3.88l-3.25.62c-.24-1.24-.44-2.36-.7-3.74Z" transform="translate(-694 -437.91)"/><path class="cls-1" d="M2839.79,730c.35-1.85.55-3,.82-4.39l1.82,1.82c2.85,1.67,6.29-.53,9.57,1.39a32.63,32.63,0,0,1,0,3.54c-.06.55-.58,1-1.06,1.86l-3.56-4.22Z" transform="translate(-694 -437.91)"/><path class="cls-1" d="M2768,653a6.53,6.53,0,0,1-1.34.63c-.17,0-.44-.41-.66-.63a6.53,6.53,0,0,1,1.34-.63C2767.51,652.34,2767.78,652.78,2768,653Z" transform="translate(-694 -437.91)"/><path class="cls-1" d="M2866,654h8c.22.55.29,1.39.69,1.6a23.13,23.13,0,0,0,3.44,1.19c-.37.41-.57.82-.78.83-4.13.21-8.25.37-12.31.53C2863.85,655.22,2863.85,655.22,2866,654Z" transform="translate(-694 -437.91)"/><path class="cls-1" d="M2946,686a16.81,16.81,0,0,1-.06,2.93c-.06.31-.82.56-1.3.68-.14,0-.59-.42-.61-.67-.07-1,0-2,0-2.94Z" transform="translate(-694 -437.91)"/><path class="cls-1" d="M3006,672l3.47,2H3012l-.75,1.83h-10.42l-1.7-1.7-2,1.7c-2.27-1.31-.7-3.34-.88-5.33l2.57-.63L3001,672Z" transform="translate(-694 -437.91)"/><path class="cls-1" d="M2987,688c-1.52-.31-3.2.61-4.67-.65.06-1.78,2.12-2,2.49-3.35h4.12c2,1.49.86,3.45.81,5.25C2987.91,688.88,2987.91,688.88,2987,688Z" transform="translate(-694 -437.91)"/><path class="cls-1" d="M2990,672v-2c1-.07,1.86.13,1.59,1.32C2991.51,671.65,2990.55,671.78,2990,672Z" transform="translate(-694 -437.91)"/><path class="cls-1" d="M752,538h-3.31c-1.49,2.9-.18,6.25-.89,9.57l-3.25.67c-.26,1.49-.56,3.29-.87,5.1-1,1.26-2.46.41-3.68.66-2.52-1.42-2.54-1.53-1-4.07a8.59,8.59,0,0,0,.57-1.33c-2.31-1.66-5.24.55-7.61-1.56l3.93-1.88-2.37-2.93a38.55,38.55,0,0,1-4.86-.61c-.36-.1-.48-1.06-.71-1.62l3.45-2h5.47l8.89-8.81c.24-1.15.42-2.05.62-3h6.83c.29.72.51,1.28.74,1.84v4.92C752.14,535.11,752.14,535.11,752,538Z" transform="translate(-694 -437.91)"/><path class="cls-1" d="M724,548l1.74.79L724,552h-4.91c-.93-1.1-2.47-1.73-2.75-3.52C718.85,547.4,721.48,548.31,724,548Z" transform="translate(-694 -437.91)"/><path class="cls-1" d="M818,642v4c-1.88.14-2.11-1.14-2-2.48A1.55,1.55,0,0,1,818,642Z" transform="translate(-694 -437.91)"/><path class="cls-1" d="M818,646a1.7,1.7,0,0,1,2,2A1.7,1.7,0,0,1,818,646Z" transform="translate(-694 -437.91)"/><path class="cls-1" d="M728,620a1.7,1.7,0,0,1-2-2A1.7,1.7,0,0,1,728,620Z" transform="translate(-694 -437.91)"/><path class="cls-1" d="M2528.93,616.37c1.36,4.43,1.41,6.86.58,9.3C2527.75,625.61,2527.71,625.61,2528.93,616.37Z" transform="translate(-694 -437.91)"/><path class="cls-1" d="M2538,620v2a16.81,16.81,0,0,1-2.93-.06c-.31-.06-.56-.82-.68-1.3,0-.14.42-.59.67-.61C2536,620,2537,620,2538,620Z" transform="translate(-694 -437.91)"/><path class="cls-1" d="M2948,670c-1.95-.41-4.26,1.07-6.06-1.3a22.72,22.72,0,0,0,3.41-1.13c.38-.19.44-1,.65-1.57.67.43,1.65.72,1.92,1.33A7.17,7.17,0,0,1,2948,670Z" transform="translate(-694 -437.91)"/><path class="cls-1" d="M2530,602v-4c.23-.57.47-1.14.76-1.85h5.47l7.29-4.11h3.34l2.19-2h13.88l2.14,2H2570a39.69,39.69,0,0,1,4.63,0,1.54,1.54,0,0,1,1.37,2h-11l-5.81,5.82h-14.12a12,12,0,0,0-1.86-1.54,5.75,5.75,0,0,0-2-.3l-2.24,2h-5.57C2532,600.47,2531.67,602.3,2530,602Z" transform="translate(-694 -437.91)"/><path class="cls-1" d="M2595.06,606c1.5.32,3.18-.62,4.56.61-.49,3.92-5.17,2.67-6.67,5.46C2590.28,608.82,2593.71,607.77,2595.06,606Z" transform="translate(-694 -437.91)"/><path class="cls-1" d="M2580,605.21v-2.43c2.62-1.26,5.27-1.09,8.23,0l-6,3.3Z" transform="translate(-694 -437.91)"/><path class="cls-1" d="M2559,618c1.44,1.33,1.44,2.67,0,4C2557.56,620.67,2557.56,619.33,2559,618Z" transform="translate(-694 -437.91)"/></g></g></svg>