<svg xmlns="http://www.w3.org/2000/svg" viewBox="0 0 4320 2160"><defs><style>.cls-1{fill:#923896;}</style></defs><g id="Layer_7" data-name="Layer 7"><g id="Dsc_Dsd" data-name="Dsc/Dsd"><path class="cls-1" d="M4322,294a7.17,7.17,0,0,1-2.67-.08c-.61-.27-.9-1.25-1.33-1.92h4Z" transform="translate(-192 -236)"/><path class="cls-1" d="M4204,270h-3.07l-3.39-6.87L4202,260v-4h4c.24,1.22-.6,2.63,1.07,4l2.93-.59V256h2a1.7,1.7,0,0,0,2-2H4225l2.11-2h2.22l1.19,3.44.7.36c.47-1.13.93-2.27,1.4-3.4.6-.14,1.35-.59,1.79-.38,1.9.9,3.72,2,6.14,3.32l-6.12,1.05c-.12,2.6,2.47.9,3.24,2.12A14.6,14.6,0,0,0,4240,261c0,2.56-.05,2.6-3.07,3.05l-2.88,2.88,5.57,2.9h10.92l2.48,2h3.42c1.71,1,2.82,2.5,4.54,6.12h4.18c.32.76.67,1.59,1.13,2.71L4256,291c.09.89.16,1.53.22,2.17,1.33,1.51,3.11.46,5.12.91l4.5-4.92c-.71-3.91,3.59-2.73,4.86-4.76a5.78,5.78,0,0,1,5.37-2.87c-.08-1.38-.11-2-.15-2.68-2.15-2.15-5.14.21-7.48-1.44.16-.43.3-1.27.5-1.29,1.33-.08,2.54-.24,3.41-1.45,1-1.37,2.46-.44,3.68-.7-.22,1.17.51,1.67,1.43,2a23.19,23.19,0,0,1,7.83,4H4290l-.75,1.85h-7.36l-5.78,3.23L4281,290l3.75-3.75h16.5l1.58,1.58,3.35.24c2.12-1.64,4.33-2.7,7.1-1.83.72,1.34,2.82,1.74,2.72,3.76-2-.08-2.42,2-3.78,2.76s-2.72,1.37-4.05,2.08c-1.89,1-1.61,3.51-2.87,4.64s-.84,3-1.94,4.26a42.13,42.13,0,0,0-4.66.65c-.34.08-.47,1.05-.7,1.61-1.2.23-2.58-.56-3.81.81v2.41l6.45,3,2.2-2.09L4306,312a1.7,1.7,0,0,1,2,2c-2.7-.21-1.52,2.31-2.39,3.39-1.76.62-3.58,1.12-4.81,2.54h-7.87l-1.78-1.78h-15l-6-3.09c-.27-2.9.18-5.84-.23-8.72-2.61,0-1.56,1.7-2,3-1.55.54-2,3.27-4.61,2.67-1.55-2.15-1.92-5.37-5.26-6-3.43-1.53-6.81-3.13-9.13-6-3.46-.46-3.89,3.47-7.11,4.09-.65-.44-1.67-1.11-3.07-2h-5c-2.2-1.24-4.11-2.24-5.94-3.37-1.57-1-3.78-.8-4.79-2.72h-5c0-.33-.12-.87,0-.95,1.84-1,3.72-2,5.37-2.89h5.77l1.63,1.63c3.73,1.36,6.1-2,9.43-2.94-.82-1.42.62-3.21-.85-4.52l-3.37-1.12V282c2.52-.31,5.15.6,7.8-.54v-4.74c-1.39-.74-1.8-2.82-3.8-2.72-.23-.57-.36-1.54-.72-1.63a36.7,36.7,0,0,0-4.74-.57l-3-4.12-1.87,1.65c-.23.22-.47.64-.71.64-3.65,0-7.31,0-11,0,0-.32.12-.86,0-.93-2.08-1.11-4.19-2.16-6.19-3.17l-3,1.8-2-1.63C4205.91,267.63,4203.89,268,4204,270Zm79,34c-1.42,1.35-1.46,2.69.18,4.11l3-.6c-.29-1.39-.52-2.5-.74-3.51Z" transform="translate(-192 -236)"/><path class="cls-1" d="M426,264l3.88-2.26,3.42,5.47.87-4.38,2.73-2.73,2.18,1.9c3.13,0,6.42,0,9.72,0,.25,0,.5-.35.76-.54.39-1.15.79-2.31,1.17-3.42h2.21l2.12,2H461l2.16-2H473.8l4-4c2.54-.37,2.82,3,5.05,3.68,2.14.47,4.45,1,6-1.54h4.29c1.08-1.33,2.32-2.85,3.3-4.07H504a7.17,7.17,0,0,1,2.67.08c.61.27.9,1.25,1.33,1.92-1.28.33-3.07-.9-3.87,1.43a11.37,11.37,0,0,0,7.22.14c.33-.09.44-1,.65-1.57h8v2c-.32,2.06-2,3-3.43,4-2.15.35-4.46-.86-6.7,1.06.25.93.53,2,.79,2.95H514c.21,1.85-.5,3.8.8,6H526a1.47,1.47,0,0,1,1.92,1.54c-.13,1.16-.87,2.25-1.85,4.56,0,.88-.14,3.11-.23,5.22-2.33.83-4.61,1.26-5.78,4.72v2.85c.65,1.23,2.65,1.95,1.93,4-1.41,2.15-3.58.82-5.38,1a33,33,0,0,1-4.72.05L506,297v2.46l-3.12.61c-1.47-2.17-.65-4.17-1.17-5.94,1.27-.32,2.82-.18,1.46-1.93a17.45,17.45,0,0,0-1.46,1.93c-2.42.1-1.24-2.42-2.11-3.5l-3.95-1.41c2.56-2,5.22-.68,7.57-1.41,3.11-2.24,3.06-6.93,6.52-8.45L507,274H483.12c-.64.59-1.36,1.24-2.13,1.93-1.46.43-3.2-.6-4.8.83v4.86l-8.38,8.4-3.25-1.89h-7.11l-2.28-1.88a16.78,16.78,0,0,1-3,1.68c-1.18.41-2.61-.44-3.88.72-.16,1.43-.34,3-.55,4.84l-2.72.66L443.09,290H440c-.1-2,2-2.43,2.71-3.74,1.64-1,4,1,5.21-1.59l-3.47-1.22c-.39-1.15-.79-2.3-1.17-3.42h-2.23L439,282h-3c-.24-1.88.57-3.87-.58-5.6-1.17-.85-3.62.27-3.42-2.4.24-1.22-.59-2.63.62-3.65,1.45-.58,2-.36,8.18,3.45h6.83L448,271l-3.14-3.14h-18C425.41,266.63,426.24,265.22,426,264Zm92,13a4.29,4.29,0,0,0-6.06,0A4.29,4.29,0,0,0,518,277Z" transform="translate(-192 -236)"/><path class="cls-1" d="M4040,456c-.22-2-2.13-6.42-4-9.33v-5.31l-1.78-2.34c-.17-1.88-.36-4.12-.56-6.36-3.1-1.6-.22-6-3.59-7.52v-14c2.87-3.23,3.21-8.18,6.87-11,.42-.32,1.27-.1,2.12-.15l6.92-7.28v-3.63c2.08-2.52,5.1-.09,7.39-1.44l1.52-1.52h7.43l7.2-4.11H4074c-.3,2.52.59,5.13-.56,7.87h-8.31l-3.05,3.05c.12,1.54-.59,3.17.52,4.72.1.65,2,.7.7,2.09l-4.59.49c-.74,1.38-2.81,1.78-2.71,3.78-.34,1.62,1.5,1.93,1.87,3.13L4055,410h-2.09c-.5,3-2.81,4.86-4.81,6.9-.11,1.58-.21,3.15-.28,4.28L4046,423v9.95l-2,2.12v4l2.86,2.86c1.57-.11,3.24.65,4.71-.49.34-1.83.69-3.65,1-5.41H4056v6l1.74,3.21L4056,446c-2.76.21-3.27,3.84-6.6,4l-2.48-2c-1.34,1.37-1.41,2.69.18,3.93h2.9a1.48,1.48,0,0,1-1.41,1.93,7,7,0,0,0-5.84,2C4042.29,456.4,4040.94,456,4040,456Z" transform="translate(-192 -236)"/><path class="cls-1" d="M556,250V255l-1.93,2.12,1.69,1.69v6.48c-1.65,3.27-6.9,2.32-7.88,7.15l2.11,2.85V279c-2.86,1.1-5.23,3.59-8.88,3l-3.06-5.81v-9.32l-2-.84c-.22-.56-.29-1.34-.7-1.63-1.56-1.1-3.93.62-5.27-1.36-1.51-2.26-4.54.25-5.65-2.17-.8-1.61-1.59-3.23-2.38-4.84h7.38c.35-2.54,2.19-3.94,2.62-6,.78-.45,1.55-.92,2.35-1.33.52-.27,1.1-.45,1.65-.67h14a39.69,39.69,0,0,1,4.63.05A1.54,1.54,0,0,1,556,250Z" transform="translate(-192 -236)"/><path class="cls-1" d="M244,414c-.22-.56-.45-1.12-.67-1.67-2.11,1.06-4.14,2.53-6.73,1.29-1.17-1-.37-2.41-.6-3.62-.08-2,1.73-2.64,2.82-3.69.8-.78,2.29-.81,3.27-1.47a22.69,22.69,0,0,0,2.86-2.79h3.85l2.21-2h6.24l5.25-6H268l.72,1.83h10.43l1.91-1.81h2.2a23.42,23.42,0,0,0,1.14,3.3c.21.39,1.05.46,1.6.68a1.55,1.55,0,0,1-1.52,2c-1.34.16-2.62.16-2.48,2l-4,0c0,1.64,0,2.81,0,4l-5.11-2.46c-.46,1.32-.75,2.19-1.17,3.38a26.46,26.46,0,0,1-4.27,2.54c-1.74.68-3.27,1.79-4.93,2.41s-3.49.28-5.32,1.61c-1.55,1.12-4.3.55-6.5.9-.31.05-.47,1.06-.7,1.62h-2.53Z" transform="translate(-192 -236)"/><path class="cls-1" d="M1232,418v5.39l5.91,3.85c-.06.47-.2,1.6-.39,3.12-1.17-1.06-1.87-1.71-2.48-2.27-2.11-.75-2.94,1.74-4.25,1.76-2.49,0-3.2,2.08-4.77,3.09a43.94,43.94,0,0,1-4,2c.73.8,1.37,1.53,1.94,2.16.5,2.66-2,3.26-2.76,4.87H1216c-.31,0-.82.12-.91,0-1.88-3-2.75-6.43-5-9.21-.46-.56-.07-1.83-.07-2.77l2-3.47V424h2c2.2,0,4.4.11,6.59-.05A1.53,1.53,0,0,0,1222,422c2.66-.12,3-3.25,6.33-4Z" transform="translate(-192 -236)"/><path class="cls-1" d="M192,270v-1.42l3.14-5.43,4.16,2.76h5.6l2.11-1.84h5.74l2.26-2h3.92l2.4,2.19L226,262c.22.55.4,1.13.67,1.65.41.8.88,1.57,1.33,2.35h-6.29l-5.16,2.62c-.3,1.89-2.1,3.32-2.55,5.38h-8.95c-2.79-2.53,1.62-3.79,0-6.07a41.68,41.68,0,0,0-4.35.49c-.32.06-.45,1-.67,1.58h-8Z" transform="translate(-192 -236)"/><path class="cls-1" d="M4082,374v8h-8v-2.85c1.45-.84,2.95-1.67,4.4-2.56C4079.66,375.82,4080.11,373.9,4082,374Z" transform="translate(-192 -236)"/><path class="cls-1" d="M4274.65,274.27c3.23-3,5.19-2.8,7.27-1.42C4280.25,275,4277.94,273.61,4274.65,274.27Z" transform="translate(-192 -236)"/><path class="cls-1" d="M4289.44,280.23l1.74-2.05C4292.54,279.93,4291,279.79,4289.44,280.23Z" transform="translate(-192 -236)"/><path class="cls-1" d="M3668,278c-.57.23-1.53.36-1.63.72a30.72,30.72,0,0,0-.52,4.28l-2.47,2.7c-2.72.85-5.65-.13-8.62.46-.5-1.41-.91-2.56-1.31-3.71-2.24-.67-4.44-1.14-6.22,1.37h-12.42c-1.51-1.49-.45-3.24-.92-5.23l6.38-1.24c-1.59-2.08-3.38-1.06-5.09-1.4-1.81-2-4.13-3.45-5.35-6.39s-3.74-4.78-7-6c-2.43-.92-3.63-4.38-6.69-3.94-.48-3.27,1.74-4.07,2.87-5.58h4.24a15.51,15.51,0,0,1,.8-2.51,20.63,20.63,0,0,1,1.78-2.53l-3.7-1.79c.17-.28.3-.71.46-.72,4.21-.25,8.43-.46,12.65-.68L3637,244a28.51,28.51,0,0,0,3.43,0,1.56,1.56,0,0,0,1.57-2h7.05l1.37,1.53c3.81-.37,6.44-4.9,10.83-3.28l3.51,3.51c.63.08,1.26.19,1.89.23,1.31.1,2.56.1,3.51-1.12,1.24-1.6,3.11-.43,4.57-.93a18.66,18.66,0,0,0,3.17-1.93c1.07-.63,2.18-1.2,3.66-2H3687l2.17-2c1.11,2.28,2.18,4.48,3.2,6.56L3690,245v9.89c-.21.24-.39.61-.65.7-.88.29-1.79.48-2.69.71a9,9,0,0,0-.64,1.72c-.41,2.49-3.15,3.18-4,5.29-.7,1.7-2.14,3.57-1.84,5.09.55,2.76-2.24,3.76-2.34,6.15,0,1.24-1.89,2.41-2.59,3.22-2.6.93-3.17-1.42-4.73-1.81C3669.21,276,3667.84,276,3668,278Z" transform="translate(-192 -236)"/><path class="cls-1" d="M798,282h29.64c.94,1.19,2.16,2.75,3.58,4.53l4.64-2.53H849l1.76-1.76h8.11L862.6,288H866c2.4,0,2.74,2.72,5.65,3.64,4.09-.07,7.65,3.86,12.64,5L881,300c-4.35,0-8.68,0-12.9.28-.32-1.27-.18-2.82-1.93-1.46a17.45,17.45,0,0,0,1.93,1.46A20.36,20.36,0,0,0,868,303c-1.22,1.7-3,.73-4.72,1l-2.42-2c-.3.82-.54,1.59-.87,2.33a18.62,18.62,0,0,1-.94,1.65h-3.92l-4.34,4.11h-3.87l-1.71,1.71h-12.3l-2.44-1.91c-.28,1.37-.47,2.28-.68,3.33-.12.12-.35.55-.59.56-4.24.17-8.47.28-12.73.4-.27,1.21-.47,2.12-.77,3.48-2.7.7-5.66.2-8.57.37-1.12,1.76-3.25,1.76-4.83,2.69-1,2,.35,3,1.62,4.19v5.76c.83,1.1,1.58,2.09,2.38,3.13l-2.32,4c.13,2.69,3,2.89,3.82,4.83v5l-3.12.63-1.11,3.25c-2.15,1.08-4.44.43-6.68.43-2-2-3.86-4.33-6.91-4.85V341l-5.81-3.33c-.08-1.48-.15-2.75-.29-5.1L780,330h-3.07c-1.38-1.75-2.94-2.86-4.73-1.83-.81-.19-1.26-.16-1.4-.35-2.53-3.52-7.31-4.18-9.72-7.76h-6.53c-.2-1.05-.4-2.18-.6-3.24l4.36-1.55c-.74-.56-1.17-1.17-1.61-1.18-6-.06-11.93,0-17.7,0l-1.79,1.79c-.75.06-1.7.18-2.65.2-1.95,0-3.91,0-5.58,0-1.68-1.7-.62-3.46-1-5l-2.91-2.91h-5.84L717,306c-1.46-.42-3.22.64-4.63-.68.67-3,3.69-2.82,5.53-4.24-.71-1.07-.71-1.07-6.29-1.12-1.7.42-2.66,3.17-5.29,1.4,0-.69-.47-1.78-.12-2.48,1.08-2.17,3.33-2.84,5.45-3.52.24-.94.48-1.84.71-2.74a55,55,0,0,0,9.11-4.57c.95-.57,2.54-.09,3.55-.09l1.69,1.69,3.2-1.8,4.32,2.42c.93-.73,1.92-1.48,3-2.33H743l2.08-1.9h4l1.7,1.7h11.6l2.65,2.06h11.9l2.09-1.73h5.66l2.34-2.06h6.16l1.13-3.38C795.32,281.37,796.77,282.26,798,282Zm-59,16a4.28,4.28,0,0,0,0,6c1.55-.33,3.24.61,4.65-.62,1.47-3-1.51-3.74-2.67-5.39Z" transform="translate(-192 -236)"/><path class="cls-1" d="M516,368h-4.87c-1.85-1.09-.81-2.9-1.38-4.87A5.45,5.45,0,0,0,506,360c0-4.21,0-4.21-2-8h3l2.12-2h12c.59-1.3,1.21-2.65,1.93-4.2l2,4.2,3-3v-3.53l3.83-6.69c-2.09-2-5,.05-7.33-1.13.72-3.27,3.85-.44,5.16-2.34.11-2.53-2.73-.44-3.31-2-.71-1.87-3-.83-4.1-2-.18-1.61-.36-3.18-.58-5.13-2.9-.46-5.84,0-8.72-.24l-1.41-1.42c-2.31-1.15-5.07.05-8.19-1.18l5-2.38a25.37,25.37,0,0,1-3.62-1.32c-.41-.23-.49-1.08-.72-1.64H511l2.14,2H523l2.12,1.94c1.48-2.75,2.11-6.21,6.22-6.33.25,0,.47-1.05.7-1.62h4a1.7,1.7,0,0,0,2-2h2c1.66-.3,2,1.52,3.36,2.05H547l1.95,1.67,3.13-2,3.78,2.46h11.79l.43,2.89L564,319c1.49,1.68,3.27.63,4.64.94,1.33.51,1.66,2.33,3.32,2v12.57L570,338c-4.28,0-8.56,0-12.84,0-.25,0-.5.36-.75.56l-2.16,2.16c-.19,2.42-.88,4.95.68,7.25h3c.06,1.22.16,2.42.25,3.5,2.18.54,4,1.13,5.76-.45-.08-.78-.16-1.65-.23-2.4-2-1.13-3.9-.45-5.78-.65,0-1,0-2,0-2.94l-2.11-2.26,2.26-.83,4,4c2,0,3.83-.54,4.46.1,1.83,1.88,5,1.41,6.32,3.86l2.1-2H578v6.52c-.92,1.61-1.67,2.91-1.74,3,.49,4.63,4.29,3.41,5.74,5.58v8l3.77,1.76c.31,1.21.54,2.1.74,2.92h6.72L597,372c3,2.46-.68,3.78-1,6,.07,1,.15,2.25.26,4l3.65-.37c.19-9,.19-9,1.5-9.41.42,1.14.86,2.28,1.29,3.43l5.18,1c.9,2.51-1.06,3.27-1.83,4.6.33,1.53-.71,3.31,1,4.79,1.38-.29,3,.57,4.49-.46l1.37-3.93c.81,1.76,1.43,3.1,2,4.4,2.43,0,4.76,0,7.07,0a5.65,5.65,0,0,0,1.71-.66l1.85-1.6c.18,1.46.31,2.59.48,4-5.37.64-10.29-.06-15.07.4l-2,1.76h-6l-1.61-1.61c-2.42-.27-4.95-.88-7.24.61-.4,1.68.66,3.43-.74,4.82A13.65,13.65,0,0,1,589,387.9c-.67,1.46-1.3,2.8-1.9,4.1H582v-7.07c-.9-.88-1.71-2.28-2.84-2.62-1.58-.47-3.09-.77-4.23-2.56h-8.21L565,378h-7c-.32-1.26.81-1.68,1.41-2.4,1-1.21.86-2.33-.28-3.52l-2.51,2.18-5.5-6.67c-3.27,1.12-6.34-.54-9.34,1.36L546,370.9V374c-1.26,0-2.51,0-3.77,0-2,0-4.2-.52-5.28,2.47-.54-1.39-.74-1.93-1-2.47l-.75-1.84h-6.51l-2.59-3.31L529,366h3.93l2.69,2.11a21.17,21.17,0,0,0,2.07-.82c2.47-1.31,1.82-4.76,4.25-6.09a11.64,11.64,0,0,1-2.5-4.84c-2.63-1.88-3.69,2.4-5.91,1.56-2.69-1-3.66,2.6-6.53,1.94l-1-2-.91-1.9-4,8h-2.21a22,22,0,0,1-1.23,3.3C517.41,367.69,516.56,367.77,516,368Zm58.06-1.11c-2.26-1.7-4.56.09-6.09-1.87s-3.52-1-5.37-.63c-.82,1.86-1.14,3.69.29,5.52h3.71c2.46,1.46,3.55,3.72,4.59,6.35,2.07-1,4.52.7,6.79-1.2l-3.92-1.91Zm9.64,11.93c.83,1.67-.44,3.4,1,4.93a7.61,7.61,0,0,0,2.52-.06c.83-.31,1.42-1.23,2.23-1.65a12.91,12.91,0,0,1,2.57-.75C588.86,381.94,588.12,376.54,583.7,378.82Z" transform="translate(-192 -236)"/><path class="cls-1" d="M592,250h18.83l2.67,2.09c2.71-.44,3.53-2.48,5.64-4.09H636.8L634,251c1.61,1.75,3.52.94,5.37.57l1.55-4.24,2.91,4.64H650a1.47,1.47,0,0,0,1.38,1.92c1.81-.21,2.52,1.31,3.73,1.93l2-1.85H668a1.52,1.52,0,0,0,1.45,1.95c2.54.14,5.08.05,7.52.05l2.11,2H685L687,260h4l1.7-1.7h4.5l3.61,3.61h7.37l7.28,4.09h3.14c1.36.53,1.69,2.35,3.35,2.05-.21.55-.29,1.44-.66,1.58-2.18.84-5.06-.25-6.59,2.42H707l-2.1-2c-5.37,0-10.67,0-16,0-.24,0-.47.44-.23.2l2.45,3.85h10.21c.37,1.62,2.78,1.8,2.59,3.9v4H681.54l-6.92,3.84H662.74L662,284c.23-.57.31-1.41.73-1.64a22,22,0,0,1,3.39-1.24l-3.07-3.07h-5.74c-2.29-1.25-3.16-4.48-6.36-4.1-1.91-2.49-4.18-2.84-6.79-1.13,0,1.88-.62,3.66,1,5.47,1.36,1.56,2,3.78,2.88,5.71-.23.57-.36,1.53-.72,1.63a29.61,29.61,0,0,1-4.2.51l-2,1.71-6.42.35c-.51,1.43-.91,2.59-1.35,3.85l-3.06-.41v-6.89l-3.69-2.32-1-4.23-6.64-.36-1.62-1.62h-4.45c-1.48,1.4-.42,3.16-.81,4.86-2.25,1.57-4.79.86-7.24.66-1.4-1.47-.36-3.22-.81-5a12,12,0,0,1-3.29-1.2A31.46,31.46,0,0,1,597,272c-2.58,0-5.23,0-7.87,0-.25,0-.5-.38-.94-.75v-6.8l2.86-.57c.93-2.44.92-2.44.56-5.24-.76-1.46-3.72.52-3.61-2.25C587.82,253.24,591.94,252.91,592,250Z" transform="translate(-192 -236)"/><path class="cls-1" d="M344,262H321.06l-2.12-2h-2.22l-1.25,3.61c-2-.32-2.73-2.34-4.39-3.49h-6l-2.38,2H288.27c.3.84.35,1.56.66,1.69.56.24,1.33,0,1.9.21.41.16.62.8,1,1.37-2.61,1.27-5.29.22-7.84.58-2.4-.38-3.21-2.84-5.09-3.91l-1.37,1.37a7,7,0,0,1-1.71.52c-2.26.06-4.52,0-6.35,0L266,262c0-.33.11-.91,0-1-5-2.2-9.76-4.6-12.8-9h-4.24l-1.48,1.48c-2.72,1.32-4.86,0-6.94-1.54-3,1.56-4.54-2.14-7.3-2L231,251.92h-7.91l-2.17-2c-1.29-.78-3.68,1.53-4.67-1.2.34-.31.58-.73.82-.73,4.65,0,9.29,0,14,0l1.44-1.47c2.09-1.09,4.43-.2,6.64-.62l1.41-1.41c1.85-.95,3.84-.31,6.18-.54l2.51-1.87h21.72l1.91-1.91h20.09l2.32,1.83H317l1.86,1.86h10.05l2.1-1.78h3.72L337,240H341l2.1,2H352v2.93c2.62,3,2.62,3,0,6.19l4,1.82V257l-5.46,2.85c-2,.16-4,.24-5.85.54C344.38,260.45,344.22,261.44,344,262Z" transform="translate(-192 -236)"/><path class="cls-1" d="M648,410h8V415l-2.11,2.28,3.19,1.1c1.14,2.25,2.49,4.93,3.85,7.64h2.21a22.74,22.74,0,0,0,1.22,3.31c.23.41,1.08.49,1.64.72v7.25l-3.85,1.31-.26,4.55c-1.16,1.13-2.65,2.13-1.64,4.15,1.34,1.45,3.12.39,4.88.79l2.59,2.86c-.34,1-.34,1-6.94,1.27-1.46,1.56-.88,2.84.49,4.14A5.15,5.15,0,0,1,662,458c-1.2-.23-2.58.56-3.62-.6-.37-1.16-.74-2.29-1.15-3.55L655,456c-.8-1.17-2.45-1.71-2.58-3.3.56-1.59,3.4.51,3.16-2.68H648l-3.7-7.3,1.24-1.24c.08-.24.28-.59.2-.68-2.19-2.42-4.41-4.81-6.3-6.85h-6.55c-1.49-2.72-2.06-6.24-6.18-6.22-2.17-2.45-5.48-2.65-8.15-4.23-.44-3-4-5.05-2.4-8.32l-3.8-3.8c-.81-1.1.31-3.56-2.36-3.36.31-3.19-3.37-1.09-4-3a3.55,3.55,0,0,0,0-1c-.17-.57-.43-1.12-.65-1.67-1.14-.74-3.52.3-3.33-2.33h5.2c.35,1.06.74,2.19,1.14,3.36,1.62.79,3.54,1,4.88,2.56.31.36,1.71-.24,2.95-.46l-2-2.36c1.42-1.23,1.78-3.06,2.47-4.76,1.93.51,2.74,2.37,4.17,3.48,2.42.43,5.34-.72,6.52,3.07l4.17-3.06L636,404v3.28l-4.14,3.58,2.94,2.94H639l2.11-1.62c2.45-.2,4.36-.29,6.22-.59C647.63,411.55,647.78,410.56,648,410Z" transform="translate(-192 -236)"/><path class="cls-1" d="M504,316c-2.53.32-5.15-.61-7.6.45-.22,1.47.61,1.48,1.58,1.59a8.57,8.57,0,0,1,2.15,1c-2.26,1.5-4.25.7-6,1.22-.32-1.27-.18-2.82-1.93-1.46a17.45,17.45,0,0,0,1.93,1.46,19.36,19.36,0,0,0-.11,2.66c-.5.36-1,1-1.49,1-3.24,0-3.24-.06-9.75-4h-6.32c-.23-1.15-.4-2-.62-3.16-2.08-2.09-4.73,0-6.94-1L468,318h-3.45l-3.33-4H446v-5l5.47-5.47,4.54,2.64c4.58-1.62,4-7.46,8-9l.14-2.29c1-1.09,2.17-1.2,3.56-.24.18,1.48.36,3.05.54,4.61.74.74.74.74,2.84-1.19h6l3.7,3.7a38.82,38.82,0,0,1,4.55.64c.35.08.48,1.06.72,1.63h-2c-1,0-2,0-2.94,0-.25,0-.71.46-.67.61.12.48.37,1.24.68,1.3A16.81,16.81,0,0,0,484,306c0,.31-.07.87,0,.89,2.78.75,4.67,3.78,8,3.11h2c.43.67.72,1.65,1.33,1.92A7.17,7.17,0,0,0,498,312h2a1.55,1.55,0,0,0,1.52,2C502.86,314.12,504.14,314.12,504,316Z" transform="translate(-192 -236)"/><path class="cls-1" d="M926,292h7c2.39-2.1,0-5.11,1.43-7.46,2.13-1.1,4.43-.41,6.67-.44l3.53,3.53c1.84.26,3.77,1.25,5.38-.73L945.93,285l5.82-3,2.92,4.17,2.54-2a5.14,5.14,0,0,1-.05,5.8L955,288.12,953,290c-2.17.29-4.52-.66-6.8.76,1.53,1.47,3.83,1.61,5.14,3.25h5.26l2.9-2c2.74-.63,3.91,4.41,7,1.45l3.72,3.32c-1.85,1.94-3.62.88-5.3,1.26l-2.68,2.85c.31.33.67,1.06,1,1.07,4,.08,7.94.05,12.27.05.3-2,.58-3.79.88-5.8h6.76c1.44,1.12.55,2.57.81,3.8-1.86.22-3.83-.52-5.72.65l1.4,2.68c-1.4,1.32-3.1.34-4,.53L972,306c-2.38-.24-5.13.89-6.84-1.84a42.16,42.16,0,0,0-4.51.28c-.29,0-.44,1-.65,1.56h-7.59c-.2-2.37,1.26-1.88,2.23-2,1.43-.17,3.36.55,3.08-1.9,1.27-.32,2.82-.18,1.46-1.93a17.45,17.45,0,0,0-1.46,1.93c-4.66-.11-9.61-.11-14.74-.11-.6-1.28-1.24-2.64-1.88-4l-2.18,2h-6.06C930.82,297.18,927.37,295.5,926,292Z" transform="translate(-192 -236)"/><path class="cls-1" d="M700,486c-.53-2.87-3.47-3.74-4.9-5.95L693,482h-4.17c-.24-.75-.53-1.59-.79-2.44-.3-1-.76-1.78-2-1.55v-2.53l2-3.47h3.09l1.82-4H696a16.49,16.49,0,0,0,3.59,7.68c.3-1.94.57-3.76,1.07-7,1.59,3.78,2.57,6.25,3.7,8.63.19.41,1.08.49,1.64.72.43.67.72,1.65,1.33,1.92A7.17,7.17,0,0,0,710,480c-.23,1.23.52,1.81,1.53,2s2-.09,2.94.06,1.76.74,1.53,2c.21,1.21.1,2.6.68,3.59,2,3.37,3.47,7,5.32,10.41-1.18.2-2.49-.48-4,1v5c-2,1.18-4.33,1.81-5.87,3.17-.93,2.69,4.4,4.15.75,6.83H708l-1.82-3.15,1.82-2V500l1.77-.71a13,13,0,0,1-1.71-2.92c-.42-1.44.57-3.24-1.14-4.37H704C704.32,488.9,703.16,486.78,700,486Z" transform="translate(-192 -236)"/><path class="cls-1" d="M386,330h3l1.44-1.47c2.11-1.08,4.41-.4,6.65-.43l1.66,1.66h10.72c.2-.79.44-1.68.65-2.52-.61-.48-1.07-1.15-1.57-1.19-2.61-.21-5.24-.2-7.85-.42-.28,0-.48-1.06-.71-1.63h8.81l2.09-1.83c.54-.05,1.15-.13,1.77-.16a3.92,3.92,0,0,1,3.46,1,4.33,4.33,0,0,0,2.47.93c1.22.16,2.58-.24,3.38,1.09.14.23,0,.63,0,.95v2.84c1.88,1.81,3.26,4.26,6,5.16l-1.71,3,1.71,3-4,0c0,1.64,0,2.81,0,4h-7l-1.74-1.9c-3.12-.26-6.7,0-10.2-.12l-2.22-2.05h-4.33c-.29-1.83-.58-3.66-.92-5.77-4,.69-6.92-2.81-10.86-2.54C386.5,331.64,386.23,330.57,386,330Z" transform="translate(-192 -236)"/><path class="cls-1" d="M644,376c.15,2.27,2.21,3.09,3.52,4.4a21.74,21.74,0,0,0,4.27,2.71l-1.8,2.15c0,1.49,0,2.83,2.22,2.74,2.18-.33,3-2.86,5.1-4l1,3.07,7.66,3.84L664,393v3.54l2,3.43c.12,2.45-1.9,1.78-3.29,2.21l-1.53,3.57L658,404c-.23-.56-.31-1.41-.72-1.63a19.37,19.37,0,0,0-3.2-1.18l2-2.78c-.26-2.52-2.28-2.94-2.86-4.38h-4.12l-2.2-2.08c-.62,1.36-1.23,2.69-2,4.31-2-3.94-.08-8-1.34-11.71-2.12-1.11-4.44-.25-6.64-.6-1-2.43-4.31-1.28-5.48-3.48s-3.83-2-5.45-3.51c-.16-.15,0-.63,0-1h6.84c1.29-.8,2-2.68,4.26-1.93l2,4.34Z" transform="translate(-192 -236)"/><path class="cls-1" d="M912,274v3c2.37,2.32,4.47,5.11,8,6.07.08,0,0,.61,0,.93H905.19c-1.21-1.61-3.14-1.91-4.89-2.66-.42-1.61-.83-3.16,1.71-3.37a4.56,4.56,0,0,0,1.67-.69c.08,0,0-.44-.08-.68-2.11-1.34-4.45-.05-6.4-.74L894.88,278H880v-5l5.06-4.89h5.69l2.27-2h5.84c2.83,1.93,6.89,3.69,9.14,3.95.22,1.17-.5,1.74-1.44,2s-2.36-.23-2.16,2Z" transform="translate(-192 -236)"/><path class="cls-1" d="M238,264c-.23-1.23.56-1.66,1.53-2,1.13-.42,2.24-.92,4.48-1.86h10.84l2.09,1.65a41.29,41.29,0,0,1,4.36.61c.34.08.47,1.05.7,1.61s.36,1.53.7,1.61a43.81,43.81,0,0,0,4.56.64c1.41,1.47.4,3.19.75,4.75-1.85,2.23-4.4.08-6.14,1.21L258.45,270c-2.48.19-4.11,3.4-7.71,1.68l-4.9-5.67h-4.37Z" transform="translate(-192 -236)"/><path class="cls-1" d="M620,370c-2.37,0-2.71,2.68-4.54,3.56-2.78.69-5.68.25-8.41.49-.69-.68-.41-1.56,1-3.9.22-2-2-2.41-2.61-4.15a35.18,35.18,0,0,1-3.85,0,1.56,1.56,0,0,1-1.55-2h10.79l2.1-1.81h4.33c1.4,1.58.47,3.26.64,4.07Z" transform="translate(-192 -236)"/><path class="cls-1" d="M704.46,282c2.07.25,4.69-.57,7.6.52L710.15,285v6.25L706.39,294H703c-1-2.45-3.93-1.69-5.61-3.35-1.07-1.07-3.47-.79-5.54-1.16,2-2.54,4.42-1.17,6.49-1.42,1.86-.24,3.81.16,6.05-.46L702.1,285Z" transform="translate(-192 -236)"/><path class="cls-1" d="M682,421.38V417c2.87-1,5.19-3.63,8.91-3l2.93,2.72c.06,1,.14,2.27.26,4.16l-6.35,5.18C685.13,426.29,684.7,422.1,682,421.38Z" transform="translate(-192 -236)"/><path class="cls-1" d="M400,309.85h-9.16c-1.53-1.44-.5-3.18-.84-4.69-.8-1.29-2.68-2.05-2-4,1.11-1.85,2.92-.81,5.16-1.45l2.85,4.91v.52l4,1.79Z" transform="translate(-192 -236)"/><path class="cls-1" d="M414,264a1.55,1.55,0,0,1,1.49-2c1.83-.24,3.93.55,5.17-1.75A4.94,4.94,0,0,1,424,264c-.23.56-.44,1.61-.69,1.62-2.87.11-5.75.11-8.62,0C414.44,265.61,414.23,264.56,414,264Z" transform="translate(-192 -236)"/><path class="cls-1" d="M666,430.07v-3.4l3.58-1c.17,1.52.29,2.62.45,4.08Z" transform="translate(-192 -236)"/><path class="cls-1" d="M610.6,284.88c-2.76,1.43-4.53,1.52-6.29.43C605.9,284,605.9,283.92,610.6,284.88Z" transform="translate(-192 -236)"/><path class="cls-1" d="M706,278a1.7,1.7,0,0,1,2-2A1.7,1.7,0,0,1,706,278Z" transform="translate(-192 -236)"/><path class="cls-1" d="M1242,366v-8.89l-2-2.1c1.32-2.08,3.65-.25,5.36-1.46l1.27-3.26c.44.26,1.2.45,1.26.78A16.81,16.81,0,0,1,1248,354a5,5,0,0,0,3.37,3.72c1.1-1.17.45-2.51.63-3.72v-2.95a2.27,2.27,0,0,1,3.31-.68c1.56,1.07,2.78,3.08,4.44,3.47,2.58.62,3.29,3.64,5.24,3.91s3.17,2,5.15,2.6l2.94-2.27,1.68,1.68,2.61-1.77c2.71,0,3.92,1.7,4.63,4h-16.88l-2.14-2h-10.29l-1,3.3c-2,1.42-4.4.37-6.19.63Z" transform="translate(-192 -236)"/><path class="cls-1" d="M1244,384c-2.83-.5-3.6-3.49-5.86-4.57v-8.69c1.47-.8,1.88-2.85,3.86-2.74,2,.6,3.6,2.11,5.64,2.73.27.08.25,1.12.42,2l-4.5,4.91,2.45,3.91C1246,382.9,1245.84,384.15,1244,384Z" transform="translate(-192 -236)"/><path class="cls-1" d="M3950,312v-3c-2.48-3-3.8.73-6.08,1l-7.5-4.05H3930a1.54,1.54,0,0,0-1.37-1.95A39.69,39.69,0,0,0,3924,304c0-.31-.1-.84,0-.9,1-.47,2.39-.59,3.08-1.34.92-1,1.31-2.5,2-3.74.07-.13.59,0,.9,0a4.71,4.71,0,0,0,3.61,3.91c2.32.65,4.07,3.32,6.91,2.07a8.1,8.1,0,0,0,1.48-1v-3.46c-.79-1.37-1.39-2.43-2-3.48,1.21-.24,2.61.58,3.82-.84v-2.42c-1.21-1.26-3.25-.33-4.23-2.06-.77-1.39-2.38-.43-3.59-.68v-7l-2.87-2.77c-3.88-.3-4.52-.48-5.05-1.61,3-1.21,1.86-3.66,1.63-5.88-1.85-2.8-5.94-2.58-7.62-5.62.13-1.57-.65-3.24.5-4.69l3.41-1.15V258.9l-4.39-2,3.79-1.33,3.42-7.53h10.56c1.23,1.89,2.58,3.94,3.77,5.78l2.61.84c.25,1.22.43,2.13.6,3,2.93.27,2.93.27,5.64-.61v-5h8.92l2.12-2h3c.24,1.21-.58,2.61.83,3.82h5.61l4.94-2.48c1-2.11,1.83-3.72,2.62-5.34,2.54-.32,3.22-3.11,5.83-4.21l3.7,2h14.71l3.72,2.5,3.33-2.27H4015L4017,246h5v3l2.95,2.8h12.31c.29-.72.51-1.28.74-1.84h6c0,.33-.12.89,0,1,2.45,1.26,4.94,2.46,7.53,3.73.6,2.36,1.67,4.33,4.45,5.39,3.43,1.31,6.63,3.2,9.94,4.84-.2.25-.37.67-.58.69-2.6.21-5.2.36-8.26.55l-2.29,1.84c-1.49,0-3.56-.41-5.37.11s-3.54,2-5.29,3l5.78,3c.68.11,2.39-.62,4.36.79-2.45,1.15-4.6,3-6.61,2.88-3-.21-4.39,2.32-7,2.73-2.27.35-2.34,3.52-3.57,5.31A16.35,16.35,0,0,1,4035,288h-12l-2.78,5.6,3,.63c1.39,1.65,1,3.48.21,5.46-2.46.42-5,.81-7.44-.51l2-2.24V291c.67-.73,1.29-1.43,1.91-2.12-1.05-1.05-1.05-1.05-5.45-.39-.08.24-.29.59-.21.69.42.51.92,1,1.45,1.49a6.28,6.28,0,0,1-3.9,3.41c-1.73.59-3.1,2.22-4.86,3.57l-1.95-1.57c-1.32,2.62-2.65,5.26-4,7.88-1.05,0-2,0-3.61.08,2.54-3.32,2.54-3.32,1.61-6.41-1.28,1.24-2.37,2.29-3.42,3.29a7.12,7.12,0,0,0,1.81,3.12A5.28,5.28,0,0,1,3998,307c-.23.22-.45.63-.7.65-2,.19-3.91.31-5.51.43-1.87-.5-2.45-2.84-4.71-2-.58.53-1.31,1.18-2.11,1.89h-6c-.62,1.34-1.26,2.69-2.08,4.45l-1.46-4.23-6.2-.3-4.09-2.75c-1.18,1.92-2.23,3.61-2.8,4.53l-5.76.65-1.45,4.12Zm-12-50c-.23-1.22.52-1.79,1.52-2,1.51-.28,3.26.58,4.49-1l-2.9-2.83h-7.45L3928,259v2.11l4,1.8V266a11.82,11.82,0,0,0,4.59,8,16.92,16.92,0,0,1,2.9,2.51c.94,1,1.87,1.8,3.43,1.42a11,11,0,0,0,4.15-5.95c1.65,0,3.3.06,4.94,0a6.49,6.49,0,0,0,1.8-.71v-2.54c-1.6-1.33-3.31-.44-4.85-.72s-3.27.67-4.78-.75a26.75,26.75,0,0,0-.2-2.77,21.21,21.21,0,0,0-.76-2.48Z" transform="translate(-192 -236)"/><path class="cls-1" d="M3996,320h3.09l1.89-4H4003l3.78-3.78c4.07,1,7.18-4.19,13-1-.1-.18.64,1.24,1.31,2.54l-4.92.74v5.12l2.91.63L4023,328l2.14.19c.23.23.68.65.67.67-1.22,1.42-2.44,2.82-2,4.89-2.54-.19-1.59-1.82-1.95-2.82l-5.56-2.85a63.09,63.09,0,0,0-8.13.11c-.13,2.61-.24,4.84-.37,7.33l-2.62.62-2.28-2.12H3991a30.56,30.56,0,0,0-3.56-3.46,12.88,12.88,0,0,0-3.4-1.25v-4.47a20.46,20.46,0,0,0,3.23-1.18c.42-.22.5-1.07.73-1.64,2.2,0,4.4.11,6.59-.05A1.53,1.53,0,0,0,3996,320Zm12.89-2.11-3,.57c.24,1.37.44,2.48.65,3.71,1.95-.9,4.21,1.31,5.23-1.4Z" transform="translate(-192 -236)"/><path class="cls-1" d="M4104,312h-4a1.7,1.7,0,0,0-2,2h-3.06a30.47,30.47,0,0,0-3.47-3.44,13.84,13.84,0,0,0-3.47-1.27c0-1.48-.55-3.39.1-4,2.19-2,1.66-5.72,4.67-7.07,2.21-.15,4.67-1.25,5.81,1.61l7.12.37c.1,1.19.17,2.09.23,2.85-1.48,1.65-3.25.6-4.82.95-1.7,1.25-1.34,2.6-.22,4l2.17-2,2.78,2.78Z" transform="translate(-192 -236)"/><path class="cls-1" d="M4214,286c-1.6-.24-2,1.33-3,2s-1.4,2.24-3,2h-3.58l-3.27,4.15-2-2-6.59-.34c-.24-.81-.49-1.69-.74-2.54l2-2.16L4192,284l4.66-2.18c-1.69.58-1.11.21-.53.21,5.29,0,10.58,0,15.87,0,.22.55.35,1.51.68,1.59,1.19.27,1.39-.62,1.32-1.59h2l2.65,1C4216.38,283.71,4216.27,286,4214,286Z" transform="translate(-192 -236)"/><path class="cls-1" d="M4038.48,323.48l1.46,1.56v4a6.05,6.05,0,0,1-1.69.87c-1,.14-2.52.46-2.91,0-1.88-2.39-6-1.29-6.38-3.11-2.21-5.13,1.12-7.39,1.66-10.62h6.62C4038.87,318.39,4037.35,320.81,4038.48,323.48Z" transform="translate(-192 -236)"/><path class="cls-1" d="M4099,266l1.75,1.76h8c1.36,1.36,1.36,1.36.7,5.82-4.3,1.63-7-1.69-11.45-3.46h-8.38l-5.44-3.29c.35-.36.58-.8.81-.8C4089.67,266,4094.33,266,4099,266Z" transform="translate(-192 -236)"/><path class="cls-1" d="M4050,332c-.45.78-.92,1.55-1.33,2.35-.27.52-.45,1.1-.67,1.65-1.21.25-2.71-.67-3.63.67-1.15,1.67-2.78,1.33-4.37,1.33v-3.13l3.43-2.87Z" transform="translate(-192 -236)"/><path class="cls-1" d="M4178,320a1.7,1.7,0,0,0-2-2c.21-.55.43-1.1.75-1.91,2.71,0,5.52,0,8.34,0,.22,0,.45.42.69.66-1,2.68-3.27.48-4.65,1.44Z" transform="translate(-192 -236)"/><path class="cls-1" d="M4058,434a1.7,1.7,0,0,1-2,2v-2Z" transform="translate(-192 -236)"/><path class="cls-1" d="M3948,242h-9c-.6,1.29-1.22,2.65-1.84,4h-2.06c-.34-.47-.95-.93-1-1.46-.16-1.34-.13-2.67-2.05-2.52l-3.09,0c-2.63-3.07,1.41-3.92,1.09-6h15.27C3945.84,238.4,3947.48,239.94,3948,242Z" transform="translate(-192 -236)"/><path class="cls-1" d="M462,248h-8.91L451,250H447c-.74-.68-1.45-1.35-2.14-2H430.51c-.18-1.06-.37-2.19-.52-3.06.66-.53.9-.9,1.15-.9,6.6,0,13.2,0,19.91,0,.39.44.82.93,1.17,1.31a6.44,6.44,0,0,0,1.86.66c2.64.07,5.28,0,7.92,0Z" transform="translate(-192 -236)"/><path class="cls-1" d="M461.77,247.44l2.05,1.74C462.07,250.54,462.21,249,461.77,247.44Z" transform="translate(-192 -236)"/><path class="cls-1" d="M340,370V360c1.84-.2,3.76.47,6.08-.81-.66-2.11.85-4.55-.71-6.82-1.61.68-3.21,1.25-4.7,2-.39.21-.45,1.05-.67,1.6v2a1.7,1.7,0,0,0-2,2h-2a7.17,7.17,0,0,0-.08-2.67c-.27-.61-1.25-.9-1.92-1.33v-2.8c1.77-2.65,4.93-4.05,6-7.2,2.08.2,2.27-2.19,3.76-2.54.2-1.79.37-3.35.57-5.09l3-.61c.32-.95.71-2.09,1.2-3.5,1.8.9,3.59,1.78,5.37,2.68l5.68,2.9h7.63L368,338c2.65-.2,1.57,2.22,2.51,3.56,1.19,1.25,3-.14,5,1l1.51,1.44H380a1.7,1.7,0,0,1-2,2h-6c-3.16.78-4.32,2.9-4,6-.21.54-.27,1.38-.65,1.57a29.27,29.27,0,0,1-3.89,1.29c2.38,1.65,4.54,1,6.54,1.14a7.17,7.17,0,0,1-.08,2.67c-.27.61-1.25.9-1.92,1.33h-8.9c-2.91,2.42-5,5.79-9,7a2.87,2.87,0,0,0-2.13,3Zm14-20h6c-.15,1.87,1.13,2,3.32,2l2.25-3.29-5-2.58h-5.82L354,348v2c-1.28.37-3.09-1-3.83,1.17C352.82,352.05,352.82,352.05,354,350Z" transform="translate(-192 -236)"/><path class="cls-1" d="M368,336c.43-.67.72-1.65,1.33-1.92A7.17,7.17,0,0,1,372,334c-.43.67-.72,1.65-1.33,1.92A7.17,7.17,0,0,1,368,336Z" transform="translate(-192 -236)"/><path class="cls-1" d="M722,620c.43-.67.72-1.65,1.33-1.92A7.17,7.17,0,0,1,726,618a1.7,1.7,0,0,0,2,2h3c2.93,1.4,2.74,5,4.91,7,1.83,1.67,3.34,3.69,6.69,3.46l-2.2,2.2c.38,2,2.35,2.71,3.41,4.17.83,2-1.23,5,2.16,5.76v4.3l2,2.19v3h-4c-2,.1-2.44-2-3.91-2.81V645.1l-4.07-2,2-2.14c-1.86-2.16-4.87-3.5-4.22-7h-2.89c-1.52-1.58-4-3-4.5-5s-2.4-3-2.36-5c.55-.22,1.51-.35,1.59-.68.27-1.19-.62-1.39-1.59-1.32A1.7,1.7,0,0,0,722,620Z" transform="translate(-192 -236)"/><path class="cls-1" d="M1316,1610h-3c-1.46,1.36-1.29,2.59,0,4.08,2.14,2.45,1.4,4.72-.93,6.82v9.53c-1.61,3-5.12,4.27-6.09,7.57h-4v-2.83l-2.07-2.61c.1-2.52,1.82-3.23,2.91-4.3s.82-2.38,1.4-3.36c.81-1.36,2.3-2.3,3.35-3.54.73-.87,2.16-1.26,2.06-2.73-1.45-1.25-3.16-.29-4.69-.67-.32-.52-.9-1-.92-1.56-.09-2.58,0-5.16,0-7.59l2-.81h6.79l2-1.75.64.19C1316.51,1607.48,1315.79,1608.81,1316,1610Z" transform="translate(-192 -236)"/><path class="cls-1" d="M1308,1578h15c.9,2.68.9,2.68.66,5.39-1.44,1.2-3.13.37-4.69.54l-1.74-1.74c-.57.41-1.18.87-2.17,1.61h-6.28c-.27-.66-.51-1.23-.74-1.8.55-.22,1.51-.35,1.59-.68.27-1.19-.62-1.39-1.59-1.32Z" transform="translate(-192 -236)"/><path class="cls-1" d="M2414,590a1.55,1.55,0,0,1,2,1.52c.16,1.34.16,2.62,2,2.48v4c-.67,3.1,1.55,5.29,2.84,7.58A8.49,8.49,0,0,1,2422,610h-4c-1.93.15-1.41-1.77-2.1-2.44-3.23-3.13-4.12-8-7.9-10.39V592l3.47-2Z" transform="translate(-192 -236)"/><path class="cls-1" d="M2094,696l2,3.47V702a7.17,7.17,0,0,0-2.67.08c-.61.27-.9,1.25-1.33,1.92h-6v-2c0-.31-.09-.85,0-.89a18.17,18.17,0,0,0,7.09-5.09C2093.24,695.87,2093.69,696,2094,696Z" transform="translate(-192 -236)"/><path class="cls-1" d="M1330,1496c-.26,2.27-2,6.33-4,9.2V1520c-.33,0-.79-.14-1,0-1,.89-1.88,1.86-2.9,2.89l1.8,2.09c0,1.48.4,3.1-.34,4.65-2.25-.34-2.71-2.64-4.81-3.26l-1.72,1.48c-2.52-1.27.26-4.45-2.11-5.89l-2.83,3.12v7.67l2.27,3.18-2.22,3.12,1.83,2V1545l2,2.13c-.33,2.24.77,4.61-.87,6.87-1.72-3.24-3.37-6.37-5.29-10v-5.21L1308,1538v-3l-1.32-1.2a6.76,6.76,0,0,1-.65-1.83c-.07-2.3,0-4.6,0-7.4l4-3.38V1515l1.79-1.79c.08-1.86.19-4.07.29-6.32,2.14-1.38,3-4.32,5.87-4.84.21.55.34,1.51.66,1.57a40.3,40.3,0,0,0,4.41.51l4-8.08Z" transform="translate(-192 -236)"/><path class="cls-1" d="M1318,1496v2a1.7,1.7,0,0,1-2-2Z" transform="translate(-192 -236)"/><path class="cls-1" d="M2086.16,703.72c-1.34,2.33-1.34,2.33-4,1.45C2082.93,703.09,2084.75,704.49,2086.16,703.72Z" transform="translate(-192 -236)"/><path class="cls-1" d="M3769.85,306v5l-2.19,2.39c-.4.27-.66.58-.92.59-2.63,0-5.26,0-7.74,0l-3.65-3.65-3.53-1.17,3.1-3.1h4c1.24.54,1.82,2.86,4.6,1.36L3765,306Z" transform="translate(-192 -236)"/><path class="cls-1" d="M3750.32,306.68,3747,310c-2.6,0-5.26,0-7.92,0-.24,0-.48-.4-.9-.77v-2.4c1.58-1.48,3.34-.42,5.13-.93.35-1,.75-2.18,1.2-3.45a4.69,4.69,0,0,1,1.35.48C3747.38,304.12,3748.84,305.41,3750.32,306.68Z" transform="translate(-192 -236)"/><path class="cls-1" d="M3774.75,305.86l2.87.52c.16.78.33,1.67.5,2.5-2.07,1.83-4.06,1.75-5.74.45C3773.24,308.07,3774.13,306.78,3774.75,305.86Z" transform="translate(-192 -236)"/><path class="cls-1" d="M602,400h-4v-3.43l2.93-.59C602.6,397.37,601.76,398.78,602,400Z" transform="translate(-192 -236)"/><path class="cls-1" d="M599.62,390.28a12.61,12.61,0,0,1,.31,2.65c0,.27-.79.57-1.26.71-.15,0-.64-.42-.63-.64,0-.89.2-1.78.31-2.67Z" transform="translate(-192 -236)"/><path class="cls-1" d="M627.29,390.29l.71.71a6.53,6.53,0,0,1-1.34.63c-.17,0-.44-.41-.66-.63Z" transform="translate(-192 -236)"/><path class="cls-1" d="M3042,656c.23.57.47,1.14.76,1.85h16.15l1.94-1.6a26.47,26.47,0,0,1,9,4.56v3.64l6.16,5.62V674l-3.18-1.83c-1.24,1.24-1.3,2.56.26,3.83H3076v2.74c1.2,2.38,4.42,3.88,6.09,6.87a24.54,24.54,0,0,1-.46,3.67c-.1.36-1.06.49-1.63.72a1.7,1.7,0,0,0-2-2,4.91,4.91,0,0,0-4-4c-.2-.53-.38-1.51-.59-1.52-2.18-.06-3.39-2.17-5.41-2.48v-7.16l-2.84-2.84H3056a1.7,1.7,0,0,0-2-2v-2.89l-9.77-5.11H3040l-4.26,2.27-2.84-2.17-1.64,1.64a9.42,9.42,0,0,0-2.64-1.67,11.57,11.57,0,0,0-3.18-.07l-3.87-2.56A34.47,34.47,0,0,1,3018,661a27.32,27.32,0,0,1-4,2v3h-4v-2.94c-3.22-3.26-5.66.52-8.67,1l-2.33-1.88h-6.17c-1.52,1.52-.48,3.25-.69,4.15L2990,670v2c-1.21-.25-2.71.67-3.63-.67-1.15-1.67-2.78-1.33-4.37-1.33v-2.93c-.94-1-.94-1-1.29-2.78,3-.95,6.37.66,9.36-1.19-3-2.64-7,.33-10-2,2.34-1.37,5.29-1.92,6-5.13h6c4.21,0,4.21,0,8-2a9.34,9.34,0,0,1,4.45,1.19c2.65,1.31,5.13,3.94,6.57,3.43l6.85-3.48c0-.64.09-1.28.13-1.85l3.73-3.56c.55-1.72-.5-3.41,1.64-3.37,1.67,2.27-.45,5.19,1.37,7.39l2.67-1.57c.51,1.5.9,2.64,1.35,3.94.87-.82,1.56-1.46,2.28-2.12,1.27,0,2.6-.1,3.9,0,1.56.15,3.25-.63,5.63,1.3Z" transform="translate(-192 -236)"/><path class="cls-1" d="M3040,570v3.09l-2.28,2,8.29,5.73v2.51c.8.22,1.66.45,2.51.71s1.71.8,1.48,2c-2.51-.29-5.1.56-7.33-.33l-1.6-1.6-2.78,2.23L3034,584h-4a1.55,1.55,0,0,0-1.52-2c-1.34-.15-2.62.08-2.48,2h-6a7.17,7.17,0,0,0-2.67.08c-.61.27-.9,1.25-1.33,1.92v2c-3.31,1.61-6.81,2.91-9,6h-5c.2-.54.26-1.37.64-1.55a21.44,21.44,0,0,1,3.42-1.12c-1.83-1.25-1.83-1.29-4.06-1.33v-4.92l1.87-2-2-2.73c1.51-5.05,7.53-4.2,8.94-8.34h12.13l2.1,2c2.17-.12,4.44.58,6.64-.51.08-2.12-1.57-1.17-2.55-1.48-.93-1-2.43-1.7-2.73-3.34,1.43-1.36,3.16-.1,4.5-.74l2.24,2.12Zm2.58,10.83c-4.83-.91-4.83-.87-6.24.52C3038.11,582.35,3039.89,582.35,3042.58,580.83Z" transform="translate(-192 -236)"/><path class="cls-1" d="M3138,516c.23-.56.45-1.12.71-1.76,2.74,0,5.38-.88,8.12,1.29,1.45,1.15,4.29.52,6.48.86.3.05.46,1.05.69,1.61a1.47,1.47,0,0,1-1.44,1.92c-1.11-.07-2.19-.74-4.82-1.72h-5.88Z" transform="translate(-192 -236)"/><path class="cls-1" d="M3016,638c-.35-2.55.68-5.22-.66-8l-2.56,2.07-2.71-2.58c-.32-3.81,2.52-4.49,3.85-6.44v-7.78c.67-.76,1.32-1.48,2-2.21-.16-.2-.33-.63-.53-.65-3.26-.22-6.52-.38-9.51-.55l-7.37,4.06h-7.42l-2-1.82L2987,616h-12c-.6,1.3-1.23,2.64-1.87,4-1.78-1.38-.73-3.18-1.05-4.69.94-2.1,3.66-2.83,4-5.34h8l-1.67-3.34c.34-.27.59-.63.84-.64,7.23,0,14.45,0,21.74,0l2.1-2,2.07,2c2.06.71,2.8-1.24,4.2-2H3019c.5-.51,1-1,1.72-1.72l2.61,1.76c.33,0,.72.11,1,0,1.9-1,3.78-2,5.63-3,.14-.08,0-.62,0-1h10c.29.65.59,1.3.79,1.74L3044,600c0,1.59-.34,3.22,1.33,4.37,1.34.92.42,2.42.67,3.63-1.22.25-2.65-.61-3.67.64-.39,1.17-.78,2.31-1.14,3.35H3037l-2.73-2.73,4.4-4.17c-2.09-.89-2.54-2.87-4.42-3.11-3,.44-3.44,3-4.71,5.21s-3.71,4.14-4.44,6.47c-1.83.83-3.64-.44-5.07,1.34l4.13,2a24.38,24.38,0,0,0-4.12,2.1,43,43,0,0,0-4,3.89l2.07,2.45v5.74l1.52,1.52c.43,4.37.42,4.37-.68,5.35Z" transform="translate(-192 -236)"/><path class="cls-1" d="M2976,656c-.2,2.51-3.07,3.09-3.88,5.58l5.54.82c0,2.47-1.85,1.1-2.7,1.64a21.56,21.56,0,0,1-3.57,3.46,51,51,0,0,1-6.49,2.81l-3.06-4.26h-9l-1.15-3.39c-1.75-1.28-3.78-.4-5.68-.66l-2-3.71a4.85,4.85,0,0,1,4-4.29c.23.56.38,1.56.69,1.61,1.89.29,3.81.37,6,.54l5.06-4.61,3.85,2.52h11.66C2975.55,654.88,2975.77,655.44,2976,656Z" transform="translate(-192 -236)"/><path class="cls-1" d="M2984,656h-4v-2.93c1.12-.91,1.73-2.45,3.4-2.71C2984.53,652.16,2983.77,654.14,2984,656Z" transform="translate(-192 -236)"/><path class="cls-1" d="M2973.93,607l5.68-2.76c.18,1,.33,1.91.48,2.75C2978,608.66,2976,608.67,2973.93,607Z" transform="translate(-192 -236)"/><path class="cls-1" d="M3000,594h2a1.7,1.7,0,0,1-2,2Z" transform="translate(-192 -236)"/><path class="cls-1" d="M3952,252c-2.63-.35-5.46.72-8.46-1,2.93-1.48,5.37-1,7.77-.72Z" transform="translate(-192 -236)"/><path class="cls-1" d="M806,633V631l5.36-2.61c1.26,1.44.32,3.13.65,4.68A4.28,4.28,0,0,1,806,633Z" transform="translate(-192 -236)"/><path class="cls-1" d="M717.77,503.44l2.05,1.74C718.07,506.54,718.21,505,717.77,503.44Z" transform="translate(-192 -236)"/><path class="cls-1" d="M2948,670c-.24,1.6,1.33,2,2,3s2.24,1.4,2,3h-5.21l-1.1,3.35c-1.32,1.49-3.11,0-4.5.8L2938,682v-4.93c-1.52-2-3.48-.9-5.3-.77l-1.54,1.54H2925c-1.19-.63-1.21-1.24-.25-1.54a48.76,48.76,0,0,0,7.41-3.51c.72-.36,1.17-1.27,1.74-1.93-1.35-1.22-2.62-2.29-1.52-4.23,2.06-1.31,4.38-.37,6.59-.63l2.12-2H2946v2c-.21.54-.27,1.38-.65,1.57a22.72,22.72,0,0,1-3.41,1.13C2943.74,671.07,2946.05,669.59,2948,670Z" transform="translate(-192 -236)"/><path class="cls-1" d="M2938.56,681.77l-1.74,2.05C2935.46,682.07,2937,682.21,2938.56,681.77Z" transform="translate(-192 -236)"/></g></g></svg>