<svg xmlns="http://www.w3.org/2000/svg" viewBox="0 0 4320 2160"><defs><style>.cls-1{fill:#a8affc;}</style></defs><g id="Layer_25" data-name="Layer 25"><g id="Dwa"><path class="cls-1" d="M3636,612h-2.93l-2.11,2h-3.47l-7,4H3616c.26-1.23-.63-2.67.7-3.67,1.6-1.13,4,.82,5.31-1.48,0-.65-.07-1.3-.11-2L3618,609c-.41-2.71,1.88-3.46,3-5h2l5-5v-4.09l-2.87-2.69h-9.33c-3,3-6.27,6.26-9.87,9.87-2.28-2-3.46,1.62-5.57,1.82-5,.49-3.66,6.63-7.79,8.11H3589l-2.08,1.86h-4c-2.62-2.17-2.62-2.17-4.23-1.59-.84,1.65-1,3.68-2.63,4.83v3.92L3579,624c1.93,0,3.92-.1,5.91,0,2.24.13,4.58-.64,6.7.55l2,4.82-1.46,1.46c0,1.58-.63,3.21.56,4.92h8.52l4.83-4.83,5.57-3H3614c2.19.28,3,2.37,4.93,3.81h10.91l6.12,3.13v4.45c-3.5,1.57-7.5-.09-11.19.84-1.19,2.21-3.3,1.7-5.39,1.78-2.38,1.17-3.53,4.55-7,4.29l-.67,3.17-2.86.77c-2.6,3.79-8.55,4-10.88,10.07v6.58c.8,1.44,2.18,1.08,3.44,1.11s2.7.06,2.55,2c-2.44.39-3.27,2.83-5.1,4h-21.85l-2.17-2H3547l-2.28-2.06h-4.82c-.77-1.16-1.85-2.83-2.56-3.91h-5.94c-2.62,2.3-6.67,2.58-8.24,6-2.48.32-4.85-.75-7,.77-.18,1.58-.37,3.15-.59,5l-6.86,4.1h-6L3501,680c-3.09,0-6.39,0-9.68,0-.39,0-.76.74-1.13,1.14,1.49,1.4,3,2.8.59,5a9.22,9.22,0,0,1-2.47-.94c-1.3-1-2.43-2.18-3.67-3.23-.2-.16-.65,0-1.43,0l-4.68,4.23a4.81,4.81,0,0,1-5.39-2.09c-1.21.36-1.52,2.2-3.14,1.86a1.7,1.7,0,0,0-2-2c.23-1.87-.55-3.86.59-5.62l3.55-1.16c-1.35-1.84-3.1-1-4.61-1.24-1-.19-1.76-.75-1.53-2,1.66.3,2-1.52,3.35-2h4.9c1.81-.87,2.87-1.66,4-1.9,2.77-.57,6.19-2.29,7.71-4h3l2.14,2c2.92-.13,5.85.25,9-.32V657.5c2.16-3.47,2.94-6.8,5.92-8.35V646l3.76-2.14c.74-.14,2.38.69,3.78-.39.16-.27.44-.52.44-.78,0-2.23,0-4.46,0-6.69.43-.67.72-1.65,1.33-1.92A7.17,7.17,0,0,1,3518,634c.67,1.35,1.67,2.65,1.92,4.08.33,1.89,2.84,2.75,2.21,5a12.33,12.33,0,0,0,1.49.63c.21-1,.38-1.93.58-2.9,2-1.54,5.61-1.4,5.76-4.42l-6.12-6.4H3522v-4.92l2-2.08-2-2.07V618l4.7,2.29,3.1-3.09c.81-1.64-.93-4,1.34-5.18,2-.77,2.67,1.27,4.63,2.06l2.91-4.08c1.75,0,2.73,0,3.71,0a3.57,3.57,0,0,0,.87-.25c1.94-4.35,1.94-4.35,6.74-6.8V600h2.9c-.31-.31-.61-.62-.91-.94l4.62-2-2.61-1v-3l7.74-3.86c.36-1.26.62-2.14.86-2.94l6.58-.34L3571,584c1.56,0,3.2-.08,4.84,0,1.91.12,3.89-.51,6.17.77.87,1.47,1.95,3.32,3,5.16,1.39-2.72,2.68-5.51,4.25-8.14.43-.73.86-1,.07-1.44l-3.37-1.12V576c2.37,1.44,5.15,2.11,7.32,4,.35.29,1.24-.08,1.87-.14,1.3-2.06,1.41-5,4.37-5.81h4.49l9.88-4.94c.57-2.68-.71-6,.8-9h4.15l2.16-2h5c.69,1,1.82,2.65,2.95,4.27l2.93-1v-4.17l4-4.2v-8l-3-3c-4.49,0-9.11,0-13.73,0-.26,0-.52.32-1,.61L3615,546h-5c0-2.93,4.23-3.24,4-6.37-.58-1-1.16-1.94-1.76-3,2.25-1.26,4.61-.37,6.83-.75l2.84-2.84c0-.64.06-1.29.15-2.92l5.75-4.61c.47-2.47-.53-4.28,1.16-5.54h2.1l1.78-3.79,2.92-.75c.19-1.85.36-3.43.52-5,4.2-.58,5.87-4.17,8.76-6.53,1.13,0,2.82.53,3.69-.09,3.29-2.33,7.23-3.37,10.52-5.7,1.31,3.08,5,.66,6.68,2.79l-2.09,2.32.83,2.68c1.86,0,3.51-.09,5.16,0,1.92.13,3.93-.54,5.76.55.35,1.85.7,3.67,1,5.43h3.48c.67-1,1.79-2.68,2.58-3.88h4.85l9.7,9.72,3.18.93c-1,2.2-1.88,4.12-2.72,6l3.46,3.32c3.21-.34,6.8.27,10.05-.28L3713,526h1.86l9.17-9c.05-.8.09-1.45.12-2.12,1.33-1.42,3.9-.65,4.85-2.81,1-2.36,3.86-1.94,5.62-3.42,1.31-1.1,3.28-1.61,4.89-2.57,1.83-1.1,4.42-1.22,5.84-2.62,1.77-1.73,3.56-1.33,5.57-1.46l4.22,4c.69-1.39,1.35-2.74,2-4l2.15-.23,3.58-3.58h8.51l2.57,2.78v4c-.7.9-1.21,1.55-1.75,2.26l7.85,3.55v2.27l-4.19,2c1.36,2.72-2.84,3.43-2.06,6.16.13.46-1.24,1.44-2,2.06a7.13,7.13,0,0,1-1.69.73c-.26-1.89.61-3.9-.78-5.83h-4.49a17.27,17.27,0,0,1-1.51,3.53A30.36,30.36,0,0,1,3760,525c1.59,1.7,3.35.66,4.91,1l2.13-2h3c-.34,1.62,1.51,1.93,1.84,3.08l-1.85,2.19,4.08,1.54c-.21,1.05-.45,2.17-.63,3.07-2.07.47-3.85-.59-5.56,1.25v8.59l-5.05.45a18.23,18.23,0,0,1-9.58,5.83l-3-2.41c-.3-2.38,0-4.11-.7-4.86-2-2.11-2-5.6-4.85-7-.95-.46-.94-.94.7-1.76h5.72l3.06-3.27c-.33-.94-.63-1.81-.84-2.43-2.09-.67-3.86-.11-5.83-1.39-2.46-1.59-5.23-3.73-8.7-3-2.94-3.33-6.67-1.51-10.11-1.5-.24,0-.47.44-.83.79.17.83.35,1.74.48,2.37,2,1.25,4.37-.6,5.82,2-1,1.85.85,4.32-1,6.33-2,1-3-.61-4.17-1.77h-4l-2.46,2.27-4.71-2.33a21.52,21.52,0,0,0-7.94,5v4.12l-2.89,2.89c-2.22.37-4.57-.53-5.68.09-1.84,2.66-3.07,4.42-4.21,6.05h-3.59l-5.77,5c.28,1,.52,1.93.79,2.91,2.58-1.83,2.58-1.83,5-1.33,1.08,1.9-.57,2.8-1.29,4.18s-.49,3.09-.78,5.58c-5.53,1-8.53,6-12.38,9.38l-1.53.37c-4,3,.75,3.49-.22,5.43l-3.44,1.17a29.51,29.51,0,0,0,.28,5.14c-1.27.32-2.82.18-1.46,1.93a16.29,16.29,0,0,0,1.46-1.93c.93-.14,2.43.78,3.35-.56,1.15-1.67,2.78-1.33,4.37-1.33v3c1.95,2.07,1.95,2.07,1.15,2.87l-6.41.34-2.94,3.17.83,2.26c2.53,1,4.92-.41,7,1-.15,2.2-3.38,2.46-3.08,5l5.41,1v6.34a6.93,6.93,0,0,1,2.24,4.07c.19,1.17,2.23,2.12,3.56,3a35.61,35.61,0,0,0,3.78,1.92l3.92.32c.53,1.56.91,2.71,1.28,3.79H3702c0,2-.05,4,0,6a6,6,0,0,0,.65,1.7c1.63,1.05,4-.78,5.36,1.51v5.2l4.11,2.45v6.4l1.85.76v3l1.95,2.1L3711,658h-4.27l-2.89,3.45c-3.79,1.27-6.78-.23-9.17.91-.84.79-1.31,1.24-1.79,1.68H3688c.38-2.48,3-3.25,3.9-5.07,0-3.47,0-6.75,0-10,0-.24-.44-.47-.67-.7l-3.14-.69c.78-2.22-1.76-3.24-1.91-4.89-.21-2.41-2.1-3.14-3.21-4.62H3678v-4c.2-2-2.08-2.23-2.53-4H3664a7.17,7.17,0,0,0-.08-2.67c-.27-.61-1.25-.9-1.92-1.33v-6.94c3.46-3.69,4.95-6.35,5.76-10.3-.24-.24-.47-.67-.7-.67-2.64-.05-5.28,0-7.91,0L3657,606h-15.54l-3.43,2c-.67.43-1.65.72-1.92,1.33A7.17,7.17,0,0,0,3636,612Zm-83.8,33,5.32-3.07H3567l3-3c0-3.17,0-6.46,0-9.76,0-.26-.34-.52-.51-.77l-1.27-1.27c-.22-1.07-.4-2-.56-2.74l-4.08-1.36c1.75-.83,3.07-1.44,5.94-2.78l-5.34-3c-.42-2.37.56-4.18-1.2-5.35-2.66,0-5.31,0-8,0-.24,0-.47.44-.71.67-.37,1.14-.74,2.27-1.16,3.53l-2.9-.76c-.1-.9-.16-1.54-.23-2.19l1.93-2.78c-2.39-.47-4.3-1.28-5.75.3-.22,1.13-.4,2-.64,3.2-2.17,0-4.24-.41-6,.11-2,.58-3.7,2-5.5,3.07-.06.7-.12,1.34-.17,2l-2.65,2.65-2.9.59c.15,2.3,1.79,1.33,2.8,1.69l2.85,2.85v5.89l4.08,4.28c0,4,0,7.94,0,11.91,0,.24.44.47.67.7l3.72-2.08,2.55,2.29c2.17-.1,4.48.64,6.73-.56C3551.89,647.83,3552.06,646.26,3552.2,645ZM3477,676c-.22.22-.66.49-.63.66A6.53,6.53,0,0,0,3477,678c.22-.22.66-.49.63-.66A6.53,6.53,0,0,0,3477,676Z" transform="translate(-10 -389.97)"/><path class="cls-1" d="M3974,1210c-.53-2.06-2.15-3.61-2.73-6h-6.22l-2.87-2.87L3964,1198v-2l3.47,2h3.5c2.16,1.46,3.16,3.73,4.14,6H3980v6.93c-1.52,2-3.49,1-5.3.69C3974.39,1211.56,3974.23,1210.56,3974,1210Z" transform="translate(-10 -389.97)"/><path class="cls-1" d="M3439.37,1052.84l-4.84-2.86H3431c-2-1.61-.23-3.6-1.07-5,1.87-1.66,3.57-.7,5.38-1.11.33-1,.7-2.15,1.08-3.3,1.4-1.25,3.1-.3,4.64-.62C3444.31,1044.7,3440.12,1048.09,3439.37,1052.84Z" transform="translate(-10 -389.97)"/><path class="cls-1" d="M3640,1090v3.09l2.11,1.81c-2.45,1.37-5.45,1.84-6.11,5.1h-4l2-3.71a4.85,4.85,0,0,0-4-4.29v-2.53l2-3.47c3.32-.67,5.21,2.36,8,3.11C3640.07,1089.13,3640,1089.69,3640,1090Z" transform="translate(-10 -389.97)"/><path class="cls-1" d="M1230,760c-.16-2,1.2-2,2.63-2,2.4,1.33,3.6,4.6,6.85,4.38,1.8,4.07-1.59,6.52-2.52,9.64h-5c0-2.85.08-5.71,0-8.56a1.52,1.52,0,0,0-2-1.44Z" transform="translate(-10 -389.97)"/><path class="cls-1" d="M3694,614c-.22.55-.43,1.1-.51,1.28L3688,610v-3.26l4-4V600h2c.43.67.72,1.65,1.33,1.92a7.17,7.17,0,0,0,2.67.08c-.32,2.51-3,3.16-4,5.49Z" transform="translate(-10 -389.97)"/><path class="cls-1" d="M1258,802h-5l-2.69-2.86c.28-.33.61-1.07,1-1.09,2.62-.1,5.25,0,7.78,0l1.51-1.51c1.48-.92,3.08-.39,4.9-.33.24.81.49,1.69.79,2.73l-4.21,2,2,2.16v3l-4,0c0-1.64,0-2.81,0-4-.22-.55-.35-1.51-.68-1.59C1258.13,800.14,1257.93,801,1258,802Z" transform="translate(-10 -389.97)"/><path class="cls-1" d="M3750,1110H3768c-1.77,2-1.77,2-7.11,2l-3.82,4.57-4.51-2.57H3748c.45-.78.92-1.55,1.33-2.35C3749.6,1111.13,3749.78,1110.55,3750,1110Z" transform="translate(-10 -389.97)"/><path class="cls-1" d="M3465,1048h2.11l1.78-4H3471c2.05,1.35.24,3.75,1.36,5.24.94,1.27,2.44,2.19,1.08,4.42l-2.23.45L3469,1052H3465C3463.53,1050.69,3463.57,1049.35,3465,1048Z" transform="translate(-10 -389.97)"/><path class="cls-1" d="M398,1268h-5.33a7.54,7.54,0,0,0-1.69-1.92,8.45,8.45,0,0,0-2.8-.46v-5.14l2.88-.67,3.65,4.19H398Z" transform="translate(-10 -389.97)"/><path class="cls-1" d="M1278,808v4.2l-3.07,3.83c-1.79-.06-3.08-.14-2.93-2,.55-.22,1.51-.35,1.59-.68.27-1.19-.62-1.39-1.59-1.32-2.84,0-1.46-2.06-2.23-3,2.36-1.58,4.35-.77,6.23-1Z" transform="translate(-10 -389.97)"/><path class="cls-1" d="M3930,1110c.45-.78.92-1.55,1.33-2.35.27-.52.45-1.1.67-1.65,1.85.2,3.78-.48,5.77.65v4.62c-1.12,1.35-2.88.34-4.3.79a11.08,11.08,0,0,0-2.68,1.73C3929.46,1112.55,3930.22,1111.2,3930,1110Z" transform="translate(-10 -389.97)"/><path class="cls-1" d="M1130,890a1.54,1.54,0,0,0-1.37-2,39.69,39.69,0,0,0-4.63,0v-3c.51-.35,1-1,1.54-1,2.6-.11,5.2,0,7.59,0,1.46,2.1.62,4.11.87,6Z" transform="translate(-10 -389.97)"/><path class="cls-1" d="M1421,518l-2.44-.26c-.21-.8-.45-1.69-.71-2.69l5.27-4.84h4.29c.22.48.47.86.41.93C1425.49,513.52,1423.17,515.83,1421,518Z" transform="translate(-10 -389.97)"/><path class="cls-1" d="M3647.92,788.33l5.36-.61L3655,786c.4.83.76,1.56.88,1.8l-7.53,7.5C3647.29,793.6,3648.27,791.23,3647.92,788.33Z" transform="translate(-10 -389.97)"/><path class="cls-1" d="M3854,586c.23.57.31,1.41.73,1.64a23.29,23.29,0,0,0,3.53,1.28l-5.53,2.83c-.29-.85-.67-2-1-3.06A6.22,6.22,0,0,0,3850,588c-1.32-.1-2.65,0-4,0v-2c.43-.67.72-1.65,1.33-1.92A7.17,7.17,0,0,1,3850,584c.43.67.72,1.65,1.33,1.92A7.17,7.17,0,0,0,3854,586Z" transform="translate(-10 -389.97)"/><path class="cls-1" d="M4080,1194v-4l3.21-1.74c.2.44.5,1.09.79,1.74a4.91,4.91,0,0,0,4,4v2C4083.79,1196,4083.79,1196,4080,1194Z" transform="translate(-10 -389.97)"/><path class="cls-1" d="M3553.58,1169.51c-1.89-2.51-4.84-.93-7.25-2-.12-.74-.26-1.63-.41-2.59,2.48-1.43,5-.89,7.38-.61C3554.63,1165.77,3553.68,1167.47,3553.58,1169.51Z" transform="translate(-10 -389.97)"/><path class="cls-1" d="M10,1294c.53-.2,1.51-.38,1.52-.59.06-2.18,2.17-3.39,2.48-5.41a14.23,14.23,0,0,0,2,0,1.62,1.62,0,0,1,2,1.52c.15,1.34-.06,2.65-2,2.5-.67.43-1.65.72-1.92,1.33A7.17,7.17,0,0,0,14,1296a7.17,7.17,0,0,1-2.67-.08C10.72,1295.65,10.43,1294.67,10,1294Z" transform="translate(-10 -389.97)"/><path class="cls-1" d="M411,1258h-4.39c-.23-1-.48-2.09-.79-3.44a15.16,15.16,0,0,1,7.8-.21C413.47,1256.27,411.81,1256.82,411,1258Z" transform="translate(-10 -389.97)"/><path class="cls-1" d="M1246,780v-2c2.33-.08,2.37,2.58,4,2.76V788h-2v-4c-.22-.55-.4-1.13-.67-1.65C1246.92,781.55,1246.45,780.78,1246,780Z" transform="translate(-10 -389.97)"/><path class="cls-1" d="M64.08,1338c-1.92-.21-3.85.47-5.82-.66-.07-.75-.15-1.62-.23-2.4,1.77-1.58,3.58-1,5.76-.45Z" transform="translate(-10 -389.97)"/><path class="cls-1" d="M348,1282v4h-2.95c-.91-1.76-1.82-3.54-2.75-5.36a2.31,2.31,0,0,1,3.37,0A17.37,17.37,0,0,0,348,1282Z" transform="translate(-10 -389.97)"/><path class="cls-1" d="M4164,1326.88v4.53l-3,.64c-1.73-1.72-.69-3.45-1.05-5C4161.3,1325.47,4162.64,1325.74,4164,1326.88Z" transform="translate(-10 -389.97)"/><path class="cls-1" d="M3642,1148v-2c2.53.32,5.16-.61,8.05.65-.19,1.16-.38,2.28-.56,3.34h-2.44l-2.1-2Z" transform="translate(-10 -389.97)"/><path class="cls-1" d="M3982.17,996.72V992.8c1.52-1.61,3.3-.22,5.18-1.25L3988,995C3986.31,996.81,3984.53,995.42,3982.17,996.72Z" transform="translate(-10 -389.97)"/><path class="cls-1" d="M4002,1384h-2c.19-1.84-.46-3.75.61-5.73l2.43-.26c1.62,1.73,1,3.57.54,5.33C4003.48,1383.68,4002.55,1383.79,4002,1384Z" transform="translate(-10 -389.97)"/><path class="cls-1" d="M1256,788c.31,0,.72-.13.93,0,1.26.88,2.49,1.82,3.19,2.34-.19,1.65-.26,2.25-.38,3.33l-2.83.25c-1.4-1.45-.71-2.76-.91-3.94Z" transform="translate(-10 -389.97)"/><path class="cls-1" d="M1182,788v-2l3.47-2H1188v4Z" transform="translate(-10 -389.97)"/><path class="cls-1" d="M78.42,1307.56c-2.92.34-4.82,1.23-5.93,0l2.61-3.64c1.06.21,2,.13,2.2.49A14,14,0,0,1,78.42,1307.56Z" transform="translate(-10 -389.97)"/><path class="cls-1" d="M3724.85,1096.82c-3.65,1.89-6.08.69-10.16,1.77C3718.17,1095.93,3718.17,1095.94,3724.85,1096.82Z" transform="translate(-10 -389.97)"/><path class="cls-1" d="M1218,982c.12,1.69-1,2.2-2.3,1.93a2.58,2.58,0,0,1-1.63-1.64c-.27-1.31.24-2.41,1.93-2.29A1.7,1.7,0,0,1,1218,982Z" transform="translate(-10 -389.97)"/><path class="cls-1" d="M3653.83,1151.71v3.88l-3.25.62c-.24-1.24-.44-2.36-.7-3.74Z" transform="translate(-10 -389.97)"/><path class="cls-1" d="M3720.07,1086h-3.4c-.26-.94-.56-2-1-3.58l4.08-.45C3719.89,1083.6,3720,1084.8,3720.07,1086Z" transform="translate(-10 -389.97)"/><path class="cls-1" d="M385.62,1262.28a12.61,12.61,0,0,1,.31,2.65c0,.27-.79.57-1.26.71-.15,0-.64-.42-.63-.64,0-.89.2-1.78.31-2.67Z" transform="translate(-10 -389.97)"/><path class="cls-1" d="M3912,902c.37-1.28-1-3.09,1.17-3.83C3914.05,900.82,3914.05,900.82,3912,902Z" transform="translate(-10 -389.97)"/><path class="cls-1" d="M3724.15,1137c-1.64,1.31-2.74,1.38-3.91.29C3721.07,1135.12,3722.34,1135.71,3724.15,1137Z" transform="translate(-10 -389.97)"/><path class="cls-1" d="M63.77,1337.44l2,1.74C64.07,1340.54,64.21,1339,63.77,1337.44Z" transform="translate(-10 -389.97)"/><path class="cls-1" d="M1256,788a1.7,1.7,0,0,1-2-2A1.7,1.7,0,0,1,1256,788Z" transform="translate(-10 -389.97)"/><path class="cls-1" d="M3912.56,901.77l-1.74,2.05C3909.46,902.07,3911,902.21,3912.56,901.77Z" transform="translate(-10 -389.97)"/><path class="cls-1" d="M3626,838a1.7,1.7,0,0,1,2-2A1.7,1.7,0,0,1,3626,838Z" transform="translate(-10 -389.97)"/><path class="cls-1" d="M3624,838h2c.07,1-.13,1.86-1.32,1.59C3624.35,839.51,3624.22,838.55,3624,838Z" transform="translate(-10 -389.97)"/><path class="cls-1" d="M3702,602a1.7,1.7,0,0,1,2-2A1.7,1.7,0,0,1,3702,602Z" transform="translate(-10 -389.97)"/><path class="cls-1" d="M3698,614v2a1.7,1.7,0,0,1-2-2Z" transform="translate(-10 -389.97)"/><path class="cls-1" d="M1263.77,805.44l2,1.74C1264.07,808.54,1264.21,807,1263.77,805.44Z" transform="translate(-10 -389.97)"/><path class="cls-1" d="M1246,792h2c.07,1-.13,1.86-1.32,1.59C1246.35,793.51,1246.22,792.55,1246,792Z" transform="translate(-10 -389.97)"/><path class="cls-1" d="M958,526h3.37l3.86,5.86c1.35.67,3.63,0,5.85.07,1-2.45,4.31-1.24,5.47-3.47s3.82-2,5.43-3.5c.16-.15,0-.63,0-1,.3,0,.7-.13.89,0,.7.56,1.33,1.21,2.05,1.88l2.14-1.9c.33.71.62,1.36.92,2-.23.57-.47,1.14-.76,1.85h-6.48l-2.69,3c-.44,2.94,1.84,3.68,3,5.18H985c1.71,1.67,1,3.56.45,5.79l-4.61.33c-1.45,1.11-2.27,3-4.47,3.58-.19-1-.38-1.86-.6-3-1.84-1.76-4.28-.39-7.07-.88L965.63,538H960v-4.93l-2-2.14Z" transform="translate(-10 -389.97)"/><path class="cls-1" d="M1334,500a1.7,1.7,0,0,0,2,2,2.87,2.87,0,0,1-2.12,3c-3.9,1.27-6.08,4.54-8.94,7H1322v-2c3.23-.6,3.59-3.57,4.82-5.82,1.28-.4,3.3.27,3.18-2.18.55-.22,1.13-.4,1.65-.67C1332.45,500.92,1333.22,500.45,1334,500Z" transform="translate(-10 -389.97)"/><path class="cls-1" d="M1314,518c.22-.55.4-1.13.67-1.65.41-.8.88-1.57,1.33-2.35h4c-.16,1.18.41,2.48-.85,4Z" transform="translate(-10 -389.97)"/><path class="cls-1" d="M1322,512a1.7,1.7,0,0,1-2,2A1.7,1.7,0,0,1,1322,512Z" transform="translate(-10 -389.97)"/><path class="cls-1" d="M3610,546v2.83c-1,1.82-2.79.8-4.17,1.22s-2.59,1.36-3.95,1.91a5.12,5.12,0,0,1-1.88,0v-5.43c2.93-.37,2.93-.37,5.1,1.33.44-.44.88-.9,1.34-1.34.22-.2.48-.37.71-.56Z" transform="translate(-10 -389.97)"/><path class="cls-1" d="M3594,556v2.91c-.95,1.13-2,2.07-3,3.08-1.58-1.4-.79-2.78-1-4,.43-.67.72-1.65,1.33-1.92A7,7,0,0,1,3594,556Z" transform="translate(-10 -389.97)"/><path class="cls-1" d="M3735.42,539.17c2.69-1.52,4.47-1.52,6.24-.52C3740.25,540,3740.25,540.08,3735.42,539.17Z" transform="translate(-10 -389.97)"/><path class="cls-1" d="M3682,586c.37-1.28-1-3.09,1.17-3.83C3684.05,584.82,3684.05,584.82,3682,586Z" transform="translate(-10 -389.97)"/><path class="cls-1" d="M3408,1074h-4c-1.18-.2-2.49.48-4-1v-5a7,7,0,0,0,2.67-.08c.61-.27.9-1.25,1.33-1.92a7.17,7.17,0,0,1,2.67.08c.61.27.9,1.25,1.33,1.92Z" transform="translate(-10 -389.97)"/><path class="cls-1" d="M3654,946l1.85.76v6.16l-1.62,2c.5,1.61,1.78,1.13,3,1,.58-1.22,1.17-2.45,1.86-3.88,1.67,2.43.65,4.79.94,7.11-2.32,1.58-4.85.91-7.33.68a6.2,6.2,0,0,1-.65-1.79c-.06-3.31,0-6.63,0-9.94A1.7,1.7,0,0,1,3654,946Z" transform="translate(-10 -389.97)"/><path class="cls-1" d="M3646,950h4a17.46,17.46,0,0,1-3.5,7.72C3645.4,955.15,3646.31,952.52,3646,950Z" transform="translate(-10 -389.97)"/><path class="cls-1" d="M562,398h-3.12c-1.74-2.43-.5-5.33-.88-8,.31,0,.87-.07.89,0C559.64,392.79,562.67,394.68,562,398Z" transform="translate(-10 -389.97)"/><path class="cls-1" d="M3701,1122c1.44,1.33,1.44,2.67,0,4C3699.56,1124.67,3699.56,1123.33,3701,1122Z" transform="translate(-10 -389.97)"/><path class="cls-1" d="M3686,664h2c.07,1-.13,1.86-1.32,1.59C3686.35,665.51,3686.22,664.55,3686,664Z" transform="translate(-10 -389.97)"/><path class="cls-1" d="M2412,422c.31-2,2.42-3.23,2.48-5.41,0-.21,1-.39,1.52-.59.55.21,1.54.37,1.57.65.28,2.14.37,4.31.51,6.3-1.82,1.71-3.66,1.12-5.42.63C2412.32,423.48,2412.21,422.55,2412,422Z" transform="translate(-10 -389.97)"/><path class="cls-1" d="M2341.51,417.37c2.82,1.8,4.76,2.92,4.49,5.6-1.49,1.91-3.44.83-5.23.8l-2.35-2.35Z" transform="translate(-10 -389.97)"/><path class="cls-1" d="M956,524c.33-1.62-1.49-1.93-1.88-3.13,1.26-1.63,3.08-.43,4.38-1l3.7,2.77c-1.54,1.93-3,1.06-4.2,1.31Z" transform="translate(-10 -389.97)"/><path class="cls-1" d="M979.53,557.48c-1.48,1-3.09.37-4.35.39l-3.25-2.24-3.3,2.34c-1.58.35-2.29-.88-3.34-1.59a13.83,13.83,0,0,0-3.29-1.21V551c1.53-1.74,1.91.43,2.81.8h4.3c1.64-1.07-.13-3.89,2.65-3.77C976.47,551.32,976.47,551.32,979.53,557.48Z" transform="translate(-10 -389.97)"/><path class="cls-1" d="M1003.72,551.62a12.61,12.61,0,0,1-2.65.31c-.27,0-.57-.79-.71-1.26,0-.15.42-.64.64-.63.89,0,1.78.2,2.67.31C1003.69,550.78,1003.71,551.2,1003.72,551.62Z" transform="translate(-10 -389.97)"/><path class="cls-1" d="M3486,666h-5l-1.84-1.89c-2.4-.43-5.34.14-7.35-.09l-5.35,2.6-1.18,3.33h-10.43l-.84,2h-6.9c-1.09-1.8-3.21-1.78-5.27-3l2.28-1,1.66-.77-2.13-3.26c.72-1,1.45-2,2.32-3.21v-3.62l2-2.16V650.8c.77-.25,1.62-.54,2.47-.8,1-.3,1.77-.76,1.54-2,.53-.2,1.51-.38,1.52-.59.06-2.18,2.17-3.39,2.48-5.41h2v4.32l6.18,4.78v8.13l3,2.79c1.4-3.31,5-.93,7-3.2l-3.42-1.17-4.53-9.23,6-.89-2.12-2.5c.59-.66,1.23-1.36,1.89-2.08v-5c-.23-1.19.53-1.65,1.47-2,1.1-.41,2.2-.85,5.19-2H3488c0,3.63,0,7.27,0,10.9,0,.25.39.49.6.73,1.35-1.71,1.35-1.71,1.37-8.88l3.42-1.14c1.33-1.39.07-3.13.69-4.5l-1.59-1.59c-1-1.45-.36-3.08-.4-4.65l3.63-3.61a40,40,0,0,1,.63-4.55c.08-.34,1.06-.48,1.62-.71v16.89c-.63.67-1.29,1.39-2,2.14v5.91l2,2.1v3c-1.22.24-2.63-.6-4,1.09a36.62,36.62,0,0,0,.42,4.21c.06.33,1.05.47,1.61.7-.22.56-.34,1.5-.69,1.6a34,34,0,0,1-4.53.61c-.6.62-2.48,1.67-2.6,2.88-.18,1.87-1.16,2.86-2.18,4Z" transform="translate(-10 -389.97)"/><path class="cls-1" d="M3488,634c.37-1.28-1-3.09,1.17-3.83C3490.05,632.82,3490.05,632.82,3488,634Z" transform="translate(-10 -389.97)"/><path class="cls-1" d="M3454,672h2c.07,1-.13,1.86-1.32,1.59C3454.35,673.51,3454.22,672.55,3454,672Z" transform="translate(-10 -389.97)"/></g></g></svg>