<svg xmlns="http://www.w3.org/2000/svg" viewBox="0 0 4320 2160"><defs><style>.cls-1{fill:#5d7adb;}</style></defs><g id="Layer_14" data-name="Layer 14"><g id="Dwb"><path class="cls-1" d="M2,1274a1.57,1.57,0,0,1,2,1.42,28.43,28.43,0,0,1,0,3.95l4,3.52V1286H2Z" transform="translate(-2 -428)"/><path class="cls-1" d="M3702,624h-3.24c-.37-1.08-.75-2.23-1.28-3.79l-3.92-.32a35.61,35.61,0,0,1-3.78-1.92c-1.33-.86-3.37-1.81-3.56-3a6.93,6.93,0,0,0-2.24-4.07v-6.34l-5.41-1c-.3-2.5,2.93-2.76,3.08-5-2.1-1.43-4.49,0-7-1l-.83-2.26,2.94-3.17,6.41-.34c.8-.8.8-.8-1.15-2.87v-3c2.05-1.18,2.05-1.18,1.17-3.83-2.14.74-.8,2.55-1.17,3.83-1.59,0-3.22-.34-4.37,1.33-.92,1.34-2.42.42-3.63.67v-5.25l3.44-1.17c1-1.94-3.79-2.48.22-5.43l1.53-.37c3.85-3.39,6.85-8.34,12.38-9.38.29-2.49.09-4.27.78-5.58s2.37-2.28,1.29-4.18c-2.46-.5-2.46-.5-5,1.33-.27-1-.51-1.88-.79-2.91l5.77-5h3.59c1.14-1.63,2.37-3.39,4.21-6.05,1.11-.62,3.46.28,5.68-.09l2.89-2.89v-4.12a21.52,21.52,0,0,1,7.94-5l4.71,2.33,2.46-2.27h4c1.18,1.16,2.14,2.73,4.17,1.77,1.83-2,0-4.48,1-6.33-1.45-2.59-3.86-.74-5.82-2-.13-.63-.31-1.54-.48-2.37.36-.35.59-.79.83-.79,3.44,0,7.17-1.83,10.11,1.5,3.47-.7,6.24,1.44,8.7,3,2,1.28,3.74.72,5.83,1.39.21.62.51,1.49.84,2.43l-3.06,3.27h-5.72c-1.64.82-1.65,1.3-.7,1.76,2.89,1.43,2.83,4.92,4.85,7,.71.75.4,2.48.7,4.86l3,2.41a18.23,18.23,0,0,0,9.58-5.83l5.05-.45v-8.59c1.71-1.84,3.49-.78,5.56-1.25.18-.9.42-2,.63-3.07l-4.08-1.54,1.85-2.19c-.33-1.15-2.18-1.46-1.84-3.08a7.13,7.13,0,0,0,1.69-.73c.78-.62,2.15-1.6,2-2.06-.78-2.73,3.42-3.44,2.06-6.16l4.19-2V510.8l-7.85-3.55c.54-.71,1-1.36,1.75-2.26v-4l-2.57-2.78h-8.51l-3.58,3.58-2.15.23c-.6,1.22-1.26,2.57-2,4l-4.22-4c-2,.13-3.8-.27-5.57,1.46-1.42,1.4-4,1.52-5.84,2.62-1.61,1-3.58,1.47-4.89,2.57-1.76,1.48-4.58,1.06-5.62,3.42-.95,2.16-3.52,1.39-4.85,2.81,0,.67-.07,1.32-.12,2.12l-9.17,9H3713l-1.75,1.75c-3.25.55-6.84-.06-10.05.28l-3.46-3.32c.84-1.86,1.72-3.78,2.72-6l-3.18-.93-9.7-9.72h-4.85c-.79,1.2-1.91,2.87-2.58,3.88h-3.48c-.33-1.76-.68-3.58-1-5.43-1.83-1.09-3.84-.42-5.76-.55-1.65-.11-3.3,0-5.16,0l-.83-2.68,2.09-2.32c-1.71-2.13-5.37.29-6.68-2.79-3.29,2.33-7.23,3.37-10.52,5.7-.87.62-2.56.09-3.69.09-2.89,2.36-4.56,5.95-8.76,6.53-.16,1.52-.33,3.1-.52,5l-2.92.75-1.78,3.79H3629c-1.69,1.26-.69,3.07-1.16,5.54l-5.75,4.61c-.09,1.63-.12,2.28-.15,2.92l-2.84,2.84c-2.22.38-4.58-.51-6.83.75.6,1,1.18,2,1.76,3,.23,3.13-4,3.44-4,6.37h-2.85c-.23.19-.49.36-.71.56-.46.44-.9.9-1.34,1.34-2.17-1.7-2.17-1.7-5.1-1.33V552c.23,1.23-.52,1.81-1.53,2s-2-.09-2.94.06-1.76.74-1.53,2a7,7,0,0,0-2.67.08c-.61.27-.9,1.25-1.33,1.92-2.5.27-5.07-.53-7.85.52,1.3,2.39,2.52,4.65,3.85,7.11v13.62l3.37,1.12c.79.47.36.71-.07,1.44-1.57,2.63-2.86,5.42-4.25,8.14-1.09-1.84-2.17-3.69-3-5.16-2.28-1.28-4.26-.65-6.17-.77-1.64-.1-3.28,0-4.84,0l-1.82,1.82-6.58.34c-.24.8-.5,1.68-.86,2.94L3554,593v3h-5l-1.88-1.76-2.89-.75c-.27-1.19-.47-2.1-.77-3.42-3.08-.34-6.38.37-10.32-.71l4.82-2.25V583l-2.13-2.27.68-2.67h6.14l2.27-2,4.69-.27c.22-2,.4-3.55.58-5.07l3.61-3.61c.12-2.19.24-4.42.37-6.66,1.49-.67,2.67-.85,3.67.39a2.57,2.57,0,0,0,3.4.81,3.3,3.3,0,0,0,.71-.69c0-2.66,0-5.31,0-8.13a18.58,18.58,0,0,1,2.82-2.62c1-.61,2.62.08,3-1.58.28-.88.55-1.76.81-2.56l4.87-.27c.42-2.25.76-4.07,1.13-6.11l2.59,2.37c.45-1.3.61-2.64,1.32-3.56s1.77-1.91,1.37-3.53L3578,533V529l2.05-2.18V520.6c3.57-1.46,3.87-5.45,6.22-8.57-1.52-1.61,1.31-4.33-1-5.74l-3.46-.94v-8.76c-.93-.26-1.52-.48-2.12-.58a16.61,16.61,0,0,1-7.72-4v-5l5.76-3h5c1.39-.65,2.09-2.74,4.15-2,1.92-1.15,2.66-3.87,5.33-4,2.83-.15,1,2.75,2.35,3.57l3.58,1.23-2.1,2.28v2l7.87,4c.58,2.84-1,4.58-1.83,6.61s1,4.48-1.12,6.23l-1.94-1.63-3.05,2.7v4l-1.72,2,2.55,3.93L3592,518c0,3.48,0,6.12,0,8.76,0,.26.32.52.65,1h8.08l5.22-4.62a18.22,18.22,0,0,1,.21-2.28c.06-.28.44-.48,1-1.06h8.43c.23-1.91.41-3.48.57-4.76l2.74-3.07h4.1c2.14-3.11,2.51-7.21,6.12-10h6.11c.55-1.5,1-2.66,1.36-3.71l2.7-.56,8.49-8.49c.22-1.1.41-2,.53-2.62,2-1.32,4.37.6,5.35-1.16.38-1.47.62-2.37.82-3.16h16.77l3.51,3.57,2.93.61c.22,1.86.4,3.44.57,5,1.58,1.19,3.29.57,4.87.56s3.31.73,4.83-.91c0-1.49.07-3.13,0-4.76-.11-1.93.47-3.92-.66-6.15l-3.44-3.16,4.14-2c-.07-.84-.12-1.49-.17-2.13l-2.66-2.66-2.93-.6c.06-.27,1.24-5.09,1.24-5.09l-3.5-1.23c0-3.49,0-6.81,0-10.12,0-.25.37-.5.9-1.16l3.07.54V455l5,5h6l2.16-2H3713c.74-.66,1.44-1.28,2.12-1.9L3718,459c0,2,0,4,0,5.95,0,.25.42.48.73.82l4.56.49,3.26,7.32,5.33,5.33-2.17,2.45,6.23,1.23V487c-1.15,1.18-2.72,2.12-1.79,4.15L3737,494h4l2.19-2H3759l2.87-2.87c.07-1.58.14-3.15.21-4.68,3.31-.25.73,2.95,2.88,3.37,2.8-.69,5,1.8,7.46,2.3,1.89-.67,1.2-2.32,1.83-3.3a21.72,21.72,0,0,1,2.47-2.81H3785l2.27-2.05h5.91c1.4-2.69,4.06-1.58,5-1.86,2.57-2.14,4.35-3.61,6.11-5.09l-.95-2.87c-3.14-.33-6.1.22-7.94-.12-3.29-2.86.56-3.62.2-5.41l-3.5-1.25v-4.24c.65-1.21,2.66-2,1.91-4l-1.95-2.11v-2.78c3.16.88,4.46-1.49,6.11-3.8v-5.6L3800,442c.22.56.3,1.4.7,1.61a21.7,21.7,0,0,0,3.3,1.18v2.53l4,3.53v2.29l4,1.81V460l-1.69.69a14,14,0,0,1-.32,1.85c-.92,2.82,3,4.19,2.09,7.11-.2.66.65,1.66,1.05,2.47.68,1.38,1.34,2.76,2.09,4.08s2.85,1.8,2.78,3.8v4c.75,3.21-2.29,5.06-2.76,7.91h-3.88c-1.37,1.44-3.62,2.08-3.36,4.56l2.31,3.49c-.63,1-1.32,2-2.2,3.28-.08,1.19-.2,2.77-.31,4.22l-3,.77-6.55,13.25c2.48,1.21,5.16.16,7.71.52v2c-3.6,0-7.19,0-10.79,0-.25,0-.5.34-1,.69v8.52c.36.36.8.86,1.29,1.28.7.59,1.44,1.14,2.12,1.66L3806,532v6a1.7,1.7,0,0,0-2,2c-.55.22-1.51.35-1.59.68-.27,1.19.62,1.39,1.59,1.32-.69,2.87-2.91,3.87-5.65,4.51-.17.82-.35,1.72-.55,2.67-1.3.66-2.69,1.3-4,2.05S3792,554.07,3790,554s-4-.09-5.94,0-3.9-.58-4.64-.1l-4.77,7c-.45-2.78-.74-4.59-1-6.33-1.37-1-2-2.91-4.5-2.51l-4.23,3.84-4.47.27c-.24,1.13-.42,2-.63,3L3757,562h-3.54l-3.49,2c-2.14.39-3.62,2.82-6.2,2-2.31.71-3.33,3-5.15,4.33s-4,2.07-5.41,3.63-3.69,1.48-4.81,2.82-3.1.73-4.24,2c-1.32,1.49-2.81,2.82-4.19,4.18V590h-5.2l-2.8,3.11V596a1.7,1.7,0,0,0-2,2l-3.47,2H3704a1.7,1.7,0,0,0-2,2h-4a7.17,7.17,0,0,1-2.67-.08c-.61-.27-.9-1.25-1.33-1.92,0-.33-.09-.91,0-1a17.06,17.06,0,0,0,8-6.38c-.31-1.51.71-3.28-.75-4.45h-12.53l-2.56,2.73c0,2.32,0,4.27,0,6.21,0,.24.44.47.73.76l2.22-2a22.78,22.78,0,0,0,1.23,3.35c.22.42,1.07.49,1.63.72v2.81l-4,4V610l5.49,5.25c.08-.18.29-.73.51-1.28h2a1.7,1.7,0,0,0,2,2,1.7,1.7,0,0,0,2,2v2.53Zm2.19-32.37a3.62,3.62,0,0,0,4.16-.87c.88-.76,2.21-1,3.4-1.48.14-2.47.95-5-.73-7.27l-2.11-.1c-1.43-2-1.56-4.93-3.93-5.76h-6.22c-1.27,1.25-.42,3.26-2.11,4.33-1.26.81-.91,2.26.14,3.36l7,.39C3703.91,586.7,3704,589,3704.19,591.63Zm31.23-52.46c4.83.91,4.83.87,6.24-.52C3739.89,537.65,3738.11,537.65,3735.42,539.17Zm-20.71,42.54L3716,581c-.22-.22-.49-.66-.66-.63a6.53,6.53,0,0,0-1.34.63Z" transform="translate(-2 -428)"/><path class="cls-1" d="M3992,1140c-.25-1.21.67-2.71-.67-3.63-1.67-1.15-1.33-2.78-1.33-4.37v-5a34,34,0,0,1-4.07-2.1c-1.08-.74-1.82-2.5-2.87-2.63A5.87,5.87,0,0,1,3979,1120h-6.26c-.37-1.09-.77-2.25-1.28-3.76h-6.29c-1.47-1.8-3.57-2.71-3.17-5.13,4.52-4.08,8.32,1.76,13.15.79l2.24,3.14c2,.75,3.33.94,4.21,1.69,1.08.91,2,1.61,3.72,1.11l1.14-3.29.71-.37,1.51,3.66,6.45.3a4.9,4.9,0,0,1,.83.85c1.35,2.46-2.38,3-1.94,5.26,1,2.38,2.29,4.64,5.1,3.81,1.38,1.61.16,4.17,2.88,4v5.12l-3.43,2.88Z" transform="translate(-2 -428)"/><path class="cls-1" d="M4130,1322h3l2.17,2H4137l5.74,5.74,4.57.5c.88,2.49,1.51,5,4.49,5.73.59.14,1.44.2,1.7.6,2,3.15,6.31,3.23,8.35,6.29.7,1,2.35,1.43,2.11,3.1-.45.78-.92,1.55-1.33,2.35-.27.52-.45,1.1-.67,1.65-2.83,1-4.56-1.73-7-2.3-2.17-.51-3.58-3.12-6.14-4.2-2.4-1-4.43-3.31-6.91-4.76-2.21-1.28-3.69-3.75-5.71-5.43-1.6-1.32-1.9-3.19-2.83-4.79-.8-1.37-2.28-2.34-3.4-3.43Z" transform="translate(-2 -428)"/><path class="cls-1" d="M4172,1270c.9,1.9,1.81,3.8,2.77,5.84h4.48c1.43-2.24.49-4.54.81-7.21l-6.77-1.3,4.71-3.94V1260h4v3l2,2.18v13.21c1.58,3.05,2.86,5.51,4.33,8.32L4186,1288h-4l-2.14-3.73c-.19-.84.79-2.55-.33-3.74l-5.32,1.66c-4.32-1.19-3.69-5.48-6.21-7.33V1270Z" transform="translate(-2 -428)"/><path class="cls-1" d="M3810,1104c0,1.17,0,2.34,0,4l-4,0a1.54,1.54,0,0,0-1.37-2,39.69,39.69,0,0,0-4.63,0h-6.26l-9.71-5v-2c1.91-2.23,3.32-.74,4.74.72h8.76c-.67-3.06-3-1.19-4.81-2l-1.11-3.42-3.13-.64c-.14-.81-.33-1.94-.5-2.89,2.58-1.6,4.92-.31,6.88-1l5.91,5.9,3,.78c.13,1.48.27,3.06.42,4.63L3807,1104Z" transform="translate(-2 -428)"/><path class="cls-1" d="M1638,1360c-1.66-.3-2,1.52-3.36,2h-3.73c-1.42,2.55-4,1.78-6,2.13l-2.68,2.6-.68,3.22c-2.19,0-4.15-.11-6.1,0s-4-.84-5.52,1.07c-1.28,1.58-3.32.23-4.54,1a20.38,20.38,0,0,1-5,2.48c-.4,1.18-.79,2.33-1.15,3.42H1596c.14-1.88-1.14-1.88-2.48-2a1.55,1.55,0,0,1-1.52-2c-.23-1.22.52-1.77,1.52-2,2.12-.46,4.71,1.13,6.39-1s4.3,0,6.14-1.88c1.43-1.43,3.65-2.07,5.63-3.12.84,0,1.82.06,2.79,0,2.19-.17,5.79-2.1,7.53-4,1.18-.2,2.49.49,3.54-.52l1-3.18c1.5-.56,3.58.18,3.45-2.3,1.52-.23,1.9,1.3,2.89,1.86s2.22-.18,3.11-1.86c.67.43,1.65.72,1.92,1.33A7.17,7.17,0,0,1,1638,1360Z" transform="translate(-2 -428)"/><path class="cls-1" d="M4055,1188h-4.36c-1.07-1.65-2.26-3.48-3.8-5.87l-4.11-.25-1.84-3.8-.82.84v-4c1.64-1.64,3.85-1.34,6.93,1h5.48l11.54,11.54-.16,1.71c-2,1.82-4.49,0-6.46,1Z" transform="translate(-2 -428)"/><path class="cls-1" d="M3408,1068l3.47-2H3414v2a4.78,4.78,0,0,0-3.67,3.34c2.35,2.12,3.33-.63,5.12-1.18.37,1.57,2.75,1.76,2.83,3.73-1.27.32-2.82.18-1.46,1.93a17.45,17.45,0,0,0,1.46-1.93,7.67,7.67,0,0,0,1.72.11v5.34l4,3.55v4.38a14.36,14.36,0,0,0-3.35,1.19,16,16,0,0,0-2.8,2.72c-1.06,1.12-2.17,1.12-3.67.11-.07-1.06-.14-2.31-.23-3.79l2.16-3c-.7-2.54-2.9-4.76-2.29-7.57l-2.75-2.93H3408Z" transform="translate(-2 -428)"/><path class="cls-1" d="M1420,884h6.32l5.47,2.86c-.49,1.35-2.57,2-1.73,4.16l-4.62,2.16,4.52,4.52c0,.3-.13.93-.26,1.86l-2.62.58-3-3.15v-4.11l-4.11-2.8Z" transform="translate(-2 -428)"/><path class="cls-1" d="M3718.78,1102h6.31l1.93-4.15c1.87,3.8,3.63,7.37,5.31,10.8-2.25,2.4-4.7.95-6.88,1.35-2.22-2.17-6.13-2-7.55-5.67Z" transform="translate(-2 -428)"/><path class="cls-1" d="M3980,1204h-4.89c-1-2.27-2-4.54-4.14-6h-3.5l-3.47-2v-3c1.89-2.06,3.35-1,4.84,1h6.21c1.61,1.69.61,3.41,1,5.25l3.3,1.07C3980.59,1201.38,3979.76,1202.79,3980,1204Z" transform="translate(-2 -428)"/><path class="cls-1" d="M3612,1018v3l-10.46,5.29c-1.47-2-1.47-2-1.55-4.88,1-2.09,3.39-3.38,5.29-5.77l4.25,2.37Z" transform="translate(-2 -428)"/><path class="cls-1" d="M1427.9,906.78c.24-1,.38-1.61.53-2.22,1.43-1.11,3.08-.32,4.63-.51.31.53.89,1,.9,1.57.08,3.88,0,7.76,0,11.85l-2.71.64c-2.29-1.54-1-3.55-1.06-5.34l1.42-1.42C1431.18,909.44,1429.31,908.66,1427.9,906.78Z" transform="translate(-2 -428)"/><path class="cls-1" d="M3632,1086l-2,3.47V1092h-8v-2.91c2.15-2.84,5.41-3.83,8.85-5.23Z" transform="translate(-2 -428)"/><path class="cls-1" d="M3362,1112h3l4.72,4.92v4.51l-2.23.63c-2.25-1.13-3.6-3.45-5.52-5.11Z" transform="translate(-2 -428)"/><path class="cls-1" d="M3624,906l-1.74-3.21L3624,902c3.85-.6,6.9,1.35,10,3.15V908C3627.61,908,3627.61,908,3624,906Z" transform="translate(-2 -428)"/><path class="cls-1" d="M3752,1148h6.91l2.09-2c1.71,1.15.74,2.92,1.14,5.14l-5,2.83H3754v-2a1.7,1.7,0,0,0-2-2Z" transform="translate(-2 -428)"/><path class="cls-1" d="M3688,1028v4.83c-1.55,1.2-2,3-2.63,4.93l-2.44.17c-.37-.36-.79-.59-.79-.82,0-2.83,0-5.67,0-8.21,1.32-1.45,2.69-.68,3.89-.9Z" transform="translate(-2 -428)"/><path class="cls-1" d="M2850.15,1330c-.08-1.93-.14-3.18-.23-5.2l3.9-2c2.07-1.3,2.67,1.36,4.1,2.1.39,3.08-2,3.65-3.05,5.09Z" transform="translate(-2 -428)"/><path class="cls-1" d="M3944,1148v4h-4.86l-2,1.85c-.36-.37-1-.75-1.06-1.16-.11-2.23-.05-4.46-.05-6.69C3940.21,1146,3940.21,1146,3944,1148Z" transform="translate(-2 -428)"/><path class="cls-1" d="M373.82,1292.52v4.68c-1.44,1.64-3.24.21-4.91,1.15-.46-1.39-.83-2.52-1.21-3.65-.4-1.84-3.51.71-3.35-2.11,1.41-1.22,3.1-.49,4.65-.54S372.21,1291.58,373.82,1292.52Z" transform="translate(-2 -428)"/><path class="cls-1" d="M4080,1194h-6.94l-2.13-2c-1.53-.35-3.28.7-4.69-.75.31-.42.61-1.19.92-1.2,4.28-.08,8.56,0,12.84,0Z" transform="translate(-2 -428)"/><path class="cls-1" d="M300,842h-2.84c-1.81,1.88-4.26,3.26-5.16,6-2,.16-2-1.22-2-2.73l1.84-2.18c.15-1.47.31-3,.46-4.53.81-.23,1.54-.7,2-.51,2,.88,3.84,1.94,5.72,3C300.12,841.12,300,841.67,300,842Z" transform="translate(-2 -428)"/><path class="cls-1" d="M3979,1190H3977l-2.79-3v-4.59l2.77-.57c1,1,1.83,2,2.79,3C3979.87,1186.52,3980.82,1188.45,3979,1190Z" transform="translate(-2 -428)"/><path class="cls-1" d="M3995,1194c-1.6-1.6-3.19-3.2-4.8-4.8,1.11-2.57,3.29-.57,4.47-1l5.24,2.69c0,.75-.09,1.63-.13,2.36C3998.19,1194.59,3996.52,1193.7,3995,1194Z" transform="translate(-2 -428)"/><path class="cls-1" d="M3286,999.29v-4.41c3.17-2.59,4.24.81,6,2.2V1001C3288.7,1004.07,3287.94,999.78,3286,999.29Z" transform="translate(-2 -428)"/><path class="cls-1" d="M3668.51,1036.24l2.61-.15c1.84,2.16.16,4.56,1,6.29l-3.66,2.76a2,2,0,0,1-.42-1.12C3668.25,1041.49,3667.42,1038.88,3668.51,1036.24Z" transform="translate(-2 -428)"/><path class="cls-1" d="M4171,1338l-2.8-2.8v-4.78l3-.57c.28,1,.47,1.84.8,2.66a18.09,18.09,0,0,0,1,1.53c.44.78.81,1.6,1.06,2.08C4173.62,1338.28,4172.27,1338.05,4171,1338Z" transform="translate(-2 -428)"/><path class="cls-1" d="M4082,1221c1.8-1.59,3.48-.65,5-1,1.43,1.14,2.24,3.36,4.87,1.67v3.58c-.69.29-1.29.8-1.78.7-2.07-.43-3.65-2-5.66-2.67C4083.42,1222.94,4082.75,1221.75,4082,1221Z" transform="translate(-2 -428)"/><path class="cls-1" d="M3776.77,990h2.17c1.76,1.12.82,2.9,1.21,5.24l-5,2.85c.59,0-.76.19-1.11-1.53-.34-1.55.91-2.23,1.58-3.26A13.77,13.77,0,0,0,3776.77,990Z" transform="translate(-2 -428)"/><path class="cls-1" d="M4172,1246h3c2,2,1,3.45-.85,4.69.45,1.56,2.89,2.1,1.18,4.85l-2.3.51c-.58-.61-1-.84-1-1.08C4172,1252,4172,1249,4172,1246Z" transform="translate(-2 -428)"/><path class="cls-1" d="M3614,1008v2.53l2,3.47c0,1.17,0,2.34,0,4l-4,0v-8A1.7,1.7,0,0,1,3614,1008Z" transform="translate(-2 -428)"/><path class="cls-1" d="M3669.84,1047.7v7.88l-2.85.56c-1.6-2.45-.94-5-.71-7.75Z" transform="translate(-2 -428)"/><path class="cls-1" d="M3362,1112h-2.48l-3.61-2.76.33-2.48c1.68-1.29,3.45-.89,5.23-.29C3362.48,1108.24,3361.8,1110.16,3362,1112Z" transform="translate(-2 -428)"/><path class="cls-1" d="M2681.9,1218.17h3.37c1.39,2.28.48,4.6.78,7.26l-3.18.62C2681.34,1223.55,2682.25,1221.23,2681.9,1218.17Z" transform="translate(-2 -428)"/><path class="cls-1" d="M4298.35,1313.64c-.16-1-.25-1.56-.35-2.17.35-.49.92-1.45,1-1.4,2.68,1.24,3.31-3.48,6.25-1.91l.84,2.2c-.47.66-1,1.62-1.15,1.57C4302.29,1310.69,4301.66,1315.41,4298.35,1313.64Z" transform="translate(-2 -428)"/><path class="cls-1" d="M4182.08,1343.32c-3.71,1.73-4.46-1.19-6.06-2.39v-2c1.61-1.75,3.5-.91,5.34-.64C4182.65,1339.72,4181.67,1341.43,4182.08,1343.32Z" transform="translate(-2 -428)"/><path class="cls-1" d="M298,852c-.2-2.65,2.23-1.57,3.47-2.44s.29-2.35.53-3.56h3.14c2.53,3.16-.81,4.26-2.25,6Z" transform="translate(-2 -428)"/><path class="cls-1" d="M3897.86,922.77c1.64-2.47,2.52-3.79,3.15-4.76,2-.07,3,.33,3,1.75-.46,2.31-2,3.33-3.64,4.24C3898,924.26,3897.86,922.76,3897.86,922.77Z" transform="translate(-2 -428)"/><path class="cls-1" d="M3992,1212l-1.64-.65c0-.25-.08-.64,0-.68,2.16-1,4.34-2,7-3.21.27,1.61.46,2.72.6,3.51-1.41,1.6-2.79.8-4,1Z" transform="translate(-2 -428)"/><path class="cls-1" d="M4157,1214h-4.42c-.22-1-.45-2.11-.64-3,1.72-1.73,3.45-.69,5-1C4158.49,1211.3,4158.42,1212.64,4157,1214Z" transform="translate(-2 -428)"/><path class="cls-1" d="M277.83,1057.8v3.39c-1.55,1.48-3.27.47-5.25.92-.22-1.13-.44-2.25-.61-3.1C273.72,1057.33,275.44,1058.34,277.83,1057.8Z" transform="translate(-2 -428)"/><path class="cls-1" d="M105.83,1247.8v3.39c-1.55,1.48-3.27.47-5.25.92L100,1249C101.72,1247.33,103.44,1248.34,105.83,1247.8Z" transform="translate(-2 -428)"/><path class="cls-1" d="M3669.71,783.27c.11,2.2.15,3.08.21,4.2l-2.19.54-3.06-3.76C3665.64,783.16,3667.41,784.6,3669.71,783.27Z" transform="translate(-2 -428)"/><path class="cls-1" d="M1429,922c1.9-.26,3.25.11,3,3.26l-3.58,1.91C1427.34,926,1427.33,924,1429,922Z" transform="translate(-2 -428)"/><path class="cls-1" d="M3926,1144.16h3.24a5.23,5.23,0,0,1,.13,5.49c-1.63-.27-2.25-1.81-3.37-2.71Z" transform="translate(-2 -428)"/><path class="cls-1" d="M292,848c1.23-.23,1.81.52,2,1.53s-.09,2,.06,2.94.74,1.76,2,1.53c-.15,2.55-1.75,2.11-3.52,1.65C291.37,853.18,292.33,850.53,292,848Z" transform="translate(-2 -428)"/><path class="cls-1" d="M4172.17,1356.29v-3.88l3.25-.62c.23,1.24.44,2.36.7,3.74Z" transform="translate(-2 -428)"/><path class="cls-1" d="M3467.71,1100.17h3.88c.19,1,.37,1.91.62,3.25l-3.74.7C3468.22,1102.81,3468,1101.92,3467.71,1100.17Z" transform="translate(-2 -428)"/><path class="cls-1" d="M1434.93,950.11l-2.62-.48c.28-1.89,1.87-2.46,2.76-3.74l2.62.48C1437.41,948.26,1435.82,948.83,1434.93,950.11Z" transform="translate(-2 -428)"/><path class="cls-1" d="M3742.29,1131.83h-3.88c-.19-1-.37-1.91-.62-3.25l3.74-.7C3741.78,1129.19,3742,1130.08,3742.29,1131.83Z" transform="translate(-2 -428)"/><path class="cls-1" d="M4060,1001v-2.43l3.51-.74.6,3C4062.69,1002.47,4061.35,1002.43,4060,1001Z" transform="translate(-2 -428)"/><path class="cls-1" d="M3412,1052.07v-3.4l3.58-1c.17,1.52.29,2.62.45,4.08Z" transform="translate(-2 -428)"/><path class="cls-1" d="M3408,1078l-4,0c0-1.64,0-2.81,0-4h4Z" transform="translate(-2 -428)"/><path class="cls-1" d="M3779.71,1092.17h3.88c.19,1,.37,1.91.62,3.25l-3.74.7C3780.22,1094.81,3780,1093.92,3779.71,1092.17Z" transform="translate(-2 -428)"/><path class="cls-1" d="M4088,1194a4.91,4.91,0,0,1-4-4l4,0C4088,1191.66,4088,1192.83,4088,1194Z" transform="translate(-2 -428)"/><path class="cls-1" d="M4016,1219a4.29,4.29,0,0,1-6.06,0A4.29,4.29,0,0,1,4016,1219Z" transform="translate(-2 -428)"/><path class="cls-1" d="M4163,1244c-1.44-1.33-1.44-2.67,0-4C4164.44,1241.33,4164.44,1242.67,4163,1244Z" transform="translate(-2 -428)"/><path class="cls-1" d="M4194,1316h4c.14,1.88-1.14,2.11-2.48,2A1.55,1.55,0,0,1,4194,1316Z" transform="translate(-2 -428)"/><path class="cls-1" d="M3597,1023.85c1.31,1.64,1.38,2.74.29,3.91C3595.12,1026.93,3595.71,1025.66,3597,1023.85Z" transform="translate(-2 -428)"/><path class="cls-1" d="M3959,1102c-1.44-1.33-1.44-2.67,0-4C3960.44,1099.33,3960.44,1100.67,3959,1102Z" transform="translate(-2 -428)"/><path class="cls-1" d="M2829.84,1136.28c1.34-2.33,1.34-2.33,4-1.45C2833.07,1136.91,2831.25,1135.51,2829.84,1136.28Z" transform="translate(-2 -428)"/><path class="cls-1" d="M2828,1138v-2h2c0,.65,0,1.3,0,2,0,1-.12,1.87-1.32,1.65C2828.37,1139.54,2828.22,1138.56,2828,1138Z" transform="translate(-2 -428)"/><path class="cls-1" d="M3392.15,1147c-1.64,1.31-2.74,1.38-3.91.29C3389.07,1145.12,3390.34,1145.71,3392.15,1147Z" transform="translate(-2 -428)"/><path class="cls-1" d="M3904,913c1.33-1.44,2.67-1.44,4,0C3906.67,914.44,3905.33,914.44,3904,913Z" transform="translate(-2 -428)"/><path class="cls-1" d="M495.62,1198.28a12.61,12.61,0,0,1,.31,2.65c0,.27-.79.57-1.26.71-.15,0-.64-.42-.63-.64,0-.89.2-1.78.31-2.67Z" transform="translate(-2 -428)"/><path class="cls-1" d="M3994,1216v-2a7,7,0,0,1,2.67.08c.61.27.9,1.25,1.33,1.92Z" transform="translate(-2 -428)"/><path class="cls-1" d="M3998,1216a7,7,0,0,1,2.67.08c.61.27.9,1.25,1.33,1.92a7,7,0,0,1-2.67-.08C3998.72,1217.65,3998.43,1216.67,3998,1216Z" transform="translate(-2 -428)"/><path class="cls-1" d="M4081.29,1216.29l.71.71a6.53,6.53,0,0,1-1.34.63c-.17,0-.44-.41-.66-.63Z" transform="translate(-2 -428)"/><path class="cls-1" d="M4119.71,1019.29l-.71.71a6,6,0,0,1-.62-1.34c0-.17.4-.44.62-.66Z" transform="translate(-2 -428)"/><path class="cls-1" d="M4171.82,1246.21l-1.64-1.39.64-.64,1.39,1.64Z" transform="translate(-2 -428)"/><path class="cls-1" d="M129.71,1253.29l-.71.71a6.53,6.53,0,0,1-.63-1.34c0-.17.41-.44.63-.66Z" transform="translate(-2 -428)"/><path class="cls-1" d="M296,854a1.7,1.7,0,0,1,2-2A1.7,1.7,0,0,1,296,854Z" transform="translate(-2 -428)"/><path class="cls-1" d="M3936.23,1146.56l-2.05-1.74C3935.93,1143.46,3935.79,1145,3936.23,1146.56Z" transform="translate(-2 -428)"/><path class="cls-1" d="M3268,448l-3.44-2H3256l-3.49,2H3249c-.78.72-1.5,1.37-2.19,2-2.26-.37-4.65.86-6.69-.84,2.63-4.72,9.29-3.74,12.11-8.94l-1.94-3.55L3252,436c1.88-.25,3.89.58,5.78-.71.17-2.16.29-4.39.6-6.59,0-.3,1.06-.47,1.62-.7h5.05l2.77,2.94-1.73,2.06c2.09,2,4.83.39,7.19,1.24.72,1.34,2.82,1.74,2.72,3.76-.21,1.19.52,2.53-.78,3.79h-4.56c-.73-.14-.85-2.46-2.73-.81a38.62,38.62,0,0,0,.5,4.36c.06.32,1,.45,1.57.66A1.7,1.7,0,0,1,3268,448Z" transform="translate(-2 -428)"/><path class="cls-1" d="M958,526v-2c1.23-.25,2.66.62,4.2-1.31l-3.7-2.77c-1.3.52-3.12-.68-4.38,1,.39,1.2,2.21,1.51,1.88,3.13l-3.48,2H949l-2.18,2H943l-1.65,1.65c-2.68-1.72-6.37-2-7.7-5.56h-4.76l-2.77-3.78c.24-1.12-.79-2.88.83-4.25l2,1.72a35.66,35.66,0,0,1,3.15-1.7c.31,1.94,1.92,2.89,3.5,3.89,1.46-.28,3.19.69,4.51-1.06-.11-.76-.23-1.63-.37-2.72-2.68,0-5.17,0-7.64-.11,0-1.12,0-2.11,0-3.13-1.52-1.78-1.91.42-2.75.76h-4.64l-.41-1,3.53-1.46a41.66,41.66,0,0,1,.64-4.62c.08-.35,1.06-.49,1.63-.72v2.91c5.88,2.94,5.88,2.94,7.79,2.2L936,508h10.48l7,4H959l2.11-2h2.21c.36,1.09.75,2.23,1.13,3.39,1.43,1.16,3.1.33,4.44.51l3.06-2.26c2.8,1.32,4.1,3.73,6.09,5.32v2.27l3.37,1.09c1.24,1,.4,2.44.64,3.66,0,.33.14.81,0,1-1.61,1.48-4.29,1.3-5.43,3.5s-4.47,1-5.47,3.47c-2.22-.08-4.5.6-5.85-.07L961.37,526Z" transform="translate(-2 -428)"/><path class="cls-1" d="M3468,684h-3l-2.12-2H3439c-.24-.23-.65-.42-.69-.68-.25-1.56-.42-3.12-.61-4.6-1.52-1.34-3.23-.43-4.27-.6l-5.4,2.77c.63.7,1.24,1.39,1.9,2.15v2.83c-1.25,2-2.12,3.36-3.12,5l-3.86-2.55c-2.91,1.92.43,3.34.7,5.22-2.48,1.16-5.14.15-7.69.5v-5l-2.18-2.39c1.13-.25,2-.49,2.93-.65,1.1-.19,2.58.56,2.9-.73-1.37-3.83-6.05-2.84-7.67-6.46a20.47,20.47,0,0,0,3.28-1.17c.42-.23.5-1.08.74-1.65,1.88-.24,3.87.57,5.64-.61.3-1.87,1.15-3.78-.63-5.38h-3.94a11.31,11.31,0,0,0-4.25-6h-3.7c-3.35-3.05-8.36-3.19-11.1-7v-3.53l-2-3.47h3.77c.79,1.1,1.9,2.66,2.93,4.12l2.67-2.21c1.84.73,3.51,1.8,5.27,2s3.17.51,4.21,2h8c1.2-1.48,3.1-1.86,5-2.66.05-1.18.12-2.46.23-4.75l3-2.46,3.76,3.76h4.78c.21-1,.4-2,.63-3.1,1.13-1.45,2.93-.41,4.89-.81l3.28,4.1H3452c.23,1.24-.54,1.7-1.54,2-.85.26-1.7.55-2.47.8V655l-2,2.16v3.62c-.87,1.21-1.6,2.2-2.32,3.21l2.13,3.26-1.66.77-2.28,1c2.06,1.19,4.18,1.17,5.27,3h6.9c.22.55.35,1.51.68,1.59,1.19.27,1.39-.62,1.32-1.59a5,5,0,0,1,5.07,2H3466c-.23,1.23.52,1.79,1.53,2,1.51.28,3.26-.6,4.61,1.24l-3.55,1.16C3467.45,680.14,3468.23,682.13,3468,684Z" transform="translate(-2 -428)"/><path class="cls-1" d="M3498,616v-9c1.59-3.14,5.75-2.83,7.71-5.8-.28-2.78,1.39-5.17,2.35-7.62-.9-2.6-4.52-3.25-4-6.57l5-2.59,3.09,1.83,3.27-2.34c.51.15,1.84.15,2.17.73,1,1.73,3.11.8,4.36,2.15l-1.75,2.11c-.12,2.14-.23,4.37-.39,7.32l-2.48-1.88-5.8,2.92c1.51.32,2.41.55,3.31.69s1.86.22,3.1.35v8.53c1.69,1.84,3.46.79,5.26,1.19.39-1.11.78-2.25,1.24-3.59,2.39-1.15,5.06-.12,7.61-.47l3.51,2H3539l3-3.09V600h8v2.94c-4.8,2.45-4.8,2.45-6.74,6.8a3.57,3.57,0,0,1-.87.25c-1,0-2,0-3.71,0l-2.91,4.08c-2-.79-2.64-2.83-4.63-2.06-2.27,1.23-.53,3.54-1.34,5.18l-3.1,3.09L3522,618h-3.09l-1.84-4.07L3514,617c0,2.4.06,5-.05,7.58,0,.49-.71.95-1.13,1.47-1.26,0-2.57,0-3.87,0-.24,0-.46.43-.93.9l4.23,2-8.25,5.81V638c-1.22.25-2.64-.6-4,1,0,1.54.09,3.48,0,5.4a1.54,1.54,0,0,1-2,1.55v-3l-2-2.1V635c.69-.75,1.35-1.47,2-2.14Zm13.85-5c1.81,1.29,3.08,1.88,3.91-.29C3514.59,609.62,3513.49,609.69,3511.85,611Z" transform="translate(-2 -428)"/><path class="cls-1" d="M3518,634a4.91,4.91,0,0,1,4-4h1.84l6.12,6.4c-.15,3-3.76,2.88-5.76,4.42-.2,1-.37,1.86-.58,2.9a12.33,12.33,0,0,1-1.49-.63c.63-2.26-1.88-3.12-2.21-5C3519.67,636.65,3518.67,635.35,3518,634Z" transform="translate(-2 -428)"/><path class="cls-1" d="M3506,638c4.21,0,4.21,0,8-2,0,2.23,0,4.46,0,6.69,0,.26-.28.51-.44.78-1.4,1.08-3,.25-3.78.39L3506,646Z" transform="translate(-2 -428)"/><path class="cls-1" d="M3770,524h-3l-2.13,2c-1.56-.35-3.32.69-4.91-1a30.36,30.36,0,0,0,3.22-3.3,17.27,17.27,0,0,0,1.51-3.53h4.49C3770.61,520.1,3769.74,522.11,3770,524Z" transform="translate(-2 -428)"/><path class="cls-1" d="M3674.56,587.77l-1.74,2.05C3671.46,588.07,3673,588.21,3674.56,587.77Z" transform="translate(-2 -428)"/><path class="cls-1" d="M3470,686a1.7,1.7,0,0,1-2-2A1.7,1.7,0,0,1,3470,686Z" transform="translate(-2 -428)"/><path class="cls-1" d="M3477,676a6.53,6.53,0,0,1,.63,1.34c0,.17-.41.44-.63.66a6.53,6.53,0,0,1-.63-1.34C3476.34,676.49,3476.78,676.22,3477,676Z" transform="translate(-2 -428)"/><path class="cls-1" d="M2626.27,1120.28c-.2,2-.35,3.51-.54,5.32l-2.89.56c-1.7-3.13-.3-6.35-.89-8.92l3-3.24H2629c1.07,1,1.08,1,.64,5.62Z" transform="translate(-2 -428)"/><path class="cls-1" d="M2580,1132v8h-5c-2.44-2.23-.16-4.92-1.19-7C2576.1,1131.41,2578.11,1132.25,2580,1132Z" transform="translate(-2 -428)"/><path class="cls-1" d="M3422,494c-.1-2,2-2.44,2.76-3.82l4.95-.46c.08-1.13.15-2,.25-3.29l-6.07-.9c1.65-1.92,4.23-1.69,5.28-3.67s3.25-1.79,5.29-2.73L3430,477l3-3h4c2.16,1.23.32,3.64,1.43,5.36,1.21,1.34,1.32-.64,2-.84.89-.25,1.77-.56,3-.95.29-.84.7-2,1.19-3.39h4.63c1.72,2,0,4.5.91,6.65,1.16,2.22,3.57.37,5.51,1.67.11.64.28,1.55.43,2.36L3451,490h-8.09l-2.05-4.39c-.54,1.56-.95,2.72-1.46,4.19l-2.73-1.51c-1.3,1.79-.42,3.82-.68,5.72h-2l-3.31-1.9c-.33,1-.69,2.14-1.07,3.3-1,1.16-2.41.37-3.62.6-.55-.22-1.13-.4-1.65-.67C3423.55,494.92,3422.78,494.45,3422,494Zm11-10c-.22.22-.66.49-.63.66A6.53,6.53,0,0,0,3433,486c.22-.22.66-.49.63-.66A6.53,6.53,0,0,0,3433,484Z" transform="translate(-2 -428)"/><path class="cls-1" d="M3439.71,471.29l-.71.71a6.53,6.53,0,0,1-.63-1.34c0-.17.41-.44.63-.66Z" transform="translate(-2 -428)"/><path class="cls-1" d="M3236,728c-.9,2.74-3.35,4.12-5.16,6h-9.64l-2.67,2.06c-2.54-.19-3.1-2.08-4.63-3.09l5.61-5c1.94,0,4.57,0,7.2,0,.26,0,.53.31.79.48l1.44,1.44,2.11-1.94Z" transform="translate(-2 -428)"/><path class="cls-1" d="M3368,746l-2.18-.89,4-1.9c.06-.66.13-1.3.21-2.14l-4-2,3.72-3.92.94-3.33,4.57,4.26c1.39-2.9.48-5.89.84-9.3l-4.07-3.15V721l-2.93-2.77-4.77-.53c-.1-1-.19-1.93-.31-3.11,1-.2,2.48-.82,2.74-.49,1.67,2.13,4.82,1.65,6.36,3.83,1.66-1.27.46-3.1,1.13-4.77l3.53-4.78c-.44,2-1.76,7.83-1.83,8.14l1.93,2.69v19.89c1.7.91,2.1,3,4.14,2.93-.41,2.08-1.94,3.14-4.1,4.24l-3-2c-.55,1.17-1.15,2.47-2,4.19Z" transform="translate(-2 -428)"/><path class="cls-1" d="M3472,638v5c-.66.72-1.3,1.42-1.89,2.08l2.12,2.5-6,.89,4.53,9.23,3.42,1.17c-2,2.27-5.64-.11-7,3.2l-3-2.79V651.1l-6.18-4.78V642h4.92c2.13-1.33.4-3.65,1.39-5.32,1.33-1.38,3.07-.33,4.34-.63Z" transform="translate(-2 -428)"/><path class="cls-1" d="M3502.77,591.76h-7.53l-1.91,1.91c-1.74-.85-3.53-1.74-5.35-2.65l3-3h4l2.09,2C3498.55,590.36,3500.32,589.3,3502.77,591.76Z" transform="translate(-2 -428)"/><path class="cls-1" d="M3458,642h-2c-.07-1,.13-1.86,1.32-1.59C3457.65,640.49,3457.78,641.45,3458,642Z" transform="translate(-2 -428)"/><path class="cls-1" d="M3494.09,704c-.42,0-.85-.13-1.06,0a12.5,12.5,0,0,0-1.37,1.35,6.41,6.41,0,0,1-1.78.59c-3,.06-5.93,0-8.88,0l-1.42-1.42a6.16,6.16,0,0,0-1.74-.55c-4.28,0-8.57,0-13,0-1.46-2.36-.89-4.87-.61-7.29.33-.29.58-.68.82-.68,4,0,7.92,0,12.71,0l6.1,6.19,3.57-2h6.27C3493.87,701.52,3494,702.75,3494.09,704Z" transform="translate(-2 -428)"/><path class="cls-1" d="M3493.93,704h3.4c.26.94.56,2,1,3.58l-4.08.45C3494.11,706.4,3494,705.2,3493.93,704Z" transform="translate(-2 -428)"/><path class="cls-1" d="M3496,652c-.56-.23-1.55-.37-1.61-.7a36.62,36.62,0,0,1-.42-4.21c1.4-1.69,2.81-.85,4-1.09v2.53Z" transform="translate(-2 -428)"/><path class="cls-1" d="M3416,674c-2.05-1.18-2.05-1.18-1.17-3.83C3417,670.91,3415.63,672.72,3416,674Z" transform="translate(-2 -428)"/></g></g></svg>