<svg xmlns="http://www.w3.org/2000/svg" viewBox="0 0 4320 2160"><defs><style>.cls-1{fill:#4d52b4;}</style></defs><g id="Layer_13" data-name="Layer 13"><g id="Dwc"><path class="cls-1" d="M3950,312l-1.8.74v17.1l4.91.27,4.57,9.18-1.83,2c.26.86.54,1.75.86,2.81l2.34-2.13H3962c2.77,1.43,5.86,2.36,7.93,4.93L3968,349.1c1.33.64,2.64,1.25,4,1.89-1.45,1.72-3.24.68-4.78,1-1.34-.74-2.09-2.73-4.16-2l-2.11,2H3957l-2.27-2.05H3943l-2.16-1.79-1.55,1.55c-2.26,1.28-5.23-1.15-7.23,1.35l2.06,2.29c-.6,1.45.62,3.28-1,4.56l-5.71.34c1.33,2.15-.48,4.15.53,4.95,3.2,1.79,3.87-.35,5.19-1.17,1.53.34,3.3-.71,4.56.68l-2.36,4.94-3.34,1.13V372l-3.47-2H3920c-.57-.23-1.42-.31-1.64-.73a22.6,22.6,0,0,1-1.23-3.34c-1.57,0-2.89,0-4.2,0-.24,0-.47-.44-.7-.67l-.69-2.69c-.26-.18-.51-.51-.77-.52-3.3,0-6.59,0-9.77,0l-2.8,2.8c-.21,1.05-.39,1.95-.52,2.57-1.37,1.11-3.9-.07-3.68,2.63h-4a5,5,0,0,0-5.07,2H3880v-3c-1.22-1.72-3.05-.68-4.61-1.14l-2.41,2h-21.9c-1.19-.5-1.86-2.65-4.62-1.66l-4.93-6.13h-4.86c-.45,1.22-.88,2.37-1.38,3.7h-4.57c-.5-1.31-.94-2.46-1.32-3.47-2.86-1.9-3.65,2.91-6.89,1-.09-.33-.44-1.46-.78-2.6-1.38-1.43-3.14-.36-4.75-.74l-2.88,3,3.81,1.84c0,.72.06,1.37.1,2-1.49,2.13-3.49.94-5.23.84-.29-.27-.75-.49-.75-.72-.05-3,0-6,0-9l2-3.48V349c.71-.77,1.36-1.49,1.91-2.1.79-2.2-1.43-2.82-1.94-4.28.38-2.17-1-4.59,1-6.64a43.84,43.84,0,0,0,4.86,0c1.34-.16,3.19,1,4-1.32-3-1.76-6.51.49-9.44-1.26-1.09-1.86.48-2.78,1.22-4.15s.49-3.07.66-4.54l2.79-2.64c1.75-.37,3.53.66,4.77-.85a2.92,2.92,0,0,0-1.06-3.47,2.15,2.15,0,0,1-.21-3.31c2-1.18,3.08.1,4.18,1.32,2.86-.81,2.67-3.88,4.23-5.7h2l2.08,2h3v3l-2.85,2.78-5.26.57c.07,3.26,3.07,5.71,2.45,8.42l4.6,5.28h4.14L3844,335c.34,2.21-.55,4.55.85,7.09l3.19-.6V336h2.47c6,3.1,6.12,9.95,10.28,13.91,1.7-.56,3.91,1.55,5-1.2l-4-1.61c1.12-2.19-1.24-4.91,1.26-7.06h6c1.86,2.34,5.55,2,6.83,5,.73,1.49-.74,3.31.81,4.68,3-1.25,4.16-4.82,7.46-6l3,2.08,2-1.65c1.33,1.33,2.32,3,3.73,3.55s3.07.82,4.05,2.31c3.33,0,6.65,0,10,0,.25,0,.49-.39,1-.81-2.91-1.46-1.28-4.44-2.32-6.61-1.42-.86-4.32-.16-3.56-3.34,2.23-2.7,4.58-5.25,7.9-6.13V329l-1.51-1.86,2.66-5.1H3921l3.46,2.94,2.22-4.85c4.22-.64,2.59,2.89,4.39,3.81.62-1.33,1.24-2.66,1.85-3.95h6.71l3.39,4.27,3.16-1c-2-1.31-1.92-3.42-3.05-5.25-1.78,0-3.86.41-5.68-.11s-3.51-2-5.81-3.34c1.51-.25,2.41-.41,3.32-.55l2.76-.37c-.11-2.35-1.78-1.35-2.8-1.73-1.38-2.12-4.34-3-4.89-5.9h6.42l7.5,4.05c2.28-.31,3.6-4,6.08-1Z" transform="translate(-246 -237.93)"/><path class="cls-1" d="M3814,410v-9.15l3.68-2.85H3828c-2.06,4.16-6.12,6.53-8.22,9.17Z" transform="translate(-246 -237.93)"/><path class="cls-1" d="M3916,1154h-2v-2c.22-.55.4-1.13.67-1.65.41-.8.88-1.57,1.33-2.35,3.32-.67,5.21,2.36,8,3.11.08,0,0,.58,0,.89-2.2,0-4.4-.11-6.59,0A1.53,1.53,0,0,0,3916,1154Z" transform="translate(-246 -237.93)"/><path class="cls-1" d="M3934,1156h-10v-4c3.82-.57,6.9,1.27,10,3.09C3934.12,1155.17,3934,1155.69,3934,1156Z" transform="translate(-246 -237.93)"/><path class="cls-1" d="M246,818c.21-.55.34-1.51.66-1.57a47.81,47.81,0,0,1,5-.56l.3,3.4c-2.2,1.19-4.11.54-5.95.73Z" transform="translate(-246 -237.93)"/><path class="cls-1" d="M3934,372a1.7,1.7,0,0,1,2-2A1.7,1.7,0,0,1,3934,372Z" transform="translate(-246 -237.93)"/><path class="cls-1" d="M3800,440v2l-1.85.76v5.6c-1.65,2.31-3,4.68-6.11,3.8v2.78l1.95,2.11c.75,2.07-1.26,2.82-1.91,4v4.24l3.5,1.25c.36,1.79-3.49,2.55-.2,5.41,1.84.34,4.8-.21,7.94.12l.95,2.87c-1.76,1.48-3.54,2.95-6.11,5.09-.95.28-3.61-.83-5,1.86h-5.91L3785,484h-8.21a21.72,21.72,0,0,0-2.47,2.81c-.63,1,.06,2.63-1.83,3.3-2.47-.5-4.66-3-7.46-2.3-2.15-.42.43-3.62-2.88-3.37-.07,1.53-.14,3.1-.21,4.68L3759,492h-15.89l-2.19,2h-4l-2.82-2.82c-.93-2,.64-3,1.79-4.15v-4.44l-6.23-1.23,2.17-2.45-5.33-5.33-3.26-7.32-4.56-.49c-.31-.34-.72-.57-.73-.82-.05-2,0-4,0-5.95l-2.92-2.92c-.68.62-1.38,1.24-2.12,1.9H3697.1l-2.16,2h-6l-5-5v-2.48l-3.07-.54c-.53.66-.9.91-.9,1.16,0,3.31,0,6.63,0,10.12l3.5,1.23s-1.18,4.82-1.24,5.09l2.93.6,2.66,2.66c.05.64.1,1.29.17,2.13l-4.14,2,3.44,3.16c1.13,2.23.55,4.22.66,6.15.09,1.63,0,3.27,0,4.76-1.52,1.64-3.28.91-4.83.91s-3.29.63-4.87-.56c-.17-1.52-.35-3.1-.57-5l-2.93-.61-3.51-3.57h-16.77c-.2.79-.44,1.69-.82,3.16-1,1.76-3.4-.16-5.35,1.16-.12.6-.31,1.52-.53,2.62l-8.49,8.49-2.7.56c-.39,1-.81,2.21-1.36,3.71h-6.11c-3.61,2.82-4,6.92-6.12,10h-4.1L3616.2,515c-.16,1.28-.34,2.85-.57,4.76h-8.43c-.58.58-1,.78-1,1.06a18.22,18.22,0,0,0-.21,2.28l-5.22,4.62h-8.08c-.33-.51-.64-.77-.65-1,0-2.64,0-5.28,0-8.76l4.8-3.12-2.55-3.93,1.72-2v-4l3.05-2.7,1.94,1.63c2.14-1.75.33-4.31,1.12-6.23s2.41-3.77,1.83-6.61l-7.87-4v-2l2.1-2.28-3.58-1.23c-1.33-.82.48-3.72-2.35-3.57-2.67.14-3.41,2.86-5.33,4-2.06-.74-2.76,1.35-4.15,2h-5l-5.76,3v5h-5l-2.12-2c-1.63-.35-3.41.69-4.71-.79-.21-1-.41-1.87-.65-2.94-1.63-.42-3.89-1-4.65,0-1.79,2.36-4.28,1.13-6.23,2l-3.91,3.91h-8L3535,494l-2.19-2h-6.75l-2.61-3.75c-2.49-.46-4.32.56-5.46-1.25-.36-1.57.7-3.34-.68-4.63l-5.12,2.43v4.33c.64.84,1.14,1.49,1.55,2l-1.7,2.29,3.91,1.36V497c-1.47,2-4.06,3.12-4.29,6.21-.07,1-1.78,2.72-2.69,2.68-3.28-.13-4,3.19-6.63,4.27h-9.48l-4,4h-16.07c-1.43,1.68-2.74,2.8-4.37,1.25-1-1-2-1.7-3.18-1.39l-3.26,2.45-3.18-2.31h-12.06c-1.38,1.77-2.83,3-5.06.47l2.35-4.75c-.34-.64-.64-1.18-1-1.78h-3.92L3437,506h-7c.26-1.62-2.05-2.13-1.88-3,.54-2.83-1.08-4.76-2.12-7,1.21-.23,2.59.56,3.62-.6.38-1.16.74-2.3,1.07-3.3L3434,494a20,20,0,0,1-1.41,2.37c-1,1.23-.88,2.32.36,3.64,1.31-1,2.43-3.31,4.59-1.47.4,1.15.79,2.3,1.33,3.88.81-1.77,1.43-3.12,1.94-4.25l3.35-.66c-.3-1.39-.54-2.5-.75-3.51H3436c.26-1.9-.62-3.93.68-5.72l2.73,1.51c.51-1.47.92-2.63,1.46-4.19l2.05,4.39H3451l5.08-5.08c-.15-.81-.32-1.72-.43-2.36-1.94-1.3-4.35.55-5.51-1.67-.88-2.15.81-4.6-.91-6.65h-4.63c-.49,1.4-.9,2.55-1.19,3.39-1.23.39-2.11.7-3,.95-.72.2-.83,2.18-2,.84-1.11-1.72.73-4.13-1.43-5.36h-4l-3,3,4.5,2.09c-2,.94-4.29.86-5.29,2.73s-3.63,1.75-5.28,3.67l6.07.9c-.1,1.26-.17,2.16-.25,3.29l-4.95.46c-.73,1.38-2.86,1.78-2.76,3.82H3419a29.93,29.93,0,0,1-3.49,3.45c-.95.69-2.27.86-4.11,1.49a28.16,28.16,0,0,1,3.92,1.42c.42.23.5,1.07.73,1.64h-5.22l-3.5,4c-3.66,0-6.92,0-10.18,0-.25,0-.48-.39-.73-.6-.32-1.79-.65-3.58-1-5.34h-2.65a14,14,0,0,1-1.09,3.21,18,18,0,0,1-2.49,2.76H3386v-2.33l2.85-5.48,2.82-.62c.19-1.65.37-3.22.52-4.51l2.85-3.22,2,4.21c1-1.57,3-2.07,3-4.15-.92-1.85-1.87-3.78-2.9-5.87l-2.55.26c-.49,1.39-.89,2.55-1.28,3.68h-24.22l-4.09-3.9h-6.14c-1.34,3.21-5,.86-6.93,3,.16.84.33,1.75.39,2.05,2.91,2.54,3.55-1.13,5.41-1.12,2,.37,4.42-1,6.24,1.15l-3.71,1.74c.45,2.24,3.64-.29,3.37,2.51-2.27,1.73-5.28-.63-7.39,1.38-.21,1-.4,1.89-.57,2.69-3.2,1.39-6.69-.54-9.15,1.09-1.09,1.9.32,3.71-1.48,5.45h-5.91c-3.31,2.51-3.87,2.56-5.1.73-1.07-2.45,4.46-3.93,1.23-6.55l-2.85-.58c-.82-3.06-1.14-3.35-3.5-3.49L3326,497l4,1.88v4.14c-2.19,1.43-3.08,4.39-6,4.94h-4v-4.49l-2.74-3.34L3314,502c-.29-2.62-2.62-7.29-5-10-5.25,0-10.56,0-15.87,0-.25,0-.5-.37-.94-.73L3291,490h-9c.26-1.23-.63-2.68,1.14-4.06h16.19a15.57,15.57,0,0,1,2.58-5.33c.35-.47-.36-1.72-.57-2.58h-2.28l-2.12,1.92a3.13,3.13,0,0,0-.71-.7,73.76,73.76,0,0,0-7.5-3.6c-.39-.14-.49-1.08-.73-1.65h6v-6h6c.31,0,.84.1.9,0,.47-1,.59-2.39,1.34-3.08,1-.92,2.5-1.31,3.74-2,.13-.07,0-.59,0-.9v-5c-.22-.21-.43-.6-.7-.64-1.56-.25-3.14-.42-4.94-.64l-.46-3.16,5.89-1c.12-2.28.25-4.52.35-6.25l2.12-3.35c-.94-1.44-1.62-2.49-2.54-3.92l2.2-3.35v-3.45L3310,429v-6.19l3.37-1.13,3.59-3.59h3.88L3323,416H3327l2.09-2h3.69l3.37,2.35,2.93-2.21h7.43l2.47-2,4.9-.56c.1-1.61.19-3.19.3-5l2.55-.78L3359,408h3.85l2.21,2h8.33l1,5.77h8.63c1.28,2.83,2.42,5.35,3.57,7.87l3,.76c.26,1.74.53,3.57.8,5.41,2.19-.39,1.26-2,2.06-3.34l2.2-.61c2.84,2.14.68,3.78-.74,5.17,1.93,1.5,3.6.74,5.17.85.47-.47.89-1.27,1.42-1.36a23.59,23.59,0,0,0,10.28-4.19c.9-.66,2.52-.32,4.1-.47,2.37-1,2.8-3.72,4.07-5.86H3423l3.13-3.36c2.16-1.12,4.16-.53,6.08-.64,1.64-.09,3.28,0,4.77,0,2.18-2.4,4.51-3.28,6.93-1,1.46,1.4,3.06.75,4.57,1,2.84-1,2.95-3.95,4.38-5.9,3.25,1.45,2.86,5.65,6.13,7.75l3.66.22c2.71.66,2.85,3.6,4.16,5.81h5.84L3475,426h3.88c1.11-.42,1.43-2.25,3.1-1.95,0,.32-.11.87,0,.93a24.49,24.49,0,0,1,3.26,1.42c1,.69,1.68,2,4.21,1.42l2.51-3.7V422c1.19-.21,2.52.51,3.78-.77v-6.08c-.61-1.08-1.19-2.12-1.78-3.15v-2c3.85.6,6.9-1.35,10-3.15V404c0-.33-.11-.91,0-1,5-2.19,9.76-4.63,12.85-9,1.36,0,2.6.39,3.32-.06,3.7-2.34,8.51-2.13,11.86-5.08,1.52-1.33,3.11-.57,5.63-1.1l4.92-5.83h4.5c1.82-2.08.61-4.48.88-6.69s-.49-4.58.5-6.74c1.9-1.28,4.85.67,6.16-2.14l7-.65c.19-.9.37-1.81.58-2.84.39-.23,1.09-.95,1.43-.81,2.55,1.09,5,2.35,8.32,3.93h4.5l9.58,6.82v2.58l5.38,1,1.79,1.79h8.28c.31,1.24.54,2.14.89,3.55,2.69.56,5.64.14,8.83.3.36,1,.75,2.16,1.15,3.3a5.91,5.91,0,0,0,1.72.64c2.32.07,4.65,0,6.95,0l1.78,1.78h9l3.4,5,3.95-2.44c1.5.27.57,1.92,1.37,3.23,1,1.19,2.82.15,4.8.58.29.92.65,2,1,3.2,1.38,1.4,3.14.34,4.66.7l2.47,2.3,4.59-2.16h6.85l2.1-2.1h8.57c.24-1.2.43-2.11.65-3.22l2.74-2.74h6c1.21.61,1.93,2.66,4,1.91.72-.66,1.44-1.32,2.13-2H3697l2.1,1.91h22l1.49-1.49c1.88-.88,3.65-.34,6.61.09L3724,393c1.35,1.79,3.18.65,4.67,1.19l2.33-2c2.17-.25,4.39,0,7.56-.19l-2.63,3.41,3.65,1.11-1.06,1.25,4.91.54,1.35,3.74H3757l4,3.95h11.84L3775,408h5.86c1.07,2.9,3.7,5.2,3.08,8.85l-1.9,2.2v7.9c2.26,2,3.64,5.34,7.64,5.38.17,1.74.32,3.31.48,4.9,1.33,1.51,3.11.46,4.73.82l2.12,2Zm-490,46c-.37-1.28,1-3.09-1.17-3.83-.88,2.65-.88,2.65,1.11,4.06.08,1,.18,2.2.29,3.53,1.25,0,2.61.36,2.92-.06,1.39-1.86,3.22-1.71,5.14-1.74.74,0,2-.09,1.07-1.73C3316.32,486.23,3313.16,486.23,3310,486Zm64-22c.32,2.56-.56,5.22.32,7.43l3.39-3.39h7.22c1.23.82,2,2.68,4.1,1.95.91-1.3,2.68-1.94,3-3.73-.17-.6-.35-1.19-.66-2.26-2.12,0-4.4.14-6.64,0s-4.62,1-6.63-.87l5.61-3.11c2-.4,4.44,1.12,6.25-1.08a43.44,43.44,0,0,1-4.13-2.15c-1.57-1-3.85-.77-4.84-2.76-2.66,0-5.32,0-8,0-.24,0-.47-.44-.76-.73-.17-1.51-.35-3.08-.53-4.61a11,11,0,0,1-5.12-2.73H3361l-2.09-1.74c-2.34-.17-4.94.41-6.1-.62-2.11-1.87-4-1.7-6.18-1.13l-2.35,4.93c2.24,2.85,2.29,3.15.63,4.68h-3.87a11.93,11.93,0,0,1-2.29,1.94c-.85.42-2.53-.46-2.38,1.59,3.69.17,6.64,1.86,9.74,3.61l-.6,2.59-5.37.63a64,64,0,0,0-.07,8.63l1.73,2.06-1.74,2.2,3.64,1.35c.44,1.28-.06,2.8,1.47,3.35,1.56.37,2.37-.69,3.43-1.47a12.42,12.42,0,0,1,3.38-1.24c0-3.21,0-6.2,0-9.18a5.5,5.5,0,0,0-.63-1.73c-1.29-1.39-1.29-1.39-.57-2.11h8.54c1,1.5,3,2.08,2.86,3.07l-5.4,6.51-2.66.85c-.05.89-.08,1.54-.13,2.5.76.26,1.63.5,2.44.86.56.24,1,.68,1.59,1,.8.44,1.63.83,2.65,1.34l5.34-5.2a50.61,50.61,0,0,1,0-5.59c.23-1.85-1-4,1-5.54Zm-43-30h-4l-2.14-2c-2.26.34-4.64-.82-6.93.95l3.92,1.89c.44,2.28-.44,4.63.66,6.75a16,16,0,0,1,2.73.75,10.12,10.12,0,0,1,1.9,1.5l1.73-1.74h4L3335,444h3.82l2.18,2,2.88-2.88c-2.24-1-4.69-1.93-5.94-4.18C3336.4,436.09,3332.84,436.3,3331,434Zm-1.77,45.85-2.93-2.47c-.39-1.46-.62-2.35-.83-3.14h-6.8c-1.11,1.73-.56,3.35-.52,4.65L3323,484h6l2.19,2c2.94-.2,5.9.4,8.64-.47.09-1,.14-1.66.21-2.36-1-1.19-2-2.42-2.76-3.34ZM3577.55,402l2.83-3.45c2.4-1,4.22.21,5.48-1.39l-2-2.52c-5.8-1.94-9.12,2-13.26,1.73l-3.42,3.42-3.28.67c.21,1.33.39,2.46.57,3.53h4.44c.69-.66,1.41-1.32,2.12-2Zm-37.74,8h-4.75c-.24.22-.49.42-.71.66-.44.47-.86,1-1.18,1.34-5.12,0-5.12,0-6.83,1.4,2.14,1.22,4.45.55,6.66.55s4.52.67,6.81-.64Zm-88.19,37.82c.14-1,.21-1.94.39-2.82s2.54-1.05,1.37-2.71c-.42-.12-.77-.36-1-.27-2.19.93-4.35,1.9-6.6,2.9l.69,2.9Zm-11.91,23.47L3439,470c-.22.22-.66.49-.63.66A6.53,6.53,0,0,0,3439,472Z" transform="translate(-246 -237.93)"/><path class="cls-1" d="M3237.69,463.94A16.65,16.65,0,0,0,3238,460c.44-2.09,1.93-3.2,3.82-4.06l5.44,2.69c.43-2.36.76-4.17,1.14-6.29a6.77,6.77,0,0,1,2.63-.2c.8.26,1.39,1.15,2.14,1.83.55-2.9,3.58-4.75,2.83-8h8.56l3.44,2c.82,2.73,2.44,4.49,5.53,4,.29,1.37.47,2.27.66,3.2,2.16,2,5.13-.29,7.57,1.5,0,.74.1,1.64.15,2.42-2.35,2-5.29-.19-7.62,1.57.53,2.39,2.5.86,3.71,1.31a1.53,1.53,0,0,0,1.41,1.95c2.19.16,4.39.05,6.59.05l-.67,1.68c-3.68,1-7.64-.62-11.77,1.22l4.44,3.66V474h-6.86l-2.09,1.9c-2.27.62-5-.84-7.05,1.16V482h-3.44c-.28-1.72-.57-3.52-.87-5.34-2.09-1.35-4.41-.4-6.61-.66l-2.13-2h-8.84c.73-3.06,2.67-1.57,3.89-2h4.9l3.12-2.92c.27-.46,2.78,2.52,3.78-.28-.24-.23-.46-.66-.69-.66-3.49,0-7,0-10.36,0L3244,470l-3.58-2.06c-1.65-.18-3.92.62-6.13-.55a5.25,5.25,0,0,1,3.4-3.45c.62.89,1.17,1.95,1.75,2,1.46,0,3.15.71,4.46-.79C3242.25,463,3239.94,464.39,3237.69,463.94Zm12.88-3.11c-4.82-.91-4.82-.87-6.23.52C3246.11,462.35,3247.89,462.35,3250.57,460.83Z" transform="translate(-246 -237.93)"/><path class="cls-1" d="M3716,300c-1.42,2.79-2.37,5.87-5.09,8.06l-3.06-.52,2-2.48c-.52-.6-1.07-1.31-1.72-1.93a7.73,7.73,0,0,0-1.38-.88c-.25.61-.49,1.18-.72,1.75l-3.47,2H3700v-7.21l-4-3.44V291l-2-2.11V286l3.31-1.91c.34,1,.72,2.18,1.18,3.57l2.87.56c.3.92.68,2.06,1.11,3.36,2.4,1,5,.12,7.53.42,1.21.45,3.19-1.09,3.71,1.34-3.06,1.75-6.58-.42-10.1,1.56l3.12,3.25h8.51C3715.53,298.86,3715.77,299.43,3716,300Z" transform="translate(-246 -237.93)"/><path class="cls-1" d="M3260,428c-.56.23-1.58.4-1.62.7-.31,2.2-.43,4.43-.6,6.59-1.89,1.29-3.9.46-5.78.71.23-2.74-2.37-1.47-4-3l-3.82-3.81V423c.54-.58,1.4-1.53,2.14-2.34.43-.29.68-.61,1-.62,3.3,0,6.61,0,9.9,0C3257.72,422.93,3260.75,424.78,3260,428Z" transform="translate(-246 -237.93)"/><path class="cls-1" d="M3528,290v-2l2.9-1.68c1.64.85,3.27,1.67,5,2.56l-1.84,2.14v4.06c-1.56,1.35-3.28,2.82-5.69,4.88h-5.84c-.26,1.13-.47,2-.76,3.26L3519,304.5l-3-4.78V298c.43-.67.72-1.65,1.33-1.92A7,7,0,0,1,3520,296l4,0c0-1.64,0-2.81,0-4a7.17,7.17,0,0,0,2.67-.08C3527.28,291.65,3527.57,290.67,3528,290Z" transform="translate(-246 -237.93)"/><path class="cls-1" d="M3486,420a39.69,39.69,0,0,1,4.63.05A1.54,1.54,0,0,1,3492,422h-4.93a5,5,0,0,1-5.07,2A4.91,4.91,0,0,1,3486,420Z" transform="translate(-246 -237.93)"/><path class="cls-1" d="M3469.29,420.29l.71.71a6.53,6.53,0,0,1-1.34.63c-.17,0-.44-.41-.66-.63Z" transform="translate(-246 -237.93)"/><path class="cls-1" d="M912,274h34.83L949,276h5.81l2.2,2h4.2l1.17,3.55c2.4,1.12,5.06.12,7.6.46.23.57.48,1.63.7,1.63,2.26-.06,3.45,1.54,5,3.09.15,1.35.32,2.92.47,4.35l2.78,3,3.93-3.93c2.23,1.62,3.85,4,6.17,5.81,2.08.21,4.31,0,7.45.15-1.16-1.5-1.66-2.14-2.2-2.85,0-.14,0-.57.09-.58,3-.55,5.23-4,9.14-2.14l.56,2.19c-1.4,2.43-3.79.59-5.55,1.72-1.19.93-.3,2.37-.56,3.6a1.51,1.51,0,0,1-1.48,1.95c-4.17.11-8.35.05-12.52.05-.26-1.23.63-2.68-.81-3.8h-6.76c-.3,2-.58,3.84-.88,5.8-4.33,0-8.3,0-12.27-.05-.37,0-.73-.74-1-1.07l2.68-2.85c1.68-.38,3.45.68,5.3-1.26l-3.72-3.32c-3.13,3-4.3-2.08-7-1.45l-2.9,2H951.3c-1.31-1.64-3.61-1.78-5.14-3.25,2.28-1.42,4.63-.47,6.8-.76l2.07-1.87,2.13,1.78a5.14,5.14,0,0,0,.05-5.8l-2.54,2L951.75,282l-5.82,3L950,286.9c-1.61,2-3.54,1-5.38.73l-3.53-3.53c-2.24,0-4.54-.66-6.67.44-1.42,2.35,1,5.36-1.43,7.46h-7c-.31,0-.85.09-.89,0A18.17,18.17,0,0,0,920,284.9c-.15-.14,0-.59,0-.9s.07-.91,0-.93c-3.52-1-5.62-3.75-8-6.07Z" transform="translate(-246 -237.93)"/><path class="cls-1" d="M379,280H387a23.94,23.94,0,0,1,8.33-3.78c1.28,1.73-1.14,1.81-1.32,2.86s-.31,1.82-.47,2.75l-7.6.4a32.36,32.36,0,0,1,2,3.2,15.92,15.92,0,0,1,.76,2.57h2.75c.18,1.06.37,2.2.64,3.76H381l-2.19,4.49c-.6-1.59-1-2.74-1.54-4.12l-3.73-.18L368,298h-7l-2.91-2.92V289c.73-.78,1.64-1.73,2.48-2.61,1.72-1.13,3.86.39,5.57-1.38,1.23-1.26,3.23-1.78,5.52-3h5.17Z" transform="translate(-246 -237.93)"/><path class="cls-1" d="M446,314h15.22l3.33,4H468c0,3.64,0,7.28,0,10.92,0,.25-.4.49-.64.75-1.83.24-3.84,1.21-5.34-.72s-4.14.09-5.32-1.44c-1.34-1.73-3.58-1.11-4.95-2.67-1.19-1.37-3.6-1-4.84-2.77-.32-.46-1.89-.07-2.88-.07h-2v-7C443.48,313.49,444.81,314.21,446,314Z" transform="translate(-246 -237.93)"/><path class="cls-1" d="M960,306c.21-.55.36-1.52.65-1.56a42.16,42.16,0,0,1,4.51-.28c1.71,2.73,4.46,1.6,6.84,1.84v9.38l5.4,1c.69,2.24-1.22,1.24-2,1.67a19,19,0,0,0-2.45,1.9h-7.69c-.75.67-1.47,1.32-2.25,2h-1.92l-2.12-2h-4c-1.13-2.86-3.52-5.28-2.9-9.23,2.24-.95,4.76-1.95,7.2-3.11C959.69,307.45,959.77,306.57,960,306Z" transform="translate(-246 -237.93)"/><path class="cls-1" d="M314,360v2h-5L307,363.94H296.9c-1.51-1.56-.88-2.72.27-4.22,1.32-1.72,1.45-4.26,3.82-5.6h5.45L314,358Z" transform="translate(-246 -237.93)"/><path class="cls-1" d="M704,278c.19-2.1-2.22-2.28-2.59-3.9H691.2l-2.45-3.85c-.24.24,0-.2.23-.2,5.29,0,10.59,0,16,0l2.1,2h3c-.45.78-.92,1.55-1.33,2.35-.27.52-.45,1.1-.67,1.65a1.7,1.7,0,0,0-2,2Z" transform="translate(-246 -237.93)"/><path class="cls-1" d="M406,318c-1.9,0-3.9.39-5.67-.1a34.87,34.87,0,0,1-6.31-3c-.13-.07,0-.6,0-.92l.75-1.83h10.49C406.59,314.1,405.75,316.11,406,318Z" transform="translate(-246 -237.93)"/><path class="cls-1" d="M962.7,344.24h6.67c.22.48.49.81.42.94-1.23,2-7.33,6.26-10.09,6.73-.55.1-1.29-.94-1.7-1.26,0-.83-.14-1.3,0-1.48C959.58,347.47,961.19,345.82,962.7,344.24Z" transform="translate(-246 -237.93)"/><path class="cls-1" d="M949.84,321.9v5.35c-1.29,1.06-2.66,1.34-3.46,0-1-1.67-3-.75-4.18-2v-2.6C944.51,321.43,946.8,322.24,949.84,321.9Z" transform="translate(-246 -237.93)"/><path class="cls-1" d="M858.87,248.49l-4.09-2.31c-4.33,2.77-6,3.45-9.73,3.87-1.15-1.15-2.37-3.41-3.94-3.69-2.26-.4-3.36-1.77-4.93-3.16v-4.47c2.32-1.37,4.64-.54,6.87-.68l3.53,3.53c2.73,1.29,4.85-.14,7.36-1.85l3.37,2.14,6,.33.46,1-3,1.24C860.36,245.3,859.72,246.66,858.87,248.49Z" transform="translate(-246 -237.93)"/><path class="cls-1" d="M1014,298h-3l-4.82-4.92c.66-1.12.66-1.14,5-.86L1014,295Z" transform="translate(-246 -237.93)"/><path class="cls-1" d="M912,274h-7.6c-.2-2.26,1.2-1.79,2.16-2s1.66-.8,1.44-2A4.91,4.91,0,0,1,912,274Z" transform="translate(-246 -237.93)"/><path class="cls-1" d="M969.91,282.17c.11-1.37.2-2.57.28-3.54,2.17-1.16,3.85-.27,5.68.32Z" transform="translate(-246 -237.93)"/><path class="cls-1" d="M1014,298c1.28.37,3.09-1,3.83,1.17C1015.18,300.05,1015.18,300.05,1014,298Z" transform="translate(-246 -237.93)"/><path class="cls-1" d="M3726,278c.55.22,1.49.33,1.59.68a25.46,25.46,0,0,1,.54,3.82l-1.78,2.3a4.09,4.09,0,0,0,3.54,2.92c.32,1.27.18,2.82,1.93,1.46a17.45,17.45,0,0,0-1.93-1.46c.11-1.38.11-3,.11-4.7,1.7-1.12,2.45-4.31,5.52-2.51.93,1.83.35,3.82.46,5.75.09,1.63,0,3.27,0,5.28l5.78.89v4.8c-1.38,1.48-3.15.42-4.69.77l-2.15-2H3722c.71-3.06-2.16-4.9-2.64-8h-12.3l-2.09,2c-.32-.52-.9-1-.92-1.56a8,8,0,0,1,.39-3.72c.56-1.07,1.76-1.76,1.59-3.28a14.19,14.19,0,0,1,.18-2.71c1.83-.8,3.77-1.05,4.94-2.7H3718a1.7,1.7,0,0,0,2,2c.24,1.22-.6,2.63,1.07,4l2.93-.59V278Zm-3,6c-.22.22-.66.49-.63.66A6.53,6.53,0,0,0,3723,286c.22-.22.66-.49.63-.66A6.53,6.53,0,0,0,3723,284Z" transform="translate(-246 -237.93)"/><path class="cls-1" d="M3724,266c-.23.56-.31,1.41-.72,1.63a32.87,32.87,0,0,1-4.43,1.61l6.75,1.18c.16,1.93-1.85,2.27-2.53,3.51-2.27-.73-3.06,2.15-5.07,2.07v-9.21C3720.21,265.51,3722.15,266.21,3724,266Z" transform="translate(-246 -237.93)"/><path class="cls-1" d="M3996,320a1.53,1.53,0,0,1-1.41,1.95c-2.19.16-4.39.05-6.59.05v-2.94l-2-2.12v-4.19c.79-.24,1.64-.53,2.51-.74,3.24-.8,4.43,3.43,7.49,2.27Z" transform="translate(-246 -237.93)"/><path class="cls-1" d="M4096.81,255.89c2.75,1.94,3.79,4.73,4.76,7.58-1.49,1.13-3.14.16-4.52.58l-1.83-1.83h-6c-1.91-1.93-1.22-3.79-.74-5.94C4091.19,255.5,4094.12,256.4,4096.81,255.89Z" transform="translate(-246 -237.93)"/><path class="cls-1" d="M4168.53,332.08c-3.26-2.32-4.78,3.56-8,1.52-1.14-2.1-.31-4.4-.56-6.6.52-.33,1-.94,1.55-1,3.23-.08,6.47,0,9.92,0,.25,1.08.46,2,.7,3Z" transform="translate(-246 -237.93)"/><path class="cls-1" d="M4123.16,284h-1.42l-9.73-5.08c.64-.53.89-.89,1.13-.89q6.84-.06,13.69,0c.25,0,.5.36.74.55.15.6.29,1.19.64,2.65Z" transform="translate(-246 -237.93)"/><path class="cls-1" d="M4164,308v-6h10v2.92l1.94,2c-.45.34-.91,1-1.38,1C4171,308,4167.52,308,4164,308Z" transform="translate(-246 -237.93)"/><path class="cls-1" d="M4173.55,301.87a15.37,15.37,0,0,1,2-1.84,19.94,19.94,0,0,1,2.5-1.1c.83-.37,1.65-.77,2.18-1,2.07.57,1.71,2,1.9,3.43l3.43,1.18c0,1.75-1.77,2.28-2.56,3.47h-4.2c-.36-1.05-.75-2.18-1.29-3.77Z" transform="translate(-246 -237.93)"/><path class="cls-1" d="M4172,318h4a1.7,1.7,0,0,1,2,2c-.38,2.08-1.94,3.09-3.58,4l-1.84-.41C4171.47,321.84,4172.23,319.87,4172,318Z" transform="translate(-246 -237.93)"/><path class="cls-1" d="M4163.82,302.21l-1.64-1.39.64-.64,1.39,1.64Z" transform="translate(-246 -237.93)"/><path class="cls-1" d="M3818,484a18.86,18.86,0,0,1,2.38,1.41c2,1.63,2.11,4.41,3.55,6.45.46.66.07,1.92.07,3l-2.24,2.46v12.54h-9.18c-.41,2.07-.22,4.35-1.27,5.56s-.91,3-1.7,4c-1.32,1-3.82-.12-3.61,2.57-2.55-.36-5.23.69-7.71-.52l6.55-13.25,3-.77c.11-1.45.23-3,.31-4.22.88-1.3,1.57-2.33,2.2-3.28l-2.31-3.49c-.26-2.48,2-3.12,3.36-4.56h3.88C3815.71,489.06,3818.75,487.21,3818,484Z" transform="translate(-246 -237.93)"/><path class="cls-1" d="M3694,600h-2c-.56-.23-1.41-.3-1.63-.72a22.78,22.78,0,0,1-1.23-3.35l-2.22,2c-.29-.29-.72-.52-.73-.76-.05-1.94,0-3.89,0-6.21l2.56-2.73h12.53c1.46,1.17.44,2.94.75,4.45a17.06,17.06,0,0,1-8,6.38C3693.91,599.09,3694,599.67,3694,600Z" transform="translate(-246 -237.93)"/><path class="cls-1" d="M3704.19,591.63c-.15-2.68-.28-4.93-.42-7.4l-7-.39c-1.05-1.1-1.4-2.55-.14-3.36,1.69-1.07.84-3.08,2.11-4.33H3705c2.37.83,2.5,3.78,3.93,5.76l2.11.1c1.68,2.25.87,4.8.73,7.27-1.19.49-2.52.72-3.4,1.48A3.62,3.62,0,0,1,3704.19,591.63Z" transform="translate(-246 -237.93)"/><path class="cls-1" d="M3806,524v8l-8.36,4.17c-.68-.52-1.42-1.07-2.12-1.66-.49-.42-.93-.92-1.29-1.28v-8.52c.48-.35.73-.68,1-.69C3798.81,524,3802.4,524,3806,524Z" transform="translate(-246 -237.93)"/><path class="cls-1" d="M3714.71,581.71,3714,581a6.53,6.53,0,0,1,1.34-.63c.17,0,.44.41.66.63Z" transform="translate(-246 -237.93)"/><path class="cls-1" d="M3888,316a7,7,0,0,1-2.67-.08c-.61-.27-.9-1.25-1.33-1.92s-.72-1.65-1.33-1.92A7.17,7.17,0,0,0,3880,312c-.67-1.33-1.33-2.67-2-4s-1.33-2.67-2-4c-.32-1.27.95-1.61,1.38-2.43a19.85,19.85,0,0,0,1-3,9.87,9.87,0,0,0,3.09-1.17c1.07-.86,1.95-1.74,3.5-1.36,1.61,1.39,1.59,1.86-.74,4.71,2.47,1.71,5.38,2.82,7,6l4.1-2.66h3.51c.33.35,1.07.78,1.11,1.25.17,2.69,1.78,3.83,4.12,4.71,3.91,1.47,7.5,3.53,9.92,7.17-.46,2.65-.46,2.68-2.75,2.78-.66,0-1.33,0-2,0-1.24-2.14-2-4.64-4.27-6H3901l-2.2,2-2.19-.21c-.39-1.08-.82-2.23-1.31-3.6h-6.53C3887.37,313.32,3888.26,314.77,3888,316Z" transform="translate(-246 -237.93)"/><path class="cls-1" d="M3722,302.24h5.64c.14,1.09.25,2,.39,3l-2.44.87C3724,305,3722.31,304.06,3722,302.24Z" transform="translate(-246 -237.93)"/><path class="cls-1" d="M3718,300a7.17,7.17,0,0,1,.08-2.67c.27-.61,1.25-.9,1.92-1.33v4Z" transform="translate(-246 -237.93)"/><path class="cls-1" d="M3720,300a1.7,1.7,0,0,1,2,2A1.7,1.7,0,0,1,3720,300Z" transform="translate(-246 -237.93)"/><path class="cls-1" d="M3396,648l2,3.47V655c2.74,3.78,7.75,3.92,11.1,7h3.7a11.31,11.31,0,0,1,4.25,6H3421c1.78,1.6.93,3.51.63,5.38-1.77,1.18-3.76.37-5.64.61-.37-1.28,1-3.09-1.17-3.83-.88,2.65-.88,2.65,1.17,3.83-.24.57-.32,1.42-.74,1.65a20.47,20.47,0,0,1-3.28,1.17c1.62,3.62,6.3,2.63,7.67,6.46-.32,1.29-1.8.54-2.9.73-.91.16-1.8.4-2.93.65l2.18,2.39v5l-1.67.67c.31,1.61,2.74,2.64,1.07,5l-3,.58c-.22,2.19-.47,4.63-.71,7L3410,706h-3.18c-1.75-2.9-.22-6.32-1-9.17-1.54-1.43-1.59.5-2.36.71-2.48.6-5,.86-7.4-.22.56-1.77,2.12-1.07,3.15-1.57.24-.56.75-1.15.7-1.68-.23-2.56.67-5.22-.42-7.67l-2-.4c-.29.11-.74.14-.84.34-1.06,2.2-2.06,4.44-3.3,7.15l-3.11,1.1c-.16,1.48-.33,3-.5,4.71-1.73,1.35-1.78-1.12-3.34-1.3H3383c-1.53-1.34-1.12-2.63-.18-4.08l2.59,2.21c.3-1.18.52-2.07.71-2.82-1.41-2.41-3.79-.59-5.42-1.62L3380,690c2.68.21,1.54-2.28,2.61-3.68l2.64-.52c1.72-1.5-1.19-1.59-1.17-1.62v-4.94l-1.9-2.11L3384,674h8.94a11.33,11.33,0,0,1,2.17-2,10.1,10.1,0,0,1,2.77-.52c-1.17-3.22-3.61-.06-4.53-1.73l-2.38,2-2.95-2.71v-2.36l3.42-1.17c.19-.25.48-.48.54-.76.33-1.47-.64-2.33-1.45-3.38a11.78,11.78,0,0,1-1.25-3.38h-4.46l-1.13-3.36c-1.38-1.37-3.13-.32-4.66-.68-1.73,1.2-.69,3-1.21,4.78-.19.24-.55,1.15-.92,1.15-2.89.06-4.88,3.31-7.9,2.17l-2.45,2-.79-3.45-3.1-1c-.22-.24-.63-.48-.63-.72-.05-3,0-6,0-8.94l3.42,2h9.37l3.16-2.41,3.24,2.23c.47-.47.87-1.21,1.41-1.35,1.52-.37,3.13-.38,4.65-.76,1-.24.94-.89-.46-1.66H3376l-10-5.1c-.05-.77-.08-1.41-.14-2.3-2.19-1.09-3-4.08-5.87-4.64.23-.57.47-1.14.74-1.8h8.46L3373,638h4l2.16-2H3383l2.37-2.14c2,.82,4,1.63,5.95,2.48a1.4,1.4,0,0,1,.68.7,3.52,3.52,0,0,1,.06,1c-1.31.39-3.12-1-3.85,1.19,1.12.75,1.62,2.38,3.63,2.41.08-1.22.17-2.4.22-3.6H3396c0-1.64,0-2.81,0-4h7.29c.68.77,1.57,1.73,2.41,2.72a2.82,2.82,0,0,1,.3.86c-.13.6-.26,1.21-.44,2.07l-2.91.58-1.09,3.21c-.25.19-.5.53-.75.54-4.27,0-8.54,0-12.5.08-.62-.89-1.17-1.95-1.75-2-1.46,0-3.15-.71-4.46.79,1.65,2.13,4,.73,6.21,1.18-.54,1.18.22,1.81,1.23,1.9,1.63.14,3.29-.06,4.92.08A1.54,1.54,0,0,1,3396,648Zm10.16,35.09c-.21-1-.39-1.94-.58-2.88h-3.83c.9,2.67-.84,5.2,1,7.61l4.92.45c.11,1.18.15,2.13.31,3.05s.43,1.79.67,2.74c1.69-.93,1.07-2.37,1.36-3.54a32.65,32.65,0,0,1,1.68-4.22Z" transform="translate(-246 -237.93)"/><path class="cls-1" d="M3120,698v3.47l4,3.82c-.05.57-.09,1.21-.14,1.85-.54.29-1.3,1-1.59.8-2.67-1.5-6-2-8.1-4.81v-4.36C3116.11,697.41,3118.12,698.25,3120,698Z" transform="translate(-246 -237.93)"/><path class="cls-1" d="M3360,648a1.7,1.7,0,0,1,2,2A1.7,1.7,0,0,1,3360,648Z" transform="translate(-246 -237.93)"/><path class="cls-1" d="M3384.23,674.56l-2.05-1.74C3383.93,671.46,3383.79,673,3384.23,674.56Z" transform="translate(-246 -237.93)"/><path class="cls-1" d="M3402.29,705.29,3403,704c.22.22.66.49.63.66A6.53,6.53,0,0,1,3403,706Z" transform="translate(-246 -237.93)"/><path class="cls-1" d="M3374,526h7c2-1.86-1.35-2.21-1.06-3.7a22.85,22.85,0,0,0,.05-4.1h-9.22c-.5-1.43-.91-2.58-1.37-3.89l-4.91-.56-.69-2.78c-.29-.23-.74-.82-1.27-.93-1.26-.24-2.72.08-3.8-.44s-1.77-1.92-3.6-1.52l-2.24,1.9-2.92-3.21c0-1.6.23-2.44,2-2.89,2.34-.59,4.46-2.05,7.89-3.73h8.62l5.21-4.8.81-3.13h14.84c.89,1.69-.34,1.61-1.14,1.77-1.24.24-2.62-.46-4,.77-.11,2-.23,4.22-.34,6.41-1.26,1.15-2.6,2.21-1.48,4.23,1,1.22,2.4.35,3.63.6-.23.57-.31,1.41-.73,1.64a27.9,27.9,0,0,1-3.9,1.42l3.53,1.22,3.68,5.71h4.33l3.9,3.72,3.21.94c-.13,1.11-.23,2-.35,3l-5.27.58c-.26,1.74-.53,3.57-.82,5.55h-16.84C3376,528.43,3373.9,528,3374,526Z" transform="translate(-246 -237.93)"/><path class="cls-1" d="M3416,517v2.43l-3.51.74-.6-3C3413.31,515.53,3414.65,515.57,3416,517Z" transform="translate(-246 -237.93)"/><path class="cls-1" d="M3874.9,297.82c-2.76,3.47-4.79,1.42-7.81,2.6C3869.75,297,3872.06,298.39,3874.9,297.82Z" transform="translate(-246 -237.93)"/><path class="cls-1" d="M3874,294h4a4.91,4.91,0,0,1-4,4Z" transform="translate(-246 -237.93)"/><path class="cls-1" d="M3848.23,336.56l-2-1.74C3847.93,333.46,3847.79,335,3848.23,336.56Z" transform="translate(-246 -237.93)"/><path class="cls-1" d="M3361.35,453.7,3356,451c1.63-1.69,3.5-.92,5.37-.59A2.27,2.27,0,0,1,3361.35,453.7Z" transform="translate(-246 -237.93)"/><path class="cls-1" d="M3367,458l-2.73-2.73c.25-1.87,1.71-1.11,2.74-1.26C3368.44,455.35,3368.43,456.68,3367,458Z" transform="translate(-246 -237.93)"/><path class="cls-1" d="M3373.44,464.23l1.74-2.05C3376.54,463.93,3375,463.79,3373.44,464.23Z" transform="translate(-246 -237.93)"/><path class="cls-1" d="M3433,484a6.53,6.53,0,0,1,.63,1.34c0,.17-.41.44-.63.66a6.53,6.53,0,0,1-.63-1.34C3432.34,484.49,3432.78,484.22,3433,484Z" transform="translate(-246 -237.93)"/><path class="cls-1" d="M3172,568l-5.39,2.63c-.28-1.7-.47-2.82-.63-3.78,2.17-1.39,4.15-.62,6-.85Z" transform="translate(-246 -237.93)"/></g></g></svg>