<svg xmlns="http://www.w3.org/2000/svg" viewBox="0 0 4320 2160"><defs><style>.cls-1{fill:#320987;}</style></defs><g id="Layer_17" data-name="Layer 17"><g id="Dwd"><path class="cls-1" d="M3804,356v-3c-.22-.22-.45-.63-.7-.65-2.62-.18-5.23-.3-8.71-.48l-4.4-5.75v-3.37c2.25-1.4,4.6-.45,7.08-.78l1.3-3.79,4.55-.28c.3-.55,1-1.32.82-1.6-1.55-2.69-2-6-5.16-8.38h-7.88l-1.83-1.83h-6L3781,328h-19.89l-2.17-2h-2.18l-1.18-3.43c-.26-.18-.51-.52-.77-.53-3.31,0-6.61,0-9.78,0l-1.77,1.77c-4,0-8.23,0-12.46,0-.24,0-.47-.44-.71-.68l2.27-2.55-3.84-.54c-.29,1.37-.49,2.28-.75,3.48l-2.35.66c-2.57-1.35-.7-3.76-1.66-5.38s-1.9-3.15-2.85-4.73h-3c-3.7-1.51-6.81-4.54-11.21-4.3-1.29-1.77-.41-3.8-.67-5.7.23-.57.47-1.14.72-1.75a7.73,7.73,0,0,1,1.38.88c.65.62,1.2,1.33,1.72,1.93l-2,2.48,3.06.52c2.72-2.19,3.67-5.27,5.09-8.06h4c-.05,1.38.62,2.05,2,2.12.29,1.94,1.93,2.85,3.6,4l2.44-.87c-.14-1.05-.25-1.92-.39-3-2,0-3.84,0-5.65-.12,0-1.5-.64-2.17-2-2.12v-4h14.94l2.15,2c1.54-.35,3.31.71,4.69-.77v-4.8l-5.78-.89c0-2,.07-3.65,0-5.28-.11-1.93.47-3.92-.46-5.75-3.07-1.8-3.82,1.39-5.52,2.51v5a4.84,4.84,0,0,1-3.65-3.2l1.78-2.3a25.46,25.46,0,0,0-.54-3.82c-.1-.35-1-.46-1.59-.68.23-.57.46-1.13.76-1.85h5.81l2.38-2,2.27,1.95,4-5.87h5.45l2.55-2.26c1.64.33,3.43-.69,4.74,1l-4,4.16c.05.72.09,1.37.15,2.26l2.54.78,2.32-2.09c2.82-.26,5.77.23,8.64-.24.07-3-2.49-1.14-3.47-2.45-.82-1.11-2.62-1.49-4.14-2.27.09-.84.18-1.74.29-2.86h5.5c2.67-1.37,4.71-3.19,7.82-1.79a11.08,11.08,0,0,0,.41,2.53c.21.57,1,.88,1.32,1.45a15.69,15.69,0,0,1,.76,2.63l-4.09,2c.4.41.64.84.87.85,4,0,7.94,0,12.32,0l1.05,3.4c2.09,1.44,4.45.41,6.67.69l2.18,2h3.9l2.9,2.9-1.88,2.07,1.85,2-1.82,2.13c2.19,1.67,4.57.52,6.77.85,2.26,1.41,3.28,3.71,4.31,6,2.29-.8,3,2.34,5.15,2a20.4,20.4,0,0,1,2.93,0c-.35-2.09-.35-2.09-1.24-3v-7c2-.07,2.81,1.67,3.72,2.84,2.24,2.89,4.8,4.91,7.61,5.14,1.29.11,2.58,0,3.67,0l2,2h9.11l5.87,3-1.93,2.09a5.51,5.51,0,0,0,1.66.89,5.58,5.58,0,0,0,2.93,0c2.21-1.07,4.29-2.43,6.5-3.72l4,3.78H3876c.67,1.33,1.33,2.67,2,4s1.33,2.67,2,4h-11.11c-.52.69-.86.94-.87,1.18,0,3.23,0,6.46,0,9.69,1.15,1.86,3.61,2.69,4,5.13l-3.15,1.83c-1.78-2.22-5.45-1.92-6.73-4.84-.71-1.49.7-3.29-1.1-5-1.63,0-3.77.52-5.46-.13-2-.79-3.76-2.31-6.56-1.79l-5.18-6.08H3835l-2.08-2h-2c-1.56,1.82-1.37,4.89-4.23,5.7-1.1-1.22-2.19-2.5-4.18-1.32a2.15,2.15,0,0,0,.21,3.31,2.92,2.92,0,0,1,1.06,3.47c-1.24,1.51-3,.48-4.77.85l-2.79,2.64c-.17,1.47,0,3.25-.66,4.54s-2.31,2.29-1.22,4.15c2.93,1.75,6.44-.5,9.44,1.26-.8,2.32-2.65,1.16-4,1.32a43.84,43.84,0,0,1-4.86,0c-1.95,2.05-.59,4.47-1,6.64.51,1.46,2.73,2.08,1.94,4.28-.55.61-1.2,1.33-1.91,2.1v5.5l-2,3.48C3807.79,358,3807.79,358,3804,356Zm-34.15-50H3765l-1.53,1.44c-2.78,1.5-3.36-.82-4.6-1.36h-4l-3.1,3.1,3.53,1.17L3759,314c2.48,0,5.11,0,7.74,0,.26,0,.52-.32.92-.59l2.19-2.39Zm-19.53.68c-1.48-1.27-2.94-2.56-4.46-3.78a4.69,4.69,0,0,0-1.35-.48c-.45,1.27-.85,2.43-1.2,3.45-1.79.51-3.55-.55-5.13.93v2.4c.42.37.66.77.9.77,2.66,0,5.32,0,7.92,0Zm24.43-.82c-.62.92-1.51,2.21-2.37,3.47,1.68,1.3,3.67,1.38,5.74-.45-.17-.83-.34-1.72-.5-2.5Z" transform="translate(-3502.34 -263.95)"/><path class="cls-1" d="M3518,274v3.47l3.53.63c.28-1.36.47-2.26.67-3.25l5.47-2.8h3.56c.32,1,.69,2.11,1.17,3.56l3.11.64c.14.8.35,1.93.51,2.88-2.53,1.61-4.91.32-7.32,1.17l-2.95,2.95c.7,1.48,1.47,3.12,2.25,4.75v2h-6c-.22-1.2.54-2.56-.75-3.75l-4.35-.42-2.09-1.83H3506v-3l-3.66-1.65c.69-1.61,1.29-3.2,2.09-4.68.2-.39,1-.44,1.57-.65a7.53,7.53,0,0,1,1.65.68c2.36,1.71,2.34,1.71,4.7,0A7.53,7.53,0,0,1,3514,274Z" transform="translate(-3502.34 -263.95)"/><path class="cls-1" d="M3724,278v3.43l-2.93.59c-1.67-1.39-.83-2.8-1.07-4l3.21-1.74C3723.41,276.7,3723.71,277.35,3724,278Z" transform="translate(-3502.34 -263.95)"/><path class="cls-1" d="M3774.18,333.46v-2.67c1.59-1.42,3.29-.47,4.8-.78l2.1,2c3.32,0,6.59,0,9.86,0,.24,0,.48.41.89.78v2.45c-1.27.51-2.43.9-3.5,1.45a6.81,6.81,0,0,0-1.41,1.28h-4.19c-.36-1.08-.73-2.23-1.11-3.38C3779.52,333.24,3777.17,334.57,3774.18,333.46Z" transform="translate(-3502.34 -263.95)"/><path class="cls-1" d="M3729.77,287.44l2.05,1.74C3730.07,290.54,3730.21,289,3729.77,287.44Z" transform="translate(-3502.34 -263.95)"/><path class="cls-1" d="M3723,284a6.53,6.53,0,0,1,.63,1.34c0,.17-.41.44-.63.66a6.53,6.53,0,0,1-.63-1.34C3722.34,284.49,3722.78,284.22,3723,284Z" transform="translate(-3502.34 -263.95)"/><path class="cls-1" d="M3841.71,315.29l-.71.71a6.53,6.53,0,0,1-.63-1.34c0-.17.41-.44.63-.66Z" transform="translate(-3502.34 -263.95)"/><path class="cls-1" d="M3880,312a7.17,7.17,0,0,1,2.67.08c.61.27.9,1.25,1.33,1.92a7,7,0,0,1-2.67-.08C3880.72,313.65,3880.43,312.67,3880,312Z" transform="translate(-3502.34 -263.95)"/></g></g></svg>