<svg xmlns="http://www.w3.org/2000/svg" viewBox="0 0 4320 2160"><defs><style>.cls-1{fill:#676767;}</style></defs><g id="Layer_15" data-name="Layer 15"><g id="EF"><path class="cls-1" d="M1384,1900l1.69.68c-.12,1.66-3.31,2.52-.88,5,1.76.87,4,.17,6.2.29l2.11-2H1404c-.21.54-.27,1.38-.65,1.57a27.32,27.32,0,0,1-3.78,1.25c2.25,1.82,4.45.94,6.43,1.18v5c2.55,2,4.79,1.44,6.9-.94H1419c.78.73,1.73,1.64,2.83,2.69v4.55c-1.87,1.15-1.88-1.36-3.07-1.33l-2.19.2-.79,2.87a22.62,22.62,0,0,0,2.65.91c1.43.3,3.55-.74,3.58,2-1.63-.26-2,1.5-3.09,2-.9.39-2.59-.7-2.56,1.42,1.81,1.14,3.79.38,5.65.61h4v3.16l2.84,2.84H1432v6c-.55.22-1.51.35-1.59.68-.27,1.19.62,1.39,1.59,1.32a1.7,1.7,0,0,1,2,2c-.55.22-1.51.35-1.59.68-.27,1.19.62,1.39,1.59,1.32a1.53,1.53,0,0,1,2,1.42c.17,1.86,0,3.75,0,5l2,3.55a1.7,1.7,0,0,0,2,2h3.37c.24,1,.51,2,.74,3-2.31,1.82-4.61.67-7.52,1.12l-2.59,3.05V1970c-.55.22-1.51.35-1.59.68-.27,1.19.62,1.39,1.59,1.32,2.82,0,1.48,2,2.28,3-2.27,1.09-4.27,1.25-5.41,3H1424c-1.12-2.12-1.12-2.12-4.28-1.06L1422,1978v3.16c-3.65,2-7.57-.05-10.81,1l-2.45-2.45-1.32,3.7-1.13-.94c-.16,1.57-.33,3.13-.48,4.64l-5.48,2.86h-5.26l-2.15,2h-12l-1.79,1.91c-2.4.3-5.32,0-8.21.12l-1.4,1.4a6.56,6.56,0,0,1-1.75.55c-6.61,0-13.21,0-19.82,0a1.7,1.7,0,0,0-2,2h-14a5.12,5.12,0,0,0-1.88,0c-1.36.55-2.57,1.48-3.95,1.91s-3.17-.6-4.17,1.22V2004h-48.9l-2.16-2H1244c-3,0-5.9,0-8.85,0-.24,0-.49.36-.74.56A17.21,17.21,0,0,0,1242,2006l4.17,2c1.39.67,2.73,1.71,4.18,1.9a9.13,9.13,0,0,1,4.4,1.61c1.14.8,3.14.47,4.76.47,9.94,0,19.89,0,30,0l.52,3a85.86,85.86,0,0,0-8.32,4.4c-1.33.89-2.53.35-3.76.62h-12.83l-3.17,2.5-3.17-2.51H1247l-1.41-1.41a6,6,0,0,0-1.73-.55c-4.62,0-9.23,0-13.85,0-6.61,0-13.22,0-19.83,0a6.5,6.5,0,0,1-1.74-.55L1207,2016c-4.6,0-9.22,0-13.84,0-.31,0-.61.79-.91,1.2.28.28.5.71.74.71,2,.06,4,0,5.94,0l2.16,2h17.84l2.15,2H1233l2.94,2.94-2.88,3.07H1221l-1.88,1.88h-22l-2.09-1.83h-9.81L1183,2026h-5l-3.45-2c-4.24,0-8.83,0-13.41,0-.25,0-.49.37-1,.77.38,1.56,1.71,1.15,2.79,1.2l2.12,2h7.86l2.12,2h12.32l4,6c.64.4,2.25-.14,4-.21l1.3-3.61h24.57l1.67,1.67h26L1252,2037v3h-4.94l-2.13,2c-5,0-5,0-6.53,1.4.24.2.49.57.74.57,3.62,0,7.24,0,10.86,0l4,2,4,2c.78,3.16,2.9,4.32,6,4h18.93l2.14,2H1292c1.84-.2,3.77.47,5.49-.49L1299,2052h8.22c.35-.9.56-1.45.78-2h10.57l6.86,4H1342a1.54,1.54,0,0,0,1.37,1.95,39.69,39.69,0,0,0,4.63.05h6.94l2.15,2H1369c.44.46.9.93,1.32,1.38a6.09,6.09,0,0,0,1.78.59c4.63.05,9.25,0,13.88,0-.25,1.22.6,2.64-1,4-1.55,0-3.48-.1-5.4,0a1.54,1.54,0,0,0-1.55,2c-1.63-.26-2,1.5-3.09,2-.9.39-2.59-.7-2.56,1.42,1.81,1.14,3.79.38,5.65.61h3l2.11-1.94,1.43,1.43a7,7,0,0,0,1.78.49q17.87,0,35.73,0v2c-.43.67-.72,1.65-1.33,1.92a7.17,7.17,0,0,1-2.67.08c-1.19-2.07-1.19-2.07-4.2-1,.31,1,.62,2.09.89,3H1421l2.27,2.11c2.59,0,5.24,0,7.88,0,.24,0,.47.45.79.76-.6.69-1.2,1.38-1.92,2.19l3.19,2.79h17.76l2.09-1.82h3.8L1459,2080h5.36l7.2-3.87h7.28L1481,2074h8l2.11-2.11h10c.82-.83,1.29-1.3,1.83-1.83h7.87c.75-.7,1.47-1.37,2.23-2.06h24l1-1.13c.56-.47.81-.85,1.06-.85,11.31,0,22.63,0,33.87,0l1.49-1.49a7.27,7.27,0,0,1,1.78-.49c3-.05,6,0,8.73,0l2,1.95h23.92c1.76,1.37.87,2.82,1.13,4.05a37.34,37.34,0,0,0-4,0,8,8,0,0,0-2.08,1c.65.57.89,1,1.13,1,3,.05,5.94,0,8.91,0h8.91l2.14-2h14.35l3.81-5.88h7.84c1.38-2.6,3.52-2,6.32-2.15l2.7-3.91h4.76L1669,2056h7c2.2,0,4.4.1,6.59-.05A1.53,1.53,0,0,0,1684,2054h10.91l2.14-2h7a1.52,1.52,0,0,0,1.44,1.95c2.85.13,5.71.05,8.56.05h14.91c.72-.67,1.44-1.33,2.16-2h5.9l2.13-2H1760a1.7,1.7,0,0,0,2-2h24.91l2.13-2H1807l2.2-2.06q35,0,69.9,0c.23,0,.47-.44.85-.82-.05-.77-.11-1.67-.21-3.09H1833l-1.55-1.55c-.28-.15-.55-.43-.82-.43q-15.48,0-31,0a1.85,1.85,0,0,1-.89-.24,10,10,0,0,1-1.12-1.1l7.6-1.48-4.72-1.64c-.41-1.16-.82-2.32-1.17-3.29-1.52.11-1.7,2.17-3.36,1.76h-7c-.4.45-.85.93-1.22,1.34a6.33,6.33,0,0,1-1.85.63c-9.61,0-19.22,0-28.83,0-.47.45-1,.9-1.43,1.37a5.47,5.47,0,0,1-1.71.6c-4.64,0-9.28,0-13.92,0,.23-1.2-.56-2.58.6-3.62,3.3-.42,4-.71,5.06-2.38H1729c-.93-1.3-2.68-1.94-3.07-4.07.55-2.55,3.34-3.61,4.9-5.81h4.32l3.21-4.11H1745c1.41-2.45,4.73-1.87,6.33-4,2.43.48,4.16-1.17,6.21-1.82,2.39-.76,5.19-.18,7.49-.18l2-2h12l1.91-1.91h5.84L1789,2004h7.84l2.21-2H1807l2.24-2h3.86L1815,1998h12l2-2h14l2.11-2.11h8l1.82-1.82h25.85l2.25-2h29.85l2.16-2h23c.55-.22,1.51-.35,1.59-.68.27-1.19-.62-1.39-1.59-1.32-.19-2.1,2.21-2.28,2.58-3.9h5.1a20.39,20.39,0,0,1,2.65-3.32c.87-.77,2.21-1,3.34-1.45l.69-2.69c.25-.22.49-.61.73-.61,3.64,0,7.27,0,10.91,0h14.87l2.15-2h4.07c.49-1.31,2.45-1.6,2.59-3.36-2.46-2.34-3.36.61-4.89,1.33h-17.74c-1.76-1.14-.8-2.94-1.2-5.25L1968,1962h3l1.49-1.49c2-1,4.33-.23,6.49-.53l2.11-2H1992c1.18,2,1.18,2,3.83,1.17-.74-2.14-2.55-.8-3.83-1.17v-4h3l2.11,2h8.68l3-4.1,3,2.46,4-2.36H2025c1.65-1.34.79-2.77,1-4h3.17c.38-1.34,2.43-1.56,2.5-3.38-1.83-1.15-3.81-.39-5.67-.62h-4.91c-1.47-1.12-2.32-3.33-4.91-1.7v-3.57c2.27-1.38,4.58-.48,6.78-.73l2.11,2h7.87l2.11-2h3c.55-.22,1.51-.35,1.59-.68.27-1.19-.62-1.39-1.59-1.32.23-.57.36-1.54.72-1.63a26.82,26.82,0,0,1,3.9-.48l2.69,2.26h10.22l.73,3.33,2.9.76L2061,1942h7c.67-.43,1.65-.72,1.92-1.33a7.17,7.17,0,0,0,.08-2.67l1.69-.68c-.33-1.61-2.87-2.65-1.24-4.77.25-.18.5-.52.75-.53,4.27,0,8.53,0,12.8,0,3.16-.78,4.32-2.9,4-6h3.09l1.86,4,2.13.09c2,1.66.1,3.62,1.13,5.16l-4.26,1.49c.6.52,1,1.22,1.46,1.22,8.59.07,17.19,0,25.45,0l2.27,1.85c1.49-1.18.62-2.62.87-3.85h4.93l2.14,2H2137l2.09,2h8l1.71-1.71h4.63l1.3,3.55h6.52l3.71-3.71h5.81l2.3-2h7.84l2.18-2h7a7,7,0,0,0,2.67-.08c.61-.27.9-1.25,1.33-1.92h18c4.21,0,4.21,0,8-2h19l2.17-2h10.15c.4-1.13.8-2.28,1.21-3.47,2.17-1,4.44-.46,6.87-.32l1.29,3.62h6.23c2.55-1.09,3.82-4.61,6.85-5.93L2280,1925l2.91,2.91h12l1.94,1.94h6.46c.27-.66.51-1.23.74-1.8,4.21,0,4.21,0,8-2,1.95-.41,4.26,1.07,6.06-1.3a22.72,22.72,0,0,1-3.41-1.13c-.38-.19-.44-1-.65-1.57h4.52l7,4H2339l1.34-1.38a6.4,6.4,0,0,1,1.76-.59c2.63-.07,5.26,0,7.89,0,1.19,2.07,1.19,2.07,4.2,1-.31-1-.62-2.09-.89-3H2350c.21-.55.27-1.39.66-1.59,4.82-2.43,4.83-2.41,11.34-2.41-.11,2.49-3.29,3.1-3.89,6H2364v3c.23.24.47.67.71.68,5.29,0,10.58,0,16.2,0a7.22,7.22,0,0,1,5.92-1.7c.69-.61,1.41-1.27,2.2-2h3.91c.34.47,1,1,1,1.47.11,2.61.05,5.24.05,7.55,1.78,1.57,3.49.67,5.06.9l1.9-1.91c5.06-.11,10.64,0,16.09-.08,1.61-1.78.63-5,3.65-5.81h7.85l5,2.52.8,3.08c2.69.52,5.64.13,9.45.31l5.75-6.06h2.85c3,.79,3.07,3.79,4.47,5.92h5.87L2465,1934h23.49l7-3.89c3.8-.49,8.75.26,13.65-.22,1.49-3.38,6-.34,7.69-3.93h16.18l1.85-1.85h13.84L2551,1922h6c1.61-2.33.93-4.88.66-7.64l-3-.61c-1.44-1.1-.42-2.91-.76-4.62l5.59-3h15.72c.27.66.51,1.23.74,1.8l-6.34,3.23c2.9,1.24,5.31.74,7.67.51l.67-1.74c2-.32,2.46,2.94,4.71,2,1.28,1.18,3.13,1.9,3.29,4a1.7,1.7,0,0,0,2,2h16.9l2.13,2H2611l2.13-2H2622a7.17,7.17,0,0,0,.08,2.67c.27.61,1.25.9,1.92,1.33a1.7,1.7,0,0,0,2-2h5l1.72-1.76h6.08c2.15-2.34.82-4.77,1.23-7.17l2.54-2.69c2-1,4.83.64,6.2-2.25h5.85l2.39-2.06h7.76l2.25-2h5.88l2.22-2H2679l2.28-2h15.15l7.49-4h13.67c.24-1.2.43-2.11.65-3.17.11-.11.34-.55.58-.55,4,0,7.93,0,12.26,0l2,1.74h3.82l2.2,2h5c.37,1.28-1,3.09,1.17,3.83.88-2.65.88-2.65-1.17-3.83a1.7,1.7,0,0,1,2-2c1,0,2,0,2.94,0,.25,0,.71-.46.67-.61-.12-.48-.37-1.24-.68-1.3a16.81,16.81,0,0,0-2.93-.06c-.67-.43-1.65-.72-1.92-1.33a7.17,7.17,0,0,1-.08-2.67,7,7,0,0,0,2.67-.08c.61-.27.9-1.25,1.33-1.92h6.92l2.11,2h3.9l2.12,2H2766a1.55,1.55,0,0,0,2-1.52c.15-1.34-.08-2.62-2-2.48v-3c.94-.92,1.88-1.86,2.93-2.9h5.8l2.3-2h5.84l2.18-2h16c.45-.47.92-.94,1.37-1.4a6.39,6.39,0,0,1,1.77-.57c5.64,0,11.28,0,16.85,0l1.51,1.51c2.5,1.15,5.17,0,8.26.77l6.76,3.57h7l2.35,2,4.78.5c.1,1.07.18,2,.26,2.77-2.33,2.09-5.31-.19-7.61,1.57.22.44.44,1.29.67,1.29,4.65.08,9.31.06,14,.06l1.64,1.75c3.23.63,6.85,0,10.63.33l1.19,3.42c1.5.93,3.11.42,4.69.32l1.62-1.62h12.13l2.32,1.82H2909l1.86,1.86h6l2.09-1.82h15.91l2.1,1.92h17.85l2.18,2h35.73l2.67-2c2.64.07,3,2.24,4.49,2.75v4.07c1.33,2.33,3.73.49,5.49,1.62,1.19.93.3,2.37.56,3.6h-6v6c.24,1.64-1.2,2.24-2.1,3a12.39,12.39,0,0,1-3.33,1.42c-1.1,1.75-.34,3.73-.57,5.59h-2.77l-3.22,2.43-3.18-2.31h-5.19L2974,1925l5.79,3h3.11l2.14-2h9v4.86c-1.13,1.87-3.6,2.7-4,5.14-.55.22-1.13.4-1.65.67-.8.41-1.57.88-2.35,1.33-1.22.26-2.82-.72-3.62.69-1,1.73-3.06.78-4.09,1.94-.26,1-.48,1.9-.77,3l-2.67.53c-1.33,2.62-2.62,5.39-4.12,8-.91,1.6-.75,3.82-2.74,4.79l-4,2c1.36,1.65,3.18.59,4.62,1.09a12.39,12.39,0,0,1,2.95,2l6.15-2.79c.16-1.46.33-3,.51-4.56L2984,1952h13l2.79-2.86c.16-1.52.31-3.1.53-5.31l2.44,1.83c2.09.47,4.37,1.09,6-1.53h6a13,13,0,0,0,2.64-2.7c1.28-2.43,2.25-5,3.31-7.46H3023c1.64-1.64,1.34-3.85-.92-6.87,1.86-2.35,3.21-.82,4.68.71h8.45c.32-.43.5-.66.67-.9l-3.63-1.5c-.07-.79-.15-1.69-.27-3,3-.78,5.94-.27,8.91-.45l2.12-2h3a7,7,0,0,0,2.67-.08c.61-.27.9-1.25,1.33-1.92h7l1.33,1.38a6.46,6.46,0,0,0,1.79.59c3.65.06,7.29,0,11.13,0,.41-1.17.81-2.33,1.22-3.49,1.81-1.36,4.8.73,6.1-2.1l6.7-.7L3087,1912h10.52c.25-1.21.43-2.12.65-3.17.11-.11.33-.52.59-.55,1.29-.16,2.59-.22,4.22-.34,1-3.22,3.4-5.72,6.21-8H3117l2.33-2h11.79L3133,1896h10l1.89-1.9h18.37l2.94-4.09h6.7l2.18-2h7c7.91,0,7.91,0,9.68-1.35-1.78-1.24-3.8-.4-5.68-.65v-2a1.54,1.54,0,0,1,1.37-2,39.69,39.69,0,0,1,4.63,0c.31,2.06,2,3,3.42,4H3209l2.12-2h37.83l2.14-2h10l1.88-1.92c2.36-.33,5.29.12,8.06-.13l1.52,1.53a7.3,7.3,0,0,0,1.78.5c7.61,0,15.22,0,22.75,0,.55-.54,1-1,1.48-1.48a6.88,6.88,0,0,1,1.78-.5c3,0,5.92,0,8.74,0l1.77,1.77h11.48c2.22-.91,3.69-1.4,5-2.12.42-.23.5-1.08.73-1.65H3331l2.12,2h11.85l2.11-2h4.17c.35,1.06.74,2.19,1.12,3.32,2.33,2.21,3.34-.36,4.79-1.32h9.79l2.14-2c1.75,0,3.63,0,5.51,0a2.6,2.6,0,0,0,.87-.37c.7-1.26,2.69-1.67,2.58-3.61h13l1.26-1.38c2.23-1.2,4.53-.45,6.77-.55l1.84,1.84c5.11.27,10.69-.07,16.17.17l1.82,1.82h10L3431,1878h10l1.88,1.88h13.58a7.53,7.53,0,0,0,6.38,2.12l2.2,2h19.82c1.16-.45,1.48-2.27,3.15-2a1.7,1.7,0,0,0,2-2v-3c1.65-.84,3.3-1.68,5.66-2.9h11.06l2.3-2h17.92L3529,1874h4.35c1.07,1.65,2.26,3.47,3.82,5.85h11.62L3552,1883v3h-11l-2.12,2c-2.27.34-4.66-.82-6.87.88.08.84.16,1.74.22,2.48.49.32.75.63,1,.63,3.3,0,6.6,0,9.58,0l2.21-1.86a30.17,30.17,0,0,0,4.2-.51c.36-.09.49-1.06.72-1.63h10.84l3.21-2.55,3.08,2.55H3577l2.08-2H3583l2.13,2H3598c.23.56.44,1.6.69,1.61,2.87.12,5.75.08,8.49.08l2.33-1.85h9.74l.75-1.84H3625l2.14-2h17.82l2.14-2h17.52l3.43-2,3.43-2H3684v5c1.51,1.45,2.82.77,4,1,.23.57.47,1.14.76,1.85h19.07c2.24.48,2.79,2.88,4.84,2.15,2.51-1.23,3.22-3.75,4.32-6h2.25l1.3-3.82c2.69-.51,5.65.07,8.47-.25l2.1-1.88h41.94l1.71,1.71h10.48l1.56-1.56h4.4L3793,1878h24l2.07,2.07h16l1.82,1.82h11.84l2.26,2h17.85l2.16,2h10l1.37-1.4a7.29,7.29,0,0,1,1.77-.57c1.65-.08,3.3,0,4.85,0,.57.56,1,1,1.85,1.85h8.51c.32,1.17.55,2.06.78,2.91L3898,1891v3c-1,0-2,0-2.94,0-.25,0-.71.46-.67.61.12.48.37,1.24.68,1.3a16.81,16.81,0,0,0,2.93.06c3.21.74,5.09-2.2,7.81-2.86a10.63,10.63,0,0,0,2.46-1.42l3,2.27h10.29c.25,1.21.43,2.12.71,3.48l5.37,1,.59,2.78c.18.18.41.62.65.62,2.64.05,5.29,0,7.86,0L3939,1904H3945l2.09-2h12l1.44,1.44c.27.18.53.49.79.5,2.64,0,5.28,0,7.73,0l1.8-1.8h4.4c1.43,1.12.54,2.57.8,3.8a1.7,1.7,0,0,0,2,2h3l2.08-1.94h10l1.71,1.71h12.46c.25-.25.67-.47.69-.72.06-1.32,0-2.65,0-3.94.55-.39,1-1,1.56-1.06,1.66-.14,3.33,0,5,0,2.68,2.23,6.67,2.59,8.3,6h4.2l1.82,1.82,6.31.31,1.76,1.76h11.8c1.25,1,2,1.62,3.06,2.47l3.61-2.27h7.57L4065,1914h5.81l1.51,1.38a5.84,5.84,0,0,0,1.7.63c2.32.07,4.65,0,5.89,0,5.9,2.27,9.31,6.91,16.17,8.28l6.21,7.57h4.8c1.52-1.17.62-2.62.88-3.85v-2h10.57l3.43,2a1.54,1.54,0,0,0,1.37,2,39.69,39.69,0,0,0,4.63,0h3l2.09-2h16l1.45,1.45c.27.17.53.49.79.49,4.63,0,9.27,0,13.72,0l1.79,1.79h8.82c2.41,1.08,4.52,1.44,5.67,2.69,1.68,1.81,3.55,1.26,5.41,1.6.83.15,1.51,1.15,2.38,1.87h5.79l2.18,2h7c.22.55.35,1.51.68,1.59,1.19.27,1.39-.62,1.32-1.59l.85-2.14a29.63,29.63,0,0,0,3.28,3.2,24.78,24.78,0,0,0,3.83,1.9v2.61l-7.27.69L4206,1948c-.55.22-1.51.35-1.59.68-.27,1.19.62,1.39,1.59,1.32.55.22,1.42.3,1.58.68a11.6,11.6,0,0,1,.39,2.93l-6,.8V1962h-4a1.55,1.55,0,0,0-1.52-2c-1.34-.15-2.62.08-2.48,2a5,5,0,0,1-5.08-2H4182c-5.14.14-10.27.27-15.41.44-.17,0-.33.43-.56.76,3,1.69,6.3.15,9.3,1.13.23.56.45,1.11.67,1.67h-3l-2.16,2h-11c-3.26,1.57-5.66,3.42-8.27,3.8-3,.42-4.88,2.57-7.56,3.22,1.36,2.12,3.58,3.1,6.23,3.67-.78.78-1,1.21-1.24,1.22-4.64,0-9.28,0-13.92,0l-2.16,2h-5a1.7,1.7,0,0,0-2-2c-.22-.55-.35-1.51-.68-1.59-1.19-.27-1.39.62-1.32,1.59l-4,2.24h-4V1986c-1.22.24-2.63-.6-4,1.07l.59,2.93H4116a1.52,1.52,0,0,1,2,1.48c.1,4.17,0,8.35,0,12.52-1,0-2,0-2.94,0-.25,0-.71.46-.67.61.12.48.37,1.24.68,1.3a16.81,16.81,0,0,0,2.93.06c2.79-1,4.27,2.46,7.32,1.93l7.44,8.07H4138v2.94c-.94,1-.94,1-1.34,3.12,2.27-.13,4.48-.2,6.65-.46.29,0,.46-1,.69-1.6v-2h4.53l3.47,2v6h-16.92l-2.12,2h-13.87l-2.14,2H4110c.15-1.9-1.17-2.11-2.5-2a1.62,1.62,0,0,0-1.52,2,14.23,14.23,0,0,1,0,2h-2.93c-3.07-2.64-3.07-2.64-6.14,0H4094c-.56.23-1.56.37-1.62.7a16.19,16.19,0,0,0,.65,9.3h3a1.54,1.54,0,0,1-1.37,2,39.69,39.69,0,0,1-4.63,0h-16.91a14.64,14.64,0,0,0-2,0c-.27,0-.49.39-.8.66-.43,1-2.17,1.17-1.91,2.71.31.23.57.57.83.58,5,0,9.94,0,14.92.05.55,0,1.1.5,1.65.76.45,1-.3,2.59,1.41,3l2.8-5.79H4095l2.72,5.33-1.67.67a1.55,1.55,0,0,0-2,1.52c-.15,1.34.08,2.62,2,2.48,2.66-.2,1.56,2.24,2.6,3.67l2.55.5,1.93,1.83h9.86l2.12,2H4119l2.09,2H4126c-.25,1.23.62,2.66-.88,3.86-10,.13-20.18.25-30.37.42-.24,0-.47.44-.82.79.14.81.29,1.71.47,2.75H4105l2.48-2h21.74c.3-.72.53-1.28.76-1.85h17.22c1.05,1.26,2.29,2.77,3.32,4h10.37l1.44,1.34a5.46,5.46,0,0,0,1.68.63c2.3.07,4.6,0,6.9,0l2.14,2h13.49l3.44,2a1.7,1.7,0,0,0,2,2h10.92l2.15,2h16l1.2,1.33a6.59,6.59,0,0,0,1.85.64c6.29.05,12.58,0,18.95,0l1.21,1.33a6.48,6.48,0,0,0,1.85.64c6.95,0,13.89,0,20.95,0l1.16,1.31a6.49,6.49,0,0,0,1.87.66c7.62,0,15.23,0,22.84,0l2.15,2h23.5l3.43,2v68H2v-68H48.89l2.14,2h67.79l2.2,2h23.8l2.21,2h19.9l2.12-2H182c.23.57.47,1.14.83,2H225l2.06,2.06h28L257,2104c7.11,0,14.4,0,21.69-.05.38,0,.75-.74,1.45-1.48l-5.53-.84L273,2100H241.07l-2.16-2H200c.26-1.23-.63-2.67.67-3.69,3-1.06,6.42.76,9.38-1.27-2.29-2.33-5.3.05-7.55-1.54l-1.41-1.41c-2.21-.42-4.56.47-6.71-.66L193,2088H143l-1.85-1.89c-5.09-.31-10.68,0-16.18-.15l-1.84-1.84h-14L107,2082H99l-2.12-2.12h-14l-2.12-2.12H72.15c.41-.84.63-1.7.85-1.7,14.67-.07,29.33-.06,44-.06l1.89,1.92c4.38.28,9.31-.11,14.21.19,6.06,3.85,6.06,3.85,12.24,3.54l1.42-1.42h38.78c.25,1.12.45,2,.66,3,1.29,1.48,3.08.44,4.67.78l2.16-2h13c3.61,2,3.61,2,8,2h56v-6h28.89l2.14-2h7.88l2.16-2H322c2.52-.31,5.15.6,8.3-.75-1.32-1.2-2.26-2.31-3.4-3.25H317l-2.18-2h-3.19l-5.76-3,4.15-1.93c-1.31-1.69-3.12-.73-4.63-1.11s-2.18-2.45-4.16-2-3.13-.53-4.18-2l-2.15,2H284v-4h12.93c.48-.45,1-.9,1.44-1.37a5.73,5.73,0,0,1,1.71-.6c5.64-.05,11.28,0,16.92,0l1.39,1.4a6.37,6.37,0,0,0,1.76.58q26.36,0,52.76,0l2.13-2h5c4.35,0,4.35,0,5.67-1.36-1.79-1.21-3.79-.4-5.67-.64h-9l-1.74-1.76h-8l-1.77-1.77c-2.26-1.54-5.28.86-7.53-1.53l3.1-2.7a9.67,9.67,0,0,0,7.32-2.74L365,2044h5c2.95,0,5.91,0,8.86,0,.25,0,.49-.37,1.1-.86l-5.44-3.11H370c-1.71.38-1.88-1.69-2.56-1.76-2.55-1-3.23,1.09-4.64,1.56L361,2038h-6l-1.89-1.89H341.8l-7.72-4.31H302.84l-1.77-1.77h-5.85l-2.25-2h-6.36c-.23-1-.47-2.15-.73-3.32,2.9-1.38,5.57-.36,8.12-.71,4.54-.31,9.15.67,13.64-.68.07,0,0-.44,0-.67-.24-.22-.48-.62-.73-.62-4.3,0-8.61,0-12.92,0H275l-1.72-1.76h-6.21c-1.68-3.15-4.9-1.81-7.39-2.78l4.42-4.67v-6.24c.93-.19,1.83-.4,2.74-.54,1.38-.21,2.35.68,3.51,1.16,3.49,1.46,7,5.32,11,.83,2.44.52,4.16-1.23,6.22-1.83,2.4-.71,5.18-.17,7.44-.17l1.88,1.88H309c1.14-.44,1.8-2.63,4-1.84l2.1,2h13a14.23,14.23,0,0,1,0,2,1.62,1.62,0,0,0,1.52,2c1.34.15,2.65-.06,2.5-2h12c.22.55.29,1.4.69,1.61,1.58.82,3.27,1.43,5.74,2.47h6.65L359,2016h9a26.67,26.67,0,0,1,2.37-1.35,24.6,24.6,0,0,1,2.44-.8l2.24,2.12c2.1.71,2.83-1.23,4.16-1.87s3.25.71,4.7-1l-.15-2.59c-2.63-1.09-5.24-.21-7.76-.51v-3.1l-4-1.87,2.95-3c1.46-.91,3.87,1.43,4.84-1.32-.32-.31-.56-.73-.8-.73-3.65,0-7.31,0-11,0l.77-1.93h8.16l1.85-1.85H391l1.95-2.22h5.61l3.47,2c.22.56.35,1.52.68,1.6,1.79.41,3.69,1.16,5.5-.78-.73-.62-1.49-1.2-2.16-1.87-.16-.17,0-.63,0-1,.78-.45,1.55-.92,2.35-1.33.52-.27,1.1-.45,1.65-.67,1,0,2,0,2.94,0,.25,0,.71-.46.67-.61-.12-.48-.37-1.24-.68-1.3A16.81,16.81,0,0,0,410,1990l.7-1.71C417,1988,417,1988,423,1992h8l2.13-2H439l2.21-2h38.11c.41-1.14.81-2.3,1.34-3.79h38.7c.33-1.15.57-2.05,1-3.64.89-1.69,3.3.17,4.93-.8l1.57-1.57h9.71l2.46-2.05h3.92c.54.49,1.27,1.13,2.09,1.85h3.83l2.19,2h43q15.39,0,30.79,0c.25,0,.51-.35.9-.63.17-1.45.35-3,.54-4.63,1.36-1.39,3.1-.53,4.66-.69a36.17,36.17,0,0,1,3.89,0c1.23.49,1.56,2.3,3.22,2a1.7,1.7,0,0,0,2,2h5l2.1,2H651c.76-.71,1.48-1.36,2.14-2H675l1.41,1.41a6.16,6.16,0,0,0,1.74.55c5.94,0,11.89,0,17.84,0h9l2.21-2.06h11.91c1.55-2.57,3.94-1.81,5.91-2l1.83,1.83h6.76c.22-1,.4-2,.62-3,.1-.1.33-.54.57-.54,4.63,0,9.26,0,14.3,0l1.95,1.71H755c2.18-1.21.32-3.62,1.34-5.21.25-.26.48-.7.71-.7,3,0,6,0,9,0-.22.56-.3,1.43-.69,1.62-2.44,1.13-4.95,2.11-7.52,3.17.47.47.7.89.93.9,7.09.13,14.19.22,21.28.31a1.7,1.7,0,0,0,2-2v-3c1.79-2.43,4.39,0,6.51-.92.74-.57,1.47-1.15,2.34-1.84,1.65-.19,3.66-1.17,5.13.73s3.74.25,5.43,1.37c1.18,1,.35,2.4.59,3.61-1.31.27-3-.79-3.93,1.36a21.15,21.15,0,0,1,3.29,1.09c.38.18.44,1,.64,1.55a7.17,7.17,0,0,0-2.67.08c-.61.27-.9,1.25-1.33,1.92-.55.22-1.51.35-1.59.68-.27,1.19.62,1.39,1.59,1.32h5l2.16-2H819c2.3-2.15-.06-5.14,1.42-7.42.25-.18.5-.52.76-.53,4.63,0,9.27,0,13.89,0,1,1.58,2.52,1.83,4.08,2.32,1.13.35,2,1.69,2.87,2.56-1.46,2.58-4.55,2.69-6.19,4.47s-4.62-1-5.66,1.87c.39.35.63.75.87.75,10,0,19.92,0,30,0l1.17,1.32a6.69,6.69,0,0,0,1.88.65c9.63,0,19.25,0,28.92,0l1.31-1.37a6,6,0,0,1,1.8-.6q24.4-.06,48.79,0l1.45,1.36a5.41,5.41,0,0,0,1.71.61c6,0,11.95,0,17.92,0,3,0,5.91,0,8.86-.06.31,0,.59-.78.89-1.2-1.41-1.44-3.15-.39-4.68-.75l-2.12-2h-7c-.24-1.88.58-3.88-.89-6a40.46,40.46,0,0,0-4.41.43c-.32.07-.47,1.06-.7,1.62h-9c-1.54-1.46-.79-2.81-1-4a1.7,1.7,0,0,0-2-2l-.82-2H928.82l-.82-2c.23-.57.47-1.14.74-1.8H941.2l1.8,1.8c7.78,0,15.74,0,23.71,0,.26,0,.53-.31,1.14-.7.95-2.61-1.55-3.68-2.89-5.28H926l-1.8-.74v-6.5c.45-.36.7-.73.95-.73,3.31,0,6.63,0,9.85,0l3.81,3.81h38.38l1.66-1.66,2.17,1.75h9.41c1.68.68,2.35,2.84,4.51,2.06l2.1-2h3c.23.57.31,1.42.73,1.65,1.34.72,2.8,1.21,5,2.12h9.51L1017,1960c3.5,0,7.13,0,10.76,0a6.84,6.84,0,0,1,1.77.51l1.41,1.41c2.23-.13,4.54.64,6.74-.55L1039,1960h12l2.44-2.3,3.23,1.49c2.72,1.09,5.63.59,8.28.85,3.82-3.13-2.54-4.37-.68-7.34,2.74-1.67,6-.07,9-.9,1.42,3,.4,5.65.75,8.2-1,0-2,0-2.94,0-.25,0-.71.46-.67.61.12.48.37,1.24.68,1.3a16.81,16.81,0,0,0,2.93.06h3.29c1.1-1.26,2.37-2.73,3.59-4.12,2.19.66,3.1-.89,4.15-1.88h7c.22.55.35,1.51.68,1.59,1.19.27,1.39-.62,1.32-1.59l.75-1.83h10.42c2.39,2.42-.18,3.47-1.13,4.87.32.32.55.75.78.75,3.28,0,6.56,0,9.78,0l2.42,2.11h11.88l2.18-1.93c1.11,0,3.1-.54,3.6.1,1.72,2.17,5.25,1.09,6,3.9h16.22l1.43,1.36a5.71,5.71,0,0,0,1.7.61c3.63.06,7.27,0,11,0l1.27,1.36a6.33,6.33,0,0,0,1.81.61c4,0,7.93,0,11.89,0a1.7,1.7,0,0,0,2-2v-3.12c2.43-1.74,5.33-.5,8-.88.55-.22,1.51-.35,1.59-.68.27-1.19-.62-1.39-1.59-1.32l.75-1.84h10.11c1.27.5,2.32,2.32,4.68,2,1.25-.18,2.66,1.51,4.1,1.77,1.87.33,4-.26,5.29,2.14h20.28a4.48,4.48,0,0,0,1.07,1.83c-1.27.32-2.82.18-1.46,1.93a17.45,17.45,0,0,0,1.46-1.93c3.72.11,7.72.11,11.72.11,4.35,0,4.35,0,5.67-1.36-1.79-1.22-3.79-.4-5.67-.64-3.17-2.12-3.16-2.14-4-4.87l5.62-2.94h15.68l.74,1.81-2.3,4.7,3.14,3.14h8.43c.28-.72.51-1.28.73-1.84h13.26l3.33-4H1304l.75,1.85H1321l2.53-2h15.65L1341,1958c1.65,0,3.84.56,5.49-.14,2-.87,3.78-2.28,7.13-1.69,1.34-1.57,3-3.59,4.77-5.53.89-1,1.94-1.78,1.57-3.36a17.38,17.38,0,0,0-8-6.37v-7.17c-1.14-2.25-1.92-3.93-2.82-5.54a3.81,3.81,0,0,0-1.4-1.39c-1.89-1-3.84-1.88-5.77-2.81v-5.33l-3.77-1.24c-.31-1.76-.65-3.35,1.77-3.43h14c1.88-.25,3.89.58,6-.9-.19-1-.42-2.08-.62-3.1H1354a1.7,1.7,0,0,1,2-2,14.23,14.23,0,0,1,2,0,1.62,1.62,0,0,0,2-1.52c.15-1.34-.06-2.65-2-2.5v-4l2.73-5.73,3.27-1V1886l4,0c0-1.64,0-2.81,0-4,2.67-.38,5.57.86,8-.88V1876h6a1.7,1.7,0,0,0,2-2l3.76,2.14c.73.14,2.36-.68,3.5.18l2.74,5.36V1886c-1.19-.19-2.65,0-3.5-.65-1.32-1-2.34-2-4.5-.52V1890c-3.14-.69-5,2.11-7.78,2.71-.09,2.49-.91,5,.74,7.29ZM389.06,2010H403l2.11,2h6.69c-.65-3.45,2.35-4.78,4.2-6.94l-6-3.25H405l-3.12-2.32.53,4.07c1.48.49,2.36.77,3.23,1.1.09,0,.05.44.07.7-2.1,1.35-4.45.4-6.67.66-.94-2.34-1.91-4.67-4.13-5.91H391l-2.16,1.77-1.68-1.68H382.7l-1.29,3.5c-1.19.56-2.75-.14-3.24,1.48l5.5,2.82h3.22C387.62,2008.67,388.34,2009.33,389.06,2010Z" transform="translate(-2 -79.95)"/><path class="cls-1" d="M1834,260h-12.92l-2.12,2h-3c-.23-.57-.47-1.14-.74-1.82H1799l-2.69,2.05h-5.57l-1.7,1.7c-.69-.63-1.39-1.26-2.11-1.93h-7.91l-2.1-2h-2.24a12.54,12.54,0,0,1-1.25,3.4A30.35,30.35,0,0,1,1770,267v3a7,7,0,0,1-.08,2.67c-.27.61-1.25.9-1.92,1.33-.33,0-.89.12-1,0-.74-1.32-1.4-2.69-2-3.92h-6.08L1756,273v1.23c-2.16,4.19-5.76,5.79-9.72,7.8H1741l-2.09,1.94h-12a9.1,9.1,0,0,0-1.49-1.44,7.19,7.19,0,0,0-1.78-.5c-2.65.48-3.09,4.46-6.5,4l-2.26-2c-5.11,0-10.42,0-15.73,0-.26,0-.51.37-.89.66a8.66,8.66,0,0,0,.06,2.59c.23.73,1,1.29,1.5,1.94l-3.09,2.9h-23.83c-3.16,3.38-8.68,2.89-10.93,7.29a6.6,6.6,0,0,0,0,2c.6,1.75,1.34,3.44,2.19,5.56l-6.25,5.19V317l-2.85,2.85-2.9.18-4.56,5.73c-2.53.5-4.34-.52-5.63,1.17v3.62l3.77,6.65c-2,1.92-4.13,3.89-4.77,6.76l-2.15.13-2.83,2.83c-.43,1.53.63,3.3-.69,4.7-1.86.22-3.82,1.26-5.33-.7v-3.64c.29-1.34,2.7-1.52.81-3.55h-6.09L1623,342h-8l-2.21-2.06h-3.89c-1.7-1.7-3.29-3.43-5-5-1.4-1.24-2.43-2.69-4.71-3.2-1.93-.44-3.4-3-5.21-4.69,0-2.21.11-4.53,0-6.83-.15-2.59.57-5.24-.81-7.63-.51-1.13-1-2.25-1.44-3.23l2.31-2.5V301l2.06-2.28V290.9c3.93-3.31,5.75-7.58,6.42-12.41L1604,277v-14l-2-2.17V255a6.36,6.36,0,0,1-1.4-1.45,30.86,30.86,0,0,1-1.19-3.27l-2.33-.49L1588,241v-4c-1.32-2.12-3.52-2.68-5.52-3.69s-2.73-3.83-5.57-3.44c-1.23-2-3.32-1.56-5.19-2-2-.49-3.79-2.08-5.78-2.9a51.92,51.92,0,0,0-5.57-1.7c-.46-1.47-.73-2.36-1-3.23h-14.17L1543,218h-5v-4.77l2.09-2.78c-.7-4.7-5.36-3.85-7.21-6.48h-9.33l-9.48-6.76V192c1.17-.8,2.82-1.9,4-2.71-.11-2.13-.17-3.41-.28-5.48-3.33,1.44-4.73-3.18-8.1-1.82-2.12-1.66-4.51-1.95-7.16-2.15s-5.06-2.39-7.87-2.17L1491,174h-3.48l-7.22-4.12h-5.42L1473,168h-6l-2.12-2.12h-12L1451,164c-9.53,0-19.18,0-28.83,0-.59,0-1.17.37.24-.1L1418,166h-20l-.82-2h-29.27l-7.69-4c7.63,0,13.45,0,18.79,0l1.92-1.92h6.57c1.21-1.37,2.74-3.09,4.24-4.85.08-.1-.13-.45-.23-.76l-2.79-2.58h-7.84l-1.71-1.71h-16.42L1362,150h-16l-.84-2.05H1335l-1.72-1.72q-12.37-.34-24.69-.72c-.13,0-.25-.44-.38-.67.24-.24.47-.68.71-.68,10-.08,19.91-.11,29.86-.18.26,0,.52-.32.79-.5L1341,142c5.23,0,10.54,0,15.85,0,.25,0,.5-.37.88-.67L1359,140h12l2.18-2H1385l2.29-2.05H1399l2.25-1.91c1.84,0,3.51.09,5.16,0s2.17-2.35,4.17-2a23.53,23.53,0,0,0,4.16.05l3-2.24h5.56l2-2h6L1433,126h4l2.18-2H1449l2.19-2a50.71,50.71,0,0,0,5.1,0c1.88-.19,4,.85,5.65-.86a69.85,69.85,0,0,0-.11-9.1c-2.66,0-4.94.15-7.19,0S1450,113,1448,111l3.1-2.86h5.63c.77-.69,1.5-1.32,2.33-2H1463L1465,108q19.38,0,38.85,0a6.39,6.39,0,0,1,1.87.64L1507,110h10l2.1-1.95H1547l2.1,1.87c3.48,1.44,5.36-2.09,8.22-2.28.27,0,.48-1.06.71-1.63h13c.72.67,1.43,1.34,2.14,2H1585l2.13-2H1627l2.21-2.06h9.44c2.28-1.36,4.12-2.55,6.05-3.57s4.77.57,6.26-2.49h16.2l1.78-1.77c5.55-.34,11.15.19,16.56-.3l1.3-3.81H1718c6,0,6,0,7.78-1.46-2.59-1.19-5.24-.2-7.78-.54V87.07l5.65-3.07H1742c3.53,0,7.07,0,10.6,0,.47,0,.93-.69,1.4-1.06V80h2a1.7,1.7,0,0,0,2,2l.83,2h6.2l1.75,1.75,4.52.52L1775,90h9.93l2.12-2H1793l2.13-2H1821l2.12,2H1839l2.13-2H1852c-.23.56-.3,1.4-.71,1.62a24.52,24.52,0,0,1-3.67,1.33l5.18,2.37c-4.69,1.5-9-.26-12.8,1.25V96h-42.88L1795,98h-3.91l-2.12-2H1785c-.76.69-1.47,1.36-2.2,2H1773l-5,5,2.76,2.76h6.48L1781,102c4.29,0,8.59,0,12.89,0a6.23,6.23,0,0,0,1.82-.62L1797,100h19.94l2.13-2h25v3c-1.09,1.79-3.64.7-4.91,2.72-.87,1.37-3.78-1-4.94,1.46.56.28,1.1.8,1.65.8q8.45.09,16.88,0c.4,0,.8-.7,1.32-1.17-1.94-1.29-3-2.75-1-4.76,1.55.29,3.27-.66,4.68.62.38,1.16.76,2.3,1.12,3.36h20.15l2.12-2h3l1.84,3.16c-.88.88-1.81,1.82-2.8,2.8h-5.89l-2,1.87-2.73.54c-.49,1.45-.88,2.58-1.23,3.61H1865l-2.09-1.92h-6L1854,115v4.16l3.12,2.73c1.63.5,4.29-.64,5.63,1.93h22.43l1.53-1.53c3.63-.25,7.18-.48,10.73-.76.13,0,.24-.44.45-.85-3-1.67-6.49.33-9.46-1.19-.52-1.85-1.15-3.72.5-5.42h3.91l2.17-2c4.28,0,8.59,0,12.89,0a5.52,5.52,0,0,0,1.7-.61l1.44-1.36H1922c.26,1.23-.63,2.68.7,3.72,2.06.64,4.65-.43,6.21,2,.26.4,1.72,0,2.5,0,.52-1.51.93-2.67,1.33-3.82,4.19,0,8.18,0,12.17,0,.25,0,.49.4.91.77V116c-3.71.07-7.3,0-11.62.09l-2.78,3.74a35.21,35.21,0,0,0-4.69.56c-.36.09-.49,1.06-.73,1.63h-4c-2.15-.85-3.88-2.86-6.65-2.09-.7.2-1.57-.77-1.35-1.78,2.57-.85,5.48.8,8.13-1.07-1.84-1.07-3.33-2.06-4.94-2.82a2.26,2.26,0,0,0-3.19.91v3c-2.3-.13-4.6-.13-6.93-.13l-2.11,2c-1.51.34-3.24-.67-4.65.67l1.65,3.1h-6.73L1892,127c.1.78.21,1.68.33,2.69l4.87.51,2.9,2.9-.46,2.46-3.64,1.19V140c-.63,0-1.39-.23-1.86,0a18.31,18.31,0,0,1-7.51,2.4c-.26,0-.42,1-.63,1.56h-2c-2.87.53-3.74,3.47-5.8,4.81V172H1890v4.9c1.76,1.1,1.82,3.15,2.67,4.77,3.58-.17,6.31,2,9.33,3.39V188a17.7,17.7,0,0,0-3.89.28c-.32-1.27-.18-2.82-1.93-1.46a17.45,17.45,0,0,0,1.93,1.46,4.3,4.3,0,0,0-.87,1.57h-5.47l-5.63,3.31c2.26,2,5.24-.26,7.5,1.47-.31,1.6-1.67,2.31-2.73,3.21l-2-1.75c-2.31-.82-2.84,1.62-4.41,1.91-2.13-.42-4.59,1.1-7.2-1.9,3.47.54,5.29-1,6.43-3.38-.23-.23-.46-.67-.7-.67-3.66-.05-7.31-.07-11,0a5.61,5.61,0,0,0-1.72.63c-.4,1.14-.79,2.28-1.18,3.38-4.24,0-8.22,0-12.2,0-.24,0-.47.44-.91.88l4.19,2.05-8.32,5.9c.39,1.92-.64,3.71,1.13,5.12l2.29-.33c1.16-1.35-.06-3.91,2.66-3.69,0,2.64,0,5.29,0,7.93a5.61,5.61,0,0,1-.61,1.7l-1.47,1.58,3.12,1.11,3.29-4.29h4.61c1.12,1.43,3.46,2.07,3.06,4.78a13.5,13.5,0,0,1-1.81,2,12.53,12.53,0,0,1-2.46,1.22c-1.78.83-3.34,1.86-3.7,4a7.17,7.17,0,0,0-2.67.08c-.61.27-.9,1.25-1.33,1.92-1.19.21-2.52-.51-4,1v7h-10.94l-2.08,1.92-2.32-2.08c-2.56,0-5.19,0-7.82,0-.24,0-.47-.44-.73-.7,2.05-2.83,5.72.46,7.89-2.12a5.4,5.4,0,0,0-.06-1.88c-.14-.38-.81-.56-1.24-.81l-1.57,1.57-5.07-4.41-2.48,1.95c-2.18,1.16-4-.24-5.35,1.33.55.91,1,1.77,1.81,3l-6.31.3-10,5.1a11.92,11.92,0,0,0,7.54.49l1.74-1.74c5.42.49,11-.73,16.51.67.1,0,.1.44.19.88-3.68,1.47-7.76-.43-11.58,1V244H1837c1.83-1.26,2.58-3.94,5.29-4l4.36,2.47L1848,240h5l2.12-2h3.9l2.15,2H1882c-.24,1.22.59,2.62-1,4h-8l-1.94,1.94h-14.37c-.47,1.35-.86,2.49-1.26,3.63l-.85-.84c-1.21,1.95-2.42,3.9-3.17,5.13-2.51.43-4.3-.53-5.45,1.23V258h-6c-.23-1.21.57-2.6-.62-3.64l-2.62-.52-2.76,4.31ZM1751.63,88.63c-.28-.23-.53-.6-.77-.6-5.92,0-11.83,0-17.75,0-1,1.09-2.48,1.73-2.74,3.37.28.23.53.6.77.6,5.92,0,11.83,0,17.75,0C1749.85,90.91,1751.37,90.27,1751.63,88.63Zm8.92-1.85c-4.93-.87-4.93-.82-6.17.6C1756.16,88.31,1757.93,88.4,1760.55,86.78Zm93.16,137.93L1853,224a6.53,6.53,0,0,0-.63,1.34c0,.17.41.44.63.66Z" transform="translate(-2 -79.95)"/><path class="cls-1" d="M1560,2026c3.07-1.94,7-2.51,8.74-6H1572c3.79-2,3.79-2,8-2h3l2.1-2h36l1.8,1.8h8.2c1.52,3,4.22,1.76,6.26,2.44a6.5,6.5,0,0,1,.67,1.73c.1,1.32,0,2.66,0,4-5.88.31-11.81-.7-17.64.68a2.65,2.65,0,0,0,0,.67c.24.22.49.62.73.62,5.64,0,11.28,0,16.92,0h3.25l1.14,3.39c2.11.72,4.28,1.37,5.51,3.51,0,2.23.63,4.51-.5,6.79l-4.75.55c-.43,1.13-.87,2.27-1.43,3.75H1631l-2.06,2.06h-12l-2,2H1568.8l-.8,2h-7l-1.89,1.77h-46.47c-1.17-1.71-.54-3.33-.56-4.9L1522,2044h17.11l1.73-2h4.27l1.73-2h3.69l3.47-2,3.48,0c.94-2.07.49-3.28-.84-4.4-.39-.33-.44-1-.64-1.58a1.7,1.7,0,0,1,2-2c.67-.43,1.65-.72,1.92-1.33A7.17,7.17,0,0,0,1560,2026Z" transform="translate(-2 -79.95)"/><path class="cls-1" d="M1306,1954h-16.4l-4.17-3,2.57-1h10.79c1.2-1.75,3.6-1.72,5.46-4.18-3,1.57-3.85-.69-5.31-1.82-2.61,0-5.23,0-7.84,0-.25,0-.49.39-1.4,1.18l-1.7.79h-5l-2.09,2h-17.29l-5.62-2.89v-2c1.83-1,3.61-2.42,5.62-3,1.83-.49,4,.17,5.22-2h9.5l7-4H1295l1.45,1.45a7.3,7.3,0,0,0,1.78.5c2.31,0,4.62,0,6.73,0l3-3v-3c2-.25,2.82-1.79,3.82-3.2-2.64-.81-2.64-.81-3.82,1.2h-5.17c-1.08-2.36-2.19-4.82-3.46-7.61.05,0-.19-.36-.43-.36-2.61,0-5.23,0-7.85,0-.93-1.1-2.47-1.73-2.75-3.52,2.51-1.08,5.14-.17,7.66-.48h2c1.18,2,1.18,2,3.83,1.17-.74-2.14-2.55-.8-3.83-1.17v-5l5.66-2.87h17.48L1324,1911v2a10.55,10.55,0,0,1,7.3,5.59c1.42,3.06,3.59,5.14,5.76,7.4h3c.38,2.48,3,3.25,4.07,5.41V1937l2,2.26a14.39,14.39,0,0,1-5.11,10.77h-3.43l-7,4Zm3.4-20.88c4.7,1,4.7.93,6.29-.43C1313.93,1931.6,1312.16,1931.69,1309.4,1933.12Zm6.45-8.12c1.81,1.29,3.08,1.88,3.91-.29C1318.59,1923.62,1317.49,1923.69,1315.85,1925Z" transform="translate(-2 -79.95)"/><path class="cls-1" d="M1250,106c-.23-.57-.44-1.61-.7-1.63-2.87-.16-4.72-3.72-8.23-2.27L1239,104h-3.81l-2.2,2h-17.88l-2.13,2h-5c-1.18-2-1.18-2-3.83-1.17.74,2.14,2.55.8,3.83,1.17-.23.57-.46,1.13-.76,1.85h-11.06c-2.24.48-2.79,2.88-5.65,1.86l-2.91-3.7h-30.51l-2.14-2h-9.91l-2.15-2c-1.55-.36-3.31.7-4.71-.8.35-.4.69-1.15,1-1.16,6-.07,11.91,0,17.76,0l2.92-2.92c-.46-.36-.9-1-1.39-1-2.6-.2-5.22-.2-7.82-.42-.28,0-.48-1.06-.71-1.63h14c.33,1.62-1.49,1.93-1.87,3.13.21.21.43.62.68.65a25.11,25.11,0,0,0,8.61-.34c1.09-.72,3-1.69,3.29-1.34,1.73,2.1,5,1.58,6.4,3.86H1187l2.36-2.12c1.89,0,3.86,0,5.82,0,.24,0,.47-.44.84-.81-.1-.79-.22-1.69-.31-2.46-3.26-1.37-6.73.51-10.34-1.85,3.36-1.14,6.28-.56,9.1-.67,2.65-.1,5.31,0,8,0H1211l2-2c4.92,0,10.18,0,15.44,0,.52,0,1-.64,1.56-1V88h4v3.48c4.32,1.41,9-.17,13.23.75l1.68,1.68h6L1257,92h9.84c.75-.7,1.48-1.36,2.17-2h10l1.43,1.44a7.17,7.17,0,0,0,1.78.52c4.31,0,8.62,0,12.77,0l3.84-3.84h6.09l2.39,2h20.48c-1.52,1.75-1.52,1.75-7.49,2.47.25.48.48,1.31.73,1.32,2.66.1,5.32.06,8,.06l1.44-1.44a6.13,6.13,0,0,1,1.76-.53c3,0,6,0,8.94.14.24,0,.47.44.8.77l-2.73,2.89h-5.75L1331,97.89h-15.52c-3.22,2.41-3.22,2.41-7.8-.06l-2.93,2.23h-19.79l-1.83,1.83h-9.22l-3,5-4.15-2.84H1263L1261,106Z" transform="translate(-2 -79.95)"/><path class="cls-1" d="M1324,118c-.23-.57-.45-1.62-.71-1.63-2.89-.12-5.79-.07-8.59-.07l-1.61,1.61h-13.82l-2.3,2h-5.83l-2.2,2.05H1283l-2.08,1.92h-4l-1.7-1.7h-8.46l-1.6,1.6h-9.06l-8.62,4.53L1245,126h-12l-3.79,3.86h-15.91c-1.39,1.3-2.35,2.21-3.31,3.12,2,2.05,4.44.79,6.65,1s4.54,0,6.65,0l1.39,3.87,6.74-3.84H1239l1.44,1.45c1.85,1,3.85.32,6.21.56l2.29,1.7c2.64,1.06,6.12-.8,9.56,1.52-3.59,1.31-6.89.6-10.09.71s-6.56,0-10,0c-.26,1.24-.44,2.15-.65,3.15-.42.24-1,.81-1.5.81-7.26.06-14.52,0-21.3,0l-1.94,1.94h-7.79c-1.69,1-2.38,3.6-4.76,2-.44,1.69-.68,2.59-.93,3.54-2.14,1.1-4.44.42-6.54.45l-5-4.84v-8.48l5.41-1,1.26-3.53h4.93l4.68-5.9c3.18-.54,5.61.8,7.77-1.2-3-2-6.4-.22-9.69-1.39l-.58-2.85c-.73-1.08-2.14-.58-3.39-.76a13.93,13.93,0,0,1-2.54-.84c.49-.49.72-.93,1-.93,4.64,0,9.27,0,13.83,0L1213,118h9.83c.76-.69,1.48-1.36,2.19-2,2.07-.75,2.82,1.26,4,1.91h4l4-4h16l1.86-1.86h11.8l2.33-2h39.67c1.44-.8,2.19-2.8,4.58-1.94l1.12,3.31c1.41,1.31,3.14.09,4.52.66l1.58-1.58a7.27,7.27,0,0,1,1.78-.49c3.64,0,7.27,0,9.47,0,2.72,1.12,4.18,1.62,5.53,2.35.42.23.5,1.08.73,1.65h-9.15c-1.26,1.52-.69,2.82-.85,4Z" transform="translate(-2 -79.95)"/><path class="cls-1" d="M2896,178h-7l-1.75,1.88c-2.44.41-5.39-.06-7.66.13l-7.28,4.12h-5.41L2865,186h-8c-.53.58-.9.8-.94,1.07a14.13,14.13,0,0,0,0,2c-.57.34-1.09.92-1.63.94-2.6.09-5.2,0-8,0a13.37,13.37,0,0,1,3.36-2.58c.17-1.5.35-3.06.51-4.57l5.49-2.85H2863a27,27,0,0,1,3.55-3.46c1.23-.85,2.79-1.22,5.88-2.5h6.72c.38-.91.61-1.47.84-2h16l6-3v-3h7l1.41,1.41a6,6,0,0,0,1.76.56c3.65.06,7.3,0,10.83,0l1.88-1.88h14c.82-.82,1.29-1.3,1.94-1.94h11.32l7.38-4.12h7.31L2969,158h15.29l5.58,2.91v4c-1.09,2.29-3.52.38-5.15,1.3L2983,168h-8l-1.88,1.88h-9.79l-2.35,2.06h-19.81L2939,174h-7c-.23-.56-.37-1.56-.7-1.62a16.19,16.19,0,0,0-9.3.65v3h-6.93l-2.14,2H2906c.15-1.9-1.16-2.07-2.51-2s-3.48-.69-3.49,2Z" transform="translate(-2 -79.95)"/><path class="cls-1" d="M3376,146h-7l-1.83,1.91a84.58,84.58,0,0,1-8.47,0l-.93-2.87c5.08-2.13,9.74-4.73,13.2-9,1.93.39,3-.91,4.12-2.11s2.34-2.35,3.72-3.73h26.42l1.62,1.62h5.32l7.87,4.39h7.76v5c-1.61,1-3.8.93-4.89,2.77H3380c-.55.22-1.13.4-1.65.67C3377.55,145.08,3376.78,145.55,3376,146Z" transform="translate(-2 -79.95)"/><path class="cls-1" d="M207.06,2040l-2.12,2h-2.22c-.29-.84-.58-1.71-1-2.89a28.15,28.15,0,0,0-4.33-2.59,21.48,21.48,0,0,0-4.69-.76c-1.41-1.37-.36-3.13-.73-4.76l3-2.86h5.65l2.35-2h15.9L221,2028h3.85l2.2,2H231l1.82,1.82,6.29.29,1.75,1.75h8a36.86,36.86,0,0,0,3.9,3.81c.87.62,2.12.68,3.46,1.07L253,2042h-22l-2.11-2Z" transform="translate(-2 -79.95)"/><path class="cls-1" d="M1000,1954h-9l-2.13,2c-2.07.74-2.79-1.29-4.27-2H971c-.53-.52-1-1.37-1.47-1.4-4.11-.2-7.55-2.93-11.9-2.65-6.24.42-12.52.11-18.49.11l-3.11-3c2.15-2.37,5.13,0,7.42-1.42l1.38-1.38h18.44l1.7,1.7h7.72l6.88-3.92H985l1.38,1.44c2.12,1.13,4.46.24,6.61.62l2.5,2.26,4.13-2.11h11.57l1.54,1.54,4.54.48a6.83,6.83,0,0,1,.68,1.8c.1,1.31,0,2.64,0,4a7,7,0,0,0-2.67.08c-.61.27-.9,1.25-1.33,1.92h-14Z" transform="translate(-2 -79.95)"/><path class="cls-1" d="M3324,134h-23.2c-.35-.88-.58-1.44-.8-2v-3.1l-4.8-2.2,6.18-1.08,3.56-3.56c3.3-.13,3.3-.13,5.53-2.06h-13.38l-2.14,2h-3.43l-6.85-3.9c-2.07-.92-4.55,1-6.57-1l2.34-2.9c3.22-.6,5.67.87,7.56-1.21v-3h14c.23.57.46,1.13.83,2h18.26c2,2.59,5.82,2.16,7,5.7-.19.56-.49,1.43-.79,2.28-2.19,0-4.17-.09-6.15,0-2.24.14-4.56-.61-7,.67a9,9,0,0,0,.19,2.59c.33.85,1.18,1.49,1.62,2.31a15.65,15.65,0,0,1,.88,2.45h3.48l5.54,2.84C3325.49,132.07,3323.67,132.38,3324,134Z" transform="translate(-2 -79.95)"/><path class="cls-1" d="M1376,2046h5l2.09,2h30l1.46-1.46c3-1.4,6.5.58,9.48-1.34l-2-2.19,5.63-2.89h7.13L1437,2038H1443l2.13,2,2.22.11c.38,1.08.79,2.24,1.19,3.4l4.16,1.46-4,1.37c-1.35,1.4-.29,3.16-.7,4.73-1.23,1.66-3,.66-4.8,1l-2.18,1.88H1409l-4.1-3.9H1397l-2.09,1.88h-14L1379,2050a30.42,30.42,0,0,1-3.41,0c-1-.11-1.82-.71-1.59-2v-2Z" transform="translate(-2 -79.95)"/><path class="cls-1" d="M1344,2030h-3l-3.8,3.81-6.69.36c-.22.9-.44,1.8-.76,3.14l-2.91,2.57h-17.77l-2.09-1.81h-4l-1.1-2.21c1.92-3.93,5.51-5.5,10.13-7.83h9l1.9-1.9h15.75l2.4-2.05h3.75l2.26-2c5.5-.07,11.07,0,17.64,0-2.3,2.31-4.7,2.3-5.92,4-2.5-.51-3.51,2.86-6.06,2.37a8.22,8.22,0,0,0-.69,1.63Z" transform="translate(-2 -79.95)"/><path class="cls-1" d="M3334,122h25c1.87,2.28,5.53,2,7,5v2.22l-3.33,1.12c-1.32,1.41-.25,3.17-.7,4.71l-5.6,2.88H3347L3345,136h-3c-.25-1.89.59-3.9-.77-5.86-2.95-.71-6.34.75-9.77-1.22.85-1.5,1.59-2.79,2.44-4.27l-2.56-.8L3329,126h-5.85c-1-1-2.44-1.68-2.78-3.3.27-.23.51-.62.76-.62C3325.41,122,3329.7,122,3334,122Z" transform="translate(-2 -79.95)"/><path class="cls-1" d="M4030,356v-5c-1.49-1.81-1.9.36-3.56,1.08h-17.53l-1.71,1.72c-1.65-.56-1.23-1.82-1-3,1.33-1.52,3.1-.48,4.72-.83l2.12-2h5.91l2.22,2,3.44-7.61,2.7-.69a2.33,2.33,0,0,0,.09-3.4A12.33,12.33,0,0,1,4026,336c-.13-.27,0-.65,0-1.18l2.39-.88c.48.25.9.32,1,.54.91,1.94,1.76,3.9,2.64,5.88l-1.77,3c1.44,1.4,3.18.36,4.69.71l2.07-1.91,2.32,2.07,2.58-.83L4040,340c2.67-.38,5.57.86,8-.88V336h10.92l2.12,2h3a1.7,1.7,0,0,0,2,2c-.23.56-.46,1.13-.79,2h-14.94l-5.69,2.51c-.8,1.43-.65,3.92-2.68,4.53-4,1.2-6,4.58-9.07,7Z" transform="translate(-2 -79.95)"/><path class="cls-1" d="M645.26,1968h-8.63l-2.69-2.89c.14-1.08.22-1.71.3-2.35.23-.23.47-.67.7-.67,6.66,0,13.31,0,19.65,0l6.75,3.76h7.48l1.89,1.89,4.07.47,3.17,2.66c.4,2.74-1.72,3.63-2.9,5.11l-1.41-1.3c-.24-.22-.48-.62-.73-.62-4,0-8,0-11.91,0l-1.78-1.78-4.29-.39-2.1-1.77C650.12,1969.57,647.15,1971.32,645.26,1968Z" transform="translate(-2 -79.95)"/><path class="cls-1" d="M696,1976h-7c-1.5-1.48-.78-2.81-1-4a1.7,1.7,0,0,0-2-2c-2.55-.15-2.11-1.75-1.7-3.31.31-.27.55-.66.79-.66,7.9,0,15.79,0,23.77,0l2.13,1.94c2.82.25,5.74-.22,8.74.26.08,1.24.13,2.13.2,3.27l-3.57.87-3,3.66H696Z" transform="translate(-2 -79.95)"/><path class="cls-1" d="M2892,108h10.84c1.78,2.65,6.41,1.67,7.16,5.63.51,3.62-4,1.41-4.5,3.87-.25.16-.5.45-.77.48a18.5,18.5,0,0,1-2,0H2876v-3.06l3-2.79a13,13,0,0,1,2.52-.12c1.54.18,2.17-1.37,3.23-1.65,2.1-.56,4.38-.44,6.55-.78C2891.62,109.56,2891.77,108.56,2892,108Z" transform="translate(-2 -79.95)"/><path class="cls-1" d="M4162,2018c-.23-.57-.31-1.41-.73-1.64a20.06,20.06,0,0,0-3.15-1.16c-.45-1.81.46-2.67,1.3-3.73s.86-2.26,1.26-3.41h8.24l2.1,1.91h17.81l2.18,2c1.47.41,3.21-.61,4.85.87-1.44,1.48-3.91,1.36-5,3.17H4168l-3.47,2Z" transform="translate(-2 -79.95)"/><path class="cls-1" d="M2458,130l-.82-2h-12.54c-1.3-2.77-.3-5.44-.64-8h4l.75,1.85h18.5L2468,120h14c-.25,1.22.6,2.64-1.05,4h-5.73c-1.23,1-2,1.55-2.33,1.83-3.73.18-7,.33-10.22.53-.23,0-.45.44-.67.68v3Z" transform="translate(-2 -79.95)"/><path class="cls-1" d="M2942,108h7.46c.19,1,.39,2.18.58,3.21l-6.34,2.63h-12.54l-1.95,2h-8.42l-1.48-1.48c-1.58-1-4,.84-5.22-1.4l5.58-2.86h7.18l2.19-2h13Z" transform="translate(-2 -79.95)"/><path class="cls-1" d="M1267,1930l1.92-1.93c2.36-.3,5.29.11,8.06-.12,1.34,1.62,3.44,2.54,3,5.26-2.83,1.74-6.26.17-9.08.92l-1.64,1.64h-22.9c-.12-1.11-.21-2-.29-2.8.37-.37.6-.81.84-.81,3.32-.05,6.64,0,9.89,0L1259,1930Z" transform="translate(-2 -79.95)"/><path class="cls-1" d="M1392,1870h5.09l2-4.41,1.34,3.88c1.84,1.51,3,.13,4.31-1.26h8.44c1.74,2.07,0,4.51,1.1,6.69l-4.32,2V1880l-3.44-2H1398c-.24-1.88.58-3.88-.69-5.74a45.4,45.4,0,0,1-4.6-.64C1392.36,1871.54,1392.23,1870.56,1392,1870Z" transform="translate(-2 -79.95)"/><path class="cls-1" d="M205.15,2062l-2.14-1.94c-2.14-.38-4.48.5-6.69-.66.23-.49.45-1.34.68-1.34,10.59-.07,21.17-.06,31.85-.06L231,2060c2.82.24,5.76-.24,9,.3-1.88,1.75-1.88,1.75-10.89,1.75H205.15Z" transform="translate(-2 -79.95)"/><path class="cls-1" d="M1346,1884l2,3.47V1896h-11.17l-2.9-2.75c.14-1.21.21-1.83.3-2.72l3.33-.89,5-5.64Z" transform="translate(-2 -79.95)"/><path class="cls-1" d="M1912.1,1965.82l5.67.39c.14,2.52.27,4.76.38,6.84l1.75,2.15c-2.32,1.49-4.67.54-6.9.8l-3.52-3.52c-3-1.37-6.48.57-9.81-1.54,3-1.66,6-.61,9.8-1.1C1910.08,1968.92,1911.16,1967.26,1912.1,1965.82Z" transform="translate(-2 -79.95)"/><path class="cls-1" d="M1254.18,1924v-3.19c1.48-1.5,3.21-.46,4.77-.82l2.08-2h3.91c1,1.87,3.21,1.74,4.89,2.78v4.41c-1.45,1.5-1.51-.49-2-.54-2.32-1.22-4.61-.51-6.82-.62S1256.52,1924,1254.18,1924Z" transform="translate(-2 -79.95)"/><path class="cls-1" d="M1788,84V81c2.16-1.79,4.73-.72,7.06-.88l2.09,1.88H1808c2.85,0,5.71-.08,8.56,0a1.52,1.52,0,0,1,1.44,2Z" transform="translate(-2 -79.95)"/><path class="cls-1" d="M724.19,1972v-5.24c2.16-1.51,4.49-.48,6.69-.76,1.12,1.74,3.17,1.83,5,2.75v2.51c-1.58,1.37-3.28.61-4.83.7C728.78,1972.1,726.54,1972,724.19,1972Z" transform="translate(-2 -79.95)"/><path class="cls-1" d="M1230,152v-2.95l6.06-3.1c2.09.64,3.52,2.78,5.94,2.05-.21.55-.27,1.39-.66,1.59C1236.52,152,1236.51,152,1230,152Z" transform="translate(-2 -79.95)"/><path class="cls-1" d="M1782,80v2c-.55.22-1.51.35-1.59.68-.27,1.19.62,1.39,1.59,1.32h6a1.53,1.53,0,0,1-1.56,2c-3.25.11-6.51,0-9.38,0-1.67-1.35-.81-2.78-1.06-4a1.54,1.54,0,0,1,1.37-2A39.69,39.69,0,0,1,1782,80Z" transform="translate(-2 -79.95)"/><path class="cls-1" d="M2194,1930c-.11-1.94,1.88-2.35,2.69-3.82h6.49c1.4,1.4,1.09,2.52-1.18,3.82Z" transform="translate(-2 -79.95)"/><path class="cls-1" d="M3245.63,109.24c1-.83,1.24-1.21,1.49-1.21q6.93-.06,13.86,0c.22,0,.44.45.66.69C3258.94,110.41,3257.33,110.48,3245.63,109.24Z" transform="translate(-2 -79.95)"/><path class="cls-1" d="M1732,2032c1.27.35,3.09-.93,3.78,1.25-1.69,1.41-3.65.58-5.46.71a11.62,11.62,0,0,1-3.66-.39c-.33-.08-.45-1-.66-1.57Z" transform="translate(-2 -79.95)"/><path class="cls-1" d="M2836,122c0-1.17,0-2.34,0-4l4,0c0,1.17,0,2.34,0,4Z" transform="translate(-2 -79.95)"/><path class="cls-1" d="M1030,1954c-2.2,0-4.4.11-6.59,0a1.53,1.53,0,0,1-1.41-2c2.2,0,4.4-.11,6.59,0A1.53,1.53,0,0,1,1030,1954Z" transform="translate(-2 -79.95)"/><path class="cls-1" d="M1364,2046h6v2c-2.53-.32-5.16.62-7.61-.46C1362.2,2046.08,1363,2045.94,1364,2046Z" transform="translate(-2 -79.95)"/><path class="cls-1" d="M2984,1950c0-2.67,2.05-1.89,3.49-2s2.66.08,2.51,2Z" transform="translate(-2 -79.95)"/><path class="cls-1" d="M2844,118a7,7,0,0,1,2.67.08c.61.27.9,1.25,1.33,1.92a7.17,7.17,0,0,1-2.67-.08C2844.72,119.65,2844.43,118.67,2844,118Z" transform="translate(-2 -79.95)"/><path class="cls-1" d="M2748,1884h-4v-2a7,7,0,0,1,2.67.08C2747.28,1882.35,2747.57,1883.33,2748,1884Z" transform="translate(-2 -79.95)"/><path class="cls-1" d="M2860,120c-.07-1,.13-1.86,1.32-1.59.33.08.46,1,.68,1.59Z" transform="translate(-2 -79.95)"/><path class="cls-1" d="M768,1970h-2a1.7,1.7,0,0,1,2-2Z" transform="translate(-2 -79.95)"/><path class="cls-1" d="M3686,314c0,.33.14.8,0,1-1.61,1.67-3.26,3.29-5,5h-4l-2.45-2.29-4.07,2.34c-3.21,0-6.77,0-12.35-.06l5.66-2.74c-.36-2.22-4.18-.05-3.73-4.1,1.09-1.75,3.49-3.5,5.44-5.68l.66-2.57,5.48-2.85H3676v2c.67,1.29,1.66,2.52,1.92,3.9.4,2.1,2.07,2.89,3.35,4.1H3686Z" transform="translate(-2 -79.95)"/><path class="cls-1" d="M3662,328h10a4.91,4.91,0,0,1,4,4h-10.81c-1.17-1.78-3.6-1.7-5-3.26Z" transform="translate(-2 -79.95)"/><path class="cls-1" d="M3686,312v-2a7.17,7.17,0,0,1,2.67.08c.61.27.9,1.25,1.33,1.92Z" transform="translate(-2 -79.95)"/><path class="cls-1" d="M534,266H522.93c-1.63-1.82-.42-3.53-1.38-5.52-1.41-1.45-1.74,1.68-3.17,1.58s-3.24-.67-4.36,1c-.15.22,0,.63,0,.95h-3.34c-.26-.95-.54-2-.79-2.95,2.24-1.92,4.55-.71,6.7-1.06,1.47-1,3.11-1.93,3.43-4h2c.79,1.61,1.58,3.23,2.38,4.84,1.11,2.42,4.14-.09,5.65,2.17,1.34,2,3.71.26,5.27,1.36.41.29.48,1.07.7,1.63Z" transform="translate(-2 -79.95)"/><path class="cls-1" d="M1380,280h-5c-1.49-2.77-5.9-1.39-6.55-5.19.06-.05.46-.74.89-.76,2.61-.1,5.23-.05,7.56-.05l3.06,3Z" transform="translate(-2 -79.95)"/><path class="cls-1" d="M1379.77,279.44l2,1.74C1380.07,282.54,1380.21,281,1379.77,279.44Z" transform="translate(-2 -79.95)"/><path class="cls-1" d="M1364.71,273.71,1364,273a6.53,6.53,0,0,1,1.34-.63c.17,0,.44.41.66.63Z" transform="translate(-2 -79.95)"/><path class="cls-1" d="M1044,130v-5.1c-2.89-1.94-6.35-.15-9.66-1.38-.2-2.58,3.49-.54,3.47-2.73L1034,119c1.65-1.84,3.47-.36,5.62-1.61l1.43-1.34H1059l2.27,2H1065l2.24,1.92c1.83,0,3.92-.64,5.06.14,2.24,1.52,5.06,1.17,7,2.39,3.17,2,7,2.86,9.92,5.46h6.17c2.33,1.55,3.69,2.44,4.59,3,.35,2.74-1.65,3.28-2.51,4.58-1.88.38-3.79,1.18-5.4-.57l1.93-2.11-5.62-2.88h-5.16l-1.61-1.46c-2-1.27-4.34-.32-6.53-.57L1073,130H1069l-2.21-1.95h-5.44l-2.4-1.81h-6.15c-1.45,1.14-.56,2.58-.82,3.81Z" transform="translate(-2 -79.95)"/><path class="cls-1" d="M1162,176h19l1.68,1.71c3.4,1.17,7.49-.67,11.2,1-.19.38-.29.81-.42.82-4.23.27-8.47.5-12.71.74l-1.58,1.58h-6.36l-1.94-1.94h-14.47c-.16-2.44,1.49-1.58,2.41-1.9C1160,177.57,1160.34,175.71,1162,176Z" transform="translate(-2 -79.95)"/><path class="cls-1" d="M1378,93c-.62.57-.86,1-1.1,1-3.31,0-6.62,0-10,0l-1.34,1.38a6,6,0,0,1-1.78.59c-5.62,0-11.25,0-17.34,0-.19-1-.39-2.18-.54-3.06.65-.54.9-.91,1.14-.91q14.89,0,29.78,0C1377.15,92,1377.4,92.43,1378,93Z" transform="translate(-2 -79.95)"/><path class="cls-1" d="M1061.7,134.15h15.46c1.54,1.48.49,3.23.84,4.76-1.89,2.23-3.31.87-5-.92h-10.55C1062.22,136.83,1062.05,135.93,1061.7,134.15Z" transform="translate(-2 -79.95)"/><path class="cls-1" d="M1350,109c-5.74,1.35-6.26,1.35-12,0C1343.74,107.65,1344.26,107.65,1350,109Z" transform="translate(-2 -79.95)"/><path class="cls-1" d="M1252,105.73c-4.56,3.12-7.2,1.86-9.85,1.61C1244.55,105.27,1247.38,106.34,1252,105.73Z" transform="translate(-2 -79.95)"/><path class="cls-1" d="M1538.56,217.77l-1.74,2C1535.46,218.07,1537,218.21,1538.56,217.77Z" transform="translate(-2 -79.95)"/><path class="cls-1" d="M1344,154h8v2.93c.85,1.39,2.23.95,3.47,1.1a19.11,19.11,0,0,1,2.88.81l-5.87,3h-7.93C1343.38,159.16,1344.32,156.53,1344,154Z" transform="translate(-2 -79.95)"/><path class="cls-1" d="M1911.81,121.44v3.81c-2.28,1.53-4.64.16-7.21,1.15-.26-1.44-.46-2.57-.63-3.5C1906.47,121.22,1908.83,122.59,1911.81,121.44Z" transform="translate(-2 -79.95)"/><path class="cls-1" d="M1860,204c1.18-2.05,1.18-2.05,3.83-1.17C1863.09,205,1861.28,203.63,1860,204Z" transform="translate(-2 -79.95)"/><path class="cls-1" d="M1860,204a1.7,1.7,0,0,1-2,2A1.7,1.7,0,0,1,1860,204Z" transform="translate(-2 -79.95)"/><path class="cls-1" d="M3779.24,231.87l3.55.91-5.48,4c1,1.79,1.78,3.11,2.73,4.79-.11.48-.33,1.37-.53,2.23h-7.06c.13-2.28,2.32-3.82,1.49-6.27C3775.11,235.26,3777.39,233.87,3779.24,231.87Z" transform="translate(-2 -79.95)"/><path class="cls-1" d="M2371.66,126.79c-.28,1.52-3,2.55-1.17,4.7,2.4,2,3.29-1,5.31-1.61,2.85-1,4.73,2.37,7.54,2.5l2.31,4.83-5.32,2.79H2373l-2.17-2H2367l-7.78-7.78a5,5,0,0,1-3-1.4l2.11-2.11A5.37,5.37,0,0,1,2360,126c3.64-.06,7.29,0,10.94,0C2371.19,126,2371.4,126.49,2371.66,126.79Z" transform="translate(-2 -79.95)"/><path class="cls-1" d="M2312.19,133.22v-2.41c.34-.34.57-.77.8-.77,3.29,0,6.58,0,9.87,0,1.08,1.83,3.59,1.65,5,3.17-.44.39-.68.79-.92.79q-6.91.06-13.81,0C2312.87,134,2312.62,133.59,2312.19,133.22Z" transform="translate(-2 -79.95)"/><path class="cls-1" d="M682,512c-3.16-.78-4.32-2.9-4-6l3.46,2h4c.2,1,.4,2.16.55,2.95C684.61,512.58,683.21,511.76,682,512Z" transform="translate(-2 -79.95)"/><path class="cls-1" d="M682,258h-2.92L677,256c-2.44,0-5,.09-7.52-.05A1.52,1.52,0,0,1,668,254h13C682.55,255.43,681.77,256.8,682,258Z" transform="translate(-2 -79.95)"/><path class="cls-1" d="M424,344c0-1.17,0-2.34,0-4l4,0h5l2.16,2H439l2.23,2H453.3l1.24,3.56,5.74.94c-2.42,2.66-5.27.67-7.54,1.71l-2,2-1.83-4.22H435.22L433,346h-3.86L427,344Z" transform="translate(-2 -79.95)"/><path class="cls-1" d="M1889.28,105.2c3.52-2,6-.75,8.41-1.33C1897.61,106.25,1897.61,106.29,1889.28,105.2Z" transform="translate(-2 -79.95)"/><path class="cls-1" d="M1920.93,110c3-2.74,4.91-2.55,6.94-1.2C1925.59,110,1925.59,110,1920.93,110Z" transform="translate(-2 -79.95)"/><path class="cls-1" d="M1875.29,113.71,1874,113c.22-.22.49-.66.66-.63a6.53,6.53,0,0,1,1.34.63Z" transform="translate(-2 -79.95)"/><path class="cls-1" d="M1855.71,93.29,1855,94a6.53,6.53,0,0,1-.63-1.34c0-.17.41-.44.63-.66Z" transform="translate(-2 -79.95)"/><path class="cls-1" d="M376.56,2009.77l-1.74,2C373.46,2010.07,375,2010.21,376.56,2009.77Z" transform="translate(-2 -79.95)"/><path class="cls-1" d="M1902,180c-1.28-.37-3.09,1-3.83-1.17C1900.82,178,1900.82,178,1902,180Z" transform="translate(-2 -79.95)"/><path class="cls-1" d="M1901.77,179.44l2,1.74C1902.07,182.54,1902.21,181,1901.77,179.44Z" transform="translate(-2 -79.95)"/><path class="cls-1" d="M3118,654v-2H3123l2.08,1.92,2-1.81c2.18-.66,3,1.18,4,1.78h4.46c.24-.94.46-1.83.84-3.33l3.19-.75c.27,1.33.46,2.23.71,3.43,1.32,1.72,3.46.51,5.3.71a51.64,51.64,0,0,0,5.69,0l.81,2a4.91,4.91,0,0,0-4,4h-19l-4-4h-3.55Z" transform="translate(-2 -79.95)"/><path class="cls-1" d="M3118,652a4.91,4.91,0,0,1-4-4l4,0C3118,649.66,3118,650.83,3118,652Z" transform="translate(-2 -79.95)"/></g></g></svg>